G04*
G04 #@! TF.GenerationSoftware,Altium Limited,Altium Designer,21.9.2 (33)*
G04*
G04 Layer_Color=8421504*
%FSLAX44Y44*%
%MOMM*%
G71*
G04*
G04 #@! TF.SameCoordinates,E2BC6D59-9887-43D7-9D5B-FB48D232BC44*
G04*
G04*
G04 #@! TF.FilePolarity,Positive*
G04*
G01*
G75*
%ADD15C,0.2540*%
%ADD18C,0.1524*%
%ADD19C,0.1270*%
%ADD20R,1.9304X1.9304*%
%ADD21R,1.9500X0.6000*%
%ADD22R,1.0000X0.8000*%
%ADD23R,0.9000X0.8000*%
%ADD24R,0.2100X0.4650*%
%ADD25R,0.3900X0.2100*%
%ADD26R,0.4650X0.2100*%
%ADD27R,0.5000X0.5000*%
%ADD28R,0.6000X0.8000*%
%ADD29R,0.8000X0.6000*%
%ADD30R,1.3500X1.0000*%
%ADD31R,0.9000X0.7000*%
%ADD32R,1.3500X0.9500*%
%ADD33R,2.0000X2.0000*%
%ADD34R,0.8500X0.3000*%
%ADD35R,0.3000X0.8500*%
%ADD36R,0.8000X0.8000*%
%ADD37R,0.7500X0.8000*%
%ADD38R,0.8000X0.8000*%
%ADD39R,0.8000X0.9000*%
%ADD40R,2.8000X1.6000*%
G04:AMPARAMS|DCode=41|XSize=1mm|YSize=1.1mm|CornerRadius=0.25mm|HoleSize=0mm|Usage=FLASHONLY|Rotation=90.000|XOffset=0mm|YOffset=0mm|HoleType=Round|Shape=RoundedRectangle|*
%AMROUNDEDRECTD41*
21,1,1.0000,0.6000,0,0,90.0*
21,1,0.5000,1.1000,0,0,90.0*
1,1,0.5000,0.3000,0.2500*
1,1,0.5000,0.3000,-0.2500*
1,1,0.5000,-0.3000,-0.2500*
1,1,0.5000,-0.3000,0.2500*
%
%ADD41ROUNDEDRECTD41*%
%ADD42R,1.0500X1.0500*%
G04:AMPARAMS|DCode=43|XSize=1mm|YSize=1.1mm|CornerRadius=0.25mm|HoleSize=0mm|Usage=FLASHONLY|Rotation=0.000|XOffset=0mm|YOffset=0mm|HoleType=Round|Shape=RoundedRectangle|*
%AMROUNDEDRECTD43*
21,1,1.0000,0.6000,0,0,0.0*
21,1,0.5000,1.1000,0,0,0.0*
1,1,0.5000,0.2500,-0.3000*
1,1,0.5000,-0.2500,-0.3000*
1,1,0.5000,-0.2500,0.3000*
1,1,0.5000,0.2500,0.3000*
%
%ADD43ROUNDEDRECTD43*%
%ADD44R,0.8121X0.9311*%
%ADD45R,0.7620X0.7620*%
D15*
X584870Y-492414D02*
X589950Y-507654D01*
X595030Y-492414D01*
X589950Y25746D02*
X595030Y10506D01*
X584870D02*
X589950Y25746D01*
Y-507654D02*
Y-297326D01*
Y-192710D02*
Y25746D01*
X536864Y-507654D02*
X592490D01*
X538388Y25746D02*
X592490D01*
X-21682Y104738D02*
X-6442Y109817D01*
X-21682Y104738D02*
X-6442Y99657D01*
X522050D02*
X537290Y104738D01*
X522050Y109817D02*
X537290Y104738D01*
X-21682D02*
X200162D01*
X307318D02*
X537290D01*
X-21682Y28286D02*
Y107277D01*
X537290Y29678D02*
Y107277D01*
X-75946Y-465074D02*
X-70866Y-480314D01*
X-65786Y-465074D01*
X-70866Y-1270D02*
X-65786Y-16510D01*
X-75946D02*
X-70866Y-1270D01*
Y-480314D02*
Y-297164D01*
Y-192548D02*
Y-1270D01*
X-73406Y-480314D02*
X-23620D01*
X-73406Y-1270D02*
X-24382D01*
X-127254Y-492506D02*
X-122174Y-507746D01*
X-117094Y-492506D01*
X-122174Y25654D02*
X-117094Y10414D01*
X-127254D02*
X-122174Y25654D01*
Y-507746D02*
Y-297418D01*
Y-192802D02*
Y25654D01*
X-124714Y-507746D02*
X-25400D01*
X-124714Y25654D02*
X-27178D01*
D18*
X599091Y-283106D02*
Y-293262D01*
X588935Y-283106D01*
X586396D01*
X583857Y-285645D01*
Y-290723D01*
X586396Y-293262D01*
X599091Y-278027D02*
Y-272949D01*
Y-275488D01*
X583857D01*
X586396Y-278027D01*
Y-265331D02*
X583857Y-262792D01*
Y-257714D01*
X586396Y-255175D01*
X596552D01*
X599091Y-257714D01*
Y-262792D01*
X596552Y-265331D01*
X586396D01*
Y-250096D02*
X583857Y-247557D01*
Y-242479D01*
X586396Y-239940D01*
X596552D01*
X599091Y-242479D01*
Y-247557D01*
X596552Y-250096D01*
X586396D01*
X599091Y-234861D02*
X596552D01*
Y-232322D01*
X599091D01*
Y-234861D01*
X586396Y-222165D02*
X583857Y-219626D01*
Y-214548D01*
X586396Y-212009D01*
X596552D01*
X599091Y-214548D01*
Y-219626D01*
X596552Y-222165D01*
X586396D01*
Y-206930D02*
X583857Y-204391D01*
Y-199313D01*
X586396Y-196774D01*
X596552D01*
X599091Y-199313D01*
Y-204391D01*
X596552Y-206930D01*
X586396D01*
X214382Y95596D02*
X204226D01*
X214382Y105753D01*
Y108292D01*
X211843Y110831D01*
X206765D01*
X204226Y108292D01*
X229618Y95596D02*
X219461D01*
X229618Y105753D01*
Y108292D01*
X227078Y110831D01*
X222000D01*
X219461Y108292D01*
X234696D02*
X237235Y110831D01*
X242313D01*
X244853Y108292D01*
Y98135D01*
X242313Y95596D01*
X237235D01*
X234696Y98135D01*
Y108292D01*
X249931D02*
X252470Y110831D01*
X257549D01*
X260088Y108292D01*
Y98135D01*
X257549Y95596D01*
X252470D01*
X249931Y98135D01*
Y108292D01*
X265166Y95596D02*
Y98135D01*
X267705D01*
Y95596D01*
X265166D01*
X288019Y110831D02*
X282940Y108292D01*
X277862Y103214D01*
Y98135D01*
X280401Y95596D01*
X285480D01*
X288019Y98135D01*
Y100674D01*
X285480Y103214D01*
X277862D01*
X293097Y108292D02*
X295636Y110831D01*
X300715D01*
X303254Y108292D01*
Y105753D01*
X300715Y103214D01*
X303254Y100674D01*
Y98135D01*
X300715Y95596D01*
X295636D01*
X293097Y98135D01*
Y100674D01*
X295636Y103214D01*
X293097Y105753D01*
Y108292D01*
X295636Y103214D02*
X300715D01*
X-61725Y-293100D02*
Y-288022D01*
Y-290561D01*
X-76960D01*
X-74420Y-293100D01*
Y-280404D02*
X-76960Y-277865D01*
Y-272787D01*
X-74420Y-270248D01*
X-71881D01*
X-69342Y-272787D01*
X-66803Y-270248D01*
X-64264D01*
X-61725Y-272787D01*
Y-277865D01*
X-64264Y-280404D01*
X-66803D01*
X-69342Y-277865D01*
X-71881Y-280404D01*
X-74420D01*
X-69342Y-277865D02*
Y-272787D01*
X-74420Y-265169D02*
X-76960Y-262630D01*
Y-257552D01*
X-74420Y-255013D01*
X-71881D01*
X-69342Y-257552D01*
X-66803Y-255013D01*
X-64264D01*
X-61725Y-257552D01*
Y-262630D01*
X-64264Y-265169D01*
X-66803D01*
X-69342Y-262630D01*
X-71881Y-265169D01*
X-74420D01*
X-69342Y-262630D02*
Y-257552D01*
X-76960Y-239778D02*
X-74420Y-244856D01*
X-69342Y-249934D01*
X-64264D01*
X-61725Y-247395D01*
Y-242317D01*
X-64264Y-239778D01*
X-66803D01*
X-69342Y-242317D01*
Y-249934D01*
X-61725Y-234699D02*
X-64264D01*
Y-232160D01*
X-61725D01*
Y-234699D01*
X-74420Y-222003D02*
X-76960Y-219464D01*
Y-214386D01*
X-74420Y-211847D01*
X-64264D01*
X-61725Y-214386D01*
Y-219464D01*
X-64264Y-222003D01*
X-74420D01*
Y-206768D02*
X-76960Y-204229D01*
Y-199151D01*
X-74420Y-196612D01*
X-64264D01*
X-61725Y-199151D01*
Y-204229D01*
X-64264Y-206768D01*
X-74420D01*
X-113033Y-283198D02*
Y-293354D01*
X-123189Y-283198D01*
X-125728D01*
X-128267Y-285737D01*
Y-290815D01*
X-125728Y-293354D01*
X-113033Y-278119D02*
Y-273041D01*
Y-275580D01*
X-128267D01*
X-125728Y-278119D01*
Y-265423D02*
X-128267Y-262884D01*
Y-257806D01*
X-125728Y-255267D01*
X-115572D01*
X-113033Y-257806D01*
Y-262884D01*
X-115572Y-265423D01*
X-125728D01*
Y-250188D02*
X-128267Y-247649D01*
Y-242571D01*
X-125728Y-240032D01*
X-115572D01*
X-113033Y-242571D01*
Y-247649D01*
X-115572Y-250188D01*
X-125728D01*
X-113033Y-234953D02*
X-115572D01*
Y-232414D01*
X-113033D01*
Y-234953D01*
X-125728Y-222257D02*
X-128267Y-219718D01*
Y-214640D01*
X-125728Y-212101D01*
X-115572D01*
X-113033Y-214640D01*
Y-219718D01*
X-115572Y-222257D01*
X-125728D01*
Y-207022D02*
X-128267Y-204483D01*
Y-199405D01*
X-125728Y-196866D01*
X-115572D01*
X-113033Y-199405D01*
Y-204483D01*
X-115572Y-207022D01*
X-125728D01*
D19*
X14797Y-480989D02*
G03*
X14797Y-480989I-15999J0D01*
G01*
X15051Y341D02*
G03*
X15051Y341I-15999J0D01*
G01*
X435929Y-65699D02*
G03*
X435929Y-65699I-15999J0D01*
G01*
Y-412409D02*
G03*
X435929Y-412409I-15999J0D01*
G01*
X-22790Y-506897D02*
Y26503D01*
X537290Y-125897D02*
Y26503D01*
Y-506897D02*
Y-125897D01*
X-21680Y26000D02*
X538400D01*
X-22790Y-506897D02*
X537290D01*
D20*
X399876Y-307058D02*
D03*
D21*
X372626Y-326108D02*
D03*
Y-313408D02*
D03*
Y-300708D02*
D03*
Y-288008D02*
D03*
X427126D02*
D03*
Y-300708D02*
D03*
Y-313408D02*
D03*
Y-326108D02*
D03*
D22*
X101252Y-387221D02*
D03*
Y-402221D02*
D03*
X102014Y-427099D02*
D03*
Y-442099D02*
D03*
X285228Y-353693D02*
D03*
Y-368693D02*
D03*
X302745Y-75817D02*
D03*
Y-90817D02*
D03*
X323248D02*
D03*
Y-75817D02*
D03*
X346290D02*
D03*
Y-90817D02*
D03*
X460200Y-323448D02*
D03*
Y-308448D02*
D03*
X343139Y-316695D02*
D03*
Y-301695D02*
D03*
D23*
X208646Y-376232D02*
D03*
Y-388732D02*
D03*
X476987Y-287656D02*
D03*
X459987D02*
D03*
X208646Y-351158D02*
D03*
Y-363658D02*
D03*
X197353Y-279639D02*
D03*
Y-267139D02*
D03*
D24*
X156680Y-266215D02*
D03*
X152680D02*
D03*
X148680D02*
D03*
X144680D02*
D03*
X140680D02*
D03*
X136680D02*
D03*
Y-284564D02*
D03*
X140680D02*
D03*
X144680D02*
D03*
X148680D02*
D03*
X152680D02*
D03*
X156680D02*
D03*
D25*
X132134Y-269393D02*
D03*
X132137Y-281386D02*
D03*
X161222Y-281392D02*
D03*
X161223Y-269388D02*
D03*
D26*
X132506Y-273391D02*
D03*
Y-277391D02*
D03*
X160854Y-277391D02*
D03*
X160858Y-273389D02*
D03*
D27*
X144178Y-272389D02*
D03*
Y-278389D02*
D03*
X151628Y-272389D02*
D03*
Y-278389D02*
D03*
D28*
X304307Y-353531D02*
D03*
X317306D02*
D03*
D29*
X259494Y-77833D02*
D03*
Y-90833D02*
D03*
D30*
X181212Y-309690D02*
D03*
Y-327690D02*
D03*
X159169Y-309690D02*
D03*
Y-327690D02*
D03*
X137127Y-309690D02*
D03*
Y-327690D02*
D03*
X188645Y-247380D02*
D03*
Y-229380D02*
D03*
X166603Y-247380D02*
D03*
Y-229380D02*
D03*
X144560Y-247380D02*
D03*
Y-229380D02*
D03*
D31*
X203026Y-109845D02*
D03*
Y-123845D02*
D03*
D32*
X74328Y-412879D02*
D03*
Y-428379D02*
D03*
X54285Y-412890D02*
D03*
Y-428390D02*
D03*
D33*
X244919Y-378982D02*
D03*
D34*
X225420Y-388982D02*
D03*
Y-383982D02*
D03*
Y-378982D02*
D03*
Y-373982D02*
D03*
Y-368982D02*
D03*
X264419D02*
D03*
Y-373982D02*
D03*
Y-378982D02*
D03*
Y-383982D02*
D03*
Y-388982D02*
D03*
D35*
X234919Y-359482D02*
D03*
X239919D02*
D03*
X244919D02*
D03*
X249919D02*
D03*
X254919D02*
D03*
Y-398482D02*
D03*
X249919D02*
D03*
X244919D02*
D03*
X239919D02*
D03*
X234919D02*
D03*
D36*
X304021Y-371563D02*
D03*
X320020D02*
D03*
D37*
X225640Y-90301D02*
D03*
Y-74301D02*
D03*
D38*
X201836Y-90301D02*
D03*
Y-74301D02*
D03*
D39*
X254060Y-337518D02*
D03*
X241560D02*
D03*
X224494Y-415219D02*
D03*
X236994D02*
D03*
X213340Y-405322D02*
D03*
X200840D02*
D03*
D40*
X179862Y-433984D02*
D03*
X136862D02*
D03*
X177854Y-369321D02*
D03*
X134853D02*
D03*
X281502Y-244861D02*
D03*
X238502D02*
D03*
X155858Y-181615D02*
D03*
X198858D02*
D03*
X365322Y-417581D02*
D03*
X322322D02*
D03*
D41*
X241090Y-445521D02*
D03*
X226589D02*
D03*
X519982Y-24897D02*
D03*
X505481D02*
D03*
D42*
X114334Y-311155D02*
D03*
X100834D02*
D03*
X121768Y-244861D02*
D03*
X108268D02*
D03*
X387126Y-360810D02*
D03*
X373626D02*
D03*
D43*
X134177Y-75458D02*
D03*
Y-60958D02*
D03*
D44*
X503254Y-310797D02*
D03*
Y-321608D02*
D03*
D45*
X481949Y-323568D02*
D03*
Y-308836D02*
D03*
M02*
