G04*
G04 #@! TF.GenerationSoftware,Altium Limited,Altium Designer,21.9.2 (33)*
G04*
G04 Layer_Color=32896*
%FSLAX44Y44*%
%MOMM*%
G71*
G04*
G04 #@! TF.SameCoordinates,E2BC6D59-9887-43D7-9D5B-FB48D232BC44*
G04*
G04*
G04 #@! TF.FilePolarity,Positive*
G04*
G01*
G75*
%ADD15C,0.2540*%
%ADD18C,0.1524*%
%ADD19C,0.1270*%
G36*
X385064Y-236665D02*
X349885D01*
X367379Y-202089D01*
X385064Y-236665D01*
D02*
G37*
G36*
X403261Y-242036D02*
X403504Y-242057D01*
X403726Y-242088D01*
X403938Y-242141D01*
X404138Y-242194D01*
X404318Y-242257D01*
X404487Y-242321D01*
X404635Y-242384D01*
X404772Y-242458D01*
X404889Y-242522D01*
X404994Y-242585D01*
X405079Y-242638D01*
X405142Y-242691D01*
X405185Y-242722D01*
X405216Y-242743D01*
X405227Y-242754D01*
X405375Y-242892D01*
X405501Y-243050D01*
X405618Y-243209D01*
X405723Y-243388D01*
X405808Y-243557D01*
X405892Y-243726D01*
X405956Y-243906D01*
X406009Y-244064D01*
X406062Y-244223D01*
X406093Y-244371D01*
X406125Y-244508D01*
X406146Y-244624D01*
X406157Y-244719D01*
X406167Y-244783D01*
X406178Y-244825D01*
Y-244846D01*
X404952Y-244973D01*
X404941Y-244804D01*
X404931Y-244646D01*
X404868Y-244371D01*
X404783Y-244117D01*
X404741Y-244011D01*
X404688Y-243916D01*
X404646Y-243832D01*
X404593Y-243758D01*
X404551Y-243694D01*
X404519Y-243642D01*
X404477Y-243599D01*
X404455Y-243568D01*
X404445Y-243557D01*
X404434Y-243547D01*
X404329Y-243451D01*
X404223Y-243367D01*
X404107Y-243304D01*
X403991Y-243240D01*
X403758Y-243145D01*
X403536Y-243082D01*
X403346Y-243050D01*
X403261Y-243029D01*
X403187D01*
X403124Y-243018D01*
X402892D01*
X402744Y-243039D01*
X402480Y-243092D01*
X402258Y-243177D01*
X402057Y-243261D01*
X401909Y-243356D01*
X401846Y-243399D01*
X401793Y-243441D01*
X401750Y-243473D01*
X401719Y-243494D01*
X401708Y-243504D01*
X401698Y-243515D01*
X401602Y-243610D01*
X401529Y-243705D01*
X401455Y-243800D01*
X401402Y-243906D01*
X401307Y-244107D01*
X401243Y-244297D01*
X401212Y-244455D01*
X401190Y-244529D01*
Y-244593D01*
X401180Y-244635D01*
Y-244677D01*
Y-244698D01*
Y-244709D01*
X401190Y-244836D01*
X401201Y-244963D01*
X401264Y-245216D01*
X401359Y-245459D01*
X401465Y-245681D01*
X401571Y-245871D01*
X401613Y-245945D01*
X401666Y-246019D01*
X401698Y-246072D01*
X401729Y-246114D01*
X401740Y-246135D01*
X401750Y-246146D01*
X401867Y-246294D01*
X402004Y-246452D01*
X402163Y-246621D01*
X402332Y-246791D01*
X402680Y-247139D01*
X403040Y-247467D01*
X403209Y-247625D01*
X403378Y-247763D01*
X403526Y-247889D01*
X403652Y-247995D01*
X403758Y-248090D01*
X403832Y-248153D01*
X403885Y-248206D01*
X403906Y-248217D01*
X404096Y-248375D01*
X404265Y-248523D01*
X404434Y-248661D01*
X404582Y-248798D01*
X404730Y-248925D01*
X404857Y-249052D01*
X404973Y-249157D01*
X405079Y-249263D01*
X405174Y-249358D01*
X405248Y-249443D01*
X405322Y-249517D01*
X405375Y-249569D01*
X405428Y-249622D01*
X405459Y-249654D01*
X405470Y-249675D01*
X405480Y-249686D01*
X405671Y-249918D01*
X405829Y-250151D01*
X405966Y-250373D01*
X406072Y-250573D01*
X406157Y-250742D01*
X406188Y-250816D01*
X406220Y-250869D01*
X406241Y-250922D01*
X406252Y-250954D01*
X406262Y-250975D01*
Y-250985D01*
X406315Y-251133D01*
X406347Y-251281D01*
X406379Y-251418D01*
X406389Y-251545D01*
X406400Y-251651D01*
Y-251735D01*
Y-251788D01*
Y-251810D01*
X399944D01*
Y-250658D01*
X404751D01*
X404582Y-250425D01*
X404498Y-250320D01*
X404413Y-250224D01*
X404339Y-250140D01*
X404286Y-250077D01*
X404244Y-250034D01*
X404234Y-250024D01*
X404170Y-249960D01*
X404086Y-249876D01*
X403991Y-249791D01*
X403885Y-249696D01*
X403663Y-249485D01*
X403430Y-249284D01*
X403209Y-249094D01*
X403113Y-249009D01*
X403018Y-248935D01*
X402955Y-248872D01*
X402892Y-248830D01*
X402860Y-248798D01*
X402849Y-248787D01*
X402617Y-248587D01*
X402395Y-248397D01*
X402194Y-248228D01*
X402015Y-248058D01*
X401846Y-247910D01*
X401698Y-247763D01*
X401560Y-247636D01*
X401433Y-247519D01*
X401328Y-247424D01*
X401243Y-247329D01*
X401169Y-247255D01*
X401106Y-247192D01*
X401064Y-247139D01*
X401021Y-247108D01*
X401011Y-247086D01*
X401000Y-247076D01*
X400799Y-246843D01*
X400641Y-246632D01*
X400504Y-246431D01*
X400387Y-246252D01*
X400303Y-246104D01*
X400239Y-245987D01*
X400218Y-245945D01*
X400208Y-245914D01*
X400197Y-245903D01*
Y-245892D01*
X400113Y-245681D01*
X400060Y-245470D01*
X400018Y-245280D01*
X399986Y-245100D01*
X399965Y-244952D01*
X399954Y-244836D01*
Y-244793D01*
Y-244762D01*
Y-244751D01*
Y-244741D01*
X399965Y-244529D01*
X399986Y-244328D01*
X400028Y-244138D01*
X400081Y-243948D01*
X400144Y-243779D01*
X400218Y-243620D01*
X400292Y-243473D01*
X400366Y-243346D01*
X400440Y-243219D01*
X400514Y-243113D01*
X400588Y-243018D01*
X400652Y-242944D01*
X400704Y-242892D01*
X400747Y-242839D01*
X400768Y-242817D01*
X400778Y-242807D01*
X400937Y-242670D01*
X401106Y-242553D01*
X401286Y-242448D01*
X401476Y-242353D01*
X401655Y-242279D01*
X401846Y-242215D01*
X402025Y-242162D01*
X402205Y-242120D01*
X402363Y-242088D01*
X402522Y-242067D01*
X402659Y-242046D01*
X402775Y-242036D01*
X402870Y-242025D01*
X403008D01*
X403261Y-242036D01*
D02*
G37*
G36*
X398443Y-247192D02*
X397323Y-247351D01*
X397217Y-247203D01*
X397101Y-247065D01*
X396974Y-246949D01*
X396869Y-246843D01*
X396763Y-246769D01*
X396679Y-246706D01*
X396626Y-246674D01*
X396604Y-246664D01*
X396425Y-246569D01*
X396245Y-246505D01*
X396066Y-246452D01*
X395897Y-246421D01*
X395759Y-246399D01*
X395643Y-246389D01*
X395548D01*
X395379Y-246399D01*
X395220Y-246410D01*
X395062Y-246442D01*
X394925Y-246484D01*
X394660Y-246579D01*
X394555Y-246632D01*
X394449Y-246685D01*
X394354Y-246748D01*
X394280Y-246801D01*
X394206Y-246854D01*
X394153Y-246896D01*
X394111Y-246938D01*
X394069Y-246970D01*
X394058Y-246981D01*
X394048Y-246991D01*
X393942Y-247108D01*
X393857Y-247234D01*
X393773Y-247361D01*
X393709Y-247488D01*
X393604Y-247763D01*
X393540Y-248016D01*
X393519Y-248143D01*
X393498Y-248249D01*
X393488Y-248354D01*
X393477Y-248439D01*
X393466Y-248513D01*
Y-248566D01*
Y-248597D01*
Y-248608D01*
X393477Y-248809D01*
X393488Y-248988D01*
X393519Y-249168D01*
X393561Y-249337D01*
X393604Y-249485D01*
X393657Y-249633D01*
X393709Y-249760D01*
X393762Y-249876D01*
X393826Y-249981D01*
X393878Y-250077D01*
X393931Y-250151D01*
X393974Y-250224D01*
X394016Y-250277D01*
X394048Y-250309D01*
X394058Y-250330D01*
X394069Y-250341D01*
X394185Y-250457D01*
X394301Y-250552D01*
X394417Y-250637D01*
X394544Y-250711D01*
X394671Y-250774D01*
X394787Y-250827D01*
X395020Y-250901D01*
X395220Y-250954D01*
X395305Y-250964D01*
X395379Y-250975D01*
X395442Y-250985D01*
X395527D01*
X395664Y-250975D01*
X395791Y-250964D01*
X396023Y-250911D01*
X396235Y-250837D01*
X396414Y-250753D01*
X396562Y-250679D01*
X396668Y-250605D01*
X396710Y-250573D01*
X396742Y-250552D01*
X396753Y-250531D01*
X396763D01*
X396848Y-250436D01*
X396932Y-250341D01*
X397070Y-250129D01*
X397186Y-249897D01*
X397270Y-249675D01*
X397323Y-249474D01*
X397355Y-249379D01*
X397365Y-249305D01*
X397376Y-249242D01*
X397387Y-249200D01*
X397397Y-249168D01*
Y-249157D01*
X398654Y-249252D01*
X398623Y-249474D01*
X398581Y-249696D01*
X398528Y-249897D01*
X398454Y-250087D01*
X398380Y-250256D01*
X398306Y-250425D01*
X398221Y-250573D01*
X398137Y-250700D01*
X398052Y-250827D01*
X397978Y-250933D01*
X397904Y-251017D01*
X397830Y-251091D01*
X397777Y-251154D01*
X397735Y-251197D01*
X397714Y-251218D01*
X397703Y-251228D01*
X397534Y-251355D01*
X397365Y-251471D01*
X397186Y-251567D01*
X397006Y-251651D01*
X396826Y-251725D01*
X396647Y-251788D01*
X396467Y-251841D01*
X396298Y-251873D01*
X396140Y-251905D01*
X395992Y-251926D01*
X395865Y-251947D01*
X395749Y-251957D01*
X395654Y-251968D01*
X395527D01*
X395231Y-251957D01*
X394956Y-251915D01*
X394692Y-251862D01*
X394449Y-251778D01*
X394216Y-251693D01*
X394005Y-251598D01*
X393815Y-251482D01*
X393646Y-251376D01*
X393488Y-251271D01*
X393350Y-251154D01*
X393234Y-251059D01*
X393139Y-250964D01*
X393065Y-250890D01*
X393012Y-250837D01*
X392980Y-250795D01*
X392970Y-250785D01*
X392832Y-250605D01*
X392716Y-250415D01*
X392610Y-250214D01*
X392526Y-250024D01*
X392452Y-249834D01*
X392388Y-249643D01*
X392336Y-249453D01*
X392293Y-249284D01*
X392262Y-249115D01*
X392241Y-248967D01*
X392220Y-248840D01*
X392209Y-248724D01*
X392198Y-248629D01*
Y-248566D01*
Y-248513D01*
Y-248502D01*
X392209Y-248249D01*
X392241Y-248006D01*
X392283Y-247773D01*
X392336Y-247562D01*
X392399Y-247351D01*
X392484Y-247171D01*
X392558Y-246991D01*
X392642Y-246833D01*
X392727Y-246695D01*
X392801Y-246579D01*
X392875Y-246463D01*
X392949Y-246378D01*
X393001Y-246315D01*
X393044Y-246262D01*
X393075Y-246230D01*
X393086Y-246220D01*
X393255Y-246061D01*
X393435Y-245924D01*
X393614Y-245808D01*
X393794Y-245702D01*
X393974Y-245618D01*
X394153Y-245544D01*
X394322Y-245491D01*
X394491Y-245438D01*
X394639Y-245406D01*
X394787Y-245375D01*
X394914Y-245364D01*
X395020Y-245343D01*
X395104D01*
X395178Y-245332D01*
X395231D01*
X395410Y-245343D01*
X395590Y-245353D01*
X395759Y-245385D01*
X395928Y-245427D01*
X396235Y-245522D01*
X396383Y-245586D01*
X396509Y-245639D01*
X396636Y-245692D01*
X396742Y-245755D01*
X396837Y-245808D01*
X396922Y-245850D01*
X396985Y-245892D01*
X397027Y-245914D01*
X397059Y-245935D01*
X397070Y-245945D01*
X396552Y-243325D01*
X392653D01*
Y-242183D01*
X397503D01*
X398443Y-247192D01*
D02*
G37*
G36*
X390550Y-251810D02*
X389261D01*
Y-247213D01*
X384200D01*
Y-251810D01*
X382910D01*
Y-242057D01*
X384200D01*
Y-246061D01*
X389261D01*
Y-242057D01*
X390550D01*
Y-251810D01*
D02*
G37*
G36*
X353557D02*
X352268D01*
Y-248428D01*
X350672Y-246886D01*
X347207Y-251810D01*
X345495D01*
X349764Y-246009D01*
X345675Y-242057D01*
X347429D01*
X352268Y-246886D01*
Y-242057D01*
X353557D01*
Y-251810D01*
D02*
G37*
G36*
X314018Y-248883D02*
X310330D01*
Y-247678D01*
X314018D01*
Y-248883D01*
D02*
G37*
G36*
X324785Y-251810D02*
X323538D01*
Y-243504D01*
X320727Y-251810D01*
X319565D01*
X316712Y-243642D01*
Y-251810D01*
X315465D01*
Y-242057D01*
X317209D01*
X319554Y-248840D01*
X319618Y-249030D01*
X319681Y-249200D01*
X319734Y-249369D01*
X319787Y-249517D01*
X319829Y-249664D01*
X319871Y-249791D01*
X319914Y-249908D01*
X319945Y-250013D01*
X319977Y-250098D01*
X319998Y-250182D01*
X320019Y-250246D01*
X320040Y-250309D01*
X320051Y-250351D01*
X320061Y-250383D01*
X320072Y-250394D01*
Y-250404D01*
X320104Y-250309D01*
X320135Y-250203D01*
X320210Y-249981D01*
X320283Y-249739D01*
X320357Y-249506D01*
X320431Y-249295D01*
X320463Y-249200D01*
X320484Y-249126D01*
X320505Y-249062D01*
X320527Y-249009D01*
X320537Y-248978D01*
Y-248967D01*
X322851Y-242057D01*
X324785D01*
Y-251810D01*
D02*
G37*
G36*
X377976D02*
X376645D01*
X372841Y-242057D01*
X374151D01*
X376782Y-249147D01*
X376888Y-249443D01*
X376993Y-249728D01*
X377088Y-250003D01*
X377162Y-250246D01*
X377194Y-250351D01*
X377226Y-250446D01*
X377247Y-250531D01*
X377268Y-250605D01*
X377289Y-250658D01*
X377300Y-250711D01*
X377310Y-250732D01*
Y-250742D01*
X377395Y-250457D01*
X377479Y-250172D01*
X377564Y-249908D01*
X377638Y-249664D01*
X377680Y-249548D01*
X377712Y-249453D01*
X377743Y-249369D01*
X377765Y-249295D01*
X377786Y-249231D01*
X377807Y-249189D01*
X377817Y-249157D01*
Y-249147D01*
X380353Y-242057D01*
X381759D01*
X377976Y-251810D01*
D02*
G37*
G36*
X330596Y-241898D02*
X330829Y-241909D01*
X331262Y-241983D01*
X331473Y-242025D01*
X331663Y-242078D01*
X331854Y-242131D01*
X332023Y-242183D01*
X332171Y-242236D01*
X332308Y-242289D01*
X332435Y-242342D01*
X332530Y-242384D01*
X332614Y-242426D01*
X332667Y-242458D01*
X332710Y-242469D01*
X332720Y-242479D01*
X332910Y-242596D01*
X333101Y-242722D01*
X333270Y-242860D01*
X333428Y-242997D01*
X333576Y-243145D01*
X333713Y-243282D01*
X333830Y-243430D01*
X333946Y-243557D01*
X334041Y-243694D01*
X334125Y-243811D01*
X334199Y-243916D01*
X334263Y-244011D01*
X334305Y-244096D01*
X334337Y-244149D01*
X334358Y-244191D01*
X334368Y-244202D01*
X334474Y-244413D01*
X334559Y-244646D01*
X334633Y-244867D01*
X334707Y-245089D01*
X334812Y-245544D01*
X334844Y-245755D01*
X334876Y-245956D01*
X334897Y-246146D01*
X334918Y-246315D01*
X334929Y-246474D01*
X334939Y-246611D01*
X334950Y-246716D01*
Y-246801D01*
Y-246843D01*
Y-246864D01*
X334939Y-247118D01*
X334929Y-247372D01*
X334865Y-247858D01*
X334833Y-248090D01*
X334791Y-248302D01*
X334738Y-248502D01*
X334696Y-248692D01*
X334643Y-248862D01*
X334601Y-249020D01*
X334559Y-249147D01*
X334516Y-249263D01*
X334485Y-249347D01*
X334464Y-249422D01*
X334453Y-249464D01*
X334442Y-249474D01*
X334337Y-249696D01*
X334231Y-249908D01*
X334115Y-250098D01*
X333988Y-250277D01*
X333861Y-250446D01*
X333745Y-250594D01*
X333618Y-250732D01*
X333502Y-250858D01*
X333386Y-250975D01*
X333280Y-251070D01*
X333185Y-251144D01*
X333101Y-251218D01*
X333037Y-251271D01*
X332984Y-251302D01*
X332952Y-251323D01*
X332942Y-251334D01*
X332752Y-251450D01*
X332551Y-251545D01*
X332340Y-251630D01*
X332118Y-251704D01*
X331907Y-251757D01*
X331695Y-251810D01*
X331484Y-251852D01*
X331283Y-251884D01*
X331093Y-251915D01*
X330924Y-251936D01*
X330765Y-251947D01*
X330639Y-251957D01*
X330522Y-251968D01*
X330374D01*
X330089Y-251957D01*
X329825Y-251936D01*
X329571Y-251894D01*
X329328Y-251841D01*
X329096Y-251778D01*
X328885Y-251704D01*
X328694Y-251630D01*
X328515Y-251556D01*
X328346Y-251482D01*
X328208Y-251408D01*
X328081Y-251334D01*
X327986Y-251271D01*
X327902Y-251218D01*
X327849Y-251175D01*
X327807Y-251154D01*
X327796Y-251144D01*
X327606Y-250975D01*
X327426Y-250795D01*
X327268Y-250605D01*
X327120Y-250415D01*
X326982Y-250214D01*
X326866Y-250003D01*
X326761Y-249813D01*
X326665Y-249612D01*
X326581Y-249432D01*
X326518Y-249263D01*
X326454Y-249104D01*
X326412Y-248978D01*
X326370Y-248862D01*
X326348Y-248787D01*
X326327Y-248735D01*
Y-248713D01*
X327617Y-248386D01*
X327669Y-248608D01*
X327743Y-248819D01*
X327817Y-249020D01*
X327891Y-249200D01*
X327976Y-249369D01*
X328060Y-249517D01*
X328145Y-249654D01*
X328229Y-249781D01*
X328314Y-249886D01*
X328388Y-249981D01*
X328462Y-250066D01*
X328515Y-250129D01*
X328568Y-250182D01*
X328610Y-250214D01*
X328631Y-250235D01*
X328642Y-250246D01*
X328789Y-250351D01*
X328937Y-250446D01*
X329085Y-250531D01*
X329244Y-250605D01*
X329402Y-250668D01*
X329550Y-250721D01*
X329846Y-250795D01*
X329973Y-250816D01*
X330100Y-250837D01*
X330205Y-250848D01*
X330300Y-250858D01*
X330374Y-250869D01*
X330480D01*
X330649Y-250858D01*
X330808Y-250848D01*
X331114Y-250795D01*
X331399Y-250721D01*
X331642Y-250637D01*
X331748Y-250594D01*
X331843Y-250563D01*
X331928Y-250520D01*
X332002Y-250489D01*
X332065Y-250457D01*
X332107Y-250436D01*
X332128Y-250415D01*
X332139D01*
X332276Y-250320D01*
X332403Y-250224D01*
X332636Y-250003D01*
X332826Y-249781D01*
X332984Y-249548D01*
X333101Y-249347D01*
X333153Y-249263D01*
X333196Y-249179D01*
X333217Y-249115D01*
X333238Y-249073D01*
X333259Y-249041D01*
Y-249030D01*
X333375Y-248671D01*
X333470Y-248302D01*
X333534Y-247932D01*
X333555Y-247763D01*
X333576Y-247593D01*
X333587Y-247435D01*
X333597Y-247298D01*
X333608Y-247171D01*
Y-247065D01*
X333618Y-246970D01*
Y-246907D01*
Y-246864D01*
Y-246854D01*
X333608Y-246495D01*
X333576Y-246157D01*
X333523Y-245840D01*
X333502Y-245692D01*
X333470Y-245554D01*
X333439Y-245438D01*
X333418Y-245322D01*
X333386Y-245227D01*
X333365Y-245142D01*
X333354Y-245079D01*
X333333Y-245026D01*
X333322Y-244994D01*
Y-244984D01*
X333185Y-244656D01*
X333027Y-244371D01*
X332857Y-244128D01*
X332762Y-244022D01*
X332678Y-243916D01*
X332593Y-243832D01*
X332519Y-243758D01*
X332445Y-243684D01*
X332393Y-243631D01*
X332340Y-243589D01*
X332297Y-243557D01*
X332276Y-243547D01*
X332266Y-243536D01*
X332118Y-243441D01*
X331970Y-243356D01*
X331811Y-243282D01*
X331653Y-243219D01*
X331336Y-243124D01*
X331030Y-243050D01*
X330903Y-243029D01*
X330776Y-243018D01*
X330660Y-243008D01*
X330564Y-242997D01*
X330480Y-242987D01*
X330195D01*
X330026Y-243008D01*
X329709Y-243060D01*
X329434Y-243145D01*
X329318Y-243187D01*
X329202Y-243230D01*
X329096Y-243272D01*
X329011Y-243314D01*
X328937Y-243356D01*
X328874Y-243399D01*
X328821Y-243430D01*
X328789Y-243451D01*
X328768Y-243462D01*
X328758Y-243473D01*
X328642Y-243568D01*
X328525Y-243673D01*
X328335Y-243916D01*
X328155Y-244181D01*
X328018Y-244434D01*
X327912Y-244667D01*
X327859Y-244762D01*
X327828Y-244846D01*
X327796Y-244920D01*
X327786Y-244984D01*
X327764Y-245015D01*
Y-245026D01*
X326497Y-244730D01*
X326581Y-244487D01*
X326676Y-244254D01*
X326771Y-244033D01*
X326887Y-243832D01*
X326993Y-243642D01*
X327109Y-243473D01*
X327226Y-243314D01*
X327342Y-243177D01*
X327458Y-243050D01*
X327553Y-242944D01*
X327648Y-242849D01*
X327733Y-242775D01*
X327796Y-242712D01*
X327849Y-242670D01*
X327881Y-242648D01*
X327891Y-242638D01*
X328081Y-242500D01*
X328282Y-242395D01*
X328483Y-242289D01*
X328694Y-242205D01*
X328906Y-242131D01*
X329106Y-242067D01*
X329307Y-242025D01*
X329497Y-241983D01*
X329677Y-241951D01*
X329836Y-241930D01*
X329983Y-241909D01*
X330110Y-241898D01*
X330216Y-241888D01*
X330353D01*
X330596Y-241898D01*
D02*
G37*
G36*
X285192D02*
X285425Y-241909D01*
X285858Y-241983D01*
X286069Y-242025D01*
X286260Y-242078D01*
X286450Y-242131D01*
X286619Y-242183D01*
X286767Y-242236D01*
X286904Y-242289D01*
X287031Y-242342D01*
X287126Y-242384D01*
X287211Y-242426D01*
X287263Y-242458D01*
X287306Y-242469D01*
X287316Y-242479D01*
X287507Y-242596D01*
X287697Y-242722D01*
X287866Y-242860D01*
X288024Y-242997D01*
X288172Y-243145D01*
X288309Y-243282D01*
X288426Y-243430D01*
X288542Y-243557D01*
X288637Y-243694D01*
X288722Y-243811D01*
X288796Y-243916D01*
X288859Y-244011D01*
X288901Y-244096D01*
X288933Y-244149D01*
X288954Y-244191D01*
X288965Y-244202D01*
X289070Y-244413D01*
X289155Y-244646D01*
X289229Y-244867D01*
X289303Y-245089D01*
X289408Y-245544D01*
X289440Y-245755D01*
X289472Y-245956D01*
X289493Y-246146D01*
X289514Y-246315D01*
X289525Y-246474D01*
X289535Y-246611D01*
X289546Y-246716D01*
Y-246801D01*
Y-246843D01*
Y-246864D01*
X289535Y-247118D01*
X289525Y-247372D01*
X289461Y-247858D01*
X289429Y-248090D01*
X289387Y-248302D01*
X289334Y-248502D01*
X289292Y-248692D01*
X289239Y-248862D01*
X289197Y-249020D01*
X289155Y-249147D01*
X289113Y-249263D01*
X289081Y-249347D01*
X289060Y-249422D01*
X289049Y-249464D01*
X289039Y-249474D01*
X288933Y-249696D01*
X288827Y-249908D01*
X288711Y-250098D01*
X288584Y-250277D01*
X288457Y-250446D01*
X288341Y-250594D01*
X288214Y-250732D01*
X288098Y-250858D01*
X287982Y-250975D01*
X287876Y-251070D01*
X287781Y-251144D01*
X287697Y-251218D01*
X287633Y-251271D01*
X287580Y-251302D01*
X287549Y-251323D01*
X287538Y-251334D01*
X287348Y-251450D01*
X287147Y-251545D01*
X286936Y-251630D01*
X286714Y-251704D01*
X286503Y-251757D01*
X286291Y-251810D01*
X286080Y-251852D01*
X285879Y-251884D01*
X285689Y-251915D01*
X285520Y-251936D01*
X285361Y-251947D01*
X285235Y-251957D01*
X285119Y-251968D01*
X284970D01*
X284685Y-251957D01*
X284421Y-251936D01*
X284167Y-251894D01*
X283925Y-251841D01*
X283692Y-251778D01*
X283481Y-251704D01*
X283291Y-251630D01*
X283111Y-251556D01*
X282942Y-251482D01*
X282804Y-251408D01*
X282678Y-251334D01*
X282582Y-251271D01*
X282498Y-251218D01*
X282445Y-251175D01*
X282403Y-251154D01*
X282392Y-251144D01*
X282202Y-250975D01*
X282022Y-250795D01*
X281864Y-250605D01*
X281716Y-250415D01*
X281579Y-250214D01*
X281462Y-250003D01*
X281357Y-249813D01*
X281262Y-249612D01*
X281177Y-249432D01*
X281114Y-249263D01*
X281050Y-249104D01*
X281008Y-248978D01*
X280966Y-248862D01*
X280945Y-248787D01*
X280924Y-248735D01*
Y-248713D01*
X282213Y-248386D01*
X282265Y-248608D01*
X282339Y-248819D01*
X282414Y-249020D01*
X282487Y-249200D01*
X282572Y-249369D01*
X282656Y-249517D01*
X282741Y-249654D01*
X282826Y-249781D01*
X282910Y-249886D01*
X282984Y-249981D01*
X283058Y-250066D01*
X283111Y-250129D01*
X283164Y-250182D01*
X283206Y-250214D01*
X283227Y-250235D01*
X283238Y-250246D01*
X283386Y-250351D01*
X283533Y-250446D01*
X283681Y-250531D01*
X283840Y-250605D01*
X283998Y-250668D01*
X284146Y-250721D01*
X284442Y-250795D01*
X284569Y-250816D01*
X284696Y-250837D01*
X284802Y-250848D01*
X284897Y-250858D01*
X284970Y-250869D01*
X285076D01*
X285245Y-250858D01*
X285404Y-250848D01*
X285710Y-250795D01*
X285996Y-250721D01*
X286238Y-250637D01*
X286344Y-250594D01*
X286439Y-250563D01*
X286524Y-250520D01*
X286598Y-250489D01*
X286661Y-250457D01*
X286703Y-250436D01*
X286724Y-250415D01*
X286735D01*
X286873Y-250320D01*
X286999Y-250224D01*
X287232Y-250003D01*
X287422Y-249781D01*
X287580Y-249548D01*
X287697Y-249347D01*
X287750Y-249263D01*
X287792Y-249179D01*
X287813Y-249115D01*
X287834Y-249073D01*
X287855Y-249041D01*
Y-249030D01*
X287971Y-248671D01*
X288067Y-248302D01*
X288130Y-247932D01*
X288151Y-247763D01*
X288172Y-247593D01*
X288183Y-247435D01*
X288193Y-247298D01*
X288204Y-247171D01*
Y-247065D01*
X288214Y-246970D01*
Y-246907D01*
Y-246864D01*
Y-246854D01*
X288204Y-246495D01*
X288172Y-246157D01*
X288119Y-245840D01*
X288098Y-245692D01*
X288067Y-245554D01*
X288035Y-245438D01*
X288014Y-245322D01*
X287982Y-245227D01*
X287961Y-245142D01*
X287950Y-245079D01*
X287929Y-245026D01*
X287919Y-244994D01*
Y-244984D01*
X287781Y-244656D01*
X287623Y-244371D01*
X287454Y-244128D01*
X287358Y-244022D01*
X287274Y-243916D01*
X287190Y-243832D01*
X287115Y-243758D01*
X287041Y-243684D01*
X286989Y-243631D01*
X286936Y-243589D01*
X286894Y-243557D01*
X286873Y-243547D01*
X286862Y-243536D01*
X286714Y-243441D01*
X286566Y-243356D01*
X286408Y-243282D01*
X286249Y-243219D01*
X285932Y-243124D01*
X285626Y-243050D01*
X285499Y-243029D01*
X285372Y-243018D01*
X285256Y-243008D01*
X285161Y-242997D01*
X285076Y-242987D01*
X284791D01*
X284622Y-243008D01*
X284305Y-243060D01*
X284030Y-243145D01*
X283914Y-243187D01*
X283798Y-243230D01*
X283692Y-243272D01*
X283608Y-243314D01*
X283533Y-243356D01*
X283470Y-243399D01*
X283417Y-243430D01*
X283386Y-243451D01*
X283364Y-243462D01*
X283354Y-243473D01*
X283238Y-243568D01*
X283121Y-243673D01*
X282931Y-243916D01*
X282752Y-244181D01*
X282614Y-244434D01*
X282509Y-244667D01*
X282456Y-244762D01*
X282424Y-244846D01*
X282392Y-244920D01*
X282382Y-244984D01*
X282361Y-245015D01*
Y-245026D01*
X281093Y-244730D01*
X281177Y-244487D01*
X281272Y-244254D01*
X281367Y-244033D01*
X281484Y-243832D01*
X281589Y-243642D01*
X281705Y-243473D01*
X281822Y-243314D01*
X281938Y-243177D01*
X282054Y-243050D01*
X282149Y-242944D01*
X282244Y-242849D01*
X282329Y-242775D01*
X282392Y-242712D01*
X282445Y-242670D01*
X282477Y-242648D01*
X282487Y-242638D01*
X282678Y-242500D01*
X282878Y-242395D01*
X283079Y-242289D01*
X283291Y-242205D01*
X283502Y-242131D01*
X283703Y-242067D01*
X283903Y-242025D01*
X284093Y-241983D01*
X284273Y-241951D01*
X284432Y-241930D01*
X284580Y-241909D01*
X284706Y-241898D01*
X284812Y-241888D01*
X284949D01*
X285192Y-241898D01*
D02*
G37*
G36*
X432562Y-251810D02*
X431199D01*
X430142Y-248862D01*
X426043D01*
X424912Y-251810D01*
X423443D01*
X427437Y-242057D01*
X428832D01*
X432562Y-251810D01*
D02*
G37*
G36*
X371678D02*
X370389D01*
Y-247847D01*
X367896D01*
X367515Y-247836D01*
X367177Y-247805D01*
X366860Y-247763D01*
X366564Y-247710D01*
X366311Y-247646D01*
X366068Y-247572D01*
X365867Y-247498D01*
X365677Y-247414D01*
X365518Y-247340D01*
X365381Y-247266D01*
X365265Y-247192D01*
X365180Y-247129D01*
X365106Y-247065D01*
X365064Y-247023D01*
X365032Y-247002D01*
X365022Y-246991D01*
X364884Y-246822D01*
X364757Y-246653D01*
X364652Y-246474D01*
X364567Y-246294D01*
X364483Y-246114D01*
X364419Y-245945D01*
X364366Y-245776D01*
X364324Y-245618D01*
X364292Y-245459D01*
X364271Y-245322D01*
X364250Y-245205D01*
X364240Y-245100D01*
X364229Y-245005D01*
Y-244941D01*
Y-244899D01*
Y-244888D01*
X364240Y-244624D01*
X364271Y-244371D01*
X364324Y-244149D01*
X364377Y-243948D01*
X364440Y-243790D01*
X364462Y-243716D01*
X364483Y-243663D01*
X364504Y-243620D01*
X364525Y-243589D01*
X364535Y-243568D01*
Y-243557D01*
X364652Y-243335D01*
X364779Y-243156D01*
X364916Y-242987D01*
X365032Y-242860D01*
X365148Y-242754D01*
X365233Y-242680D01*
X365296Y-242627D01*
X365307Y-242617D01*
X365317D01*
X365508Y-242500D01*
X365708Y-242405D01*
X365909Y-242321D01*
X366099Y-242257D01*
X366268Y-242205D01*
X366342Y-242194D01*
X366406Y-242173D01*
X366448Y-242162D01*
X366490D01*
X366511Y-242152D01*
X366522D01*
X366617Y-242131D01*
X366733Y-242120D01*
X366966Y-242099D01*
X367209Y-242078D01*
X367452Y-242067D01*
X367663Y-242057D01*
X371678D01*
Y-251810D01*
D02*
G37*
G36*
X363648D02*
X362285D01*
X361228Y-248862D01*
X357128D01*
X355998Y-251810D01*
X354529D01*
X358523Y-242057D01*
X359918D01*
X363648Y-251810D01*
D02*
G37*
G36*
X344417D02*
X340899D01*
X340582Y-251799D01*
X340286Y-251788D01*
X340022Y-251757D01*
X339789Y-251725D01*
X339694Y-251714D01*
X339609Y-251704D01*
X339525Y-251683D01*
X339461Y-251672D01*
X339409Y-251662D01*
X339377D01*
X339356Y-251651D01*
X339345D01*
X339102Y-251577D01*
X338870Y-251503D01*
X338669Y-251418D01*
X338500Y-251345D01*
X338363Y-251271D01*
X338257Y-251218D01*
X338194Y-251175D01*
X338183Y-251165D01*
X338172D01*
X337993Y-251028D01*
X337824Y-250890D01*
X337676Y-250742D01*
X337549Y-250594D01*
X337433Y-250468D01*
X337359Y-250373D01*
X337327Y-250330D01*
X337306Y-250299D01*
X337285Y-250288D01*
Y-250277D01*
X337137Y-250056D01*
X337010Y-249823D01*
X336894Y-249580D01*
X336799Y-249358D01*
X336725Y-249157D01*
X336693Y-249073D01*
X336661Y-248999D01*
X336651Y-248946D01*
X336630Y-248904D01*
X336619Y-248872D01*
Y-248862D01*
X336535Y-248523D01*
X336471Y-248185D01*
X336418Y-247858D01*
X336387Y-247551D01*
X336376Y-247414D01*
X336366Y-247287D01*
Y-247171D01*
X336355Y-247076D01*
Y-246991D01*
Y-246938D01*
Y-246896D01*
Y-246886D01*
X336376Y-246410D01*
X336387Y-246188D01*
X336418Y-245977D01*
X336450Y-245776D01*
X336482Y-245586D01*
X336513Y-245406D01*
X336545Y-245237D01*
X336587Y-245089D01*
X336619Y-244963D01*
X336651Y-244846D01*
X336683Y-244751D01*
X336714Y-244677D01*
X336725Y-244614D01*
X336746Y-244582D01*
Y-244571D01*
X336904Y-244212D01*
X337084Y-243885D01*
X337179Y-243737D01*
X337274Y-243599D01*
X337369Y-243473D01*
X337464Y-243356D01*
X337549Y-243251D01*
X337634Y-243166D01*
X337707Y-243082D01*
X337771Y-243018D01*
X337824Y-242965D01*
X337866Y-242934D01*
X337887Y-242913D01*
X337898Y-242902D01*
X338130Y-242722D01*
X338373Y-242575D01*
X338606Y-242458D01*
X338828Y-242363D01*
X339028Y-242289D01*
X339113Y-242268D01*
X339187Y-242247D01*
X339240Y-242226D01*
X339282Y-242215D01*
X339314Y-242205D01*
X339324D01*
X339440Y-242183D01*
X339567Y-242152D01*
X339852Y-242120D01*
X340138Y-242088D01*
X340423Y-242078D01*
X340550Y-242067D01*
X340677D01*
X340782Y-242057D01*
X344417D01*
Y-251810D01*
D02*
G37*
G36*
X308861D02*
X307572D01*
Y-247847D01*
X305078D01*
X304698Y-247836D01*
X304360Y-247805D01*
X304043Y-247763D01*
X303747Y-247710D01*
X303493Y-247646D01*
X303250Y-247572D01*
X303050Y-247498D01*
X302859Y-247414D01*
X302701Y-247340D01*
X302564Y-247266D01*
X302447Y-247192D01*
X302363Y-247129D01*
X302289Y-247065D01*
X302247Y-247023D01*
X302215Y-247002D01*
X302204Y-246991D01*
X302067Y-246822D01*
X301940Y-246653D01*
X301835Y-246474D01*
X301750Y-246294D01*
X301665Y-246114D01*
X301602Y-245945D01*
X301549Y-245776D01*
X301507Y-245618D01*
X301475Y-245459D01*
X301454Y-245322D01*
X301433Y-245205D01*
X301422Y-245100D01*
X301412Y-245005D01*
Y-244941D01*
Y-244899D01*
Y-244888D01*
X301422Y-244624D01*
X301454Y-244371D01*
X301507Y-244149D01*
X301560Y-243948D01*
X301623Y-243790D01*
X301644Y-243716D01*
X301665Y-243663D01*
X301687Y-243620D01*
X301708Y-243589D01*
X301718Y-243568D01*
Y-243557D01*
X301835Y-243335D01*
X301961Y-243156D01*
X302099Y-242987D01*
X302215Y-242860D01*
X302331Y-242754D01*
X302416Y-242680D01*
X302479Y-242627D01*
X302490Y-242617D01*
X302500D01*
X302690Y-242500D01*
X302891Y-242405D01*
X303092Y-242321D01*
X303282Y-242257D01*
X303451Y-242205D01*
X303525Y-242194D01*
X303589Y-242173D01*
X303631Y-242162D01*
X303673D01*
X303694Y-242152D01*
X303705D01*
X303800Y-242131D01*
X303916Y-242120D01*
X304149Y-242099D01*
X304392Y-242078D01*
X304635Y-242067D01*
X304846Y-242057D01*
X308861D01*
Y-251810D01*
D02*
G37*
G36*
X279550Y-243209D02*
X274108D01*
X274288Y-243399D01*
X274468Y-243599D01*
X274647Y-243800D01*
X274795Y-243980D01*
X274932Y-244138D01*
X274985Y-244212D01*
X275028Y-244265D01*
X275070Y-244318D01*
X275102Y-244350D01*
X275112Y-244371D01*
X275123Y-244381D01*
X280110Y-250616D01*
Y-251810D01*
X272407D01*
Y-250658D01*
X278631D01*
X278050Y-249971D01*
X272566Y-243209D01*
Y-242057D01*
X279550D01*
Y-243209D01*
D02*
G37*
G36*
X419407Y-241898D02*
X419745Y-241940D01*
X420041Y-241993D01*
X420178Y-242025D01*
X420305Y-242057D01*
X420421Y-242088D01*
X420527Y-242120D01*
X420622Y-242152D01*
X420696Y-242173D01*
X420749Y-242194D01*
X420802Y-242215D01*
X420823Y-242226D01*
X420833D01*
X421119Y-242363D01*
X421362Y-242522D01*
X421573Y-242680D01*
X421742Y-242839D01*
X421879Y-242987D01*
X421985Y-243103D01*
X422017Y-243145D01*
X422038Y-243177D01*
X422059Y-243198D01*
Y-243209D01*
X422196Y-243451D01*
X422302Y-243694D01*
X422365Y-243916D01*
X422418Y-244128D01*
X422450Y-244318D01*
X422461Y-244392D01*
Y-244455D01*
X422471Y-244508D01*
Y-244550D01*
Y-244571D01*
Y-244582D01*
X422461Y-244825D01*
X422418Y-245058D01*
X422365Y-245269D01*
X422302Y-245448D01*
X422239Y-245597D01*
X422186Y-245713D01*
X422165Y-245755D01*
X422144Y-245787D01*
X422133Y-245797D01*
Y-245808D01*
X421996Y-245998D01*
X421827Y-246178D01*
X421657Y-246325D01*
X421478Y-246463D01*
X421330Y-246569D01*
X421203Y-246642D01*
X421150Y-246664D01*
X421119Y-246685D01*
X421097Y-246706D01*
X421087D01*
X420981Y-246759D01*
X420854Y-246812D01*
X420717Y-246864D01*
X420569Y-246917D01*
X420263Y-247023D01*
X419946Y-247118D01*
X419798Y-247160D01*
X419671Y-247203D01*
X419544Y-247234D01*
X419428Y-247266D01*
X419343Y-247287D01*
X419269Y-247308D01*
X419227Y-247319D01*
X419217D01*
X418974Y-247372D01*
X418752Y-247435D01*
X418562Y-247477D01*
X418382Y-247530D01*
X418223Y-247572D01*
X418075Y-247604D01*
X417959Y-247646D01*
X417843Y-247678D01*
X417758Y-247699D01*
X417674Y-247731D01*
X417611Y-247752D01*
X417568Y-247763D01*
X417526Y-247773D01*
X417505Y-247784D01*
X417484Y-247794D01*
X417272Y-247889D01*
X417093Y-247985D01*
X416934Y-248080D01*
X416818Y-248164D01*
X416723Y-248249D01*
X416660Y-248312D01*
X416617Y-248354D01*
X416607Y-248365D01*
X416512Y-248492D01*
X416448Y-248629D01*
X416395Y-248766D01*
X416364Y-248893D01*
X416343Y-248999D01*
X416332Y-249094D01*
Y-249147D01*
Y-249157D01*
Y-249168D01*
X416343Y-249326D01*
X416374Y-249485D01*
X416427Y-249622D01*
X416469Y-249749D01*
X416522Y-249855D01*
X416575Y-249939D01*
X416607Y-249981D01*
X416617Y-250003D01*
X416734Y-250140D01*
X416860Y-250256D01*
X417008Y-250362D01*
X417146Y-250446D01*
X417272Y-250510D01*
X417368Y-250563D01*
X417410Y-250584D01*
X417441Y-250594D01*
X417452Y-250605D01*
X417463D01*
X417674Y-250679D01*
X417896Y-250732D01*
X418118Y-250763D01*
X418318Y-250785D01*
X418488Y-250806D01*
X418562D01*
X418625Y-250816D01*
X418752D01*
X419058Y-250806D01*
X419333Y-250774D01*
X419597Y-250721D01*
X419819Y-250668D01*
X419914Y-250647D01*
X419999Y-250626D01*
X420073Y-250594D01*
X420136Y-250573D01*
X420189Y-250552D01*
X420220Y-250541D01*
X420242Y-250531D01*
X420252D01*
X420485Y-250415D01*
X420685Y-250288D01*
X420854Y-250172D01*
X420992Y-250045D01*
X421097Y-249939D01*
X421171Y-249855D01*
X421224Y-249802D01*
X421235Y-249781D01*
X421340Y-249591D01*
X421425Y-249390D01*
X421488Y-249189D01*
X421541Y-248999D01*
X421584Y-248819D01*
X421594Y-248756D01*
X421605Y-248692D01*
X421615Y-248640D01*
X421626Y-248597D01*
Y-248576D01*
Y-248566D01*
X422841Y-248671D01*
X422830Y-248851D01*
X422809Y-249030D01*
X422746Y-249358D01*
X422661Y-249664D01*
X422619Y-249802D01*
X422566Y-249918D01*
X422524Y-250034D01*
X422471Y-250140D01*
X422429Y-250224D01*
X422387Y-250299D01*
X422355Y-250362D01*
X422334Y-250404D01*
X422323Y-250425D01*
X422313Y-250436D01*
X422112Y-250711D01*
X421879Y-250943D01*
X421647Y-251144D01*
X421425Y-251302D01*
X421224Y-251429D01*
X421140Y-251471D01*
X421066Y-251514D01*
X421002Y-251545D01*
X420960Y-251567D01*
X420928Y-251588D01*
X420918D01*
X420559Y-251714D01*
X420189Y-251810D01*
X419819Y-251873D01*
X419470Y-251915D01*
X419301Y-251936D01*
X419153Y-251947D01*
X419026Y-251957D01*
X418910D01*
X418815Y-251968D01*
X418688D01*
X418308Y-251947D01*
X417959Y-251905D01*
X417642Y-251852D01*
X417494Y-251810D01*
X417368Y-251778D01*
X417241Y-251746D01*
X417135Y-251704D01*
X417040Y-251672D01*
X416966Y-251651D01*
X416903Y-251619D01*
X416860Y-251609D01*
X416829Y-251588D01*
X416818D01*
X416522Y-251429D01*
X416269Y-251260D01*
X416047Y-251080D01*
X415867Y-250911D01*
X415719Y-250753D01*
X415624Y-250637D01*
X415582Y-250584D01*
X415561Y-250552D01*
X415540Y-250531D01*
Y-250520D01*
X415455Y-250394D01*
X415392Y-250256D01*
X415275Y-250003D01*
X415191Y-249760D01*
X415138Y-249538D01*
X415106Y-249337D01*
X415096Y-249263D01*
Y-249189D01*
X415085Y-249136D01*
Y-249094D01*
Y-249073D01*
Y-249062D01*
X415106Y-248777D01*
X415149Y-248513D01*
X415212Y-248280D01*
X415286Y-248080D01*
X415370Y-247910D01*
X415402Y-247836D01*
X415434Y-247784D01*
X415455Y-247741D01*
X415476Y-247710D01*
X415497Y-247689D01*
Y-247678D01*
X415582Y-247572D01*
X415666Y-247467D01*
X415867Y-247266D01*
X416068Y-247097D01*
X416279Y-246959D01*
X416459Y-246843D01*
X416543Y-246791D01*
X416617Y-246759D01*
X416670Y-246727D01*
X416712Y-246706D01*
X416744Y-246685D01*
X416755D01*
X416871Y-246632D01*
X417019Y-246579D01*
X417167Y-246526D01*
X417336Y-246474D01*
X417695Y-246378D01*
X418054Y-246283D01*
X418223Y-246230D01*
X418382Y-246199D01*
X418530Y-246157D01*
X418657Y-246135D01*
X418762Y-246104D01*
X418836Y-246082D01*
X418889Y-246072D01*
X418910D01*
X419196Y-246009D01*
X419449Y-245935D01*
X419671Y-245871D01*
X419882Y-245808D01*
X420062Y-245744D01*
X420220Y-245692D01*
X420358Y-245639D01*
X420474Y-245586D01*
X420569Y-245533D01*
X420654Y-245491D01*
X420717Y-245459D01*
X420770Y-245427D01*
X420812Y-245396D01*
X420833Y-245375D01*
X420854Y-245364D01*
X420981Y-245227D01*
X421066Y-245089D01*
X421129Y-244941D01*
X421182Y-244804D01*
X421203Y-244688D01*
X421214Y-244593D01*
X421224Y-244529D01*
Y-244519D01*
Y-244508D01*
X421214Y-244392D01*
X421203Y-244286D01*
X421140Y-244096D01*
X421055Y-243916D01*
X420960Y-243769D01*
X420865Y-243642D01*
X420780Y-243547D01*
X420717Y-243494D01*
X420706Y-243473D01*
X420696D01*
X420590Y-243399D01*
X420463Y-243325D01*
X420199Y-243219D01*
X419925Y-243145D01*
X419639Y-243092D01*
X419512Y-243071D01*
X419386Y-243060D01*
X419280Y-243050D01*
X419185D01*
X419100Y-243039D01*
X418794D01*
X418604Y-243060D01*
X418424Y-243082D01*
X418255Y-243113D01*
X418107Y-243145D01*
X417970Y-243187D01*
X417843Y-243230D01*
X417727Y-243272D01*
X417632Y-243325D01*
X417547Y-243367D01*
X417473Y-243409D01*
X417410Y-243441D01*
X417368Y-243473D01*
X417325Y-243494D01*
X417315Y-243504D01*
X417304Y-243515D01*
X417198Y-243610D01*
X417103Y-243705D01*
X416955Y-243927D01*
X416829Y-244159D01*
X416744Y-244381D01*
X416681Y-244582D01*
X416660Y-244667D01*
X416638Y-244751D01*
X416628Y-244814D01*
Y-244857D01*
X416617Y-244888D01*
Y-244899D01*
X415381Y-244804D01*
X415413Y-244487D01*
X415476Y-244202D01*
X415550Y-243937D01*
X415635Y-243716D01*
X415687Y-243620D01*
X415719Y-243525D01*
X415761Y-243451D01*
X415793Y-243388D01*
X415825Y-243335D01*
X415846Y-243304D01*
X415857Y-243282D01*
X415867Y-243272D01*
X416047Y-243029D01*
X416247Y-242828D01*
X416459Y-242648D01*
X416670Y-242500D01*
X416850Y-242395D01*
X416934Y-242353D01*
X416998Y-242310D01*
X417051Y-242279D01*
X417103Y-242268D01*
X417124Y-242247D01*
X417135D01*
X417452Y-242131D01*
X417780Y-242036D01*
X418107Y-241972D01*
X418403Y-241930D01*
X418540Y-241919D01*
X418657Y-241909D01*
X418773Y-241898D01*
X418868Y-241888D01*
X419048D01*
X419407Y-241898D01*
D02*
G37*
G36*
X410827Y-242036D02*
X411017Y-242046D01*
X411197Y-242078D01*
X411366Y-242110D01*
X411514Y-242152D01*
X411662Y-242205D01*
X411799Y-242257D01*
X411915Y-242310D01*
X412032Y-242363D01*
X412127Y-242416D01*
X412211Y-242458D01*
X412275Y-242511D01*
X412327Y-242543D01*
X412370Y-242575D01*
X412391Y-242585D01*
X412401Y-242596D01*
X412528Y-242712D01*
X412644Y-242828D01*
X412856Y-243092D01*
X413046Y-243356D01*
X413194Y-243620D01*
X413257Y-243747D01*
X413310Y-243853D01*
X413352Y-243959D01*
X413395Y-244043D01*
X413416Y-244117D01*
X413437Y-244181D01*
X413458Y-244212D01*
Y-244223D01*
X413521Y-244424D01*
X413574Y-244646D01*
X413659Y-245100D01*
X413722Y-245565D01*
X413743Y-245787D01*
X413764Y-246009D01*
X413775Y-246209D01*
X413786Y-246399D01*
X413796Y-246569D01*
Y-246716D01*
X413807Y-246833D01*
Y-246928D01*
Y-246981D01*
Y-247002D01*
X413796Y-247498D01*
X413764Y-247963D01*
X413722Y-248386D01*
X413659Y-248777D01*
X413585Y-249136D01*
X413500Y-249464D01*
X413416Y-249749D01*
X413321Y-250013D01*
X413236Y-250235D01*
X413152Y-250436D01*
X413067Y-250594D01*
X412993Y-250732D01*
X412930Y-250837D01*
X412887Y-250911D01*
X412856Y-250954D01*
X412845Y-250964D01*
X412687Y-251144D01*
X412518Y-251292D01*
X412338Y-251429D01*
X412158Y-251545D01*
X411979Y-251640D01*
X411788Y-251725D01*
X411609Y-251788D01*
X411440Y-251841D01*
X411271Y-251884D01*
X411123Y-251915D01*
X410985Y-251936D01*
X410869Y-251947D01*
X410774Y-251957D01*
X410700Y-251968D01*
X410637D01*
X410436Y-251957D01*
X410256Y-251947D01*
X410077Y-251915D01*
X409908Y-251884D01*
X409749Y-251831D01*
X409612Y-251788D01*
X409474Y-251735D01*
X409358Y-251683D01*
X409242Y-251630D01*
X409147Y-251577D01*
X409062Y-251524D01*
X408999Y-251482D01*
X408946Y-251450D01*
X408904Y-251418D01*
X408883Y-251408D01*
X408872Y-251397D01*
X408745Y-251281D01*
X408619Y-251165D01*
X408407Y-250901D01*
X408228Y-250637D01*
X408080Y-250373D01*
X408016Y-250246D01*
X407963Y-250129D01*
X407921Y-250034D01*
X407879Y-249939D01*
X407847Y-249876D01*
X407837Y-249813D01*
X407816Y-249781D01*
Y-249770D01*
X407752Y-249569D01*
X407699Y-249347D01*
X407604Y-248893D01*
X407541Y-248428D01*
X407520Y-248206D01*
X407499Y-247985D01*
X407488Y-247784D01*
X407477Y-247593D01*
X407467Y-247435D01*
X407456Y-247287D01*
Y-247171D01*
Y-247076D01*
Y-247023D01*
Y-247002D01*
Y-246738D01*
X407467Y-246484D01*
X407477Y-246252D01*
X407488Y-246030D01*
X407509Y-245829D01*
X407530Y-245639D01*
X407551Y-245470D01*
X407562Y-245311D01*
X407583Y-245174D01*
X407604Y-245058D01*
X407625Y-244952D01*
X407646Y-244867D01*
X407657Y-244793D01*
X407668Y-244751D01*
X407678Y-244719D01*
Y-244709D01*
X407763Y-244403D01*
X407868Y-244117D01*
X407963Y-243874D01*
X408059Y-243663D01*
X408111Y-243578D01*
X408143Y-243494D01*
X408185Y-243420D01*
X408217Y-243367D01*
X408249Y-243325D01*
X408259Y-243293D01*
X408280Y-243272D01*
Y-243261D01*
X408428Y-243050D01*
X408597Y-242860D01*
X408756Y-242701D01*
X408914Y-242575D01*
X409052Y-242469D01*
X409157Y-242405D01*
X409200Y-242374D01*
X409231Y-242353D01*
X409253Y-242342D01*
X409263D01*
X409496Y-242236D01*
X409728Y-242162D01*
X409961Y-242099D01*
X410172Y-242067D01*
X410362Y-242046D01*
X410436Y-242036D01*
X410510Y-242025D01*
X410637D01*
X410827Y-242036D01*
D02*
G37*
G36*
X295875Y-241898D02*
X296234Y-241951D01*
X296572Y-242015D01*
X296889Y-242099D01*
X297196Y-242205D01*
X297471Y-242321D01*
X297724Y-242448D01*
X297957Y-242575D01*
X298168Y-242701D01*
X298348Y-242828D01*
X298496Y-242944D01*
X298633Y-243050D01*
X298728Y-243134D01*
X298802Y-243198D01*
X298855Y-243251D01*
X298865Y-243261D01*
X299098Y-243525D01*
X299299Y-243821D01*
X299468Y-244117D01*
X299616Y-244434D01*
X299742Y-244751D01*
X299848Y-245068D01*
X299932Y-245375D01*
X300007Y-245681D01*
X300059Y-245966D01*
X300091Y-246220D01*
X300123Y-246463D01*
X300144Y-246664D01*
X300154Y-246833D01*
Y-246896D01*
X300165Y-246959D01*
Y-247002D01*
Y-247034D01*
Y-247055D01*
Y-247065D01*
X300154Y-247298D01*
X300144Y-247541D01*
X300081Y-247985D01*
X300038Y-248196D01*
X299996Y-248397D01*
X299943Y-248587D01*
X299890Y-248756D01*
X299837Y-248925D01*
X299785Y-249062D01*
X299742Y-249189D01*
X299700Y-249295D01*
X299668Y-249379D01*
X299637Y-249443D01*
X299626Y-249485D01*
X299616Y-249496D01*
X299499Y-249707D01*
X299383Y-249908D01*
X299256Y-250087D01*
X299119Y-250267D01*
X298982Y-250425D01*
X298844Y-250573D01*
X298717Y-250711D01*
X298580Y-250837D01*
X298453Y-250943D01*
X298337Y-251038D01*
X298231Y-251123D01*
X298147Y-251186D01*
X298073Y-251239D01*
X298009Y-251281D01*
X297978Y-251302D01*
X297967Y-251313D01*
X297756Y-251429D01*
X297544Y-251524D01*
X297333Y-251619D01*
X297122Y-251693D01*
X296911Y-251757D01*
X296710Y-251810D01*
X296509Y-251852D01*
X296329Y-251884D01*
X296150Y-251915D01*
X296002Y-251936D01*
X295854Y-251947D01*
X295738Y-251957D01*
X295643Y-251968D01*
X295505D01*
X295273Y-251957D01*
X295040Y-251947D01*
X294597Y-251873D01*
X294396Y-251831D01*
X294195Y-251778D01*
X294015Y-251725D01*
X293846Y-251672D01*
X293688Y-251619D01*
X293550Y-251567D01*
X293434Y-251514D01*
X293328Y-251471D01*
X293244Y-251429D01*
X293191Y-251397D01*
X293149Y-251387D01*
X293138Y-251376D01*
X292938Y-251260D01*
X292747Y-251123D01*
X292568Y-250985D01*
X292409Y-250848D01*
X292261Y-250700D01*
X292113Y-250552D01*
X291987Y-250404D01*
X291870Y-250267D01*
X291775Y-250129D01*
X291680Y-250003D01*
X291606Y-249886D01*
X291543Y-249791D01*
X291501Y-249717D01*
X291469Y-249654D01*
X291448Y-249612D01*
X291437Y-249601D01*
X291332Y-249379D01*
X291236Y-249147D01*
X291162Y-248925D01*
X291089Y-248692D01*
X291025Y-248470D01*
X290983Y-248249D01*
X290940Y-248037D01*
X290909Y-247836D01*
X290888Y-247646D01*
X290867Y-247477D01*
X290856Y-247329D01*
X290845Y-247203D01*
X290835Y-247097D01*
Y-247012D01*
Y-246970D01*
Y-246949D01*
X290845Y-246674D01*
X290856Y-246421D01*
X290888Y-246167D01*
X290919Y-245924D01*
X290962Y-245702D01*
X291014Y-245480D01*
X291067Y-245280D01*
X291120Y-245100D01*
X291173Y-244931D01*
X291226Y-244783D01*
X291268Y-244646D01*
X291321Y-244540D01*
X291353Y-244455D01*
X291384Y-244392D01*
X291395Y-244350D01*
X291406Y-244339D01*
X291522Y-244128D01*
X291638Y-243927D01*
X291775Y-243737D01*
X291902Y-243568D01*
X292039Y-243409D01*
X292177Y-243261D01*
X292314Y-243124D01*
X292451Y-242997D01*
X292578Y-242892D01*
X292695Y-242796D01*
X292790Y-242712D01*
X292885Y-242648D01*
X292959Y-242596D01*
X293012Y-242564D01*
X293054Y-242543D01*
X293064Y-242532D01*
X293276Y-242416D01*
X293477Y-242321D01*
X293688Y-242236D01*
X293899Y-242162D01*
X294111Y-242099D01*
X294311Y-242046D01*
X294501Y-242004D01*
X294692Y-241972D01*
X294861Y-241940D01*
X295009Y-241919D01*
X295146Y-241909D01*
X295273Y-241898D01*
X295368Y-241888D01*
X295495D01*
X295875Y-241898D01*
D02*
G37*
G36*
X418466Y-211169D02*
X419387Y-211296D01*
X420276Y-211487D01*
X421101Y-211709D01*
X421895Y-211995D01*
X422625Y-212312D01*
X423324Y-212661D01*
X423959Y-212979D01*
X424498Y-213328D01*
X425006Y-213678D01*
X425451Y-213995D01*
X425800Y-214281D01*
X426086Y-214503D01*
X426308Y-214694D01*
X426435Y-214820D01*
X426467Y-214852D01*
X427134Y-215551D01*
X427705Y-216313D01*
X428181Y-217043D01*
X428626Y-217805D01*
X428975Y-218567D01*
X429261Y-219329D01*
X429515Y-220028D01*
X429705Y-220726D01*
X429864Y-221361D01*
X429991Y-221964D01*
X430055Y-222472D01*
X430118Y-222917D01*
X430150Y-223298D01*
X430182Y-223584D01*
Y-223742D01*
Y-223806D01*
X430150Y-224758D01*
X430023Y-225679D01*
X429832Y-226568D01*
X429610Y-227425D01*
X429324Y-228187D01*
X429007Y-228949D01*
X428658Y-229616D01*
X428308Y-230251D01*
X427991Y-230823D01*
X427642Y-231299D01*
X427324Y-231743D01*
X427038Y-232092D01*
X426816Y-232378D01*
X426626Y-232600D01*
X426499Y-232728D01*
X426467Y-232759D01*
X425768Y-233426D01*
X425006Y-233997D01*
X424244Y-234474D01*
X423482Y-234918D01*
X422720Y-235268D01*
X421990Y-235553D01*
X421260Y-235807D01*
X420593Y-235998D01*
X419926Y-236157D01*
X419355Y-236283D01*
X418815Y-236347D01*
X418371Y-236411D01*
X417990Y-236442D01*
X417704Y-236474D01*
X417005D01*
X416593Y-236442D01*
X416434D01*
X416307Y-236411D01*
X416212D01*
Y-232600D01*
X416656Y-232632D01*
X417069Y-232664D01*
X417482D01*
X418148Y-232632D01*
X418815Y-232537D01*
X419418Y-232410D01*
X420022Y-232251D01*
X420561Y-232061D01*
X421101Y-231838D01*
X421577Y-231616D01*
X421990Y-231362D01*
X422403Y-231140D01*
X422752Y-230918D01*
X423038Y-230695D01*
X423292Y-230505D01*
X423514Y-230315D01*
X423641Y-230187D01*
X423736Y-230124D01*
X423768Y-230092D01*
X424213Y-229584D01*
X424625Y-229076D01*
X424975Y-228536D01*
X425260Y-227997D01*
X425514Y-227489D01*
X425737Y-226949D01*
X425895Y-226441D01*
X426054Y-225965D01*
X426149Y-225520D01*
X426245Y-225107D01*
X426276Y-224727D01*
X426340Y-224409D01*
Y-224155D01*
X426372Y-223965D01*
Y-223838D01*
Y-223806D01*
X426340Y-223139D01*
X426245Y-222472D01*
X426118Y-221869D01*
X425959Y-221266D01*
X425768Y-220726D01*
X425546Y-220186D01*
X425324Y-219710D01*
X425070Y-219265D01*
X424816Y-218885D01*
X424594Y-218535D01*
X424371Y-218249D01*
X424181Y-217995D01*
X424022Y-217773D01*
X423863Y-217646D01*
X423800Y-217551D01*
X423768Y-217519D01*
X423260Y-217075D01*
X422752Y-216662D01*
X422212Y-216313D01*
X421673Y-216027D01*
X421165Y-215773D01*
X420625Y-215551D01*
X420117Y-215392D01*
X419641Y-215233D01*
X419196Y-215138D01*
X418783Y-215043D01*
X418402Y-214979D01*
X418085Y-214947D01*
X417831D01*
X417640Y-214916D01*
X417005D01*
X416593Y-214947D01*
X416434Y-214979D01*
X416307D01*
X416243Y-215011D01*
X416212D01*
X416243Y-211201D01*
X416656Y-211169D01*
X417069Y-211138D01*
X417482D01*
X418466Y-211169D01*
D02*
G37*
G36*
X396908D02*
X397828Y-211296D01*
X398717Y-211487D01*
X399575Y-211709D01*
X400337Y-211995D01*
X401099Y-212312D01*
X401765Y-212661D01*
X402400Y-212979D01*
X402972Y-213328D01*
X403448Y-213678D01*
X403893Y-213995D01*
X404242Y-214281D01*
X404528Y-214503D01*
X404750Y-214694D01*
X404877Y-214820D01*
X404909Y-214852D01*
X405575Y-215551D01*
X406147Y-216313D01*
X406623Y-217043D01*
X407068Y-217805D01*
X407417Y-218567D01*
X407703Y-219329D01*
X407957Y-220028D01*
X408147Y-220726D01*
X408306Y-221361D01*
X408433Y-221964D01*
X408496Y-222472D01*
X408560Y-222917D01*
X408592Y-223298D01*
X408623Y-223584D01*
Y-223742D01*
Y-223806D01*
X408592Y-224758D01*
X408465Y-225679D01*
X408274Y-226568D01*
X408052Y-227425D01*
X407766Y-228187D01*
X407449Y-228949D01*
X407099Y-229616D01*
X406750Y-230251D01*
X406433Y-230823D01*
X406083Y-231299D01*
X405766Y-231743D01*
X405480Y-232092D01*
X405258Y-232378D01*
X405067Y-232600D01*
X404940Y-232728D01*
X404909Y-232759D01*
X404210Y-233426D01*
X403448Y-233997D01*
X402686Y-234474D01*
X401956Y-234918D01*
X401194Y-235268D01*
X400432Y-235553D01*
X399733Y-235807D01*
X399035Y-235998D01*
X398400Y-236157D01*
X397797Y-236283D01*
X397289Y-236347D01*
X396844Y-236411D01*
X396463Y-236442D01*
X396177Y-236474D01*
X395479D01*
X395066Y-236442D01*
X394907D01*
X394780Y-236411D01*
X394685D01*
Y-232600D01*
X395130Y-232632D01*
X395542Y-232664D01*
X395955D01*
X396527Y-232632D01*
X397098Y-232569D01*
X397638Y-232474D01*
X398146Y-232346D01*
X399067Y-232061D01*
X399511Y-231870D01*
X399892Y-231680D01*
X400241Y-231521D01*
X400559Y-231331D01*
X400845Y-231172D01*
X401067Y-231013D01*
X401257Y-230918D01*
X401384Y-230823D01*
X401480Y-230759D01*
X401511Y-230727D01*
X401956Y-230346D01*
X402337Y-229933D01*
X402718Y-229521D01*
X403035Y-229108D01*
X403321Y-228695D01*
X403575Y-228283D01*
X403797Y-227870D01*
X403988Y-227489D01*
X404147Y-227108D01*
X404274Y-226790D01*
X404401Y-226473D01*
X404464Y-226219D01*
X404559Y-225996D01*
X404591Y-225838D01*
X404623Y-225742D01*
Y-225711D01*
X397225D01*
Y-221901D01*
X404623D01*
X404464Y-221329D01*
X404305Y-220790D01*
X403861Y-219805D01*
X403607Y-219361D01*
X403353Y-218948D01*
X403099Y-218567D01*
X402845Y-218249D01*
X402591Y-217932D01*
X402337Y-217646D01*
X402115Y-217424D01*
X401924Y-217234D01*
X401765Y-217075D01*
X401638Y-216980D01*
X401575Y-216916D01*
X401543Y-216884D01*
X401067Y-216535D01*
X400591Y-216249D01*
X400114Y-215963D01*
X399638Y-215741D01*
X399162Y-215551D01*
X398686Y-215392D01*
X397828Y-215170D01*
X397447Y-215075D01*
X397066Y-215011D01*
X396749Y-214979D01*
X396495Y-214947D01*
X396273Y-214916D01*
X395479D01*
X395066Y-214947D01*
X394907Y-214979D01*
X394780D01*
X394717Y-215011D01*
X394685D01*
Y-211201D01*
X395161Y-211169D01*
X395384Y-211138D01*
X395955D01*
X396908Y-211169D01*
D02*
G37*
%LPC*%
G36*
X361474Y-214503D02*
X361442D01*
X357696Y-221869D01*
X357727Y-221901D01*
X357854Y-221933D01*
X358045Y-221996D01*
X358235Y-222091D01*
X358457Y-222187D01*
X358616Y-222250D01*
X358743Y-222282D01*
X358807Y-222313D01*
X359188Y-222504D01*
X359537Y-222758D01*
X359823Y-223044D01*
X360045Y-223330D01*
X360235Y-223584D01*
X360363Y-223806D01*
X360426Y-223933D01*
X360458Y-223996D01*
X360680Y-224409D01*
X360998Y-224822D01*
X361379Y-225203D01*
X361759Y-225552D01*
X362109Y-225838D01*
X362426Y-226060D01*
X362553Y-226155D01*
X362649Y-226219D01*
X362680Y-226282D01*
X362712D01*
X363347Y-226727D01*
X363558Y-226875D01*
X367215Y-224956D01*
X367157Y-224885D01*
Y-224853D01*
X367094Y-224727D01*
X367062Y-224568D01*
X366998Y-224377D01*
X366935Y-224219D01*
X366903Y-224060D01*
X366839Y-223933D01*
Y-223901D01*
X366744Y-223552D01*
X366681Y-223298D01*
X366649Y-223076D01*
X366617Y-222917D01*
X366649Y-222822D01*
Y-222726D01*
X366681Y-222694D01*
X366871Y-222568D01*
X367094Y-222504D01*
X367284Y-222472D01*
X367379D01*
X367538Y-222440D01*
X367729Y-222377D01*
X368014Y-222218D01*
X368048Y-222190D01*
X368237Y-222568D01*
X368355Y-222615D01*
X368237Y-222472D01*
X368141Y-222345D01*
X368078Y-222250D01*
X368062Y-222202D01*
X368566Y-222699D01*
X369305Y-222995D01*
X369440Y-223180D01*
X369402Y-223034D01*
X369305Y-222995D01*
X368903Y-222440D01*
X368871Y-222409D01*
X368808Y-222313D01*
X368649Y-222155D01*
X368618Y-222123D01*
X368490Y-222028D01*
X368395Y-221964D01*
X368332D01*
X368268Y-221996D01*
X368237Y-222028D01*
X368205Y-222059D01*
X368056Y-222184D01*
X368046Y-222155D01*
Y-222091D01*
X368078Y-221933D01*
X368141Y-221774D01*
X368300Y-221425D01*
X368427Y-221266D01*
X368490Y-221139D01*
X368554Y-221043D01*
X368586Y-221012D01*
X368776Y-220790D01*
X368935Y-220631D01*
X369094Y-220504D01*
X369221Y-220472D01*
X369316Y-220440D01*
X369380D01*
X369443Y-220472D01*
X369824Y-220662D01*
X369919Y-220694D01*
X369951Y-220726D01*
X369983D01*
X370269Y-220853D01*
X370427Y-220917D01*
X370522Y-220980D01*
X370554D01*
X370713Y-221075D01*
X370742Y-221093D01*
X370904Y-221139D01*
X371031Y-221202D01*
X371126Y-221234D01*
X371157D01*
X371380Y-221297D01*
X371539Y-221393D01*
X371665Y-221488D01*
X371761Y-221583D01*
X371824Y-221742D01*
X371856Y-221774D01*
Y-221805D01*
X371864Y-221831D01*
X371920Y-221901D01*
X371983Y-222091D01*
X372015Y-222155D01*
Y-222187D01*
X372103Y-222391D01*
X372066Y-222410D01*
X371951Y-222123D01*
X371864Y-221831D01*
X371792Y-221742D01*
X371729Y-221679D01*
X371665Y-221647D01*
X371634D01*
X371539Y-221615D01*
X371443D01*
X371412Y-221583D01*
X371284Y-221488D01*
X371221Y-221425D01*
X371094Y-221329D01*
X371062D01*
X371031Y-221297D01*
X370872Y-221171D01*
X370742Y-221093D01*
X370681Y-221075D01*
X370459Y-220948D01*
X370141Y-220821D01*
X369824Y-220662D01*
X369729Y-220631D01*
X369475Y-220567D01*
X369284Y-220599D01*
X369785Y-222168D01*
X368903Y-221075D01*
X369402Y-223034D01*
X369665Y-223139D01*
X369883Y-223556D01*
X369759Y-223621D01*
X369440Y-223180D01*
X369549Y-223612D01*
X369602Y-223647D01*
X369633Y-223679D01*
X369634Y-223687D01*
X369759Y-223621D01*
X369824Y-223710D01*
X369856Y-223742D01*
X369888Y-223838D01*
X369919Y-223965D01*
X369951Y-223996D01*
X369978Y-224093D01*
X369644Y-223762D01*
X369634Y-223687D01*
X369590Y-223710D01*
X369644Y-223762D01*
X369695Y-224183D01*
X369845Y-224771D01*
X369951Y-224345D01*
X370031Y-224336D01*
X370014Y-224219D01*
X369978Y-224093D01*
X370205Y-224316D01*
X370277Y-224308D01*
X369883Y-223556D01*
X370160Y-223411D01*
X370357Y-224299D01*
X370461Y-224287D01*
X370904Y-225674D01*
X370687Y-225786D01*
X370357Y-224299D01*
X370277Y-224308D01*
X370364Y-224473D01*
X370205Y-224316D01*
X370031Y-224336D01*
X370046Y-224441D01*
X370078Y-224631D01*
Y-224663D01*
Y-224695D01*
X370110Y-225044D01*
X370141Y-225361D01*
Y-225457D01*
X370173Y-225552D01*
Y-225616D01*
Y-225647D01*
X370205Y-225806D01*
Y-225933D01*
X370224Y-226028D01*
X370172Y-226055D01*
X369845Y-224771D01*
X369792Y-224981D01*
X369695Y-224183D01*
X369576Y-223717D01*
X367215Y-224956D01*
X368714Y-226815D01*
X370172Y-226055D01*
X370205Y-226185D01*
Y-226155D01*
X370237Y-226092D01*
X370224Y-226028D01*
X370687Y-225786D01*
X371078Y-227544D01*
X371094Y-227521D01*
X371126Y-227457D01*
X371157Y-227393D01*
Y-227362D01*
X371316Y-227139D01*
X371284Y-226981D01*
Y-226866D01*
X371991Y-229080D01*
X372015Y-229044D01*
X372047Y-228981D01*
Y-228949D01*
X372205Y-228695D01*
X372332Y-228473D01*
X372459Y-228283D01*
X372491Y-228251D01*
Y-228219D01*
X372555Y-228092D01*
X372618Y-227965D01*
X372682Y-227870D01*
X372713Y-227806D01*
Y-226219D01*
X373094Y-225139D01*
X373148Y-224760D01*
X373253Y-224822D01*
X373380Y-224473D01*
X373888Y-224790D01*
X373856Y-224758D01*
X373825Y-224727D01*
X373761Y-224663D01*
X373666Y-224536D01*
X373475Y-224345D01*
X373469Y-224337D01*
X373547Y-224297D01*
X373634Y-224409D01*
X373793Y-224599D01*
X373888Y-224727D01*
X373951Y-224790D01*
X374015Y-224822D01*
Y-224853D01*
Y-224885D01*
Y-224949D01*
Y-225044D01*
X373983Y-225139D01*
X373951Y-225457D01*
X373920Y-225806D01*
Y-226155D01*
X373888Y-226473D01*
X373856Y-226568D01*
Y-226663D01*
Y-226727D01*
Y-226758D01*
X373825Y-227108D01*
Y-227393D01*
X373793Y-227647D01*
Y-227870D01*
Y-228251D01*
X373825Y-228505D01*
Y-228664D01*
X373856Y-228759D01*
X373888Y-228822D01*
X373761Y-228949D01*
X373634Y-229108D01*
X373380Y-229489D01*
X373285Y-229680D01*
X373190Y-229838D01*
X373158Y-229965D01*
X373126Y-229997D01*
X372967Y-230315D01*
X372872Y-230537D01*
X372777Y-230727D01*
X372713Y-230854D01*
X372650Y-230949D01*
X372618Y-231013D01*
X372608D01*
X372618Y-231045D01*
Y-231013D01*
X372650Y-230981D01*
Y-230949D01*
X372682Y-231077D01*
Y-231108D01*
Y-231140D01*
X372713Y-231235D01*
X372777Y-231331D01*
X372872Y-231426D01*
X372904Y-231458D01*
X373063Y-231553D01*
X373221Y-231616D01*
X373285D01*
Y-231584D01*
X373316Y-231458D01*
X373348Y-231362D01*
X373380Y-231331D01*
X373443Y-231108D01*
X373539Y-230981D01*
X373602Y-230886D01*
X373634Y-230854D01*
X373761Y-230727D01*
X373856Y-230664D01*
X373888Y-230600D01*
X373920D01*
X373951Y-230537D01*
X373983Y-230505D01*
X374206Y-230759D01*
X373285Y-231616D01*
X373380D01*
X373539Y-231584D01*
X373666D01*
X373698Y-231553D01*
X373729Y-231521D01*
X373761D01*
X373951Y-231426D01*
X374015Y-231362D01*
X374047D01*
X374174Y-231299D01*
X374237Y-231267D01*
X374301Y-231203D01*
X374364Y-231108D01*
X374459Y-231013D01*
X374555Y-230949D01*
X374586Y-230918D01*
X374777Y-230791D01*
X374809Y-230727D01*
X374841D01*
X374936Y-230537D01*
X374967Y-230505D01*
X374999Y-230473D01*
X375063Y-230410D01*
X375126Y-230346D01*
X375285Y-230156D01*
X375444Y-229965D01*
X375476Y-229933D01*
X375507Y-229902D01*
X375634Y-229743D01*
X375698Y-229616D01*
X375825Y-229426D01*
X375888Y-229330D01*
Y-229298D01*
X375952Y-228981D01*
X376015Y-228568D01*
X376079Y-228124D01*
X376110Y-227679D01*
X376174Y-227267D01*
X376237Y-226917D01*
Y-226790D01*
X376269Y-226695D01*
Y-226632D01*
Y-226600D01*
X376301Y-226250D01*
X376333Y-225901D01*
X376396Y-225361D01*
X376428Y-224917D01*
Y-224568D01*
Y-224345D01*
X376396Y-224187D01*
Y-224091D01*
Y-224060D01*
X376365Y-223933D01*
X376269Y-223742D01*
X376174Y-223520D01*
X376047Y-223266D01*
X375953Y-223043D01*
X373547Y-224297D01*
X373412Y-224123D01*
X373094Y-223774D01*
X373063Y-223710D01*
X372935Y-223584D01*
X372808Y-223393D01*
X372618Y-223171D01*
X372427Y-222917D01*
X372237Y-222663D01*
X372110Y-222409D01*
X372103Y-222391D01*
X374942Y-220901D01*
X374936Y-220885D01*
X374841Y-220662D01*
X374745Y-220504D01*
X374714Y-220408D01*
X374682Y-220377D01*
X374396Y-219805D01*
X374110Y-219329D01*
X373856Y-218916D01*
X373602Y-218535D01*
X373348Y-218218D01*
X373126Y-217964D01*
X372935Y-217773D01*
X372745Y-217583D01*
X372586Y-217456D01*
X372427Y-217360D01*
X372205Y-217265D01*
X372078Y-217202D01*
X372015D01*
X371792Y-217170D01*
X371507Y-217138D01*
X371157Y-217075D01*
X370808Y-216980D01*
X370459Y-216916D01*
X370173Y-216852D01*
X369951Y-216821D01*
X369919Y-216789D01*
X369888D01*
X369253Y-216630D01*
X368618Y-216440D01*
X367982Y-216281D01*
X367443Y-216154D01*
X366967Y-216027D01*
X366776Y-215963D01*
X366617Y-215932D01*
X366490Y-215900D01*
X366395Y-215868D01*
X366331Y-215837D01*
X366300D01*
X365601Y-215646D01*
X364998Y-215487D01*
X364426Y-215329D01*
X363918Y-215170D01*
X363506Y-215075D01*
X363188Y-214979D01*
X362998Y-214947D01*
X362966Y-214916D01*
X362934D01*
X362680Y-214852D01*
X362426Y-214789D01*
X362077Y-214662D01*
X361791Y-214598D01*
X361632Y-214566D01*
X361506Y-214535D01*
X361474Y-214503D01*
D02*
G37*
G36*
X376365Y-220154D02*
X374942Y-220901D01*
X375031Y-221139D01*
X375190Y-221393D01*
X375476Y-222028D01*
X375793Y-222663D01*
X375953Y-223043D01*
X377476Y-222250D01*
X376365Y-220154D01*
D02*
G37*
G36*
X368355Y-222615D02*
X368395Y-222663D01*
X368586Y-222853D01*
X368840Y-223076D01*
X368871Y-223107D01*
X368967Y-223171D01*
X369094Y-223266D01*
X369221Y-223361D01*
X369307Y-223430D01*
X368566Y-222699D01*
X368355Y-222615D01*
D02*
G37*
G36*
X369307Y-223430D02*
X369569Y-223689D01*
X369549Y-223612D01*
X369506Y-223584D01*
X369380Y-223488D01*
X369307Y-223430D01*
D02*
G37*
G36*
X369569Y-223689D02*
X369576Y-223717D01*
X369590Y-223710D01*
X369569Y-223689D01*
D02*
G37*
G36*
X370205Y-226185D02*
Y-226187D01*
X370173Y-226250D01*
Y-226346D01*
X370205Y-226600D01*
X370237Y-226695D01*
Y-226822D01*
X370269Y-226886D01*
Y-226917D01*
Y-227235D01*
Y-227521D01*
X370332Y-227806D01*
X370396Y-228060D01*
X370459Y-228251D01*
X370522Y-228410D01*
X370554Y-228505D01*
X370586Y-228536D01*
X370713Y-228790D01*
X370808Y-228949D01*
X370904Y-229076D01*
X370872Y-228854D01*
X370840Y-228727D01*
Y-228678D01*
X370205Y-226185D01*
D02*
G37*
G36*
X370904Y-229076D02*
Y-229108D01*
X370935Y-229172D01*
X370999Y-229330D01*
Y-229362D01*
X371020Y-229383D01*
X370987Y-229255D01*
X370967Y-229235D01*
X370935Y-229172D01*
X370904Y-229076D01*
D02*
G37*
G36*
X371020Y-229383D02*
X371031Y-229426D01*
Y-229394D01*
X371020Y-229383D01*
D02*
G37*
G36*
X371078Y-227544D02*
X371031Y-227616D01*
X370967Y-227806D01*
X370935Y-227838D01*
X370904Y-227965D01*
X370872Y-228124D01*
X370840Y-228283D01*
Y-228314D01*
X370808Y-228346D01*
Y-228410D01*
Y-228441D01*
Y-228473D01*
Y-228505D01*
X370840Y-228600D01*
Y-228632D01*
Y-228678D01*
X370987Y-229255D01*
X370999Y-229267D01*
X371126Y-229457D01*
X371253Y-229584D01*
X371348Y-229680D01*
X371412Y-229775D01*
X371475Y-229838D01*
X371507Y-229870D01*
X371570Y-229902D01*
X371602Y-229965D01*
X371620Y-229983D01*
X371729Y-230473D01*
Y-230441D01*
Y-230378D01*
Y-230219D01*
X371740Y-230156D01*
X371697Y-230092D01*
X371665Y-230029D01*
X371634Y-229997D01*
X371620Y-229983D01*
X371078Y-227544D01*
D02*
G37*
G36*
X371991Y-229080D02*
X371951Y-229140D01*
X371920Y-229267D01*
X371824Y-229584D01*
X371761Y-229965D01*
Y-229997D01*
Y-230029D01*
X371740Y-230156D01*
X371761Y-230187D01*
X371792Y-230283D01*
Y-230315D01*
X371888Y-230473D01*
X371983Y-230632D01*
X372110Y-230727D01*
X372142Y-230759D01*
X372332Y-230886D01*
X372459Y-230981D01*
X372555Y-231013D01*
X372608D01*
X371991Y-229080D01*
D02*
G37*
G36*
X368714Y-226815D02*
X365534Y-228471D01*
X365538Y-228473D01*
X365633Y-228568D01*
X365760Y-228695D01*
X366046Y-229013D01*
X366363Y-229394D01*
X366681Y-229775D01*
X366998Y-230124D01*
X367252Y-230441D01*
X367347Y-230569D01*
X367443Y-230632D01*
X367475Y-230695D01*
X367506Y-230727D01*
X367760Y-231045D01*
X367982Y-231331D01*
X368149Y-231497D01*
X368840Y-230346D01*
X368903Y-230315D01*
X368998Y-230251D01*
X369094Y-230219D01*
X369157Y-230187D01*
X369348Y-230092D01*
X369443Y-230061D01*
X369506Y-230029D01*
X369538D01*
X369633Y-230061D01*
X369729Y-230092D01*
X369856Y-230219D01*
X369951Y-230378D01*
X369983Y-230410D01*
Y-230441D01*
Y-230473D01*
X370014Y-230505D01*
X370046Y-230664D01*
X370078Y-230791D01*
Y-230823D01*
Y-230854D01*
X370110Y-230981D01*
Y-231077D01*
X370141Y-231172D01*
Y-231235D01*
Y-231267D01*
X370173Y-231362D01*
X370205Y-231489D01*
Y-231521D01*
X370237Y-231680D01*
X370269Y-231775D01*
X370300Y-231838D01*
Y-232029D01*
Y-232156D01*
Y-232220D01*
Y-232251D01*
X370205Y-232346D01*
X370046Y-232442D01*
X369919Y-232505D01*
X369856Y-232537D01*
X369729Y-232569D01*
X369570D01*
X369316Y-232537D01*
X368998D01*
X368967Y-232505D01*
X368903Y-232442D01*
X368808Y-232315D01*
X368618Y-232092D01*
X368522Y-231934D01*
X368363Y-231775D01*
X368205Y-231553D01*
X368149Y-231497D01*
X368078Y-231616D01*
X368110Y-231680D01*
X368237Y-231775D01*
X368300Y-231902D01*
X368427Y-232029D01*
X368490Y-232092D01*
X368586Y-232220D01*
X368745Y-232378D01*
X368871Y-232505D01*
X368903Y-232537D01*
X368967Y-232569D01*
X369126Y-232632D01*
X369443D01*
X369570Y-232600D01*
X369729Y-232569D01*
X369888D01*
X370110Y-232505D01*
X370427Y-232378D01*
X370554Y-232283D01*
X370649Y-232220D01*
X370713Y-232188D01*
X370745Y-232156D01*
X370872Y-231934D01*
X370904Y-231616D01*
Y-231299D01*
X370872Y-230949D01*
X370808Y-230632D01*
X370713Y-230346D01*
X370681Y-230156D01*
X370649Y-230124D01*
Y-230092D01*
X370554Y-229806D01*
X370459Y-229552D01*
X370396Y-229362D01*
X370332Y-229172D01*
X370205Y-228886D01*
X370141Y-228695D01*
X370110Y-228600D01*
X370078Y-228536D01*
Y-228505D01*
X368714Y-226815D01*
D02*
G37*
G36*
X363558Y-226875D02*
X352044Y-232918D01*
X350234Y-236442D01*
X365534Y-228471D01*
X365474Y-228441D01*
X365347Y-228283D01*
X365125Y-228092D01*
X364776Y-227806D01*
X364395Y-227489D01*
X363887Y-227108D01*
X363558Y-226875D01*
D02*
G37*
%LPD*%
G36*
X368049Y-222189D02*
X368048Y-222190D01*
X368046Y-222187D01*
X368049Y-222189D01*
D02*
G37*
G36*
X368062Y-222202D02*
X368049Y-222189D01*
X368056Y-222184D01*
X368062Y-222202D01*
D02*
G37*
G36*
X369792Y-221043D02*
X370713Y-221964D01*
X371316Y-222313D01*
X371504Y-222705D01*
X372066Y-222410D01*
X372078Y-222440D01*
X372237Y-222758D01*
X372427Y-223076D01*
X372618Y-223330D01*
X372777Y-223520D01*
X372904Y-223647D01*
X372935Y-223710D01*
X373253Y-224060D01*
X373469Y-224337D01*
X373036Y-224563D01*
X373158Y-224695D01*
X373148Y-224760D01*
X372918Y-224625D01*
X371442Y-225393D01*
X371665Y-224631D01*
X371622Y-224584D01*
X371792Y-224599D01*
X372174Y-224187D01*
X372918Y-224625D01*
X373036Y-224563D01*
X371697Y-223107D01*
X371504Y-222705D01*
X370561Y-223200D01*
X370999Y-223901D01*
X371622Y-224584D01*
X371443Y-224568D01*
X370776Y-224250D01*
X370461Y-224287D01*
X370178Y-223401D01*
X370561Y-223200D01*
X370364Y-222885D01*
X369921Y-222336D01*
X370109Y-223183D01*
X370178Y-223401D01*
X370160Y-223411D01*
X370109Y-223183D01*
X369785Y-222168D01*
X369921Y-222336D01*
X369570Y-220758D01*
X369792Y-221043D01*
D02*
G37*
G36*
X371284Y-225933D02*
Y-226866D01*
X370904Y-225674D01*
X371442Y-225393D01*
X371284Y-225933D01*
D02*
G37*
%LPC*%
G36*
X428166Y-243071D02*
X428071Y-243388D01*
X427955Y-243726D01*
X427839Y-244064D01*
X427733Y-244392D01*
X427680Y-244540D01*
X427627Y-244677D01*
X427585Y-244804D01*
X427543Y-244899D01*
X427511Y-244994D01*
X427490Y-245058D01*
X427469Y-245100D01*
Y-245110D01*
X426444Y-247815D01*
X429772D01*
X428695Y-244952D01*
X428578Y-244603D01*
X428473Y-244265D01*
X428378Y-243948D01*
X428335Y-243800D01*
X428304Y-243663D01*
X428272Y-243536D01*
X428240Y-243420D01*
X428219Y-243325D01*
X428198Y-243230D01*
X428187Y-243166D01*
X428177Y-243113D01*
X428166Y-243082D01*
Y-243071D01*
D02*
G37*
G36*
X370389Y-243209D02*
X367589D01*
X367462Y-243219D01*
X367336D01*
X367230Y-243230D01*
X367124Y-243240D01*
X367040Y-243251D01*
X366966D01*
X366839Y-243272D01*
X366754Y-243293D01*
X366702Y-243304D01*
X366691D01*
X366511Y-243367D01*
X366353Y-243451D01*
X366216Y-243547D01*
X366089Y-243642D01*
X366004Y-243726D01*
X365930Y-243800D01*
X365888Y-243853D01*
X365877Y-243874D01*
X365772Y-244043D01*
X365698Y-244223D01*
X365634Y-244392D01*
X365603Y-244561D01*
X365582Y-244698D01*
X365560Y-244814D01*
Y-244857D01*
Y-244888D01*
Y-244910D01*
Y-244920D01*
X365571Y-245079D01*
X365582Y-245216D01*
X365645Y-245480D01*
X365729Y-245702D01*
X365825Y-245892D01*
X365920Y-246040D01*
X366004Y-246146D01*
X366036Y-246178D01*
X366068Y-246209D01*
X366078Y-246220D01*
X366089Y-246230D01*
X366194Y-246315D01*
X366321Y-246378D01*
X366448Y-246442D01*
X366585Y-246495D01*
X366881Y-246579D01*
X367177Y-246632D01*
X367314Y-246653D01*
X367452Y-246674D01*
X367568Y-246685D01*
X367674D01*
X367758Y-246695D01*
X370389D01*
Y-243209D01*
D02*
G37*
G36*
X359252Y-243071D02*
X359157Y-243388D01*
X359041Y-243726D01*
X358925Y-244064D01*
X358819Y-244392D01*
X358766Y-244540D01*
X358713Y-244677D01*
X358671Y-244804D01*
X358629Y-244899D01*
X358597Y-244994D01*
X358576Y-245058D01*
X358555Y-245100D01*
Y-245110D01*
X357530Y-247815D01*
X360858D01*
X359781Y-244952D01*
X359664Y-244603D01*
X359559Y-244265D01*
X359464Y-243948D01*
X359421Y-243800D01*
X359390Y-243663D01*
X359358Y-243536D01*
X359326Y-243420D01*
X359305Y-243325D01*
X359284Y-243230D01*
X359273Y-243166D01*
X359263Y-243113D01*
X359252Y-243082D01*
Y-243071D01*
D02*
G37*
G36*
X343128Y-243209D02*
X340877D01*
X340687Y-243219D01*
X340508Y-243230D01*
X340339Y-243240D01*
X340191Y-243251D01*
X340053Y-243272D01*
X339926Y-243293D01*
X339821Y-243304D01*
X339726Y-243325D01*
X339641Y-243346D01*
X339578Y-243367D01*
X339514Y-243377D01*
X339472Y-243388D01*
X339440Y-243399D01*
X339430Y-243409D01*
X339419D01*
X339282Y-243473D01*
X339155Y-243536D01*
X338923Y-243705D01*
X338711Y-243885D01*
X338532Y-244075D01*
X338394Y-244244D01*
X338331Y-244318D01*
X338289Y-244381D01*
X338246Y-244445D01*
X338215Y-244487D01*
X338204Y-244508D01*
X338194Y-244519D01*
X338109Y-244677D01*
X338024Y-244857D01*
X337898Y-245227D01*
X337813Y-245618D01*
X337750Y-245998D01*
X337729Y-246178D01*
X337707Y-246336D01*
X337697Y-246484D01*
Y-246611D01*
X337686Y-246716D01*
Y-246801D01*
Y-246843D01*
Y-246864D01*
X337697Y-247266D01*
X337729Y-247625D01*
X337750Y-247794D01*
X337771Y-247942D01*
X337792Y-248090D01*
X337813Y-248217D01*
X337845Y-248333D01*
X337866Y-248439D01*
X337887Y-248534D01*
X337908Y-248608D01*
X337929Y-248671D01*
X337940Y-248713D01*
X337951Y-248735D01*
Y-248745D01*
X338056Y-249020D01*
X338172Y-249263D01*
X338289Y-249474D01*
X338394Y-249654D01*
X338500Y-249791D01*
X338584Y-249897D01*
X338637Y-249960D01*
X338648Y-249971D01*
X338658Y-249981D01*
X338785Y-250098D01*
X338933Y-250203D01*
X339081Y-250288D01*
X339218Y-250362D01*
X339345Y-250415D01*
X339440Y-250457D01*
X339483Y-250468D01*
X339514Y-250478D01*
X339525Y-250489D01*
X339535D01*
X339757Y-250541D01*
X340000Y-250584D01*
X340254Y-250616D01*
X340497Y-250637D01*
X340708Y-250647D01*
X340803D01*
X340888Y-250658D01*
X343128D01*
Y-243209D01*
D02*
G37*
G36*
X307572D02*
X304772D01*
X304645Y-243219D01*
X304518D01*
X304413Y-243230D01*
X304307Y-243240D01*
X304223Y-243251D01*
X304149D01*
X304022Y-243272D01*
X303937Y-243293D01*
X303884Y-243304D01*
X303874D01*
X303694Y-243367D01*
X303536Y-243451D01*
X303398Y-243547D01*
X303272Y-243642D01*
X303187Y-243726D01*
X303113Y-243800D01*
X303071Y-243853D01*
X303060Y-243874D01*
X302955Y-244043D01*
X302881Y-244223D01*
X302817Y-244392D01*
X302785Y-244561D01*
X302764Y-244698D01*
X302743Y-244814D01*
Y-244857D01*
Y-244888D01*
Y-244910D01*
Y-244920D01*
X302754Y-245079D01*
X302764Y-245216D01*
X302828Y-245480D01*
X302912Y-245702D01*
X303007Y-245892D01*
X303102Y-246040D01*
X303187Y-246146D01*
X303219Y-246178D01*
X303250Y-246209D01*
X303261Y-246220D01*
X303272Y-246230D01*
X303377Y-246315D01*
X303504Y-246378D01*
X303631Y-246442D01*
X303768Y-246495D01*
X304064Y-246579D01*
X304360Y-246632D01*
X304497Y-246653D01*
X304635Y-246674D01*
X304751Y-246685D01*
X304856D01*
X304941Y-246695D01*
X307572D01*
Y-243209D01*
D02*
G37*
G36*
X410721Y-243018D02*
X410647D01*
X410489Y-243029D01*
X410351Y-243050D01*
X410204Y-243092D01*
X410077Y-243145D01*
X409834Y-243272D01*
X409633Y-243409D01*
X409548Y-243483D01*
X409474Y-243557D01*
X409411Y-243631D01*
X409348Y-243684D01*
X409305Y-243737D01*
X409274Y-243779D01*
X409263Y-243800D01*
X409253Y-243811D01*
X409147Y-243980D01*
X409062Y-244170D01*
X408988Y-244403D01*
X408925Y-244646D01*
X408872Y-244899D01*
X408819Y-245163D01*
X408756Y-245702D01*
X408724Y-245956D01*
X408714Y-246199D01*
X408703Y-246421D01*
X408693Y-246611D01*
X408682Y-246780D01*
Y-246843D01*
Y-246896D01*
Y-246938D01*
Y-246970D01*
Y-246991D01*
Y-247002D01*
X408693Y-247435D01*
X408703Y-247826D01*
X408735Y-248185D01*
X408767Y-248513D01*
X408809Y-248809D01*
X408862Y-249062D01*
X408914Y-249295D01*
X408967Y-249496D01*
X409020Y-249664D01*
X409073Y-249813D01*
X409115Y-249939D01*
X409168Y-250034D01*
X409200Y-250108D01*
X409231Y-250151D01*
X409242Y-250182D01*
X409253Y-250193D01*
X409358Y-250330D01*
X409474Y-250457D01*
X409591Y-250563D01*
X409707Y-250647D01*
X409823Y-250732D01*
X409939Y-250795D01*
X410045Y-250848D01*
X410151Y-250890D01*
X410341Y-250943D01*
X410425Y-250964D01*
X410499Y-250975D01*
X410552D01*
X410605Y-250985D01*
X410637D01*
X410785Y-250975D01*
X410933Y-250954D01*
X411070Y-250911D01*
X411197Y-250858D01*
X411440Y-250742D01*
X411641Y-250594D01*
X411799Y-250446D01*
X411862Y-250383D01*
X411915Y-250330D01*
X411968Y-250277D01*
X412000Y-250235D01*
X412010Y-250214D01*
X412021Y-250203D01*
X412116Y-250034D01*
X412201Y-249834D01*
X412285Y-249612D01*
X412349Y-249369D01*
X412401Y-249104D01*
X412444Y-248840D01*
X412507Y-248302D01*
X412539Y-248048D01*
X412549Y-247805D01*
X412560Y-247583D01*
X412570Y-247393D01*
X412581Y-247234D01*
Y-247160D01*
Y-247108D01*
Y-247065D01*
Y-247034D01*
Y-247012D01*
Y-247002D01*
X412570Y-246569D01*
X412549Y-246178D01*
X412528Y-245808D01*
X412486Y-245480D01*
X412444Y-245184D01*
X412391Y-244910D01*
X412327Y-244677D01*
X412275Y-244466D01*
X412222Y-244276D01*
X412158Y-244128D01*
X412105Y-244001D01*
X412063Y-243895D01*
X412021Y-243811D01*
X411989Y-243758D01*
X411979Y-243726D01*
X411968Y-243716D01*
X411873Y-243589D01*
X411767Y-243483D01*
X411662Y-243388D01*
X411556Y-243314D01*
X411440Y-243240D01*
X411334Y-243187D01*
X411123Y-243103D01*
X410933Y-243050D01*
X410848Y-243039D01*
X410785Y-243029D01*
X410721Y-243018D01*
D02*
G37*
G36*
X295558Y-242997D02*
X295315D01*
X295135Y-243018D01*
X294808Y-243071D01*
X294512Y-243156D01*
X294385Y-243198D01*
X294258Y-243240D01*
X294142Y-243293D01*
X294047Y-243335D01*
X293962Y-243377D01*
X293889Y-243420D01*
X293825Y-243451D01*
X293783Y-243473D01*
X293762Y-243483D01*
X293751Y-243494D01*
X293477Y-243694D01*
X293244Y-243916D01*
X293043Y-244138D01*
X292874Y-244360D01*
X292747Y-244561D01*
X292695Y-244646D01*
X292652Y-244719D01*
X292621Y-244783D01*
X292600Y-244825D01*
X292578Y-244857D01*
Y-244867D01*
X292441Y-245216D01*
X292335Y-245565D01*
X292261Y-245914D01*
X292219Y-246241D01*
X292198Y-246389D01*
X292187Y-246526D01*
X292177Y-246642D01*
Y-246748D01*
X292166Y-246833D01*
Y-246896D01*
Y-246938D01*
Y-246949D01*
X292177Y-247287D01*
X292208Y-247615D01*
X292251Y-247910D01*
X292314Y-248196D01*
X292388Y-248460D01*
X292462Y-248692D01*
X292557Y-248914D01*
X292642Y-249104D01*
X292726Y-249284D01*
X292811Y-249432D01*
X292895Y-249559D01*
X292969Y-249664D01*
X293033Y-249749D01*
X293075Y-249802D01*
X293107Y-249844D01*
X293117Y-249855D01*
X293297Y-250034D01*
X293487Y-250193D01*
X293688Y-250320D01*
X293889Y-250436D01*
X294089Y-250541D01*
X294290Y-250626D01*
X294480Y-250690D01*
X294671Y-250742D01*
X294839Y-250785D01*
X295009Y-250816D01*
X295146Y-250837D01*
X295273Y-250848D01*
X295378Y-250858D01*
X295452Y-250869D01*
X295516D01*
X295780Y-250858D01*
X296023Y-250827D01*
X296266Y-250774D01*
X296488Y-250711D01*
X296699Y-250637D01*
X296889Y-250552D01*
X297080Y-250457D01*
X297238Y-250362D01*
X297386Y-250277D01*
X297513Y-250182D01*
X297629Y-250098D01*
X297724Y-250024D01*
X297798Y-249960D01*
X297851Y-249908D01*
X297883Y-249876D01*
X297893Y-249865D01*
X298062Y-249664D01*
X298200Y-249453D01*
X298326Y-249231D01*
X298432Y-248999D01*
X298527Y-248766D01*
X298601Y-248545D01*
X298665Y-248312D01*
X298717Y-248090D01*
X298760Y-247889D01*
X298781Y-247699D01*
X298802Y-247530D01*
X298823Y-247382D01*
Y-247255D01*
X298834Y-247160D01*
Y-247108D01*
Y-247086D01*
X298823Y-246685D01*
X298791Y-246315D01*
X298738Y-245977D01*
X298675Y-245670D01*
X298601Y-245385D01*
X298527Y-245131D01*
X298432Y-244899D01*
X298337Y-244688D01*
X298253Y-244519D01*
X298157Y-244360D01*
X298083Y-244233D01*
X297999Y-244128D01*
X297946Y-244054D01*
X297893Y-243990D01*
X297861Y-243959D01*
X297851Y-243948D01*
X297661Y-243779D01*
X297460Y-243631D01*
X297259Y-243504D01*
X297059Y-243399D01*
X296868Y-243304D01*
X296667Y-243230D01*
X296477Y-243166D01*
X296298Y-243113D01*
X296129Y-243082D01*
X295981Y-243050D01*
X295843Y-243029D01*
X295727Y-243008D01*
X295621D01*
X295558Y-242997D01*
D02*
G37*
%LPD*%
D15*
X584870Y-492414D02*
X589950Y-507654D01*
X595030Y-492414D01*
X589950Y25746D02*
X595030Y10506D01*
X584870D02*
X589950Y25746D01*
Y-507654D02*
Y-297326D01*
Y-192710D02*
Y25746D01*
X536864Y-507654D02*
X592490D01*
X538388Y25746D02*
X592490D01*
X-21682Y104738D02*
X-6442Y109817D01*
X-21682Y104738D02*
X-6442Y99657D01*
X522050D02*
X537290Y104738D01*
X522050Y109817D02*
X537290Y104738D01*
X-21682D02*
X200162D01*
X307318D02*
X537290D01*
X-21682Y28286D02*
Y107277D01*
X537290Y29678D02*
Y107277D01*
X-75946Y-465074D02*
X-70866Y-480314D01*
X-65786Y-465074D01*
X-70866Y-1270D02*
X-65786Y-16510D01*
X-75946D02*
X-70866Y-1270D01*
Y-480314D02*
Y-297164D01*
Y-192548D02*
Y-1270D01*
X-73406Y-480314D02*
X-23620D01*
X-73406Y-1270D02*
X-24382D01*
X-127254Y-492506D02*
X-122174Y-507746D01*
X-117094Y-492506D01*
X-122174Y25654D02*
X-117094Y10414D01*
X-127254D02*
X-122174Y25654D01*
Y-507746D02*
Y-297418D01*
Y-192802D02*
Y25654D01*
X-124714Y-507746D02*
X-25400D01*
X-124714Y25654D02*
X-27178D01*
D18*
X599091Y-283106D02*
Y-293262D01*
X588935Y-283106D01*
X586396D01*
X583857Y-285645D01*
Y-290723D01*
X586396Y-293262D01*
X599091Y-278027D02*
Y-272949D01*
Y-275488D01*
X583857D01*
X586396Y-278027D01*
Y-265331D02*
X583857Y-262792D01*
Y-257714D01*
X586396Y-255175D01*
X596552D01*
X599091Y-257714D01*
Y-262792D01*
X596552Y-265331D01*
X586396D01*
Y-250096D02*
X583857Y-247557D01*
Y-242479D01*
X586396Y-239940D01*
X596552D01*
X599091Y-242479D01*
Y-247557D01*
X596552Y-250096D01*
X586396D01*
X599091Y-234861D02*
X596552D01*
Y-232322D01*
X599091D01*
Y-234861D01*
X586396Y-222165D02*
X583857Y-219626D01*
Y-214548D01*
X586396Y-212009D01*
X596552D01*
X599091Y-214548D01*
Y-219626D01*
X596552Y-222165D01*
X586396D01*
Y-206930D02*
X583857Y-204391D01*
Y-199313D01*
X586396Y-196774D01*
X596552D01*
X599091Y-199313D01*
Y-204391D01*
X596552Y-206930D01*
X586396D01*
X214382Y95596D02*
X204226D01*
X214382Y105753D01*
Y108292D01*
X211843Y110831D01*
X206765D01*
X204226Y108292D01*
X229618Y95596D02*
X219461D01*
X229618Y105753D01*
Y108292D01*
X227078Y110831D01*
X222000D01*
X219461Y108292D01*
X234696D02*
X237235Y110831D01*
X242313D01*
X244853Y108292D01*
Y98135D01*
X242313Y95596D01*
X237235D01*
X234696Y98135D01*
Y108292D01*
X249931D02*
X252470Y110831D01*
X257549D01*
X260088Y108292D01*
Y98135D01*
X257549Y95596D01*
X252470D01*
X249931Y98135D01*
Y108292D01*
X265166Y95596D02*
Y98135D01*
X267705D01*
Y95596D01*
X265166D01*
X288019Y110831D02*
X282940Y108292D01*
X277862Y103214D01*
Y98135D01*
X280401Y95596D01*
X285480D01*
X288019Y98135D01*
Y100674D01*
X285480Y103214D01*
X277862D01*
X293097Y108292D02*
X295636Y110831D01*
X300715D01*
X303254Y108292D01*
Y105753D01*
X300715Y103214D01*
X303254Y100674D01*
Y98135D01*
X300715Y95596D01*
X295636D01*
X293097Y98135D01*
Y100674D01*
X295636Y103214D01*
X293097Y105753D01*
Y108292D01*
X295636Y103214D02*
X300715D01*
X-61725Y-293100D02*
Y-288022D01*
Y-290561D01*
X-76960D01*
X-74420Y-293100D01*
Y-280404D02*
X-76960Y-277865D01*
Y-272787D01*
X-74420Y-270248D01*
X-71881D01*
X-69342Y-272787D01*
X-66803Y-270248D01*
X-64264D01*
X-61725Y-272787D01*
Y-277865D01*
X-64264Y-280404D01*
X-66803D01*
X-69342Y-277865D01*
X-71881Y-280404D01*
X-74420D01*
X-69342Y-277865D02*
Y-272787D01*
X-74420Y-265169D02*
X-76960Y-262630D01*
Y-257552D01*
X-74420Y-255013D01*
X-71881D01*
X-69342Y-257552D01*
X-66803Y-255013D01*
X-64264D01*
X-61725Y-257552D01*
Y-262630D01*
X-64264Y-265169D01*
X-66803D01*
X-69342Y-262630D01*
X-71881Y-265169D01*
X-74420D01*
X-69342Y-262630D02*
Y-257552D01*
X-76960Y-239778D02*
X-74420Y-244856D01*
X-69342Y-249934D01*
X-64264D01*
X-61725Y-247395D01*
Y-242317D01*
X-64264Y-239778D01*
X-66803D01*
X-69342Y-242317D01*
Y-249934D01*
X-61725Y-234699D02*
X-64264D01*
Y-232160D01*
X-61725D01*
Y-234699D01*
X-74420Y-222003D02*
X-76960Y-219464D01*
Y-214386D01*
X-74420Y-211847D01*
X-64264D01*
X-61725Y-214386D01*
Y-219464D01*
X-64264Y-222003D01*
X-74420D01*
Y-206768D02*
X-76960Y-204229D01*
Y-199151D01*
X-74420Y-196612D01*
X-64264D01*
X-61725Y-199151D01*
Y-204229D01*
X-64264Y-206768D01*
X-74420D01*
X-113033Y-283198D02*
Y-293354D01*
X-123189Y-283198D01*
X-125728D01*
X-128267Y-285737D01*
Y-290815D01*
X-125728Y-293354D01*
X-113033Y-278119D02*
Y-273041D01*
Y-275580D01*
X-128267D01*
X-125728Y-278119D01*
Y-265423D02*
X-128267Y-262884D01*
Y-257806D01*
X-125728Y-255267D01*
X-115572D01*
X-113033Y-257806D01*
Y-262884D01*
X-115572Y-265423D01*
X-125728D01*
Y-250188D02*
X-128267Y-247649D01*
Y-242571D01*
X-125728Y-240032D01*
X-115572D01*
X-113033Y-242571D01*
Y-247649D01*
X-115572Y-250188D01*
X-125728D01*
X-113033Y-234953D02*
X-115572D01*
Y-232414D01*
X-113033D01*
Y-234953D01*
X-125728Y-222257D02*
X-128267Y-219718D01*
Y-214640D01*
X-125728Y-212101D01*
X-115572D01*
X-113033Y-214640D01*
Y-219718D01*
X-115572Y-222257D01*
X-125728D01*
Y-207022D02*
X-128267Y-204483D01*
Y-199405D01*
X-125728Y-196866D01*
X-115572D01*
X-113033Y-199405D01*
Y-204483D01*
X-115572Y-207022D01*
X-125728D01*
D19*
X14797Y-480989D02*
G03*
X14797Y-480989I-15999J0D01*
G01*
X15051Y341D02*
G03*
X15051Y341I-15999J0D01*
G01*
X435929Y-65699D02*
G03*
X435929Y-65699I-15999J0D01*
G01*
Y-412409D02*
G03*
X435929Y-412409I-15999J0D01*
G01*
X-22790Y-506897D02*
Y26503D01*
X537290Y-125897D02*
Y26503D01*
Y-506897D02*
Y-125897D01*
X-21680Y26000D02*
X538400D01*
X-22790Y-506897D02*
X537290D01*
M02*
