%FSLAX23Y23*%
%MOIN*%
G70*
G01*
G75*
G04 Layer_Physical_Order=4*
G04 Layer_Color=16711680*
%ADD10O,0.024X0.059*%
%ADD11O,0.018X0.067*%
%ADD12O,0.059X0.024*%
%ADD13R,0.071X0.051*%
%ADD14R,0.039X0.039*%
%ADD15R,0.039X0.035*%
%ADD16R,0.039X0.039*%
%ADD17R,0.080X0.050*%
%ADD18R,0.134X0.085*%
%ADD19R,0.041X0.085*%
%ADD20R,0.041X0.085*%
%ADD21R,0.106X0.071*%
%ADD22R,0.035X0.039*%
%ADD23O,0.024X0.087*%
%ADD24R,0.051X0.071*%
%ADD25R,0.047X0.047*%
%ADD26R,0.075X0.134*%
%ADD27O,0.024X0.087*%
%ADD28C,0.040*%
%ADD29R,0.016X0.049*%
%ADD30R,0.071X0.079*%
%ADD31R,0.079X0.031*%
%ADD32R,0.134X0.063*%
%ADD33R,0.026X0.041*%
%ADD34R,0.134X0.075*%
%ADD35R,0.091X0.091*%
%ADD36O,0.087X0.024*%
%ADD37O,0.087X0.024*%
%ADD38R,0.071X0.094*%
%ADD39R,0.084X0.052*%
%ADD40O,0.011X0.067*%
%ADD41O,0.067X0.011*%
%ADD42R,0.141X0.116*%
%ADD43O,0.012X0.047*%
%ADD44R,0.177X0.059*%
%ADD45C,0.008*%
%ADD46C,0.012*%
%ADD47C,0.010*%
%ADD48C,0.025*%
%ADD49C,0.020*%
%ADD50C,0.015*%
%ADD51C,0.012*%
%ADD52C,0.004*%
%ADD53C,0.004*%
%ADD54C,0.118*%
%ADD55C,0.125*%
%ADD56C,0.035*%
%ADD57C,0.118*%
%ADD58C,0.065*%
%ADD59R,0.065X0.065*%
%ADD60R,0.065X0.065*%
%ADD61C,0.039*%
%ADD62C,0.040*%
%ADD63C,0.158*%
%ADD64C,0.168*%
%ADD65C,0.056*%
%ADD66C,0.079*%
%ADD67C,0.079*%
%ADD68C,0.058*%
%ADD69C,0.060*%
%ADD70R,0.071X0.063*%
%ADD71R,0.063X0.071*%
%ADD72R,0.013X0.028*%
%ADD73R,0.018X0.040*%
%ADD74R,0.028X0.039*%
%ADD75C,0.039*%
%ADD76C,0.039*%
D10*
X7585Y768D02*
D03*
X7622Y843D02*
D03*
X7547D02*
D03*
X6482Y373D02*
D03*
X6557D02*
D03*
X6520Y298D02*
D03*
X7237Y683D02*
D03*
X7312D02*
D03*
X7275Y608D02*
D03*
X6963Y582D02*
D03*
X6888D02*
D03*
X6925Y657D02*
D03*
X7388Y1452D02*
D03*
X7313D02*
D03*
X7350Y1527D02*
D03*
X7422Y1883D02*
D03*
X7497D02*
D03*
X7460Y1808D02*
D03*
X6775Y583D02*
D03*
X6812Y658D02*
D03*
X6737D02*
D03*
X4450Y1802D02*
D03*
X4413Y1727D02*
D03*
X4488D02*
D03*
X4240Y1802D02*
D03*
X4203Y1727D02*
D03*
X4278D02*
D03*
X4025Y1802D02*
D03*
X3988Y1727D02*
D03*
X4063D02*
D03*
D13*
X747Y239D02*
D03*
Y353D02*
D03*
X2367Y1589D02*
D03*
Y1703D02*
D03*
D14*
X5119Y1449D02*
D03*
Y1511D02*
D03*
X7465Y1466D02*
D03*
Y1404D02*
D03*
X7165Y799D02*
D03*
Y861D02*
D03*
X7555Y1466D02*
D03*
Y1404D02*
D03*
X7235Y799D02*
D03*
Y861D02*
D03*
X625Y599D02*
D03*
Y661D02*
D03*
X7310Y799D02*
D03*
Y861D02*
D03*
X6915Y1466D02*
D03*
Y1404D02*
D03*
X6585Y1466D02*
D03*
Y1404D02*
D03*
X6605Y774D02*
D03*
Y836D02*
D03*
X7875Y1466D02*
D03*
Y1404D02*
D03*
X7700Y774D02*
D03*
Y836D02*
D03*
X7240Y1466D02*
D03*
Y1404D02*
D03*
X7785Y774D02*
D03*
Y836D02*
D03*
X7785Y1466D02*
D03*
Y1404D02*
D03*
X6697Y774D02*
D03*
Y836D02*
D03*
X6495Y1466D02*
D03*
Y1404D02*
D03*
X6825Y1466D02*
D03*
Y1404D02*
D03*
X7395Y861D02*
D03*
Y799D02*
D03*
X2367Y1414D02*
D03*
Y1477D02*
D03*
X3660Y1124D02*
D03*
Y1186D02*
D03*
X3590Y1124D02*
D03*
Y1186D02*
D03*
X3520Y1186D02*
D03*
Y1124D02*
D03*
X7015Y836D02*
D03*
Y774D02*
D03*
X7150Y1404D02*
D03*
Y1466D02*
D03*
X6925Y836D02*
D03*
Y774D02*
D03*
X1330Y1154D02*
D03*
Y1216D02*
D03*
D16*
X2181Y1780D02*
D03*
X2119D02*
D03*
X2181Y1705D02*
D03*
X2119D02*
D03*
X2579Y975D02*
D03*
X2641D02*
D03*
X2384D02*
D03*
X2446D02*
D03*
X2641Y905D02*
D03*
X2579D02*
D03*
X2594Y1765D02*
D03*
X2656D02*
D03*
X2914Y1470D02*
D03*
X2976D02*
D03*
X2601Y1200D02*
D03*
X2539D02*
D03*
D22*
X5040Y267D02*
D03*
X5107D02*
D03*
X4821Y267D02*
D03*
X4888D02*
D03*
D23*
X5625Y1338D02*
D03*
X5675D02*
D03*
X5725D02*
D03*
X5775D02*
D03*
X5975Y1527D02*
D03*
X5925D02*
D03*
X5875D02*
D03*
X5825D02*
D03*
X5775D02*
D03*
X5725D02*
D03*
X5675D02*
D03*
X5625D02*
D03*
X5625Y1910D02*
D03*
X5675D02*
D03*
X5725D02*
D03*
X5775D02*
D03*
X5825D02*
D03*
X5875D02*
D03*
X5925D02*
D03*
X5975D02*
D03*
Y1721D02*
D03*
X5925D02*
D03*
X5875D02*
D03*
X5825D02*
D03*
X5775D02*
D03*
X5725D02*
D03*
X5675D02*
D03*
X5625D02*
D03*
X5975Y1338D02*
D03*
X5925D02*
D03*
X5875D02*
D03*
X5825D02*
D03*
X5630Y351D02*
D03*
X5680D02*
D03*
X5730D02*
D03*
X5780D02*
D03*
X5980Y540D02*
D03*
X5930D02*
D03*
X5880D02*
D03*
X5830D02*
D03*
X5780D02*
D03*
X5730D02*
D03*
X5680D02*
D03*
X5630D02*
D03*
Y915D02*
D03*
X5680D02*
D03*
X5730D02*
D03*
X5780D02*
D03*
X5830D02*
D03*
X5880D02*
D03*
X5930D02*
D03*
X5980D02*
D03*
Y726D02*
D03*
X5930D02*
D03*
X5880D02*
D03*
X5830D02*
D03*
X5780D02*
D03*
X5730D02*
D03*
X5680D02*
D03*
X5630D02*
D03*
X5980Y351D02*
D03*
X5930D02*
D03*
X5880D02*
D03*
X5830D02*
D03*
X4510Y361D02*
D03*
X4560D02*
D03*
X4610D02*
D03*
X4660D02*
D03*
X4310Y550D02*
D03*
X4360D02*
D03*
X4410D02*
D03*
X4460D02*
D03*
X4510D02*
D03*
X4560D02*
D03*
X4610D02*
D03*
X4660D02*
D03*
X4460Y361D02*
D03*
X4410D02*
D03*
X4360D02*
D03*
X4310D02*
D03*
D24*
X793Y1285D02*
D03*
X907D02*
D03*
X380Y826D02*
D03*
X494D02*
D03*
X2747Y1420D02*
D03*
X2633D02*
D03*
X814Y686D02*
D03*
X700D02*
D03*
D28*
X7847Y79D02*
D03*
X147D02*
D03*
Y2126D02*
D03*
X2745Y1826D02*
D03*
X2533Y905D02*
D03*
X2496Y976D02*
D03*
X2383Y919D02*
D03*
D34*
X445Y421D02*
D03*
Y579D02*
D03*
D36*
X1204Y1110D02*
D03*
Y1160D02*
D03*
Y1210D02*
D03*
Y1260D02*
D03*
X1015D02*
D03*
Y1210D02*
D03*
Y1160D02*
D03*
Y1110D02*
D03*
D45*
X660Y485D02*
Y545D01*
X682Y567D01*
X749D01*
X5245Y586D02*
X5268D01*
X5174Y657D02*
X5245Y586D01*
X5271Y690D02*
X5274D01*
X5302Y662D01*
X5107Y267D02*
X5157D01*
X4865Y480D02*
X4940D01*
X4856Y498D02*
X4857Y488D01*
X4865Y480D01*
X5010Y514D02*
X5050D01*
X4867Y793D02*
X4918D01*
X4981Y690D02*
Y748D01*
X4953Y585D02*
X4984Y616D01*
Y687D01*
X4981Y690D02*
X4984Y687D01*
X5167Y1742D02*
Y1829D01*
X5136Y1674D02*
Y1711D01*
X5135Y1691D02*
X5136Y1692D01*
X5185Y1598D02*
Y1625D01*
X5136Y1674D02*
X5185Y1625D01*
X5255Y1483D02*
Y1662D01*
X5221Y1449D02*
X5255Y1483D01*
X5119Y1449D02*
X5221D01*
X5104Y1742D02*
Y1828D01*
X5073Y1651D02*
Y1711D01*
X5055Y1633D02*
X5073Y1651D01*
X5103Y1647D02*
Y1692D01*
X5225D02*
X5255Y1662D01*
X6597Y1001D02*
X7296D01*
X6377Y1221D02*
X6597Y1001D01*
X5166Y1910D02*
X5206D01*
X7917Y1257D02*
X7999Y1339D01*
X7567Y1257D02*
X7917D01*
X6568Y947D02*
X6971D01*
X6552Y964D02*
X7139D01*
X6424Y1466D02*
X6585D01*
X6405Y1485D02*
X6424Y1466D01*
X6746D02*
X6915D01*
X6734Y1478D02*
X6746Y1466D01*
X8223Y1397D02*
X8224Y1396D01*
X8178Y1397D02*
X8223D01*
X8120Y1339D02*
X8178Y1397D01*
X7999Y1339D02*
X8120D01*
X8051Y1225D02*
X8122D01*
X8224Y1278D02*
X8224Y1278D01*
X8175Y1278D02*
X8224D01*
X8122Y1225D02*
X8175Y1278D01*
X7958Y1132D02*
X8051Y1225D01*
X7588Y1132D02*
X7958D01*
X8178Y1114D02*
X8224Y1160D01*
X8168Y1098D02*
X8224Y1042D01*
X8221Y927D02*
X8224Y924D01*
X8174Y927D02*
X8221D01*
X8112Y989D02*
X8174Y927D01*
X8224Y806D02*
X8224Y806D01*
X8173Y806D02*
X8224D01*
X8116Y863D02*
X8173Y806D01*
X8030Y863D02*
X8116D01*
X7373Y1326D02*
X7418Y1371D01*
X7071Y1466D02*
X7240D01*
X7059Y1478D02*
X7071Y1466D01*
X7431D02*
X7555D01*
X7418Y1371D02*
Y1453D01*
X7431Y1466D01*
X7784Y837D02*
X7785Y836D01*
X7784Y837D02*
Y924D01*
X7755Y953D02*
X7784Y924D01*
X7344Y953D02*
X7755D01*
X7296Y1001D02*
X7344Y953D01*
X7360Y861D02*
X7465D01*
X7487Y759D02*
Y839D01*
X7465Y861D02*
X7487Y839D01*
X7395Y799D02*
X7396Y798D01*
Y737D02*
Y798D01*
X7345Y686D02*
X7396Y737D01*
X7345Y622D02*
Y686D01*
X7331Y608D02*
X7345Y622D01*
X7275Y608D02*
X7331D01*
X7395Y861D02*
X7395Y861D01*
X7352Y853D02*
X7360Y861D01*
X7352Y808D02*
Y853D01*
X7343Y799D02*
X7352Y808D01*
X7310Y799D02*
X7343D01*
X6925Y774D02*
X7093D01*
X7108Y759D01*
X7165Y861D02*
X7165Y861D01*
Y938D01*
X7139Y964D02*
X7165Y938D01*
X7165Y799D02*
X7235D01*
X7237Y796D01*
Y683D02*
Y796D01*
X6340Y907D02*
X6358Y889D01*
X6477D02*
X6552Y964D01*
X6358Y889D02*
X6477D01*
X6340Y907D02*
Y953D01*
X6365Y978D01*
X6403D01*
X6418Y993D01*
Y1135D01*
X6634Y1234D02*
X7141D01*
X7786Y1317D02*
Y1403D01*
X7742Y1273D02*
X7786Y1317D01*
X7141Y1234D02*
X7180Y1273D01*
X7742D01*
X6622Y1251D02*
X7131D01*
X7465Y1299D02*
Y1404D01*
X7456Y1290D02*
X7465Y1299D01*
X7131Y1251D02*
X7170Y1290D01*
X7456D01*
X7785Y1404D02*
X7786Y1403D01*
X6571Y1171D02*
X6634Y1234D01*
X6517Y1171D02*
X6571D01*
X6501Y1230D02*
X6601D01*
X7465Y1404D02*
X7465Y1404D01*
X6601Y1230D02*
X6622Y1251D01*
X6517Y1271D02*
X7119D01*
X7150Y1404D02*
X7150Y1404D01*
X7150Y1302D02*
Y1404D01*
X7119Y1271D02*
X7150Y1302D01*
X6585Y1326D02*
X6586Y1325D01*
X6809D01*
X6825Y1341D01*
Y1404D01*
X6495Y1326D02*
X6495Y1336D01*
Y1404D01*
X7015Y836D02*
Y903D01*
X6971Y947D02*
X7015Y903D01*
X6494Y873D02*
X6568Y947D01*
X6346Y873D02*
X6494D01*
X6320Y899D02*
X6346Y873D01*
X6320Y899D02*
Y964D01*
X6377Y1021D01*
X6531Y878D02*
X6689D01*
X6303Y887D02*
X6333Y857D01*
X6510D02*
X6531Y878D01*
X6333Y857D02*
X6510D01*
X6697Y836D02*
X6697Y836D01*
Y870D01*
X6689Y878D02*
X6697Y870D01*
X625Y535D02*
X625Y535D01*
X625Y535D02*
Y599D01*
X4488Y1677D02*
X4500Y1665D01*
X4488Y1677D02*
Y1727D01*
X4395Y1665D02*
X4413Y1683D01*
Y1727D01*
X4278Y1682D02*
X4290Y1670D01*
X4278Y1682D02*
Y1727D01*
X4185Y1670D02*
X4203Y1688D01*
Y1727D01*
X4063Y1682D02*
X4080Y1665D01*
X4063Y1682D02*
Y1727D01*
X3975Y1665D02*
X3988Y1678D01*
Y1727D01*
X3044Y1843D02*
X3688D01*
X3985Y1730D02*
X3988Y1727D01*
X3985Y1730D02*
Y1855D01*
X3960Y1880D02*
X3985Y1855D01*
X3725Y1880D02*
X3960D01*
X3688Y1843D02*
X3725Y1880D01*
X3053Y1861D02*
X3676D01*
X4063Y1727D02*
X4065Y1730D01*
Y1925D01*
X4039Y1951D02*
X4065Y1925D01*
X3766Y1951D02*
X4039D01*
X3676Y1861D02*
X3766Y1951D01*
X3063Y1877D02*
X3667D01*
X4200Y1730D02*
X4203Y1727D01*
X4200Y1730D02*
Y1945D01*
X4178Y1967D02*
X4200Y1945D01*
X3757Y1967D02*
X4178D01*
X3667Y1877D02*
X3757Y1967D01*
X3069Y1893D02*
X3658D01*
X4278Y1727D02*
X4280Y1730D01*
Y1960D01*
X4257Y1983D02*
X4280Y1960D01*
X3748Y1983D02*
X4257D01*
X3658Y1893D02*
X3748Y1983D01*
X3076Y1909D02*
X3649D01*
X4413Y1727D02*
X4415Y1730D01*
Y1970D01*
X4386Y1999D02*
X4415Y1970D01*
X3739Y1999D02*
X4386D01*
X3649Y1909D02*
X3739Y1999D01*
X4488Y1727D02*
X4490Y1730D01*
Y1995D01*
X4470Y2015D02*
X4490Y1995D01*
X3730Y2015D02*
X4470D01*
X3640Y1925D02*
X3730Y2015D01*
X5136Y1711D02*
X5167Y1742D01*
X5073Y1711D02*
X5073Y1711D01*
X5073D01*
X5104Y1742D01*
X5136Y1740D02*
Y1828D01*
X5104Y1692D02*
X5106Y1694D01*
Y1710D01*
X5136Y1740D01*
X5104Y1692D02*
X5104Y1692D01*
X5167Y1829D02*
X5168Y1830D01*
X5136Y1828D02*
X5137Y1830D01*
X5104Y1828D02*
X5106Y1830D01*
X5073Y1827D02*
X5075Y1830D01*
X5073Y1758D02*
Y1827D01*
X5167Y1692D02*
X5225D01*
X4950Y831D02*
Y880D01*
X4918Y793D02*
X4918Y794D01*
Y855D02*
Y875D01*
X4918Y795D02*
X4918Y794D01*
X4918Y795D02*
Y814D01*
X4912Y820D02*
X4918Y814D01*
X4912Y820D02*
Y849D01*
X4918Y855D01*
X4981Y854D02*
Y874D01*
X4981Y788D02*
X4981Y789D01*
Y813D01*
X4987Y819D01*
Y848D01*
X4981Y854D02*
X4987Y848D01*
X4949Y722D02*
X4950Y722D01*
Y755D01*
X4953Y758D01*
X4968D01*
X4981Y771D01*
Y788D01*
X5012D02*
X5013Y788D01*
Y760D02*
Y788D01*
X5006Y753D02*
X5013Y760D01*
X4986Y753D02*
X5006D01*
X4981Y748D02*
X4986Y753D01*
X4949Y692D02*
Y722D01*
X4918Y514D02*
Y721D01*
X4885Y727D02*
X4891Y721D01*
X4918D01*
X4918Y722D01*
X5240Y854D02*
X5240Y853D01*
X5240Y854D02*
Y880D01*
X5239Y789D02*
X5239Y788D01*
X5239Y789D02*
Y814D01*
X5234Y819D02*
X5239Y814D01*
X5234Y819D02*
Y847D01*
X5240Y853D01*
X5302Y789D02*
X5302Y788D01*
X5302Y789D02*
Y814D01*
X5308Y820D01*
Y848D01*
X5301Y854D02*
X5308Y848D01*
X5301Y854D02*
Y880D01*
X5271Y828D02*
X5271Y828D01*
X5271Y828D02*
Y880D01*
X5193Y754D02*
X5232D01*
X5239Y788D02*
X5239Y788D01*
X5239Y761D02*
Y788D01*
X5232Y754D02*
X5239Y761D01*
X5271Y722D02*
X5271Y722D01*
Y750D01*
X5275Y754D01*
X5291D01*
X5302Y765D01*
Y788D01*
X5271Y690D02*
Y722D01*
X5239Y671D02*
Y722D01*
X5235Y667D02*
X5239Y671D01*
X5375Y722D02*
X5383Y714D01*
X5302Y722D02*
X5375D01*
X5271Y788D02*
Y828D01*
X5775Y1721D02*
Y1770D01*
X5625Y1721D02*
Y1770D01*
X6010Y1660D02*
Y1780D01*
X5975Y1815D02*
Y1910D01*
Y1815D02*
X6010Y1780D01*
X5875Y1721D02*
Y1770D01*
X5975Y1721D02*
Y1770D01*
X5680Y855D02*
Y1020D01*
X5680Y1020D02*
X5680Y1020D01*
Y210D02*
Y455D01*
X5535Y235D02*
X5570Y200D01*
X5670D01*
X5680Y210D01*
X1911Y251D02*
Y838D01*
X6164Y501D02*
X6182Y519D01*
X6164Y268D02*
Y501D01*
X1911Y251D02*
X1942Y220D01*
X1894Y198D02*
Y846D01*
X6126Y1991D02*
X6146Y1971D01*
X6091Y2026D02*
X6126Y1991D01*
X6146Y1676D02*
Y1971D01*
X6354Y1340D02*
Y1660D01*
X6370Y1676D01*
X4618Y2026D02*
X6091D01*
X2185Y1249D02*
X2229Y1293D01*
X2185Y784D02*
Y1249D01*
X2150Y1291D02*
Y1308D01*
X2054Y1195D02*
X2150Y1291D01*
X2054Y935D02*
Y1195D01*
X1945Y826D02*
X2054Y935D01*
X1945Y338D02*
Y826D01*
X1990Y965D02*
Y1145D01*
X1767Y791D02*
X1816D01*
X4730Y271D02*
Y393D01*
X4655Y196D02*
X4730Y271D01*
Y393D02*
X4749Y412D01*
X4819Y720D02*
Y802D01*
X4666Y240D02*
X4713Y287D01*
Y614D02*
X4819Y720D01*
X4713Y287D02*
Y614D01*
X4991Y1189D02*
Y1834D01*
X4862Y845D02*
Y1060D01*
X4991Y1189D01*
X5635Y1829D02*
X5701D01*
X5554Y1748D02*
X5635Y1829D01*
X4641Y1993D02*
X4913D01*
X4926Y1941D02*
Y1980D01*
X4913Y1993D02*
X4926Y1980D01*
X4621Y1841D02*
Y1973D01*
X4641Y1993D01*
X4581Y1801D02*
X4621Y1841D01*
X3690Y1595D02*
X4538D01*
X4581Y1638D02*
Y1801D01*
X4538Y1595D02*
X4581Y1638D01*
X2595Y1505D02*
X3062D01*
X3574Y1479D02*
X3690Y1595D01*
X3062Y1505D02*
X3088Y1479D01*
X3574D01*
X4633Y2010D02*
X4935D01*
X4563Y1810D02*
X4604Y1851D01*
X4935Y2010D02*
X4969Y1976D01*
X4604Y1981D02*
X4633Y2010D01*
X4604Y1851D02*
Y1981D01*
X3683Y1611D02*
X4528D01*
X3568Y1496D02*
X3683Y1611D01*
X2572Y1535D02*
X3056D01*
X4563Y1646D02*
Y1810D01*
X4528Y1611D02*
X4563Y1646D01*
X3095Y1496D02*
X3568D01*
X3056Y1535D02*
X3095Y1496D01*
X2557Y1520D02*
X2572Y1535D01*
X2557Y1507D02*
Y1520D01*
X2522Y1472D02*
X2557Y1507D01*
X6317Y1211D02*
Y1303D01*
X6354Y1340D01*
X3683Y1627D02*
X4519D01*
X4588Y1996D02*
X4618Y2026D01*
X4588Y1866D02*
Y1996D01*
X4544Y1822D02*
X4588Y1866D01*
X4544Y1652D02*
Y1822D01*
X4519Y1627D02*
X4544Y1652D01*
X6317Y1211D02*
X6361Y1167D01*
X6386D01*
X6418Y1135D01*
X6361Y1275D02*
X6456D01*
X6501Y1230D01*
X2295Y1729D02*
X2374Y1808D01*
X2295Y1682D02*
Y1729D01*
X2461Y1925D02*
X3015D01*
X2257Y1721D02*
X2461Y1925D01*
X2444Y1941D02*
X3021D01*
X2289Y1786D02*
X2444Y1941D01*
X2423Y1957D02*
X3028D01*
X2285Y1819D02*
X2423Y1957D01*
X2218Y1819D02*
X2285D01*
X2376Y1973D02*
X3036D01*
X2255Y1852D02*
X2376Y1973D01*
X2185Y1852D02*
X2218Y1819D01*
X2181Y1780D02*
X2187Y1786D01*
X3035Y1879D02*
X3053Y1861D01*
X3006Y1908D02*
X3035Y1879D01*
X4779Y786D02*
X4800Y807D01*
X4800D02*
X4844Y851D01*
X4779Y739D02*
Y786D01*
X1900Y1352D02*
Y1627D01*
X1814Y1713D02*
X1900Y1627D01*
X4562Y240D02*
X4666D01*
X4510Y292D02*
X4562Y240D01*
X4510Y292D02*
Y361D01*
X5071Y403D02*
X5106Y404D01*
X5016Y403D02*
X5071D01*
X5010Y408D02*
X5016Y403D01*
X5010Y408D02*
Y434D01*
X4819Y402D02*
X4915D01*
X4918Y405D01*
Y434D01*
X4991Y1834D02*
X5027Y1870D01*
X5905Y471D02*
Y817D01*
X5930Y842D01*
Y915D01*
X2150Y1308D02*
X2222Y1380D01*
X1900Y1352D02*
X1973Y1279D01*
X1972Y1162D02*
X1973Y1163D01*
Y1210D01*
X2038Y942D02*
Y1238D01*
X2060Y1260D01*
X2076Y180D02*
X6096D01*
X1928Y328D02*
X2076Y180D01*
X2000Y595D02*
X2000Y595D01*
X2000Y312D02*
Y595D01*
X2000Y700D02*
X2001Y699D01*
Y694D02*
Y699D01*
X1928Y328D02*
Y832D01*
X2038Y942D01*
X1640Y1515D02*
Y1808D01*
X1684Y1852D01*
X2408Y1646D02*
X2426Y1664D01*
X2500D01*
X2561Y1603D01*
X5597Y671D02*
Y829D01*
X5613Y845D01*
X5670D01*
X5680Y855D01*
X5680Y455D02*
X5680Y455D01*
X5088Y1960D02*
X5103Y1944D01*
Y1910D02*
Y1944D01*
X5825Y1910D02*
Y1985D01*
X5135Y1942D02*
X5150Y1958D01*
X5135Y1910D02*
Y1942D01*
X5027Y1870D02*
X5158D01*
X5166Y1878D01*
Y1910D01*
X5725Y1910D02*
X5726Y1909D01*
X5554Y1495D02*
Y1748D01*
Y1495D02*
X5625Y1424D01*
Y1338D02*
Y1424D01*
X5555Y1817D02*
X5590Y1845D01*
X5650D01*
X5675Y1870D01*
Y1910D01*
X5590Y1495D02*
X5675Y1410D01*
X5590Y1495D02*
Y1585D01*
X5675Y1338D02*
X5675Y1338D01*
X5675Y1338D02*
Y1410D01*
X4979Y481D02*
Y514D01*
Y481D02*
X4985Y476D01*
X5152Y270D02*
X5157Y267D01*
X4770Y270D02*
X4773Y267D01*
X4821D01*
X4979Y366D02*
X4993Y344D01*
X4979Y366D02*
Y434D01*
X4934Y346D02*
X4949Y363D01*
Y434D01*
X4917Y435D02*
X4918Y434D01*
X5010D02*
X5011Y435D01*
X830Y890D02*
X885Y945D01*
Y1175D01*
X895Y1185D01*
X920D01*
X945Y1210D01*
X1015D01*
X940Y1160D02*
X1015D01*
X680Y1430D02*
X835D01*
X665Y1415D02*
X680Y1430D01*
X665Y1195D02*
Y1415D01*
X5650Y1795D02*
X5675Y1770D01*
Y1721D02*
Y1770D01*
X5625Y1770D02*
X5650Y1795D01*
X5950Y1605D02*
X5975Y1580D01*
Y1527D02*
Y1580D01*
X5925Y1580D02*
X5950Y1605D01*
X5925Y1527D02*
Y1580D01*
X5850Y1605D02*
X5875Y1580D01*
Y1527D02*
Y1580D01*
X5825Y1580D02*
X5850Y1605D01*
X5825Y1527D02*
Y1580D01*
X5750Y1605D02*
X5775Y1580D01*
Y1527D02*
Y1580D01*
X5725Y1580D02*
X5750Y1605D01*
X5725Y1527D02*
Y1580D01*
X5625D02*
X5650Y1605D01*
X5625Y1527D02*
Y1580D01*
X5650Y1605D02*
X5675Y1580D01*
Y1527D02*
Y1580D01*
X5950Y1795D02*
X5975Y1770D01*
X5925Y1770D02*
X5950Y1795D01*
X5925Y1721D02*
Y1770D01*
X5850Y1795D02*
X5875Y1770D01*
X5825Y1770D02*
X5850Y1795D01*
X5825Y1721D02*
Y1770D01*
X5725D02*
X5750Y1795D01*
X5725Y1721D02*
Y1770D01*
X5750Y1795D02*
X5775Y1770D01*
X5975Y1721D02*
X5975Y1721D01*
X5875Y1721D02*
X5875Y1721D01*
X5775Y1721D02*
X5775Y1721D01*
X5675Y1721D02*
X5675Y1721D01*
X5625Y1910D02*
Y1985D01*
X637Y916D02*
X665Y944D01*
X2197Y1721D02*
X2257D01*
X4427Y1011D02*
X4627D01*
X825Y465D02*
X883D01*
X897Y451D01*
X6303Y887D02*
Y1047D01*
X6377Y1121D01*
X5630Y726D02*
Y780D01*
X5655Y805D01*
X5680Y726D02*
Y780D01*
X5655Y805D02*
X5680Y780D01*
X5730Y780D02*
X5755Y805D01*
X5730Y726D02*
Y780D01*
Y726D02*
X5730Y726D01*
X5780D02*
Y780D01*
X5755Y805D02*
X5780Y780D01*
X5830Y726D02*
Y780D01*
X5855Y805D01*
X5880Y726D02*
Y779D01*
X5855Y805D02*
X5880Y779D01*
X5930Y726D02*
Y780D01*
X5955Y805D01*
X5980Y726D02*
Y780D01*
X5955Y805D02*
X5980Y780D01*
X5655Y620D02*
X5680Y595D01*
Y540D02*
Y595D01*
Y540D02*
X5680Y540D01*
X5650Y620D02*
X5655D01*
X5630Y600D02*
X5650Y620D01*
X5630Y540D02*
Y600D01*
Y540D02*
X5630Y540D01*
X5730D02*
Y595D01*
X5755Y620D01*
X5780Y540D02*
Y595D01*
X5755Y620D02*
X5780Y595D01*
X5830Y540D02*
Y595D01*
X5855Y620D01*
X5880Y540D02*
Y595D01*
X5855Y620D02*
X5880Y595D01*
X5980Y540D02*
Y595D01*
X5955Y620D02*
X5980Y595D01*
X5930Y540D02*
Y595D01*
X5955Y620D01*
X1204Y1160D02*
X1270D01*
X1275Y1155D01*
X1204Y1210D02*
X1270D01*
X1275Y1215D01*
X3520Y1186D02*
X3590D01*
X3590Y1186D01*
X3660D01*
Y1244D01*
X3660Y1244D01*
X3559Y727D02*
X3595Y691D01*
X3692D01*
X3694Y689D01*
X4510Y550D02*
Y605D01*
X4535Y630D01*
X4560Y550D02*
Y605D01*
X4535Y630D02*
X4560Y605D01*
X4610Y550D02*
Y605D01*
X4635Y630D01*
X4660Y550D02*
Y605D01*
X4635Y630D02*
X4660Y605D01*
X1894Y846D02*
X2006Y958D01*
Y1603D01*
X1911Y838D02*
X2022Y949D01*
Y1617D01*
X6215Y250D02*
Y574D01*
X6181Y608D02*
X6215Y574D01*
X6181Y608D02*
Y750D01*
X5830Y351D02*
Y396D01*
X5980Y841D02*
Y915D01*
Y841D02*
X6015Y806D01*
Y673D02*
Y806D01*
Y416D02*
Y595D01*
X5981Y382D02*
X6015Y416D01*
X5981Y348D02*
Y382D01*
X5975Y1338D02*
Y1381D01*
X6010Y1416D01*
Y1591D01*
X5105Y497D02*
Y545D01*
X5084Y476D02*
X5105Y497D01*
X4985Y476D02*
X5084D01*
X5159Y412D02*
X5264Y307D01*
X4819Y802D02*
X4862Y845D01*
X3036Y1973D02*
X3084Y1925D01*
X3028Y1957D02*
X3076Y1909D01*
X3021Y1941D02*
X3069Y1893D01*
X3084Y1925D02*
X3640D01*
X3015Y1925D02*
X3063Y1877D01*
X2562Y1846D02*
X2604D01*
X2650Y1892D01*
X2995D01*
X3044Y1843D01*
X1942Y1792D02*
X1965Y1815D01*
X1942Y1667D02*
X2006Y1603D01*
X1942Y1667D02*
Y1792D01*
X1975Y1664D02*
Y1750D01*
Y1664D02*
X2022Y1617D01*
X2008Y1667D02*
X2029Y1646D01*
X2008Y1667D02*
Y1836D01*
X1992Y1852D02*
X2008Y1836D01*
X1684Y1852D02*
X1992D01*
X2029Y1646D02*
X2408D01*
X2276Y1663D02*
X2295Y1682D01*
X2025Y1684D02*
X2046Y1663D01*
X2025Y1684D02*
Y1848D01*
X2003Y1870D02*
X2025Y1848D01*
X2046Y1663D02*
X2276D01*
X1402Y1870D02*
X2003D01*
X1917Y1908D02*
X2027Y2018D01*
X1447Y1908D02*
X1917D01*
X2522Y1541D02*
X2532Y1551D01*
X3151Y1571D02*
X3193Y1529D01*
X2519Y1571D02*
X3151D01*
X4843Y852D02*
X4844Y851D01*
X3207Y1587D02*
X3244Y1550D01*
X4793Y1173D02*
X4827Y1139D01*
X4796Y855D02*
X4827Y886D01*
Y1139D01*
X5137Y662D02*
X5178Y621D01*
Y435D02*
Y621D01*
Y435D02*
X5262Y351D01*
X5279D01*
X5303Y327D01*
Y238D02*
Y327D01*
X4019Y397D02*
Y492D01*
X3947Y325D02*
X4019Y397D01*
X2972Y325D02*
X3947D01*
X2856Y441D02*
X2972Y325D01*
X4030Y578D02*
X4056Y552D01*
X4030Y578D02*
Y940D01*
X2873Y1310D02*
X2965Y1218D01*
X2554Y1587D02*
X3207D01*
X4793Y1173D02*
Y1485D01*
X4843Y852D02*
Y1448D01*
X3094Y1551D02*
X3115Y1530D01*
X2532Y1551D02*
X3094D01*
X665Y944D02*
Y1120D01*
X700Y1155D01*
X665Y1195D02*
X700Y1160D01*
Y1155D02*
Y1160D01*
X1945Y338D02*
X2087Y196D01*
X4655D01*
X2100Y212D02*
X3965D01*
X4056Y303D01*
X2000Y312D02*
X2100Y212D01*
X2000Y595D02*
Y701D01*
X4056Y303D02*
Y552D01*
X5174Y657D02*
Y735D01*
X5193Y754D01*
X4853Y620D02*
X4885Y588D01*
X4853Y620D02*
Y779D01*
X4867Y793D01*
X5011Y794D02*
Y875D01*
Y794D02*
X5012Y793D01*
X4949Y692D02*
X4950Y672D01*
X4949Y727D02*
X4950Y727D01*
X4981Y794D02*
X4981Y793D01*
X4981Y875D02*
X4981Y874D01*
X4949Y793D02*
X4950Y794D01*
X5031Y1754D02*
X5073D01*
X5025Y1755D02*
X5031Y1754D01*
X5135Y1687D02*
X5135Y1687D01*
X5166Y1754D02*
X5166Y1753D01*
X5103Y1647D02*
X5115Y1635D01*
X5118Y1633D01*
X5103Y1753D02*
X5103Y1754D01*
X5010Y514D02*
X5011Y515D01*
X4940Y480D02*
X4949Y488D01*
Y514D01*
X5701Y1829D02*
X5726Y1854D01*
X4949Y788D02*
Y831D01*
X4949Y831D02*
X4949Y831D01*
X6129Y213D02*
Y1464D01*
X2951Y1671D02*
X3639D01*
X3683Y1627D01*
X4597Y1757D02*
X4639Y1799D01*
X4597Y1536D02*
Y1757D01*
X4556Y1495D02*
X4597Y1536D01*
X4436Y1495D02*
X4556D01*
X6096Y180D02*
X6129Y213D01*
X2187Y1786D02*
X2289D01*
X2724Y1293D02*
X2737Y1280D01*
Y1256D02*
Y1280D01*
X2229Y1293D02*
X2724D01*
X2872Y523D02*
Y1043D01*
X2823Y474D02*
X2872Y523D01*
X2823Y370D02*
Y474D01*
X2526Y774D02*
X2600Y700D01*
X2650Y650D02*
X2700Y700D01*
X2604Y568D02*
Y569D01*
X2732Y1311D02*
X2748Y1327D01*
X2150Y406D02*
Y1239D01*
X2222Y1311D01*
X2732D01*
X2250Y602D02*
X2283Y569D01*
X2219Y1231D02*
X2250Y1200D01*
Y602D02*
Y1200D01*
X2283Y569D02*
X2604D01*
X2275Y819D02*
Y1231D01*
Y819D02*
X2349Y745D01*
Y664D02*
Y745D01*
Y664D02*
X2364Y649D01*
X2616D01*
X2617Y650D01*
X2650D01*
X2334Y801D02*
Y1231D01*
Y801D02*
X2361Y774D01*
X2526D01*
X5726Y1854D02*
Y1992D01*
X5830Y396D02*
X5905Y471D01*
X7550Y1240D02*
X7567Y1257D01*
X7500Y1220D02*
X7588Y1132D01*
X7450Y1195D02*
X7531Y1114D01*
X8178D01*
X7490Y1055D02*
X7533Y1098D01*
X8168D01*
X7540Y1030D02*
X7908D01*
X7949Y989D02*
X8112D01*
X7908Y1030D02*
X7949Y989D01*
X7506Y986D02*
X7907D01*
X8030Y863D01*
X2836Y1310D02*
X2873D01*
X2965Y1152D02*
Y1218D01*
X2802Y1113D02*
X2872Y1043D01*
X3412Y916D02*
X3524D01*
X3559Y881D01*
Y727D02*
Y881D01*
X5065Y1395D02*
X5119Y1449D01*
X5065Y792D02*
Y1395D01*
Y792D02*
X5107Y750D01*
Y650D02*
Y750D01*
Y650D02*
X5108Y649D01*
Y638D02*
Y649D01*
X5159Y412D02*
Y587D01*
X5108Y638D02*
X5159Y587D01*
X5179Y1425D02*
X5334D01*
X5083Y1329D02*
X5179Y1425D01*
X5083Y885D02*
Y1329D01*
Y885D02*
X5137Y831D01*
Y662D02*
Y831D01*
X3878Y1687D02*
X3900Y1666D01*
X2913Y1633D02*
X2951Y1671D01*
X2777Y1633D02*
X2913D01*
X2500Y1590D02*
X2519Y1571D01*
X2703Y1619D02*
X2750Y1665D01*
X2918D01*
X2940Y1687D01*
X3878D01*
X2553Y1642D02*
X2576Y1619D01*
X2703D01*
X2553Y1642D02*
Y1688D01*
X2606Y1893D02*
X2621Y1908D01*
X3006D01*
X2612Y1808D02*
X2638Y1834D01*
X2374Y1808D02*
X2612D01*
X2474Y1631D02*
X2510D01*
X2554Y1587D01*
X2690Y1714D02*
Y1835D01*
X2663Y1687D02*
X2690Y1714D01*
X2745Y1765D02*
Y1826D01*
X2749Y1695D02*
X2800D01*
X2805Y1700D01*
X2983Y1603D02*
X3000Y1620D01*
X2561Y1603D02*
X2983D01*
X2641Y905D02*
Y975D01*
Y905D02*
X2641Y905D01*
X2642Y906D02*
X2700D01*
X2641Y905D02*
X2642Y906D01*
X2579Y975D02*
Y1036D01*
X2593Y1050D01*
X2627D01*
X2628Y1051D01*
X2632D01*
X1816Y791D02*
X1990Y965D01*
X1972Y1162D02*
X1990Y1145D01*
X2070Y1156D02*
X2109Y1195D01*
X2070Y771D02*
Y1156D01*
X2000Y701D02*
X2070Y771D01*
X2384Y920D02*
Y975D01*
X2383Y919D02*
X2384Y920D01*
X2435Y1070D02*
X2492D01*
X2493Y1069D01*
X2260Y1411D02*
Y1445D01*
Y1411D02*
X2284Y1387D01*
X2365Y1355D02*
X2451D01*
X2490Y1394D01*
X2535Y1376D02*
Y1415D01*
X2525Y1425D02*
X2535Y1415D01*
X2595Y1345D02*
X2635D01*
X2584Y1356D02*
X2595Y1345D01*
X4310Y550D02*
Y645D01*
X4310Y645D02*
X4310Y645D01*
X4360Y550D02*
Y690D01*
X4360Y690D02*
X4360Y690D01*
X4410Y550D02*
Y645D01*
X4410Y645D02*
X4410Y645D01*
X4460Y550D02*
Y658D01*
X4436Y682D02*
X4460Y658D01*
X4436Y682D02*
Y724D01*
X4435Y725D02*
X4436Y724D01*
X4460Y255D02*
Y361D01*
X4460Y255D02*
X4460Y255D01*
X4410Y293D02*
Y361D01*
X4403Y286D02*
X4410Y293D01*
X4371Y286D02*
X4403D01*
X4330Y245D02*
X4371Y286D01*
X4359Y317D02*
Y356D01*
X4332Y290D02*
X4359Y317D01*
X4315Y290D02*
X4332D01*
X4270Y245D02*
X4315Y290D01*
X4236Y361D02*
X4310D01*
X4235Y360D02*
X4236Y361D01*
X5140Y960D02*
X5208D01*
X5140Y880D02*
X5208D01*
X5170Y815D02*
X5206D01*
X5208Y813D01*
Y789D02*
Y813D01*
X5208Y788D02*
X5208Y789D01*
X5208Y697D02*
Y722D01*
X5201Y690D02*
X5208Y697D01*
X5201Y653D02*
Y690D01*
X5302Y628D02*
X5330Y600D01*
X5201Y653D02*
X5226Y628D01*
X5302D01*
D46*
X4950Y955D02*
Y1005D01*
X4918Y960D02*
X4918Y1007D01*
X5141Y358D02*
X5227Y272D01*
X7139Y1789D02*
X7281D01*
X5925Y1910D02*
Y1985D01*
X7281Y1789D02*
X7282Y1790D01*
X8167Y1576D02*
X8224Y1633D01*
X7285Y1733D02*
Y1790D01*
X6838Y535D02*
Y574D01*
X6829Y583D02*
X6838Y574D01*
X6775Y583D02*
X6829D01*
X6482Y373D02*
X6557D01*
X7712Y1201D02*
X7728Y1217D01*
X7623Y1201D02*
X7712D01*
X5271Y955D02*
Y1010D01*
X5240Y955D02*
Y994D01*
X7607Y1709D02*
Y1736D01*
X7414D02*
X7607D01*
X5240Y995D02*
X5271D01*
X6661Y1389D02*
X6662Y1389D01*
Y1522D01*
X6589Y1595D02*
X6662Y1522D01*
X6589Y1595D02*
Y1700D01*
X6915Y1323D02*
X6915Y1323D01*
Y1404D01*
X7700Y774D02*
X7863D01*
X7877Y760D01*
X7547Y843D02*
X7622D01*
X7628Y836D01*
X7700D01*
X7695Y914D02*
X7700Y909D01*
Y836D02*
Y909D01*
X7427Y269D02*
X7490D01*
X7396Y301D02*
X7427Y269D01*
X7490Y269D02*
Y408D01*
X7490Y269D02*
X7490Y269D01*
X7607Y1902D02*
X7682D01*
X7306Y865D02*
X7310Y861D01*
X7306Y865D02*
Y916D01*
X7240Y1326D02*
X7241Y1325D01*
X7240Y1326D02*
Y1404D01*
X6737Y658D02*
X6925D01*
X6605Y774D02*
X6772D01*
X6787Y759D01*
X6482Y374D02*
Y599D01*
X8062Y1517D02*
X8104D01*
X7976Y1603D02*
X8062Y1517D01*
X7576Y1603D02*
X7976D01*
X7523Y1693D02*
X7584Y1632D01*
X8066Y1576D02*
X8167D01*
X8010Y1632D02*
X8066Y1576D01*
X7325Y1693D02*
X7523D01*
X6600Y413D02*
X6697D01*
X5012Y722D02*
X5017Y727D01*
X5042D01*
X4918Y955D02*
X4918Y960D01*
X5960Y1062D02*
X6090Y932D01*
X5939Y283D02*
X6043D01*
X6090Y330D01*
Y932D01*
X5925Y1129D02*
X6110Y944D01*
Y283D02*
Y944D01*
X6084Y257D02*
X6110Y283D01*
X5630Y235D02*
Y424D01*
X5497Y965D02*
Y1027D01*
Y349D02*
Y472D01*
X5458Y770D02*
X5483Y745D01*
Y486D02*
X5497Y472D01*
X5458Y926D02*
X5497Y965D01*
X5483Y486D02*
Y745D01*
X5458Y770D02*
Y926D01*
X5425Y971D02*
Y1350D01*
X5407Y953D02*
X5425Y971D01*
Y665D02*
Y729D01*
X5407Y747D02*
X5425Y729D01*
X5407Y747D02*
Y953D01*
X5384Y715D02*
Y993D01*
X7301Y1965D02*
X7411D01*
X7422Y1883D02*
Y1953D01*
X7410Y1965D02*
X7422Y1953D01*
Y1883D02*
X7497D01*
X5346Y1795D02*
X5430D01*
X5520Y1705D01*
Y1314D02*
Y1705D01*
X5495Y1029D02*
Y1688D01*
X5051Y1996D02*
X5353D01*
X5385Y1964D01*
Y1873D02*
Y1964D01*
X5346Y1834D02*
X5385Y1873D01*
X5346Y1795D02*
Y1834D01*
X5329Y1738D02*
X5445D01*
X5495Y1688D01*
X5306Y1761D02*
X5329Y1738D01*
X5306Y1761D02*
Y1858D01*
X5345Y1897D01*
X6482Y599D02*
X6550Y667D01*
X6207Y962D02*
Y1833D01*
X6194Y1846D02*
X6207Y1833D01*
X6166Y921D02*
X6207Y962D01*
X6231Y939D02*
Y1968D01*
X6202Y910D02*
X6231Y939D01*
X6202Y824D02*
Y910D01*
X6366Y1846D02*
X6961D01*
X7017Y1790D01*
X7193Y1845D02*
X7356D01*
X7052Y1986D02*
X7193Y1845D01*
X6270Y1897D02*
X6359Y1986D01*
X7052D01*
X7356Y1845D02*
X7363Y1838D01*
Y1787D02*
Y1838D01*
Y1787D02*
X7414Y1736D01*
X5271Y1010D02*
X5288Y1027D01*
X5472Y324D02*
X5497Y349D01*
X5730Y276D02*
X5731Y275D01*
X5730Y276D02*
Y351D01*
X5033Y1978D02*
X5051Y1996D01*
X5033Y1923D02*
Y1978D01*
Y1923D02*
X5046Y1910D01*
X5073D01*
X5840Y1062D02*
Y1147D01*
X5860Y1167D01*
Y1251D01*
X5825Y1286D02*
X5860Y1251D01*
X5825Y1286D02*
Y1338D01*
X6587Y1793D02*
X6590Y1790D01*
X6697D01*
X6271Y1361D02*
Y1759D01*
X7912Y539D02*
X8057Y684D01*
X8082D01*
X5840Y1062D02*
X5960D01*
X5925Y1129D02*
Y1338D01*
X5686Y1228D02*
X5725Y1267D01*
Y1338D01*
X6220Y1979D02*
X6231Y1968D01*
X5301Y955D02*
X5343D01*
X5025Y1062D02*
X5026Y1061D01*
Y1004D02*
Y1061D01*
X5011Y989D02*
X5026Y1004D01*
X5563Y491D02*
Y854D01*
Y491D02*
X5630Y424D01*
X5563Y854D02*
X5584Y875D01*
X5708Y834D02*
X5730Y856D01*
Y915D01*
X5630Y351D02*
X5630Y351D01*
X7300Y376D02*
X7337Y413D01*
X7300Y200D02*
Y376D01*
X6764Y301D02*
X6795Y270D01*
X6697Y301D02*
X6764D01*
X4918Y954D02*
X4918Y955D01*
X5042Y727D02*
X5060Y745D01*
X6550Y667D02*
Y839D01*
X6311D02*
X6550D01*
X6284Y866D02*
X6311Y839D01*
X6284Y866D02*
Y1301D01*
X6321Y1338D01*
Y1892D01*
X6375Y1946D01*
X6582D01*
X8188Y1517D02*
X8214D01*
X8128Y1457D02*
X8188Y1517D01*
X8067Y1456D02*
X8128Y1457D01*
X7944Y1579D02*
X8067Y1456D01*
X7835Y559D02*
X8022Y746D01*
X8129D01*
X8185Y690D01*
X8208Y691D01*
X8170Y626D02*
X8223Y572D01*
X8060Y626D02*
X8170D01*
X7952Y518D02*
X8060Y626D01*
X7476Y493D02*
X8031D01*
X7394Y411D02*
X7476Y493D01*
X8091Y469D02*
X8106Y454D01*
X8052Y401D02*
X8173D01*
X8111Y808D02*
X8169Y751D01*
X8317D01*
X8339Y729D01*
X8105Y926D02*
X8172Y859D01*
X8110Y1162D02*
X8169Y1221D01*
X8312D01*
X8334Y1199D01*
X8110Y1281D02*
X8158Y1329D01*
X8111Y1399D02*
X8172Y1459D01*
X6552Y841D02*
X6557Y846D01*
X8172Y1459D02*
X8415D01*
X8416D01*
X8158Y1329D02*
X8415D01*
X8416D01*
X8334Y1199D02*
X8415D01*
X8416D01*
X8107Y1042D02*
X8161Y989D01*
X8415D01*
X8416D01*
X8172Y859D02*
X8415D01*
X8416D01*
X8339Y729D02*
X8415D01*
X8416D01*
X8082Y684D02*
X8097Y688D01*
X7585Y410D02*
X7644Y469D01*
X8091D01*
X8043Y410D02*
X8052Y401D01*
X7785Y410D02*
X8043D01*
X8173Y401D02*
X8226Y454D01*
X7785Y298D02*
X7860D01*
X7887Y271D01*
X7205Y236D02*
X7207Y301D01*
X7112Y392D02*
X7133Y413D01*
X7112Y356D02*
Y392D01*
X7133Y413D02*
X7207D01*
X6932Y301D02*
X7015D01*
X6912Y281D02*
X6932Y301D01*
X7787Y1902D02*
X7853D01*
X7882Y1931D01*
X6694Y1792D02*
X6697Y1790D01*
X6626Y1902D02*
X6697D01*
X6582Y1946D02*
X6626Y1902D01*
X7584Y1632D02*
X8010D01*
X7564Y1579D02*
X7944D01*
X6697Y413D02*
Y472D01*
X6719Y494D01*
X7207Y413D02*
X7312Y518D01*
X7952D01*
X7086Y413D02*
X7212Y539D01*
X7912D01*
X7111Y494D02*
X7176Y559D01*
X6719Y494D02*
X7111D01*
X7176Y559D02*
X7835D01*
X7337Y413D02*
X7396D01*
X8031Y493D02*
X8107Y569D01*
X7410Y1965D02*
X7411Y1965D01*
X7285Y1902D02*
Y1949D01*
X7301Y1965D01*
X5925Y1975D02*
X5925Y1985D01*
X5630Y915D02*
Y993D01*
X5830Y915D02*
Y993D01*
X5930Y915D02*
Y994D01*
X5931Y995D01*
X4981Y1028D02*
X4982Y1029D01*
X4981Y955D02*
Y1028D01*
X5373Y1598D02*
X5400Y1625D01*
X5373Y1402D02*
Y1598D01*
Y1402D02*
X5425Y1350D01*
X5606Y1228D02*
X5686D01*
X5520Y1314D02*
X5606Y1228D01*
Y1062D02*
Y1228D01*
X5537Y329D02*
Y993D01*
X5606Y1062D01*
X5495Y1029D02*
X5497Y1027D01*
X5386Y553D02*
Y626D01*
X5385Y544D02*
X5386Y553D01*
Y626D02*
X5425Y665D01*
X5386Y426D02*
Y543D01*
X5084Y631D02*
Y721D01*
Y631D02*
X5141Y574D01*
X5060Y745D02*
X5084Y721D01*
X5141Y358D02*
Y574D01*
X4950Y1005D02*
X4950Y1005D01*
X4920D02*
X4950D01*
X4918Y1007D02*
X4920Y1005D01*
X5240Y994D02*
X5240Y995D01*
X7785Y1720D02*
X7809Y1696D01*
X7785Y1720D02*
Y1788D01*
X7787Y1790D01*
X8167Y1696D02*
X8223Y1752D01*
X7809Y1696D02*
X8167D01*
X5930Y292D02*
X5939Y283D01*
X5930Y292D02*
Y351D01*
X5930Y351D01*
X5011Y955D02*
Y989D01*
X6697Y1727D02*
X6803Y1621D01*
X7522D01*
X7564Y1579D01*
X6697Y1727D02*
Y1790D01*
X7017Y1731D02*
X7080Y1668D01*
X7511D01*
X7576Y1603D01*
X7017Y1731D02*
Y1767D01*
X7285Y1733D02*
X7325Y1693D01*
X7585Y298D02*
X7587Y296D01*
X6202Y824D02*
X6276Y750D01*
X6861Y405D02*
X6869Y413D01*
X7086D01*
X6485Y1804D02*
X6589Y1700D01*
D47*
X4836Y706D02*
Y793D01*
X4785Y370D02*
X4888Y267D01*
X4785Y655D02*
X4836Y706D01*
X4785Y370D02*
Y655D01*
X6694Y298D02*
X6697Y301D01*
X6520Y298D02*
X6694D01*
X7709Y1466D02*
X7875D01*
X7697Y1478D02*
X7709Y1466D01*
X7310Y1583D02*
X7350Y1543D01*
Y1527D02*
Y1543D01*
X7240Y1404D02*
X7242Y1402D01*
X7307D01*
X7313Y1408D01*
Y1452D01*
X7388D01*
X7585Y710D02*
X7585Y710D01*
X7585Y710D02*
Y768D01*
X7875Y1404D02*
X7877Y1402D01*
Y1325D02*
Y1402D01*
X6888Y582D02*
X7173D01*
X7197Y606D01*
X6540Y982D02*
X7240D01*
X6480Y922D02*
X6540Y982D01*
X7240D02*
X7306Y916D01*
X6378Y922D02*
X6480D01*
X6924Y658D02*
X6925Y658D01*
X6924Y658D02*
Y714D01*
X6880Y758D02*
X6924Y714D01*
X6880Y758D02*
Y826D01*
X6890Y836D01*
X6925D01*
X4635Y438D02*
X4660Y413D01*
Y361D02*
Y413D01*
X4880Y837D02*
Y1051D01*
X5028Y1199D01*
Y1291D01*
X4610Y361D02*
X4611Y360D01*
Y273D02*
Y360D01*
X4888Y267D02*
X5040D01*
X2962Y616D02*
X2977Y631D01*
X3757D01*
X2962Y581D02*
Y616D01*
Y581D02*
X3067Y476D01*
X5119Y1511D02*
Y1566D01*
X5122Y1571D01*
X4836Y793D02*
X4880Y837D01*
X5036Y1356D02*
Y1570D01*
X5029Y1349D02*
X5036Y1356D01*
X7735Y1790D02*
X7787D01*
X7722Y1803D02*
X7735Y1790D01*
X7722Y1803D02*
Y1988D01*
X7695Y2015D02*
X7722Y1988D01*
X6330Y2015D02*
X7695D01*
X6295Y1980D02*
X6330Y2015D01*
X6275Y750D02*
X6276Y750D01*
X6275Y250D02*
Y750D01*
X2630Y1739D02*
X2656Y1765D01*
X2630Y1684D02*
Y1739D01*
Y1684D02*
X2633Y1681D01*
Y1650D02*
Y1681D01*
Y1650D02*
X2633Y1650D01*
X2594Y1661D02*
Y1765D01*
X2587Y1654D02*
X2594Y1661D01*
X-163Y-274D02*
Y-344D01*
Y-274D02*
X-133D01*
X-123Y-278D01*
X-120Y-281D01*
X-116Y-288D01*
Y-294D01*
X-120Y-301D01*
X-123Y-304D01*
X-133Y-308D01*
X-163D02*
X-133D01*
X-123Y-311D01*
X-120Y-314D01*
X-116Y-321D01*
Y-331D01*
X-120Y-338D01*
X-123Y-341D01*
X-133Y-344D01*
X-163D01*
X-84Y-298D02*
X-91Y-301D01*
X-97Y-308D01*
X-101Y-318D01*
Y-324D01*
X-97Y-334D01*
X-91Y-341D01*
X-84Y-344D01*
X-74D01*
X-67Y-341D01*
X-61Y-334D01*
X-57Y-324D01*
Y-318D01*
X-61Y-308D01*
X-67Y-301D01*
X-74Y-298D01*
X-84D01*
X-32Y-274D02*
Y-331D01*
X-29Y-341D01*
X-22Y-344D01*
X-15D01*
X-42Y-298D02*
X-19D01*
X5Y-274D02*
Y-331D01*
X8Y-341D01*
X15Y-344D01*
X21D01*
X-5Y-298D02*
X18D01*
X48D02*
X41Y-301D01*
X35Y-308D01*
X31Y-318D01*
Y-324D01*
X35Y-334D01*
X41Y-341D01*
X48Y-344D01*
X58D01*
X65Y-341D01*
X71Y-334D01*
X75Y-324D01*
Y-318D01*
X71Y-308D01*
X65Y-301D01*
X58Y-298D01*
X48D01*
X90D02*
Y-344D01*
Y-311D02*
X100Y-301D01*
X107Y-298D01*
X117D01*
X123Y-301D01*
X127Y-311D01*
Y-344D01*
Y-311D02*
X137Y-301D01*
X143Y-298D01*
X153D01*
X160Y-301D01*
X163Y-311D01*
Y-344D01*
X240Y-274D02*
Y-344D01*
X280D01*
X328Y-298D02*
Y-344D01*
Y-308D02*
X321Y-301D01*
X315Y-298D01*
X305D01*
X298Y-301D01*
X291Y-308D01*
X288Y-318D01*
Y-324D01*
X291Y-334D01*
X298Y-341D01*
X305Y-344D01*
X315D01*
X321Y-341D01*
X328Y-334D01*
X350Y-298D02*
X370Y-344D01*
X390Y-298D02*
X370Y-344D01*
X363Y-358D01*
X357Y-364D01*
X350Y-368D01*
X347D01*
X402Y-318D02*
X442D01*
Y-311D01*
X438Y-304D01*
X435Y-301D01*
X428Y-298D01*
X418D01*
X412Y-301D01*
X405Y-308D01*
X402Y-318D01*
Y-324D01*
X405Y-334D01*
X412Y-341D01*
X418Y-344D01*
X428D01*
X435Y-341D01*
X442Y-334D01*
X457Y-298D02*
Y-344D01*
Y-318D02*
X460Y-308D01*
X467Y-301D01*
X473Y-298D01*
X483D01*
X3359Y2239D02*
Y2169D01*
Y2239D02*
X3316D01*
X3359Y2206D02*
X3332D01*
X3254Y2169D02*
X3281Y2239D01*
X3308Y2169D01*
X3298Y2192D02*
X3264D01*
X3238Y2239D02*
Y2169D01*
Y2239D02*
X3208D01*
X3198Y2236D01*
X3195Y2232D01*
X3191Y2226D01*
Y2219D01*
X3195Y2212D01*
X3198Y2209D01*
X3208Y2206D01*
X3238D02*
X3208D01*
X3198Y2202D01*
X3195Y2199D01*
X3191Y2192D01*
Y2182D01*
X3195Y2176D01*
X3198Y2172D01*
X3208Y2169D01*
X3238D01*
X3172Y2216D02*
X3176Y2212D01*
X3172Y2209D01*
X3169Y2212D01*
X3172Y2216D01*
Y2176D02*
X3176Y2172D01*
X3172Y2169D01*
X3169Y2172D01*
X3172Y2176D01*
X3079Y2239D02*
X3089Y2236D01*
X3095Y2226D01*
X3099Y2209D01*
Y2199D01*
X3095Y2182D01*
X3089Y2172D01*
X3079Y2169D01*
X3072D01*
X3062Y2172D01*
X3055Y2182D01*
X3052Y2199D01*
Y2209D01*
X3055Y2226D01*
X3062Y2236D01*
X3072Y2239D01*
X3079D01*
X2993Y2216D02*
X2996Y2206D01*
X3003Y2199D01*
X3013Y2196D01*
X3016D01*
X3026Y2199D01*
X3033Y2206D01*
X3036Y2216D01*
Y2219D01*
X3033Y2229D01*
X3026Y2236D01*
X3016Y2239D01*
X3013D01*
X3003Y2236D01*
X2996Y2229D01*
X2993Y2216D01*
Y2199D01*
X2996Y2182D01*
X3003Y2172D01*
X3013Y2169D01*
X3020D01*
X3030Y2172D01*
X3033Y2179D01*
X2974Y2199D02*
X2914D01*
X2873Y2239D02*
X2883Y2236D01*
X2890Y2226D01*
X2893Y2209D01*
Y2199D01*
X2890Y2182D01*
X2883Y2172D01*
X2873Y2169D01*
X2867D01*
X2857Y2172D01*
X2850Y2182D01*
X2847Y2199D01*
Y2209D01*
X2850Y2226D01*
X2857Y2236D01*
X2867Y2239D01*
X2873D01*
X2811D02*
X2821Y2236D01*
X2828Y2226D01*
X2831Y2209D01*
Y2199D01*
X2828Y2182D01*
X2821Y2172D01*
X2811Y2169D01*
X2804D01*
X2794Y2172D01*
X2788Y2182D01*
X2784Y2199D01*
Y2209D01*
X2788Y2226D01*
X2794Y2236D01*
X2804Y2239D01*
X2811D01*
X2749D02*
X2759Y2236D01*
X2765Y2226D01*
X2769Y2209D01*
Y2199D01*
X2765Y2182D01*
X2759Y2172D01*
X2749Y2169D01*
X2742D01*
X2732Y2172D01*
X2725Y2182D01*
X2722Y2199D01*
Y2209D01*
X2725Y2226D01*
X2732Y2236D01*
X2742Y2239D01*
X2749D01*
X2706Y2226D02*
X2700Y2229D01*
X2690Y2239D01*
Y2169D01*
X2622Y2239D02*
X2655Y2192D01*
X2605D01*
X2622Y2239D02*
Y2169D01*
X2560Y2239D02*
X2593Y2192D01*
X2543D01*
X2560Y2239D02*
Y2169D01*
X2531Y2199D02*
X2471D01*
X2430Y2239D02*
X2440Y2236D01*
X2447Y2226D01*
X2450Y2209D01*
Y2199D01*
X2447Y2182D01*
X2440Y2172D01*
X2430Y2169D01*
X2423D01*
X2413Y2172D01*
X2407Y2182D01*
X2403Y2199D01*
Y2209D01*
X2407Y2226D01*
X2413Y2236D01*
X2423Y2239D01*
X2430D01*
X2368D02*
X2378Y2236D01*
X2384Y2226D01*
X2388Y2209D01*
Y2199D01*
X2384Y2182D01*
X2378Y2172D01*
X2368Y2169D01*
X2361D01*
X2351Y2172D01*
X2344Y2182D01*
X2341Y2199D01*
Y2209D01*
X2344Y2226D01*
X2351Y2236D01*
X2361Y2239D01*
X2368D01*
X2270D02*
Y2169D01*
Y2239D02*
X2240D01*
X2230Y2236D01*
X2227Y2232D01*
X2224Y2226D01*
Y2219D01*
X2227Y2212D01*
X2230Y2209D01*
X2240Y2206D01*
X2270D01*
X2247D02*
X2224Y2169D01*
X2208Y2196D02*
X2168D01*
Y2202D01*
X2171Y2209D01*
X2175Y2212D01*
X2181Y2216D01*
X2191D01*
X2198Y2212D01*
X2205Y2206D01*
X2208Y2196D01*
Y2189D01*
X2205Y2179D01*
X2198Y2172D01*
X2191Y2169D01*
X2181D01*
X2175Y2172D01*
X2168Y2179D01*
X2153Y2216D02*
X2133Y2169D01*
X2113Y2216D02*
X2133Y2169D01*
X1993D02*
X2020Y2239D01*
X2047Y2169D01*
X2037Y2192D02*
X2003D01*
X1977Y2239D02*
Y2169D01*
Y2239D02*
X1947D01*
X1937Y2236D01*
X1934Y2232D01*
X1930Y2226D01*
Y2219D01*
X1934Y2212D01*
X1937Y2209D01*
X1947Y2206D01*
X1977D02*
X1947D01*
X1937Y2202D01*
X1934Y2199D01*
X1930Y2192D01*
Y2182D01*
X1934Y2176D01*
X1937Y2172D01*
X1947Y2169D01*
X1977D01*
D48*
X150Y1848D02*
X151Y1847D01*
X150Y1848D02*
Y1925D01*
X515Y2290D01*
X1280D01*
X1310Y2260D01*
Y1815D02*
Y2260D01*
X151Y528D02*
X208Y585D01*
X314D01*
X320Y579D01*
X445D01*
X665Y225D02*
X745D01*
X747Y227D01*
Y239D01*
X625Y720D02*
X625Y720D01*
X625Y661D02*
Y720D01*
X7417Y1808D02*
X7417Y1808D01*
X7460D01*
X2575Y1421D02*
X2576Y1420D01*
X2633D01*
X2076Y1699D02*
X2123D01*
X2060Y1715D02*
X2076Y1699D01*
X2060Y1780D02*
X2060Y1780D01*
X2119D01*
X1015Y1065D02*
X1015Y1065D01*
Y1110D01*
X1015Y1300D02*
X1015Y1300D01*
Y1260D02*
Y1300D01*
X905Y1220D02*
X907Y1222D01*
Y1285D01*
X905Y1220D02*
X907Y1218D01*
X382Y901D02*
X382Y901D01*
X382Y826D02*
Y901D01*
X491Y890D02*
X517Y916D01*
X491Y826D02*
Y890D01*
X8600Y729D02*
X8602Y731D01*
X8600Y859D02*
X8602Y861D01*
X8600Y989D02*
X8602Y991D01*
X8072Y1784D02*
X8103Y1753D01*
X2369Y1480D02*
X2442Y1461D01*
X7971Y1784D02*
X8072D01*
X2367Y1700D02*
X2431D01*
X2432Y1701D01*
X151Y765D02*
X269D01*
X2369Y1413D02*
X2432Y1412D01*
X3257Y1016D02*
X3561D01*
X2907Y666D02*
X3257Y1016D01*
X2907Y541D02*
Y666D01*
Y541D02*
X2972Y476D01*
X151Y647D02*
X269D01*
X702Y686D02*
Y753D01*
X700Y755D02*
X702Y753D01*
X810Y690D02*
Y755D01*
X8526Y729D02*
X8600D01*
X8526Y859D02*
X8600D01*
X8526Y989D02*
X8600D01*
X8526Y1199D02*
X8600D01*
X8526Y1329D02*
X8605D01*
X8526Y1459D02*
X8605D01*
X1204Y1260D02*
Y1304D01*
X1205Y1305D01*
X1330Y1215D02*
X1390D01*
X2060Y1715D02*
X2064Y1719D01*
X3561Y1016D02*
Y1021D01*
X3590Y1050D01*
Y1124D01*
X3590Y1124D02*
X3590Y1124D01*
X3590Y1124D02*
X3660D01*
X3520Y1075D02*
Y1124D01*
X3520Y1075D02*
X3520Y1075D01*
X2977Y1469D02*
X3029D01*
X793Y1217D02*
Y1285D01*
D49*
X7607Y1709D02*
Y1790D01*
X7651Y1665D02*
X8024D01*
X7607Y1709D02*
X7651Y1665D01*
X6585Y1404D02*
X6600Y1389D01*
X6661D01*
X8084Y1895D02*
X8085Y1894D01*
X7971Y1895D02*
X8084D01*
X7235Y913D02*
X7235Y913D01*
X7235Y861D02*
Y913D01*
X7312Y734D02*
X7312Y734D01*
Y683D02*
Y734D01*
X6925Y910D02*
X6926Y911D01*
X6925Y836D02*
Y910D01*
X6552Y841D02*
X6556Y836D01*
X6605D01*
X8053Y1636D02*
X8089D01*
X8024Y1665D02*
X8053Y1636D01*
X4025Y1855D02*
X4025Y1855D01*
Y1802D02*
Y1855D01*
X4240Y1855D02*
X4240Y1855D01*
Y1802D02*
Y1855D01*
X4450Y1855D02*
X4450Y1855D01*
Y1802D02*
Y1855D01*
X5457Y960D02*
Y1385D01*
X5431Y934D02*
X5457Y960D01*
X5431Y763D02*
X5457Y737D01*
Y432D02*
Y737D01*
X5431Y763D02*
Y934D01*
X2800Y1420D02*
X2801Y1419D01*
X2747Y1420D02*
X2800D01*
X2800Y1419D02*
X2801D01*
X3800Y601D02*
X3921Y722D01*
X3800Y390D02*
Y601D01*
X5775Y1285D02*
X5800Y1260D01*
X5775Y1285D02*
Y1338D01*
X5875Y1410D02*
X5875Y1410D01*
Y1338D02*
Y1410D01*
X6951Y1902D02*
X7017D01*
X6902Y1951D02*
X6951Y1902D01*
X1330Y1154D02*
X1374D01*
X1390Y1155D01*
X1205Y1110D02*
X1325D01*
X1330Y1115D01*
Y1154D01*
X1330Y1154D02*
X1330Y1154D01*
X2367Y1591D02*
X2367D01*
X2258Y1591D02*
X2258D01*
X2258Y1591D02*
X2258Y1591D01*
X2258Y1591D02*
X2367Y1591D01*
X2367D01*
X2535Y1204D02*
Y1255D01*
Y1204D02*
X2539Y1200D01*
X2601D02*
Y1254D01*
X5780Y278D02*
Y351D01*
Y278D02*
X5804Y254D01*
X5880Y267D02*
Y351D01*
X5867Y254D02*
X5880Y267D01*
X5804Y254D02*
X5867D01*
X5780Y862D02*
X5805Y837D01*
X5780Y862D02*
Y915D01*
X5868Y851D02*
X5880Y863D01*
X5819Y851D02*
X5868D01*
X5805Y837D02*
X5819Y851D01*
X5880Y863D02*
Y915D01*
X5880Y915D02*
X5880Y915D01*
X5775Y1850D02*
Y1910D01*
Y1850D02*
X5800Y1825D01*
X5875Y1856D02*
Y1910D01*
X5858Y1839D02*
X5875Y1856D01*
X5814Y1839D02*
X5858D01*
X5800Y1825D02*
X5814Y1839D01*
X4758Y1541D02*
X4823D01*
X4955Y1409D01*
Y1268D02*
Y1409D01*
X2870Y1471D02*
X2914D01*
X3921Y722D02*
Y1562D01*
X7589Y225D02*
Y294D01*
X7587Y296D02*
X7589Y294D01*
X7555Y1324D02*
Y1404D01*
X7555Y1324D02*
X7555Y1324D01*
X2533Y905D02*
X2579D01*
X2533Y905D02*
X2533Y905D01*
X2446Y975D02*
X2495D01*
X2496Y976D01*
D50*
X695Y466D02*
X742D01*
X445Y421D02*
X445Y421D01*
X650D01*
X695Y466D01*
X4560Y437D02*
X4560Y437D01*
Y361D02*
Y437D01*
X811Y627D02*
Y686D01*
Y627D02*
X822Y616D01*
X825Y567D02*
Y613D01*
X787Y416D02*
Y465D01*
X825Y353D02*
Y465D01*
X822Y351D02*
X825Y353D01*
X767Y351D02*
X822D01*
X749Y368D02*
Y465D01*
X747Y366D02*
X749Y368D01*
X742Y466D02*
X749Y465D01*
D52*
X-200Y2224D02*
X-100Y2324D01*
X-200Y-21D02*
X-100Y-121D01*
X8180D02*
X8280Y-21D01*
X8180Y2324D02*
X8280Y2224D01*
X8280D01*
Y2074D02*
Y2224D01*
Y-21D02*
Y129D01*
X-100Y-121D02*
X8180D01*
X-100Y2324D02*
X8180D01*
X-200Y-21D02*
Y2224D01*
D53*
X8280Y2074D02*
X8792D01*
X8280Y129D02*
X8792D01*
Y2074D01*
D54*
X-19Y981D02*
D03*
X-19Y1341D02*
D03*
X-19Y495D02*
D03*
Y680D02*
D03*
D55*
X8100Y229D02*
D03*
X0Y2202D02*
D03*
Y0D02*
D03*
D56*
X570Y485D02*
D03*
X660D02*
D03*
X1995Y1920D02*
D03*
X3530Y960D02*
D03*
X3650Y1050D02*
D03*
X3790Y675D02*
D03*
X3100Y1275D02*
D03*
X3020D02*
D03*
X2925Y1200D02*
D03*
X2835Y840D02*
D03*
X2115Y1095D02*
D03*
Y1020D02*
D03*
X3055Y1640D02*
D03*
X3130D02*
D03*
X2910Y1730D02*
D03*
X2115Y945D02*
D03*
X3000Y1725D02*
D03*
X2115Y870D02*
D03*
X3860Y1565D02*
D03*
X4165Y245D02*
D03*
X4695Y760D02*
D03*
X5302Y662D02*
D03*
X7139Y1789D02*
D03*
X6838Y535D02*
D03*
X7728Y1217D02*
D03*
X7623Y1201D02*
D03*
X6910Y1039D02*
D03*
X7450Y1195D02*
D03*
X7490Y1055D02*
D03*
X7550Y1240D02*
D03*
X7540Y1030D02*
D03*
X7500Y1220D02*
D03*
X7385Y1190D02*
D03*
X7585Y710D02*
D03*
X7877Y1325D02*
D03*
X8085Y1894D02*
D03*
X7695Y914D02*
D03*
X7306Y916D02*
D03*
X7397Y678D02*
D03*
X7235Y913D02*
D03*
X7312Y734D02*
D03*
X6585Y1326D02*
D03*
X6495D02*
D03*
X7241Y1325D02*
D03*
X700Y415D02*
D03*
X625Y720D02*
D03*
X920Y520D02*
D03*
X4025Y1855D02*
D03*
X4240D02*
D03*
X4450D02*
D03*
X6040Y1865D02*
D03*
X5505Y1855D02*
D03*
X6100Y1825D02*
D03*
X6040Y1795D02*
D03*
X6050Y865D02*
D03*
Y805D02*
D03*
X5500Y910D02*
D03*
Y805D02*
D03*
X4635Y1700D02*
D03*
X800Y1045D02*
D03*
X905Y700D02*
D03*
X4385Y835D02*
D03*
X4105Y620D02*
D03*
X835Y1870D02*
D03*
X4170Y865D02*
D03*
X4745Y575D02*
D03*
X5680Y1020D02*
D03*
X5535Y235D02*
D03*
X1735Y1000D02*
D03*
X3610Y1970D02*
D03*
X4815Y1805D02*
D03*
X5105Y800D02*
D03*
X5350Y825D02*
D03*
X2825Y1833D02*
D03*
X2470Y2020D02*
D03*
X5630Y993D02*
D03*
X4843Y1448D02*
D03*
X4793Y1485D02*
D03*
X2836Y1310D02*
D03*
X3000Y1620D02*
D03*
X3921Y1562D02*
D03*
X4389Y245D02*
D03*
X2856Y441D02*
D03*
X4019Y492D02*
D03*
X2697Y250D02*
D03*
X5303Y238D02*
D03*
X5334Y1425D02*
D03*
X4796Y855D02*
D03*
X3244Y1550D02*
D03*
X4779Y739D02*
D03*
X5386Y426D02*
D03*
X5385Y544D02*
D03*
X3193Y1529D02*
D03*
X4556Y1551D02*
D03*
X4436Y1495D02*
D03*
X4639Y1799D02*
D03*
X5029Y1349D02*
D03*
X5036Y1570D02*
D03*
X5269Y1767D02*
D03*
X4955Y1268D02*
D03*
X4758Y1541D02*
D03*
X2870Y1471D02*
D03*
X3029Y1469D02*
D03*
X2027Y2018D02*
D03*
X1447Y1908D02*
D03*
X1402Y1870D02*
D03*
X3545Y2008D02*
D03*
X2555Y2020D02*
D03*
X5264Y307D02*
D03*
X5800Y1825D02*
D03*
X6010Y1590D02*
D03*
X6015Y595D02*
D03*
Y673D02*
D03*
X4982Y1029D02*
D03*
X5931Y995D02*
D03*
X5829Y994D02*
D03*
X5805Y837D02*
D03*
X5383Y714D02*
D03*
X5384Y993D02*
D03*
X5875Y441D02*
D03*
X5804Y254D02*
D03*
X4862Y1961D02*
D03*
X6129Y1459D02*
D03*
X6339Y636D02*
D03*
X6181Y750D02*
D03*
X6182Y519D02*
D03*
X2802Y1113D02*
D03*
X1930Y960D02*
D03*
X1730Y1378D02*
D03*
X2325Y2020D02*
D03*
X2687D02*
D03*
X3135Y1960D02*
D03*
X4516Y234D02*
D03*
X4425Y440D02*
D03*
X4635Y630D02*
D03*
X4535D02*
D03*
X3694Y689D02*
D03*
X3660Y1244D02*
D03*
X3520Y1075D02*
D03*
X4727Y1948D02*
D03*
X5457Y432D02*
D03*
X4925Y1665D02*
D03*
Y1605D02*
D03*
X4720Y1855D02*
D03*
X5122Y1571D02*
D03*
X4094Y458D02*
D03*
X2805Y300D02*
D03*
X2460Y510D02*
D03*
X2258Y1591D02*
D03*
X1975Y1750D02*
D03*
X1390Y1155D02*
D03*
Y1215D02*
D03*
X1205Y1305D02*
D03*
X1275Y1215D02*
D03*
Y1155D02*
D03*
X1310Y520D02*
D03*
X1385Y365D02*
D03*
Y790D02*
D03*
X1387Y991D02*
D03*
X1565Y1270D02*
D03*
X1465Y1295D02*
D03*
X1462Y1346D02*
D03*
X1310Y1815D02*
D03*
X1550Y1970D02*
D03*
X5925Y1975D02*
D03*
X5255Y1531D02*
D03*
X5955Y620D02*
D03*
X5855D02*
D03*
X5755D02*
D03*
X5655D02*
D03*
X5955Y805D02*
D03*
X5855Y805D02*
D03*
X5755Y805D02*
D03*
X5655D02*
D03*
X715Y620D02*
D03*
X810Y755D02*
D03*
X700D02*
D03*
X905Y1220D02*
D03*
X3330Y1960D02*
D03*
X3270Y1809D02*
D03*
X3076Y1806D02*
D03*
X7373Y1326D02*
D03*
X500Y1979D02*
D03*
X7300Y200D02*
D03*
X7490Y408D02*
D03*
X7197Y606D02*
D03*
X6079Y1313D02*
D03*
X7150Y1529D02*
D03*
X7555Y1324D02*
D03*
X7787Y1533D02*
D03*
X6951Y1660D02*
D03*
X6661Y1389D02*
D03*
X6087Y1221D02*
D03*
X6167Y1272D02*
D03*
X4077Y801D02*
D03*
X7016Y710D02*
D03*
X6572Y596D02*
D03*
X6648Y1646D02*
D03*
X4692Y1140D02*
D03*
X4772Y941D02*
D03*
X7059Y1478D02*
D03*
X7787Y679D02*
D03*
X4342Y1076D02*
D03*
X3860Y1123D02*
D03*
X3977Y1221D02*
D03*
X3195Y1808D02*
D03*
X2987Y1826D02*
D03*
X3857Y936D02*
D03*
X3307Y816D02*
D03*
X5555Y1817D02*
D03*
X6010Y1660D02*
D03*
X6087Y1021D02*
D03*
X6167Y1071D02*
D03*
X6087Y1121D02*
D03*
X6167Y1172D02*
D03*
X665Y285D02*
D03*
X835Y1345D02*
D03*
X442Y936D02*
D03*
X3660Y2015D02*
D03*
X3475Y2020D02*
D03*
X1938Y1488D02*
D03*
X1443Y726D02*
D03*
X1566Y990D02*
D03*
X1575Y575D02*
D03*
X1387Y265D02*
D03*
X1645Y1345D02*
D03*
X6600Y412D02*
D03*
X7112Y356D02*
D03*
X6795Y270D02*
D03*
X6912Y281D02*
D03*
X7205Y236D02*
D03*
X7490Y269D02*
D03*
X7887Y271D02*
D03*
X7410Y1965D02*
D03*
X7882Y1931D02*
D03*
X6902Y1951D02*
D03*
X6582Y1946D02*
D03*
X6405Y1485D02*
D03*
X6734Y1478D02*
D03*
X7697D02*
D03*
X7877Y760D02*
D03*
X7487Y759D02*
D03*
X6552Y841D02*
D03*
X7108Y759D02*
D03*
X6787D02*
D03*
X4627Y1011D02*
D03*
X4427D02*
D03*
X4327D02*
D03*
X4577Y1141D02*
D03*
X4222Y245D02*
D03*
X4087Y281D02*
D03*
X3757Y631D02*
D03*
X3797Y811D02*
D03*
Y891D02*
D03*
X3632D02*
D03*
Y811D02*
D03*
X3905Y410D02*
D03*
X3852Y251D02*
D03*
X3752D02*
D03*
X3652D02*
D03*
X3552D02*
D03*
X3457D02*
D03*
X3905Y535D02*
D03*
X3162Y256D02*
D03*
X3072D02*
D03*
X2972Y476D02*
D03*
X3157D02*
D03*
X2972Y256D02*
D03*
X2962Y616D02*
D03*
X3067Y476D02*
D03*
X2686Y1257D02*
D03*
X2442Y1461D02*
D03*
X2437Y1406D02*
D03*
X2633Y1650D02*
D03*
X2587Y1654D02*
D03*
X8602Y731D02*
D03*
Y861D02*
D03*
Y991D02*
D03*
X8600Y1199D02*
D03*
X8605Y1329D02*
D03*
Y1459D02*
D03*
X2060Y1780D02*
D03*
X1720Y1940D02*
D03*
X1960Y1590D02*
D03*
X2060Y1715D02*
D03*
Y1520D02*
D03*
Y1380D02*
D03*
Y1310D02*
D03*
X1970Y1380D02*
D03*
X3900Y1666D02*
D03*
X4500Y1665D02*
D03*
X4395D02*
D03*
X4290Y1670D02*
D03*
X4185D02*
D03*
X4080Y1665D02*
D03*
X3975D02*
D03*
X3495Y1570D02*
D03*
X3770Y1840D02*
D03*
X2060Y1594D02*
D03*
X6517Y1171D02*
D03*
X6377Y1221D02*
D03*
Y1121D02*
D03*
Y1021D02*
D03*
X6378Y922D02*
D03*
X6517Y1271D02*
D03*
X6926Y911D02*
D03*
X7682Y1902D02*
D03*
X3977Y1151D02*
D03*
X4352Y1181D02*
D03*
X6242Y881D02*
D03*
X4025Y1910D02*
D03*
X4135D02*
D03*
X4240D02*
D03*
X4345D02*
D03*
X4450D02*
D03*
X4555D02*
D03*
X2255Y1852D02*
D03*
X2436Y1571D02*
D03*
X2257Y1721D02*
D03*
Y1786D02*
D03*
X2432Y1701D02*
D03*
X2632Y1051D02*
D03*
X1462Y1511D02*
D03*
X1552Y1346D02*
D03*
X665Y225D02*
D03*
X625Y535D02*
D03*
X572Y916D02*
D03*
X4717Y836D02*
D03*
X4791Y996D02*
D03*
X2638Y1834D02*
D03*
X2606Y1893D02*
D03*
X2562Y1846D02*
D03*
X2755Y2005D02*
D03*
X2395Y2020D02*
D03*
X2825Y2005D02*
D03*
X2553Y1688D02*
D03*
X1965Y1815D02*
D03*
X3115Y1530D02*
D03*
X2822Y1256D02*
D03*
X1640Y1515D02*
D03*
X4030Y940D02*
D03*
X2060Y1260D02*
D03*
X2522Y1541D02*
D03*
X1890Y2010D02*
D03*
X3404Y1800D02*
D03*
X1767Y791D02*
D03*
X2474Y1631D02*
D03*
X2500Y1590D02*
D03*
X2060Y1450D02*
D03*
X637Y916D02*
D03*
X835Y1430D02*
D03*
X700Y1275D02*
D03*
X3460Y1205D02*
D03*
X3730Y1235D02*
D03*
X795Y1215D02*
D03*
X517Y916D02*
D03*
X382Y901D02*
D03*
X787Y416D02*
D03*
X2965Y1152D02*
D03*
X3360Y1215D02*
D03*
X3047Y1166D02*
D03*
X3361Y1151D02*
D03*
X3116Y965D02*
D03*
X3004Y1199D02*
D03*
X4536Y836D02*
D03*
X4607Y836D02*
D03*
X3900Y1841D02*
D03*
X825Y225D02*
D03*
X3200Y1028D02*
D03*
X7464Y1546D02*
D03*
X1517Y336D02*
D03*
X2600Y1254D02*
D03*
X2535Y1255D02*
D03*
X3800Y390D02*
D03*
X5625Y1985D02*
D03*
X5750Y1795D02*
D03*
X5850D02*
D03*
X5950D02*
D03*
X5750Y1605D02*
D03*
X5650D02*
D03*
X5850D02*
D03*
X5950D02*
D03*
X5650Y1795D02*
D03*
X6361Y1275D02*
D03*
X6485Y1804D02*
D03*
X6587Y1793D02*
D03*
X1015Y1300D02*
D03*
X840Y1580D02*
D03*
X740Y945D02*
D03*
X940Y1160D02*
D03*
X700D02*
D03*
X830Y890D02*
D03*
X1015Y1065D02*
D03*
X5060Y745D02*
D03*
X4885Y727D02*
D03*
X4934Y346D02*
D03*
X4993Y344D02*
D03*
X5106Y404D02*
D03*
X4819Y402D02*
D03*
X4770Y270D02*
D03*
X5152D02*
D03*
X5235Y667D02*
D03*
X5028Y1291D02*
D03*
X4918Y1007D02*
D03*
X5630Y235D02*
D03*
X5800Y1260D02*
D03*
X5875Y1410D02*
D03*
X5590Y1585D02*
D03*
X5400Y1625D02*
D03*
X5150Y1958D02*
D03*
X5206Y1910D02*
D03*
X5825Y1985D02*
D03*
X5088Y1960D02*
D03*
X5725Y1992D02*
D03*
X5680Y455D02*
D03*
X4611Y273D02*
D03*
X5597Y671D02*
D03*
X5708Y834D02*
D03*
X5584Y875D02*
D03*
X5025Y1062D02*
D03*
X5840D02*
D03*
X5343Y955D02*
D03*
X6220Y1979D02*
D03*
X2109Y1195D02*
D03*
X2275Y1231D02*
D03*
X2334D02*
D03*
X1973Y1210D02*
D03*
Y1279D02*
D03*
X2222Y1380D02*
D03*
X6084Y257D02*
D03*
X5105Y545D02*
D03*
X5227Y272D02*
D03*
X4281Y480D02*
D03*
X5537Y329D02*
D03*
X6271Y1759D02*
D03*
Y1361D02*
D03*
X5860Y1251D02*
D03*
X5449Y1385D02*
D03*
X4749Y412D02*
D03*
X4635Y438D02*
D03*
X4487Y688D02*
D03*
X4560Y437D02*
D03*
X5731Y275D02*
D03*
X5288Y1027D02*
D03*
X5497D02*
D03*
X5472Y324D02*
D03*
X5345Y1897D02*
D03*
X6270D02*
D03*
X6366Y1846D02*
D03*
X6166Y921D02*
D03*
X6194Y1846D02*
D03*
X1814Y1713D02*
D03*
X2185Y1852D02*
D03*
Y2020D02*
D03*
X2255Y2021D02*
D03*
X2777Y1633D02*
D03*
X2522Y1472D02*
D03*
X4969Y1976D02*
D03*
X4926Y1941D02*
D03*
X2595Y1505D02*
D03*
X5346Y1795D02*
D03*
X2185Y784D02*
D03*
X2575Y1421D02*
D03*
X2800Y1419D02*
D03*
X7417Y1808D02*
D03*
X7310Y1583D02*
D03*
X6146Y1676D02*
D03*
X6370D02*
D03*
X1894Y198D02*
D03*
X6215Y250D02*
D03*
X1942Y220D02*
D03*
X6164Y268D02*
D03*
X7237Y742D02*
D03*
X7396Y737D02*
D03*
X897Y451D02*
D03*
X4288Y758D02*
D03*
X5265Y1347D02*
D03*
X5384Y1341D02*
D03*
X4255Y1010D02*
D03*
X4168Y1022D02*
D03*
X5268Y586D02*
D03*
X5271Y828D02*
D03*
X4885Y588D02*
D03*
X4953Y585D02*
D03*
X4950Y672D02*
D03*
X4949Y831D02*
D03*
X5025Y1755D02*
D03*
X5185Y1598D02*
D03*
X5118Y1633D02*
D03*
X5055D02*
D03*
X5050Y514D02*
D03*
X4856Y498D02*
D03*
X6295Y1980D02*
D03*
X2737Y1256D02*
D03*
X2823Y370D02*
D03*
X2219Y1231D02*
D03*
X2604Y568D02*
D03*
X2748Y1327D02*
D03*
X2150Y406D02*
D03*
X1650Y635D02*
D03*
X1369Y493D02*
D03*
X1355Y571D02*
D03*
X2696Y568D02*
D03*
X2390Y531D02*
D03*
X7589Y225D02*
D03*
X6275Y250D02*
D03*
X6861Y405D02*
D03*
X6915Y1323D02*
D03*
X7506Y986D02*
D03*
X3412Y916D02*
D03*
X2749Y1695D02*
D03*
X2663Y1687D02*
D03*
X2700Y906D02*
D03*
X1959Y1126D02*
D03*
X2493Y1069D02*
D03*
X2284Y1387D02*
D03*
X2490Y1394D02*
D03*
X2535Y1376D02*
D03*
X2584Y1356D02*
D03*
D57*
X8560Y537D02*
D03*
Y1666D02*
D03*
X-19Y1763D02*
D03*
D58*
X8106Y452D02*
D03*
Y570D02*
D03*
Y688D02*
D03*
Y806D02*
D03*
Y924D02*
D03*
Y1042D02*
D03*
Y1160D02*
D03*
Y1278D02*
D03*
Y1396D02*
D03*
Y1515D02*
D03*
Y1633D02*
D03*
Y1751D02*
D03*
X8224Y452D02*
D03*
Y570D02*
D03*
Y688D02*
D03*
Y806D02*
D03*
Y924D02*
D03*
Y1042D02*
D03*
Y1160D02*
D03*
Y1278D02*
D03*
Y1396D02*
D03*
Y1515D02*
D03*
Y1633D02*
D03*
X151Y1375D02*
D03*
Y1493D02*
D03*
Y1611D02*
D03*
Y1729D02*
D03*
Y1847D02*
D03*
X269Y1257D02*
D03*
X269Y1373D02*
D03*
X269Y1847D02*
D03*
X269Y1729D02*
D03*
Y1611D02*
D03*
Y1493D02*
D03*
X151Y646D02*
D03*
Y765D02*
D03*
X151Y528D02*
D03*
X269Y528D02*
D03*
Y646D02*
D03*
Y765D02*
D03*
X269Y410D02*
D03*
X2100Y700D02*
D03*
X2200D02*
D03*
X2300D02*
D03*
X2400D02*
D03*
X2500D02*
D03*
X2600D02*
D03*
X2700D02*
D03*
D59*
X8224Y1751D02*
D03*
X151Y1257D02*
D03*
X151Y410D02*
D03*
D60*
X2000Y700D02*
D03*
D61*
X6165Y970D02*
D03*
D70*
X7585Y298D02*
D03*
Y410D02*
D03*
X7785Y298D02*
D03*
Y410D02*
D03*
X7396Y301D02*
D03*
Y413D02*
D03*
X7207Y301D02*
D03*
Y413D02*
D03*
X7015Y301D02*
D03*
Y413D02*
D03*
X6697Y1790D02*
D03*
Y1902D02*
D03*
X7017Y1790D02*
D03*
Y1902D02*
D03*
X7285Y1790D02*
D03*
Y1902D02*
D03*
X7787Y1790D02*
D03*
Y1902D02*
D03*
X7607Y1790D02*
D03*
Y1902D02*
D03*
X6697Y413D02*
D03*
Y301D02*
D03*
X7971Y1783D02*
D03*
Y1895D02*
D03*
D71*
X8527Y1459D02*
D03*
X8415D02*
D03*
X8527Y729D02*
D03*
X8415D02*
D03*
Y859D02*
D03*
X8527D02*
D03*
Y989D02*
D03*
X8415D02*
D03*
Y1199D02*
D03*
X8527D02*
D03*
Y1329D02*
D03*
X8415D02*
D03*
D72*
X4918Y788D02*
D03*
X4949D02*
D03*
X4981D02*
D03*
X5012D02*
D03*
Y722D02*
D03*
X4981D02*
D03*
X4949D02*
D03*
X4918D02*
D03*
X5239Y788D02*
D03*
X5271D02*
D03*
X5302D02*
D03*
Y722D02*
D03*
X5271D02*
D03*
X5239D02*
D03*
X5208Y788D02*
D03*
Y722D02*
D03*
X5073Y1692D02*
D03*
X5104D02*
D03*
X5136D02*
D03*
X5167D02*
D03*
Y1758D02*
D03*
X5136D02*
D03*
X5104D02*
D03*
X5073D02*
D03*
D73*
X5011Y960D02*
D03*
X4981D02*
D03*
X4950D02*
D03*
X4918D02*
D03*
Y880D02*
D03*
X4950D02*
D03*
X4981D02*
D03*
X5011D02*
D03*
X5301Y960D02*
D03*
X5271D02*
D03*
X5240D02*
D03*
Y880D02*
D03*
X5271D02*
D03*
X5301D02*
D03*
X4918Y435D02*
D03*
X4950D02*
D03*
X4981D02*
D03*
X5011D02*
D03*
Y515D02*
D03*
X4981D02*
D03*
X4950D02*
D03*
X4918D02*
D03*
X5208Y960D02*
D03*
Y880D02*
D03*
X5168Y1830D02*
D03*
X5137D02*
D03*
X5106D02*
D03*
X5075D02*
D03*
Y1910D02*
D03*
X5106D02*
D03*
X5137D02*
D03*
X5168D02*
D03*
D74*
X825Y567D02*
D03*
X787Y465D02*
D03*
X749Y567D02*
D03*
X825Y465D02*
D03*
X749D02*
D03*
D75*
X4360Y690D02*
D03*
X4310Y645D02*
D03*
X4235Y360D02*
D03*
X4330Y245D02*
D03*
X4270D02*
D03*
X4460Y255D02*
D03*
X4410Y645D02*
D03*
X4435Y725D02*
D03*
X5170Y815D02*
D03*
X5330Y600D02*
D03*
X5140Y960D02*
D03*
Y880D02*
D03*
X2805Y1700D02*
D03*
X2690Y1835D02*
D03*
X2745Y1765D02*
D03*
D76*
X2435Y1070D02*
D03*
X2365Y1355D02*
D03*
X2260Y1445D02*
D03*
X2525Y1425D02*
D03*
X2635Y1345D02*
D03*
M02*
