G04 CAM350 V9.5.2 (Build 226) Date:  Tue Mar 25 13:38:36 2008 *
G04 Database: C:\cvsroot\ElectronicHardwareDesign\Schematics\09-000162-01(12V_HVAC_CONT)\PCB\FAB_AA\09-000162-00_AA.cam *
G04 Layer 6: 09-000162-00MT_ *
%FSLAX35Y35*%
%MOIN*%
%SFA1.000B1.000*%

%MIA0B0*%
%IPPOS*%
%ADD11C,0.04000*%
%ADD14C,0.00500*%
%ADD15R,0.03937X0.03937*%
%ADD16R,0.03543X0.03543*%
%ADD17R,0.06299X0.06299*%
%ADD18R,0.09449X0.09449*%
%ADD19R,0.09843X0.09843*%
%ADD70R,0.04921X0.04921*%
%ADD71R,0.01969X0.01969*%
%ADD20R,0.30709X0.30709*%
%ADD73C,0.12500*%
%ADD69C,0.15000*%
%ADD83C,0.10000*%
%ADD88C,0.05000*%
%ADD90C,0.01200*%
%ADD146C,0.01600*%
%ADD161C,0.03900*%
%ADD162R,0.08300X0.08300*%
%ADD172C,0.00787*%
%ADD185C,0.00984*%
%ADD193R,0.07874X0.07874*%
%ADD194C,0.00394*%
%ADD196C,0.00984*%
%ADD203C,0.03150*%
%ADD205R,0.07874X0.07874*%
%ADD206R,0.05118X0.05118*%
%ADD208R,0.04724X0.04724*%
%ADD211C,0.01772*%
%ADD212C,0.03937*%
%ADD213C,0.02362*%
%ADD214C,0.01969*%
%ADD215C,0.02559*%
%ADD216R,0.03150X0.03150*%
%ADD217R,0.03900X0.03900*%
%ADD218R,0.37000X0.37000*%
%ADD220R,0.16732X0.16732*%
%ADD222R,0.04700X0.04700*%
%ADD223R,0.22000X0.22000*%
%ADD225R,0.25000X0.25000*%
%ADD229C,0.01969*%
%ADD230C,0.01575*%
%ADD234C,0.07874*%
%ADD235C,0.02756*%
%ADD236R,0.05906X0.05906*%
%LN09-000162-00MT_*%
%LPD*%
G54D11*
X1570000Y1000000D03*
Y1560000D03*
X1000000Y1000000D03*
X1070060Y1363500D03*
X1092060Y1115500D03*
G54D69*
X1166890D03*
X1031060D03*
X1099960Y1363460D03*
X1162950Y1505200D03*
X1027130Y1556380D03*
G54D73*
X1570000Y1000000D03*
Y1560000D03*
X1000000Y1000000D03*
G54D83*
X1552500Y1082500D03*
X1532500Y1012500D03*
X1512500Y1082500D03*
X1496700Y1529600D03*
Y1545300D03*
Y1561000D03*
X1481100Y1529600D03*
Y1545300D03*
Y1561000D03*
X1465500Y1529600D03*
Y1545300D03*
Y1561000D03*
X1449900Y1529600D03*
Y1545300D03*
Y1561000D03*
X1434300Y1529600D03*
Y1545300D03*
Y1561000D03*
X1371900Y1529600D03*
Y1545300D03*
Y1561000D03*
X1356300Y1529600D03*
Y1545300D03*
Y1561000D03*
X1340700Y1529600D03*
Y1545300D03*
Y1561000D03*
X1325100Y1529600D03*
Y1545300D03*
Y1561000D03*
X1309500Y1529600D03*
Y1545300D03*
Y1561000D03*
X1260500Y1529600D03*
Y1545300D03*
Y1561000D03*
X1244900Y1529600D03*
Y1545300D03*
Y1561000D03*
X1229300Y1529600D03*
Y1545300D03*
Y1561000D03*
X1213700Y1529600D03*
Y1545300D03*
Y1561000D03*
X1198100Y1529600D03*
Y1545300D03*
Y1561000D03*
X1135700Y1529600D03*
Y1545300D03*
Y1561000D03*
X1120100Y1529600D03*
Y1545300D03*
Y1561000D03*
X1104500Y1529600D03*
Y1545300D03*
Y1561000D03*
X1088900Y1529600D03*
Y1545300D03*
Y1561000D03*
X1073300Y1529600D03*
Y1545300D03*
Y1561000D03*
X1496700Y1529600D03*
Y1545300D03*
Y1561000D03*
X1481100Y1529600D03*
Y1545300D03*
Y1561000D03*
X1465500Y1529600D03*
Y1545300D03*
Y1561000D03*
X1449900Y1529600D03*
Y1545300D03*
Y1561000D03*
X1434300Y1529600D03*
Y1545300D03*
Y1561000D03*
X1371900Y1529600D03*
Y1545300D03*
Y1561000D03*
X1356300Y1529600D03*
Y1545300D03*
Y1561000D03*
X1340700Y1529600D03*
Y1545300D03*
Y1561000D03*
X1325100Y1529600D03*
Y1545300D03*
Y1561000D03*
X1309500Y1529600D03*
Y1545300D03*
Y1561000D03*
X1403100Y1542500D03*
X1260500Y1529600D03*
Y1545300D03*
Y1561000D03*
X1244900Y1529600D03*
Y1545300D03*
Y1561000D03*
X1229300Y1529600D03*
Y1545300D03*
Y1561000D03*
X1213700Y1529600D03*
Y1545300D03*
Y1561000D03*
X1198100Y1529600D03*
Y1545300D03*
Y1561000D03*
X1135700Y1529600D03*
Y1545300D03*
Y1561000D03*
X1120100Y1529600D03*
Y1545300D03*
Y1561000D03*
X1104500Y1529600D03*
Y1545300D03*
Y1561000D03*
X1088900Y1529600D03*
Y1545300D03*
Y1561000D03*
X1073300Y1529600D03*
Y1545300D03*
Y1561000D03*
X1166900Y1542500D03*
X1070060Y1363500D03*
X1092060Y1115500D03*
G54D88*
X1166890D03*
X1031060D03*
X1099960Y1363460D03*
X1162950Y1505200D03*
X1027130Y1556380D03*
G54D161*
X1403100Y1542500D03*
X1166900D03*
G54D15*
X1107500Y1143346D03*
Y1136654D03*
X1166154Y1476000D03*
X1172846D03*
X1166154Y1469000D03*
X1172846D03*
X1166154Y1462000D03*
X1172846D03*
X1060000Y1143346D03*
Y1136654D03*
X1012096Y1261250D03*
X1005404D03*
X1064346D03*
X1057654D03*
X1056210Y1549154D03*
Y1555846D03*
X1100846Y1261250D03*
X1094154D03*
X1102346Y1393500D03*
X1095654D03*
X1475000Y1369596D03*
Y1362904D03*
X1485000Y1369596D03*
Y1362904D03*
X1497500Y1409596D03*
Y1402904D03*
X1462500Y1409596D03*
Y1402904D03*
X1457500Y1369596D03*
Y1362904D03*
X1547904Y1363750D03*
X1554596D03*
X1543346Y1327500D03*
X1536654D03*
X1534596Y1370000D03*
X1527904D03*
X1542604D03*
X1549296D03*
X1556250Y1409596D03*
Y1402904D03*
X1521250Y1409596D03*
Y1402904D03*
X1515000Y1369596D03*
Y1362904D03*
X1483750Y1240846D03*
Y1234154D03*
X1465000Y1213346D03*
Y1206654D03*
X1516654Y1277500D03*
X1523346D03*
X1503750Y1290454D03*
Y1297146D03*
X1468750Y1290454D03*
Y1297146D03*
X1547954Y1270000D03*
X1554646D03*
X1346250Y1349596D03*
Y1342904D03*
Y1324596D03*
Y1317904D03*
X1422500Y1336654D03*
Y1343346D03*
X1406654Y1333750D03*
X1413346D03*
X1406654Y1346250D03*
X1413346D03*
X1565846Y1474000D03*
X1559154D03*
X1533346D03*
X1526654D03*
X1549596D03*
X1542904D03*
X1517096D03*
X1510404D03*
X1500846D03*
X1494154D03*
X1562500Y1500404D03*
Y1507096D03*
X1530000Y1500404D03*
Y1507096D03*
X1546250Y1500404D03*
Y1507096D03*
X1513750Y1500404D03*
Y1507096D03*
X1497500Y1500404D03*
Y1507096D03*
X1484596Y1474000D03*
X1477904D03*
X1452096D03*
X1445404D03*
X1468346D03*
X1461654D03*
X1481250Y1500404D03*
Y1507096D03*
X1448750Y1500404D03*
Y1507096D03*
X1465000Y1500404D03*
Y1507096D03*
X1343346Y1408750D03*
X1336654D03*
X1343346Y1378750D03*
X1336654D03*
X1343346Y1393750D03*
X1336654D03*
X1343346Y1423750D03*
X1336654D03*
X1374154Y1412500D03*
X1380846D03*
X1374154Y1382500D03*
X1380846D03*
X1374154Y1397500D03*
X1380846D03*
X1427500Y1375846D03*
Y1369154D03*
X1374154Y1427500D03*
X1380846D03*
X1360000Y1191654D03*
Y1198346D03*
X1342946Y1307500D03*
X1336254D03*
X1444500Y1296654D03*
Y1303346D03*
X1447904Y1242500D03*
X1454596D03*
X1079154Y1048750D03*
X1085846D03*
X1218750Y1114596D03*
Y1107904D03*
X1061250Y1067096D03*
Y1060404D03*
X1100000Y1050846D03*
Y1044154D03*
X1218750Y1128346D03*
Y1121654D03*
X1298750Y1503346D03*
Y1496654D03*
X1291250Y1503346D03*
Y1496654D03*
X1227500Y1459646D03*
Y1452954D03*
X1232500Y1489646D03*
Y1482954D03*
X1215000Y1459646D03*
Y1452954D03*
X1221250Y1459646D03*
Y1452954D03*
X1232500Y1170846D03*
Y1164154D03*
X1256250Y1380846D03*
Y1374154D03*
X1396250Y1162096D03*
Y1155404D03*
X1408750Y1148346D03*
Y1141654D03*
X1387500Y1162096D03*
Y1155404D03*
X1491250Y1123346D03*
Y1116654D03*
X1403750Y1079546D03*
Y1072854D03*
X1178750Y1067046D03*
Y1060354D03*
Y1035846D03*
Y1029154D03*
X1492854Y1085000D03*
X1499546D03*
X1202954Y1202500D03*
X1209646D03*
X1382854Y1142500D03*
X1389546D03*
X1210454Y1073750D03*
X1217146D03*
X1242500Y1319154D03*
Y1325846D03*
X1248750Y1452954D03*
Y1459646D03*
Y1472954D03*
Y1479646D03*
X1393750Y1496654D03*
Y1503346D03*
X1386250Y1496654D03*
Y1503346D03*
X1378750Y1496654D03*
Y1503346D03*
X1371250Y1496654D03*
Y1503346D03*
X1363750Y1496654D03*
Y1503346D03*
X1356250Y1496654D03*
Y1503346D03*
X1326250Y1496654D03*
Y1503346D03*
X1401250Y1496654D03*
Y1503346D03*
X1348750Y1496654D03*
Y1503346D03*
X1341250Y1496654D03*
Y1503346D03*
X1333750Y1496654D03*
Y1503346D03*
X1318750Y1496654D03*
Y1503346D03*
X1231250Y1356654D03*
Y1363346D03*
X1246250Y1356654D03*
Y1363346D03*
X1220000Y1356654D03*
Y1363346D03*
X1292500Y1192904D03*
Y1199596D03*
X1518750Y1116654D03*
Y1123346D03*
X1252146Y1491250D03*
X1245454D03*
X1252146Y1501250D03*
X1245454D03*
X1352146Y1172500D03*
X1345454D03*
X1402046Y1142500D03*
X1395354D03*
X1380846Y1162500D03*
X1374154D03*
X1338346Y1261250D03*
X1331654D03*
X1380846Y1177500D03*
X1374154D03*
X1107500Y1143346D03*
Y1136654D03*
X1166154Y1476000D03*
X1172846D03*
X1166154Y1469000D03*
X1172846D03*
X1166154Y1462000D03*
X1172846D03*
X1060000Y1143346D03*
Y1136654D03*
X1012096Y1261250D03*
X1005404D03*
X1064346D03*
X1057654D03*
X1056210Y1549154D03*
Y1555846D03*
X1100846Y1261250D03*
X1094154D03*
X1102346Y1393500D03*
X1095654D03*
X1475000Y1369596D03*
Y1362904D03*
X1485000Y1369596D03*
Y1362904D03*
X1497500Y1409596D03*
Y1402904D03*
X1462500Y1409596D03*
Y1402904D03*
X1457500Y1369596D03*
Y1362904D03*
X1547904Y1363750D03*
X1554596D03*
X1543346Y1327500D03*
X1536654D03*
X1534596Y1370000D03*
X1527904D03*
X1542604D03*
X1549296D03*
X1556250Y1409596D03*
Y1402904D03*
X1521250Y1409596D03*
Y1402904D03*
X1515000Y1369596D03*
Y1362904D03*
X1483750Y1240846D03*
Y1234154D03*
X1465000Y1213346D03*
Y1206654D03*
X1516654Y1277500D03*
X1523346D03*
X1503750Y1290454D03*
Y1297146D03*
X1468750Y1290454D03*
Y1297146D03*
X1547954Y1270000D03*
X1554646D03*
X1346250Y1349596D03*
Y1342904D03*
Y1324596D03*
Y1317904D03*
X1422500Y1336654D03*
Y1343346D03*
X1406654Y1333750D03*
X1413346D03*
X1406654Y1346250D03*
X1413346D03*
X1565846Y1474000D03*
X1559154D03*
X1533346D03*
X1526654D03*
X1549596D03*
X1542904D03*
X1517096D03*
X1510404D03*
X1500846D03*
X1494154D03*
X1562500Y1500404D03*
Y1507096D03*
X1530000Y1500404D03*
Y1507096D03*
X1546250Y1500404D03*
Y1507096D03*
X1513750Y1500404D03*
Y1507096D03*
X1497500Y1500404D03*
Y1507096D03*
X1484596Y1474000D03*
X1477904D03*
X1452096D03*
X1445404D03*
X1468346D03*
X1461654D03*
X1481250Y1500404D03*
Y1507096D03*
X1448750Y1500404D03*
Y1507096D03*
X1465000Y1500404D03*
Y1507096D03*
X1343346Y1408750D03*
X1336654D03*
X1343346Y1378750D03*
X1336654D03*
X1343346Y1393750D03*
X1336654D03*
X1343346Y1423750D03*
X1336654D03*
X1374154Y1412500D03*
X1380846D03*
X1374154Y1382500D03*
X1380846D03*
X1374154Y1397500D03*
X1380846D03*
X1427500Y1375846D03*
Y1369154D03*
X1374154Y1427500D03*
X1380846D03*
X1360000Y1191654D03*
Y1198346D03*
X1342946Y1307500D03*
X1336254D03*
X1444500Y1296654D03*
Y1303346D03*
X1447904Y1242500D03*
X1454596D03*
X1079154Y1048750D03*
X1085846D03*
X1218750Y1114596D03*
Y1107904D03*
X1061250Y1067096D03*
Y1060404D03*
X1100000Y1050846D03*
Y1044154D03*
X1218750Y1128346D03*
Y1121654D03*
X1298750Y1503346D03*
Y1496654D03*
X1291250Y1503346D03*
Y1496654D03*
X1227500Y1459646D03*
Y1452954D03*
X1232500Y1489646D03*
Y1482954D03*
X1215000Y1459646D03*
Y1452954D03*
X1221250Y1459646D03*
Y1452954D03*
X1232500Y1170846D03*
Y1164154D03*
X1256250Y1380846D03*
Y1374154D03*
X1396250Y1162096D03*
Y1155404D03*
X1408750Y1148346D03*
Y1141654D03*
X1387500Y1162096D03*
Y1155404D03*
X1491250Y1123346D03*
Y1116654D03*
X1403750Y1079546D03*
Y1072854D03*
X1178750Y1067046D03*
Y1060354D03*
Y1035846D03*
Y1029154D03*
X1492854Y1085000D03*
X1499546D03*
X1202954Y1202500D03*
X1209646D03*
X1382854Y1142500D03*
X1389546D03*
X1210454Y1073750D03*
X1217146D03*
X1242500Y1319154D03*
Y1325846D03*
X1248750Y1452954D03*
Y1459646D03*
Y1472954D03*
Y1479646D03*
X1393750Y1496654D03*
Y1503346D03*
X1386250Y1496654D03*
Y1503346D03*
X1378750Y1496654D03*
Y1503346D03*
X1371250Y1496654D03*
Y1503346D03*
X1363750Y1496654D03*
Y1503346D03*
X1356250Y1496654D03*
Y1503346D03*
X1326250Y1496654D03*
Y1503346D03*
X1401250Y1496654D03*
Y1503346D03*
X1348750Y1496654D03*
Y1503346D03*
X1341250Y1496654D03*
Y1503346D03*
X1333750Y1496654D03*
Y1503346D03*
X1318750Y1496654D03*
Y1503346D03*
X1231250Y1356654D03*
Y1363346D03*
X1246250Y1356654D03*
Y1363346D03*
X1220000Y1356654D03*
Y1363346D03*
X1292500Y1192904D03*
Y1199596D03*
X1518750Y1116654D03*
Y1123346D03*
X1252146Y1491250D03*
X1245454D03*
X1252146Y1501250D03*
X1245454D03*
X1352146Y1172500D03*
X1345454D03*
X1402046Y1142500D03*
X1395354D03*
X1380846Y1162500D03*
X1374154D03*
X1338346Y1261250D03*
X1331654D03*
X1380846Y1177500D03*
X1374154D03*
G54D203*
X1385000Y1196250D03*
X1425000Y1173750D03*
X1430000D03*
X1435000D03*
X1440000D03*
X1037500Y1027500D03*
X1315000Y1162500D03*
X1323750D03*
X1305000D03*
X1333750D03*
X1385000Y1196250D03*
X1425000Y1173750D03*
X1430000D03*
X1435000D03*
X1440000D03*
X1037500Y1027500D03*
X1315000Y1162500D03*
X1323750D03*
X1305000D03*
X1333750D03*
G54D212*
X1435679Y1300679D03*
X1351821Y1216821D03*
X991000Y1568000D03*
X1550000Y1000000D03*
G54D216*
X1416250Y1103150D03*
Y1096850D03*
X1167500Y1145600D03*
Y1151900D03*
X1428750Y1103150D03*
Y1096850D03*
X1416250Y1103150D03*
Y1096850D03*
X1167500Y1145600D03*
Y1151900D03*
X1428750Y1103150D03*
Y1096850D03*
G54D234*
X1435679Y1300679D03*
X1351821Y1216821D03*
X991000Y1568000D03*
X1550000Y1000000D03*
G54D14*
X1000000Y980000D02*
G01X980000Y1000000D01*
Y1580000*
X1590000*
Y1000000*
X1570000Y980000*
X1000000*
X980000Y1580000D02*
G01Y1000000D01*
X1000000Y980000*
X1570000*
X1590000Y1000000*
Y1580000*
X980000*
G54D90*
X1316882Y871844D02*
G01X1315859Y871375D01*
X1315177Y869969*
X1314836Y867625*
Y866219*
X1315177Y863875*
X1315859Y862469*
X1316882Y862000*
X1317564*
X1318586Y862469*
X1319268Y863875*
X1319609Y866219*
Y867625*
X1319268Y869969*
X1318586Y871375*
X1317564Y871844*
X1316882*
X1327109Y868563D02*
G01X1326768Y867156D01*
X1326086Y866219*
X1325064Y865750*
X1324723*
X1323700Y866219*
X1323018Y867156*
X1322677Y868563*
Y868563D02*
G01Y869031D01*
X1323018Y870438*
Y870438D02*
G01X1323700Y871375D01*
X1324723Y871844*
X1325064*
X1326086Y871375*
X1326768Y870438*
Y870438D02*
G01X1327109Y868563D01*
Y868563D02*
G01Y866219D01*
X1326768Y863875*
X1326086Y862469*
X1325064Y862000*
X1324382*
X1323359Y862469*
X1323018Y863406*
X1330177Y866219D02*
G01X1336314D01*
X1341427Y871844D02*
G01X1340405Y871375D01*
X1339723Y869969*
X1339382Y867625*
Y866219*
X1339723Y863875*
X1340405Y862469*
X1341427Y862000*
X1342109*
X1343132Y862469*
X1343814Y863875*
X1344155Y866219*
Y867625*
X1343814Y869969*
X1343132Y871375*
X1342109Y871844*
X1341427*
X1349268D02*
G01X1348245Y871375D01*
X1347564Y869969*
X1347223Y867625*
Y866219*
X1347564Y863875*
X1348245Y862469*
X1349268Y862000*
X1349950*
X1350973Y862469*
X1351655Y863875*
X1351995Y866219*
Y867625*
X1351655Y869969*
X1350973Y871375*
X1349950Y871844*
X1349268*
X1357109D02*
G01X1356086Y871375D01*
X1355405Y869969*
X1355064Y867625*
Y866219*
X1355405Y863875*
X1356086Y862469*
X1357109Y862000*
X1357791*
X1358814Y862469*
X1359495Y863875*
X1359836Y866219*
Y867625*
X1359495Y869969*
X1358814Y871375*
X1357791Y871844*
X1357109*
X1362905Y869969D02*
G01X1363586Y870438D01*
Y870438D02*
G01X1364609Y871844D01*
Y862000*
X1371768Y870438D02*
G01X1371427Y871375D01*
X1370405Y871844*
X1369723*
X1368700Y871375*
X1368018Y869969*
X1367677Y867625*
Y865281*
X1368018Y863406*
X1368700Y862469*
X1369723Y862000*
X1370064*
X1371086Y862469*
X1371768Y863406*
X1372109Y864813*
Y864813D02*
G01Y865281D01*
X1371768Y866688*
Y866688D02*
G01X1371086Y867625D01*
X1370064Y868094*
X1369723*
X1368700Y867625*
X1368018Y866688*
Y866688D02*
G01X1367677Y865281D01*
X1375518Y869500D02*
G01Y869969D01*
X1375859Y870906*
X1376200Y871375*
X1376882Y871844*
X1378245*
X1378927Y871375*
X1379268Y870906*
X1379609Y869969*
Y869031*
X1379268Y868094*
X1378586Y866688*
Y866688D02*
G01X1375177Y862000D01*
X1379950*
X1383018Y866219D02*
G01X1389155D01*
X1394268Y871844D02*
G01X1393245Y871375D01*
X1392564Y869969*
X1392223Y867625*
Y866219*
X1392564Y863875*
X1393245Y862469*
X1394268Y862000*
X1394950*
X1395973Y862469*
X1396655Y863875*
X1396995Y866219*
Y867625*
X1396655Y869969*
X1395973Y871375*
X1394950Y871844*
X1394268*
X1402109D02*
G01X1401086Y871375D01*
X1400405Y869969*
X1400064Y867625*
Y866219*
X1400405Y863875*
X1401086Y862469*
X1402109Y862000*
X1402791*
X1403814Y862469*
X1404495Y863875*
X1404836Y866219*
Y867625*
X1404495Y869969*
X1403814Y871375*
X1402791Y871844*
X1402109*
G54D146*
X1475866Y1185177D02*
G01Y1189477D01*
X1478425Y1185177D02*
G01Y1189477D01*
X1480984Y1185177D02*
G01Y1189477D01*
X1483543Y1185177D02*
G01Y1189477D01*
X1486102Y1185177D02*
G01Y1189477D01*
X1488661Y1185177D02*
G01Y1189477D01*
X1491220Y1185177D02*
G01Y1189477D01*
X1493780Y1185177D02*
G01Y1189477D01*
X1496339Y1185177D02*
G01Y1189477D01*
X1498898Y1185177D02*
G01Y1189477D01*
X1501457Y1185177D02*
G01Y1189477D01*
X1504016Y1185177D02*
G01Y1189477D01*
X1506575Y1185177D02*
G01Y1189477D01*
X1509134Y1185177D02*
G01Y1189477D01*
Y1213523D02*
G01Y1217823D01*
X1506575Y1213523D02*
G01Y1217823D01*
X1504016Y1213523D02*
G01Y1217823D01*
X1501457Y1213523D02*
G01Y1217823D01*
X1498898Y1213523D02*
G01Y1217823D01*
X1496339Y1213523D02*
G01Y1217823D01*
X1493780Y1213523D02*
G01Y1217823D01*
X1491220Y1213523D02*
G01Y1217823D01*
X1488661Y1213523D02*
G01Y1217823D01*
X1486102Y1213523D02*
G01Y1217823D01*
X1483543Y1213523D02*
G01Y1217823D01*
X1480984Y1213523D02*
G01Y1217823D01*
X1478425Y1213523D02*
G01Y1217823D01*
X1475866Y1213523D02*
G01Y1217823D01*
Y1185177D02*
G01Y1189477D01*
X1478425Y1185177D02*
G01Y1189477D01*
X1480984Y1185177D02*
G01Y1189477D01*
X1483543Y1185177D02*
G01Y1189477D01*
X1486102Y1185177D02*
G01Y1189477D01*
X1488661Y1185177D02*
G01Y1189477D01*
X1491220Y1185177D02*
G01Y1189477D01*
X1493780Y1185177D02*
G01Y1189477D01*
X1496339Y1185177D02*
G01Y1189477D01*
X1498898Y1185177D02*
G01Y1189477D01*
X1501457Y1185177D02*
G01Y1189477D01*
X1504016Y1185177D02*
G01Y1189477D01*
X1506575Y1185177D02*
G01Y1189477D01*
X1509134Y1185177D02*
G01Y1189477D01*
Y1213523D02*
G01Y1217823D01*
X1506575Y1213523D02*
G01Y1217823D01*
X1504016Y1213523D02*
G01Y1217823D01*
X1501457Y1213523D02*
G01Y1217823D01*
X1498898Y1213523D02*
G01Y1217823D01*
X1496339Y1213523D02*
G01Y1217823D01*
X1493780Y1213523D02*
G01Y1217823D01*
X1491220Y1213523D02*
G01Y1217823D01*
X1488661Y1213523D02*
G01Y1217823D01*
X1486102Y1213523D02*
G01Y1217823D01*
X1483543Y1213523D02*
G01Y1217823D01*
X1480984Y1213523D02*
G01Y1217823D01*
X1478425Y1213523D02*
G01Y1217823D01*
X1475866Y1213523D02*
G01Y1217823D01*
G54D162*
X1330150Y1089636D02*
G01X1334850D01*
X1330150Y1062864D02*
G01X1334850D01*
X1330150Y1089636D02*
G01X1334850D01*
X1330150Y1062864D02*
G01X1334850D01*
G54D172*
X1317930Y878622D02*
G01X1317751Y879114D01*
X1317393Y879606*
X1317036Y879852*
X1316320*
X1315962Y879606*
X1315604Y879114*
X1315425Y878622*
X1315246Y877884*
Y876654*
Y876654D02*
G01X1315425Y875915D01*
X1315604Y875423*
X1315962Y874931*
X1316320Y874685*
X1317036*
X1317393Y874931*
X1317751Y875423*
X1317930Y875915*
Y876654*
X1317036D02*
G01X1317930D01*
X1319541Y879852D02*
G01Y874685D01*
Y879852D02*
G01X1321867D01*
X1319541Y877392D02*
G01X1320973D01*
X1319541Y874685D02*
G01X1321867D01*
X1323478Y879852D02*
G01Y874685D01*
Y879852D02*
G01X1325089D01*
Y879852D02*
G01X1325625Y879606D01*
X1325804Y879360*
X1325983Y878868*
Y878376*
X1325804Y877884*
X1325625Y877638*
X1325089Y877392*
Y877392D02*
G01X1323478D01*
X1324731D02*
G01X1325983Y874685D01*
X1327594Y879852D02*
G01Y874685D01*
Y879852D02*
G01X1329204D01*
X1329741Y879606*
X1329920Y879360*
X1330099Y878868*
Y878376*
X1329920Y877884*
X1329741Y877638*
X1329204Y877392*
X1327594D02*
G01X1329204D01*
X1329741Y877146*
X1329920Y876900*
X1330099Y876407*
Y875669*
X1329920Y875177*
X1329741Y874931*
X1329204Y874685*
X1327594*
X1331710Y879852D02*
G01Y874685D01*
Y879852D02*
G01X1334036D01*
X1331710Y877392D02*
G01X1333141D01*
X1331710Y874685D02*
G01X1334036D01*
X1335647Y879852D02*
G01Y874685D01*
Y879852D02*
G01X1337257D01*
X1337794Y879606*
X1337973Y879360*
X1338152Y878868*
Y878376*
X1337973Y877884*
X1337794Y877638*
X1337257Y877392*
X1335647*
X1336900D02*
G01X1338152Y874685D01*
X1339942Y878130D02*
G01X1339763Y877884D01*
X1339942Y877638*
X1340121Y877884*
X1339942Y878130*
Y875177D02*
G01X1339763Y874931D01*
X1339942Y874685*
X1340121Y874931*
X1339942Y875177*
X1315246Y907411D02*
G01Y902244D01*
Y907411D02*
G01X1316499D01*
X1317036Y907165*
X1317393Y906673*
X1317572Y906181*
X1317751Y905443*
Y904213*
Y904213D02*
G01X1317572Y903474D01*
X1317393Y902982*
X1317036Y902490*
X1316499Y902244*
X1315246*
X1320794Y907411D02*
G01X1319362Y902244D01*
X1320794Y907411D02*
G01X1322225Y902244D01*
X1319899Y903966D02*
G01X1321688D01*
X1325089Y907411D02*
G01Y902244D01*
X1323836Y907411D02*
G01X1326341D01*
X1327952D02*
G01Y902244D01*
Y907411D02*
G01X1330278D01*
X1327952Y904951D02*
G01X1329383D01*
X1327952Y902244D02*
G01X1330278D01*
X1332068Y905689D02*
G01X1331889Y905443D01*
X1332068Y905197*
X1332247Y905443*
X1332068Y905689*
Y902736D02*
G01X1331889Y902490D01*
X1332068Y902244*
X1332247Y902490*
X1332068Y902736*
X1268002Y907411D02*
G01Y902244D01*
Y907411D02*
G01X1269613D01*
X1270149Y907165*
X1270328Y906919*
X1270507Y906427*
Y905935*
X1270328Y905443*
X1270149Y905197*
X1269613Y904951*
X1268002*
X1269255D02*
G01X1270507Y902244D01*
X1272118Y907411D02*
G01Y902244D01*
Y907411D02*
G01X1274444D01*
X1272118Y904951D02*
G01X1273550D01*
X1272118Y902244D02*
G01X1274444D01*
X1276055Y907411D02*
G01X1277487Y902244D01*
X1278918Y907411D02*
G01X1277487Y902244D01*
X1280708Y905689D02*
G01X1280529Y905443D01*
X1280708Y905197*
X1280887Y905443*
X1280708Y905689*
Y902736D02*
G01X1280529Y902490D01*
X1280708Y902244*
X1280887Y902490*
X1280708Y902736*
X1094774Y907411D02*
G01Y902244D01*
Y907411D02*
G01X1096385D01*
X1096921Y907165*
X1097100Y906919*
X1097279Y906427*
Y905689*
X1097100Y905197*
X1096921Y904951*
X1096385Y904705*
X1094774*
X1100322Y907411D02*
G01X1098890Y902244D01*
X1100322Y907411D02*
G01X1101753Y902244D01*
X1099427Y903966D02*
G01X1101216D01*
X1103364Y907411D02*
G01Y902244D01*
Y907411D02*
G01X1104974D01*
X1105511Y907165*
X1105690Y906919*
X1105869Y906427*
Y905935*
X1105690Y905443*
X1105511Y905197*
X1104974Y904951*
X1103364*
X1104617D02*
G01X1105869Y902244D01*
X1108732Y907411D02*
G01Y902244D01*
X1107480Y907411D02*
G01X1109985D01*
X1115712D02*
G01Y902244D01*
Y907411D02*
G01X1118217Y902244D01*
Y907411D02*
G01Y902244D01*
X1120901Y907411D02*
G01X1120543Y907165D01*
X1120186Y906673*
X1120007Y906181*
X1119828Y905443*
Y904213*
Y904213D02*
G01X1120007Y903474D01*
X1120186Y902982*
X1120543Y902490*
X1120901Y902244*
X1121617*
X1121975Y902490*
X1122333Y902982*
X1122512Y903474*
X1122691Y904213*
Y904213D02*
G01Y905443D01*
X1122512Y906181*
X1122333Y906673*
X1121975Y907165*
X1121617Y907411*
X1120901*
X1124480Y902736D02*
G01X1124302Y902490D01*
Y902490D02*
G01X1124480Y902244D01*
X1124659Y902490*
X1124480Y902736*
X1126449Y905689D02*
G01X1126270Y905443D01*
X1126449Y905197*
X1126628Y905443*
X1126449Y905689*
Y902736D02*
G01X1126270Y902490D01*
X1126449Y902244*
X1126628Y902490*
X1126449Y902736*
X933937Y930000D02*
G75*
G03X933937Y930000I-3937D01*
X937874D02*
G03X937874Y930000I-7874D01*
X933937Y1630000D02*
G03X933937Y1630000I-3937D01*
X937874D02*
G03X937874Y1630000I-7874D01*
X1643937D02*
G03X1643937Y1630000I-3937D01*
X1647874D02*
G03X1647874Y1630000I-7874D01*
G54D185*
X1391063Y1329370D02*
G01Y1333701D01*
X1393031Y1329370D02*
G01Y1333701D01*
X1395000Y1329370D02*
G01Y1333701D01*
X1396969Y1329370D02*
G01Y1333701D01*
X1398937Y1329370D02*
G01Y1333701D01*
Y1346299D02*
G01Y1350630D01*
X1396969Y1346299D02*
G01Y1350630D01*
X1395000Y1346299D02*
G01Y1350630D01*
X1393031Y1346299D02*
G01Y1350630D01*
X1391063Y1346299D02*
G01Y1350630D01*
Y1329370D02*
G01Y1333701D01*
X1393031Y1329370D02*
G01Y1333701D01*
X1395000Y1329370D02*
G01Y1333701D01*
X1396969Y1329370D02*
G01Y1333701D01*
X1398937Y1329370D02*
G01Y1333701D01*
Y1346299D02*
G01Y1350630D01*
X1396969Y1346299D02*
G01Y1350630D01*
X1395000Y1346299D02*
G01Y1350630D01*
X1393031Y1346299D02*
G01Y1350630D01*
X1391063Y1346299D02*
G01Y1350630D01*
G54D193*
X1168750Y1216801D02*
G01Y1218769D01*
Y1233731D02*
G01Y1235699D01*
Y1250551D02*
G01Y1252519D01*
Y1267481D02*
G01Y1269449D01*
Y1284301D02*
G01Y1286269D01*
Y1301231D02*
G01Y1303199D01*
X1018199Y1273750D02*
G01X1016231D01*
X1001269D02*
G01X999301D01*
X1070449D02*
G01X1068481D01*
X1053519D02*
G01X1051551D01*
X1119301D02*
G01X1121269D01*
X1136231D02*
G01X1138199D01*
X1082051D02*
G01X1084019D01*
X1098981D02*
G01X1100949D01*
X1146801Y1075000D02*
G01X1148769D01*
X1163731D02*
G01X1165699D01*
X1093199D02*
G01X1091231D01*
X1076269D02*
G01X1074301D01*
X1168750Y1216801D02*
G01Y1218769D01*
Y1233731D02*
G01Y1235699D01*
Y1250551D02*
G01Y1252519D01*
Y1267481D02*
G01Y1269449D01*
Y1284301D02*
G01Y1286269D01*
Y1301231D02*
G01Y1303199D01*
X1018199Y1273750D02*
G01X1016231D01*
X1001269D02*
G01X999301D01*
X1070449D02*
G01X1068481D01*
X1053519D02*
G01X1051551D01*
X1119301D02*
G01X1121269D01*
X1136231D02*
G01X1138199D01*
X1082051D02*
G01X1084019D01*
X1098981D02*
G01X1100949D01*
X1146801Y1075000D02*
G01X1148769D01*
X1163731D02*
G01X1165699D01*
X1093199D02*
G01X1091231D01*
X1076269D02*
G01X1074301D01*
G54D194*
X1058900Y805000D02*
G01X1059097D01*
X1268900D02*
G01X1269097D01*
X918189Y930000D02*
G01X941811D01*
X930000Y918189D02*
G01Y941811D01*
X918189Y1630000D02*
G01X941811D01*
X930000Y1618189D02*
G01Y1641811D01*
X1628189Y1630000D02*
G01X1651811D01*
X1640000Y1618189D02*
G01Y1641811D01*
G54D196*
X1090837Y890433D02*
G03X1094774Y886496I3937D01*
Y886496D02*
G01X1256191D01*
Y886496D02*
G03X1260128Y890433J3937D01*
Y890433D02*
G01Y906181D01*
Y906181D02*
G03X1256191Y910118I-3937D01*
Y910118D02*
G01X1094774D01*
Y910118D02*
G03X1090837Y906181J-3937D01*
Y906181D02*
G01Y890433D01*
X1264065D02*
G03X1268002Y886496I3937D01*
Y886496D02*
G01X1303435D01*
Y886496D02*
G03X1307372Y890433J3937D01*
Y890433D02*
G01Y906181D01*
Y906181D02*
G03X1303435Y910118I-3937D01*
Y910118D02*
G01X1268002D01*
Y910118D02*
G03X1264065Y906181J-3937D01*
Y906181D02*
G01Y890433D01*
X1090837Y862874D02*
G03X1094774Y858937I3937D01*
Y858937D02*
G01X1303435D01*
Y858937D02*
G03X1307372Y862874J3937D01*
Y862874D02*
G01Y878622D01*
Y878622D02*
G03X1303435Y882559I-3937D01*
Y882559D02*
G01X1094774D01*
Y882559D02*
G03X1090837Y878622J-3937D01*
Y878622D02*
G01Y862874D01*
X1311309D02*
G03X1315246Y858937I3937D01*
Y858937D02*
G01X1456979D01*
Y858937D02*
G03X1460916Y862874J3937D01*
Y862874D02*
G01Y878622D01*
Y878622D02*
G03X1456979Y882559I-3937D01*
Y882559D02*
G01X1315246D01*
Y882559D02*
G03X1311309Y878622J-3937D01*
Y878622D02*
G01Y862874D01*
Y890433D02*
G03X1315246Y886496I3937D01*
Y886496D02*
G01X1456979D01*
Y886496D02*
G03X1460916Y890433J3937D01*
Y890433D02*
G01Y906181D01*
Y906181D02*
G03X1456979Y910118I-3937D01*
Y910118D02*
G01X1315246D01*
Y910118D02*
G03X1311309Y906181J-3937D01*
Y906181D02*
G01Y890433D01*
X1090837Y917992D02*
G03X1094774Y914055I3937D01*
Y914055D02*
G01X1456979D01*
Y914055D02*
G03X1460916Y917992J3937D01*
Y917992D02*
G01Y933740D01*
Y933740D02*
G03X1456979Y937677I-3937D01*
Y937677D02*
G01X1094774D01*
Y937677D02*
G03X1090837Y933740J-3937D01*
Y933740D02*
G01Y917992D01*
G54D205*
X1370915Y1127500D02*
G01X1382333D01*
X1405167D02*
G01X1416585D01*
X1370915D02*
G01X1382333D01*
X1405167D02*
G01X1416585D01*
G54D206*
X1465404Y1174606D02*
G01Y1175394D01*
X1472096Y1174606D02*
G01Y1175394D01*
X1472046Y1225394D02*
G01Y1224606D01*
X1465354Y1225394D02*
G01Y1224606D01*
X1165394Y1375404D02*
G01X1164606D01*
X1165394Y1382096D02*
G01X1164606D01*
X1156644Y1400404D02*
G01X1155856D01*
X1156644Y1407096D02*
G01X1155856D01*
X1156644Y1434154D02*
G01X1155856D01*
X1156644Y1440846D02*
G01X1155856D01*
X1068356Y1143346D02*
G01X1069144D01*
X1068356Y1136654D02*
G01X1069144D01*
X1007106Y1217096D02*
G01X1007894D01*
X1007106Y1210404D02*
G01X1007894D01*
X1119154Y1260856D02*
G01Y1261644D01*
X1125846Y1260856D02*
G01Y1261644D01*
X1465394Y1187904D02*
G01X1464606D01*
X1465394Y1194596D02*
G01X1464606D01*
X1453484Y1294291D02*
G01X1451516D01*
X1453484Y1305709D02*
G01X1451516D01*
X1380709Y1170984D02*
G01Y1169016D01*
X1369291Y1170984D02*
G01Y1169016D01*
X1318091Y1037766D02*
G01Y1039734D01*
X1329509Y1037766D02*
G01Y1039734D01*
X1164734Y1321791D02*
G01X1162766D01*
X1164734Y1333209D02*
G01X1162766D01*
X1147234Y1356791D02*
G01X1145266D01*
X1147234Y1368209D02*
G01X1145266D01*
X1129734Y1391791D02*
G01X1127766D01*
X1129734Y1403209D02*
G01X1127766D01*
X1260591Y1470266D02*
G01Y1472234D01*
X1272009Y1470266D02*
G01Y1472234D01*
X1260591Y1450266D02*
G01Y1452234D01*
X1272009Y1450266D02*
G01Y1452234D01*
Y1502234D02*
G01Y1500266D01*
X1260591Y1502234D02*
G01Y1500266D01*
X1272009Y1492234D02*
G01Y1490266D01*
X1260591Y1492234D02*
G01Y1490266D01*
X1272009Y1482234D02*
G01Y1480266D01*
X1260591Y1482234D02*
G01Y1480266D01*
X1271909Y1462234D02*
G01Y1460266D01*
X1260491Y1462234D02*
G01Y1460266D01*
X1209291Y1480266D02*
G01Y1482234D01*
X1220709Y1480266D02*
G01Y1482234D01*
Y1492234D02*
G01Y1490266D01*
X1209291Y1492234D02*
G01Y1490266D01*
X1065266Y1104509D02*
G01X1067234D01*
X1065266Y1093091D02*
G01X1067234D01*
X1150541Y1042766D02*
G01Y1044734D01*
X1161959Y1042766D02*
G01Y1044734D01*
X1418041Y1314744D02*
G01Y1320256D01*
X1429459Y1314744D02*
G01Y1320256D01*
X1200531Y1242766D02*
G01Y1244734D01*
X1211949Y1242766D02*
G01Y1244734D01*
X1465404Y1174606D02*
G01Y1175394D01*
X1472096Y1174606D02*
G01Y1175394D01*
X1472046Y1225394D02*
G01Y1224606D01*
X1465354Y1225394D02*
G01Y1224606D01*
X1165394Y1375404D02*
G01X1164606D01*
X1165394Y1382096D02*
G01X1164606D01*
X1156644Y1400404D02*
G01X1155856D01*
X1156644Y1407096D02*
G01X1155856D01*
X1156644Y1434154D02*
G01X1155856D01*
X1156644Y1440846D02*
G01X1155856D01*
X1068356Y1143346D02*
G01X1069144D01*
X1068356Y1136654D02*
G01X1069144D01*
X1007106Y1217096D02*
G01X1007894D01*
X1007106Y1210404D02*
G01X1007894D01*
X1119154Y1260856D02*
G01Y1261644D01*
X1125846Y1260856D02*
G01Y1261644D01*
X1465394Y1187904D02*
G01X1464606D01*
X1465394Y1194596D02*
G01X1464606D01*
X1453484Y1294291D02*
G01X1451516D01*
X1453484Y1305709D02*
G01X1451516D01*
X1380709Y1170984D02*
G01Y1169016D01*
X1369291Y1170984D02*
G01Y1169016D01*
X1318091Y1037766D02*
G01Y1039734D01*
X1329509Y1037766D02*
G01Y1039734D01*
X1164734Y1321791D02*
G01X1162766D01*
X1164734Y1333209D02*
G01X1162766D01*
X1147234Y1356791D02*
G01X1145266D01*
X1147234Y1368209D02*
G01X1145266D01*
X1129734Y1391791D02*
G01X1127766D01*
X1129734Y1403209D02*
G01X1127766D01*
X1260591Y1470266D02*
G01Y1472234D01*
X1272009Y1470266D02*
G01Y1472234D01*
X1260591Y1450266D02*
G01Y1452234D01*
X1272009Y1450266D02*
G01Y1452234D01*
Y1502234D02*
G01Y1500266D01*
X1260591Y1502234D02*
G01Y1500266D01*
X1272009Y1492234D02*
G01Y1490266D01*
X1260591Y1492234D02*
G01Y1490266D01*
X1272009Y1482234D02*
G01Y1480266D01*
X1260591Y1482234D02*
G01Y1480266D01*
X1271909Y1462234D02*
G01Y1460266D01*
X1260491Y1462234D02*
G01Y1460266D01*
X1209291Y1480266D02*
G01Y1482234D01*
X1220709Y1480266D02*
G01Y1482234D01*
Y1492234D02*
G01Y1490266D01*
X1209291Y1492234D02*
G01Y1490266D01*
X1065266Y1104509D02*
G01X1067234D01*
X1065266Y1093091D02*
G01X1067234D01*
X1150541Y1042766D02*
G01Y1044734D01*
X1161959Y1042766D02*
G01Y1044734D01*
X1418041Y1314744D02*
G01Y1320256D01*
X1429459Y1314744D02*
G01Y1320256D01*
X1200531Y1242766D02*
G01Y1244734D01*
X1211949Y1242766D02*
G01Y1244734D01*
G54D16*
X1068553Y1128346D02*
G01X1068947D01*
X1068553Y1121654D02*
G01X1068947D01*
X1007303Y1202146D02*
G01X1007697D01*
X1007303Y1195454D02*
G01X1007697D01*
X1475197Y1390454D02*
G01X1474803D01*
X1475197Y1397146D02*
G01X1474803D01*
X1485197Y1390454D02*
G01X1484803D01*
X1485197Y1397146D02*
G01X1484803D01*
X1553553Y1349646D02*
G01X1553947D01*
X1553553Y1342954D02*
G01X1553947D01*
X1526053Y1349646D02*
G01X1526447D01*
X1526053Y1342954D02*
G01X1526447D01*
X1532046Y1363947D02*
G01Y1363553D01*
X1525354Y1363947D02*
G01Y1363553D01*
X1533947Y1390454D02*
G01X1533553D01*
X1533947Y1397146D02*
G01X1533553D01*
X1543947Y1390454D02*
G01X1543553D01*
X1543947Y1397146D02*
G01X1543553D01*
X1536654Y1318553D02*
G01Y1318947D01*
X1543346Y1318553D02*
G01Y1318947D01*
X1474546Y1233947D02*
G01Y1233553D01*
X1467854Y1233947D02*
G01Y1233553D01*
X1474546Y1241447D02*
G01Y1241053D01*
X1467854Y1241447D02*
G01Y1241053D01*
X1492697Y1234154D02*
G01X1492303D01*
X1492697Y1240846D02*
G01X1492303D01*
X1501447Y1234154D02*
G01X1501053D01*
X1501447Y1240846D02*
G01X1501053D01*
X1523346Y1262697D02*
G01Y1262303D01*
X1516654Y1262697D02*
G01Y1262303D01*
Y1269803D02*
G01Y1270197D01*
X1523346Y1269803D02*
G01Y1270197D01*
X1511053Y1297146D02*
G01X1511447D01*
X1511053Y1290454D02*
G01X1511447D01*
X1496447D02*
G01X1496053D01*
X1496447Y1297146D02*
G01X1496053D01*
X1476053D02*
G01X1476447D01*
X1476053Y1290454D02*
G01X1476447D01*
X1461447D02*
G01X1461053D01*
X1461447Y1297146D02*
G01X1461053D01*
X1554646Y1276447D02*
G01Y1276053D01*
X1547954Y1276447D02*
G01Y1276053D01*
Y1282303D02*
G01Y1282697D01*
X1554646Y1282303D02*
G01Y1282697D01*
X1321654Y1356053D02*
G01Y1356447D01*
X1328346Y1356053D02*
G01Y1356447D01*
X1321654Y1346053D02*
G01Y1346447D01*
X1328346Y1346053D02*
G01Y1346447D01*
X1336447Y1347954D02*
G01X1336053D01*
X1336447Y1354646D02*
G01X1336053D01*
X1321654Y1331053D02*
G01Y1331447D01*
X1328346Y1331053D02*
G01Y1331447D01*
X1321654Y1321053D02*
G01Y1321447D01*
X1328346Y1321053D02*
G01Y1321447D01*
X1336447Y1322954D02*
G01X1336053D01*
X1336447Y1329646D02*
G01X1336053D01*
X1558947Y1486654D02*
G01X1558553D01*
X1558947Y1493346D02*
G01X1558553D01*
X1526447Y1486654D02*
G01X1526053D01*
X1526447Y1493346D02*
G01X1526053D01*
X1542697Y1486654D02*
G01X1542303D01*
X1542697Y1493346D02*
G01X1542303D01*
X1510197Y1486654D02*
G01X1509803D01*
X1510197Y1493346D02*
G01X1509803D01*
X1493947Y1486654D02*
G01X1493553D01*
X1493947Y1493346D02*
G01X1493553D01*
X1566053D02*
G01X1566447D01*
X1566053Y1486654D02*
G01X1566447D01*
X1533553Y1493346D02*
G01X1533947D01*
X1533553Y1486654D02*
G01X1533947D01*
X1549803Y1493346D02*
G01X1550197D01*
X1549803Y1486654D02*
G01X1550197D01*
X1517303Y1493346D02*
G01X1517697D01*
X1517303Y1486654D02*
G01X1517697D01*
X1501053Y1493346D02*
G01X1501447D01*
X1501053Y1486654D02*
G01X1501447D01*
X1565846Y1480197D02*
G01Y1479803D01*
X1559154Y1480197D02*
G01Y1479803D01*
X1533346Y1480197D02*
G01Y1479803D01*
X1526654Y1480197D02*
G01Y1479803D01*
X1549546Y1480197D02*
G01Y1479803D01*
X1542854Y1480197D02*
G01Y1479803D01*
X1517046Y1480197D02*
G01Y1479803D01*
X1510354Y1480197D02*
G01Y1479803D01*
X1500846Y1480197D02*
G01Y1479803D01*
X1494154Y1480197D02*
G01Y1479803D01*
X1477697Y1486654D02*
G01X1477303D01*
X1477697Y1493346D02*
G01X1477303D01*
X1445197Y1486654D02*
G01X1444803D01*
X1445197Y1493346D02*
G01X1444803D01*
X1461447Y1486654D02*
G01X1461053D01*
X1461447Y1493346D02*
G01X1461053D01*
X1484803D02*
G01X1485197D01*
X1484803Y1486654D02*
G01X1485197D01*
X1452303Y1493346D02*
G01X1452697D01*
X1452303Y1486654D02*
G01X1452697D01*
X1468553Y1493346D02*
G01X1468947D01*
X1468553Y1486654D02*
G01X1468947D01*
X1484546Y1480197D02*
G01Y1479803D01*
X1477854Y1480197D02*
G01Y1479803D01*
X1452046Y1480197D02*
G01Y1479803D01*
X1445354Y1480197D02*
G01Y1479803D01*
X1468346Y1480197D02*
G01Y1479803D01*
X1461654Y1480197D02*
G01Y1479803D01*
X1386654Y1434803D02*
G01Y1435197D01*
X1393346Y1434803D02*
G01Y1435197D01*
X1422046Y1443947D02*
G01Y1443553D01*
X1415354Y1443947D02*
G01Y1443553D01*
X1422046Y1416447D02*
G01Y1416053D01*
X1415354Y1416447D02*
G01Y1416053D01*
X1422046Y1437697D02*
G01Y1437303D01*
X1415354Y1437697D02*
G01Y1437303D01*
X1399154Y1471053D02*
G01Y1471447D01*
X1405846Y1471053D02*
G01Y1471447D01*
X1389803Y1480846D02*
G01X1390197D01*
X1389803Y1474154D02*
G01X1390197D01*
X1399154Y1462303D02*
G01Y1462697D01*
X1405846Y1462303D02*
G01Y1462697D01*
Y1453947D02*
G01Y1453553D01*
X1399154Y1453947D02*
G01Y1453553D01*
X1405846Y1480197D02*
G01Y1479803D01*
X1399154Y1480197D02*
G01Y1479803D01*
X1374154Y1389803D02*
G01Y1390197D01*
X1380846Y1389803D02*
G01Y1390197D01*
X1360846Y1405197D02*
G01Y1404803D01*
X1354154Y1405197D02*
G01Y1404803D01*
X1360846Y1375197D02*
G01Y1374803D01*
X1354154Y1375197D02*
G01Y1374803D01*
X1360846Y1390197D02*
G01Y1389803D01*
X1354154Y1390197D02*
G01Y1389803D01*
X1360846Y1420197D02*
G01Y1419803D01*
X1354154Y1420197D02*
G01Y1419803D01*
Y1412303D02*
G01Y1412697D01*
X1360846Y1412303D02*
G01Y1412697D01*
X1354154Y1382303D02*
G01Y1382697D01*
X1360846Y1382303D02*
G01Y1382697D01*
X1354154Y1397303D02*
G01Y1397697D01*
X1360846Y1397303D02*
G01Y1397697D01*
X1420197Y1369154D02*
G01X1419803D01*
X1420197Y1375846D02*
G01X1419803D01*
X1374154Y1404803D02*
G01Y1405197D01*
X1380846Y1404803D02*
G01Y1405197D01*
X1374154Y1374803D02*
G01Y1375197D01*
X1380846Y1374803D02*
G01Y1375197D01*
X1374154Y1419803D02*
G01Y1420197D01*
X1380846Y1419803D02*
G01Y1420197D01*
X1354154Y1427303D02*
G01Y1427697D01*
X1360846Y1427303D02*
G01Y1427697D01*
X1554803Y1438346D02*
G01X1555197D01*
X1554803Y1431654D02*
G01X1555197D01*
X1074803Y1062146D02*
G01X1075197D01*
X1074803Y1055454D02*
G01X1075197D01*
X1070846Y1048947D02*
G01Y1048553D01*
X1064154Y1048947D02*
G01Y1048553D01*
X1209803Y1128346D02*
G01X1210197D01*
X1209803Y1121654D02*
G01X1210197D01*
X1209803Y1114646D02*
G01X1210197D01*
X1209803Y1107954D02*
G01X1210197D01*
X1007697Y1024154D02*
G01X1007303D01*
X1007697Y1030846D02*
G01X1007303D01*
X1027697Y1024154D02*
G01X1027303D01*
X1027697Y1030846D02*
G01X1027303D01*
X1167303Y1164646D02*
G01X1167697D01*
X1167303Y1157954D02*
G01X1167697D01*
X1235197Y1319154D02*
G01X1234803D01*
X1235197Y1325846D02*
G01X1234803D01*
X1227697Y1319154D02*
G01X1227303D01*
X1227697Y1325846D02*
G01X1227303D01*
X1220197Y1319154D02*
G01X1219803D01*
X1220197Y1325846D02*
G01X1219803D01*
X1212697Y1319154D02*
G01X1212303D01*
X1212697Y1325846D02*
G01X1212303D01*
X1205197Y1319154D02*
G01X1204803D01*
X1205197Y1325846D02*
G01X1204803D01*
X1249803D02*
G01X1250197D01*
X1249803Y1319154D02*
G01X1250197D01*
X1257697D02*
G01X1257303D01*
X1257697Y1325846D02*
G01X1257303D01*
X1245197Y1127954D02*
G01X1244803D01*
X1245197Y1134646D02*
G01X1244803D01*
X1255197Y1127954D02*
G01X1254803D01*
X1255197Y1134646D02*
G01X1254803D01*
X1265197Y1127954D02*
G01X1264803D01*
X1265197Y1134646D02*
G01X1264803D01*
X1268947Y1202954D02*
G01X1268553D01*
X1268947Y1209646D02*
G01X1268553D01*
X1262697Y1202954D02*
G01X1262303D01*
X1262697Y1209646D02*
G01X1262303D01*
X1256447Y1202954D02*
G01X1256053D01*
X1256447Y1209646D02*
G01X1256053D01*
X1236447Y1434154D02*
G01X1236053D01*
X1236447Y1440846D02*
G01X1236053D01*
X1226447Y1434154D02*
G01X1226053D01*
X1226447Y1440846D02*
G01X1226053D01*
X1376447Y1141654D02*
G01X1376053D01*
X1376447Y1148346D02*
G01X1376053D01*
X1311447Y1072954D02*
G01X1311053D01*
X1311447Y1079646D02*
G01X1311053D01*
X1428947Y1084154D02*
G01X1428553D01*
X1428947Y1090846D02*
G01X1428553D01*
X1416447Y1084154D02*
G01X1416053D01*
X1416447Y1090846D02*
G01X1416053D01*
X1298947Y1035454D02*
G01X1298553D01*
X1298947Y1042146D02*
G01X1298553D01*
X1291053D02*
G01X1291447D01*
X1291053Y1035454D02*
G01X1291447D01*
X1522303Y1053346D02*
G01X1522697D01*
X1522303Y1046654D02*
G01X1522697D01*
X1515354Y1066053D02*
G01Y1066447D01*
X1522046Y1066053D02*
G01Y1066447D01*
X1238553Y1363346D02*
G01X1238947D01*
X1238553Y1356654D02*
G01X1238947D01*
X1281053Y1380846D02*
G01X1281447D01*
X1281053Y1374154D02*
G01X1281447D01*
X1268553Y1380846D02*
G01X1268947D01*
X1268553Y1374154D02*
G01X1268947D01*
X1403553Y1162096D02*
G01X1403947D01*
X1403553Y1155404D02*
G01X1403947D01*
X1380846Y1155197D02*
G01Y1154803D01*
X1374154Y1155197D02*
G01Y1154803D01*
X1373553Y1198346D02*
G01X1373947D01*
X1373553Y1191654D02*
G01X1373947D01*
X1366053Y1198346D02*
G01X1366447D01*
X1366053Y1191654D02*
G01X1366447D01*
X1470354Y1096053D02*
G01Y1096447D01*
X1477046Y1096053D02*
G01Y1096447D01*
X1470354Y1102303D02*
G01Y1102697D01*
X1477046Y1102303D02*
G01Y1102697D01*
X1470354Y1108553D02*
G01Y1108947D01*
X1477046Y1108553D02*
G01Y1108947D01*
X1352146Y1192697D02*
G01Y1192303D01*
X1345454Y1192697D02*
G01Y1192303D01*
Y1182303D02*
G01Y1182697D01*
X1352146Y1182303D02*
G01Y1182697D01*
X1530404Y1151053D02*
G01Y1151447D01*
X1537096Y1151053D02*
G01Y1151447D01*
X1530404Y1141053D02*
G01Y1141447D01*
X1537096Y1141053D02*
G01Y1141447D01*
X1530404Y1131053D02*
G01Y1131447D01*
X1537096Y1131053D02*
G01Y1131447D01*
X1429154Y1184803D02*
G01Y1185197D01*
X1435846Y1184803D02*
G01Y1185197D01*
X1429154Y1192303D02*
G01Y1192697D01*
X1435846Y1192303D02*
G01Y1192697D01*
X1442904Y1164803D02*
G01Y1165197D01*
X1449596Y1164803D02*
G01Y1165197D01*
X1359154Y1044803D02*
G01Y1045197D01*
X1365846Y1044803D02*
G01Y1045197D01*
X1285846Y1322697D02*
G01Y1322303D01*
X1279154Y1322697D02*
G01Y1322303D01*
X1285846Y1313947D02*
G01Y1313553D01*
X1279154Y1313947D02*
G01Y1313553D01*
X1285846Y1300197D02*
G01Y1299803D01*
X1279154Y1300197D02*
G01Y1299803D01*
X1285846Y1271447D02*
G01Y1271053D01*
X1279154Y1271447D02*
G01Y1271053D01*
X1479596Y1151447D02*
G01Y1151053D01*
X1472904Y1151447D02*
G01Y1151053D01*
X1479596Y1141447D02*
G01Y1141053D01*
X1472904Y1141447D02*
G01Y1141053D01*
X1034803Y1182146D02*
G01X1035197D01*
X1034803Y1175454D02*
G01X1035197D01*
X1041053Y1182146D02*
G01X1041447D01*
X1041053Y1175454D02*
G01X1041447D01*
X1103803Y1184846D02*
G01X1104197D01*
X1103803Y1178154D02*
G01X1104197D01*
X1109803Y1184846D02*
G01X1110197D01*
X1109803Y1178154D02*
G01X1110197D01*
X1134154Y1261053D02*
G01Y1261447D01*
X1140846Y1261053D02*
G01Y1261447D01*
X1247096Y1228947D02*
G01Y1228553D01*
X1240404Y1228947D02*
G01Y1228553D01*
X1247096Y1222697D02*
G01Y1222303D01*
X1240404Y1222697D02*
G01Y1222303D01*
X1247096Y1216447D02*
G01Y1216053D01*
X1240404Y1216447D02*
G01Y1216053D01*
X1275197Y1202954D02*
G01X1274803D01*
X1275197Y1209646D02*
G01X1274803D01*
X1068553Y1128346D02*
G01X1068947D01*
X1068553Y1121654D02*
G01X1068947D01*
X1007303Y1202146D02*
G01X1007697D01*
X1007303Y1195454D02*
G01X1007697D01*
X1475197Y1390454D02*
G01X1474803D01*
X1475197Y1397146D02*
G01X1474803D01*
X1485197Y1390454D02*
G01X1484803D01*
X1485197Y1397146D02*
G01X1484803D01*
X1553553Y1349646D02*
G01X1553947D01*
X1553553Y1342954D02*
G01X1553947D01*
X1526053Y1349646D02*
G01X1526447D01*
X1526053Y1342954D02*
G01X1526447D01*
X1532046Y1363947D02*
G01Y1363553D01*
X1525354Y1363947D02*
G01Y1363553D01*
X1533947Y1390454D02*
G01X1533553D01*
X1533947Y1397146D02*
G01X1533553D01*
X1543947Y1390454D02*
G01X1543553D01*
X1543947Y1397146D02*
G01X1543553D01*
X1536654Y1318553D02*
G01Y1318947D01*
X1543346Y1318553D02*
G01Y1318947D01*
X1474546Y1233947D02*
G01Y1233553D01*
X1467854Y1233947D02*
G01Y1233553D01*
X1474546Y1241447D02*
G01Y1241053D01*
X1467854Y1241447D02*
G01Y1241053D01*
X1492697Y1234154D02*
G01X1492303D01*
X1492697Y1240846D02*
G01X1492303D01*
X1501447Y1234154D02*
G01X1501053D01*
X1501447Y1240846D02*
G01X1501053D01*
X1523346Y1262697D02*
G01Y1262303D01*
X1516654Y1262697D02*
G01Y1262303D01*
Y1269803D02*
G01Y1270197D01*
X1523346Y1269803D02*
G01Y1270197D01*
X1511053Y1297146D02*
G01X1511447D01*
X1511053Y1290454D02*
G01X1511447D01*
X1496447D02*
G01X1496053D01*
X1496447Y1297146D02*
G01X1496053D01*
X1476053D02*
G01X1476447D01*
X1476053Y1290454D02*
G01X1476447D01*
X1461447D02*
G01X1461053D01*
X1461447Y1297146D02*
G01X1461053D01*
X1554646Y1276447D02*
G01Y1276053D01*
X1547954Y1276447D02*
G01Y1276053D01*
Y1282303D02*
G01Y1282697D01*
X1554646Y1282303D02*
G01Y1282697D01*
X1321654Y1356053D02*
G01Y1356447D01*
X1328346Y1356053D02*
G01Y1356447D01*
X1321654Y1346053D02*
G01Y1346447D01*
X1328346Y1346053D02*
G01Y1346447D01*
X1336447Y1347954D02*
G01X1336053D01*
X1336447Y1354646D02*
G01X1336053D01*
X1321654Y1331053D02*
G01Y1331447D01*
X1328346Y1331053D02*
G01Y1331447D01*
X1321654Y1321053D02*
G01Y1321447D01*
X1328346Y1321053D02*
G01Y1321447D01*
X1336447Y1322954D02*
G01X1336053D01*
X1336447Y1329646D02*
G01X1336053D01*
X1558947Y1486654D02*
G01X1558553D01*
X1558947Y1493346D02*
G01X1558553D01*
X1526447Y1486654D02*
G01X1526053D01*
X1526447Y1493346D02*
G01X1526053D01*
X1542697Y1486654D02*
G01X1542303D01*
X1542697Y1493346D02*
G01X1542303D01*
X1510197Y1486654D02*
G01X1509803D01*
X1510197Y1493346D02*
G01X1509803D01*
X1493947Y1486654D02*
G01X1493553D01*
X1493947Y1493346D02*
G01X1493553D01*
X1566053D02*
G01X1566447D01*
X1566053Y1486654D02*
G01X1566447D01*
X1533553Y1493346D02*
G01X1533947D01*
X1533553Y1486654D02*
G01X1533947D01*
X1549803Y1493346D02*
G01X1550197D01*
X1549803Y1486654D02*
G01X1550197D01*
X1517303Y1493346D02*
G01X1517697D01*
X1517303Y1486654D02*
G01X1517697D01*
X1501053Y1493346D02*
G01X1501447D01*
X1501053Y1486654D02*
G01X1501447D01*
X1565846Y1480197D02*
G01Y1479803D01*
X1559154Y1480197D02*
G01Y1479803D01*
X1533346Y1480197D02*
G01Y1479803D01*
X1526654Y1480197D02*
G01Y1479803D01*
X1549546Y1480197D02*
G01Y1479803D01*
X1542854Y1480197D02*
G01Y1479803D01*
X1517046Y1480197D02*
G01Y1479803D01*
X1510354Y1480197D02*
G01Y1479803D01*
X1500846Y1480197D02*
G01Y1479803D01*
X1494154Y1480197D02*
G01Y1479803D01*
X1477697Y1486654D02*
G01X1477303D01*
X1477697Y1493346D02*
G01X1477303D01*
X1445197Y1486654D02*
G01X1444803D01*
X1445197Y1493346D02*
G01X1444803D01*
X1461447Y1486654D02*
G01X1461053D01*
X1461447Y1493346D02*
G01X1461053D01*
X1484803D02*
G01X1485197D01*
X1484803Y1486654D02*
G01X1485197D01*
X1452303Y1493346D02*
G01X1452697D01*
X1452303Y1486654D02*
G01X1452697D01*
X1468553Y1493346D02*
G01X1468947D01*
X1468553Y1486654D02*
G01X1468947D01*
X1484546Y1480197D02*
G01Y1479803D01*
X1477854Y1480197D02*
G01Y1479803D01*
X1452046Y1480197D02*
G01Y1479803D01*
X1445354Y1480197D02*
G01Y1479803D01*
X1468346Y1480197D02*
G01Y1479803D01*
X1461654Y1480197D02*
G01Y1479803D01*
X1386654Y1434803D02*
G01Y1435197D01*
X1393346Y1434803D02*
G01Y1435197D01*
X1422046Y1443947D02*
G01Y1443553D01*
X1415354Y1443947D02*
G01Y1443553D01*
X1422046Y1416447D02*
G01Y1416053D01*
X1415354Y1416447D02*
G01Y1416053D01*
X1422046Y1437697D02*
G01Y1437303D01*
X1415354Y1437697D02*
G01Y1437303D01*
X1399154Y1471053D02*
G01Y1471447D01*
X1405846Y1471053D02*
G01Y1471447D01*
X1389803Y1480846D02*
G01X1390197D01*
X1389803Y1474154D02*
G01X1390197D01*
X1399154Y1462303D02*
G01Y1462697D01*
X1405846Y1462303D02*
G01Y1462697D01*
Y1453947D02*
G01Y1453553D01*
X1399154Y1453947D02*
G01Y1453553D01*
X1405846Y1480197D02*
G01Y1479803D01*
X1399154Y1480197D02*
G01Y1479803D01*
X1374154Y1389803D02*
G01Y1390197D01*
X1380846Y1389803D02*
G01Y1390197D01*
X1360846Y1405197D02*
G01Y1404803D01*
X1354154Y1405197D02*
G01Y1404803D01*
X1360846Y1375197D02*
G01Y1374803D01*
X1354154Y1375197D02*
G01Y1374803D01*
X1360846Y1390197D02*
G01Y1389803D01*
X1354154Y1390197D02*
G01Y1389803D01*
X1360846Y1420197D02*
G01Y1419803D01*
X1354154Y1420197D02*
G01Y1419803D01*
Y1412303D02*
G01Y1412697D01*
X1360846Y1412303D02*
G01Y1412697D01*
X1354154Y1382303D02*
G01Y1382697D01*
X1360846Y1382303D02*
G01Y1382697D01*
X1354154Y1397303D02*
G01Y1397697D01*
X1360846Y1397303D02*
G01Y1397697D01*
X1420197Y1369154D02*
G01X1419803D01*
X1420197Y1375846D02*
G01X1419803D01*
X1374154Y1404803D02*
G01Y1405197D01*
X1380846Y1404803D02*
G01Y1405197D01*
X1374154Y1374803D02*
G01Y1375197D01*
X1380846Y1374803D02*
G01Y1375197D01*
X1374154Y1419803D02*
G01Y1420197D01*
X1380846Y1419803D02*
G01Y1420197D01*
X1354154Y1427303D02*
G01Y1427697D01*
X1360846Y1427303D02*
G01Y1427697D01*
X1554803Y1438346D02*
G01X1555197D01*
X1554803Y1431654D02*
G01X1555197D01*
X1074803Y1062146D02*
G01X1075197D01*
X1074803Y1055454D02*
G01X1075197D01*
X1070846Y1048947D02*
G01Y1048553D01*
X1064154Y1048947D02*
G01Y1048553D01*
X1209803Y1128346D02*
G01X1210197D01*
X1209803Y1121654D02*
G01X1210197D01*
X1209803Y1114646D02*
G01X1210197D01*
X1209803Y1107954D02*
G01X1210197D01*
X1007697Y1024154D02*
G01X1007303D01*
X1007697Y1030846D02*
G01X1007303D01*
X1027697Y1024154D02*
G01X1027303D01*
X1027697Y1030846D02*
G01X1027303D01*
X1167303Y1164646D02*
G01X1167697D01*
X1167303Y1157954D02*
G01X1167697D01*
X1235197Y1319154D02*
G01X1234803D01*
X1235197Y1325846D02*
G01X1234803D01*
X1227697Y1319154D02*
G01X1227303D01*
X1227697Y1325846D02*
G01X1227303D01*
X1220197Y1319154D02*
G01X1219803D01*
X1220197Y1325846D02*
G01X1219803D01*
X1212697Y1319154D02*
G01X1212303D01*
X1212697Y1325846D02*
G01X1212303D01*
X1205197Y1319154D02*
G01X1204803D01*
X1205197Y1325846D02*
G01X1204803D01*
X1249803D02*
G01X1250197D01*
X1249803Y1319154D02*
G01X1250197D01*
X1257697D02*
G01X1257303D01*
X1257697Y1325846D02*
G01X1257303D01*
X1245197Y1127954D02*
G01X1244803D01*
X1245197Y1134646D02*
G01X1244803D01*
X1255197Y1127954D02*
G01X1254803D01*
X1255197Y1134646D02*
G01X1254803D01*
X1265197Y1127954D02*
G01X1264803D01*
X1265197Y1134646D02*
G01X1264803D01*
X1268947Y1202954D02*
G01X1268553D01*
X1268947Y1209646D02*
G01X1268553D01*
X1262697Y1202954D02*
G01X1262303D01*
X1262697Y1209646D02*
G01X1262303D01*
X1256447Y1202954D02*
G01X1256053D01*
X1256447Y1209646D02*
G01X1256053D01*
X1236447Y1434154D02*
G01X1236053D01*
X1236447Y1440846D02*
G01X1236053D01*
X1226447Y1434154D02*
G01X1226053D01*
X1226447Y1440846D02*
G01X1226053D01*
X1376447Y1141654D02*
G01X1376053D01*
X1376447Y1148346D02*
G01X1376053D01*
X1311447Y1072954D02*
G01X1311053D01*
X1311447Y1079646D02*
G01X1311053D01*
X1428947Y1084154D02*
G01X1428553D01*
X1428947Y1090846D02*
G01X1428553D01*
X1416447Y1084154D02*
G01X1416053D01*
X1416447Y1090846D02*
G01X1416053D01*
X1298947Y1035454D02*
G01X1298553D01*
X1298947Y1042146D02*
G01X1298553D01*
X1291053D02*
G01X1291447D01*
X1291053Y1035454D02*
G01X1291447D01*
X1522303Y1053346D02*
G01X1522697D01*
X1522303Y1046654D02*
G01X1522697D01*
X1515354Y1066053D02*
G01Y1066447D01*
X1522046Y1066053D02*
G01Y1066447D01*
X1238553Y1363346D02*
G01X1238947D01*
X1238553Y1356654D02*
G01X1238947D01*
X1281053Y1380846D02*
G01X1281447D01*
X1281053Y1374154D02*
G01X1281447D01*
X1268553Y1380846D02*
G01X1268947D01*
X1268553Y1374154D02*
G01X1268947D01*
X1403553Y1162096D02*
G01X1403947D01*
X1403553Y1155404D02*
G01X1403947D01*
X1380846Y1155197D02*
G01Y1154803D01*
X1374154Y1155197D02*
G01Y1154803D01*
X1373553Y1198346D02*
G01X1373947D01*
X1373553Y1191654D02*
G01X1373947D01*
X1366053Y1198346D02*
G01X1366447D01*
X1366053Y1191654D02*
G01X1366447D01*
X1470354Y1096053D02*
G01Y1096447D01*
X1477046Y1096053D02*
G01Y1096447D01*
X1470354Y1102303D02*
G01Y1102697D01*
X1477046Y1102303D02*
G01Y1102697D01*
X1470354Y1108553D02*
G01Y1108947D01*
X1477046Y1108553D02*
G01Y1108947D01*
X1352146Y1192697D02*
G01Y1192303D01*
X1345454Y1192697D02*
G01Y1192303D01*
Y1182303D02*
G01Y1182697D01*
X1352146Y1182303D02*
G01Y1182697D01*
X1530404Y1151053D02*
G01Y1151447D01*
X1537096Y1151053D02*
G01Y1151447D01*
X1530404Y1141053D02*
G01Y1141447D01*
X1537096Y1141053D02*
G01Y1141447D01*
X1530404Y1131053D02*
G01Y1131447D01*
X1537096Y1131053D02*
G01Y1131447D01*
X1429154Y1184803D02*
G01Y1185197D01*
X1435846Y1184803D02*
G01Y1185197D01*
X1429154Y1192303D02*
G01Y1192697D01*
X1435846Y1192303D02*
G01Y1192697D01*
X1442904Y1164803D02*
G01Y1165197D01*
X1449596Y1164803D02*
G01Y1165197D01*
X1359154Y1044803D02*
G01Y1045197D01*
X1365846Y1044803D02*
G01Y1045197D01*
X1285846Y1322697D02*
G01Y1322303D01*
X1279154Y1322697D02*
G01Y1322303D01*
X1285846Y1313947D02*
G01Y1313553D01*
X1279154Y1313947D02*
G01Y1313553D01*
X1285846Y1300197D02*
G01Y1299803D01*
X1279154Y1300197D02*
G01Y1299803D01*
X1285846Y1271447D02*
G01Y1271053D01*
X1279154Y1271447D02*
G01Y1271053D01*
X1479596Y1151447D02*
G01Y1151053D01*
X1472904Y1151447D02*
G01Y1151053D01*
X1479596Y1141447D02*
G01Y1141053D01*
X1472904Y1141447D02*
G01Y1141053D01*
X1034803Y1182146D02*
G01X1035197D01*
X1034803Y1175454D02*
G01X1035197D01*
X1041053Y1182146D02*
G01X1041447D01*
X1041053Y1175454D02*
G01X1041447D01*
X1103803Y1184846D02*
G01X1104197D01*
X1103803Y1178154D02*
G01X1104197D01*
X1109803Y1184846D02*
G01X1110197D01*
X1109803Y1178154D02*
G01X1110197D01*
X1134154Y1261053D02*
G01Y1261447D01*
X1140846Y1261053D02*
G01Y1261447D01*
X1247096Y1228947D02*
G01Y1228553D01*
X1240404Y1228947D02*
G01Y1228553D01*
X1247096Y1222697D02*
G01Y1222303D01*
X1240404Y1222697D02*
G01Y1222303D01*
X1247096Y1216447D02*
G01Y1216053D01*
X1240404Y1216447D02*
G01Y1216053D01*
X1275197Y1202954D02*
G01X1274803D01*
X1275197Y1209646D02*
G01X1274803D01*
G54D208*
X1164606Y1366043D02*
G01X1165394D01*
X1164606Y1358957D02*
G01X1165394D01*
X1155856Y1391043D02*
G01X1156644D01*
X1155856Y1383957D02*
G01X1156644D01*
X1155856Y1424793D02*
G01X1156644D01*
X1155856Y1417707D02*
G01X1156644D01*
X1462106Y1384793D02*
G01X1462894D01*
X1462106Y1377707D02*
G01X1462894D01*
X1452106Y1384793D02*
G01X1452894D01*
X1452106Y1377707D02*
G01X1452894D01*
X1509606Y1384793D02*
G01X1510394D01*
X1509606Y1377707D02*
G01X1510394D01*
X1519606Y1384793D02*
G01X1520394D01*
X1519606Y1377707D02*
G01X1520394D01*
X1164606Y1366043D02*
G01X1165394D01*
X1164606Y1358957D02*
G01X1165394D01*
X1155856Y1391043D02*
G01X1156644D01*
X1155856Y1383957D02*
G01X1156644D01*
X1155856Y1424793D02*
G01X1156644D01*
X1155856Y1417707D02*
G01X1156644D01*
X1462106Y1384793D02*
G01X1462894D01*
X1462106Y1377707D02*
G01X1462894D01*
X1452106Y1384793D02*
G01X1452894D01*
X1452106Y1377707D02*
G01X1452894D01*
X1509606Y1384793D02*
G01X1510394D01*
X1509606Y1377707D02*
G01X1510394D01*
X1519606Y1384793D02*
G01X1520394D01*
X1519606Y1377707D02*
G01X1520394D01*
G54D17*
X1143750Y1042569D02*
G01Y1044931D01*
X1168750Y1042569D02*
G01Y1044931D01*
X1475394Y1377411D02*
G01X1474606D01*
X1485394D02*
G01X1484606D01*
X1485394Y1410089D02*
G01X1484606D01*
X1475394D02*
G01X1474606D01*
X1534144Y1377411D02*
G01X1533356D01*
X1544144D02*
G01X1543356D01*
X1544144Y1410089D02*
G01X1543356D01*
X1534144D02*
G01X1533356D01*
X1120000Y1062136D02*
G01Y1055443D01*
Y1042057D02*
G01Y1035364D01*
X1143750Y1042569D02*
G01Y1044931D01*
X1168750Y1042569D02*
G01Y1044931D01*
X1475394Y1377411D02*
G01X1474606D01*
X1485394D02*
G01X1484606D01*
X1485394Y1410089D02*
G01X1484606D01*
X1475394D02*
G01X1474606D01*
X1534144Y1377411D02*
G01X1533356D01*
X1544144D02*
G01X1543356D01*
X1544144Y1410089D02*
G01X1543356D01*
X1534144D02*
G01X1533356D01*
X1120000Y1062136D02*
G01Y1055443D01*
Y1042057D02*
G01Y1035364D01*
G54D18*
X1541250Y1068848D02*
G01Y1067667D01*
Y1044833D02*
G01Y1043652D01*
X1388750Y1088848D02*
G01Y1087667D01*
Y1064833D02*
G01Y1063652D01*
X1194000Y1044598D02*
G01Y1043417D01*
Y1020583D02*
G01Y1019402D01*
X1201152Y1091250D02*
G01X1202333D01*
X1225167D02*
G01X1226348D01*
X1048386Y1357378D02*
G01Y1354622D01*
X1021614Y1357378D02*
G01Y1354622D01*
X1121378Y1085364D02*
G01X1118622D01*
X1121378Y1112136D02*
G01X1118622D01*
X1541250Y1068848D02*
G01Y1067667D01*
Y1044833D02*
G01Y1043652D01*
X1388750Y1088848D02*
G01Y1087667D01*
Y1064833D02*
G01Y1063652D01*
X1194000Y1044598D02*
G01Y1043417D01*
Y1020583D02*
G01Y1019402D01*
X1201152Y1091250D02*
G01X1202333D01*
X1225167D02*
G01X1226348D01*
X1048386Y1357378D02*
G01Y1354622D01*
X1021614Y1357378D02*
G01Y1354622D01*
X1121378Y1085364D02*
G01X1118622D01*
X1121378Y1112136D02*
G01X1118622D01*
G54D211*
X1339626Y1472933D02*
G01X1344547D01*
X1339626Y1470374D02*
G01X1344547D01*
X1339626Y1467815D02*
G01X1344547D01*
X1339626Y1465256D02*
G01X1344547D01*
X1339626Y1462697D02*
G01X1344547D01*
X1339626Y1460138D02*
G01X1344547D01*
X1339626Y1457579D02*
G01X1344547D01*
X1339626Y1455020D02*
G01X1344547D01*
X1339626Y1452460D02*
G01X1344547D01*
X1339626Y1449901D02*
G01X1344547D01*
X1339626Y1447342D02*
G01X1344547D01*
X1339626Y1444783D02*
G01X1344547D01*
X1339626Y1442224D02*
G01X1344547D01*
X1339626Y1439665D02*
G01X1344547D01*
X1339626Y1437106D02*
G01X1344547D01*
X1339626Y1434547D02*
G01X1344547D01*
X1375453D02*
G01X1380374D01*
X1375453Y1437106D02*
G01X1380374D01*
X1375453Y1439665D02*
G01X1380374D01*
X1375453Y1442224D02*
G01X1380374D01*
X1375453Y1444783D02*
G01X1380374D01*
X1375453Y1447342D02*
G01X1380374D01*
X1375453Y1449901D02*
G01X1380374D01*
X1375453Y1452460D02*
G01X1380374D01*
X1375453Y1455020D02*
G01X1380374D01*
X1375453Y1457579D02*
G01X1380374D01*
X1375453Y1460138D02*
G01X1380374D01*
X1375453Y1462697D02*
G01X1380374D01*
X1375453Y1465256D02*
G01X1380374D01*
X1375453Y1467815D02*
G01X1380374D01*
X1375453Y1470374D02*
G01X1380374D01*
X1375453Y1472933D02*
G01X1380374D01*
X1251634Y1384547D02*
G01X1246713D01*
X1251634Y1387106D02*
G01X1246713D01*
X1251634Y1389665D02*
G01X1246713D01*
X1251634Y1392224D02*
G01X1246713D01*
X1251634Y1394783D02*
G01X1246713D01*
X1251634Y1397342D02*
G01X1246713D01*
X1251634Y1399901D02*
G01X1246713D01*
X1251634Y1402460D02*
G01X1246713D01*
X1251634Y1405020D02*
G01X1246713D01*
X1251634Y1407579D02*
G01X1246713D01*
X1251634Y1410138D02*
G01X1246713D01*
X1251634Y1412697D02*
G01X1246713D01*
X1251634Y1415256D02*
G01X1246713D01*
X1251634Y1417815D02*
G01X1246713D01*
X1251634Y1420374D02*
G01X1246713D01*
X1251634Y1422933D02*
G01X1246713D01*
X1215807D02*
G01X1210886D01*
X1215807Y1420374D02*
G01X1210886D01*
X1215807Y1417815D02*
G01X1210886D01*
X1215807Y1415256D02*
G01X1210886D01*
X1215807Y1412697D02*
G01X1210886D01*
X1215807Y1410138D02*
G01X1210886D01*
X1215807Y1407579D02*
G01X1210886D01*
X1215807Y1405020D02*
G01X1210886D01*
X1215807Y1402460D02*
G01X1210886D01*
X1215807Y1399901D02*
G01X1210886D01*
X1215807Y1397342D02*
G01X1210886D01*
X1215807Y1394783D02*
G01X1210886D01*
X1215807Y1392224D02*
G01X1210886D01*
X1215807Y1389665D02*
G01X1210886D01*
X1215807Y1387106D02*
G01X1210886D01*
X1215807Y1384547D02*
G01X1210886D01*
X1349360Y1293297D02*
G01X1354281D01*
X1349360Y1290738D02*
G01X1354281D01*
X1349360Y1288179D02*
G01X1354281D01*
X1349360Y1285620D02*
G01X1354281D01*
X1349360Y1283061D02*
G01X1354281D01*
X1349360Y1280502D02*
G01X1354281D01*
X1349360Y1277943D02*
G01X1354281D01*
X1349360Y1275384D02*
G01X1354281D01*
X1349360Y1272825D02*
G01X1354281D01*
X1349360Y1270266D02*
G01X1354281D01*
X1349360Y1267707D02*
G01X1354281D01*
X1349360Y1265148D02*
G01X1354281D01*
X1349360Y1262589D02*
G01X1354281D01*
X1349360Y1260030D02*
G01X1354281D01*
X1349360Y1257470D02*
G01X1354281D01*
X1349360Y1254911D02*
G01X1354281D01*
X1349360Y1252352D02*
G01X1354281D01*
X1349360Y1249793D02*
G01X1354281D01*
X1349360Y1247234D02*
G01X1354281D01*
X1349360Y1244675D02*
G01X1354281D01*
X1349360Y1242116D02*
G01X1354281D01*
X1349360Y1239557D02*
G01X1354281D01*
X1349360Y1236998D02*
G01X1354281D01*
X1349360Y1234439D02*
G01X1354281D01*
X1349360Y1231880D02*
G01X1354281D01*
X1349360Y1229321D02*
G01X1354281D01*
X1349360Y1226762D02*
G01X1354281D01*
X1349360Y1224203D02*
G01X1354281D01*
X1359203Y1214360D02*
G01Y1219281D01*
X1361762Y1214360D02*
G01Y1219281D01*
X1364321Y1214360D02*
G01Y1219281D01*
X1366880Y1214360D02*
G01Y1219281D01*
X1369439Y1214360D02*
G01Y1219281D01*
X1371998Y1214360D02*
G01Y1219281D01*
X1374557Y1214360D02*
G01Y1219281D01*
X1377116Y1214360D02*
G01Y1219281D01*
X1379675Y1214360D02*
G01Y1219281D01*
X1382234Y1214360D02*
G01Y1219281D01*
X1384793Y1214360D02*
G01Y1219281D01*
X1387352Y1214360D02*
G01Y1219281D01*
X1389911Y1214360D02*
G01Y1219281D01*
X1392470Y1214360D02*
G01Y1219281D01*
X1395030Y1214360D02*
G01Y1219281D01*
X1397589Y1214360D02*
G01Y1219281D01*
X1400148Y1214360D02*
G01Y1219281D01*
X1402707Y1214360D02*
G01Y1219281D01*
X1405266Y1214360D02*
G01Y1219281D01*
X1407825Y1214360D02*
G01Y1219281D01*
X1410384Y1214360D02*
G01Y1219281D01*
X1412943Y1214360D02*
G01Y1219281D01*
X1415502Y1214360D02*
G01Y1219281D01*
X1418061Y1214360D02*
G01Y1219281D01*
X1420620Y1214360D02*
G01Y1219281D01*
X1423179Y1214360D02*
G01Y1219281D01*
X1425738Y1214360D02*
G01Y1219281D01*
X1428297Y1214360D02*
G01Y1219281D01*
X1433219Y1224203D02*
G01X1438140D01*
X1433219Y1226762D02*
G01X1438140D01*
X1433219Y1229321D02*
G01X1438140D01*
X1433219Y1231880D02*
G01X1438140D01*
X1433219Y1234439D02*
G01X1438140D01*
X1433219Y1236998D02*
G01X1438140D01*
X1433219Y1239557D02*
G01X1438140D01*
X1433219Y1242116D02*
G01X1438140D01*
X1433219Y1244675D02*
G01X1438140D01*
X1433219Y1247234D02*
G01X1438140D01*
X1433219Y1249793D02*
G01X1438140D01*
X1433219Y1252352D02*
G01X1438140D01*
X1433219Y1254911D02*
G01X1438140D01*
X1433219Y1257470D02*
G01X1438140D01*
X1433219Y1260030D02*
G01X1438140D01*
X1433219Y1262589D02*
G01X1438140D01*
X1433219Y1265148D02*
G01X1438140D01*
X1433219Y1267707D02*
G01X1438140D01*
X1433219Y1270266D02*
G01X1438140D01*
X1433219Y1272825D02*
G01X1438140D01*
X1433219Y1275384D02*
G01X1438140D01*
X1433219Y1277943D02*
G01X1438140D01*
X1433219Y1280502D02*
G01X1438140D01*
X1433219Y1283061D02*
G01X1438140D01*
X1433219Y1285620D02*
G01X1438140D01*
X1433219Y1288179D02*
G01X1438140D01*
X1433219Y1290738D02*
G01X1438140D01*
X1433219Y1293297D02*
G01X1438140D01*
X1428297Y1298219D02*
G01Y1303140D01*
X1425738Y1298219D02*
G01Y1303140D01*
X1423179Y1298219D02*
G01Y1303140D01*
X1420620Y1298219D02*
G01Y1303140D01*
X1418061Y1298219D02*
G01Y1303140D01*
X1415502Y1298219D02*
G01Y1303140D01*
X1412943Y1298219D02*
G01Y1303140D01*
X1410384Y1298219D02*
G01Y1303140D01*
X1407825Y1298219D02*
G01Y1303140D01*
X1405266Y1298219D02*
G01Y1303140D01*
X1402707Y1298219D02*
G01Y1303140D01*
X1400148Y1298219D02*
G01Y1303140D01*
X1397589Y1298219D02*
G01Y1303140D01*
X1395030Y1298219D02*
G01Y1303140D01*
X1392470Y1298219D02*
G01Y1303140D01*
X1389911Y1298219D02*
G01Y1303140D01*
X1387352Y1298219D02*
G01Y1303140D01*
X1384793Y1298219D02*
G01Y1303140D01*
X1382234Y1298219D02*
G01Y1303140D01*
X1379675Y1298219D02*
G01Y1303140D01*
X1377116Y1298219D02*
G01Y1303140D01*
X1374557Y1298219D02*
G01Y1303140D01*
X1371998Y1298219D02*
G01Y1303140D01*
X1369439Y1298219D02*
G01Y1303140D01*
X1366880Y1298219D02*
G01Y1303140D01*
X1364321Y1298219D02*
G01Y1303140D01*
X1361762Y1298219D02*
G01Y1303140D01*
X1359203Y1298219D02*
G01Y1303140D01*
X1339626Y1472933D02*
G01X1344547D01*
X1339626Y1470374D02*
G01X1344547D01*
X1339626Y1467815D02*
G01X1344547D01*
X1339626Y1465256D02*
G01X1344547D01*
X1339626Y1462697D02*
G01X1344547D01*
X1339626Y1460138D02*
G01X1344547D01*
X1339626Y1457579D02*
G01X1344547D01*
X1339626Y1455020D02*
G01X1344547D01*
X1339626Y1452460D02*
G01X1344547D01*
X1339626Y1449901D02*
G01X1344547D01*
X1339626Y1447342D02*
G01X1344547D01*
X1339626Y1444783D02*
G01X1344547D01*
X1339626Y1442224D02*
G01X1344547D01*
X1339626Y1439665D02*
G01X1344547D01*
X1339626Y1437106D02*
G01X1344547D01*
X1339626Y1434547D02*
G01X1344547D01*
X1375453D02*
G01X1380374D01*
X1375453Y1437106D02*
G01X1380374D01*
X1375453Y1439665D02*
G01X1380374D01*
X1375453Y1442224D02*
G01X1380374D01*
X1375453Y1444783D02*
G01X1380374D01*
X1375453Y1447342D02*
G01X1380374D01*
X1375453Y1449901D02*
G01X1380374D01*
X1375453Y1452460D02*
G01X1380374D01*
X1375453Y1455020D02*
G01X1380374D01*
X1375453Y1457579D02*
G01X1380374D01*
X1375453Y1460138D02*
G01X1380374D01*
X1375453Y1462697D02*
G01X1380374D01*
X1375453Y1465256D02*
G01X1380374D01*
X1375453Y1467815D02*
G01X1380374D01*
X1375453Y1470374D02*
G01X1380374D01*
X1375453Y1472933D02*
G01X1380374D01*
X1251634Y1384547D02*
G01X1246713D01*
X1251634Y1387106D02*
G01X1246713D01*
X1251634Y1389665D02*
G01X1246713D01*
X1251634Y1392224D02*
G01X1246713D01*
X1251634Y1394783D02*
G01X1246713D01*
X1251634Y1397342D02*
G01X1246713D01*
X1251634Y1399901D02*
G01X1246713D01*
X1251634Y1402460D02*
G01X1246713D01*
X1251634Y1405020D02*
G01X1246713D01*
X1251634Y1407579D02*
G01X1246713D01*
X1251634Y1410138D02*
G01X1246713D01*
X1251634Y1412697D02*
G01X1246713D01*
X1251634Y1415256D02*
G01X1246713D01*
X1251634Y1417815D02*
G01X1246713D01*
X1251634Y1420374D02*
G01X1246713D01*
X1251634Y1422933D02*
G01X1246713D01*
X1215807D02*
G01X1210886D01*
X1215807Y1420374D02*
G01X1210886D01*
X1215807Y1417815D02*
G01X1210886D01*
X1215807Y1415256D02*
G01X1210886D01*
X1215807Y1412697D02*
G01X1210886D01*
X1215807Y1410138D02*
G01X1210886D01*
X1215807Y1407579D02*
G01X1210886D01*
X1215807Y1405020D02*
G01X1210886D01*
X1215807Y1402460D02*
G01X1210886D01*
X1215807Y1399901D02*
G01X1210886D01*
X1215807Y1397342D02*
G01X1210886D01*
X1215807Y1394783D02*
G01X1210886D01*
X1215807Y1392224D02*
G01X1210886D01*
X1215807Y1389665D02*
G01X1210886D01*
X1215807Y1387106D02*
G01X1210886D01*
X1215807Y1384547D02*
G01X1210886D01*
X1349360Y1293297D02*
G01X1354281D01*
X1349360Y1290738D02*
G01X1354281D01*
X1349360Y1288179D02*
G01X1354281D01*
X1349360Y1285620D02*
G01X1354281D01*
X1349360Y1283061D02*
G01X1354281D01*
X1349360Y1280502D02*
G01X1354281D01*
X1349360Y1277943D02*
G01X1354281D01*
X1349360Y1275384D02*
G01X1354281D01*
X1349360Y1272825D02*
G01X1354281D01*
X1349360Y1270266D02*
G01X1354281D01*
X1349360Y1267707D02*
G01X1354281D01*
X1349360Y1265148D02*
G01X1354281D01*
X1349360Y1262589D02*
G01X1354281D01*
X1349360Y1260030D02*
G01X1354281D01*
X1349360Y1257470D02*
G01X1354281D01*
X1349360Y1254911D02*
G01X1354281D01*
X1349360Y1252352D02*
G01X1354281D01*
X1349360Y1249793D02*
G01X1354281D01*
X1349360Y1247234D02*
G01X1354281D01*
X1349360Y1244675D02*
G01X1354281D01*
X1349360Y1242116D02*
G01X1354281D01*
X1349360Y1239557D02*
G01X1354281D01*
X1349360Y1236998D02*
G01X1354281D01*
X1349360Y1234439D02*
G01X1354281D01*
X1349360Y1231880D02*
G01X1354281D01*
X1349360Y1229321D02*
G01X1354281D01*
X1349360Y1226762D02*
G01X1354281D01*
X1349360Y1224203D02*
G01X1354281D01*
X1359203Y1214360D02*
G01Y1219281D01*
X1361762Y1214360D02*
G01Y1219281D01*
X1364321Y1214360D02*
G01Y1219281D01*
X1366880Y1214360D02*
G01Y1219281D01*
X1369439Y1214360D02*
G01Y1219281D01*
X1371998Y1214360D02*
G01Y1219281D01*
X1374557Y1214360D02*
G01Y1219281D01*
X1377116Y1214360D02*
G01Y1219281D01*
X1379675Y1214360D02*
G01Y1219281D01*
X1382234Y1214360D02*
G01Y1219281D01*
X1384793Y1214360D02*
G01Y1219281D01*
X1387352Y1214360D02*
G01Y1219281D01*
X1389911Y1214360D02*
G01Y1219281D01*
X1392470Y1214360D02*
G01Y1219281D01*
X1395030Y1214360D02*
G01Y1219281D01*
X1397589Y1214360D02*
G01Y1219281D01*
X1400148Y1214360D02*
G01Y1219281D01*
X1402707Y1214360D02*
G01Y1219281D01*
X1405266Y1214360D02*
G01Y1219281D01*
X1407825Y1214360D02*
G01Y1219281D01*
X1410384Y1214360D02*
G01Y1219281D01*
X1412943Y1214360D02*
G01Y1219281D01*
X1415502Y1214360D02*
G01Y1219281D01*
X1418061Y1214360D02*
G01Y1219281D01*
X1420620Y1214360D02*
G01Y1219281D01*
X1423179Y1214360D02*
G01Y1219281D01*
X1425738Y1214360D02*
G01Y1219281D01*
X1428297Y1214360D02*
G01Y1219281D01*
X1433219Y1224203D02*
G01X1438140D01*
X1433219Y1226762D02*
G01X1438140D01*
X1433219Y1229321D02*
G01X1438140D01*
X1433219Y1231880D02*
G01X1438140D01*
X1433219Y1234439D02*
G01X1438140D01*
X1433219Y1236998D02*
G01X1438140D01*
X1433219Y1239557D02*
G01X1438140D01*
X1433219Y1242116D02*
G01X1438140D01*
X1433219Y1244675D02*
G01X1438140D01*
X1433219Y1247234D02*
G01X1438140D01*
X1433219Y1249793D02*
G01X1438140D01*
X1433219Y1252352D02*
G01X1438140D01*
X1433219Y1254911D02*
G01X1438140D01*
X1433219Y1257470D02*
G01X1438140D01*
X1433219Y1260030D02*
G01X1438140D01*
X1433219Y1262589D02*
G01X1438140D01*
X1433219Y1265148D02*
G01X1438140D01*
X1433219Y1267707D02*
G01X1438140D01*
X1433219Y1270266D02*
G01X1438140D01*
X1433219Y1272825D02*
G01X1438140D01*
X1433219Y1275384D02*
G01X1438140D01*
X1433219Y1277943D02*
G01X1438140D01*
X1433219Y1280502D02*
G01X1438140D01*
X1433219Y1283061D02*
G01X1438140D01*
X1433219Y1285620D02*
G01X1438140D01*
X1433219Y1288179D02*
G01X1438140D01*
X1433219Y1290738D02*
G01X1438140D01*
X1433219Y1293297D02*
G01X1438140D01*
X1428297Y1298219D02*
G01Y1303140D01*
X1425738Y1298219D02*
G01Y1303140D01*
X1423179Y1298219D02*
G01Y1303140D01*
X1420620Y1298219D02*
G01Y1303140D01*
X1418061Y1298219D02*
G01Y1303140D01*
X1415502Y1298219D02*
G01Y1303140D01*
X1412943Y1298219D02*
G01Y1303140D01*
X1410384Y1298219D02*
G01Y1303140D01*
X1407825Y1298219D02*
G01Y1303140D01*
X1405266Y1298219D02*
G01Y1303140D01*
X1402707Y1298219D02*
G01Y1303140D01*
X1400148Y1298219D02*
G01Y1303140D01*
X1397589Y1298219D02*
G01Y1303140D01*
X1395030Y1298219D02*
G01Y1303140D01*
X1392470Y1298219D02*
G01Y1303140D01*
X1389911Y1298219D02*
G01Y1303140D01*
X1387352Y1298219D02*
G01Y1303140D01*
X1384793Y1298219D02*
G01Y1303140D01*
X1382234Y1298219D02*
G01Y1303140D01*
X1379675Y1298219D02*
G01Y1303140D01*
X1377116Y1298219D02*
G01Y1303140D01*
X1374557Y1298219D02*
G01Y1303140D01*
X1371998Y1298219D02*
G01Y1303140D01*
X1369439Y1298219D02*
G01Y1303140D01*
X1366880Y1298219D02*
G01Y1303140D01*
X1364321Y1298219D02*
G01Y1303140D01*
X1361762Y1298219D02*
G01Y1303140D01*
X1359203Y1298219D02*
G01Y1303140D01*
G54D213*
X1532500Y1333902D02*
G01Y1340201D01*
X1537500Y1333902D02*
G01Y1340201D01*
X1542500Y1333902D02*
G01Y1340201D01*
X1547500Y1333902D02*
G01Y1340201D01*
Y1352799D02*
G01Y1359098D01*
X1542500Y1352799D02*
G01Y1359098D01*
X1537500Y1352799D02*
G01Y1359098D01*
X1532500Y1352799D02*
G01Y1359098D01*
X1508598Y1092500D02*
G01X1502299D01*
X1508598Y1097500D02*
G01X1502299D01*
X1508598Y1102500D02*
G01X1502299D01*
X1508598Y1107500D02*
G01X1502299D01*
X1489701D02*
G01X1483402D01*
X1489701Y1102500D02*
G01X1483402D01*
X1489701Y1097500D02*
G01X1483402D01*
X1489701Y1092500D02*
G01X1483402D01*
X1382598Y1345000D02*
G01X1376299D01*
X1382598Y1350000D02*
G01X1376299D01*
X1382598Y1355000D02*
G01X1376299D01*
X1382598Y1360000D02*
G01X1376299D01*
X1363701D02*
G01X1357402D01*
X1363701Y1355000D02*
G01X1357402D01*
X1363701Y1350000D02*
G01X1357402D01*
X1363701Y1345000D02*
G01X1357402D01*
X1382598Y1320000D02*
G01X1376299D01*
X1382598Y1325000D02*
G01X1376299D01*
X1382598Y1330000D02*
G01X1376299D01*
X1382598Y1335000D02*
G01X1376299D01*
X1363701D02*
G01X1357402D01*
X1363701Y1330000D02*
G01X1357402D01*
X1363701Y1325000D02*
G01X1357402D01*
X1363701Y1320000D02*
G01X1357402D01*
X1198750Y1211402D02*
G01Y1217701D01*
X1203750Y1211402D02*
G01Y1217701D01*
X1208750Y1211402D02*
G01Y1217701D01*
X1213750Y1211402D02*
G01Y1217701D01*
Y1230299D02*
G01Y1236598D01*
X1208750Y1230299D02*
G01Y1236598D01*
X1203750Y1230299D02*
G01Y1236598D01*
X1198750Y1230299D02*
G01Y1236598D01*
X1209990Y1306250D02*
G01X1216683D01*
X1209990Y1301250D02*
G01X1216683D01*
X1209990Y1296250D02*
G01X1216683D01*
X1209990Y1291250D02*
G01X1216683D01*
X1209990Y1286250D02*
G01X1216683D01*
X1209990Y1281250D02*
G01X1216683D01*
X1209990Y1276250D02*
G01X1216683D01*
X1209990Y1271250D02*
G01X1216683D01*
X1209990Y1266250D02*
G01X1216683D01*
X1209990Y1261250D02*
G01X1216683D01*
X1245817D02*
G01X1252510D01*
X1245817Y1266250D02*
G01X1252510D01*
X1245817Y1271250D02*
G01X1252510D01*
X1245817Y1276250D02*
G01X1252510D01*
X1245817Y1281250D02*
G01X1252510D01*
X1245817Y1286250D02*
G01X1252510D01*
X1245817Y1291250D02*
G01X1252510D01*
X1245817Y1296250D02*
G01X1252510D01*
X1245817Y1301250D02*
G01X1252510D01*
X1245817Y1306250D02*
G01X1252510D01*
X1501260Y1114094D02*
G01Y1116457D01*
X1505000Y1114094D02*
G01Y1116457D01*
X1508740Y1114094D02*
G01Y1116457D01*
Y1123543D02*
G01Y1125906D01*
X1501260Y1123543D02*
G01Y1125906D01*
X1240000Y1147490D02*
G01Y1154183D01*
X1245000Y1147490D02*
G01Y1154183D01*
X1250000Y1147490D02*
G01Y1154183D01*
X1255000Y1147490D02*
G01Y1154183D01*
X1260000Y1147490D02*
G01Y1154183D01*
X1265000Y1147490D02*
G01Y1154183D01*
X1270000Y1147490D02*
G01Y1154183D01*
X1275000Y1147490D02*
G01Y1154183D01*
Y1183317D02*
G01Y1190010D01*
X1270000Y1183317D02*
G01Y1190010D01*
X1265000Y1183317D02*
G01Y1190010D01*
X1260000Y1183317D02*
G01Y1190010D01*
X1255000Y1183317D02*
G01Y1190010D01*
X1250000Y1183317D02*
G01Y1190010D01*
X1245000Y1183317D02*
G01Y1190010D01*
X1240000Y1183317D02*
G01Y1190010D01*
X1237500Y1054990D02*
G01Y1060502D01*
X1242500Y1054990D02*
G01Y1060502D01*
X1247500Y1054990D02*
G01Y1060502D01*
X1252500Y1054990D02*
G01Y1060502D01*
X1257500Y1054990D02*
G01Y1060502D01*
X1262500Y1054990D02*
G01Y1060502D01*
X1267500Y1054990D02*
G01Y1060502D01*
X1272500Y1054990D02*
G01Y1060502D01*
X1277500Y1054990D02*
G01Y1060502D01*
X1282500Y1054990D02*
G01Y1060502D01*
X1287500Y1054990D02*
G01Y1060502D01*
X1292500Y1054990D02*
G01Y1060502D01*
X1297500Y1054990D02*
G01Y1060502D01*
X1302500Y1054990D02*
G01Y1060502D01*
Y1091998D02*
G01Y1097510D01*
X1297500Y1091998D02*
G01Y1097510D01*
X1292500Y1091998D02*
G01Y1097510D01*
X1287500Y1091998D02*
G01Y1097510D01*
X1282500Y1091998D02*
G01Y1097510D01*
X1277500Y1091998D02*
G01Y1097510D01*
X1272500Y1091998D02*
G01Y1097510D01*
X1267500Y1091998D02*
G01Y1097510D01*
X1262500Y1091998D02*
G01Y1097510D01*
X1257500Y1091998D02*
G01Y1097510D01*
X1252500Y1091998D02*
G01Y1097510D01*
X1247500Y1091998D02*
G01Y1097510D01*
X1242500Y1091998D02*
G01Y1097510D01*
X1237500Y1091998D02*
G01Y1097510D01*
X1420000Y1406348D02*
G01Y1400049D01*
X1415000Y1406348D02*
G01Y1400049D01*
X1410000Y1406348D02*
G01Y1400049D01*
X1405000Y1406348D02*
G01Y1400049D01*
X1400000Y1406348D02*
G01Y1400049D01*
X1395000Y1406348D02*
G01Y1400049D01*
X1390000Y1406348D02*
G01Y1400049D01*
Y1387451D02*
G01Y1381152D01*
X1395000Y1387451D02*
G01Y1381152D01*
X1400000Y1387451D02*
G01Y1381152D01*
X1405000Y1387451D02*
G01Y1381152D01*
X1410000Y1387451D02*
G01Y1381152D01*
X1415000Y1387451D02*
G01Y1381152D01*
X1420000Y1387451D02*
G01Y1381152D01*
X1532500Y1333902D02*
G01Y1340201D01*
X1537500Y1333902D02*
G01Y1340201D01*
X1542500Y1333902D02*
G01Y1340201D01*
X1547500Y1333902D02*
G01Y1340201D01*
Y1352799D02*
G01Y1359098D01*
X1542500Y1352799D02*
G01Y1359098D01*
X1537500Y1352799D02*
G01Y1359098D01*
X1532500Y1352799D02*
G01Y1359098D01*
X1508598Y1092500D02*
G01X1502299D01*
X1508598Y1097500D02*
G01X1502299D01*
X1508598Y1102500D02*
G01X1502299D01*
X1508598Y1107500D02*
G01X1502299D01*
X1489701D02*
G01X1483402D01*
X1489701Y1102500D02*
G01X1483402D01*
X1489701Y1097500D02*
G01X1483402D01*
X1489701Y1092500D02*
G01X1483402D01*
X1382598Y1345000D02*
G01X1376299D01*
X1382598Y1350000D02*
G01X1376299D01*
X1382598Y1355000D02*
G01X1376299D01*
X1382598Y1360000D02*
G01X1376299D01*
X1363701D02*
G01X1357402D01*
X1363701Y1355000D02*
G01X1357402D01*
X1363701Y1350000D02*
G01X1357402D01*
X1363701Y1345000D02*
G01X1357402D01*
X1382598Y1320000D02*
G01X1376299D01*
X1382598Y1325000D02*
G01X1376299D01*
X1382598Y1330000D02*
G01X1376299D01*
X1382598Y1335000D02*
G01X1376299D01*
X1363701D02*
G01X1357402D01*
X1363701Y1330000D02*
G01X1357402D01*
X1363701Y1325000D02*
G01X1357402D01*
X1363701Y1320000D02*
G01X1357402D01*
X1198750Y1211402D02*
G01Y1217701D01*
X1203750Y1211402D02*
G01Y1217701D01*
X1208750Y1211402D02*
G01Y1217701D01*
X1213750Y1211402D02*
G01Y1217701D01*
Y1230299D02*
G01Y1236598D01*
X1208750Y1230299D02*
G01Y1236598D01*
X1203750Y1230299D02*
G01Y1236598D01*
X1198750Y1230299D02*
G01Y1236598D01*
X1209990Y1306250D02*
G01X1216683D01*
X1209990Y1301250D02*
G01X1216683D01*
X1209990Y1296250D02*
G01X1216683D01*
X1209990Y1291250D02*
G01X1216683D01*
X1209990Y1286250D02*
G01X1216683D01*
X1209990Y1281250D02*
G01X1216683D01*
X1209990Y1276250D02*
G01X1216683D01*
X1209990Y1271250D02*
G01X1216683D01*
X1209990Y1266250D02*
G01X1216683D01*
X1209990Y1261250D02*
G01X1216683D01*
X1245817D02*
G01X1252510D01*
X1245817Y1266250D02*
G01X1252510D01*
X1245817Y1271250D02*
G01X1252510D01*
X1245817Y1276250D02*
G01X1252510D01*
X1245817Y1281250D02*
G01X1252510D01*
X1245817Y1286250D02*
G01X1252510D01*
X1245817Y1291250D02*
G01X1252510D01*
X1245817Y1296250D02*
G01X1252510D01*
X1245817Y1301250D02*
G01X1252510D01*
X1245817Y1306250D02*
G01X1252510D01*
X1501260Y1114094D02*
G01Y1116457D01*
X1505000Y1114094D02*
G01Y1116457D01*
X1508740Y1114094D02*
G01Y1116457D01*
Y1123543D02*
G01Y1125906D01*
X1501260Y1123543D02*
G01Y1125906D01*
X1240000Y1147490D02*
G01Y1154183D01*
X1245000Y1147490D02*
G01Y1154183D01*
X1250000Y1147490D02*
G01Y1154183D01*
X1255000Y1147490D02*
G01Y1154183D01*
X1260000Y1147490D02*
G01Y1154183D01*
X1265000Y1147490D02*
G01Y1154183D01*
X1270000Y1147490D02*
G01Y1154183D01*
X1275000Y1147490D02*
G01Y1154183D01*
Y1183317D02*
G01Y1190010D01*
X1270000Y1183317D02*
G01Y1190010D01*
X1265000Y1183317D02*
G01Y1190010D01*
X1260000Y1183317D02*
G01Y1190010D01*
X1255000Y1183317D02*
G01Y1190010D01*
X1250000Y1183317D02*
G01Y1190010D01*
X1245000Y1183317D02*
G01Y1190010D01*
X1240000Y1183317D02*
G01Y1190010D01*
X1237500Y1054990D02*
G01Y1060502D01*
X1242500Y1054990D02*
G01Y1060502D01*
X1247500Y1054990D02*
G01Y1060502D01*
X1252500Y1054990D02*
G01Y1060502D01*
X1257500Y1054990D02*
G01Y1060502D01*
X1262500Y1054990D02*
G01Y1060502D01*
X1267500Y1054990D02*
G01Y1060502D01*
X1272500Y1054990D02*
G01Y1060502D01*
X1277500Y1054990D02*
G01Y1060502D01*
X1282500Y1054990D02*
G01Y1060502D01*
X1287500Y1054990D02*
G01Y1060502D01*
X1292500Y1054990D02*
G01Y1060502D01*
X1297500Y1054990D02*
G01Y1060502D01*
X1302500Y1054990D02*
G01Y1060502D01*
Y1091998D02*
G01Y1097510D01*
X1297500Y1091998D02*
G01Y1097510D01*
X1292500Y1091998D02*
G01Y1097510D01*
X1287500Y1091998D02*
G01Y1097510D01*
X1282500Y1091998D02*
G01Y1097510D01*
X1277500Y1091998D02*
G01Y1097510D01*
X1272500Y1091998D02*
G01Y1097510D01*
X1267500Y1091998D02*
G01Y1097510D01*
X1262500Y1091998D02*
G01Y1097510D01*
X1257500Y1091998D02*
G01Y1097510D01*
X1252500Y1091998D02*
G01Y1097510D01*
X1247500Y1091998D02*
G01Y1097510D01*
X1242500Y1091998D02*
G01Y1097510D01*
X1237500Y1091998D02*
G01Y1097510D01*
X1420000Y1406348D02*
G01Y1400049D01*
X1415000Y1406348D02*
G01Y1400049D01*
X1410000Y1406348D02*
G01Y1400049D01*
X1405000Y1406348D02*
G01Y1400049D01*
X1400000Y1406348D02*
G01Y1400049D01*
X1395000Y1406348D02*
G01Y1400049D01*
X1390000Y1406348D02*
G01Y1400049D01*
Y1387451D02*
G01Y1381152D01*
X1395000Y1387451D02*
G01Y1381152D01*
X1400000Y1387451D02*
G01Y1381152D01*
X1405000Y1387451D02*
G01Y1381152D01*
X1410000Y1387451D02*
G01Y1381152D01*
X1415000Y1387451D02*
G01Y1381152D01*
X1420000Y1387451D02*
G01Y1381152D01*
G54D214*
X1318071Y1426309D02*
G01X1319449D01*
X1318071Y1421191D02*
G01X1319449D01*
X1325551Y1423750D02*
G01X1326929D01*
X1318071Y1411309D02*
G01X1319449D01*
X1318071Y1406191D02*
G01X1319449D01*
X1325551Y1408750D02*
G01X1326929D01*
X1318071Y1396309D02*
G01X1319449D01*
X1318071Y1391191D02*
G01X1319449D01*
X1325551Y1393750D02*
G01X1326929D01*
X1327441Y1433071D02*
G01Y1434449D01*
X1332559Y1433071D02*
G01Y1434449D01*
X1330000Y1440551D02*
G01Y1441929D01*
X1318071Y1381309D02*
G01X1319449D01*
X1318071Y1376191D02*
G01X1319449D01*
X1325551Y1378750D02*
G01X1326929D01*
X1444321Y1467559D02*
G01X1445699D01*
X1444321Y1462441D02*
G01X1445699D01*
X1451801Y1465000D02*
G01X1453179D01*
X1460571Y1467559D02*
G01X1461949D01*
X1460571Y1462441D02*
G01X1461949D01*
X1468051Y1465000D02*
G01X1469429D01*
X1476821Y1467559D02*
G01X1478199D01*
X1476821Y1462441D02*
G01X1478199D01*
X1484301Y1465000D02*
G01X1485679D01*
X1493071Y1467559D02*
G01X1494449D01*
X1493071Y1462441D02*
G01X1494449D01*
X1500551Y1465000D02*
G01X1501929D01*
X1509321Y1467559D02*
G01X1510699D01*
X1509321Y1462441D02*
G01X1510699D01*
X1516801Y1465000D02*
G01X1518179D01*
X1525571Y1467559D02*
G01X1526949D01*
X1525571Y1462441D02*
G01X1526949D01*
X1533051Y1465000D02*
G01X1534429D01*
X1541821Y1467559D02*
G01X1543199D01*
X1541821Y1462441D02*
G01X1543199D01*
X1549301Y1465000D02*
G01X1550679D01*
X1558071Y1467559D02*
G01X1559449D01*
X1558071Y1462441D02*
G01X1559449D01*
X1565551Y1465000D02*
G01X1566929D01*
X1522559Y1298229D02*
G01Y1296851D01*
X1517441Y1298229D02*
G01Y1296851D01*
X1520000Y1290749D02*
G01Y1289371D01*
X1487559Y1298229D02*
G01Y1296851D01*
X1482441Y1298229D02*
G01Y1296851D01*
X1485000Y1290749D02*
G01Y1289371D01*
X1492071Y1068809D02*
G01X1493449D01*
X1492071Y1063691D02*
G01X1493449D01*
X1499551Y1066250D02*
G01X1500929D01*
X1243691Y1341871D02*
G01Y1343249D01*
X1248809Y1341871D02*
G01Y1343249D01*
X1246250Y1349351D02*
G01Y1350729D01*
X1228691Y1341871D02*
G01Y1343249D01*
X1233809Y1341871D02*
G01Y1343249D01*
X1231250Y1349351D02*
G01Y1350729D01*
X1217441Y1341871D02*
G01Y1343249D01*
X1222559Y1341871D02*
G01Y1343249D01*
X1220000Y1349351D02*
G01Y1350729D01*
X1318071Y1426309D02*
G01X1319449D01*
X1318071Y1421191D02*
G01X1319449D01*
X1325551Y1423750D02*
G01X1326929D01*
X1318071Y1411309D02*
G01X1319449D01*
X1318071Y1406191D02*
G01X1319449D01*
X1325551Y1408750D02*
G01X1326929D01*
X1318071Y1396309D02*
G01X1319449D01*
X1318071Y1391191D02*
G01X1319449D01*
X1325551Y1393750D02*
G01X1326929D01*
X1327441Y1433071D02*
G01Y1434449D01*
X1332559Y1433071D02*
G01Y1434449D01*
X1330000Y1440551D02*
G01Y1441929D01*
X1318071Y1381309D02*
G01X1319449D01*
X1318071Y1376191D02*
G01X1319449D01*
X1325551Y1378750D02*
G01X1326929D01*
X1444321Y1467559D02*
G01X1445699D01*
X1444321Y1462441D02*
G01X1445699D01*
X1451801Y1465000D02*
G01X1453179D01*
X1460571Y1467559D02*
G01X1461949D01*
X1460571Y1462441D02*
G01X1461949D01*
X1468051Y1465000D02*
G01X1469429D01*
X1476821Y1467559D02*
G01X1478199D01*
X1476821Y1462441D02*
G01X1478199D01*
X1484301Y1465000D02*
G01X1485679D01*
X1493071Y1467559D02*
G01X1494449D01*
X1493071Y1462441D02*
G01X1494449D01*
X1500551Y1465000D02*
G01X1501929D01*
X1509321Y1467559D02*
G01X1510699D01*
X1509321Y1462441D02*
G01X1510699D01*
X1516801Y1465000D02*
G01X1518179D01*
X1525571Y1467559D02*
G01X1526949D01*
X1525571Y1462441D02*
G01X1526949D01*
X1533051Y1465000D02*
G01X1534429D01*
X1541821Y1467559D02*
G01X1543199D01*
X1541821Y1462441D02*
G01X1543199D01*
X1549301Y1465000D02*
G01X1550679D01*
X1558071Y1467559D02*
G01X1559449D01*
X1558071Y1462441D02*
G01X1559449D01*
X1565551Y1465000D02*
G01X1566929D01*
X1522559Y1298229D02*
G01Y1296851D01*
X1517441Y1298229D02*
G01Y1296851D01*
X1520000Y1290749D02*
G01Y1289371D01*
X1487559Y1298229D02*
G01Y1296851D01*
X1482441Y1298229D02*
G01Y1296851D01*
X1485000Y1290749D02*
G01Y1289371D01*
X1492071Y1068809D02*
G01X1493449D01*
X1492071Y1063691D02*
G01X1493449D01*
X1499551Y1066250D02*
G01X1500929D01*
X1243691Y1341871D02*
G01Y1343249D01*
X1248809Y1341871D02*
G01Y1343249D01*
X1246250Y1349351D02*
G01Y1350729D01*
X1228691Y1341871D02*
G01Y1343249D01*
X1233809Y1341871D02*
G01Y1343249D01*
X1231250Y1349351D02*
G01Y1350729D01*
X1217441Y1341871D02*
G01Y1343249D01*
X1222559Y1341871D02*
G01Y1343249D01*
X1220000Y1349351D02*
G01Y1350729D01*
G54D215*
X1336240Y1113701D02*
G01Y1110354D01*
X1328760Y1113701D02*
G01Y1110354D01*
X1332500Y1104646D02*
G01Y1101299D01*
X1218760Y1050099D02*
G01Y1053446D01*
X1226240Y1050099D02*
G01Y1053446D01*
X1222500Y1059154D02*
G01Y1062501D01*
X1424901Y1423760D02*
G01X1421554D01*
X1424901Y1431240D02*
G01X1421554D01*
X1415846Y1427500D02*
G01X1412499D01*
X1271260Y1386299D02*
G01Y1389646D01*
X1278740Y1386299D02*
G01Y1389646D01*
X1275000Y1395354D02*
G01Y1398701D01*
X1336240Y1113701D02*
G01Y1110354D01*
X1328760Y1113701D02*
G01Y1110354D01*
X1332500Y1104646D02*
G01Y1101299D01*
X1218760Y1050099D02*
G01Y1053446D01*
X1226240Y1050099D02*
G01Y1053446D01*
X1222500Y1059154D02*
G01Y1062501D01*
X1424901Y1423760D02*
G01X1421554D01*
X1424901Y1431240D02*
G01X1421554D01*
X1415846Y1427500D02*
G01X1412499D01*
X1271260Y1386299D02*
G01Y1389646D01*
X1278740Y1386299D02*
G01Y1389646D01*
X1275000Y1395354D02*
G01Y1398701D01*
G54D217*
X1095000Y1197941D02*
G01Y1206241D01*
X1100000Y1197941D02*
G01Y1206241D01*
X1105000Y1197941D02*
G01Y1206241D01*
X1110000Y1197941D02*
G01Y1206241D01*
X1115000Y1197941D02*
G01Y1206241D01*
X1120000Y1197941D02*
G01Y1206241D01*
X1125000Y1197941D02*
G01Y1206241D01*
X1020000Y1197941D02*
G01Y1206241D01*
X1025000Y1197941D02*
G01Y1206241D01*
X1030000Y1197941D02*
G01Y1206241D01*
X1035000Y1197941D02*
G01Y1206241D01*
X1040000Y1197941D02*
G01Y1206241D01*
X1045000Y1197941D02*
G01Y1206241D01*
X1050000Y1197941D02*
G01Y1206241D01*
X1095000Y1197941D02*
G01Y1206241D01*
X1100000Y1197941D02*
G01Y1206241D01*
X1105000Y1197941D02*
G01Y1206241D01*
X1110000Y1197941D02*
G01Y1206241D01*
X1115000Y1197941D02*
G01Y1206241D01*
X1120000Y1197941D02*
G01Y1206241D01*
X1125000Y1197941D02*
G01Y1206241D01*
X1020000Y1197941D02*
G01Y1206241D01*
X1025000Y1197941D02*
G01Y1206241D01*
X1030000Y1197941D02*
G01Y1206241D01*
X1035000Y1197941D02*
G01Y1206241D01*
X1040000Y1197941D02*
G01Y1206241D01*
X1045000Y1197941D02*
G01Y1206241D01*
X1050000Y1197941D02*
G01Y1206241D01*
G54D218*
X1107650Y1238311D02*
G01X1112350D01*
X1032650D02*
G01X1037350D01*
X1107650D02*
G01X1112350D01*
X1032650D02*
G01X1037350D01*
G54D19*
X1128750Y1386870D02*
G01Y1388839D01*
Y1406161D02*
G01Y1408130D01*
X1163750Y1316870D02*
G01Y1318839D01*
Y1336161D02*
G01Y1338130D01*
X1146250Y1351870D02*
G01Y1353839D01*
Y1371161D02*
G01Y1373130D01*
X1128750Y1386870D02*
G01Y1388839D01*
Y1406161D02*
G01Y1408130D01*
X1163750Y1316870D02*
G01Y1318839D01*
Y1336161D02*
G01Y1338130D01*
X1146250Y1351870D02*
G01Y1353839D01*
Y1371161D02*
G01Y1373130D01*
G54D220*
X1105000Y1469419D02*
G01Y1468435D01*
Y1429065D02*
G01Y1428081D01*
X1035000Y1289331D02*
G01Y1290315D01*
Y1329685D02*
G01Y1330669D01*
X1110000Y1289331D02*
G01Y1290315D01*
Y1329685D02*
G01Y1330669D01*
X1105000Y1469419D02*
G01Y1468435D01*
Y1429065D02*
G01Y1428081D01*
X1035000Y1289331D02*
G01Y1290315D01*
Y1329685D02*
G01Y1330669D01*
X1110000Y1289331D02*
G01Y1290315D01*
Y1329685D02*
G01Y1330669D01*
G54D70*
X1530531Y1221250D02*
G01X1538209D01*
X1551791D02*
G01X1559469D01*
X1530531Y1211250D02*
G01X1538209D01*
X1551791D02*
G01X1559469D01*
X1530531Y1201250D02*
G01X1538209D01*
X1551791D02*
G01X1559469D01*
X1530531Y1191250D02*
G01X1538209D01*
X1551791D02*
G01X1559469D01*
X1530531Y1181250D02*
G01X1538209D01*
X1551791D02*
G01X1559469D01*
X1007500Y1045531D02*
G01Y1053209D01*
Y1066791D02*
G01Y1074469D01*
X1017500Y1045531D02*
G01Y1053209D01*
Y1066791D02*
G01Y1074469D01*
X1027500Y1045531D02*
G01Y1053209D01*
Y1066791D02*
G01Y1074469D01*
X1037500Y1045531D02*
G01Y1053209D01*
Y1066791D02*
G01Y1074469D01*
X1047500Y1045531D02*
G01Y1053209D01*
Y1066791D02*
G01Y1074469D01*
X1333415Y1172500D02*
G01X1325738D01*
X1311762D02*
G01X1304085D01*
X1333415Y1182500D02*
G01X1325738D01*
X1311762D02*
G01X1304085D01*
X1333415Y1192500D02*
G01X1325738D01*
X1311762D02*
G01X1304085D01*
X1530531Y1221250D02*
G01X1538209D01*
X1551791D02*
G01X1559469D01*
X1530531Y1211250D02*
G01X1538209D01*
X1551791D02*
G01X1559469D01*
X1530531Y1201250D02*
G01X1538209D01*
X1551791D02*
G01X1559469D01*
X1530531Y1191250D02*
G01X1538209D01*
X1551791D02*
G01X1559469D01*
X1530531Y1181250D02*
G01X1538209D01*
X1551791D02*
G01X1559469D01*
X1007500Y1045531D02*
G01Y1053209D01*
Y1066791D02*
G01Y1074469D01*
X1017500Y1045531D02*
G01Y1053209D01*
Y1066791D02*
G01Y1074469D01*
X1027500Y1045531D02*
G01Y1053209D01*
Y1066791D02*
G01Y1074469D01*
X1037500Y1045531D02*
G01Y1053209D01*
Y1066791D02*
G01Y1074469D01*
X1047500Y1045531D02*
G01Y1053209D01*
Y1066791D02*
G01Y1074469D01*
X1333415Y1172500D02*
G01X1325738D01*
X1311762D02*
G01X1304085D01*
X1333415Y1182500D02*
G01X1325738D01*
X1311762D02*
G01X1304085D01*
X1333415Y1192500D02*
G01X1325738D01*
X1311762D02*
G01X1304085D01*
G54D222*
X1353524Y1059108D02*
G01Y1061108D01*
X1371476Y1059108D02*
G01Y1061108D01*
X1353524Y1059108D02*
G01Y1061108D01*
X1371476Y1059108D02*
G01Y1061108D01*
G54D223*
X1362500Y1084302D02*
G01Y1086702D01*
Y1084302D02*
G01Y1086702D01*
G54D225*
X1128750Y1157000D02*
G01X1141250D01*
X1128750D02*
G01X1141250D01*
G54D229*
X1086900Y862874D02*
G03X1094774Y855000I7874D01*
Y855000D02*
G01X1456979D01*
Y855000D02*
G03X1464853Y862874J7874D01*
Y862874D02*
G01Y933740D01*
Y933740D02*
G03X1456979Y941614I-7874D01*
Y941614D02*
G01X1094774D01*
Y941614D02*
G03X1086900Y933740J-7874D01*
Y933740D02*
G01Y862874D01*
G54D230*
X1146599Y903277D02*
G01X1145525Y902785D01*
X1144810Y901309*
X1144452Y898848*
Y897372*
X1144810Y894911*
X1145525Y893435*
X1146599Y892942*
X1147315*
X1148389Y893435*
X1149105Y894911*
Y894911D02*
G01X1149462Y897372D01*
Y898848*
X1149105Y901309*
Y901309D02*
G01X1148389Y902785D01*
X1147315Y903277*
X1146599*
X1157336Y899832D02*
G01X1156979Y898356D01*
Y898356D02*
G01X1156263Y897372D01*
X1155189Y896879*
X1154831*
X1153757Y897372*
X1153042Y898356*
Y898356D02*
G01X1152684Y899832D01*
Y900324*
X1153042Y901801*
Y901801D02*
G01X1153757Y902785D01*
X1154831Y903277*
X1155189*
X1156263Y902785*
X1156979Y901801*
Y901801D02*
G01X1157336Y899832D01*
Y897372*
X1156979Y894911*
Y894911D02*
G01X1156263Y893435D01*
X1155189Y892942*
X1154473*
X1153399Y893435*
X1153042Y894419*
X1160558Y897372D02*
G01X1167000D01*
X1172369Y903277D02*
G01X1171295Y902785D01*
X1170579Y901309*
X1170221Y898848*
Y897372*
X1170579Y894911*
X1171295Y893435*
X1172369Y892942*
X1173084*
X1174158Y893435*
X1174874Y894911*
X1175232Y897372*
Y898848*
X1174874Y901309*
X1174158Y902785*
X1173084Y903277*
X1172369*
X1180601D02*
G01X1179527Y902785D01*
X1178811Y901309*
X1178453Y898848*
Y897372*
X1178811Y894911*
X1179527Y893435*
X1180601Y892942*
Y892942D02*
G01X1181316D01*
X1182390Y893435*
X1183106Y894911*
X1183464Y897372*
Y898848*
X1183106Y901309*
X1182390Y902785*
X1181316Y903277*
X1180601*
X1188832D02*
G01X1187759Y902785D01*
X1187043Y901309*
X1186685Y898848*
Y897372*
X1187043Y894911*
X1187759Y893435*
X1188832Y892942*
X1189548*
X1190622Y893435*
X1191338Y894911*
X1191696Y897372*
Y898848*
X1191338Y901309*
X1190622Y902785*
X1189548Y903277*
X1188832*
X1194917Y901309D02*
G01X1195633Y901801D01*
X1196706Y903277*
Y892942*
X1204223Y901801D02*
G01X1203865Y902785D01*
X1202791Y903277*
X1202075*
X1201001Y902785*
X1200286Y901309*
Y901309D02*
G01X1199928Y898848D01*
Y896387*
X1200286Y894419*
Y894419D02*
G01X1201001Y893435D01*
X1202075Y892942*
X1202433*
X1203507Y893435*
X1204223Y894419*
Y894419D02*
G01X1204580Y895895D01*
Y896387*
X1204223Y897864*
Y897864D02*
G01X1203507Y898848D01*
X1202433Y899340*
X1202075*
X1201001Y898848*
X1200286Y897864*
Y897864D02*
G01X1199928Y896387D01*
X1208160Y900816D02*
G01Y901309D01*
Y901309D02*
G01X1208517Y902293D01*
X1208875Y902785*
X1209591Y903277*
X1211023*
X1211739Y902785*
X1212097Y902293*
Y902293D02*
G01X1212454Y901309D01*
Y900324*
X1212097Y899340*
Y899340D02*
G01X1211381Y897864D01*
X1207802Y892942*
X1212812*
X1216034Y897372D02*
G01X1222476D01*
X1227845Y903277D02*
G01X1226771Y902785D01*
X1226055Y901309*
X1225697Y898848*
Y897372*
X1226055Y894911*
X1226771Y893435*
X1227845Y892942*
Y892942D02*
G01X1228560D01*
X1229634Y893435*
X1230350Y894911*
X1230708Y897372*
Y898848*
X1230350Y901309*
X1229634Y902785*
X1228560Y903277*
X1227845*
X1236076D02*
G01X1235003Y902785D01*
X1234287Y901309*
X1233929Y898848*
Y897372*
X1234287Y894911*
X1235003Y893435*
X1236076Y892942*
X1236792*
X1237866Y893435*
X1238582Y894911*
X1238940Y897372*
Y898848*
X1238582Y901309*
X1237866Y902785*
X1236792Y903277*
X1236076*
X1173084Y928869D02*
G01X1173800Y929361D01*
X1174874Y930837*
Y920502*
X1178453Y928376D02*
G01Y928869D01*
X1178811Y929853*
X1179169Y930345*
X1179885Y930837*
X1181316*
X1182032Y930345*
X1182390Y929853*
X1182748Y928869*
Y927884*
X1182390Y926900*
X1181674Y925424*
X1178095Y920502*
X1183106*
X1186327Y930837D02*
G01X1189190Y920502D01*
X1192054Y930837D02*
G01X1189190Y920502D01*
X1195275Y930837D02*
G01Y920502D01*
Y930837D02*
G01X1197780D01*
X1198854Y930345*
X1199570Y929361*
X1199928Y928376*
X1200286Y926900*
Y926900D02*
G01Y924439D01*
Y924439D02*
G01X1199928Y922963D01*
X1199570Y921979*
X1198854Y920995*
X1197780Y920502*
X1195275*
X1208875Y928376D02*
G01X1208517Y929361D01*
X1207802Y930345*
X1207086Y930837*
X1205654*
X1204938Y930345*
X1204223Y929361*
Y929361D02*
G01X1203865Y928376D01*
X1203507Y926900*
Y924439*
X1203865Y922963*
X1204223Y921979*
Y921979D02*
G01X1204938Y920995D01*
X1205654Y920502*
X1207086*
X1207802Y920995*
X1208517Y921979*
X1208875Y922963*
X1220328Y930837D02*
G01Y920502D01*
X1225339Y930837D02*
G01Y920502D01*
X1220328Y925916D02*
G01X1225339D01*
X1228560Y930837D02*
G01X1231424Y920502D01*
X1234287Y930837D02*
G01X1231424Y920502D01*
X1240371Y930837D02*
G01X1237508Y920502D01*
X1240371Y930837D02*
G01X1243235Y920502D01*
X1238582Y923947D02*
G01X1242161D01*
X1251824Y928376D02*
G01X1251467Y929361D01*
Y929361D02*
G01X1250751Y930345D01*
X1250035Y930837*
X1248603*
X1247887Y930345*
X1247172Y929361*
X1246814Y928376*
X1246456Y926900*
Y924439*
X1246814Y922963*
X1247172Y921979*
X1247887Y920995*
X1248603Y920502*
X1250035*
X1250751Y920995*
X1251467Y921979*
Y921979D02*
G01X1251824Y922963D01*
X1268646Y928376D02*
G01X1268288Y929361D01*
X1267572Y930345*
X1266857Y930837*
X1265425*
X1264709Y930345*
X1263993Y929361*
X1263635Y928376*
X1263278Y926900*
Y926900D02*
G01Y924439D01*
Y924439D02*
G01X1263635Y922963D01*
X1263993Y921979*
X1264709Y920995*
X1265425Y920502*
X1266857*
X1267572Y920995*
X1268288Y921979*
X1268646Y922963*
X1274015Y930837D02*
G01X1273299Y930345D01*
X1272583Y929361*
X1272225Y928376*
X1271867Y926900*
Y924439*
X1272225Y922963*
X1272583Y921979*
X1273299Y920995*
X1274015Y920502*
X1275446*
X1276162Y920995*
X1276878Y921979*
X1277236Y922963*
X1277594Y924439*
Y926900*
X1277236Y928376*
X1276878Y929361*
X1276162Y930345*
X1275446Y930837*
X1274015*
X1280815D02*
G01Y920502D01*
Y930837D02*
G01X1285826Y920502D01*
Y930837D02*
G01Y920502D01*
X1291552Y930837D02*
G01Y920502D01*
X1289047Y930837D02*
G01X1294058D01*
X1297279D02*
G01Y920502D01*
Y930837D02*
G01X1300500D01*
X1301574Y930345*
X1301932Y929853*
X1302290Y928869*
Y927884*
X1301932Y926900*
X1301574Y926408*
X1300500Y925916*
X1297279*
X1299784D02*
G01X1302290Y920502D01*
X1307658Y930837D02*
G01X1306942Y930345D01*
X1306227Y929361*
X1305869Y928376*
X1305511Y926900*
Y924439*
X1305869Y922963*
X1306227Y921979*
X1306942Y920995*
X1307658Y920502*
X1309090*
X1309806Y920995*
X1310522Y921979*
Y921979D02*
G01X1310879Y922963D01*
X1311237Y924439*
Y926900*
X1310879Y928376*
X1310522Y929361*
Y929361D02*
G01X1309806Y930345D01*
X1309090Y930837*
X1307658*
X1314459D02*
G01Y920502D01*
Y920502D02*
G01X1318753D01*
X1321975Y930837D02*
G01Y920502D01*
X1326270*
X1329491Y930837D02*
G01Y920502D01*
Y930837D02*
G01X1334144D01*
X1329491Y925916D02*
G01X1332354D01*
X1329491Y920502D02*
G01X1334144D01*
X1337365Y930837D02*
G01Y920502D01*
Y930837D02*
G01X1340586D01*
X1341660Y930345*
X1342018Y929853*
Y929853D02*
G01X1342375Y928869D01*
Y927884*
X1342018Y926900*
Y926900D02*
G01X1341660Y926408D01*
X1340586Y925916*
X1337365*
X1339870D02*
G01X1342375Y920502D01*
X1353829Y930837D02*
G01Y920502D01*
Y930837D02*
G01X1357050D01*
X1358123Y930345*
X1358481Y929853*
X1358839Y928869*
Y927392*
X1358481Y926408*
X1358123Y925916*
X1357050Y925424*
X1353829*
X1367429Y928376D02*
G01X1367071Y929361D01*
X1366355Y930345*
X1365640Y930837*
Y930837D02*
G01X1364208D01*
X1363492Y930345*
X1362776Y929361*
X1362418Y928376*
X1362060Y926900*
Y924439*
X1362418Y922963*
X1362776Y921979*
X1363492Y920995*
X1364208Y920502*
X1365640*
Y920502D02*
G01X1366355Y920995D01*
X1367071Y921979*
X1367429Y922963*
X1370650Y930837D02*
G01Y920502D01*
Y930837D02*
G01X1373871D01*
X1374945Y930345*
X1375303Y929853*
X1375661Y928869*
Y927884*
X1375303Y926900*
X1374945Y926408*
X1373871Y925916*
X1370650D02*
G01X1373871D01*
X1374945Y925424*
X1375303Y924932*
X1375661Y923947*
Y922471*
X1375303Y921487*
X1374945Y920995*
X1373871Y920502*
X1370650*
X1358231Y900816D02*
G01Y901309D01*
X1358589Y902293*
X1358947Y902785*
X1359663Y903277*
X1361094*
X1361810Y902785*
X1362168Y902293*
X1362526Y901309*
Y900324*
X1362168Y899340*
X1361452Y897864*
X1357873Y892942*
X1362884*
X1369684Y903277D02*
G01X1366105Y896387D01*
X1371474*
X1369684Y903277D02*
G01Y892942D01*
X1374695Y897372D02*
G01X1381137D01*
X1384359Y903277D02*
G01Y892942D01*
Y903277D02*
G01X1387222Y892942D01*
X1390085Y903277D02*
G01X1387222Y892942D01*
X1390085Y903277D02*
G01Y892942D01*
X1396170Y903277D02*
G01X1393306Y892942D01*
X1396170Y903277D02*
G01X1399033Y892942D01*
X1394380Y896387D02*
G01X1397959D01*
X1402254Y903277D02*
G01Y892942D01*
Y903277D02*
G01X1405475D01*
X1406549Y902785*
X1406907Y902293*
X1407265Y901309*
Y900324*
X1406907Y899340*
X1406549Y898848*
X1405475Y898356*
X1402254*
X1404759D02*
G01X1407265Y892942D01*
X1410486Y897372D02*
G01X1416928D01*
X1422297Y903277D02*
G01X1421223Y902785D01*
X1420507Y901309*
X1420149Y898848*
Y897372*
X1420507Y894911*
X1421223Y893435*
X1422297Y892942*
X1423013*
X1424086Y893435*
X1424802Y894911*
X1425160Y897372*
Y898848*
X1424802Y901309*
X1424086Y902785*
X1423013Y903277*
X1422297*
X1430171D02*
G01X1429097Y902785D01*
X1428739Y901801*
Y900816*
X1429097Y899832*
X1429813Y899340*
X1431245Y898848*
X1432318Y898356*
X1433034Y897372*
X1433392Y896387*
Y894911*
X1433034Y893927*
X1432676Y893435*
X1431603Y892942*
X1430171*
X1429097Y893435*
X1428739Y893927*
X1428381Y894911*
Y896387*
X1428739Y897372*
X1429455Y898356*
X1430529Y898848*
X1431960Y899340*
X1432676Y899832*
X1433034Y900816*
Y901801*
X1432676Y902785*
X1431603Y903277*
X1430171*
X1288797D02*
G01X1285934Y892942D01*
X1288797Y903277D02*
G01X1291660Y892942D01*
X1287007Y896387D02*
G01X1290586D01*
X1297745Y903277D02*
G01X1294881Y892942D01*
X1297745Y903277D02*
G01X1300608Y892942D01*
X1295955Y896387D02*
G01X1299534D01*
X1101511Y872858D02*
G01X1100795Y873843D01*
Y873843D02*
G01X1099721Y874335D01*
X1098290*
X1097216Y873843*
Y873843D02*
G01X1096500Y872858D01*
Y871874*
X1096858Y870890*
X1097216Y870398*
X1097932Y869906*
Y869906D02*
G01X1100079Y868921D01*
X1100795Y868429*
X1101153Y867937*
X1101511Y866953*
Y865476*
X1100795Y864492*
X1099721Y864000*
X1098290*
X1097216Y864492*
X1096500Y865476*
X1106879Y874335D02*
G01X1106164Y873843D01*
Y873843D02*
G01X1105448Y872858D01*
X1105090Y871874*
X1104732Y870398*
Y867937*
X1105090Y866461*
X1105448Y865476*
X1106164Y864492*
X1106879Y864000*
X1108311*
X1109027Y864492*
X1109743Y865476*
X1110101Y866461*
X1110458Y867937*
Y870398*
X1110101Y871874*
X1109743Y872858*
X1109027Y873843*
Y873843D02*
G01X1108311Y874335D01*
X1106879*
X1113680D02*
G01Y864000D01*
X1117975*
X1121196Y874335D02*
G01Y864000D01*
Y874335D02*
G01X1123701D01*
X1124775Y873843*
Y873843D02*
G01X1125491Y872858D01*
X1125849Y871874*
X1126206Y870398*
Y867937*
X1125849Y866461*
X1125491Y865476*
X1124775Y864492*
X1123701Y864000*
X1121196*
X1129428Y874335D02*
G01Y864000D01*
Y874335D02*
G01X1134080D01*
X1129428Y869413D02*
G01X1132291D01*
X1129428Y864000D02*
G01X1134080D01*
X1137302Y874335D02*
G01Y864000D01*
Y874335D02*
G01X1140523D01*
X1141597Y873843*
Y873843D02*
G01X1141954Y873350D01*
X1142312Y872366*
Y871382*
X1141954Y870398*
X1141597Y869906*
Y869906D02*
G01X1140523Y869413D01*
X1137302*
X1139807D02*
G01X1142312Y864000D01*
X1153765Y874335D02*
G01Y864000D01*
Y874335D02*
G01X1156629Y864000D01*
X1159492Y874335D02*
G01X1156629Y864000D01*
X1159492Y874335D02*
G01Y864000D01*
X1165576Y874335D02*
G01X1162713Y864000D01*
X1165576Y874335D02*
G01X1168440Y864000D01*
X1163787Y867445D02*
G01X1167366D01*
X1176672Y872858D02*
G01X1175956Y873843D01*
Y873843D02*
G01X1174882Y874335D01*
X1173450*
X1172377Y873843*
Y873843D02*
G01X1171661Y872858D01*
Y871874*
X1172019Y870890*
X1172377Y870398*
X1173093Y869906*
Y869906D02*
G01X1175240Y868921D01*
X1175956Y868429*
X1176314Y867937*
X1176672Y866953*
Y865476*
X1175956Y864492*
X1174882Y864000*
X1173450*
X1172377Y864492*
X1171661Y865476*
X1179893Y874335D02*
G01Y864000D01*
X1184904Y874335D02*
G01X1179893Y867445D01*
X1181682Y869906D02*
G01X1184904Y864000D01*
X1198862Y876303D02*
G01X1198146Y875319D01*
X1197430Y873843*
Y873843D02*
G01X1196715Y871874D01*
X1196357Y869413*
Y867445*
X1196715Y864984*
X1197430Y863016*
X1198146Y861539*
X1198862Y860555*
X1204589Y874335D02*
G01Y864000D01*
X1202083Y874335D02*
G01X1207094D01*
X1212463D02*
G01X1211747Y873843D01*
Y873843D02*
G01X1211031Y872858D01*
X1210673Y871874*
X1210315Y870398*
Y867937*
X1210673Y866461*
X1211031Y865476*
X1211747Y864492*
X1212463Y864000*
X1213894*
X1214610Y864492*
X1215326Y865476*
X1215684Y866461*
X1216042Y867937*
Y870398*
X1215684Y871874*
X1215326Y872858*
X1214610Y873843*
Y873843D02*
G01X1213894Y874335D01*
X1212463*
X1219263D02*
G01Y864000D01*
Y874335D02*
G01X1222484D01*
X1223558Y873843*
Y873843D02*
G01X1223916Y873350D01*
X1224274Y872366*
Y870890*
X1223916Y869906*
Y869906D02*
G01X1223558Y869413D01*
X1222484Y868921*
X1219263*
X1240737Y872858D02*
G01X1240022Y873843D01*
Y873843D02*
G01X1238948Y874335D01*
X1237516*
X1236442Y873843*
Y873843D02*
G01X1235727Y872858D01*
Y871874*
X1236085Y870890*
X1236442Y870398*
X1237158Y869906*
Y869906D02*
G01X1239306Y868921D01*
X1240022Y868429*
X1240379Y867937*
X1240737Y866953*
Y865476*
X1240022Y864492*
X1238948Y864000*
X1237516*
X1236442Y864492*
X1235727Y865476*
X1243959Y874335D02*
G01Y864000D01*
X1247180Y874335D02*
G01Y864000D01*
Y874335D02*
G01X1249685D01*
X1250759Y873843*
Y873843D02*
G01X1251475Y872858D01*
X1251833Y871874*
X1252190Y870398*
Y867937*
X1251833Y866461*
X1251475Y865476*
X1250759Y864492*
X1249685Y864000*
X1247180*
X1255412Y874335D02*
G01Y864000D01*
Y874335D02*
G01X1260064D01*
X1255412Y869413D02*
G01X1258275D01*
X1255412Y864000D02*
G01X1260064D01*
X1263286Y876303D02*
G01X1264001Y875319D01*
X1264717Y873843*
Y873843D02*
G01X1265433Y871874D01*
X1265791Y869413*
Y867445*
X1265433Y864984*
X1264717Y863016*
X1264001Y861539*
X1263286Y860555*
X1409900Y873335D02*
G01Y863000D01*
Y873335D02*
G01X1412763Y863000D01*
X1415627Y873335D02*
G01X1412763Y863000D01*
X1415627Y873335D02*
G01Y863000D01*
X1421353Y873335D02*
G01Y863000D01*
X1418848Y873335D02*
G01X1423858D01*
G54D235*
X1145000Y1185936D02*
G01Y1180032D01*
X1140000Y1185936D02*
G01Y1180032D01*
X1135000Y1185936D02*
G01Y1180032D01*
X1130000Y1185936D02*
G01Y1180032D01*
X1125000Y1185936D02*
G01Y1180032D01*
Y1133968D02*
G01Y1128064D01*
X1130000Y1133968D02*
G01Y1128064D01*
X1135000Y1133968D02*
G01Y1128064D01*
X1140000Y1133968D02*
G01Y1128064D01*
X1145000Y1133968D02*
G01Y1128064D01*
Y1185936D02*
G01Y1180032D01*
X1140000Y1185936D02*
G01Y1180032D01*
X1135000Y1185936D02*
G01Y1180032D01*
X1130000Y1185936D02*
G01Y1180032D01*
X1125000Y1185936D02*
G01Y1180032D01*
Y1133968D02*
G01Y1128064D01*
X1130000Y1133968D02*
G01Y1128064D01*
X1135000Y1133968D02*
G01Y1128064D01*
X1140000Y1133968D02*
G01Y1128064D01*
X1145000Y1133968D02*
G01Y1128064D01*
G54D236*
X1520173Y1092717D02*
G01Y1094685D01*
X1541827Y1092717D02*
G01Y1094685D01*
Y1105315D02*
G01Y1107283D01*
X1520173Y1105315D02*
G01Y1107283D01*
Y1092717D02*
G01Y1094685D01*
X1541827Y1092717D02*
G01Y1094685D01*
Y1105315D02*
G01Y1107283D01*
X1520173Y1105315D02*
G01Y1107283D01*
G54D71*
X1521869Y1136250D02*
G01X1518839D01*
X1521869Y1141250D02*
G01X1518839D01*
X1521869Y1146250D02*
G01X1518839D01*
X1521869Y1151250D02*
G01X1518839D01*
X1491161D02*
G01X1488131D01*
X1491161Y1146250D02*
G01X1488131D01*
X1491161Y1141250D02*
G01X1488131D01*
X1491161Y1136250D02*
G01X1488131D01*
X1521869D02*
G01X1518839D01*
X1521869Y1141250D02*
G01X1518839D01*
X1521869Y1146250D02*
G01X1518839D01*
X1521869Y1151250D02*
G01X1518839D01*
X1491161D02*
G01X1488131D01*
X1491161Y1146250D02*
G01X1488131D01*
X1491161Y1141250D02*
G01X1488131D01*
X1491161Y1136250D02*
G01X1488131D01*
G54D20*
X1059606Y1491043D02*
G01Y1483957D01*
X1010394Y1491043D02*
G01Y1483957D01*
X1059606Y1413543D02*
G01Y1406457D01*
X1010394Y1413543D02*
G01Y1406457D01*
X1059606Y1491043D02*
G01Y1483957D01*
X1010394Y1491043D02*
G01Y1483957D01*
X1059606Y1413543D02*
G01Y1406457D01*
X1010394Y1413543D02*
G01Y1406457D01*
M02*
