G04 CAM350 V9.5.2 (Build 226) Date:  Tue Mar 25 13:38:36 2008 *
G04 Database: C:\cvsroot\ElectronicHardwareDesign\Schematics\09-000162-01(12V_HVAC_CONT)\PCB\FAB_AA\09-000162-00_AA.cam *
G04 Layer 7: 09-000162-00PT_ *
%FSLAX35Y35*%
%MOIN*%
%SFA1.000B1.000*%

%MIA0B0*%
%IPPOS*%
%ADD13C,0.01000*%
%ADD14C,0.00500*%
%ADD15R,0.03937X0.03937*%
%ADD16R,0.03543X0.03543*%
%ADD17R,0.06299X0.06299*%
%ADD18R,0.09449X0.09449*%
%ADD19R,0.09843X0.09843*%
%ADD70R,0.04921X0.04921*%
%ADD71R,0.01969X0.01969*%
%ADD20R,0.30709X0.30709*%
%ADD90C,0.01200*%
%ADD93C,0.00400*%
%ADD146C,0.01600*%
%ADD162R,0.08300X0.08300*%
%ADD172C,0.00787*%
%ADD185C,0.00984*%
%ADD193R,0.07874X0.07874*%
%ADD194C,0.00394*%
%ADD196C,0.00984*%
%ADD205R,0.07874X0.07874*%
%ADD206R,0.05118X0.05118*%
%ADD208R,0.04724X0.04724*%
%ADD211C,0.01772*%
%ADD213C,0.02362*%
%ADD214C,0.01969*%
%ADD215C,0.02559*%
%ADD216R,0.03150X0.03150*%
%ADD217R,0.03900X0.03900*%
%ADD220R,0.16732X0.16732*%
%ADD222R,0.04700X0.04700*%
%ADD229C,0.01969*%
%ADD230C,0.01575*%
%ADD235C,0.02756*%
%ADD236R,0.05906X0.05906*%
%ADD240C,0.00039*%
%LN09-000162-00PT_*%
%LPD*%
G54D15*
X1107500Y1143346D03*
Y1136654D03*
X1166154Y1476000D03*
X1172846D03*
X1166154Y1469000D03*
X1172846D03*
X1166154Y1462000D03*
X1172846D03*
X1060000Y1143346D03*
Y1136654D03*
X1012096Y1261250D03*
X1005404D03*
X1064346D03*
X1057654D03*
X1056210Y1549154D03*
Y1555846D03*
X1100846Y1261250D03*
X1094154D03*
X1102346Y1393500D03*
X1095654D03*
X1475000Y1369596D03*
Y1362904D03*
X1485000Y1369596D03*
Y1362904D03*
X1497500Y1409596D03*
Y1402904D03*
X1462500Y1409596D03*
Y1402904D03*
X1457500Y1369596D03*
Y1362904D03*
X1547904Y1363750D03*
X1554596D03*
X1543346Y1327500D03*
X1536654D03*
X1534596Y1370000D03*
X1527904D03*
X1542604D03*
X1549296D03*
X1556250Y1409596D03*
Y1402904D03*
X1521250Y1409596D03*
Y1402904D03*
X1515000Y1369596D03*
Y1362904D03*
X1483750Y1240846D03*
Y1234154D03*
X1465000Y1213346D03*
Y1206654D03*
X1516654Y1277500D03*
X1523346D03*
X1503750Y1290454D03*
Y1297146D03*
X1468750Y1290454D03*
Y1297146D03*
X1547954Y1270000D03*
X1554646D03*
X1346250Y1349596D03*
Y1342904D03*
Y1324596D03*
Y1317904D03*
X1422500Y1336654D03*
Y1343346D03*
X1406654Y1333750D03*
X1413346D03*
X1406654Y1346250D03*
X1413346D03*
X1565846Y1474000D03*
X1559154D03*
X1533346D03*
X1526654D03*
X1549596D03*
X1542904D03*
X1517096D03*
X1510404D03*
X1500846D03*
X1494154D03*
X1562500Y1500404D03*
Y1507096D03*
X1530000Y1500404D03*
Y1507096D03*
X1546250Y1500404D03*
Y1507096D03*
X1513750Y1500404D03*
Y1507096D03*
X1497500Y1500404D03*
Y1507096D03*
X1484596Y1474000D03*
X1477904D03*
X1452096D03*
X1445404D03*
X1468346D03*
X1461654D03*
X1481250Y1500404D03*
Y1507096D03*
X1448750Y1500404D03*
Y1507096D03*
X1465000Y1500404D03*
Y1507096D03*
X1343346Y1408750D03*
X1336654D03*
X1343346Y1378750D03*
X1336654D03*
X1343346Y1393750D03*
X1336654D03*
X1343346Y1423750D03*
X1336654D03*
X1374154Y1412500D03*
X1380846D03*
X1374154Y1382500D03*
X1380846D03*
X1374154Y1397500D03*
X1380846D03*
X1427500Y1375846D03*
Y1369154D03*
X1374154Y1427500D03*
X1380846D03*
X1360000Y1191654D03*
Y1198346D03*
X1342946Y1307500D03*
X1336254D03*
X1444500Y1296654D03*
Y1303346D03*
X1447904Y1242500D03*
X1454596D03*
X1079154Y1048750D03*
X1085846D03*
X1218750Y1114596D03*
Y1107904D03*
X1061250Y1067096D03*
Y1060404D03*
X1100000Y1050846D03*
Y1044154D03*
X1218750Y1128346D03*
Y1121654D03*
X1298750Y1503346D03*
Y1496654D03*
X1291250Y1503346D03*
Y1496654D03*
X1227500Y1459646D03*
Y1452954D03*
X1232500Y1489646D03*
Y1482954D03*
X1215000Y1459646D03*
Y1452954D03*
X1221250Y1459646D03*
Y1452954D03*
X1232500Y1170846D03*
Y1164154D03*
X1256250Y1380846D03*
Y1374154D03*
X1396250Y1162096D03*
Y1155404D03*
X1408750Y1148346D03*
Y1141654D03*
X1387500Y1162096D03*
Y1155404D03*
X1491250Y1123346D03*
Y1116654D03*
X1403750Y1079546D03*
Y1072854D03*
X1178750Y1067046D03*
Y1060354D03*
Y1035846D03*
Y1029154D03*
X1492854Y1085000D03*
X1499546D03*
X1202954Y1202500D03*
X1209646D03*
X1382854Y1142500D03*
X1389546D03*
X1210454Y1073750D03*
X1217146D03*
X1242500Y1319154D03*
Y1325846D03*
X1248750Y1452954D03*
Y1459646D03*
Y1472954D03*
Y1479646D03*
X1393750Y1496654D03*
Y1503346D03*
X1386250Y1496654D03*
Y1503346D03*
X1378750Y1496654D03*
Y1503346D03*
X1371250Y1496654D03*
Y1503346D03*
X1363750Y1496654D03*
Y1503346D03*
X1356250Y1496654D03*
Y1503346D03*
X1326250Y1496654D03*
Y1503346D03*
X1401250Y1496654D03*
Y1503346D03*
X1348750Y1496654D03*
Y1503346D03*
X1341250Y1496654D03*
Y1503346D03*
X1333750Y1496654D03*
Y1503346D03*
X1318750Y1496654D03*
Y1503346D03*
X1231250Y1356654D03*
Y1363346D03*
X1246250Y1356654D03*
Y1363346D03*
X1220000Y1356654D03*
Y1363346D03*
X1292500Y1192904D03*
Y1199596D03*
X1518750Y1116654D03*
Y1123346D03*
X1252146Y1491250D03*
X1245454D03*
X1252146Y1501250D03*
X1245454D03*
X1352146Y1172500D03*
X1345454D03*
X1402046Y1142500D03*
X1395354D03*
X1380846Y1162500D03*
X1374154D03*
X1338346Y1261250D03*
X1331654D03*
X1380846Y1177500D03*
X1374154D03*
G54D216*
X1416250Y1103150D03*
Y1096850D03*
X1167500Y1145600D03*
Y1151900D03*
X1428750Y1103150D03*
Y1096850D03*
G54D13*
X1108000Y1254500D02*
G01X1091000D01*
Y1239500*
X1108000*
Y1254500*
X1091000Y1239500D02*
G01Y1254500D01*
X1091500Y1239500D02*
G01Y1254500D01*
X1092000Y1239500D02*
G01Y1254500D01*
X1092500Y1239500D02*
G01Y1254500D01*
X1093000Y1239500D02*
G01Y1254500D01*
X1093500Y1239500D02*
G01Y1254500D01*
X1094000Y1239500D02*
G01Y1254500D01*
X1094500Y1239500D02*
G01Y1254500D01*
X1095000Y1239500D02*
G01Y1254500D01*
X1095500Y1239500D02*
G01Y1254500D01*
X1096000Y1239500D02*
G01Y1254500D01*
X1096500Y1239500D02*
G01Y1254500D01*
X1097000Y1239500D02*
G01Y1254500D01*
X1097500Y1239500D02*
G01Y1254500D01*
X1098000Y1239500D02*
G01Y1254500D01*
X1098500Y1239500D02*
G01Y1254500D01*
X1099000Y1239500D02*
G01Y1254500D01*
X1099500Y1239500D02*
G01Y1254500D01*
X1100000Y1239500D02*
G01Y1254500D01*
X1100500Y1239500D02*
G01Y1254500D01*
X1101000Y1239500D02*
G01Y1254500D01*
X1101500Y1239500D02*
G01Y1254500D01*
X1102000Y1239500D02*
G01Y1254500D01*
X1102500Y1239500D02*
G01Y1254500D01*
X1103000Y1239500D02*
G01Y1254500D01*
X1103500Y1239500D02*
G01Y1254500D01*
X1104000Y1239500D02*
G01Y1254500D01*
X1104500Y1239500D02*
G01Y1254500D01*
X1105000Y1239500D02*
G01Y1254500D01*
X1105500Y1239500D02*
G01Y1254500D01*
X1106000Y1239500D02*
G01Y1254500D01*
X1106500Y1239500D02*
G01Y1254500D01*
X1107000Y1239500D02*
G01Y1254500D01*
X1107500Y1239500D02*
G01Y1254500D01*
X1129000D02*
G01X1112000D01*
Y1239500*
X1129000*
Y1254500*
X1112000Y1239500D02*
G01Y1254500D01*
X1112500Y1239500D02*
G01Y1254500D01*
X1113000Y1239500D02*
G01Y1254500D01*
X1113500Y1239500D02*
G01Y1254500D01*
X1114000Y1239500D02*
G01Y1254500D01*
X1114500Y1239500D02*
G01Y1254500D01*
X1115000Y1239500D02*
G01Y1254500D01*
X1115500Y1239500D02*
G01Y1254500D01*
X1116000Y1239500D02*
G01Y1254500D01*
X1116500Y1239500D02*
G01Y1254500D01*
X1117000Y1239500D02*
G01Y1254500D01*
X1117500Y1239500D02*
G01Y1254500D01*
X1118000Y1239500D02*
G01Y1254500D01*
X1118500Y1239500D02*
G01Y1254500D01*
X1119000Y1239500D02*
G01Y1254500D01*
X1119500Y1239500D02*
G01Y1254500D01*
X1120000Y1239500D02*
G01Y1254500D01*
X1120500Y1239500D02*
G01Y1254500D01*
X1121000Y1239500D02*
G01Y1254500D01*
X1121500Y1239500D02*
G01Y1254500D01*
X1122000Y1239500D02*
G01Y1254500D01*
X1122500Y1239500D02*
G01Y1254500D01*
X1123000Y1239500D02*
G01Y1254500D01*
X1123500Y1239500D02*
G01Y1254500D01*
X1124000Y1239500D02*
G01Y1254500D01*
X1124500Y1239500D02*
G01Y1254500D01*
X1125000Y1239500D02*
G01Y1254500D01*
X1125500Y1239500D02*
G01Y1254500D01*
X1126000Y1239500D02*
G01Y1254500D01*
X1126500Y1239500D02*
G01Y1254500D01*
X1127000Y1239500D02*
G01Y1254500D01*
X1127500Y1239500D02*
G01Y1254500D01*
X1128000Y1239500D02*
G01Y1254500D01*
X1128500Y1239500D02*
G01Y1254500D01*
X1129000Y1236500D02*
G01X1112000D01*
Y1221500*
X1129000*
Y1236500*
X1112000Y1221500D02*
G01Y1236500D01*
X1112500Y1221500D02*
G01Y1236500D01*
X1113000Y1221500D02*
G01Y1236500D01*
X1113500Y1221500D02*
G01Y1236500D01*
X1114000Y1221500D02*
G01Y1236500D01*
X1114500Y1221500D02*
G01Y1236500D01*
X1115000Y1221500D02*
G01Y1236500D01*
X1115500Y1221500D02*
G01Y1236500D01*
X1116000Y1221500D02*
G01Y1236500D01*
X1116500Y1221500D02*
G01Y1236500D01*
X1117000Y1221500D02*
G01Y1236500D01*
X1117500Y1221500D02*
G01Y1236500D01*
X1118000Y1221500D02*
G01Y1236500D01*
X1118500Y1221500D02*
G01Y1236500D01*
X1119000Y1221500D02*
G01Y1236500D01*
X1119500Y1221500D02*
G01Y1236500D01*
X1120000Y1221500D02*
G01Y1236500D01*
X1120500Y1221500D02*
G01Y1236500D01*
X1121000Y1221500D02*
G01Y1236500D01*
X1121500Y1221500D02*
G01Y1236500D01*
X1122000Y1221500D02*
G01Y1236500D01*
X1122500Y1221500D02*
G01Y1236500D01*
X1123000Y1221500D02*
G01Y1236500D01*
X1123500Y1221500D02*
G01Y1236500D01*
X1124000Y1221500D02*
G01Y1236500D01*
X1124500Y1221500D02*
G01Y1236500D01*
X1125000Y1221500D02*
G01Y1236500D01*
X1125500Y1221500D02*
G01Y1236500D01*
X1126000Y1221500D02*
G01Y1236500D01*
X1126500Y1221500D02*
G01Y1236500D01*
X1127000Y1221500D02*
G01Y1236500D01*
X1127500Y1221500D02*
G01Y1236500D01*
X1128000Y1221500D02*
G01Y1236500D01*
X1128500Y1221500D02*
G01Y1236500D01*
X1108000D02*
G01X1091000D01*
Y1221500*
X1108000*
Y1236500*
X1091000Y1221500D02*
G01Y1236500D01*
X1091500Y1221500D02*
G01Y1236500D01*
X1092000Y1221500D02*
G01Y1236500D01*
X1092500Y1221500D02*
G01Y1236500D01*
X1093000Y1221500D02*
G01Y1236500D01*
X1093500Y1221500D02*
G01Y1236500D01*
X1094000Y1221500D02*
G01Y1236500D01*
X1094500Y1221500D02*
G01Y1236500D01*
X1095000Y1221500D02*
G01Y1236500D01*
X1095500Y1221500D02*
G01Y1236500D01*
X1096000Y1221500D02*
G01Y1236500D01*
X1096500Y1221500D02*
G01Y1236500D01*
X1097000Y1221500D02*
G01Y1236500D01*
X1097500Y1221500D02*
G01Y1236500D01*
X1098000Y1221500D02*
G01Y1236500D01*
X1098500Y1221500D02*
G01Y1236500D01*
X1099000Y1221500D02*
G01Y1236500D01*
X1099500Y1221500D02*
G01Y1236500D01*
X1100000Y1221500D02*
G01Y1236500D01*
X1100500Y1221500D02*
G01Y1236500D01*
X1101000Y1221500D02*
G01Y1236500D01*
X1101500Y1221500D02*
G01Y1236500D01*
X1102000Y1221500D02*
G01Y1236500D01*
X1102500Y1221500D02*
G01Y1236500D01*
X1103000Y1221500D02*
G01Y1236500D01*
X1103500Y1221500D02*
G01Y1236500D01*
X1104000Y1221500D02*
G01Y1236500D01*
X1104500Y1221500D02*
G01Y1236500D01*
X1105000Y1221500D02*
G01Y1236500D01*
X1105500Y1221500D02*
G01Y1236500D01*
X1106000Y1221500D02*
G01Y1236500D01*
X1106500Y1221500D02*
G01Y1236500D01*
X1107000Y1221500D02*
G01Y1236500D01*
X1107500Y1221500D02*
G01Y1236500D01*
X1033000Y1254500D02*
G01X1016000D01*
Y1239500*
X1033000*
Y1254500*
X1016000Y1239500D02*
G01Y1254500D01*
X1016500Y1239500D02*
G01Y1254500D01*
X1017000Y1239500D02*
G01Y1254500D01*
X1017500Y1239500D02*
G01Y1254500D01*
X1018000Y1239500D02*
G01Y1254500D01*
X1018500Y1239500D02*
G01Y1254500D01*
X1019000Y1239500D02*
G01Y1254500D01*
X1019500Y1239500D02*
G01Y1254500D01*
X1020000Y1239500D02*
G01Y1254500D01*
X1020500Y1239500D02*
G01Y1254500D01*
X1021000Y1239500D02*
G01Y1254500D01*
X1021500Y1239500D02*
G01Y1254500D01*
X1022000Y1239500D02*
G01Y1254500D01*
X1022500Y1239500D02*
G01Y1254500D01*
X1023000Y1239500D02*
G01Y1254500D01*
X1023500Y1239500D02*
G01Y1254500D01*
X1024000Y1239500D02*
G01Y1254500D01*
X1024500Y1239500D02*
G01Y1254500D01*
X1025000Y1239500D02*
G01Y1254500D01*
X1025500Y1239500D02*
G01Y1254500D01*
X1026000Y1239500D02*
G01Y1254500D01*
X1026500Y1239500D02*
G01Y1254500D01*
X1027000Y1239500D02*
G01Y1254500D01*
X1027500Y1239500D02*
G01Y1254500D01*
X1028000Y1239500D02*
G01Y1254500D01*
X1028500Y1239500D02*
G01Y1254500D01*
X1029000Y1239500D02*
G01Y1254500D01*
X1029500Y1239500D02*
G01Y1254500D01*
X1030000Y1239500D02*
G01Y1254500D01*
X1030500Y1239500D02*
G01Y1254500D01*
X1031000Y1239500D02*
G01Y1254500D01*
X1031500Y1239500D02*
G01Y1254500D01*
X1032000Y1239500D02*
G01Y1254500D01*
X1032500Y1239500D02*
G01Y1254500D01*
X1054000D02*
G01X1037000D01*
Y1239500*
X1054000*
Y1254500*
X1037000Y1239500D02*
G01Y1254500D01*
X1037500Y1239500D02*
G01Y1254500D01*
X1038000Y1239500D02*
G01Y1254500D01*
X1038500Y1239500D02*
G01Y1254500D01*
X1039000Y1239500D02*
G01Y1254500D01*
X1039500Y1239500D02*
G01Y1254500D01*
X1040000Y1239500D02*
G01Y1254500D01*
X1040500Y1239500D02*
G01Y1254500D01*
X1041000Y1239500D02*
G01Y1254500D01*
X1041500Y1239500D02*
G01Y1254500D01*
X1042000Y1239500D02*
G01Y1254500D01*
X1042500Y1239500D02*
G01Y1254500D01*
X1043000Y1239500D02*
G01Y1254500D01*
X1043500Y1239500D02*
G01Y1254500D01*
X1044000Y1239500D02*
G01Y1254500D01*
X1044500Y1239500D02*
G01Y1254500D01*
X1045000Y1239500D02*
G01Y1254500D01*
X1045500Y1239500D02*
G01Y1254500D01*
X1046000Y1239500D02*
G01Y1254500D01*
X1046500Y1239500D02*
G01Y1254500D01*
X1047000Y1239500D02*
G01Y1254500D01*
X1047500Y1239500D02*
G01Y1254500D01*
X1048000Y1239500D02*
G01Y1254500D01*
X1048500Y1239500D02*
G01Y1254500D01*
X1049000Y1239500D02*
G01Y1254500D01*
X1049500Y1239500D02*
G01Y1254500D01*
X1050000Y1239500D02*
G01Y1254500D01*
X1050500Y1239500D02*
G01Y1254500D01*
X1051000Y1239500D02*
G01Y1254500D01*
X1051500Y1239500D02*
G01Y1254500D01*
X1052000Y1239500D02*
G01Y1254500D01*
X1052500Y1239500D02*
G01Y1254500D01*
X1053000Y1239500D02*
G01Y1254500D01*
X1053500Y1239500D02*
G01Y1254500D01*
X1054000Y1236500D02*
G01X1037000D01*
Y1221500*
X1054000*
Y1236500*
X1037000Y1221500D02*
G01Y1236500D01*
X1037500Y1221500D02*
G01Y1236500D01*
X1038000Y1221500D02*
G01Y1236500D01*
X1038500Y1221500D02*
G01Y1236500D01*
X1039000Y1221500D02*
G01Y1236500D01*
X1039500Y1221500D02*
G01Y1236500D01*
X1040000Y1221500D02*
G01Y1236500D01*
X1040500Y1221500D02*
G01Y1236500D01*
X1041000Y1221500D02*
G01Y1236500D01*
X1041500Y1221500D02*
G01Y1236500D01*
X1042000Y1221500D02*
G01Y1236500D01*
X1042500Y1221500D02*
G01Y1236500D01*
X1043000Y1221500D02*
G01Y1236500D01*
X1043500Y1221500D02*
G01Y1236500D01*
X1044000Y1221500D02*
G01Y1236500D01*
X1044500Y1221500D02*
G01Y1236500D01*
X1045000Y1221500D02*
G01Y1236500D01*
X1045500Y1221500D02*
G01Y1236500D01*
X1046000Y1221500D02*
G01Y1236500D01*
X1046500Y1221500D02*
G01Y1236500D01*
X1047000Y1221500D02*
G01Y1236500D01*
X1047500Y1221500D02*
G01Y1236500D01*
X1048000Y1221500D02*
G01Y1236500D01*
X1048500Y1221500D02*
G01Y1236500D01*
X1049000Y1221500D02*
G01Y1236500D01*
X1049500Y1221500D02*
G01Y1236500D01*
X1050000Y1221500D02*
G01Y1236500D01*
X1050500Y1221500D02*
G01Y1236500D01*
X1051000Y1221500D02*
G01Y1236500D01*
X1051500Y1221500D02*
G01Y1236500D01*
X1052000Y1221500D02*
G01Y1236500D01*
X1052500Y1221500D02*
G01Y1236500D01*
X1053000Y1221500D02*
G01Y1236500D01*
X1053500Y1221500D02*
G01Y1236500D01*
X1033000D02*
G01X1016000D01*
Y1221500*
X1033000*
Y1236500*
X1016000Y1221500D02*
G01Y1236500D01*
X1016500Y1221500D02*
G01Y1236500D01*
X1017000Y1221500D02*
G01Y1236500D01*
X1017500Y1221500D02*
G01Y1236500D01*
X1018000Y1221500D02*
G01Y1236500D01*
X1018500Y1221500D02*
G01Y1236500D01*
X1019000Y1221500D02*
G01Y1236500D01*
X1019500Y1221500D02*
G01Y1236500D01*
X1020000Y1221500D02*
G01Y1236500D01*
X1020500Y1221500D02*
G01Y1236500D01*
X1021000Y1221500D02*
G01Y1236500D01*
X1021500Y1221500D02*
G01Y1236500D01*
X1022000Y1221500D02*
G01Y1236500D01*
X1022500Y1221500D02*
G01Y1236500D01*
X1023000Y1221500D02*
G01Y1236500D01*
X1023500Y1221500D02*
G01Y1236500D01*
X1024000Y1221500D02*
G01Y1236500D01*
X1024500Y1221500D02*
G01Y1236500D01*
X1025000Y1221500D02*
G01Y1236500D01*
X1025500Y1221500D02*
G01Y1236500D01*
X1026000Y1221500D02*
G01Y1236500D01*
X1026500Y1221500D02*
G01Y1236500D01*
X1027000Y1221500D02*
G01Y1236500D01*
X1027500Y1221500D02*
G01Y1236500D01*
X1028000Y1221500D02*
G01Y1236500D01*
X1028500Y1221500D02*
G01Y1236500D01*
X1029000Y1221500D02*
G01Y1236500D01*
X1029500Y1221500D02*
G01Y1236500D01*
X1030000Y1221500D02*
G01Y1236500D01*
X1030500Y1221500D02*
G01Y1236500D01*
X1031000Y1221500D02*
G01Y1236500D01*
X1031500Y1221500D02*
G01Y1236500D01*
X1032000Y1221500D02*
G01Y1236500D01*
X1032500Y1221500D02*
G01Y1236500D01*
G54D14*
X1000000Y980000D02*
G01X980000Y1000000D01*
Y1580000*
X1590000*
Y1000000*
X1570000Y980000*
X1000000*
X980000Y1580000D02*
G01Y1000000D01*
X1000000Y980000*
X1570000*
X1590000Y1000000*
Y1580000*
X980000*
G54D90*
X1316882Y871844D02*
G01X1315859Y871375D01*
X1315177Y869969*
X1314836Y867625*
Y866219*
X1315177Y863875*
X1315859Y862469*
X1316882Y862000*
X1317564*
X1318586Y862469*
X1319268Y863875*
X1319609Y866219*
Y867625*
X1319268Y869969*
X1318586Y871375*
X1317564Y871844*
X1316882*
X1327109Y868563D02*
G01X1326768Y867156D01*
X1326086Y866219*
X1325064Y865750*
X1324723*
X1323700Y866219*
X1323018Y867156*
X1322677Y868563*
Y868563D02*
G01Y869031D01*
X1323018Y870438*
Y870438D02*
G01X1323700Y871375D01*
X1324723Y871844*
X1325064*
X1326086Y871375*
X1326768Y870438*
Y870438D02*
G01X1327109Y868563D01*
Y868563D02*
G01Y866219D01*
X1326768Y863875*
X1326086Y862469*
X1325064Y862000*
X1324382*
X1323359Y862469*
X1323018Y863406*
X1330177Y866219D02*
G01X1336314D01*
X1341427Y871844D02*
G01X1340405Y871375D01*
X1339723Y869969*
X1339382Y867625*
Y866219*
X1339723Y863875*
X1340405Y862469*
X1341427Y862000*
X1342109*
X1343132Y862469*
X1343814Y863875*
X1344155Y866219*
Y867625*
X1343814Y869969*
X1343132Y871375*
X1342109Y871844*
X1341427*
X1349268D02*
G01X1348245Y871375D01*
X1347564Y869969*
X1347223Y867625*
Y866219*
X1347564Y863875*
X1348245Y862469*
X1349268Y862000*
X1349950*
X1350973Y862469*
X1351655Y863875*
X1351995Y866219*
Y867625*
X1351655Y869969*
X1350973Y871375*
X1349950Y871844*
X1349268*
X1357109D02*
G01X1356086Y871375D01*
X1355405Y869969*
X1355064Y867625*
Y866219*
X1355405Y863875*
X1356086Y862469*
X1357109Y862000*
X1357791*
X1358814Y862469*
X1359495Y863875*
X1359836Y866219*
Y867625*
X1359495Y869969*
X1358814Y871375*
X1357791Y871844*
X1357109*
X1362905Y869969D02*
G01X1363586Y870438D01*
Y870438D02*
G01X1364609Y871844D01*
Y862000*
X1371768Y870438D02*
G01X1371427Y871375D01*
X1370405Y871844*
X1369723*
X1368700Y871375*
X1368018Y869969*
X1367677Y867625*
Y865281*
X1368018Y863406*
X1368700Y862469*
X1369723Y862000*
X1370064*
X1371086Y862469*
X1371768Y863406*
X1372109Y864813*
Y864813D02*
G01Y865281D01*
X1371768Y866688*
Y866688D02*
G01X1371086Y867625D01*
X1370064Y868094*
X1369723*
X1368700Y867625*
X1368018Y866688*
Y866688D02*
G01X1367677Y865281D01*
X1375518Y869500D02*
G01Y869969D01*
X1375859Y870906*
X1376200Y871375*
X1376882Y871844*
X1378245*
X1378927Y871375*
X1379268Y870906*
X1379609Y869969*
Y869031*
X1379268Y868094*
X1378586Y866688*
Y866688D02*
G01X1375177Y862000D01*
X1379950*
X1383018Y866219D02*
G01X1389155D01*
X1394268Y871844D02*
G01X1393245Y871375D01*
X1392564Y869969*
X1392223Y867625*
Y866219*
X1392564Y863875*
X1393245Y862469*
X1394268Y862000*
X1394950*
X1395973Y862469*
X1396655Y863875*
X1396995Y866219*
Y867625*
X1396655Y869969*
X1395973Y871375*
X1394950Y871844*
X1394268*
X1402109D02*
G01X1401086Y871375D01*
X1400405Y869969*
X1400064Y867625*
Y866219*
X1400405Y863875*
X1401086Y862469*
X1402109Y862000*
X1402791*
X1403814Y862469*
X1404495Y863875*
X1404836Y866219*
Y867625*
X1404495Y869969*
X1403814Y871375*
X1402791Y871844*
X1402109*
G54D93*
X1372300Y1084050D02*
G01X1363700D01*
Y1075450*
X1372300*
Y1084050*
X1363700Y1075450D02*
G01Y1084050D01*
X1363900Y1075450D02*
G01Y1084050D01*
X1364100Y1075450D02*
G01Y1084050D01*
X1364300Y1075450D02*
G01Y1084050D01*
X1364500Y1075450D02*
G01Y1084050D01*
X1364700Y1075450D02*
G01Y1084050D01*
X1364900Y1075450D02*
G01Y1084050D01*
X1365100Y1075450D02*
G01Y1084050D01*
X1365300Y1075450D02*
G01Y1084050D01*
X1365500Y1075450D02*
G01Y1084050D01*
X1365700Y1075450D02*
G01Y1084050D01*
X1365900Y1075450D02*
G01Y1084050D01*
X1366100Y1075450D02*
G01Y1084050D01*
X1366300Y1075450D02*
G01Y1084050D01*
X1366500Y1075450D02*
G01Y1084050D01*
X1366700Y1075450D02*
G01Y1084050D01*
X1366900Y1075450D02*
G01Y1084050D01*
X1367100Y1075450D02*
G01Y1084050D01*
X1367300Y1075450D02*
G01Y1084050D01*
X1367500Y1075450D02*
G01Y1084050D01*
X1367700Y1075450D02*
G01Y1084050D01*
X1367900Y1075450D02*
G01Y1084050D01*
X1368100Y1075450D02*
G01Y1084050D01*
X1368300Y1075450D02*
G01Y1084050D01*
X1368500Y1075450D02*
G01Y1084050D01*
X1368700Y1075450D02*
G01Y1084050D01*
X1368900Y1075450D02*
G01Y1084050D01*
X1369100Y1075450D02*
G01Y1084050D01*
X1369300Y1075450D02*
G01Y1084050D01*
X1369500Y1075450D02*
G01Y1084050D01*
X1369700Y1075450D02*
G01Y1084050D01*
X1369900Y1075450D02*
G01Y1084050D01*
X1370100Y1075450D02*
G01Y1084050D01*
X1370300Y1075450D02*
G01Y1084050D01*
X1370500Y1075450D02*
G01Y1084050D01*
X1370700Y1075450D02*
G01Y1084050D01*
X1370900Y1075450D02*
G01Y1084050D01*
X1371100Y1075450D02*
G01Y1084050D01*
X1371300Y1075450D02*
G01Y1084050D01*
X1371500Y1075450D02*
G01Y1084050D01*
X1371700Y1075450D02*
G01Y1084050D01*
X1371900Y1075450D02*
G01Y1084050D01*
X1372100Y1075450D02*
G01Y1084050D01*
X1361300D02*
G01X1352700D01*
Y1075450*
X1361300*
Y1084050*
X1352700Y1075450D02*
G01Y1084050D01*
X1352900Y1075450D02*
G01Y1084050D01*
X1353100Y1075450D02*
G01Y1084050D01*
X1353300Y1075450D02*
G01Y1084050D01*
X1353500Y1075450D02*
G01Y1084050D01*
X1353700Y1075450D02*
G01Y1084050D01*
X1353900Y1075450D02*
G01Y1084050D01*
X1354100Y1075450D02*
G01Y1084050D01*
X1354300Y1075450D02*
G01Y1084050D01*
X1354500Y1075450D02*
G01Y1084050D01*
X1354700Y1075450D02*
G01Y1084050D01*
X1354900Y1075450D02*
G01Y1084050D01*
X1355100Y1075450D02*
G01Y1084050D01*
X1355300Y1075450D02*
G01Y1084050D01*
X1355500Y1075450D02*
G01Y1084050D01*
X1355700Y1075450D02*
G01Y1084050D01*
X1355900Y1075450D02*
G01Y1084050D01*
X1356100Y1075450D02*
G01Y1084050D01*
X1356300Y1075450D02*
G01Y1084050D01*
X1356500Y1075450D02*
G01Y1084050D01*
X1356700Y1075450D02*
G01Y1084050D01*
X1356900Y1075450D02*
G01Y1084050D01*
X1357100Y1075450D02*
G01Y1084050D01*
X1357300Y1075450D02*
G01Y1084050D01*
X1357500Y1075450D02*
G01Y1084050D01*
X1357700Y1075450D02*
G01Y1084050D01*
X1357900Y1075450D02*
G01Y1084050D01*
X1358100Y1075450D02*
G01Y1084050D01*
X1358300Y1075450D02*
G01Y1084050D01*
X1358500Y1075450D02*
G01Y1084050D01*
X1358700Y1075450D02*
G01Y1084050D01*
X1358900Y1075450D02*
G01Y1084050D01*
X1359100Y1075450D02*
G01Y1084050D01*
X1359300Y1075450D02*
G01Y1084050D01*
X1359500Y1075450D02*
G01Y1084050D01*
X1359700Y1075450D02*
G01Y1084050D01*
X1359900Y1075450D02*
G01Y1084050D01*
X1360100Y1075450D02*
G01Y1084050D01*
X1360300Y1075450D02*
G01Y1084050D01*
X1360500Y1075450D02*
G01Y1084050D01*
X1360700Y1075450D02*
G01Y1084050D01*
X1360900Y1075450D02*
G01Y1084050D01*
X1361100Y1075450D02*
G01Y1084050D01*
X1372300Y1096050D02*
G01X1363700D01*
Y1087450*
X1372300*
Y1096050*
X1363700Y1087450D02*
G01Y1096050D01*
X1363900Y1087450D02*
G01Y1096050D01*
X1364100Y1087450D02*
G01Y1096050D01*
X1364300Y1087450D02*
G01Y1096050D01*
X1364500Y1087450D02*
G01Y1096050D01*
X1364700Y1087450D02*
G01Y1096050D01*
X1364900Y1087450D02*
G01Y1096050D01*
X1365100Y1087450D02*
G01Y1096050D01*
X1365300Y1087450D02*
G01Y1096050D01*
X1365500Y1087450D02*
G01Y1096050D01*
X1365700Y1087450D02*
G01Y1096050D01*
X1365900Y1087450D02*
G01Y1096050D01*
X1366100Y1087450D02*
G01Y1096050D01*
X1366300Y1087450D02*
G01Y1096050D01*
X1366500Y1087450D02*
G01Y1096050D01*
X1366700Y1087450D02*
G01Y1096050D01*
X1366900Y1087450D02*
G01Y1096050D01*
X1367100Y1087450D02*
G01Y1096050D01*
X1367300Y1087450D02*
G01Y1096050D01*
X1367500Y1087450D02*
G01Y1096050D01*
X1367700Y1087450D02*
G01Y1096050D01*
X1367900Y1087450D02*
G01Y1096050D01*
X1368100Y1087450D02*
G01Y1096050D01*
X1368300Y1087450D02*
G01Y1096050D01*
X1368500Y1087450D02*
G01Y1096050D01*
X1368700Y1087450D02*
G01Y1096050D01*
X1368900Y1087450D02*
G01Y1096050D01*
X1369100Y1087450D02*
G01Y1096050D01*
X1369300Y1087450D02*
G01Y1096050D01*
X1369500Y1087450D02*
G01Y1096050D01*
X1369700Y1087450D02*
G01Y1096050D01*
X1369900Y1087450D02*
G01Y1096050D01*
X1370100Y1087450D02*
G01Y1096050D01*
X1370300Y1087450D02*
G01Y1096050D01*
X1370500Y1087450D02*
G01Y1096050D01*
X1370700Y1087450D02*
G01Y1096050D01*
X1370900Y1087450D02*
G01Y1096050D01*
X1371100Y1087450D02*
G01Y1096050D01*
X1371300Y1087450D02*
G01Y1096050D01*
X1371500Y1087450D02*
G01Y1096050D01*
X1371700Y1087450D02*
G01Y1096050D01*
X1371900Y1087450D02*
G01Y1096050D01*
X1372100Y1087450D02*
G01Y1096050D01*
X1361300D02*
G01X1352700D01*
Y1087450*
X1361300*
Y1096050*
X1352700Y1087450D02*
G01Y1096050D01*
X1352900Y1087450D02*
G01Y1096050D01*
X1353100Y1087450D02*
G01Y1096050D01*
X1353300Y1087450D02*
G01Y1096050D01*
X1353500Y1087450D02*
G01Y1096050D01*
X1353700Y1087450D02*
G01Y1096050D01*
X1353900Y1087450D02*
G01Y1096050D01*
X1354100Y1087450D02*
G01Y1096050D01*
X1354300Y1087450D02*
G01Y1096050D01*
X1354500Y1087450D02*
G01Y1096050D01*
X1354700Y1087450D02*
G01Y1096050D01*
X1354900Y1087450D02*
G01Y1096050D01*
X1355100Y1087450D02*
G01Y1096050D01*
X1355300Y1087450D02*
G01Y1096050D01*
X1355500Y1087450D02*
G01Y1096050D01*
X1355700Y1087450D02*
G01Y1096050D01*
X1355900Y1087450D02*
G01Y1096050D01*
X1356100Y1087450D02*
G01Y1096050D01*
X1356300Y1087450D02*
G01Y1096050D01*
X1356500Y1087450D02*
G01Y1096050D01*
X1356700Y1087450D02*
G01Y1096050D01*
X1356900Y1087450D02*
G01Y1096050D01*
X1357100Y1087450D02*
G01Y1096050D01*
X1357300Y1087450D02*
G01Y1096050D01*
X1357500Y1087450D02*
G01Y1096050D01*
X1357700Y1087450D02*
G01Y1096050D01*
X1357900Y1087450D02*
G01Y1096050D01*
X1358100Y1087450D02*
G01Y1096050D01*
X1358300Y1087450D02*
G01Y1096050D01*
X1358500Y1087450D02*
G01Y1096050D01*
X1358700Y1087450D02*
G01Y1096050D01*
X1358900Y1087450D02*
G01Y1096050D01*
X1359100Y1087450D02*
G01Y1096050D01*
X1359300Y1087450D02*
G01Y1096050D01*
X1359500Y1087450D02*
G01Y1096050D01*
X1359700Y1087450D02*
G01Y1096050D01*
X1359900Y1087450D02*
G01Y1096050D01*
X1360100Y1087450D02*
G01Y1096050D01*
X1360300Y1087450D02*
G01Y1096050D01*
X1360500Y1087450D02*
G01Y1096050D01*
X1360700Y1087450D02*
G01Y1096050D01*
X1360900Y1087450D02*
G01Y1096050D01*
X1361100Y1087450D02*
G01Y1096050D01*
G54D146*
X1475866Y1185177D02*
G01Y1189477D01*
X1478425Y1185177D02*
G01Y1189477D01*
X1480984Y1185177D02*
G01Y1189477D01*
X1483543Y1185177D02*
G01Y1189477D01*
X1486102Y1185177D02*
G01Y1189477D01*
X1488661Y1185177D02*
G01Y1189477D01*
X1491220Y1185177D02*
G01Y1189477D01*
X1493780Y1185177D02*
G01Y1189477D01*
X1496339Y1185177D02*
G01Y1189477D01*
X1498898Y1185177D02*
G01Y1189477D01*
X1501457Y1185177D02*
G01Y1189477D01*
X1504016Y1185177D02*
G01Y1189477D01*
X1506575Y1185177D02*
G01Y1189477D01*
X1509134Y1185177D02*
G01Y1189477D01*
Y1213523D02*
G01Y1217823D01*
X1506575Y1213523D02*
G01Y1217823D01*
X1504016Y1213523D02*
G01Y1217823D01*
X1501457Y1213523D02*
G01Y1217823D01*
X1498898Y1213523D02*
G01Y1217823D01*
X1496339Y1213523D02*
G01Y1217823D01*
X1493780Y1213523D02*
G01Y1217823D01*
X1491220Y1213523D02*
G01Y1217823D01*
X1488661Y1213523D02*
G01Y1217823D01*
X1486102Y1213523D02*
G01Y1217823D01*
X1483543Y1213523D02*
G01Y1217823D01*
X1480984Y1213523D02*
G01Y1217823D01*
X1478425Y1213523D02*
G01Y1217823D01*
X1475866Y1213523D02*
G01Y1217823D01*
G54D162*
X1330150Y1089636D02*
G01X1334850D01*
X1330150Y1062864D02*
G01X1334850D01*
G54D172*
X1317930Y878622D02*
G01X1317751Y879114D01*
X1317393Y879606*
X1317036Y879852*
X1316320*
X1315962Y879606*
X1315604Y879114*
X1315425Y878622*
X1315246Y877884*
Y876654*
Y876654D02*
G01X1315425Y875915D01*
X1315604Y875423*
X1315962Y874931*
X1316320Y874685*
X1317036*
X1317393Y874931*
X1317751Y875423*
X1317930Y875915*
Y876654*
X1317036D02*
G01X1317930D01*
X1319541Y879852D02*
G01Y874685D01*
Y879852D02*
G01X1321867D01*
X1319541Y877392D02*
G01X1320973D01*
X1319541Y874685D02*
G01X1321867D01*
X1323478Y879852D02*
G01Y874685D01*
Y879852D02*
G01X1325089D01*
Y879852D02*
G01X1325625Y879606D01*
X1325804Y879360*
X1325983Y878868*
Y878376*
X1325804Y877884*
X1325625Y877638*
X1325089Y877392*
Y877392D02*
G01X1323478D01*
X1324731D02*
G01X1325983Y874685D01*
X1327594Y879852D02*
G01Y874685D01*
Y879852D02*
G01X1329204D01*
X1329741Y879606*
X1329920Y879360*
X1330099Y878868*
Y878376*
X1329920Y877884*
X1329741Y877638*
X1329204Y877392*
X1327594D02*
G01X1329204D01*
X1329741Y877146*
X1329920Y876900*
X1330099Y876407*
Y875669*
X1329920Y875177*
X1329741Y874931*
X1329204Y874685*
X1327594*
X1331710Y879852D02*
G01Y874685D01*
Y879852D02*
G01X1334036D01*
X1331710Y877392D02*
G01X1333141D01*
X1331710Y874685D02*
G01X1334036D01*
X1335647Y879852D02*
G01Y874685D01*
Y879852D02*
G01X1337257D01*
X1337794Y879606*
X1337973Y879360*
X1338152Y878868*
Y878376*
X1337973Y877884*
X1337794Y877638*
X1337257Y877392*
X1335647*
X1336900D02*
G01X1338152Y874685D01*
X1339942Y878130D02*
G01X1339763Y877884D01*
X1339942Y877638*
X1340121Y877884*
X1339942Y878130*
Y875177D02*
G01X1339763Y874931D01*
X1339942Y874685*
X1340121Y874931*
X1339942Y875177*
X1315246Y907411D02*
G01Y902244D01*
Y907411D02*
G01X1316499D01*
X1317036Y907165*
X1317393Y906673*
X1317572Y906181*
X1317751Y905443*
Y904213*
Y904213D02*
G01X1317572Y903474D01*
X1317393Y902982*
X1317036Y902490*
X1316499Y902244*
X1315246*
X1320794Y907411D02*
G01X1319362Y902244D01*
X1320794Y907411D02*
G01X1322225Y902244D01*
X1319899Y903966D02*
G01X1321688D01*
X1325089Y907411D02*
G01Y902244D01*
X1323836Y907411D02*
G01X1326341D01*
X1327952D02*
G01Y902244D01*
Y907411D02*
G01X1330278D01*
X1327952Y904951D02*
G01X1329383D01*
X1327952Y902244D02*
G01X1330278D01*
X1332068Y905689D02*
G01X1331889Y905443D01*
X1332068Y905197*
X1332247Y905443*
X1332068Y905689*
Y902736D02*
G01X1331889Y902490D01*
X1332068Y902244*
X1332247Y902490*
X1332068Y902736*
X1268002Y907411D02*
G01Y902244D01*
Y907411D02*
G01X1269613D01*
X1270149Y907165*
X1270328Y906919*
X1270507Y906427*
Y905935*
X1270328Y905443*
X1270149Y905197*
X1269613Y904951*
X1268002*
X1269255D02*
G01X1270507Y902244D01*
X1272118Y907411D02*
G01Y902244D01*
Y907411D02*
G01X1274444D01*
X1272118Y904951D02*
G01X1273550D01*
X1272118Y902244D02*
G01X1274444D01*
X1276055Y907411D02*
G01X1277487Y902244D01*
X1278918Y907411D02*
G01X1277487Y902244D01*
X1280708Y905689D02*
G01X1280529Y905443D01*
X1280708Y905197*
X1280887Y905443*
X1280708Y905689*
Y902736D02*
G01X1280529Y902490D01*
X1280708Y902244*
X1280887Y902490*
X1280708Y902736*
X1094774Y907411D02*
G01Y902244D01*
Y907411D02*
G01X1096385D01*
X1096921Y907165*
X1097100Y906919*
X1097279Y906427*
Y905689*
X1097100Y905197*
X1096921Y904951*
X1096385Y904705*
X1094774*
X1100322Y907411D02*
G01X1098890Y902244D01*
X1100322Y907411D02*
G01X1101753Y902244D01*
X1099427Y903966D02*
G01X1101216D01*
X1103364Y907411D02*
G01Y902244D01*
Y907411D02*
G01X1104974D01*
X1105511Y907165*
X1105690Y906919*
X1105869Y906427*
Y905935*
X1105690Y905443*
X1105511Y905197*
X1104974Y904951*
X1103364*
X1104617D02*
G01X1105869Y902244D01*
X1108732Y907411D02*
G01Y902244D01*
X1107480Y907411D02*
G01X1109985D01*
X1115712D02*
G01Y902244D01*
Y907411D02*
G01X1118217Y902244D01*
Y907411D02*
G01Y902244D01*
X1120901Y907411D02*
G01X1120543Y907165D01*
X1120186Y906673*
X1120007Y906181*
X1119828Y905443*
Y904213*
Y904213D02*
G01X1120007Y903474D01*
X1120186Y902982*
X1120543Y902490*
X1120901Y902244*
X1121617*
X1121975Y902490*
X1122333Y902982*
X1122512Y903474*
X1122691Y904213*
Y904213D02*
G01Y905443D01*
X1122512Y906181*
X1122333Y906673*
X1121975Y907165*
X1121617Y907411*
X1120901*
X1124480Y902736D02*
G01X1124302Y902490D01*
Y902490D02*
G01X1124480Y902244D01*
X1124659Y902490*
X1124480Y902736*
X1126449Y905689D02*
G01X1126270Y905443D01*
X1126449Y905197*
X1126628Y905443*
X1126449Y905689*
Y902736D02*
G01X1126270Y902490D01*
X1126449Y902244*
X1126628Y902490*
X1126449Y902736*
X933937Y930000D02*
G75*
G03X933937Y930000I-3937D01*
X937874D02*
G03X937874Y930000I-7874D01*
X933937Y1630000D02*
G03X933937Y1630000I-3937D01*
X937874D02*
G03X937874Y1630000I-7874D01*
X1643937D02*
G03X1643937Y1630000I-3937D01*
X1647874D02*
G03X1647874Y1630000I-7874D01*
G54D185*
X1391063Y1329370D02*
G01Y1333701D01*
X1393031Y1329370D02*
G01Y1333701D01*
X1395000Y1329370D02*
G01Y1333701D01*
X1396969Y1329370D02*
G01Y1333701D01*
X1398937Y1329370D02*
G01Y1333701D01*
Y1346299D02*
G01Y1350630D01*
X1396969Y1346299D02*
G01Y1350630D01*
X1395000Y1346299D02*
G01Y1350630D01*
X1393031Y1346299D02*
G01Y1350630D01*
X1391063Y1346299D02*
G01Y1350630D01*
G54D193*
X1168750Y1216801D02*
G01Y1218769D01*
Y1233731D02*
G01Y1235699D01*
Y1250551D02*
G01Y1252519D01*
Y1267481D02*
G01Y1269449D01*
Y1284301D02*
G01Y1286269D01*
Y1301231D02*
G01Y1303199D01*
X1018199Y1273750D02*
G01X1016231D01*
X1001269D02*
G01X999301D01*
X1070449D02*
G01X1068481D01*
X1053519D02*
G01X1051551D01*
X1119301D02*
G01X1121269D01*
X1136231D02*
G01X1138199D01*
X1082051D02*
G01X1084019D01*
X1098981D02*
G01X1100949D01*
X1146801Y1075000D02*
G01X1148769D01*
X1163731D02*
G01X1165699D01*
X1093199D02*
G01X1091231D01*
X1076269D02*
G01X1074301D01*
G54D194*
X1058900Y805000D02*
G01X1059097D01*
X1268900D02*
G01X1269097D01*
X918189Y930000D02*
G01X941811D01*
X930000Y918189D02*
G01Y941811D01*
X918189Y1630000D02*
G01X941811D01*
X930000Y1618189D02*
G01Y1641811D01*
X1628189Y1630000D02*
G01X1651811D01*
X1640000Y1618189D02*
G01Y1641811D01*
G54D196*
X1090837Y890433D02*
G03X1094774Y886496I3937D01*
Y886496D02*
G01X1256191D01*
Y886496D02*
G03X1260128Y890433J3937D01*
Y890433D02*
G01Y906181D01*
Y906181D02*
G03X1256191Y910118I-3937D01*
Y910118D02*
G01X1094774D01*
Y910118D02*
G03X1090837Y906181J-3937D01*
Y906181D02*
G01Y890433D01*
X1264065D02*
G03X1268002Y886496I3937D01*
Y886496D02*
G01X1303435D01*
Y886496D02*
G03X1307372Y890433J3937D01*
Y890433D02*
G01Y906181D01*
Y906181D02*
G03X1303435Y910118I-3937D01*
Y910118D02*
G01X1268002D01*
Y910118D02*
G03X1264065Y906181J-3937D01*
Y906181D02*
G01Y890433D01*
X1090837Y862874D02*
G03X1094774Y858937I3937D01*
Y858937D02*
G01X1303435D01*
Y858937D02*
G03X1307372Y862874J3937D01*
Y862874D02*
G01Y878622D01*
Y878622D02*
G03X1303435Y882559I-3937D01*
Y882559D02*
G01X1094774D01*
Y882559D02*
G03X1090837Y878622J-3937D01*
Y878622D02*
G01Y862874D01*
X1311309D02*
G03X1315246Y858937I3937D01*
Y858937D02*
G01X1456979D01*
Y858937D02*
G03X1460916Y862874J3937D01*
Y862874D02*
G01Y878622D01*
Y878622D02*
G03X1456979Y882559I-3937D01*
Y882559D02*
G01X1315246D01*
Y882559D02*
G03X1311309Y878622J-3937D01*
Y878622D02*
G01Y862874D01*
Y890433D02*
G03X1315246Y886496I3937D01*
Y886496D02*
G01X1456979D01*
Y886496D02*
G03X1460916Y890433J3937D01*
Y890433D02*
G01Y906181D01*
Y906181D02*
G03X1456979Y910118I-3937D01*
Y910118D02*
G01X1315246D01*
Y910118D02*
G03X1311309Y906181J-3937D01*
Y906181D02*
G01Y890433D01*
X1090837Y917992D02*
G03X1094774Y914055I3937D01*
Y914055D02*
G01X1456979D01*
Y914055D02*
G03X1460916Y917992J3937D01*
Y917992D02*
G01Y933740D01*
Y933740D02*
G03X1456979Y937677I-3937D01*
Y937677D02*
G01X1094774D01*
Y937677D02*
G03X1090837Y933740J-3937D01*
Y933740D02*
G01Y917992D01*
G54D205*
X1370915Y1127500D02*
G01X1382333D01*
X1405167D02*
G01X1416585D01*
G54D206*
X1465404Y1174606D02*
G01Y1175394D01*
X1472096Y1174606D02*
G01Y1175394D01*
X1472046Y1225394D02*
G01Y1224606D01*
X1465354Y1225394D02*
G01Y1224606D01*
X1165394Y1375404D02*
G01X1164606D01*
X1165394Y1382096D02*
G01X1164606D01*
X1156644Y1400404D02*
G01X1155856D01*
X1156644Y1407096D02*
G01X1155856D01*
X1156644Y1434154D02*
G01X1155856D01*
X1156644Y1440846D02*
G01X1155856D01*
X1068356Y1143346D02*
G01X1069144D01*
X1068356Y1136654D02*
G01X1069144D01*
X1007106Y1217096D02*
G01X1007894D01*
X1007106Y1210404D02*
G01X1007894D01*
X1119154Y1260856D02*
G01Y1261644D01*
X1125846Y1260856D02*
G01Y1261644D01*
X1465394Y1187904D02*
G01X1464606D01*
X1465394Y1194596D02*
G01X1464606D01*
X1453484Y1294291D02*
G01X1451516D01*
X1453484Y1305709D02*
G01X1451516D01*
X1380709Y1170984D02*
G01Y1169016D01*
X1369291Y1170984D02*
G01Y1169016D01*
X1318091Y1037766D02*
G01Y1039734D01*
X1329509Y1037766D02*
G01Y1039734D01*
X1164734Y1321791D02*
G01X1162766D01*
X1164734Y1333209D02*
G01X1162766D01*
X1147234Y1356791D02*
G01X1145266D01*
X1147234Y1368209D02*
G01X1145266D01*
X1129734Y1391791D02*
G01X1127766D01*
X1129734Y1403209D02*
G01X1127766D01*
X1260591Y1470266D02*
G01Y1472234D01*
X1272009Y1470266D02*
G01Y1472234D01*
X1260591Y1450266D02*
G01Y1452234D01*
X1272009Y1450266D02*
G01Y1452234D01*
Y1502234D02*
G01Y1500266D01*
X1260591Y1502234D02*
G01Y1500266D01*
X1272009Y1492234D02*
G01Y1490266D01*
X1260591Y1492234D02*
G01Y1490266D01*
X1272009Y1482234D02*
G01Y1480266D01*
X1260591Y1482234D02*
G01Y1480266D01*
X1271909Y1462234D02*
G01Y1460266D01*
X1260491Y1462234D02*
G01Y1460266D01*
X1209291Y1480266D02*
G01Y1482234D01*
X1220709Y1480266D02*
G01Y1482234D01*
Y1492234D02*
G01Y1490266D01*
X1209291Y1492234D02*
G01Y1490266D01*
X1065266Y1104509D02*
G01X1067234D01*
X1065266Y1093091D02*
G01X1067234D01*
X1150541Y1042766D02*
G01Y1044734D01*
X1161959Y1042766D02*
G01Y1044734D01*
X1418041Y1314744D02*
G01Y1320256D01*
X1429459Y1314744D02*
G01Y1320256D01*
X1200531Y1242766D02*
G01Y1244734D01*
X1211949Y1242766D02*
G01Y1244734D01*
G54D16*
X1068553Y1128346D02*
G01X1068947D01*
X1068553Y1121654D02*
G01X1068947D01*
X1007303Y1202146D02*
G01X1007697D01*
X1007303Y1195454D02*
G01X1007697D01*
X1475197Y1390454D02*
G01X1474803D01*
X1475197Y1397146D02*
G01X1474803D01*
X1485197Y1390454D02*
G01X1484803D01*
X1485197Y1397146D02*
G01X1484803D01*
X1553553Y1349646D02*
G01X1553947D01*
X1553553Y1342954D02*
G01X1553947D01*
X1526053Y1349646D02*
G01X1526447D01*
X1526053Y1342954D02*
G01X1526447D01*
X1532046Y1363947D02*
G01Y1363553D01*
X1525354Y1363947D02*
G01Y1363553D01*
X1533947Y1390454D02*
G01X1533553D01*
X1533947Y1397146D02*
G01X1533553D01*
X1543947Y1390454D02*
G01X1543553D01*
X1543947Y1397146D02*
G01X1543553D01*
X1536654Y1318553D02*
G01Y1318947D01*
X1543346Y1318553D02*
G01Y1318947D01*
X1474546Y1233947D02*
G01Y1233553D01*
X1467854Y1233947D02*
G01Y1233553D01*
X1474546Y1241447D02*
G01Y1241053D01*
X1467854Y1241447D02*
G01Y1241053D01*
X1492697Y1234154D02*
G01X1492303D01*
X1492697Y1240846D02*
G01X1492303D01*
X1501447Y1234154D02*
G01X1501053D01*
X1501447Y1240846D02*
G01X1501053D01*
X1523346Y1262697D02*
G01Y1262303D01*
X1516654Y1262697D02*
G01Y1262303D01*
Y1269803D02*
G01Y1270197D01*
X1523346Y1269803D02*
G01Y1270197D01*
X1511053Y1297146D02*
G01X1511447D01*
X1511053Y1290454D02*
G01X1511447D01*
X1496447D02*
G01X1496053D01*
X1496447Y1297146D02*
G01X1496053D01*
X1476053D02*
G01X1476447D01*
X1476053Y1290454D02*
G01X1476447D01*
X1461447D02*
G01X1461053D01*
X1461447Y1297146D02*
G01X1461053D01*
X1554646Y1276447D02*
G01Y1276053D01*
X1547954Y1276447D02*
G01Y1276053D01*
Y1282303D02*
G01Y1282697D01*
X1554646Y1282303D02*
G01Y1282697D01*
X1321654Y1356053D02*
G01Y1356447D01*
X1328346Y1356053D02*
G01Y1356447D01*
X1321654Y1346053D02*
G01Y1346447D01*
X1328346Y1346053D02*
G01Y1346447D01*
X1336447Y1347954D02*
G01X1336053D01*
X1336447Y1354646D02*
G01X1336053D01*
X1321654Y1331053D02*
G01Y1331447D01*
X1328346Y1331053D02*
G01Y1331447D01*
X1321654Y1321053D02*
G01Y1321447D01*
X1328346Y1321053D02*
G01Y1321447D01*
X1336447Y1322954D02*
G01X1336053D01*
X1336447Y1329646D02*
G01X1336053D01*
X1558947Y1486654D02*
G01X1558553D01*
X1558947Y1493346D02*
G01X1558553D01*
X1526447Y1486654D02*
G01X1526053D01*
X1526447Y1493346D02*
G01X1526053D01*
X1542697Y1486654D02*
G01X1542303D01*
X1542697Y1493346D02*
G01X1542303D01*
X1510197Y1486654D02*
G01X1509803D01*
X1510197Y1493346D02*
G01X1509803D01*
X1493947Y1486654D02*
G01X1493553D01*
X1493947Y1493346D02*
G01X1493553D01*
X1566053D02*
G01X1566447D01*
X1566053Y1486654D02*
G01X1566447D01*
X1533553Y1493346D02*
G01X1533947D01*
X1533553Y1486654D02*
G01X1533947D01*
X1549803Y1493346D02*
G01X1550197D01*
X1549803Y1486654D02*
G01X1550197D01*
X1517303Y1493346D02*
G01X1517697D01*
X1517303Y1486654D02*
G01X1517697D01*
X1501053Y1493346D02*
G01X1501447D01*
X1501053Y1486654D02*
G01X1501447D01*
X1565846Y1480197D02*
G01Y1479803D01*
X1559154Y1480197D02*
G01Y1479803D01*
X1533346Y1480197D02*
G01Y1479803D01*
X1526654Y1480197D02*
G01Y1479803D01*
X1549546Y1480197D02*
G01Y1479803D01*
X1542854Y1480197D02*
G01Y1479803D01*
X1517046Y1480197D02*
G01Y1479803D01*
X1510354Y1480197D02*
G01Y1479803D01*
X1500846Y1480197D02*
G01Y1479803D01*
X1494154Y1480197D02*
G01Y1479803D01*
X1477697Y1486654D02*
G01X1477303D01*
X1477697Y1493346D02*
G01X1477303D01*
X1445197Y1486654D02*
G01X1444803D01*
X1445197Y1493346D02*
G01X1444803D01*
X1461447Y1486654D02*
G01X1461053D01*
X1461447Y1493346D02*
G01X1461053D01*
X1484803D02*
G01X1485197D01*
X1484803Y1486654D02*
G01X1485197D01*
X1452303Y1493346D02*
G01X1452697D01*
X1452303Y1486654D02*
G01X1452697D01*
X1468553Y1493346D02*
G01X1468947D01*
X1468553Y1486654D02*
G01X1468947D01*
X1484546Y1480197D02*
G01Y1479803D01*
X1477854Y1480197D02*
G01Y1479803D01*
X1452046Y1480197D02*
G01Y1479803D01*
X1445354Y1480197D02*
G01Y1479803D01*
X1468346Y1480197D02*
G01Y1479803D01*
X1461654Y1480197D02*
G01Y1479803D01*
X1386654Y1434803D02*
G01Y1435197D01*
X1393346Y1434803D02*
G01Y1435197D01*
X1422046Y1443947D02*
G01Y1443553D01*
X1415354Y1443947D02*
G01Y1443553D01*
X1422046Y1416447D02*
G01Y1416053D01*
X1415354Y1416447D02*
G01Y1416053D01*
X1422046Y1437697D02*
G01Y1437303D01*
X1415354Y1437697D02*
G01Y1437303D01*
X1399154Y1471053D02*
G01Y1471447D01*
X1405846Y1471053D02*
G01Y1471447D01*
X1389803Y1480846D02*
G01X1390197D01*
X1389803Y1474154D02*
G01X1390197D01*
X1399154Y1462303D02*
G01Y1462697D01*
X1405846Y1462303D02*
G01Y1462697D01*
Y1453947D02*
G01Y1453553D01*
X1399154Y1453947D02*
G01Y1453553D01*
X1405846Y1480197D02*
G01Y1479803D01*
X1399154Y1480197D02*
G01Y1479803D01*
X1374154Y1389803D02*
G01Y1390197D01*
X1380846Y1389803D02*
G01Y1390197D01*
X1360846Y1405197D02*
G01Y1404803D01*
X1354154Y1405197D02*
G01Y1404803D01*
X1360846Y1375197D02*
G01Y1374803D01*
X1354154Y1375197D02*
G01Y1374803D01*
X1360846Y1390197D02*
G01Y1389803D01*
X1354154Y1390197D02*
G01Y1389803D01*
X1360846Y1420197D02*
G01Y1419803D01*
X1354154Y1420197D02*
G01Y1419803D01*
Y1412303D02*
G01Y1412697D01*
X1360846Y1412303D02*
G01Y1412697D01*
X1354154Y1382303D02*
G01Y1382697D01*
X1360846Y1382303D02*
G01Y1382697D01*
X1354154Y1397303D02*
G01Y1397697D01*
X1360846Y1397303D02*
G01Y1397697D01*
X1420197Y1369154D02*
G01X1419803D01*
X1420197Y1375846D02*
G01X1419803D01*
X1374154Y1404803D02*
G01Y1405197D01*
X1380846Y1404803D02*
G01Y1405197D01*
X1374154Y1374803D02*
G01Y1375197D01*
X1380846Y1374803D02*
G01Y1375197D01*
X1374154Y1419803D02*
G01Y1420197D01*
X1380846Y1419803D02*
G01Y1420197D01*
X1354154Y1427303D02*
G01Y1427697D01*
X1360846Y1427303D02*
G01Y1427697D01*
X1554803Y1438346D02*
G01X1555197D01*
X1554803Y1431654D02*
G01X1555197D01*
X1074803Y1062146D02*
G01X1075197D01*
X1074803Y1055454D02*
G01X1075197D01*
X1070846Y1048947D02*
G01Y1048553D01*
X1064154Y1048947D02*
G01Y1048553D01*
X1209803Y1128346D02*
G01X1210197D01*
X1209803Y1121654D02*
G01X1210197D01*
X1209803Y1114646D02*
G01X1210197D01*
X1209803Y1107954D02*
G01X1210197D01*
X1007697Y1024154D02*
G01X1007303D01*
X1007697Y1030846D02*
G01X1007303D01*
X1027697Y1024154D02*
G01X1027303D01*
X1027697Y1030846D02*
G01X1027303D01*
X1167303Y1164646D02*
G01X1167697D01*
X1167303Y1157954D02*
G01X1167697D01*
X1235197Y1319154D02*
G01X1234803D01*
X1235197Y1325846D02*
G01X1234803D01*
X1227697Y1319154D02*
G01X1227303D01*
X1227697Y1325846D02*
G01X1227303D01*
X1220197Y1319154D02*
G01X1219803D01*
X1220197Y1325846D02*
G01X1219803D01*
X1212697Y1319154D02*
G01X1212303D01*
X1212697Y1325846D02*
G01X1212303D01*
X1205197Y1319154D02*
G01X1204803D01*
X1205197Y1325846D02*
G01X1204803D01*
X1249803D02*
G01X1250197D01*
X1249803Y1319154D02*
G01X1250197D01*
X1257697D02*
G01X1257303D01*
X1257697Y1325846D02*
G01X1257303D01*
X1245197Y1127954D02*
G01X1244803D01*
X1245197Y1134646D02*
G01X1244803D01*
X1255197Y1127954D02*
G01X1254803D01*
X1255197Y1134646D02*
G01X1254803D01*
X1265197Y1127954D02*
G01X1264803D01*
X1265197Y1134646D02*
G01X1264803D01*
X1268947Y1202954D02*
G01X1268553D01*
X1268947Y1209646D02*
G01X1268553D01*
X1262697Y1202954D02*
G01X1262303D01*
X1262697Y1209646D02*
G01X1262303D01*
X1256447Y1202954D02*
G01X1256053D01*
X1256447Y1209646D02*
G01X1256053D01*
X1236447Y1434154D02*
G01X1236053D01*
X1236447Y1440846D02*
G01X1236053D01*
X1226447Y1434154D02*
G01X1226053D01*
X1226447Y1440846D02*
G01X1226053D01*
X1376447Y1141654D02*
G01X1376053D01*
X1376447Y1148346D02*
G01X1376053D01*
X1311447Y1072954D02*
G01X1311053D01*
X1311447Y1079646D02*
G01X1311053D01*
X1428947Y1084154D02*
G01X1428553D01*
X1428947Y1090846D02*
G01X1428553D01*
X1416447Y1084154D02*
G01X1416053D01*
X1416447Y1090846D02*
G01X1416053D01*
X1298947Y1035454D02*
G01X1298553D01*
X1298947Y1042146D02*
G01X1298553D01*
X1291053D02*
G01X1291447D01*
X1291053Y1035454D02*
G01X1291447D01*
X1522303Y1053346D02*
G01X1522697D01*
X1522303Y1046654D02*
G01X1522697D01*
X1515354Y1066053D02*
G01Y1066447D01*
X1522046Y1066053D02*
G01Y1066447D01*
X1238553Y1363346D02*
G01X1238947D01*
X1238553Y1356654D02*
G01X1238947D01*
X1281053Y1380846D02*
G01X1281447D01*
X1281053Y1374154D02*
G01X1281447D01*
X1268553Y1380846D02*
G01X1268947D01*
X1268553Y1374154D02*
G01X1268947D01*
X1403553Y1162096D02*
G01X1403947D01*
X1403553Y1155404D02*
G01X1403947D01*
X1380846Y1155197D02*
G01Y1154803D01*
X1374154Y1155197D02*
G01Y1154803D01*
X1373553Y1198346D02*
G01X1373947D01*
X1373553Y1191654D02*
G01X1373947D01*
X1366053Y1198346D02*
G01X1366447D01*
X1366053Y1191654D02*
G01X1366447D01*
X1470354Y1096053D02*
G01Y1096447D01*
X1477046Y1096053D02*
G01Y1096447D01*
X1470354Y1102303D02*
G01Y1102697D01*
X1477046Y1102303D02*
G01Y1102697D01*
X1470354Y1108553D02*
G01Y1108947D01*
X1477046Y1108553D02*
G01Y1108947D01*
X1352146Y1192697D02*
G01Y1192303D01*
X1345454Y1192697D02*
G01Y1192303D01*
Y1182303D02*
G01Y1182697D01*
X1352146Y1182303D02*
G01Y1182697D01*
X1530404Y1151053D02*
G01Y1151447D01*
X1537096Y1151053D02*
G01Y1151447D01*
X1530404Y1141053D02*
G01Y1141447D01*
X1537096Y1141053D02*
G01Y1141447D01*
X1530404Y1131053D02*
G01Y1131447D01*
X1537096Y1131053D02*
G01Y1131447D01*
X1429154Y1184803D02*
G01Y1185197D01*
X1435846Y1184803D02*
G01Y1185197D01*
X1429154Y1192303D02*
G01Y1192697D01*
X1435846Y1192303D02*
G01Y1192697D01*
X1442904Y1164803D02*
G01Y1165197D01*
X1449596Y1164803D02*
G01Y1165197D01*
X1359154Y1044803D02*
G01Y1045197D01*
X1365846Y1044803D02*
G01Y1045197D01*
X1285846Y1322697D02*
G01Y1322303D01*
X1279154Y1322697D02*
G01Y1322303D01*
X1285846Y1313947D02*
G01Y1313553D01*
X1279154Y1313947D02*
G01Y1313553D01*
X1285846Y1300197D02*
G01Y1299803D01*
X1279154Y1300197D02*
G01Y1299803D01*
X1285846Y1271447D02*
G01Y1271053D01*
X1279154Y1271447D02*
G01Y1271053D01*
X1479596Y1151447D02*
G01Y1151053D01*
X1472904Y1151447D02*
G01Y1151053D01*
X1479596Y1141447D02*
G01Y1141053D01*
X1472904Y1141447D02*
G01Y1141053D01*
X1034803Y1182146D02*
G01X1035197D01*
X1034803Y1175454D02*
G01X1035197D01*
X1041053Y1182146D02*
G01X1041447D01*
X1041053Y1175454D02*
G01X1041447D01*
X1103803Y1184846D02*
G01X1104197D01*
X1103803Y1178154D02*
G01X1104197D01*
X1109803Y1184846D02*
G01X1110197D01*
X1109803Y1178154D02*
G01X1110197D01*
X1134154Y1261053D02*
G01Y1261447D01*
X1140846Y1261053D02*
G01Y1261447D01*
X1247096Y1228947D02*
G01Y1228553D01*
X1240404Y1228947D02*
G01Y1228553D01*
X1247096Y1222697D02*
G01Y1222303D01*
X1240404Y1222697D02*
G01Y1222303D01*
X1247096Y1216447D02*
G01Y1216053D01*
X1240404Y1216447D02*
G01Y1216053D01*
X1275197Y1202954D02*
G01X1274803D01*
X1275197Y1209646D02*
G01X1274803D01*
G54D208*
X1164606Y1366043D02*
G01X1165394D01*
X1164606Y1358957D02*
G01X1165394D01*
X1155856Y1391043D02*
G01X1156644D01*
X1155856Y1383957D02*
G01X1156644D01*
X1155856Y1424793D02*
G01X1156644D01*
X1155856Y1417707D02*
G01X1156644D01*
X1462106Y1384793D02*
G01X1462894D01*
X1462106Y1377707D02*
G01X1462894D01*
X1452106Y1384793D02*
G01X1452894D01*
X1452106Y1377707D02*
G01X1452894D01*
X1509606Y1384793D02*
G01X1510394D01*
X1509606Y1377707D02*
G01X1510394D01*
X1519606Y1384793D02*
G01X1520394D01*
X1519606Y1377707D02*
G01X1520394D01*
G54D17*
X1143750Y1042569D02*
G01Y1044931D01*
X1168750Y1042569D02*
G01Y1044931D01*
X1475394Y1377411D02*
G01X1474606D01*
X1485394D02*
G01X1484606D01*
X1485394Y1410089D02*
G01X1484606D01*
X1475394D02*
G01X1474606D01*
X1534144Y1377411D02*
G01X1533356D01*
X1544144D02*
G01X1543356D01*
X1544144Y1410089D02*
G01X1543356D01*
X1534144D02*
G01X1533356D01*
X1120000Y1062136D02*
G01Y1055443D01*
Y1042057D02*
G01Y1035364D01*
G54D18*
X1541250Y1068848D02*
G01Y1067667D01*
Y1044833D02*
G01Y1043652D01*
X1388750Y1088848D02*
G01Y1087667D01*
Y1064833D02*
G01Y1063652D01*
X1194000Y1044598D02*
G01Y1043417D01*
Y1020583D02*
G01Y1019402D01*
X1201152Y1091250D02*
G01X1202333D01*
X1225167D02*
G01X1226348D01*
X1048386Y1357378D02*
G01Y1354622D01*
X1021614Y1357378D02*
G01Y1354622D01*
X1121378Y1085364D02*
G01X1118622D01*
X1121378Y1112136D02*
G01X1118622D01*
G54D211*
X1339626Y1472933D02*
G01X1344547D01*
X1339626Y1470374D02*
G01X1344547D01*
X1339626Y1467815D02*
G01X1344547D01*
X1339626Y1465256D02*
G01X1344547D01*
X1339626Y1462697D02*
G01X1344547D01*
X1339626Y1460138D02*
G01X1344547D01*
X1339626Y1457579D02*
G01X1344547D01*
X1339626Y1455020D02*
G01X1344547D01*
X1339626Y1452460D02*
G01X1344547D01*
X1339626Y1449901D02*
G01X1344547D01*
X1339626Y1447342D02*
G01X1344547D01*
X1339626Y1444783D02*
G01X1344547D01*
X1339626Y1442224D02*
G01X1344547D01*
X1339626Y1439665D02*
G01X1344547D01*
X1339626Y1437106D02*
G01X1344547D01*
X1339626Y1434547D02*
G01X1344547D01*
X1375453D02*
G01X1380374D01*
X1375453Y1437106D02*
G01X1380374D01*
X1375453Y1439665D02*
G01X1380374D01*
X1375453Y1442224D02*
G01X1380374D01*
X1375453Y1444783D02*
G01X1380374D01*
X1375453Y1447342D02*
G01X1380374D01*
X1375453Y1449901D02*
G01X1380374D01*
X1375453Y1452460D02*
G01X1380374D01*
X1375453Y1455020D02*
G01X1380374D01*
X1375453Y1457579D02*
G01X1380374D01*
X1375453Y1460138D02*
G01X1380374D01*
X1375453Y1462697D02*
G01X1380374D01*
X1375453Y1465256D02*
G01X1380374D01*
X1375453Y1467815D02*
G01X1380374D01*
X1375453Y1470374D02*
G01X1380374D01*
X1375453Y1472933D02*
G01X1380374D01*
X1251634Y1384547D02*
G01X1246713D01*
X1251634Y1387106D02*
G01X1246713D01*
X1251634Y1389665D02*
G01X1246713D01*
X1251634Y1392224D02*
G01X1246713D01*
X1251634Y1394783D02*
G01X1246713D01*
X1251634Y1397342D02*
G01X1246713D01*
X1251634Y1399901D02*
G01X1246713D01*
X1251634Y1402460D02*
G01X1246713D01*
X1251634Y1405020D02*
G01X1246713D01*
X1251634Y1407579D02*
G01X1246713D01*
X1251634Y1410138D02*
G01X1246713D01*
X1251634Y1412697D02*
G01X1246713D01*
X1251634Y1415256D02*
G01X1246713D01*
X1251634Y1417815D02*
G01X1246713D01*
X1251634Y1420374D02*
G01X1246713D01*
X1251634Y1422933D02*
G01X1246713D01*
X1215807D02*
G01X1210886D01*
X1215807Y1420374D02*
G01X1210886D01*
X1215807Y1417815D02*
G01X1210886D01*
X1215807Y1415256D02*
G01X1210886D01*
X1215807Y1412697D02*
G01X1210886D01*
X1215807Y1410138D02*
G01X1210886D01*
X1215807Y1407579D02*
G01X1210886D01*
X1215807Y1405020D02*
G01X1210886D01*
X1215807Y1402460D02*
G01X1210886D01*
X1215807Y1399901D02*
G01X1210886D01*
X1215807Y1397342D02*
G01X1210886D01*
X1215807Y1394783D02*
G01X1210886D01*
X1215807Y1392224D02*
G01X1210886D01*
X1215807Y1389665D02*
G01X1210886D01*
X1215807Y1387106D02*
G01X1210886D01*
X1215807Y1384547D02*
G01X1210886D01*
X1349360Y1293297D02*
G01X1354281D01*
X1349360Y1290738D02*
G01X1354281D01*
X1349360Y1288179D02*
G01X1354281D01*
X1349360Y1285620D02*
G01X1354281D01*
X1349360Y1283061D02*
G01X1354281D01*
X1349360Y1280502D02*
G01X1354281D01*
X1349360Y1277943D02*
G01X1354281D01*
X1349360Y1275384D02*
G01X1354281D01*
X1349360Y1272825D02*
G01X1354281D01*
X1349360Y1270266D02*
G01X1354281D01*
X1349360Y1267707D02*
G01X1354281D01*
X1349360Y1265148D02*
G01X1354281D01*
X1349360Y1262589D02*
G01X1354281D01*
X1349360Y1260030D02*
G01X1354281D01*
X1349360Y1257470D02*
G01X1354281D01*
X1349360Y1254911D02*
G01X1354281D01*
X1349360Y1252352D02*
G01X1354281D01*
X1349360Y1249793D02*
G01X1354281D01*
X1349360Y1247234D02*
G01X1354281D01*
X1349360Y1244675D02*
G01X1354281D01*
X1349360Y1242116D02*
G01X1354281D01*
X1349360Y1239557D02*
G01X1354281D01*
X1349360Y1236998D02*
G01X1354281D01*
X1349360Y1234439D02*
G01X1354281D01*
X1349360Y1231880D02*
G01X1354281D01*
X1349360Y1229321D02*
G01X1354281D01*
X1349360Y1226762D02*
G01X1354281D01*
X1349360Y1224203D02*
G01X1354281D01*
X1359203Y1214360D02*
G01Y1219281D01*
X1361762Y1214360D02*
G01Y1219281D01*
X1364321Y1214360D02*
G01Y1219281D01*
X1366880Y1214360D02*
G01Y1219281D01*
X1369439Y1214360D02*
G01Y1219281D01*
X1371998Y1214360D02*
G01Y1219281D01*
X1374557Y1214360D02*
G01Y1219281D01*
X1377116Y1214360D02*
G01Y1219281D01*
X1379675Y1214360D02*
G01Y1219281D01*
X1382234Y1214360D02*
G01Y1219281D01*
X1384793Y1214360D02*
G01Y1219281D01*
X1387352Y1214360D02*
G01Y1219281D01*
X1389911Y1214360D02*
G01Y1219281D01*
X1392470Y1214360D02*
G01Y1219281D01*
X1395030Y1214360D02*
G01Y1219281D01*
X1397589Y1214360D02*
G01Y1219281D01*
X1400148Y1214360D02*
G01Y1219281D01*
X1402707Y1214360D02*
G01Y1219281D01*
X1405266Y1214360D02*
G01Y1219281D01*
X1407825Y1214360D02*
G01Y1219281D01*
X1410384Y1214360D02*
G01Y1219281D01*
X1412943Y1214360D02*
G01Y1219281D01*
X1415502Y1214360D02*
G01Y1219281D01*
X1418061Y1214360D02*
G01Y1219281D01*
X1420620Y1214360D02*
G01Y1219281D01*
X1423179Y1214360D02*
G01Y1219281D01*
X1425738Y1214360D02*
G01Y1219281D01*
X1428297Y1214360D02*
G01Y1219281D01*
X1433219Y1224203D02*
G01X1438140D01*
X1433219Y1226762D02*
G01X1438140D01*
X1433219Y1229321D02*
G01X1438140D01*
X1433219Y1231880D02*
G01X1438140D01*
X1433219Y1234439D02*
G01X1438140D01*
X1433219Y1236998D02*
G01X1438140D01*
X1433219Y1239557D02*
G01X1438140D01*
X1433219Y1242116D02*
G01X1438140D01*
X1433219Y1244675D02*
G01X1438140D01*
X1433219Y1247234D02*
G01X1438140D01*
X1433219Y1249793D02*
G01X1438140D01*
X1433219Y1252352D02*
G01X1438140D01*
X1433219Y1254911D02*
G01X1438140D01*
X1433219Y1257470D02*
G01X1438140D01*
X1433219Y1260030D02*
G01X1438140D01*
X1433219Y1262589D02*
G01X1438140D01*
X1433219Y1265148D02*
G01X1438140D01*
X1433219Y1267707D02*
G01X1438140D01*
X1433219Y1270266D02*
G01X1438140D01*
X1433219Y1272825D02*
G01X1438140D01*
X1433219Y1275384D02*
G01X1438140D01*
X1433219Y1277943D02*
G01X1438140D01*
X1433219Y1280502D02*
G01X1438140D01*
X1433219Y1283061D02*
G01X1438140D01*
X1433219Y1285620D02*
G01X1438140D01*
X1433219Y1288179D02*
G01X1438140D01*
X1433219Y1290738D02*
G01X1438140D01*
X1433219Y1293297D02*
G01X1438140D01*
X1428297Y1298219D02*
G01Y1303140D01*
X1425738Y1298219D02*
G01Y1303140D01*
X1423179Y1298219D02*
G01Y1303140D01*
X1420620Y1298219D02*
G01Y1303140D01*
X1418061Y1298219D02*
G01Y1303140D01*
X1415502Y1298219D02*
G01Y1303140D01*
X1412943Y1298219D02*
G01Y1303140D01*
X1410384Y1298219D02*
G01Y1303140D01*
X1407825Y1298219D02*
G01Y1303140D01*
X1405266Y1298219D02*
G01Y1303140D01*
X1402707Y1298219D02*
G01Y1303140D01*
X1400148Y1298219D02*
G01Y1303140D01*
X1397589Y1298219D02*
G01Y1303140D01*
X1395030Y1298219D02*
G01Y1303140D01*
X1392470Y1298219D02*
G01Y1303140D01*
X1389911Y1298219D02*
G01Y1303140D01*
X1387352Y1298219D02*
G01Y1303140D01*
X1384793Y1298219D02*
G01Y1303140D01*
X1382234Y1298219D02*
G01Y1303140D01*
X1379675Y1298219D02*
G01Y1303140D01*
X1377116Y1298219D02*
G01Y1303140D01*
X1374557Y1298219D02*
G01Y1303140D01*
X1371998Y1298219D02*
G01Y1303140D01*
X1369439Y1298219D02*
G01Y1303140D01*
X1366880Y1298219D02*
G01Y1303140D01*
X1364321Y1298219D02*
G01Y1303140D01*
X1361762Y1298219D02*
G01Y1303140D01*
X1359203Y1298219D02*
G01Y1303140D01*
G54D213*
X1532500Y1333902D02*
G01Y1340201D01*
X1537500Y1333902D02*
G01Y1340201D01*
X1542500Y1333902D02*
G01Y1340201D01*
X1547500Y1333902D02*
G01Y1340201D01*
Y1352799D02*
G01Y1359098D01*
X1542500Y1352799D02*
G01Y1359098D01*
X1537500Y1352799D02*
G01Y1359098D01*
X1532500Y1352799D02*
G01Y1359098D01*
X1508598Y1092500D02*
G01X1502299D01*
X1508598Y1097500D02*
G01X1502299D01*
X1508598Y1102500D02*
G01X1502299D01*
X1508598Y1107500D02*
G01X1502299D01*
X1489701D02*
G01X1483402D01*
X1489701Y1102500D02*
G01X1483402D01*
X1489701Y1097500D02*
G01X1483402D01*
X1489701Y1092500D02*
G01X1483402D01*
X1382598Y1345000D02*
G01X1376299D01*
X1382598Y1350000D02*
G01X1376299D01*
X1382598Y1355000D02*
G01X1376299D01*
X1382598Y1360000D02*
G01X1376299D01*
X1363701D02*
G01X1357402D01*
X1363701Y1355000D02*
G01X1357402D01*
X1363701Y1350000D02*
G01X1357402D01*
X1363701Y1345000D02*
G01X1357402D01*
X1382598Y1320000D02*
G01X1376299D01*
X1382598Y1325000D02*
G01X1376299D01*
X1382598Y1330000D02*
G01X1376299D01*
X1382598Y1335000D02*
G01X1376299D01*
X1363701D02*
G01X1357402D01*
X1363701Y1330000D02*
G01X1357402D01*
X1363701Y1325000D02*
G01X1357402D01*
X1363701Y1320000D02*
G01X1357402D01*
X1198750Y1211402D02*
G01Y1217701D01*
X1203750Y1211402D02*
G01Y1217701D01*
X1208750Y1211402D02*
G01Y1217701D01*
X1213750Y1211402D02*
G01Y1217701D01*
Y1230299D02*
G01Y1236598D01*
X1208750Y1230299D02*
G01Y1236598D01*
X1203750Y1230299D02*
G01Y1236598D01*
X1198750Y1230299D02*
G01Y1236598D01*
X1209990Y1306250D02*
G01X1216683D01*
X1209990Y1301250D02*
G01X1216683D01*
X1209990Y1296250D02*
G01X1216683D01*
X1209990Y1291250D02*
G01X1216683D01*
X1209990Y1286250D02*
G01X1216683D01*
X1209990Y1281250D02*
G01X1216683D01*
X1209990Y1276250D02*
G01X1216683D01*
X1209990Y1271250D02*
G01X1216683D01*
X1209990Y1266250D02*
G01X1216683D01*
X1209990Y1261250D02*
G01X1216683D01*
X1245817D02*
G01X1252510D01*
X1245817Y1266250D02*
G01X1252510D01*
X1245817Y1271250D02*
G01X1252510D01*
X1245817Y1276250D02*
G01X1252510D01*
X1245817Y1281250D02*
G01X1252510D01*
X1245817Y1286250D02*
G01X1252510D01*
X1245817Y1291250D02*
G01X1252510D01*
X1245817Y1296250D02*
G01X1252510D01*
X1245817Y1301250D02*
G01X1252510D01*
X1245817Y1306250D02*
G01X1252510D01*
X1501260Y1114094D02*
G01Y1116457D01*
X1505000Y1114094D02*
G01Y1116457D01*
X1508740Y1114094D02*
G01Y1116457D01*
Y1123543D02*
G01Y1125906D01*
X1501260Y1123543D02*
G01Y1125906D01*
X1240000Y1147490D02*
G01Y1154183D01*
X1245000Y1147490D02*
G01Y1154183D01*
X1250000Y1147490D02*
G01Y1154183D01*
X1255000Y1147490D02*
G01Y1154183D01*
X1260000Y1147490D02*
G01Y1154183D01*
X1265000Y1147490D02*
G01Y1154183D01*
X1270000Y1147490D02*
G01Y1154183D01*
X1275000Y1147490D02*
G01Y1154183D01*
Y1183317D02*
G01Y1190010D01*
X1270000Y1183317D02*
G01Y1190010D01*
X1265000Y1183317D02*
G01Y1190010D01*
X1260000Y1183317D02*
G01Y1190010D01*
X1255000Y1183317D02*
G01Y1190010D01*
X1250000Y1183317D02*
G01Y1190010D01*
X1245000Y1183317D02*
G01Y1190010D01*
X1240000Y1183317D02*
G01Y1190010D01*
X1237500Y1054990D02*
G01Y1060502D01*
X1242500Y1054990D02*
G01Y1060502D01*
X1247500Y1054990D02*
G01Y1060502D01*
X1252500Y1054990D02*
G01Y1060502D01*
X1257500Y1054990D02*
G01Y1060502D01*
X1262500Y1054990D02*
G01Y1060502D01*
X1267500Y1054990D02*
G01Y1060502D01*
X1272500Y1054990D02*
G01Y1060502D01*
X1277500Y1054990D02*
G01Y1060502D01*
X1282500Y1054990D02*
G01Y1060502D01*
X1287500Y1054990D02*
G01Y1060502D01*
X1292500Y1054990D02*
G01Y1060502D01*
X1297500Y1054990D02*
G01Y1060502D01*
X1302500Y1054990D02*
G01Y1060502D01*
Y1091998D02*
G01Y1097510D01*
X1297500Y1091998D02*
G01Y1097510D01*
X1292500Y1091998D02*
G01Y1097510D01*
X1287500Y1091998D02*
G01Y1097510D01*
X1282500Y1091998D02*
G01Y1097510D01*
X1277500Y1091998D02*
G01Y1097510D01*
X1272500Y1091998D02*
G01Y1097510D01*
X1267500Y1091998D02*
G01Y1097510D01*
X1262500Y1091998D02*
G01Y1097510D01*
X1257500Y1091998D02*
G01Y1097510D01*
X1252500Y1091998D02*
G01Y1097510D01*
X1247500Y1091998D02*
G01Y1097510D01*
X1242500Y1091998D02*
G01Y1097510D01*
X1237500Y1091998D02*
G01Y1097510D01*
X1420000Y1406348D02*
G01Y1400049D01*
X1415000Y1406348D02*
G01Y1400049D01*
X1410000Y1406348D02*
G01Y1400049D01*
X1405000Y1406348D02*
G01Y1400049D01*
X1400000Y1406348D02*
G01Y1400049D01*
X1395000Y1406348D02*
G01Y1400049D01*
X1390000Y1406348D02*
G01Y1400049D01*
Y1387451D02*
G01Y1381152D01*
X1395000Y1387451D02*
G01Y1381152D01*
X1400000Y1387451D02*
G01Y1381152D01*
X1405000Y1387451D02*
G01Y1381152D01*
X1410000Y1387451D02*
G01Y1381152D01*
X1415000Y1387451D02*
G01Y1381152D01*
X1420000Y1387451D02*
G01Y1381152D01*
G54D214*
X1318071Y1426309D02*
G01X1319449D01*
X1318071Y1421191D02*
G01X1319449D01*
X1325551Y1423750D02*
G01X1326929D01*
X1318071Y1411309D02*
G01X1319449D01*
X1318071Y1406191D02*
G01X1319449D01*
X1325551Y1408750D02*
G01X1326929D01*
X1318071Y1396309D02*
G01X1319449D01*
X1318071Y1391191D02*
G01X1319449D01*
X1325551Y1393750D02*
G01X1326929D01*
X1327441Y1433071D02*
G01Y1434449D01*
X1332559Y1433071D02*
G01Y1434449D01*
X1330000Y1440551D02*
G01Y1441929D01*
X1318071Y1381309D02*
G01X1319449D01*
X1318071Y1376191D02*
G01X1319449D01*
X1325551Y1378750D02*
G01X1326929D01*
X1444321Y1467559D02*
G01X1445699D01*
X1444321Y1462441D02*
G01X1445699D01*
X1451801Y1465000D02*
G01X1453179D01*
X1460571Y1467559D02*
G01X1461949D01*
X1460571Y1462441D02*
G01X1461949D01*
X1468051Y1465000D02*
G01X1469429D01*
X1476821Y1467559D02*
G01X1478199D01*
X1476821Y1462441D02*
G01X1478199D01*
X1484301Y1465000D02*
G01X1485679D01*
X1493071Y1467559D02*
G01X1494449D01*
X1493071Y1462441D02*
G01X1494449D01*
X1500551Y1465000D02*
G01X1501929D01*
X1509321Y1467559D02*
G01X1510699D01*
X1509321Y1462441D02*
G01X1510699D01*
X1516801Y1465000D02*
G01X1518179D01*
X1525571Y1467559D02*
G01X1526949D01*
X1525571Y1462441D02*
G01X1526949D01*
X1533051Y1465000D02*
G01X1534429D01*
X1541821Y1467559D02*
G01X1543199D01*
X1541821Y1462441D02*
G01X1543199D01*
X1549301Y1465000D02*
G01X1550679D01*
X1558071Y1467559D02*
G01X1559449D01*
X1558071Y1462441D02*
G01X1559449D01*
X1565551Y1465000D02*
G01X1566929D01*
X1522559Y1298229D02*
G01Y1296851D01*
X1517441Y1298229D02*
G01Y1296851D01*
X1520000Y1290749D02*
G01Y1289371D01*
X1487559Y1298229D02*
G01Y1296851D01*
X1482441Y1298229D02*
G01Y1296851D01*
X1485000Y1290749D02*
G01Y1289371D01*
X1492071Y1068809D02*
G01X1493449D01*
X1492071Y1063691D02*
G01X1493449D01*
X1499551Y1066250D02*
G01X1500929D01*
X1243691Y1341871D02*
G01Y1343249D01*
X1248809Y1341871D02*
G01Y1343249D01*
X1246250Y1349351D02*
G01Y1350729D01*
X1228691Y1341871D02*
G01Y1343249D01*
X1233809Y1341871D02*
G01Y1343249D01*
X1231250Y1349351D02*
G01Y1350729D01*
X1217441Y1341871D02*
G01Y1343249D01*
X1222559Y1341871D02*
G01Y1343249D01*
X1220000Y1349351D02*
G01Y1350729D01*
G54D215*
X1336240Y1113701D02*
G01Y1110354D01*
X1328760Y1113701D02*
G01Y1110354D01*
X1332500Y1104646D02*
G01Y1101299D01*
X1218760Y1050099D02*
G01Y1053446D01*
X1226240Y1050099D02*
G01Y1053446D01*
X1222500Y1059154D02*
G01Y1062501D01*
X1424901Y1423760D02*
G01X1421554D01*
X1424901Y1431240D02*
G01X1421554D01*
X1415846Y1427500D02*
G01X1412499D01*
X1271260Y1386299D02*
G01Y1389646D01*
X1278740Y1386299D02*
G01Y1389646D01*
X1275000Y1395354D02*
G01Y1398701D01*
G54D217*
X1095000Y1197941D02*
G01Y1206241D01*
X1100000Y1197941D02*
G01Y1206241D01*
X1105000Y1197941D02*
G01Y1206241D01*
X1110000Y1197941D02*
G01Y1206241D01*
X1115000Y1197941D02*
G01Y1206241D01*
X1120000Y1197941D02*
G01Y1206241D01*
X1125000Y1197941D02*
G01Y1206241D01*
X1020000Y1197941D02*
G01Y1206241D01*
X1025000Y1197941D02*
G01Y1206241D01*
X1030000Y1197941D02*
G01Y1206241D01*
X1035000Y1197941D02*
G01Y1206241D01*
X1040000Y1197941D02*
G01Y1206241D01*
X1045000Y1197941D02*
G01Y1206241D01*
X1050000Y1197941D02*
G01Y1206241D01*
G54D19*
X1128750Y1386870D02*
G01Y1388839D01*
Y1406161D02*
G01Y1408130D01*
X1163750Y1316870D02*
G01Y1318839D01*
Y1336161D02*
G01Y1338130D01*
X1146250Y1351870D02*
G01Y1353839D01*
Y1371161D02*
G01Y1373130D01*
G54D220*
X1105000Y1469419D02*
G01Y1468435D01*
Y1429065D02*
G01Y1428081D01*
X1035000Y1289331D02*
G01Y1290315D01*
Y1329685D02*
G01Y1330669D01*
X1110000Y1289331D02*
G01Y1290315D01*
Y1329685D02*
G01Y1330669D01*
G54D70*
X1530531Y1221250D02*
G01X1538209D01*
X1551791D02*
G01X1559469D01*
X1530531Y1211250D02*
G01X1538209D01*
X1551791D02*
G01X1559469D01*
X1530531Y1201250D02*
G01X1538209D01*
X1551791D02*
G01X1559469D01*
X1530531Y1191250D02*
G01X1538209D01*
X1551791D02*
G01X1559469D01*
X1530531Y1181250D02*
G01X1538209D01*
X1551791D02*
G01X1559469D01*
X1007500Y1045531D02*
G01Y1053209D01*
Y1066791D02*
G01Y1074469D01*
X1017500Y1045531D02*
G01Y1053209D01*
Y1066791D02*
G01Y1074469D01*
X1027500Y1045531D02*
G01Y1053209D01*
Y1066791D02*
G01Y1074469D01*
X1037500Y1045531D02*
G01Y1053209D01*
Y1066791D02*
G01Y1074469D01*
X1047500Y1045531D02*
G01Y1053209D01*
Y1066791D02*
G01Y1074469D01*
X1333415Y1172500D02*
G01X1325738D01*
X1311762D02*
G01X1304085D01*
X1333415Y1182500D02*
G01X1325738D01*
X1311762D02*
G01X1304085D01*
X1333415Y1192500D02*
G01X1325738D01*
X1311762D02*
G01X1304085D01*
G54D222*
X1353524Y1059108D02*
G01Y1061108D01*
X1371476Y1059108D02*
G01Y1061108D01*
G54D229*
X1086900Y862874D02*
G03X1094774Y855000I7874D01*
Y855000D02*
G01X1456979D01*
Y855000D02*
G03X1464853Y862874J7874D01*
Y862874D02*
G01Y933740D01*
Y933740D02*
G03X1456979Y941614I-7874D01*
Y941614D02*
G01X1094774D01*
Y941614D02*
G03X1086900Y933740J-7874D01*
Y933740D02*
G01Y862874D01*
G54D230*
X1146599Y903277D02*
G01X1145525Y902785D01*
X1144810Y901309*
X1144452Y898848*
Y897372*
X1144810Y894911*
X1145525Y893435*
X1146599Y892942*
X1147315*
X1148389Y893435*
X1149105Y894911*
Y894911D02*
G01X1149462Y897372D01*
Y898848*
X1149105Y901309*
Y901309D02*
G01X1148389Y902785D01*
X1147315Y903277*
X1146599*
X1157336Y899832D02*
G01X1156979Y898356D01*
Y898356D02*
G01X1156263Y897372D01*
X1155189Y896879*
X1154831*
X1153757Y897372*
X1153042Y898356*
Y898356D02*
G01X1152684Y899832D01*
Y900324*
X1153042Y901801*
Y901801D02*
G01X1153757Y902785D01*
X1154831Y903277*
X1155189*
X1156263Y902785*
X1156979Y901801*
Y901801D02*
G01X1157336Y899832D01*
Y897372*
X1156979Y894911*
Y894911D02*
G01X1156263Y893435D01*
X1155189Y892942*
X1154473*
X1153399Y893435*
X1153042Y894419*
X1160558Y897372D02*
G01X1167000D01*
X1172369Y903277D02*
G01X1171295Y902785D01*
X1170579Y901309*
X1170221Y898848*
Y897372*
X1170579Y894911*
X1171295Y893435*
X1172369Y892942*
X1173084*
X1174158Y893435*
X1174874Y894911*
X1175232Y897372*
Y898848*
X1174874Y901309*
X1174158Y902785*
X1173084Y903277*
X1172369*
X1180601D02*
G01X1179527Y902785D01*
X1178811Y901309*
X1178453Y898848*
Y897372*
X1178811Y894911*
X1179527Y893435*
X1180601Y892942*
Y892942D02*
G01X1181316D01*
X1182390Y893435*
X1183106Y894911*
X1183464Y897372*
Y898848*
X1183106Y901309*
X1182390Y902785*
X1181316Y903277*
X1180601*
X1188832D02*
G01X1187759Y902785D01*
X1187043Y901309*
X1186685Y898848*
Y897372*
X1187043Y894911*
X1187759Y893435*
X1188832Y892942*
X1189548*
X1190622Y893435*
X1191338Y894911*
X1191696Y897372*
Y898848*
X1191338Y901309*
X1190622Y902785*
X1189548Y903277*
X1188832*
X1194917Y901309D02*
G01X1195633Y901801D01*
X1196706Y903277*
Y892942*
X1204223Y901801D02*
G01X1203865Y902785D01*
X1202791Y903277*
X1202075*
X1201001Y902785*
X1200286Y901309*
Y901309D02*
G01X1199928Y898848D01*
Y896387*
X1200286Y894419*
Y894419D02*
G01X1201001Y893435D01*
X1202075Y892942*
X1202433*
X1203507Y893435*
X1204223Y894419*
Y894419D02*
G01X1204580Y895895D01*
Y896387*
X1204223Y897864*
Y897864D02*
G01X1203507Y898848D01*
X1202433Y899340*
X1202075*
X1201001Y898848*
X1200286Y897864*
Y897864D02*
G01X1199928Y896387D01*
X1208160Y900816D02*
G01Y901309D01*
Y901309D02*
G01X1208517Y902293D01*
X1208875Y902785*
X1209591Y903277*
X1211023*
X1211739Y902785*
X1212097Y902293*
Y902293D02*
G01X1212454Y901309D01*
Y900324*
X1212097Y899340*
Y899340D02*
G01X1211381Y897864D01*
X1207802Y892942*
X1212812*
X1216034Y897372D02*
G01X1222476D01*
X1227845Y903277D02*
G01X1226771Y902785D01*
X1226055Y901309*
X1225697Y898848*
Y897372*
X1226055Y894911*
X1226771Y893435*
X1227845Y892942*
Y892942D02*
G01X1228560D01*
X1229634Y893435*
X1230350Y894911*
X1230708Y897372*
Y898848*
X1230350Y901309*
X1229634Y902785*
X1228560Y903277*
X1227845*
X1236076D02*
G01X1235003Y902785D01*
X1234287Y901309*
X1233929Y898848*
Y897372*
X1234287Y894911*
X1235003Y893435*
X1236076Y892942*
X1236792*
X1237866Y893435*
X1238582Y894911*
X1238940Y897372*
Y898848*
X1238582Y901309*
X1237866Y902785*
X1236792Y903277*
X1236076*
X1173084Y928869D02*
G01X1173800Y929361D01*
X1174874Y930837*
Y920502*
X1178453Y928376D02*
G01Y928869D01*
X1178811Y929853*
X1179169Y930345*
X1179885Y930837*
X1181316*
X1182032Y930345*
X1182390Y929853*
X1182748Y928869*
Y927884*
X1182390Y926900*
X1181674Y925424*
X1178095Y920502*
X1183106*
X1186327Y930837D02*
G01X1189190Y920502D01*
X1192054Y930837D02*
G01X1189190Y920502D01*
X1195275Y930837D02*
G01Y920502D01*
Y930837D02*
G01X1197780D01*
X1198854Y930345*
X1199570Y929361*
X1199928Y928376*
X1200286Y926900*
Y926900D02*
G01Y924439D01*
Y924439D02*
G01X1199928Y922963D01*
X1199570Y921979*
X1198854Y920995*
X1197780Y920502*
X1195275*
X1208875Y928376D02*
G01X1208517Y929361D01*
X1207802Y930345*
X1207086Y930837*
X1205654*
X1204938Y930345*
X1204223Y929361*
Y929361D02*
G01X1203865Y928376D01*
X1203507Y926900*
Y924439*
X1203865Y922963*
X1204223Y921979*
Y921979D02*
G01X1204938Y920995D01*
X1205654Y920502*
X1207086*
X1207802Y920995*
X1208517Y921979*
X1208875Y922963*
X1220328Y930837D02*
G01Y920502D01*
X1225339Y930837D02*
G01Y920502D01*
X1220328Y925916D02*
G01X1225339D01*
X1228560Y930837D02*
G01X1231424Y920502D01*
X1234287Y930837D02*
G01X1231424Y920502D01*
X1240371Y930837D02*
G01X1237508Y920502D01*
X1240371Y930837D02*
G01X1243235Y920502D01*
X1238582Y923947D02*
G01X1242161D01*
X1251824Y928376D02*
G01X1251467Y929361D01*
Y929361D02*
G01X1250751Y930345D01*
X1250035Y930837*
X1248603*
X1247887Y930345*
X1247172Y929361*
X1246814Y928376*
X1246456Y926900*
Y924439*
X1246814Y922963*
X1247172Y921979*
X1247887Y920995*
X1248603Y920502*
X1250035*
X1250751Y920995*
X1251467Y921979*
Y921979D02*
G01X1251824Y922963D01*
X1268646Y928376D02*
G01X1268288Y929361D01*
X1267572Y930345*
X1266857Y930837*
X1265425*
X1264709Y930345*
X1263993Y929361*
X1263635Y928376*
X1263278Y926900*
Y926900D02*
G01Y924439D01*
Y924439D02*
G01X1263635Y922963D01*
X1263993Y921979*
X1264709Y920995*
X1265425Y920502*
X1266857*
X1267572Y920995*
X1268288Y921979*
X1268646Y922963*
X1274015Y930837D02*
G01X1273299Y930345D01*
X1272583Y929361*
X1272225Y928376*
X1271867Y926900*
Y924439*
X1272225Y922963*
X1272583Y921979*
X1273299Y920995*
X1274015Y920502*
X1275446*
X1276162Y920995*
X1276878Y921979*
X1277236Y922963*
X1277594Y924439*
Y926900*
X1277236Y928376*
X1276878Y929361*
X1276162Y930345*
X1275446Y930837*
X1274015*
X1280815D02*
G01Y920502D01*
Y930837D02*
G01X1285826Y920502D01*
Y930837D02*
G01Y920502D01*
X1291552Y930837D02*
G01Y920502D01*
X1289047Y930837D02*
G01X1294058D01*
X1297279D02*
G01Y920502D01*
Y930837D02*
G01X1300500D01*
X1301574Y930345*
X1301932Y929853*
X1302290Y928869*
Y927884*
X1301932Y926900*
X1301574Y926408*
X1300500Y925916*
X1297279*
X1299784D02*
G01X1302290Y920502D01*
X1307658Y930837D02*
G01X1306942Y930345D01*
X1306227Y929361*
X1305869Y928376*
X1305511Y926900*
Y924439*
X1305869Y922963*
X1306227Y921979*
X1306942Y920995*
X1307658Y920502*
X1309090*
X1309806Y920995*
X1310522Y921979*
Y921979D02*
G01X1310879Y922963D01*
X1311237Y924439*
Y926900*
X1310879Y928376*
X1310522Y929361*
Y929361D02*
G01X1309806Y930345D01*
X1309090Y930837*
X1307658*
X1314459D02*
G01Y920502D01*
Y920502D02*
G01X1318753D01*
X1321975Y930837D02*
G01Y920502D01*
X1326270*
X1329491Y930837D02*
G01Y920502D01*
Y930837D02*
G01X1334144D01*
X1329491Y925916D02*
G01X1332354D01*
X1329491Y920502D02*
G01X1334144D01*
X1337365Y930837D02*
G01Y920502D01*
Y930837D02*
G01X1340586D01*
X1341660Y930345*
X1342018Y929853*
Y929853D02*
G01X1342375Y928869D01*
Y927884*
X1342018Y926900*
Y926900D02*
G01X1341660Y926408D01*
X1340586Y925916*
X1337365*
X1339870D02*
G01X1342375Y920502D01*
X1353829Y930837D02*
G01Y920502D01*
Y930837D02*
G01X1357050D01*
X1358123Y930345*
X1358481Y929853*
X1358839Y928869*
Y927392*
X1358481Y926408*
X1358123Y925916*
X1357050Y925424*
X1353829*
X1367429Y928376D02*
G01X1367071Y929361D01*
X1366355Y930345*
X1365640Y930837*
Y930837D02*
G01X1364208D01*
X1363492Y930345*
X1362776Y929361*
X1362418Y928376*
X1362060Y926900*
Y924439*
X1362418Y922963*
X1362776Y921979*
X1363492Y920995*
X1364208Y920502*
X1365640*
Y920502D02*
G01X1366355Y920995D01*
X1367071Y921979*
X1367429Y922963*
X1370650Y930837D02*
G01Y920502D01*
Y930837D02*
G01X1373871D01*
X1374945Y930345*
X1375303Y929853*
X1375661Y928869*
Y927884*
X1375303Y926900*
X1374945Y926408*
X1373871Y925916*
X1370650D02*
G01X1373871D01*
X1374945Y925424*
X1375303Y924932*
X1375661Y923947*
Y922471*
X1375303Y921487*
X1374945Y920995*
X1373871Y920502*
X1370650*
X1358231Y900816D02*
G01Y901309D01*
X1358589Y902293*
X1358947Y902785*
X1359663Y903277*
X1361094*
X1361810Y902785*
X1362168Y902293*
X1362526Y901309*
Y900324*
X1362168Y899340*
X1361452Y897864*
X1357873Y892942*
X1362884*
X1369684Y903277D02*
G01X1366105Y896387D01*
X1371474*
X1369684Y903277D02*
G01Y892942D01*
X1374695Y897372D02*
G01X1381137D01*
X1384359Y903277D02*
G01Y892942D01*
Y903277D02*
G01X1387222Y892942D01*
X1390085Y903277D02*
G01X1387222Y892942D01*
X1390085Y903277D02*
G01Y892942D01*
X1396170Y903277D02*
G01X1393306Y892942D01*
X1396170Y903277D02*
G01X1399033Y892942D01*
X1394380Y896387D02*
G01X1397959D01*
X1402254Y903277D02*
G01Y892942D01*
Y903277D02*
G01X1405475D01*
X1406549Y902785*
X1406907Y902293*
X1407265Y901309*
Y900324*
X1406907Y899340*
X1406549Y898848*
X1405475Y898356*
X1402254*
X1404759D02*
G01X1407265Y892942D01*
X1410486Y897372D02*
G01X1416928D01*
X1422297Y903277D02*
G01X1421223Y902785D01*
X1420507Y901309*
X1420149Y898848*
Y897372*
X1420507Y894911*
X1421223Y893435*
X1422297Y892942*
X1423013*
X1424086Y893435*
X1424802Y894911*
X1425160Y897372*
Y898848*
X1424802Y901309*
X1424086Y902785*
X1423013Y903277*
X1422297*
X1430171D02*
G01X1429097Y902785D01*
X1428739Y901801*
Y900816*
X1429097Y899832*
X1429813Y899340*
X1431245Y898848*
X1432318Y898356*
X1433034Y897372*
X1433392Y896387*
Y894911*
X1433034Y893927*
X1432676Y893435*
X1431603Y892942*
X1430171*
X1429097Y893435*
X1428739Y893927*
X1428381Y894911*
Y896387*
X1428739Y897372*
X1429455Y898356*
X1430529Y898848*
X1431960Y899340*
X1432676Y899832*
X1433034Y900816*
Y901801*
X1432676Y902785*
X1431603Y903277*
X1430171*
X1288797D02*
G01X1285934Y892942D01*
X1288797Y903277D02*
G01X1291660Y892942D01*
X1287007Y896387D02*
G01X1290586D01*
X1297745Y903277D02*
G01X1294881Y892942D01*
X1297745Y903277D02*
G01X1300608Y892942D01*
X1295955Y896387D02*
G01X1299534D01*
X1097500Y875335D02*
G01Y865000D01*
Y875335D02*
G01X1100721D01*
X1101795Y874843*
Y874843D02*
G01X1102153Y874350D01*
X1102511Y873366*
Y871890*
X1102153Y870906*
Y870906D02*
G01X1101795Y870413D01*
X1100721Y869921*
X1097500*
X1108595Y875335D02*
G01X1105732Y865000D01*
X1108595Y875335D02*
G01X1111458Y865000D01*
X1106806Y868445D02*
G01X1110385D01*
X1119690Y873858D02*
G01X1118975Y874843D01*
Y874843D02*
G01X1117901Y875335D01*
X1116469*
X1115395Y874843*
Y874843D02*
G01X1114680Y873858D01*
Y872874*
X1115038Y871890*
X1115395Y871398*
X1116111Y870906*
Y870906D02*
G01X1118259Y869921D01*
X1118975Y869429*
X1119332Y868937*
X1119690Y867953*
Y866476*
X1118975Y865492*
X1117901Y865000*
X1116469*
X1115395Y865492*
X1114680Y866476*
X1125417Y875335D02*
G01Y865000D01*
X1122912Y875335D02*
G01X1127922D01*
X1131143D02*
G01Y865000D01*
Y875335D02*
G01X1135796D01*
X1131143Y870413D02*
G01X1134007D01*
X1131143Y865000D02*
G01X1135796D01*
X1147249Y875335D02*
G01Y865000D01*
Y875335D02*
G01X1150113Y865000D01*
X1152976Y875335D02*
G01X1150113Y865000D01*
X1152976Y875335D02*
G01Y865000D01*
X1159060Y875335D02*
G01X1156197Y865000D01*
X1159060Y875335D02*
G01X1161924Y865000D01*
X1157271Y868445D02*
G01X1160850D01*
X1170156Y873858D02*
G01X1169440Y874843D01*
Y874843D02*
G01X1168366Y875335D01*
X1166934*
X1165861Y874843*
Y874843D02*
G01X1165145Y873858D01*
Y872874*
X1165503Y871890*
X1165861Y871398*
X1166576Y870906*
Y870906D02*
G01X1168724Y869921D01*
X1169440Y869429*
X1169798Y868937*
X1170156Y867953*
Y866476*
X1169440Y865492*
X1168366Y865000*
X1166934*
X1165861Y865492*
X1165145Y866476*
X1173377Y875335D02*
G01Y865000D01*
X1178387Y875335D02*
G01X1173377Y868445D01*
X1175166Y870906D02*
G01X1178387Y865000D01*
X1192346Y877303D02*
G01X1191630Y876319D01*
X1190914Y874843*
Y874843D02*
G01X1190198Y872874D01*
X1189841Y870413*
Y868445*
X1190198Y865984*
X1190914Y864016*
X1191630Y862539*
X1192346Y861555*
X1198072Y875335D02*
G01Y865000D01*
X1195567Y875335D02*
G01X1200578D01*
X1205946D02*
G01X1205231Y874843D01*
Y874843D02*
G01X1204515Y873858D01*
X1204157Y872874*
X1203799Y871398*
Y868937*
X1204157Y867461*
X1204515Y866476*
X1205231Y865492*
X1205946Y865000*
X1207378*
X1208094Y865492*
X1208810Y866476*
X1209168Y867461*
X1209526Y868937*
Y871398*
X1209168Y872874*
X1208810Y873858*
X1208094Y874843*
Y874843D02*
G01X1207378Y875335D01*
X1205946*
X1212747D02*
G01Y865000D01*
Y875335D02*
G01X1215968D01*
X1217042Y874843*
Y874843D02*
G01X1217400Y874350D01*
X1217757Y873366*
Y871890*
X1217400Y870906*
Y870906D02*
G01X1217042Y870413D01*
X1215968Y869921*
X1212747*
X1234221Y873858D02*
G01X1233505Y874843D01*
Y874843D02*
G01X1232432Y875335D01*
X1231000*
X1229926Y874843*
Y874843D02*
G01X1229211Y873858D01*
Y872874*
X1229568Y871890*
X1229926Y871398*
X1230642Y870906*
Y870906D02*
G01X1232790Y869921D01*
X1233505Y869429*
X1233863Y868937*
X1234221Y867953*
Y866476*
X1233505Y865492*
X1232432Y865000*
X1231000*
X1229926Y865492*
X1229211Y866476*
X1237442Y875335D02*
G01Y865000D01*
X1240664Y875335D02*
G01Y865000D01*
Y875335D02*
G01X1243169D01*
X1244243Y874843*
Y874843D02*
G01X1244959Y873858D01*
X1245316Y872874*
X1245674Y871398*
Y868937*
X1245316Y867461*
X1244959Y866476*
X1244243Y865492*
X1243169Y865000*
X1240664*
X1248896Y875335D02*
G01Y865000D01*
Y875335D02*
G01X1253548D01*
X1248896Y870413D02*
G01X1251759D01*
X1248896Y865000D02*
G01X1253548D01*
X1256770Y877303D02*
G01X1257485Y876319D01*
X1258201Y874843*
Y874843D02*
G01X1258917Y872874D01*
X1259275Y870413*
Y868445*
X1258917Y865984*
X1258201Y864016*
X1257485Y862539*
X1256770Y861555*
X1410900Y872335D02*
G01Y862000D01*
Y872335D02*
G01X1414121D01*
X1415195Y871843*
Y871843D02*
G01X1415553Y871350D01*
X1415911Y870366*
Y868890*
X1415553Y867906*
Y867906D02*
G01X1415195Y867413D01*
X1414121Y866921*
X1410900*
X1421637Y872335D02*
G01Y862000D01*
X1419132Y872335D02*
G01X1424143D01*
G54D235*
X1145000Y1185936D02*
G01Y1180032D01*
X1140000Y1185936D02*
G01Y1180032D01*
X1135000Y1185936D02*
G01Y1180032D01*
X1130000Y1185936D02*
G01Y1180032D01*
X1125000Y1185936D02*
G01Y1180032D01*
Y1133968D02*
G01Y1128064D01*
X1130000Y1133968D02*
G01Y1128064D01*
X1135000Y1133968D02*
G01Y1128064D01*
X1140000Y1133968D02*
G01Y1128064D01*
X1145000Y1133968D02*
G01Y1128064D01*
G54D236*
X1520173Y1092717D02*
G01Y1094685D01*
X1541827Y1092717D02*
G01Y1094685D01*
Y1105315D02*
G01Y1107283D01*
X1520173Y1105315D02*
G01Y1107283D01*
G54D71*
X1521869Y1136250D02*
G01X1518839D01*
X1521869Y1141250D02*
G01X1518839D01*
X1521869Y1146250D02*
G01X1518839D01*
X1521869Y1151250D02*
G01X1518839D01*
X1491161D02*
G01X1488131D01*
X1491161Y1146250D02*
G01X1488131D01*
X1491161Y1141250D02*
G01X1488131D01*
X1491161Y1136250D02*
G01X1488131D01*
G54D240*
X1124280Y1147255D02*
G01Y1154540D01*
Y1154540D02*
G01X1118925D01*
Y1154540D02*
G01Y1147255D01*
Y1147255D02*
G01X1124280D01*
X1118933D02*
G01Y1154540D01*
X1118953Y1147255D02*
G01Y1154540D01*
X1118972Y1147255D02*
G01Y1154540D01*
X1118992Y1147255D02*
G01Y1154540D01*
X1119011Y1147255D02*
G01Y1154540D01*
X1119031Y1147255D02*
G01Y1154540D01*
X1119050Y1147255D02*
G01Y1154540D01*
X1119070Y1147255D02*
G01Y1154540D01*
X1119089Y1147255D02*
G01Y1154540D01*
X1119109Y1147255D02*
G01Y1154540D01*
X1119128Y1147255D02*
G01Y1154540D01*
X1119148Y1147255D02*
G01Y1154540D01*
X1119167Y1147255D02*
G01Y1154540D01*
X1119187Y1147255D02*
G01Y1154540D01*
X1119206Y1147255D02*
G01Y1154540D01*
X1119226Y1147255D02*
G01Y1154540D01*
X1119245Y1147255D02*
G01Y1154540D01*
X1119265Y1147255D02*
G01Y1154540D01*
X1119284Y1147255D02*
G01Y1154540D01*
X1119304Y1147255D02*
G01Y1154540D01*
X1119323Y1147255D02*
G01Y1154540D01*
X1119343Y1147255D02*
G01Y1154540D01*
X1119362Y1147255D02*
G01Y1154540D01*
X1119382Y1147255D02*
G01Y1154540D01*
X1119401Y1147255D02*
G01Y1154540D01*
X1119421Y1147255D02*
G01Y1154540D01*
X1119440Y1147255D02*
G01Y1154540D01*
X1119460Y1147255D02*
G01Y1154540D01*
X1119479Y1147255D02*
G01Y1154540D01*
X1119499Y1147255D02*
G01Y1154540D01*
X1119518Y1147255D02*
G01Y1154540D01*
X1119538Y1147255D02*
G01Y1154540D01*
X1119557Y1147255D02*
G01Y1154540D01*
X1119577Y1147255D02*
G01Y1154540D01*
X1119596Y1147255D02*
G01Y1154540D01*
X1119616Y1147255D02*
G01Y1154540D01*
X1119635Y1147255D02*
G01Y1154540D01*
X1119655Y1147255D02*
G01Y1154540D01*
X1119674Y1147255D02*
G01Y1154540D01*
X1119694Y1147255D02*
G01Y1154540D01*
X1119713Y1147255D02*
G01Y1154540D01*
X1119733Y1147255D02*
G01Y1154540D01*
X1119752Y1147255D02*
G01Y1154540D01*
X1119772Y1147255D02*
G01Y1154540D01*
X1119791Y1147255D02*
G01Y1154540D01*
X1119811Y1147255D02*
G01Y1154540D01*
X1119830Y1147255D02*
G01Y1154540D01*
X1119850Y1147255D02*
G01Y1154540D01*
X1119869Y1147255D02*
G01Y1154540D01*
X1119889Y1147255D02*
G01Y1154540D01*
X1119908Y1147255D02*
G01Y1154540D01*
X1119928Y1147255D02*
G01Y1154540D01*
X1119947Y1147255D02*
G01Y1154540D01*
X1119967Y1147255D02*
G01Y1154540D01*
X1119986Y1147255D02*
G01Y1154540D01*
X1120006Y1147255D02*
G01Y1154540D01*
X1120025Y1147255D02*
G01Y1154540D01*
X1120045Y1147255D02*
G01Y1154540D01*
X1120064Y1147255D02*
G01Y1154540D01*
X1120084Y1147255D02*
G01Y1154540D01*
X1120103Y1147255D02*
G01Y1154540D01*
X1120123Y1147255D02*
G01Y1154540D01*
X1120142Y1147255D02*
G01Y1154540D01*
X1120161Y1147255D02*
G01Y1154540D01*
X1120181Y1147255D02*
G01Y1154540D01*
X1120200Y1147255D02*
G01Y1154540D01*
X1120220Y1147255D02*
G01Y1154540D01*
X1120239Y1147255D02*
G01Y1154540D01*
X1120259Y1147255D02*
G01Y1154540D01*
X1120278Y1147255D02*
G01Y1154540D01*
X1120298Y1147255D02*
G01Y1154540D01*
X1120317Y1147255D02*
G01Y1154540D01*
X1120337Y1147255D02*
G01Y1154540D01*
X1120356Y1147255D02*
G01Y1154540D01*
X1120376Y1147255D02*
G01Y1154540D01*
X1120395Y1147255D02*
G01Y1154540D01*
X1120415Y1147255D02*
G01Y1154540D01*
X1120434Y1147255D02*
G01Y1154540D01*
X1120454Y1147255D02*
G01Y1154540D01*
X1120473Y1147255D02*
G01Y1154540D01*
X1120493Y1147255D02*
G01Y1154540D01*
X1120512Y1147255D02*
G01Y1154540D01*
X1120532Y1147255D02*
G01Y1154540D01*
X1120551Y1147255D02*
G01Y1154540D01*
X1120571Y1147255D02*
G01Y1154540D01*
X1120590Y1147255D02*
G01Y1154540D01*
X1120610Y1147255D02*
G01Y1154540D01*
X1120629Y1147255D02*
G01Y1154540D01*
X1120649Y1147255D02*
G01Y1154540D01*
X1120668Y1147255D02*
G01Y1154540D01*
X1120688Y1147255D02*
G01Y1154540D01*
X1120707Y1147255D02*
G01Y1154540D01*
X1120727Y1147255D02*
G01Y1154540D01*
X1120746Y1147255D02*
G01Y1154540D01*
X1120766Y1147255D02*
G01Y1154540D01*
X1120785Y1147255D02*
G01Y1154540D01*
X1120805Y1147255D02*
G01Y1154540D01*
X1120824Y1147255D02*
G01Y1154540D01*
X1120844Y1147255D02*
G01Y1154540D01*
X1120863Y1147255D02*
G01Y1154540D01*
X1120883Y1147255D02*
G01Y1154540D01*
X1120902Y1147255D02*
G01Y1154540D01*
X1120922Y1147255D02*
G01Y1154540D01*
X1120941Y1147255D02*
G01Y1154540D01*
X1120961Y1147255D02*
G01Y1154540D01*
X1120980Y1147255D02*
G01Y1154540D01*
X1121000Y1147255D02*
G01Y1154540D01*
X1121019Y1147255D02*
G01Y1154540D01*
X1121039Y1147255D02*
G01Y1154540D01*
X1121058Y1147255D02*
G01Y1154540D01*
X1121078Y1147255D02*
G01Y1154540D01*
X1121097Y1147255D02*
G01Y1154540D01*
X1121117Y1147255D02*
G01Y1154540D01*
X1121136Y1147255D02*
G01Y1154540D01*
X1121156Y1147255D02*
G01Y1154540D01*
X1121175Y1147255D02*
G01Y1154540D01*
X1121195Y1147255D02*
G01Y1154540D01*
X1121214Y1147255D02*
G01Y1154540D01*
X1121234Y1147255D02*
G01Y1154540D01*
X1121253Y1147255D02*
G01Y1154540D01*
X1121273Y1147255D02*
G01Y1154540D01*
X1121292Y1147255D02*
G01Y1154540D01*
X1121312Y1147255D02*
G01Y1154540D01*
X1121331Y1147255D02*
G01Y1154540D01*
X1121351Y1147255D02*
G01Y1154540D01*
X1121370Y1147255D02*
G01Y1154540D01*
X1121390Y1147255D02*
G01Y1154540D01*
X1121409Y1147255D02*
G01Y1154540D01*
X1121429Y1147255D02*
G01Y1154540D01*
X1121448Y1147255D02*
G01Y1154540D01*
X1121468Y1147255D02*
G01Y1154540D01*
X1121487Y1147255D02*
G01Y1154540D01*
X1121507Y1147255D02*
G01Y1154540D01*
X1121526Y1147255D02*
G01Y1154540D01*
X1121546Y1147255D02*
G01Y1154540D01*
X1121565Y1147255D02*
G01Y1154540D01*
X1121585Y1147255D02*
G01Y1154540D01*
X1121604Y1147255D02*
G01Y1154540D01*
X1121624Y1147255D02*
G01Y1154540D01*
X1121643Y1147255D02*
G01Y1154540D01*
X1121663Y1147255D02*
G01Y1154540D01*
X1121682Y1147255D02*
G01Y1154540D01*
X1121702Y1147255D02*
G01Y1154540D01*
X1121721Y1147255D02*
G01Y1154540D01*
X1121741Y1147255D02*
G01Y1154540D01*
X1121760Y1147255D02*
G01Y1154540D01*
X1121780Y1147255D02*
G01Y1154540D01*
X1121799Y1147255D02*
G01Y1154540D01*
X1121819Y1147255D02*
G01Y1154540D01*
X1121838Y1147255D02*
G01Y1154540D01*
X1121858Y1147255D02*
G01Y1154540D01*
X1121877Y1147255D02*
G01Y1154540D01*
X1121897Y1147255D02*
G01Y1154540D01*
X1121916Y1147255D02*
G01Y1154540D01*
X1121936Y1147255D02*
G01Y1154540D01*
X1121955Y1147255D02*
G01Y1154540D01*
X1121975Y1147255D02*
G01Y1154540D01*
X1121994Y1147255D02*
G01Y1154540D01*
X1122014Y1147255D02*
G01Y1154540D01*
X1122033Y1147255D02*
G01Y1154540D01*
X1122053Y1147255D02*
G01Y1154540D01*
X1122072Y1147255D02*
G01Y1154540D01*
X1122092Y1147255D02*
G01Y1154540D01*
X1122111Y1147255D02*
G01Y1154540D01*
X1122131Y1147255D02*
G01Y1154540D01*
X1122150Y1147255D02*
G01Y1154540D01*
X1122170Y1147255D02*
G01Y1154540D01*
X1122189Y1147255D02*
G01Y1154540D01*
X1122209Y1147255D02*
G01Y1154540D01*
X1122228Y1147255D02*
G01Y1154540D01*
X1122248Y1147255D02*
G01Y1154540D01*
X1122267Y1147255D02*
G01Y1154540D01*
X1122287Y1147255D02*
G01Y1154540D01*
X1122306Y1147255D02*
G01Y1154540D01*
X1122326Y1147255D02*
G01Y1154540D01*
X1122345Y1147255D02*
G01Y1154540D01*
X1122365Y1147255D02*
G01Y1154540D01*
X1122384Y1147255D02*
G01Y1154540D01*
X1122404Y1147255D02*
G01Y1154540D01*
X1122423Y1147255D02*
G01Y1154540D01*
X1122443Y1147255D02*
G01Y1154540D01*
X1122462Y1147255D02*
G01Y1154540D01*
X1122482Y1147255D02*
G01Y1154540D01*
X1122501Y1147255D02*
G01Y1154540D01*
X1122521Y1147255D02*
G01Y1154540D01*
X1122540Y1147255D02*
G01Y1154540D01*
X1122560Y1147255D02*
G01Y1154540D01*
X1122579Y1147255D02*
G01Y1154540D01*
X1122599Y1147255D02*
G01Y1154540D01*
X1122618Y1147255D02*
G01Y1154540D01*
X1122638Y1147255D02*
G01Y1154540D01*
X1122657Y1147255D02*
G01Y1154540D01*
X1122677Y1147255D02*
G01Y1154540D01*
X1122696Y1147255D02*
G01Y1154540D01*
X1122716Y1147255D02*
G01Y1154540D01*
X1122735Y1147255D02*
G01Y1154540D01*
X1122755Y1147255D02*
G01Y1154540D01*
X1122774Y1147255D02*
G01Y1154540D01*
X1122794Y1147255D02*
G01Y1154540D01*
X1122813Y1147255D02*
G01Y1154540D01*
X1122833Y1147255D02*
G01Y1154540D01*
X1122852Y1147255D02*
G01Y1154540D01*
X1122872Y1147255D02*
G01Y1154540D01*
X1122891Y1147255D02*
G01Y1154540D01*
X1122911Y1147255D02*
G01Y1154540D01*
X1122930Y1147255D02*
G01Y1154540D01*
X1122950Y1147255D02*
G01Y1154540D01*
X1122969Y1147255D02*
G01Y1154540D01*
X1122989Y1147255D02*
G01Y1154540D01*
X1123008Y1147255D02*
G01Y1154540D01*
X1123028Y1147255D02*
G01Y1154540D01*
X1123047Y1147255D02*
G01Y1154540D01*
X1123067Y1147255D02*
G01Y1154540D01*
X1123086Y1147255D02*
G01Y1154540D01*
X1123106Y1147255D02*
G01Y1154540D01*
X1123125Y1147255D02*
G01Y1154540D01*
X1123145Y1147255D02*
G01Y1154540D01*
X1123164Y1147255D02*
G01Y1154540D01*
X1123184Y1147255D02*
G01Y1154540D01*
X1123203Y1147255D02*
G01Y1154540D01*
X1123223Y1147255D02*
G01Y1154540D01*
X1123242Y1147255D02*
G01Y1154540D01*
X1123262Y1147255D02*
G01Y1154540D01*
X1123281Y1147255D02*
G01Y1154540D01*
X1123301Y1147255D02*
G01Y1154540D01*
X1123320Y1147255D02*
G01Y1154540D01*
X1123340Y1147255D02*
G01Y1154540D01*
X1123359Y1147255D02*
G01Y1154540D01*
X1123379Y1147255D02*
G01Y1154540D01*
X1123398Y1147255D02*
G01Y1154540D01*
X1123418Y1147255D02*
G01Y1154540D01*
X1123437Y1147255D02*
G01Y1154540D01*
X1123457Y1147255D02*
G01Y1154540D01*
X1123476Y1147255D02*
G01Y1154540D01*
X1123496Y1147255D02*
G01Y1154540D01*
X1123515Y1147255D02*
G01Y1154540D01*
X1123535Y1147255D02*
G01Y1154540D01*
X1123554Y1147255D02*
G01Y1154540D01*
X1123574Y1147255D02*
G01Y1154540D01*
X1123593Y1147255D02*
G01Y1154540D01*
X1123613Y1147255D02*
G01Y1154540D01*
X1123632Y1147255D02*
G01Y1154540D01*
X1123652Y1147255D02*
G01Y1154540D01*
X1123671Y1147255D02*
G01Y1154540D01*
X1123691Y1147255D02*
G01Y1154540D01*
X1123710Y1147255D02*
G01Y1154540D01*
X1123730Y1147255D02*
G01Y1154540D01*
X1123749Y1147255D02*
G01Y1154540D01*
X1123769Y1147255D02*
G01Y1154540D01*
X1123788Y1147255D02*
G01Y1154540D01*
X1123808Y1147255D02*
G01Y1154540D01*
X1123827Y1147255D02*
G01Y1154540D01*
X1123847Y1147255D02*
G01Y1154540D01*
X1123866Y1147255D02*
G01Y1154540D01*
X1123886Y1147255D02*
G01Y1154540D01*
X1123905Y1147255D02*
G01Y1154540D01*
X1123925Y1147255D02*
G01Y1154540D01*
X1123944Y1147255D02*
G01Y1154540D01*
X1123964Y1147255D02*
G01Y1154540D01*
X1123983Y1147255D02*
G01Y1154540D01*
X1124003Y1147255D02*
G01Y1154540D01*
X1124022Y1147255D02*
G01Y1154540D01*
X1124042Y1147255D02*
G01Y1154540D01*
X1124061Y1147255D02*
G01Y1154540D01*
X1124081Y1147255D02*
G01Y1154540D01*
X1124100Y1147255D02*
G01Y1154540D01*
X1124120Y1147255D02*
G01Y1154540D01*
X1124139Y1147255D02*
G01Y1154540D01*
X1124159Y1147255D02*
G01Y1154540D01*
X1124178Y1147255D02*
G01Y1154540D01*
X1124198Y1147255D02*
G01Y1154540D01*
X1124217Y1147255D02*
G01Y1154540D01*
X1124237Y1147255D02*
G01Y1154540D01*
X1124256Y1147255D02*
G01Y1154540D01*
X1124276Y1147255D02*
G01Y1154540D01*
X1124280Y1159460D02*
G01Y1166745D01*
Y1166745D02*
G01X1118925D01*
Y1166745D02*
G01Y1159460D01*
Y1159460D02*
G01X1124280D01*
X1118933D02*
G01Y1166745D01*
X1118953Y1159460D02*
G01Y1166745D01*
X1118972Y1159460D02*
G01Y1166745D01*
X1118992Y1159460D02*
G01Y1166745D01*
X1119011Y1159460D02*
G01Y1166745D01*
X1119031Y1159460D02*
G01Y1166745D01*
X1119050Y1159460D02*
G01Y1166745D01*
X1119070Y1159460D02*
G01Y1166745D01*
X1119089Y1159460D02*
G01Y1166745D01*
X1119109Y1159460D02*
G01Y1166745D01*
X1119128Y1159460D02*
G01Y1166745D01*
X1119148Y1159460D02*
G01Y1166745D01*
X1119167Y1159460D02*
G01Y1166745D01*
X1119187Y1159460D02*
G01Y1166745D01*
X1119206Y1159460D02*
G01Y1166745D01*
X1119226Y1159460D02*
G01Y1166745D01*
X1119245Y1159460D02*
G01Y1166745D01*
X1119265Y1159460D02*
G01Y1166745D01*
X1119284Y1159460D02*
G01Y1166745D01*
X1119304Y1159460D02*
G01Y1166745D01*
X1119323Y1159460D02*
G01Y1166745D01*
X1119343Y1159460D02*
G01Y1166745D01*
X1119362Y1159460D02*
G01Y1166745D01*
X1119382Y1159460D02*
G01Y1166745D01*
X1119401Y1159460D02*
G01Y1166745D01*
X1119421Y1159460D02*
G01Y1166745D01*
X1119440Y1159460D02*
G01Y1166745D01*
X1119460Y1159460D02*
G01Y1166745D01*
X1119479Y1159460D02*
G01Y1166745D01*
X1119499Y1159460D02*
G01Y1166745D01*
X1119518Y1159460D02*
G01Y1166745D01*
X1119538Y1159460D02*
G01Y1166745D01*
X1119557Y1159460D02*
G01Y1166745D01*
X1119577Y1159460D02*
G01Y1166745D01*
X1119596Y1159460D02*
G01Y1166745D01*
X1119616Y1159460D02*
G01Y1166745D01*
X1119635Y1159460D02*
G01Y1166745D01*
X1119655Y1159460D02*
G01Y1166745D01*
X1119674Y1159460D02*
G01Y1166745D01*
X1119694Y1159460D02*
G01Y1166745D01*
X1119713Y1159460D02*
G01Y1166745D01*
X1119733Y1159460D02*
G01Y1166745D01*
X1119752Y1159460D02*
G01Y1166745D01*
X1119772Y1159460D02*
G01Y1166745D01*
X1119791Y1159460D02*
G01Y1166745D01*
X1119811Y1159460D02*
G01Y1166745D01*
X1119830Y1159460D02*
G01Y1166745D01*
X1119850Y1159460D02*
G01Y1166745D01*
X1119869Y1159460D02*
G01Y1166745D01*
X1119889Y1159460D02*
G01Y1166745D01*
X1119908Y1159460D02*
G01Y1166745D01*
X1119928Y1159460D02*
G01Y1166745D01*
X1119947Y1159460D02*
G01Y1166745D01*
X1119967Y1159460D02*
G01Y1166745D01*
X1119986Y1159460D02*
G01Y1166745D01*
X1120006Y1159460D02*
G01Y1166745D01*
X1120025Y1159460D02*
G01Y1166745D01*
X1120045Y1159460D02*
G01Y1166745D01*
X1120064Y1159460D02*
G01Y1166745D01*
X1120084Y1159460D02*
G01Y1166745D01*
X1120103Y1159460D02*
G01Y1166745D01*
X1120123Y1159460D02*
G01Y1166745D01*
X1120142Y1159460D02*
G01Y1166745D01*
X1120161Y1159460D02*
G01Y1166745D01*
X1120181Y1159460D02*
G01Y1166745D01*
X1120200Y1159460D02*
G01Y1166745D01*
X1120220Y1159460D02*
G01Y1166745D01*
X1120239Y1159460D02*
G01Y1166745D01*
X1120259Y1159460D02*
G01Y1166745D01*
X1120278Y1159460D02*
G01Y1166745D01*
X1120298Y1159460D02*
G01Y1166745D01*
X1120317Y1159460D02*
G01Y1166745D01*
X1120337Y1159460D02*
G01Y1166745D01*
X1120356Y1159460D02*
G01Y1166745D01*
X1120376Y1159460D02*
G01Y1166745D01*
X1120395Y1159460D02*
G01Y1166745D01*
X1120415Y1159460D02*
G01Y1166745D01*
X1120434Y1159460D02*
G01Y1166745D01*
X1120454Y1159460D02*
G01Y1166745D01*
X1120473Y1159460D02*
G01Y1166745D01*
X1120493Y1159460D02*
G01Y1166745D01*
X1120512Y1159460D02*
G01Y1166745D01*
X1120532Y1159460D02*
G01Y1166745D01*
X1120551Y1159460D02*
G01Y1166745D01*
X1120571Y1159460D02*
G01Y1166745D01*
X1120590Y1159460D02*
G01Y1166745D01*
X1120610Y1159460D02*
G01Y1166745D01*
X1120629Y1159460D02*
G01Y1166745D01*
X1120649Y1159460D02*
G01Y1166745D01*
X1120668Y1159460D02*
G01Y1166745D01*
X1120688Y1159460D02*
G01Y1166745D01*
X1120707Y1159460D02*
G01Y1166745D01*
X1120727Y1159460D02*
G01Y1166745D01*
X1120746Y1159460D02*
G01Y1166745D01*
X1120766Y1159460D02*
G01Y1166745D01*
X1120785Y1159460D02*
G01Y1166745D01*
X1120805Y1159460D02*
G01Y1166745D01*
X1120824Y1159460D02*
G01Y1166745D01*
X1120844Y1159460D02*
G01Y1166745D01*
X1120863Y1159460D02*
G01Y1166745D01*
X1120883Y1159460D02*
G01Y1166745D01*
X1120902Y1159460D02*
G01Y1166745D01*
X1120922Y1159460D02*
G01Y1166745D01*
X1120941Y1159460D02*
G01Y1166745D01*
X1120961Y1159460D02*
G01Y1166745D01*
X1120980Y1159460D02*
G01Y1166745D01*
X1121000Y1159460D02*
G01Y1166745D01*
X1121019Y1159460D02*
G01Y1166745D01*
X1121039Y1159460D02*
G01Y1166745D01*
X1121058Y1159460D02*
G01Y1166745D01*
X1121078Y1159460D02*
G01Y1166745D01*
X1121097Y1159460D02*
G01Y1166745D01*
X1121117Y1159460D02*
G01Y1166745D01*
X1121136Y1159460D02*
G01Y1166745D01*
X1121156Y1159460D02*
G01Y1166745D01*
X1121175Y1159460D02*
G01Y1166745D01*
X1121195Y1159460D02*
G01Y1166745D01*
X1121214Y1159460D02*
G01Y1166745D01*
X1121234Y1159460D02*
G01Y1166745D01*
X1121253Y1159460D02*
G01Y1166745D01*
X1121273Y1159460D02*
G01Y1166745D01*
X1121292Y1159460D02*
G01Y1166745D01*
X1121312Y1159460D02*
G01Y1166745D01*
X1121331Y1159460D02*
G01Y1166745D01*
X1121351Y1159460D02*
G01Y1166745D01*
X1121370Y1159460D02*
G01Y1166745D01*
X1121390Y1159460D02*
G01Y1166745D01*
X1121409Y1159460D02*
G01Y1166745D01*
X1121429Y1159460D02*
G01Y1166745D01*
X1121448Y1159460D02*
G01Y1166745D01*
X1121468Y1159460D02*
G01Y1166745D01*
X1121487Y1159460D02*
G01Y1166745D01*
X1121507Y1159460D02*
G01Y1166745D01*
X1121526Y1159460D02*
G01Y1166745D01*
X1121546Y1159460D02*
G01Y1166745D01*
X1121565Y1159460D02*
G01Y1166745D01*
X1121585Y1159460D02*
G01Y1166745D01*
X1121604Y1159460D02*
G01Y1166745D01*
X1121624Y1159460D02*
G01Y1166745D01*
X1121643Y1159460D02*
G01Y1166745D01*
X1121663Y1159460D02*
G01Y1166745D01*
X1121682Y1159460D02*
G01Y1166745D01*
X1121702Y1159460D02*
G01Y1166745D01*
X1121721Y1159460D02*
G01Y1166745D01*
X1121741Y1159460D02*
G01Y1166745D01*
X1121760Y1159460D02*
G01Y1166745D01*
X1121780Y1159460D02*
G01Y1166745D01*
X1121799Y1159460D02*
G01Y1166745D01*
X1121819Y1159460D02*
G01Y1166745D01*
X1121838Y1159460D02*
G01Y1166745D01*
X1121858Y1159460D02*
G01Y1166745D01*
X1121877Y1159460D02*
G01Y1166745D01*
X1121897Y1159460D02*
G01Y1166745D01*
X1121916Y1159460D02*
G01Y1166745D01*
X1121936Y1159460D02*
G01Y1166745D01*
X1121955Y1159460D02*
G01Y1166745D01*
X1121975Y1159460D02*
G01Y1166745D01*
X1121994Y1159460D02*
G01Y1166745D01*
X1122014Y1159460D02*
G01Y1166745D01*
X1122033Y1159460D02*
G01Y1166745D01*
X1122053Y1159460D02*
G01Y1166745D01*
X1122072Y1159460D02*
G01Y1166745D01*
X1122092Y1159460D02*
G01Y1166745D01*
X1122111Y1159460D02*
G01Y1166745D01*
X1122131Y1159460D02*
G01Y1166745D01*
X1122150Y1159460D02*
G01Y1166745D01*
X1122170Y1159460D02*
G01Y1166745D01*
X1122189Y1159460D02*
G01Y1166745D01*
X1122209Y1159460D02*
G01Y1166745D01*
X1122228Y1159460D02*
G01Y1166745D01*
X1122248Y1159460D02*
G01Y1166745D01*
X1122267Y1159460D02*
G01Y1166745D01*
X1122287Y1159460D02*
G01Y1166745D01*
X1122306Y1159460D02*
G01Y1166745D01*
X1122326Y1159460D02*
G01Y1166745D01*
X1122345Y1159460D02*
G01Y1166745D01*
X1122365Y1159460D02*
G01Y1166745D01*
X1122384Y1159460D02*
G01Y1166745D01*
X1122404Y1159460D02*
G01Y1166745D01*
X1122423Y1159460D02*
G01Y1166745D01*
X1122443Y1159460D02*
G01Y1166745D01*
X1122462Y1159460D02*
G01Y1166745D01*
X1122482Y1159460D02*
G01Y1166745D01*
X1122501Y1159460D02*
G01Y1166745D01*
X1122521Y1159460D02*
G01Y1166745D01*
X1122540Y1159460D02*
G01Y1166745D01*
X1122560Y1159460D02*
G01Y1166745D01*
X1122579Y1159460D02*
G01Y1166745D01*
X1122599Y1159460D02*
G01Y1166745D01*
X1122618Y1159460D02*
G01Y1166745D01*
X1122638Y1159460D02*
G01Y1166745D01*
X1122657Y1159460D02*
G01Y1166745D01*
X1122677Y1159460D02*
G01Y1166745D01*
X1122696Y1159460D02*
G01Y1166745D01*
X1122716Y1159460D02*
G01Y1166745D01*
X1122735Y1159460D02*
G01Y1166745D01*
X1122755Y1159460D02*
G01Y1166745D01*
X1122774Y1159460D02*
G01Y1166745D01*
X1122794Y1159460D02*
G01Y1166745D01*
X1122813Y1159460D02*
G01Y1166745D01*
X1122833Y1159460D02*
G01Y1166745D01*
X1122852Y1159460D02*
G01Y1166745D01*
X1122872Y1159460D02*
G01Y1166745D01*
X1122891Y1159460D02*
G01Y1166745D01*
X1122911Y1159460D02*
G01Y1166745D01*
X1122930Y1159460D02*
G01Y1166745D01*
X1122950Y1159460D02*
G01Y1166745D01*
X1122969Y1159460D02*
G01Y1166745D01*
X1122989Y1159460D02*
G01Y1166745D01*
X1123008Y1159460D02*
G01Y1166745D01*
X1123028Y1159460D02*
G01Y1166745D01*
X1123047Y1159460D02*
G01Y1166745D01*
X1123067Y1159460D02*
G01Y1166745D01*
X1123086Y1159460D02*
G01Y1166745D01*
X1123106Y1159460D02*
G01Y1166745D01*
X1123125Y1159460D02*
G01Y1166745D01*
X1123145Y1159460D02*
G01Y1166745D01*
X1123164Y1159460D02*
G01Y1166745D01*
X1123184Y1159460D02*
G01Y1166745D01*
X1123203Y1159460D02*
G01Y1166745D01*
X1123223Y1159460D02*
G01Y1166745D01*
X1123242Y1159460D02*
G01Y1166745D01*
X1123262Y1159460D02*
G01Y1166745D01*
X1123281Y1159460D02*
G01Y1166745D01*
X1123301Y1159460D02*
G01Y1166745D01*
X1123320Y1159460D02*
G01Y1166745D01*
X1123340Y1159460D02*
G01Y1166745D01*
X1123359Y1159460D02*
G01Y1166745D01*
X1123379Y1159460D02*
G01Y1166745D01*
X1123398Y1159460D02*
G01Y1166745D01*
X1123418Y1159460D02*
G01Y1166745D01*
X1123437Y1159460D02*
G01Y1166745D01*
X1123457Y1159460D02*
G01Y1166745D01*
X1123476Y1159460D02*
G01Y1166745D01*
X1123496Y1159460D02*
G01Y1166745D01*
X1123515Y1159460D02*
G01Y1166745D01*
X1123535Y1159460D02*
G01Y1166745D01*
X1123554Y1159460D02*
G01Y1166745D01*
X1123574Y1159460D02*
G01Y1166745D01*
X1123593Y1159460D02*
G01Y1166745D01*
X1123613Y1159460D02*
G01Y1166745D01*
X1123632Y1159460D02*
G01Y1166745D01*
X1123652Y1159460D02*
G01Y1166745D01*
X1123671Y1159460D02*
G01Y1166745D01*
X1123691Y1159460D02*
G01Y1166745D01*
X1123710Y1159460D02*
G01Y1166745D01*
X1123730Y1159460D02*
G01Y1166745D01*
X1123749Y1159460D02*
G01Y1166745D01*
X1123769Y1159460D02*
G01Y1166745D01*
X1123788Y1159460D02*
G01Y1166745D01*
X1123808Y1159460D02*
G01Y1166745D01*
X1123827Y1159460D02*
G01Y1166745D01*
X1123847Y1159460D02*
G01Y1166745D01*
X1123866Y1159460D02*
G01Y1166745D01*
X1123886Y1159460D02*
G01Y1166745D01*
X1123905Y1159460D02*
G01Y1166745D01*
X1123925Y1159460D02*
G01Y1166745D01*
X1123944Y1159460D02*
G01Y1166745D01*
X1123964Y1159460D02*
G01Y1166745D01*
X1123983Y1159460D02*
G01Y1166745D01*
X1124003Y1159460D02*
G01Y1166745D01*
X1124022Y1159460D02*
G01Y1166745D01*
X1124042Y1159460D02*
G01Y1166745D01*
X1124061Y1159460D02*
G01Y1166745D01*
X1124081Y1159460D02*
G01Y1166745D01*
X1124100Y1159460D02*
G01Y1166745D01*
X1124120Y1159460D02*
G01Y1166745D01*
X1124139Y1159460D02*
G01Y1166745D01*
X1124159Y1159460D02*
G01Y1166745D01*
X1124178Y1159460D02*
G01Y1166745D01*
X1124198Y1159460D02*
G01Y1166745D01*
X1124217Y1159460D02*
G01Y1166745D01*
X1124237Y1159460D02*
G01Y1166745D01*
X1124256Y1159460D02*
G01Y1166745D01*
X1124276Y1159460D02*
G01Y1166745D01*
X1133257Y1159460D02*
G01Y1166745D01*
Y1166745D02*
G01X1127901D01*
Y1166745D02*
G01Y1159460D01*
Y1159460D02*
G01X1133257D01*
X1127902D02*
G01Y1166745D01*
X1127922Y1159460D02*
G01Y1166745D01*
X1127941Y1159460D02*
G01Y1166745D01*
X1127961Y1159460D02*
G01Y1166745D01*
X1127980Y1159460D02*
G01Y1166745D01*
X1128000Y1159460D02*
G01Y1166745D01*
X1128019Y1159460D02*
G01Y1166745D01*
X1128039Y1159460D02*
G01Y1166745D01*
X1128058Y1159460D02*
G01Y1166745D01*
X1128078Y1159460D02*
G01Y1166745D01*
X1128097Y1159460D02*
G01Y1166745D01*
X1128117Y1159460D02*
G01Y1166745D01*
X1128136Y1159460D02*
G01Y1166745D01*
X1128156Y1159460D02*
G01Y1166745D01*
X1128175Y1159460D02*
G01Y1166745D01*
X1128195Y1159460D02*
G01Y1166745D01*
X1128214Y1159460D02*
G01Y1166745D01*
X1128234Y1159460D02*
G01Y1166745D01*
X1128253Y1159460D02*
G01Y1166745D01*
X1128273Y1159460D02*
G01Y1166745D01*
X1128292Y1159460D02*
G01Y1166745D01*
X1128312Y1159460D02*
G01Y1166745D01*
X1128331Y1159460D02*
G01Y1166745D01*
X1128351Y1159460D02*
G01Y1166745D01*
X1128370Y1159460D02*
G01Y1166745D01*
X1128390Y1159460D02*
G01Y1166745D01*
X1128409Y1159460D02*
G01Y1166745D01*
X1128429Y1159460D02*
G01Y1166745D01*
X1128448Y1159460D02*
G01Y1166745D01*
X1128468Y1159460D02*
G01Y1166745D01*
X1128487Y1159460D02*
G01Y1166745D01*
X1128507Y1159460D02*
G01Y1166745D01*
X1128526Y1159460D02*
G01Y1166745D01*
X1128546Y1159460D02*
G01Y1166745D01*
X1128565Y1159460D02*
G01Y1166745D01*
X1128585Y1159460D02*
G01Y1166745D01*
X1128604Y1159460D02*
G01Y1166745D01*
X1128624Y1159460D02*
G01Y1166745D01*
X1128643Y1159460D02*
G01Y1166745D01*
X1128663Y1159460D02*
G01Y1166745D01*
X1128682Y1159460D02*
G01Y1166745D01*
X1128702Y1159460D02*
G01Y1166745D01*
X1128721Y1159460D02*
G01Y1166745D01*
X1128741Y1159460D02*
G01Y1166745D01*
X1128760Y1159460D02*
G01Y1166745D01*
X1128780Y1159460D02*
G01Y1166745D01*
X1128799Y1159460D02*
G01Y1166745D01*
X1128819Y1159460D02*
G01Y1166745D01*
X1128838Y1159460D02*
G01Y1166745D01*
X1128858Y1159460D02*
G01Y1166745D01*
X1128877Y1159460D02*
G01Y1166745D01*
X1128897Y1159460D02*
G01Y1166745D01*
X1128916Y1159460D02*
G01Y1166745D01*
X1128936Y1159460D02*
G01Y1166745D01*
X1128955Y1159460D02*
G01Y1166745D01*
X1128975Y1159460D02*
G01Y1166745D01*
X1128994Y1159460D02*
G01Y1166745D01*
X1129014Y1159460D02*
G01Y1166745D01*
X1129033Y1159460D02*
G01Y1166745D01*
X1129053Y1159460D02*
G01Y1166745D01*
X1129072Y1159460D02*
G01Y1166745D01*
X1129092Y1159460D02*
G01Y1166745D01*
X1129111Y1159460D02*
G01Y1166745D01*
X1129131Y1159460D02*
G01Y1166745D01*
X1129150Y1159460D02*
G01Y1166745D01*
X1129170Y1159460D02*
G01Y1166745D01*
X1129189Y1159460D02*
G01Y1166745D01*
X1129209Y1159460D02*
G01Y1166745D01*
X1129228Y1159460D02*
G01Y1166745D01*
X1129248Y1159460D02*
G01Y1166745D01*
X1129267Y1159460D02*
G01Y1166745D01*
X1129287Y1159460D02*
G01Y1166745D01*
X1129306Y1159460D02*
G01Y1166745D01*
X1129326Y1159460D02*
G01Y1166745D01*
X1129345Y1159460D02*
G01Y1166745D01*
X1129365Y1159460D02*
G01Y1166745D01*
X1129384Y1159460D02*
G01Y1166745D01*
X1129404Y1159460D02*
G01Y1166745D01*
X1129423Y1159460D02*
G01Y1166745D01*
X1129443Y1159460D02*
G01Y1166745D01*
X1129462Y1159460D02*
G01Y1166745D01*
X1129482Y1159460D02*
G01Y1166745D01*
X1129501Y1159460D02*
G01Y1166745D01*
X1129521Y1159460D02*
G01Y1166745D01*
X1129540Y1159460D02*
G01Y1166745D01*
X1129560Y1159460D02*
G01Y1166745D01*
X1129579Y1159460D02*
G01Y1166745D01*
X1129599Y1159460D02*
G01Y1166745D01*
X1129618Y1159460D02*
G01Y1166745D01*
X1129638Y1159460D02*
G01Y1166745D01*
X1129657Y1159460D02*
G01Y1166745D01*
X1129677Y1159460D02*
G01Y1166745D01*
X1129696Y1159460D02*
G01Y1166745D01*
X1129716Y1159460D02*
G01Y1166745D01*
X1129735Y1159460D02*
G01Y1166745D01*
X1129755Y1159460D02*
G01Y1166745D01*
X1129774Y1159460D02*
G01Y1166745D01*
X1129794Y1159460D02*
G01Y1166745D01*
X1129813Y1159460D02*
G01Y1166745D01*
X1129833Y1159460D02*
G01Y1166745D01*
X1129852Y1159460D02*
G01Y1166745D01*
X1129872Y1159460D02*
G01Y1166745D01*
X1129891Y1159460D02*
G01Y1166745D01*
X1129911Y1159460D02*
G01Y1166745D01*
X1129930Y1159460D02*
G01Y1166745D01*
X1129950Y1159460D02*
G01Y1166745D01*
X1129969Y1159460D02*
G01Y1166745D01*
X1129989Y1159460D02*
G01Y1166745D01*
X1130008Y1159460D02*
G01Y1166745D01*
X1130028Y1159460D02*
G01Y1166745D01*
X1130047Y1159460D02*
G01Y1166745D01*
X1130067Y1159460D02*
G01Y1166745D01*
X1130086Y1159460D02*
G01Y1166745D01*
X1130106Y1159460D02*
G01Y1166745D01*
X1130125Y1159460D02*
G01Y1166745D01*
X1130145Y1159460D02*
G01Y1166745D01*
X1130164Y1159460D02*
G01Y1166745D01*
X1130184Y1159460D02*
G01Y1166745D01*
X1130203Y1159460D02*
G01Y1166745D01*
X1130223Y1159460D02*
G01Y1166745D01*
X1130242Y1159460D02*
G01Y1166745D01*
X1130262Y1159460D02*
G01Y1166745D01*
X1130281Y1159460D02*
G01Y1166745D01*
X1130301Y1159460D02*
G01Y1166745D01*
X1130320Y1159460D02*
G01Y1166745D01*
X1130340Y1159460D02*
G01Y1166745D01*
X1130359Y1159460D02*
G01Y1166745D01*
X1130379Y1159460D02*
G01Y1166745D01*
X1130398Y1159460D02*
G01Y1166745D01*
X1130418Y1159460D02*
G01Y1166745D01*
X1130437Y1159460D02*
G01Y1166745D01*
X1130457Y1159460D02*
G01Y1166745D01*
X1130476Y1159460D02*
G01Y1166745D01*
X1130496Y1159460D02*
G01Y1166745D01*
X1130515Y1159460D02*
G01Y1166745D01*
X1130535Y1159460D02*
G01Y1166745D01*
X1130554Y1159460D02*
G01Y1166745D01*
X1130574Y1159460D02*
G01Y1166745D01*
X1130593Y1159460D02*
G01Y1166745D01*
X1130613Y1159460D02*
G01Y1166745D01*
X1130632Y1159460D02*
G01Y1166745D01*
X1130652Y1159460D02*
G01Y1166745D01*
X1130671Y1159460D02*
G01Y1166745D01*
X1130691Y1159460D02*
G01Y1166745D01*
X1130710Y1159460D02*
G01Y1166745D01*
X1130730Y1159460D02*
G01Y1166745D01*
X1130749Y1159460D02*
G01Y1166745D01*
X1130769Y1159460D02*
G01Y1166745D01*
X1130788Y1159460D02*
G01Y1166745D01*
X1130808Y1159460D02*
G01Y1166745D01*
X1130827Y1159460D02*
G01Y1166745D01*
X1130847Y1159460D02*
G01Y1166745D01*
X1130866Y1159460D02*
G01Y1166745D01*
X1130886Y1159460D02*
G01Y1166745D01*
X1130905Y1159460D02*
G01Y1166745D01*
X1130925Y1159460D02*
G01Y1166745D01*
X1130944Y1159460D02*
G01Y1166745D01*
X1130964Y1159460D02*
G01Y1166745D01*
X1130983Y1159460D02*
G01Y1166745D01*
X1131003Y1159460D02*
G01Y1166745D01*
X1131022Y1159460D02*
G01Y1166745D01*
X1131042Y1159460D02*
G01Y1166745D01*
X1131061Y1159460D02*
G01Y1166745D01*
X1131081Y1159460D02*
G01Y1166745D01*
X1131100Y1159460D02*
G01Y1166745D01*
X1131120Y1159460D02*
G01Y1166745D01*
X1131139Y1159460D02*
G01Y1166745D01*
X1131159Y1159460D02*
G01Y1166745D01*
X1131178Y1159460D02*
G01Y1166745D01*
X1131198Y1159460D02*
G01Y1166745D01*
X1131217Y1159460D02*
G01Y1166745D01*
X1131237Y1159460D02*
G01Y1166745D01*
X1131256Y1159460D02*
G01Y1166745D01*
X1131276Y1159460D02*
G01Y1166745D01*
X1131295Y1159460D02*
G01Y1166745D01*
X1131315Y1159460D02*
G01Y1166745D01*
X1131334Y1159460D02*
G01Y1166745D01*
X1131354Y1159460D02*
G01Y1166745D01*
X1131373Y1159460D02*
G01Y1166745D01*
X1131393Y1159460D02*
G01Y1166745D01*
X1131412Y1159460D02*
G01Y1166745D01*
X1131432Y1159460D02*
G01Y1166745D01*
X1131451Y1159460D02*
G01Y1166745D01*
X1131471Y1159460D02*
G01Y1166745D01*
X1131490Y1159460D02*
G01Y1166745D01*
X1131510Y1159460D02*
G01Y1166745D01*
X1131529Y1159460D02*
G01Y1166745D01*
X1131549Y1159460D02*
G01Y1166745D01*
X1131568Y1159460D02*
G01Y1166745D01*
X1131588Y1159460D02*
G01Y1166745D01*
X1131607Y1159460D02*
G01Y1166745D01*
X1131627Y1159460D02*
G01Y1166745D01*
X1131646Y1159460D02*
G01Y1166745D01*
X1131666Y1159460D02*
G01Y1166745D01*
X1131685Y1159460D02*
G01Y1166745D01*
X1131705Y1159460D02*
G01Y1166745D01*
X1131724Y1159460D02*
G01Y1166745D01*
X1131744Y1159460D02*
G01Y1166745D01*
X1131763Y1159460D02*
G01Y1166745D01*
X1131783Y1159460D02*
G01Y1166745D01*
X1131802Y1159460D02*
G01Y1166745D01*
X1131822Y1159460D02*
G01Y1166745D01*
X1131841Y1159460D02*
G01Y1166745D01*
X1131861Y1159460D02*
G01Y1166745D01*
X1131880Y1159460D02*
G01Y1166745D01*
X1131900Y1159460D02*
G01Y1166745D01*
X1131919Y1159460D02*
G01Y1166745D01*
X1131939Y1159460D02*
G01Y1166745D01*
X1131958Y1159460D02*
G01Y1166745D01*
X1131978Y1159460D02*
G01Y1166745D01*
X1131997Y1159460D02*
G01Y1166745D01*
X1132017Y1159460D02*
G01Y1166745D01*
X1132036Y1159460D02*
G01Y1166745D01*
X1132056Y1159460D02*
G01Y1166745D01*
X1132075Y1159460D02*
G01Y1166745D01*
X1132095Y1159460D02*
G01Y1166745D01*
X1132114Y1159460D02*
G01Y1166745D01*
X1132134Y1159460D02*
G01Y1166745D01*
X1132153Y1159460D02*
G01Y1166745D01*
X1132173Y1159460D02*
G01Y1166745D01*
X1132192Y1159460D02*
G01Y1166745D01*
X1132212Y1159460D02*
G01Y1166745D01*
X1132231Y1159460D02*
G01Y1166745D01*
X1132251Y1159460D02*
G01Y1166745D01*
X1132270Y1159460D02*
G01Y1166745D01*
X1132290Y1159460D02*
G01Y1166745D01*
X1132309Y1159460D02*
G01Y1166745D01*
X1132329Y1159460D02*
G01Y1166745D01*
X1132348Y1159460D02*
G01Y1166745D01*
X1132368Y1159460D02*
G01Y1166745D01*
X1132387Y1159460D02*
G01Y1166745D01*
X1132407Y1159460D02*
G01Y1166745D01*
X1132426Y1159460D02*
G01Y1166745D01*
X1132446Y1159460D02*
G01Y1166745D01*
X1132465Y1159460D02*
G01Y1166745D01*
X1132485Y1159460D02*
G01Y1166745D01*
X1132504Y1159460D02*
G01Y1166745D01*
X1132524Y1159460D02*
G01Y1166745D01*
X1132543Y1159460D02*
G01Y1166745D01*
X1132563Y1159460D02*
G01Y1166745D01*
X1132582Y1159460D02*
G01Y1166745D01*
X1132602Y1159460D02*
G01Y1166745D01*
X1132621Y1159460D02*
G01Y1166745D01*
X1132641Y1159460D02*
G01Y1166745D01*
X1132660Y1159460D02*
G01Y1166745D01*
X1132680Y1159460D02*
G01Y1166745D01*
X1132699Y1159460D02*
G01Y1166745D01*
X1132719Y1159460D02*
G01Y1166745D01*
X1132738Y1159460D02*
G01Y1166745D01*
X1132758Y1159460D02*
G01Y1166745D01*
X1132777Y1159460D02*
G01Y1166745D01*
X1132797Y1159460D02*
G01Y1166745D01*
X1132816Y1159460D02*
G01Y1166745D01*
X1132836Y1159460D02*
G01Y1166745D01*
X1132855Y1159460D02*
G01Y1166745D01*
X1132875Y1159460D02*
G01Y1166745D01*
X1132894Y1159460D02*
G01Y1166745D01*
X1132914Y1159460D02*
G01Y1166745D01*
X1132933Y1159460D02*
G01Y1166745D01*
X1132953Y1159460D02*
G01Y1166745D01*
X1132972Y1159460D02*
G01Y1166745D01*
X1132992Y1159460D02*
G01Y1166745D01*
X1133011Y1159460D02*
G01Y1166745D01*
X1133031Y1159460D02*
G01Y1166745D01*
X1133050Y1159460D02*
G01Y1166745D01*
X1133070Y1159460D02*
G01Y1166745D01*
X1133089Y1159460D02*
G01Y1166745D01*
X1133109Y1159460D02*
G01Y1166745D01*
X1133128Y1159460D02*
G01Y1166745D01*
X1133148Y1159460D02*
G01Y1166745D01*
X1133167Y1159460D02*
G01Y1166745D01*
X1133187Y1159460D02*
G01Y1166745D01*
X1133206Y1159460D02*
G01Y1166745D01*
X1133226Y1159460D02*
G01Y1166745D01*
X1133245Y1159460D02*
G01Y1166745D01*
X1133257Y1147255D02*
G01Y1154540D01*
Y1154540D02*
G01X1127901D01*
Y1154540D02*
G01Y1147255D01*
Y1147255D02*
G01X1133257D01*
X1127902D02*
G01Y1154540D01*
X1127922Y1147255D02*
G01Y1154540D01*
X1127941Y1147255D02*
G01Y1154540D01*
X1127961Y1147255D02*
G01Y1154540D01*
X1127980Y1147255D02*
G01Y1154540D01*
X1128000Y1147255D02*
G01Y1154540D01*
X1128019Y1147255D02*
G01Y1154540D01*
X1128039Y1147255D02*
G01Y1154540D01*
X1128058Y1147255D02*
G01Y1154540D01*
X1128078Y1147255D02*
G01Y1154540D01*
X1128097Y1147255D02*
G01Y1154540D01*
X1128117Y1147255D02*
G01Y1154540D01*
X1128136Y1147255D02*
G01Y1154540D01*
X1128156Y1147255D02*
G01Y1154540D01*
X1128175Y1147255D02*
G01Y1154540D01*
X1128195Y1147255D02*
G01Y1154540D01*
X1128214Y1147255D02*
G01Y1154540D01*
X1128234Y1147255D02*
G01Y1154540D01*
X1128253Y1147255D02*
G01Y1154540D01*
X1128273Y1147255D02*
G01Y1154540D01*
X1128292Y1147255D02*
G01Y1154540D01*
X1128312Y1147255D02*
G01Y1154540D01*
X1128331Y1147255D02*
G01Y1154540D01*
X1128351Y1147255D02*
G01Y1154540D01*
X1128370Y1147255D02*
G01Y1154540D01*
X1128390Y1147255D02*
G01Y1154540D01*
X1128409Y1147255D02*
G01Y1154540D01*
X1128429Y1147255D02*
G01Y1154540D01*
X1128448Y1147255D02*
G01Y1154540D01*
X1128468Y1147255D02*
G01Y1154540D01*
X1128487Y1147255D02*
G01Y1154540D01*
X1128507Y1147255D02*
G01Y1154540D01*
X1128526Y1147255D02*
G01Y1154540D01*
X1128546Y1147255D02*
G01Y1154540D01*
X1128565Y1147255D02*
G01Y1154540D01*
X1128585Y1147255D02*
G01Y1154540D01*
X1128604Y1147255D02*
G01Y1154540D01*
X1128624Y1147255D02*
G01Y1154540D01*
X1128643Y1147255D02*
G01Y1154540D01*
X1128663Y1147255D02*
G01Y1154540D01*
X1128682Y1147255D02*
G01Y1154540D01*
X1128702Y1147255D02*
G01Y1154540D01*
X1128721Y1147255D02*
G01Y1154540D01*
X1128741Y1147255D02*
G01Y1154540D01*
X1128760Y1147255D02*
G01Y1154540D01*
X1128780Y1147255D02*
G01Y1154540D01*
X1128799Y1147255D02*
G01Y1154540D01*
X1128819Y1147255D02*
G01Y1154540D01*
X1128838Y1147255D02*
G01Y1154540D01*
X1128858Y1147255D02*
G01Y1154540D01*
X1128877Y1147255D02*
G01Y1154540D01*
X1128897Y1147255D02*
G01Y1154540D01*
X1128916Y1147255D02*
G01Y1154540D01*
X1128936Y1147255D02*
G01Y1154540D01*
X1128955Y1147255D02*
G01Y1154540D01*
X1128975Y1147255D02*
G01Y1154540D01*
X1128994Y1147255D02*
G01Y1154540D01*
X1129014Y1147255D02*
G01Y1154540D01*
X1129033Y1147255D02*
G01Y1154540D01*
X1129053Y1147255D02*
G01Y1154540D01*
X1129072Y1147255D02*
G01Y1154540D01*
X1129092Y1147255D02*
G01Y1154540D01*
X1129111Y1147255D02*
G01Y1154540D01*
X1129131Y1147255D02*
G01Y1154540D01*
X1129150Y1147255D02*
G01Y1154540D01*
X1129170Y1147255D02*
G01Y1154540D01*
X1129189Y1147255D02*
G01Y1154540D01*
X1129209Y1147255D02*
G01Y1154540D01*
X1129228Y1147255D02*
G01Y1154540D01*
X1129248Y1147255D02*
G01Y1154540D01*
X1129267Y1147255D02*
G01Y1154540D01*
X1129287Y1147255D02*
G01Y1154540D01*
X1129306Y1147255D02*
G01Y1154540D01*
X1129326Y1147255D02*
G01Y1154540D01*
X1129345Y1147255D02*
G01Y1154540D01*
X1129365Y1147255D02*
G01Y1154540D01*
X1129384Y1147255D02*
G01Y1154540D01*
X1129404Y1147255D02*
G01Y1154540D01*
X1129423Y1147255D02*
G01Y1154540D01*
X1129443Y1147255D02*
G01Y1154540D01*
X1129462Y1147255D02*
G01Y1154540D01*
X1129482Y1147255D02*
G01Y1154540D01*
X1129501Y1147255D02*
G01Y1154540D01*
X1129521Y1147255D02*
G01Y1154540D01*
X1129540Y1147255D02*
G01Y1154540D01*
X1129560Y1147255D02*
G01Y1154540D01*
X1129579Y1147255D02*
G01Y1154540D01*
X1129599Y1147255D02*
G01Y1154540D01*
X1129618Y1147255D02*
G01Y1154540D01*
X1129638Y1147255D02*
G01Y1154540D01*
X1129657Y1147255D02*
G01Y1154540D01*
X1129677Y1147255D02*
G01Y1154540D01*
X1129696Y1147255D02*
G01Y1154540D01*
X1129716Y1147255D02*
G01Y1154540D01*
X1129735Y1147255D02*
G01Y1154540D01*
X1129755Y1147255D02*
G01Y1154540D01*
X1129774Y1147255D02*
G01Y1154540D01*
X1129794Y1147255D02*
G01Y1154540D01*
X1129813Y1147255D02*
G01Y1154540D01*
X1129833Y1147255D02*
G01Y1154540D01*
X1129852Y1147255D02*
G01Y1154540D01*
X1129872Y1147255D02*
G01Y1154540D01*
X1129891Y1147255D02*
G01Y1154540D01*
X1129911Y1147255D02*
G01Y1154540D01*
X1129930Y1147255D02*
G01Y1154540D01*
X1129950Y1147255D02*
G01Y1154540D01*
X1129969Y1147255D02*
G01Y1154540D01*
X1129989Y1147255D02*
G01Y1154540D01*
X1130008Y1147255D02*
G01Y1154540D01*
X1130028Y1147255D02*
G01Y1154540D01*
X1130047Y1147255D02*
G01Y1154540D01*
X1130067Y1147255D02*
G01Y1154540D01*
X1130086Y1147255D02*
G01Y1154540D01*
X1130106Y1147255D02*
G01Y1154540D01*
X1130125Y1147255D02*
G01Y1154540D01*
X1130145Y1147255D02*
G01Y1154540D01*
X1130164Y1147255D02*
G01Y1154540D01*
X1130184Y1147255D02*
G01Y1154540D01*
X1130203Y1147255D02*
G01Y1154540D01*
X1130223Y1147255D02*
G01Y1154540D01*
X1130242Y1147255D02*
G01Y1154540D01*
X1130262Y1147255D02*
G01Y1154540D01*
X1130281Y1147255D02*
G01Y1154540D01*
X1130301Y1147255D02*
G01Y1154540D01*
X1130320Y1147255D02*
G01Y1154540D01*
X1130340Y1147255D02*
G01Y1154540D01*
X1130359Y1147255D02*
G01Y1154540D01*
X1130379Y1147255D02*
G01Y1154540D01*
X1130398Y1147255D02*
G01Y1154540D01*
X1130418Y1147255D02*
G01Y1154540D01*
X1130437Y1147255D02*
G01Y1154540D01*
X1130457Y1147255D02*
G01Y1154540D01*
X1130476Y1147255D02*
G01Y1154540D01*
X1130496Y1147255D02*
G01Y1154540D01*
X1130515Y1147255D02*
G01Y1154540D01*
X1130535Y1147255D02*
G01Y1154540D01*
X1130554Y1147255D02*
G01Y1154540D01*
X1130574Y1147255D02*
G01Y1154540D01*
X1130593Y1147255D02*
G01Y1154540D01*
X1130613Y1147255D02*
G01Y1154540D01*
X1130632Y1147255D02*
G01Y1154540D01*
X1130652Y1147255D02*
G01Y1154540D01*
X1130671Y1147255D02*
G01Y1154540D01*
X1130691Y1147255D02*
G01Y1154540D01*
X1130710Y1147255D02*
G01Y1154540D01*
X1130730Y1147255D02*
G01Y1154540D01*
X1130749Y1147255D02*
G01Y1154540D01*
X1130769Y1147255D02*
G01Y1154540D01*
X1130788Y1147255D02*
G01Y1154540D01*
X1130808Y1147255D02*
G01Y1154540D01*
X1130827Y1147255D02*
G01Y1154540D01*
X1130847Y1147255D02*
G01Y1154540D01*
X1130866Y1147255D02*
G01Y1154540D01*
X1130886Y1147255D02*
G01Y1154540D01*
X1130905Y1147255D02*
G01Y1154540D01*
X1130925Y1147255D02*
G01Y1154540D01*
X1130944Y1147255D02*
G01Y1154540D01*
X1130964Y1147255D02*
G01Y1154540D01*
X1130983Y1147255D02*
G01Y1154540D01*
X1131003Y1147255D02*
G01Y1154540D01*
X1131022Y1147255D02*
G01Y1154540D01*
X1131042Y1147255D02*
G01Y1154540D01*
X1131061Y1147255D02*
G01Y1154540D01*
X1131081Y1147255D02*
G01Y1154540D01*
X1131100Y1147255D02*
G01Y1154540D01*
X1131120Y1147255D02*
G01Y1154540D01*
X1131139Y1147255D02*
G01Y1154540D01*
X1131159Y1147255D02*
G01Y1154540D01*
X1131178Y1147255D02*
G01Y1154540D01*
X1131198Y1147255D02*
G01Y1154540D01*
X1131217Y1147255D02*
G01Y1154540D01*
X1131237Y1147255D02*
G01Y1154540D01*
X1131256Y1147255D02*
G01Y1154540D01*
X1131276Y1147255D02*
G01Y1154540D01*
X1131295Y1147255D02*
G01Y1154540D01*
X1131315Y1147255D02*
G01Y1154540D01*
X1131334Y1147255D02*
G01Y1154540D01*
X1131354Y1147255D02*
G01Y1154540D01*
X1131373Y1147255D02*
G01Y1154540D01*
X1131393Y1147255D02*
G01Y1154540D01*
X1131412Y1147255D02*
G01Y1154540D01*
X1131432Y1147255D02*
G01Y1154540D01*
X1131451Y1147255D02*
G01Y1154540D01*
X1131471Y1147255D02*
G01Y1154540D01*
X1131490Y1147255D02*
G01Y1154540D01*
X1131510Y1147255D02*
G01Y1154540D01*
X1131529Y1147255D02*
G01Y1154540D01*
X1131549Y1147255D02*
G01Y1154540D01*
X1131568Y1147255D02*
G01Y1154540D01*
X1131588Y1147255D02*
G01Y1154540D01*
X1131607Y1147255D02*
G01Y1154540D01*
X1131627Y1147255D02*
G01Y1154540D01*
X1131646Y1147255D02*
G01Y1154540D01*
X1131666Y1147255D02*
G01Y1154540D01*
X1131685Y1147255D02*
G01Y1154540D01*
X1131705Y1147255D02*
G01Y1154540D01*
X1131724Y1147255D02*
G01Y1154540D01*
X1131744Y1147255D02*
G01Y1154540D01*
X1131763Y1147255D02*
G01Y1154540D01*
X1131783Y1147255D02*
G01Y1154540D01*
X1131802Y1147255D02*
G01Y1154540D01*
X1131822Y1147255D02*
G01Y1154540D01*
X1131841Y1147255D02*
G01Y1154540D01*
X1131861Y1147255D02*
G01Y1154540D01*
X1131880Y1147255D02*
G01Y1154540D01*
X1131900Y1147255D02*
G01Y1154540D01*
X1131919Y1147255D02*
G01Y1154540D01*
X1131939Y1147255D02*
G01Y1154540D01*
X1131958Y1147255D02*
G01Y1154540D01*
X1131978Y1147255D02*
G01Y1154540D01*
X1131997Y1147255D02*
G01Y1154540D01*
X1132017Y1147255D02*
G01Y1154540D01*
X1132036Y1147255D02*
G01Y1154540D01*
X1132056Y1147255D02*
G01Y1154540D01*
X1132075Y1147255D02*
G01Y1154540D01*
X1132095Y1147255D02*
G01Y1154540D01*
X1132114Y1147255D02*
G01Y1154540D01*
X1132134Y1147255D02*
G01Y1154540D01*
X1132153Y1147255D02*
G01Y1154540D01*
X1132173Y1147255D02*
G01Y1154540D01*
X1132192Y1147255D02*
G01Y1154540D01*
X1132212Y1147255D02*
G01Y1154540D01*
X1132231Y1147255D02*
G01Y1154540D01*
X1132251Y1147255D02*
G01Y1154540D01*
X1132270Y1147255D02*
G01Y1154540D01*
X1132290Y1147255D02*
G01Y1154540D01*
X1132309Y1147255D02*
G01Y1154540D01*
X1132329Y1147255D02*
G01Y1154540D01*
X1132348Y1147255D02*
G01Y1154540D01*
X1132368Y1147255D02*
G01Y1154540D01*
X1132387Y1147255D02*
G01Y1154540D01*
X1132407Y1147255D02*
G01Y1154540D01*
X1132426Y1147255D02*
G01Y1154540D01*
X1132446Y1147255D02*
G01Y1154540D01*
X1132465Y1147255D02*
G01Y1154540D01*
X1132485Y1147255D02*
G01Y1154540D01*
X1132504Y1147255D02*
G01Y1154540D01*
X1132524Y1147255D02*
G01Y1154540D01*
X1132543Y1147255D02*
G01Y1154540D01*
X1132563Y1147255D02*
G01Y1154540D01*
X1132582Y1147255D02*
G01Y1154540D01*
X1132602Y1147255D02*
G01Y1154540D01*
X1132621Y1147255D02*
G01Y1154540D01*
X1132641Y1147255D02*
G01Y1154540D01*
X1132660Y1147255D02*
G01Y1154540D01*
X1132680Y1147255D02*
G01Y1154540D01*
X1132699Y1147255D02*
G01Y1154540D01*
X1132719Y1147255D02*
G01Y1154540D01*
X1132738Y1147255D02*
G01Y1154540D01*
X1132758Y1147255D02*
G01Y1154540D01*
X1132777Y1147255D02*
G01Y1154540D01*
X1132797Y1147255D02*
G01Y1154540D01*
X1132816Y1147255D02*
G01Y1154540D01*
X1132836Y1147255D02*
G01Y1154540D01*
X1132855Y1147255D02*
G01Y1154540D01*
X1132875Y1147255D02*
G01Y1154540D01*
X1132894Y1147255D02*
G01Y1154540D01*
X1132914Y1147255D02*
G01Y1154540D01*
X1132933Y1147255D02*
G01Y1154540D01*
X1132953Y1147255D02*
G01Y1154540D01*
X1132972Y1147255D02*
G01Y1154540D01*
X1132992Y1147255D02*
G01Y1154540D01*
X1133011Y1147255D02*
G01Y1154540D01*
X1133031Y1147255D02*
G01Y1154540D01*
X1133050Y1147255D02*
G01Y1154540D01*
X1133070Y1147255D02*
G01Y1154540D01*
X1133089Y1147255D02*
G01Y1154540D01*
X1133109Y1147255D02*
G01Y1154540D01*
X1133128Y1147255D02*
G01Y1154540D01*
X1133148Y1147255D02*
G01Y1154540D01*
X1133167Y1147255D02*
G01Y1154540D01*
X1133187Y1147255D02*
G01Y1154540D01*
X1133206Y1147255D02*
G01Y1154540D01*
X1133226Y1147255D02*
G01Y1154540D01*
X1133245Y1147255D02*
G01Y1154540D01*
X1142233Y1147255D02*
G01Y1154540D01*
Y1154540D02*
G01X1136877D01*
Y1154540D02*
G01Y1147255D01*
Y1147255D02*
G01X1142233D01*
X1136891D02*
G01Y1154540D01*
X1136911Y1147255D02*
G01Y1154540D01*
X1136930Y1147255D02*
G01Y1154540D01*
X1136950Y1147255D02*
G01Y1154540D01*
X1136969Y1147255D02*
G01Y1154540D01*
X1136989Y1147255D02*
G01Y1154540D01*
X1137008Y1147255D02*
G01Y1154540D01*
X1137028Y1147255D02*
G01Y1154540D01*
X1137047Y1147255D02*
G01Y1154540D01*
X1137067Y1147255D02*
G01Y1154540D01*
X1137086Y1147255D02*
G01Y1154540D01*
X1137106Y1147255D02*
G01Y1154540D01*
X1137125Y1147255D02*
G01Y1154540D01*
X1137145Y1147255D02*
G01Y1154540D01*
X1137164Y1147255D02*
G01Y1154540D01*
X1137184Y1147255D02*
G01Y1154540D01*
X1137203Y1147255D02*
G01Y1154540D01*
X1137223Y1147255D02*
G01Y1154540D01*
X1137242Y1147255D02*
G01Y1154540D01*
X1137262Y1147255D02*
G01Y1154540D01*
X1137281Y1147255D02*
G01Y1154540D01*
X1137301Y1147255D02*
G01Y1154540D01*
X1137320Y1147255D02*
G01Y1154540D01*
X1137340Y1147255D02*
G01Y1154540D01*
X1137359Y1147255D02*
G01Y1154540D01*
X1137379Y1147255D02*
G01Y1154540D01*
X1137398Y1147255D02*
G01Y1154540D01*
X1137418Y1147255D02*
G01Y1154540D01*
X1137437Y1147255D02*
G01Y1154540D01*
X1137457Y1147255D02*
G01Y1154540D01*
X1137476Y1147255D02*
G01Y1154540D01*
X1137496Y1147255D02*
G01Y1154540D01*
X1137515Y1147255D02*
G01Y1154540D01*
X1137535Y1147255D02*
G01Y1154540D01*
X1137554Y1147255D02*
G01Y1154540D01*
X1137574Y1147255D02*
G01Y1154540D01*
X1137593Y1147255D02*
G01Y1154540D01*
X1137613Y1147255D02*
G01Y1154540D01*
X1137632Y1147255D02*
G01Y1154540D01*
X1137652Y1147255D02*
G01Y1154540D01*
X1137671Y1147255D02*
G01Y1154540D01*
X1137691Y1147255D02*
G01Y1154540D01*
X1137710Y1147255D02*
G01Y1154540D01*
X1137730Y1147255D02*
G01Y1154540D01*
X1137749Y1147255D02*
G01Y1154540D01*
X1137769Y1147255D02*
G01Y1154540D01*
X1137788Y1147255D02*
G01Y1154540D01*
X1137808Y1147255D02*
G01Y1154540D01*
X1137827Y1147255D02*
G01Y1154540D01*
X1137847Y1147255D02*
G01Y1154540D01*
X1137866Y1147255D02*
G01Y1154540D01*
X1137886Y1147255D02*
G01Y1154540D01*
X1137905Y1147255D02*
G01Y1154540D01*
X1137925Y1147255D02*
G01Y1154540D01*
X1137944Y1147255D02*
G01Y1154540D01*
X1137964Y1147255D02*
G01Y1154540D01*
X1137983Y1147255D02*
G01Y1154540D01*
X1138003Y1147255D02*
G01Y1154540D01*
X1138022Y1147255D02*
G01Y1154540D01*
X1138042Y1147255D02*
G01Y1154540D01*
X1138061Y1147255D02*
G01Y1154540D01*
X1138081Y1147255D02*
G01Y1154540D01*
X1138100Y1147255D02*
G01Y1154540D01*
X1138120Y1147255D02*
G01Y1154540D01*
X1138139Y1147255D02*
G01Y1154540D01*
X1138159Y1147255D02*
G01Y1154540D01*
X1138178Y1147255D02*
G01Y1154540D01*
X1138198Y1147255D02*
G01Y1154540D01*
X1138217Y1147255D02*
G01Y1154540D01*
X1138237Y1147255D02*
G01Y1154540D01*
X1138256Y1147255D02*
G01Y1154540D01*
X1138276Y1147255D02*
G01Y1154540D01*
X1138295Y1147255D02*
G01Y1154540D01*
X1138315Y1147255D02*
G01Y1154540D01*
X1138334Y1147255D02*
G01Y1154540D01*
X1138354Y1147255D02*
G01Y1154540D01*
X1138373Y1147255D02*
G01Y1154540D01*
X1138393Y1147255D02*
G01Y1154540D01*
X1138412Y1147255D02*
G01Y1154540D01*
X1138432Y1147255D02*
G01Y1154540D01*
X1138451Y1147255D02*
G01Y1154540D01*
X1138471Y1147255D02*
G01Y1154540D01*
X1138490Y1147255D02*
G01Y1154540D01*
X1138510Y1147255D02*
G01Y1154540D01*
X1138529Y1147255D02*
G01Y1154540D01*
X1138549Y1147255D02*
G01Y1154540D01*
X1138568Y1147255D02*
G01Y1154540D01*
X1138588Y1147255D02*
G01Y1154540D01*
X1138607Y1147255D02*
G01Y1154540D01*
X1138627Y1147255D02*
G01Y1154540D01*
X1138646Y1147255D02*
G01Y1154540D01*
X1138666Y1147255D02*
G01Y1154540D01*
X1138685Y1147255D02*
G01Y1154540D01*
X1138705Y1147255D02*
G01Y1154540D01*
X1138724Y1147255D02*
G01Y1154540D01*
X1138744Y1147255D02*
G01Y1154540D01*
X1138763Y1147255D02*
G01Y1154540D01*
X1138783Y1147255D02*
G01Y1154540D01*
X1138802Y1147255D02*
G01Y1154540D01*
X1138822Y1147255D02*
G01Y1154540D01*
X1138841Y1147255D02*
G01Y1154540D01*
X1138861Y1147255D02*
G01Y1154540D01*
X1138880Y1147255D02*
G01Y1154540D01*
X1138900Y1147255D02*
G01Y1154540D01*
X1138919Y1147255D02*
G01Y1154540D01*
X1138939Y1147255D02*
G01Y1154540D01*
X1138958Y1147255D02*
G01Y1154540D01*
X1138978Y1147255D02*
G01Y1154540D01*
X1138997Y1147255D02*
G01Y1154540D01*
X1139017Y1147255D02*
G01Y1154540D01*
X1139036Y1147255D02*
G01Y1154540D01*
X1139056Y1147255D02*
G01Y1154540D01*
X1139075Y1147255D02*
G01Y1154540D01*
X1139095Y1147255D02*
G01Y1154540D01*
X1139114Y1147255D02*
G01Y1154540D01*
X1139134Y1147255D02*
G01Y1154540D01*
X1139153Y1147255D02*
G01Y1154540D01*
X1139173Y1147255D02*
G01Y1154540D01*
X1139192Y1147255D02*
G01Y1154540D01*
X1139212Y1147255D02*
G01Y1154540D01*
X1139231Y1147255D02*
G01Y1154540D01*
X1139251Y1147255D02*
G01Y1154540D01*
X1139270Y1147255D02*
G01Y1154540D01*
X1139290Y1147255D02*
G01Y1154540D01*
X1139309Y1147255D02*
G01Y1154540D01*
X1139329Y1147255D02*
G01Y1154540D01*
X1139348Y1147255D02*
G01Y1154540D01*
X1139368Y1147255D02*
G01Y1154540D01*
X1139387Y1147255D02*
G01Y1154540D01*
X1139407Y1147255D02*
G01Y1154540D01*
X1139426Y1147255D02*
G01Y1154540D01*
X1139446Y1147255D02*
G01Y1154540D01*
X1139465Y1147255D02*
G01Y1154540D01*
X1139485Y1147255D02*
G01Y1154540D01*
X1139504Y1147255D02*
G01Y1154540D01*
X1139524Y1147255D02*
G01Y1154540D01*
X1139543Y1147255D02*
G01Y1154540D01*
X1139563Y1147255D02*
G01Y1154540D01*
X1139582Y1147255D02*
G01Y1154540D01*
X1139602Y1147255D02*
G01Y1154540D01*
X1139621Y1147255D02*
G01Y1154540D01*
X1139641Y1147255D02*
G01Y1154540D01*
X1139660Y1147255D02*
G01Y1154540D01*
X1139680Y1147255D02*
G01Y1154540D01*
X1139699Y1147255D02*
G01Y1154540D01*
X1139719Y1147255D02*
G01Y1154540D01*
X1139738Y1147255D02*
G01Y1154540D01*
X1139758Y1147255D02*
G01Y1154540D01*
X1139777Y1147255D02*
G01Y1154540D01*
X1139797Y1147255D02*
G01Y1154540D01*
X1139816Y1147255D02*
G01Y1154540D01*
X1139836Y1147255D02*
G01Y1154540D01*
X1139855Y1147255D02*
G01Y1154540D01*
X1139875Y1147255D02*
G01Y1154540D01*
X1139894Y1147255D02*
G01Y1154540D01*
X1139914Y1147255D02*
G01Y1154540D01*
X1139933Y1147255D02*
G01Y1154540D01*
X1139953Y1147255D02*
G01Y1154540D01*
X1139972Y1147255D02*
G01Y1154540D01*
X1139992Y1147255D02*
G01Y1154540D01*
X1140011Y1147255D02*
G01Y1154540D01*
X1140031Y1147255D02*
G01Y1154540D01*
X1140050Y1147255D02*
G01Y1154540D01*
X1140070Y1147255D02*
G01Y1154540D01*
X1140089Y1147255D02*
G01Y1154540D01*
X1140109Y1147255D02*
G01Y1154540D01*
X1140128Y1147255D02*
G01Y1154540D01*
X1140148Y1147255D02*
G01Y1154540D01*
X1140167Y1147255D02*
G01Y1154540D01*
X1140187Y1147255D02*
G01Y1154540D01*
X1140206Y1147255D02*
G01Y1154540D01*
X1140226Y1147255D02*
G01Y1154540D01*
X1140245Y1147255D02*
G01Y1154540D01*
X1140265Y1147255D02*
G01Y1154540D01*
X1140284Y1147255D02*
G01Y1154540D01*
X1140304Y1147255D02*
G01Y1154540D01*
X1140323Y1147255D02*
G01Y1154540D01*
X1140343Y1147255D02*
G01Y1154540D01*
X1140362Y1147255D02*
G01Y1154540D01*
X1140382Y1147255D02*
G01Y1154540D01*
X1140401Y1147255D02*
G01Y1154540D01*
X1140421Y1147255D02*
G01Y1154540D01*
X1140440Y1147255D02*
G01Y1154540D01*
X1140460Y1147255D02*
G01Y1154540D01*
X1140479Y1147255D02*
G01Y1154540D01*
X1140499Y1147255D02*
G01Y1154540D01*
X1140518Y1147255D02*
G01Y1154540D01*
X1140538Y1147255D02*
G01Y1154540D01*
X1140557Y1147255D02*
G01Y1154540D01*
X1140577Y1147255D02*
G01Y1154540D01*
X1140596Y1147255D02*
G01Y1154540D01*
X1140616Y1147255D02*
G01Y1154540D01*
X1140635Y1147255D02*
G01Y1154540D01*
X1140655Y1147255D02*
G01Y1154540D01*
X1140674Y1147255D02*
G01Y1154540D01*
X1140694Y1147255D02*
G01Y1154540D01*
X1140713Y1147255D02*
G01Y1154540D01*
X1140733Y1147255D02*
G01Y1154540D01*
X1140752Y1147255D02*
G01Y1154540D01*
X1140772Y1147255D02*
G01Y1154540D01*
X1140791Y1147255D02*
G01Y1154540D01*
X1140811Y1147255D02*
G01Y1154540D01*
X1140830Y1147255D02*
G01Y1154540D01*
X1140850Y1147255D02*
G01Y1154540D01*
X1140869Y1147255D02*
G01Y1154540D01*
X1140889Y1147255D02*
G01Y1154540D01*
X1140908Y1147255D02*
G01Y1154540D01*
X1140928Y1147255D02*
G01Y1154540D01*
X1140947Y1147255D02*
G01Y1154540D01*
X1140967Y1147255D02*
G01Y1154540D01*
X1140986Y1147255D02*
G01Y1154540D01*
X1141006Y1147255D02*
G01Y1154540D01*
X1141025Y1147255D02*
G01Y1154540D01*
X1141045Y1147255D02*
G01Y1154540D01*
X1141064Y1147255D02*
G01Y1154540D01*
X1141084Y1147255D02*
G01Y1154540D01*
X1141103Y1147255D02*
G01Y1154540D01*
X1141123Y1147255D02*
G01Y1154540D01*
X1141142Y1147255D02*
G01Y1154540D01*
X1141162Y1147255D02*
G01Y1154540D01*
X1141181Y1147255D02*
G01Y1154540D01*
X1141201Y1147255D02*
G01Y1154540D01*
X1141220Y1147255D02*
G01Y1154540D01*
X1141240Y1147255D02*
G01Y1154540D01*
X1141259Y1147255D02*
G01Y1154540D01*
X1141279Y1147255D02*
G01Y1154540D01*
X1141298Y1147255D02*
G01Y1154540D01*
X1141318Y1147255D02*
G01Y1154540D01*
X1141337Y1147255D02*
G01Y1154540D01*
X1141357Y1147255D02*
G01Y1154540D01*
X1141376Y1147255D02*
G01Y1154540D01*
X1141396Y1147255D02*
G01Y1154540D01*
X1141415Y1147255D02*
G01Y1154540D01*
X1141435Y1147255D02*
G01Y1154540D01*
X1141454Y1147255D02*
G01Y1154540D01*
X1141474Y1147255D02*
G01Y1154540D01*
X1141493Y1147255D02*
G01Y1154540D01*
X1141513Y1147255D02*
G01Y1154540D01*
X1141532Y1147255D02*
G01Y1154540D01*
X1141552Y1147255D02*
G01Y1154540D01*
X1141571Y1147255D02*
G01Y1154540D01*
X1141591Y1147255D02*
G01Y1154540D01*
X1141610Y1147255D02*
G01Y1154540D01*
X1141630Y1147255D02*
G01Y1154540D01*
X1141649Y1147255D02*
G01Y1154540D01*
X1141669Y1147255D02*
G01Y1154540D01*
X1141688Y1147255D02*
G01Y1154540D01*
X1141708Y1147255D02*
G01Y1154540D01*
X1141727Y1147255D02*
G01Y1154540D01*
X1141747Y1147255D02*
G01Y1154540D01*
X1141766Y1147255D02*
G01Y1154540D01*
X1141786Y1147255D02*
G01Y1154540D01*
X1141805Y1147255D02*
G01Y1154540D01*
X1141825Y1147255D02*
G01Y1154540D01*
X1141844Y1147255D02*
G01Y1154540D01*
X1141864Y1147255D02*
G01Y1154540D01*
X1141883Y1147255D02*
G01Y1154540D01*
X1141903Y1147255D02*
G01Y1154540D01*
X1141922Y1147255D02*
G01Y1154540D01*
X1141942Y1147255D02*
G01Y1154540D01*
X1141961Y1147255D02*
G01Y1154540D01*
X1141981Y1147255D02*
G01Y1154540D01*
X1142000Y1147255D02*
G01Y1154540D01*
X1142020Y1147255D02*
G01Y1154540D01*
X1142039Y1147255D02*
G01Y1154540D01*
X1142059Y1147255D02*
G01Y1154540D01*
X1142078Y1147255D02*
G01Y1154540D01*
X1142098Y1147255D02*
G01Y1154540D01*
X1142117Y1147255D02*
G01Y1154540D01*
X1142137Y1147255D02*
G01Y1154540D01*
X1142156Y1147255D02*
G01Y1154540D01*
X1142176Y1147255D02*
G01Y1154540D01*
X1142195Y1147255D02*
G01Y1154540D01*
X1142215Y1147255D02*
G01Y1154540D01*
X1142233Y1159460D02*
G01Y1166745D01*
Y1166745D02*
G01X1136877D01*
Y1166745D02*
G01Y1159460D01*
Y1159460D02*
G01X1142233D01*
X1136891D02*
G01Y1166745D01*
X1136911Y1159460D02*
G01Y1166745D01*
X1136930Y1159460D02*
G01Y1166745D01*
X1136950Y1159460D02*
G01Y1166745D01*
X1136969Y1159460D02*
G01Y1166745D01*
X1136989Y1159460D02*
G01Y1166745D01*
X1137008Y1159460D02*
G01Y1166745D01*
X1137028Y1159460D02*
G01Y1166745D01*
X1137047Y1159460D02*
G01Y1166745D01*
X1137067Y1159460D02*
G01Y1166745D01*
X1137086Y1159460D02*
G01Y1166745D01*
X1137106Y1159460D02*
G01Y1166745D01*
X1137125Y1159460D02*
G01Y1166745D01*
X1137145Y1159460D02*
G01Y1166745D01*
X1137164Y1159460D02*
G01Y1166745D01*
X1137184Y1159460D02*
G01Y1166745D01*
X1137203Y1159460D02*
G01Y1166745D01*
X1137223Y1159460D02*
G01Y1166745D01*
X1137242Y1159460D02*
G01Y1166745D01*
X1137262Y1159460D02*
G01Y1166745D01*
X1137281Y1159460D02*
G01Y1166745D01*
X1137301Y1159460D02*
G01Y1166745D01*
X1137320Y1159460D02*
G01Y1166745D01*
X1137340Y1159460D02*
G01Y1166745D01*
X1137359Y1159460D02*
G01Y1166745D01*
X1137379Y1159460D02*
G01Y1166745D01*
X1137398Y1159460D02*
G01Y1166745D01*
X1137418Y1159460D02*
G01Y1166745D01*
X1137437Y1159460D02*
G01Y1166745D01*
X1137457Y1159460D02*
G01Y1166745D01*
X1137476Y1159460D02*
G01Y1166745D01*
X1137496Y1159460D02*
G01Y1166745D01*
X1137515Y1159460D02*
G01Y1166745D01*
X1137535Y1159460D02*
G01Y1166745D01*
X1137554Y1159460D02*
G01Y1166745D01*
X1137574Y1159460D02*
G01Y1166745D01*
X1137593Y1159460D02*
G01Y1166745D01*
X1137613Y1159460D02*
G01Y1166745D01*
X1137632Y1159460D02*
G01Y1166745D01*
X1137652Y1159460D02*
G01Y1166745D01*
X1137671Y1159460D02*
G01Y1166745D01*
X1137691Y1159460D02*
G01Y1166745D01*
X1137710Y1159460D02*
G01Y1166745D01*
X1137730Y1159460D02*
G01Y1166745D01*
X1137749Y1159460D02*
G01Y1166745D01*
X1137769Y1159460D02*
G01Y1166745D01*
X1137788Y1159460D02*
G01Y1166745D01*
X1137808Y1159460D02*
G01Y1166745D01*
X1137827Y1159460D02*
G01Y1166745D01*
X1137847Y1159460D02*
G01Y1166745D01*
X1137866Y1159460D02*
G01Y1166745D01*
X1137886Y1159460D02*
G01Y1166745D01*
X1137905Y1159460D02*
G01Y1166745D01*
X1137925Y1159460D02*
G01Y1166745D01*
X1137944Y1159460D02*
G01Y1166745D01*
X1137964Y1159460D02*
G01Y1166745D01*
X1137983Y1159460D02*
G01Y1166745D01*
X1138003Y1159460D02*
G01Y1166745D01*
X1138022Y1159460D02*
G01Y1166745D01*
X1138042Y1159460D02*
G01Y1166745D01*
X1138061Y1159460D02*
G01Y1166745D01*
X1138081Y1159460D02*
G01Y1166745D01*
X1138100Y1159460D02*
G01Y1166745D01*
X1138120Y1159460D02*
G01Y1166745D01*
X1138139Y1159460D02*
G01Y1166745D01*
X1138159Y1159460D02*
G01Y1166745D01*
X1138178Y1159460D02*
G01Y1166745D01*
X1138198Y1159460D02*
G01Y1166745D01*
X1138217Y1159460D02*
G01Y1166745D01*
X1138237Y1159460D02*
G01Y1166745D01*
X1138256Y1159460D02*
G01Y1166745D01*
X1138276Y1159460D02*
G01Y1166745D01*
X1138295Y1159460D02*
G01Y1166745D01*
X1138315Y1159460D02*
G01Y1166745D01*
X1138334Y1159460D02*
G01Y1166745D01*
X1138354Y1159460D02*
G01Y1166745D01*
X1138373Y1159460D02*
G01Y1166745D01*
X1138393Y1159460D02*
G01Y1166745D01*
X1138412Y1159460D02*
G01Y1166745D01*
X1138432Y1159460D02*
G01Y1166745D01*
X1138451Y1159460D02*
G01Y1166745D01*
X1138471Y1159460D02*
G01Y1166745D01*
X1138490Y1159460D02*
G01Y1166745D01*
X1138510Y1159460D02*
G01Y1166745D01*
X1138529Y1159460D02*
G01Y1166745D01*
X1138549Y1159460D02*
G01Y1166745D01*
X1138568Y1159460D02*
G01Y1166745D01*
X1138588Y1159460D02*
G01Y1166745D01*
X1138607Y1159460D02*
G01Y1166745D01*
X1138627Y1159460D02*
G01Y1166745D01*
X1138646Y1159460D02*
G01Y1166745D01*
X1138666Y1159460D02*
G01Y1166745D01*
X1138685Y1159460D02*
G01Y1166745D01*
X1138705Y1159460D02*
G01Y1166745D01*
X1138724Y1159460D02*
G01Y1166745D01*
X1138744Y1159460D02*
G01Y1166745D01*
X1138763Y1159460D02*
G01Y1166745D01*
X1138783Y1159460D02*
G01Y1166745D01*
X1138802Y1159460D02*
G01Y1166745D01*
X1138822Y1159460D02*
G01Y1166745D01*
X1138841Y1159460D02*
G01Y1166745D01*
X1138861Y1159460D02*
G01Y1166745D01*
X1138880Y1159460D02*
G01Y1166745D01*
X1138900Y1159460D02*
G01Y1166745D01*
X1138919Y1159460D02*
G01Y1166745D01*
X1138939Y1159460D02*
G01Y1166745D01*
X1138958Y1159460D02*
G01Y1166745D01*
X1138978Y1159460D02*
G01Y1166745D01*
X1138997Y1159460D02*
G01Y1166745D01*
X1139017Y1159460D02*
G01Y1166745D01*
X1139036Y1159460D02*
G01Y1166745D01*
X1139056Y1159460D02*
G01Y1166745D01*
X1139075Y1159460D02*
G01Y1166745D01*
X1139095Y1159460D02*
G01Y1166745D01*
X1139114Y1159460D02*
G01Y1166745D01*
X1139134Y1159460D02*
G01Y1166745D01*
X1139153Y1159460D02*
G01Y1166745D01*
X1139173Y1159460D02*
G01Y1166745D01*
X1139192Y1159460D02*
G01Y1166745D01*
X1139212Y1159460D02*
G01Y1166745D01*
X1139231Y1159460D02*
G01Y1166745D01*
X1139251Y1159460D02*
G01Y1166745D01*
X1139270Y1159460D02*
G01Y1166745D01*
X1139290Y1159460D02*
G01Y1166745D01*
X1139309Y1159460D02*
G01Y1166745D01*
X1139329Y1159460D02*
G01Y1166745D01*
X1139348Y1159460D02*
G01Y1166745D01*
X1139368Y1159460D02*
G01Y1166745D01*
X1139387Y1159460D02*
G01Y1166745D01*
X1139407Y1159460D02*
G01Y1166745D01*
X1139426Y1159460D02*
G01Y1166745D01*
X1139446Y1159460D02*
G01Y1166745D01*
X1139465Y1159460D02*
G01Y1166745D01*
X1139485Y1159460D02*
G01Y1166745D01*
X1139504Y1159460D02*
G01Y1166745D01*
X1139524Y1159460D02*
G01Y1166745D01*
X1139543Y1159460D02*
G01Y1166745D01*
X1139563Y1159460D02*
G01Y1166745D01*
X1139582Y1159460D02*
G01Y1166745D01*
X1139602Y1159460D02*
G01Y1166745D01*
X1139621Y1159460D02*
G01Y1166745D01*
X1139641Y1159460D02*
G01Y1166745D01*
X1139660Y1159460D02*
G01Y1166745D01*
X1139680Y1159460D02*
G01Y1166745D01*
X1139699Y1159460D02*
G01Y1166745D01*
X1139719Y1159460D02*
G01Y1166745D01*
X1139738Y1159460D02*
G01Y1166745D01*
X1139758Y1159460D02*
G01Y1166745D01*
X1139777Y1159460D02*
G01Y1166745D01*
X1139797Y1159460D02*
G01Y1166745D01*
X1139816Y1159460D02*
G01Y1166745D01*
X1139836Y1159460D02*
G01Y1166745D01*
X1139855Y1159460D02*
G01Y1166745D01*
X1139875Y1159460D02*
G01Y1166745D01*
X1139894Y1159460D02*
G01Y1166745D01*
X1139914Y1159460D02*
G01Y1166745D01*
X1139933Y1159460D02*
G01Y1166745D01*
X1139953Y1159460D02*
G01Y1166745D01*
X1139972Y1159460D02*
G01Y1166745D01*
X1139992Y1159460D02*
G01Y1166745D01*
X1140011Y1159460D02*
G01Y1166745D01*
X1140031Y1159460D02*
G01Y1166745D01*
X1140050Y1159460D02*
G01Y1166745D01*
X1140070Y1159460D02*
G01Y1166745D01*
X1140089Y1159460D02*
G01Y1166745D01*
X1140109Y1159460D02*
G01Y1166745D01*
X1140128Y1159460D02*
G01Y1166745D01*
X1140148Y1159460D02*
G01Y1166745D01*
X1140167Y1159460D02*
G01Y1166745D01*
X1140187Y1159460D02*
G01Y1166745D01*
X1140206Y1159460D02*
G01Y1166745D01*
X1140226Y1159460D02*
G01Y1166745D01*
X1140245Y1159460D02*
G01Y1166745D01*
X1140265Y1159460D02*
G01Y1166745D01*
X1140284Y1159460D02*
G01Y1166745D01*
X1140304Y1159460D02*
G01Y1166745D01*
X1140323Y1159460D02*
G01Y1166745D01*
X1140343Y1159460D02*
G01Y1166745D01*
X1140362Y1159460D02*
G01Y1166745D01*
X1140382Y1159460D02*
G01Y1166745D01*
X1140401Y1159460D02*
G01Y1166745D01*
X1140421Y1159460D02*
G01Y1166745D01*
X1140440Y1159460D02*
G01Y1166745D01*
X1140460Y1159460D02*
G01Y1166745D01*
X1140479Y1159460D02*
G01Y1166745D01*
X1140499Y1159460D02*
G01Y1166745D01*
X1140518Y1159460D02*
G01Y1166745D01*
X1140538Y1159460D02*
G01Y1166745D01*
X1140557Y1159460D02*
G01Y1166745D01*
X1140577Y1159460D02*
G01Y1166745D01*
X1140596Y1159460D02*
G01Y1166745D01*
X1140616Y1159460D02*
G01Y1166745D01*
X1140635Y1159460D02*
G01Y1166745D01*
X1140655Y1159460D02*
G01Y1166745D01*
X1140674Y1159460D02*
G01Y1166745D01*
X1140694Y1159460D02*
G01Y1166745D01*
X1140713Y1159460D02*
G01Y1166745D01*
X1140733Y1159460D02*
G01Y1166745D01*
X1140752Y1159460D02*
G01Y1166745D01*
X1140772Y1159460D02*
G01Y1166745D01*
X1140791Y1159460D02*
G01Y1166745D01*
X1140811Y1159460D02*
G01Y1166745D01*
X1140830Y1159460D02*
G01Y1166745D01*
X1140850Y1159460D02*
G01Y1166745D01*
X1140869Y1159460D02*
G01Y1166745D01*
X1140889Y1159460D02*
G01Y1166745D01*
X1140908Y1159460D02*
G01Y1166745D01*
X1140928Y1159460D02*
G01Y1166745D01*
X1140947Y1159460D02*
G01Y1166745D01*
X1140967Y1159460D02*
G01Y1166745D01*
X1140986Y1159460D02*
G01Y1166745D01*
X1141006Y1159460D02*
G01Y1166745D01*
X1141025Y1159460D02*
G01Y1166745D01*
X1141045Y1159460D02*
G01Y1166745D01*
X1141064Y1159460D02*
G01Y1166745D01*
X1141084Y1159460D02*
G01Y1166745D01*
X1141103Y1159460D02*
G01Y1166745D01*
X1141123Y1159460D02*
G01Y1166745D01*
X1141142Y1159460D02*
G01Y1166745D01*
X1141162Y1159460D02*
G01Y1166745D01*
X1141181Y1159460D02*
G01Y1166745D01*
X1141201Y1159460D02*
G01Y1166745D01*
X1141220Y1159460D02*
G01Y1166745D01*
X1141240Y1159460D02*
G01Y1166745D01*
X1141259Y1159460D02*
G01Y1166745D01*
X1141279Y1159460D02*
G01Y1166745D01*
X1141298Y1159460D02*
G01Y1166745D01*
X1141318Y1159460D02*
G01Y1166745D01*
X1141337Y1159460D02*
G01Y1166745D01*
X1141357Y1159460D02*
G01Y1166745D01*
X1141376Y1159460D02*
G01Y1166745D01*
X1141396Y1159460D02*
G01Y1166745D01*
X1141415Y1159460D02*
G01Y1166745D01*
X1141435Y1159460D02*
G01Y1166745D01*
X1141454Y1159460D02*
G01Y1166745D01*
X1141474Y1159460D02*
G01Y1166745D01*
X1141493Y1159460D02*
G01Y1166745D01*
X1141513Y1159460D02*
G01Y1166745D01*
X1141532Y1159460D02*
G01Y1166745D01*
X1141552Y1159460D02*
G01Y1166745D01*
X1141571Y1159460D02*
G01Y1166745D01*
X1141591Y1159460D02*
G01Y1166745D01*
X1141610Y1159460D02*
G01Y1166745D01*
X1141630Y1159460D02*
G01Y1166745D01*
X1141649Y1159460D02*
G01Y1166745D01*
X1141669Y1159460D02*
G01Y1166745D01*
X1141688Y1159460D02*
G01Y1166745D01*
X1141708Y1159460D02*
G01Y1166745D01*
X1141727Y1159460D02*
G01Y1166745D01*
X1141747Y1159460D02*
G01Y1166745D01*
X1141766Y1159460D02*
G01Y1166745D01*
X1141786Y1159460D02*
G01Y1166745D01*
X1141805Y1159460D02*
G01Y1166745D01*
X1141825Y1159460D02*
G01Y1166745D01*
X1141844Y1159460D02*
G01Y1166745D01*
X1141864Y1159460D02*
G01Y1166745D01*
X1141883Y1159460D02*
G01Y1166745D01*
X1141903Y1159460D02*
G01Y1166745D01*
X1141922Y1159460D02*
G01Y1166745D01*
X1141942Y1159460D02*
G01Y1166745D01*
X1141961Y1159460D02*
G01Y1166745D01*
X1141981Y1159460D02*
G01Y1166745D01*
X1142000Y1159460D02*
G01Y1166745D01*
X1142020Y1159460D02*
G01Y1166745D01*
X1142039Y1159460D02*
G01Y1166745D01*
X1142059Y1159460D02*
G01Y1166745D01*
X1142078Y1159460D02*
G01Y1166745D01*
X1142098Y1159460D02*
G01Y1166745D01*
X1142117Y1159460D02*
G01Y1166745D01*
X1142137Y1159460D02*
G01Y1166745D01*
X1142156Y1159460D02*
G01Y1166745D01*
X1142176Y1159460D02*
G01Y1166745D01*
X1142195Y1159460D02*
G01Y1166745D01*
X1142215Y1159460D02*
G01Y1166745D01*
X1151233Y1159460D02*
G01Y1166745D01*
Y1166745D02*
G01X1145877D01*
Y1166745D02*
G01Y1159460D01*
Y1159460D02*
G01X1151233D01*
X1145880D02*
G01Y1166745D01*
X1145900Y1159460D02*
G01Y1166745D01*
X1145919Y1159460D02*
G01Y1166745D01*
X1145939Y1159460D02*
G01Y1166745D01*
X1145958Y1159460D02*
G01Y1166745D01*
X1145978Y1159460D02*
G01Y1166745D01*
X1145997Y1159460D02*
G01Y1166745D01*
X1146017Y1159460D02*
G01Y1166745D01*
X1146036Y1159460D02*
G01Y1166745D01*
X1146056Y1159460D02*
G01Y1166745D01*
X1146075Y1159460D02*
G01Y1166745D01*
X1146095Y1159460D02*
G01Y1166745D01*
X1146114Y1159460D02*
G01Y1166745D01*
X1146134Y1159460D02*
G01Y1166745D01*
X1146153Y1159460D02*
G01Y1166745D01*
X1146173Y1159460D02*
G01Y1166745D01*
X1146192Y1159460D02*
G01Y1166745D01*
X1146212Y1159460D02*
G01Y1166745D01*
X1146231Y1159460D02*
G01Y1166745D01*
X1146251Y1159460D02*
G01Y1166745D01*
X1146270Y1159460D02*
G01Y1166745D01*
X1146290Y1159460D02*
G01Y1166745D01*
X1146309Y1159460D02*
G01Y1166745D01*
X1146329Y1159460D02*
G01Y1166745D01*
X1146348Y1159460D02*
G01Y1166745D01*
X1146368Y1159460D02*
G01Y1166745D01*
X1146387Y1159460D02*
G01Y1166745D01*
X1146407Y1159460D02*
G01Y1166745D01*
X1146426Y1159460D02*
G01Y1166745D01*
X1146446Y1159460D02*
G01Y1166745D01*
X1146465Y1159460D02*
G01Y1166745D01*
X1146485Y1159460D02*
G01Y1166745D01*
X1146504Y1159460D02*
G01Y1166745D01*
X1146524Y1159460D02*
G01Y1166745D01*
X1146543Y1159460D02*
G01Y1166745D01*
X1146563Y1159460D02*
G01Y1166745D01*
X1146582Y1159460D02*
G01Y1166745D01*
X1146602Y1159460D02*
G01Y1166745D01*
X1146621Y1159460D02*
G01Y1166745D01*
X1146641Y1159460D02*
G01Y1166745D01*
X1146660Y1159460D02*
G01Y1166745D01*
X1146680Y1159460D02*
G01Y1166745D01*
X1146699Y1159460D02*
G01Y1166745D01*
X1146719Y1159460D02*
G01Y1166745D01*
X1146738Y1159460D02*
G01Y1166745D01*
X1146758Y1159460D02*
G01Y1166745D01*
X1146777Y1159460D02*
G01Y1166745D01*
X1146797Y1159460D02*
G01Y1166745D01*
X1146816Y1159460D02*
G01Y1166745D01*
X1146836Y1159460D02*
G01Y1166745D01*
X1146855Y1159460D02*
G01Y1166745D01*
X1146875Y1159460D02*
G01Y1166745D01*
X1146894Y1159460D02*
G01Y1166745D01*
X1146914Y1159460D02*
G01Y1166745D01*
X1146933Y1159460D02*
G01Y1166745D01*
X1146953Y1159460D02*
G01Y1166745D01*
X1146972Y1159460D02*
G01Y1166745D01*
X1146992Y1159460D02*
G01Y1166745D01*
X1147011Y1159460D02*
G01Y1166745D01*
X1147031Y1159460D02*
G01Y1166745D01*
X1147050Y1159460D02*
G01Y1166745D01*
X1147070Y1159460D02*
G01Y1166745D01*
X1147089Y1159460D02*
G01Y1166745D01*
X1147109Y1159460D02*
G01Y1166745D01*
X1147128Y1159460D02*
G01Y1166745D01*
X1147148Y1159460D02*
G01Y1166745D01*
X1147167Y1159460D02*
G01Y1166745D01*
X1147187Y1159460D02*
G01Y1166745D01*
X1147206Y1159460D02*
G01Y1166745D01*
X1147226Y1159460D02*
G01Y1166745D01*
X1147245Y1159460D02*
G01Y1166745D01*
X1147265Y1159460D02*
G01Y1166745D01*
X1147284Y1159460D02*
G01Y1166745D01*
X1147304Y1159460D02*
G01Y1166745D01*
X1147323Y1159460D02*
G01Y1166745D01*
X1147343Y1159460D02*
G01Y1166745D01*
X1147362Y1159460D02*
G01Y1166745D01*
X1147382Y1159460D02*
G01Y1166745D01*
X1147401Y1159460D02*
G01Y1166745D01*
X1147421Y1159460D02*
G01Y1166745D01*
X1147440Y1159460D02*
G01Y1166745D01*
X1147460Y1159460D02*
G01Y1166745D01*
X1147479Y1159460D02*
G01Y1166745D01*
X1147499Y1159460D02*
G01Y1166745D01*
X1147518Y1159460D02*
G01Y1166745D01*
X1147538Y1159460D02*
G01Y1166745D01*
X1147557Y1159460D02*
G01Y1166745D01*
X1147577Y1159460D02*
G01Y1166745D01*
X1147596Y1159460D02*
G01Y1166745D01*
X1147616Y1159460D02*
G01Y1166745D01*
X1147635Y1159460D02*
G01Y1166745D01*
X1147655Y1159460D02*
G01Y1166745D01*
X1147674Y1159460D02*
G01Y1166745D01*
X1147694Y1159460D02*
G01Y1166745D01*
X1147713Y1159460D02*
G01Y1166745D01*
X1147733Y1159460D02*
G01Y1166745D01*
X1147752Y1159460D02*
G01Y1166745D01*
X1147772Y1159460D02*
G01Y1166745D01*
X1147791Y1159460D02*
G01Y1166745D01*
X1147811Y1159460D02*
G01Y1166745D01*
X1147830Y1159460D02*
G01Y1166745D01*
X1147850Y1159460D02*
G01Y1166745D01*
X1147869Y1159460D02*
G01Y1166745D01*
X1147889Y1159460D02*
G01Y1166745D01*
X1147908Y1159460D02*
G01Y1166745D01*
X1147928Y1159460D02*
G01Y1166745D01*
X1147947Y1159460D02*
G01Y1166745D01*
X1147967Y1159460D02*
G01Y1166745D01*
X1147986Y1159460D02*
G01Y1166745D01*
X1148006Y1159460D02*
G01Y1166745D01*
X1148025Y1159460D02*
G01Y1166745D01*
X1148045Y1159460D02*
G01Y1166745D01*
X1148064Y1159460D02*
G01Y1166745D01*
X1148084Y1159460D02*
G01Y1166745D01*
X1148103Y1159460D02*
G01Y1166745D01*
X1148123Y1159460D02*
G01Y1166745D01*
X1148142Y1159460D02*
G01Y1166745D01*
X1148162Y1159460D02*
G01Y1166745D01*
X1148181Y1159460D02*
G01Y1166745D01*
X1148201Y1159460D02*
G01Y1166745D01*
X1148220Y1159460D02*
G01Y1166745D01*
X1148240Y1159460D02*
G01Y1166745D01*
X1148259Y1159460D02*
G01Y1166745D01*
X1148279Y1159460D02*
G01Y1166745D01*
X1148298Y1159460D02*
G01Y1166745D01*
X1148318Y1159460D02*
G01Y1166745D01*
X1148337Y1159460D02*
G01Y1166745D01*
X1148357Y1159460D02*
G01Y1166745D01*
X1148376Y1159460D02*
G01Y1166745D01*
X1148396Y1159460D02*
G01Y1166745D01*
X1148415Y1159460D02*
G01Y1166745D01*
X1148435Y1159460D02*
G01Y1166745D01*
X1148454Y1159460D02*
G01Y1166745D01*
X1148474Y1159460D02*
G01Y1166745D01*
X1148493Y1159460D02*
G01Y1166745D01*
X1148513Y1159460D02*
G01Y1166745D01*
X1148532Y1159460D02*
G01Y1166745D01*
X1148552Y1159460D02*
G01Y1166745D01*
X1148571Y1159460D02*
G01Y1166745D01*
X1148591Y1159460D02*
G01Y1166745D01*
X1148610Y1159460D02*
G01Y1166745D01*
X1148630Y1159460D02*
G01Y1166745D01*
X1148649Y1159460D02*
G01Y1166745D01*
X1148669Y1159460D02*
G01Y1166745D01*
X1148688Y1159460D02*
G01Y1166745D01*
X1148708Y1159460D02*
G01Y1166745D01*
X1148727Y1159460D02*
G01Y1166745D01*
X1148747Y1159460D02*
G01Y1166745D01*
X1148766Y1159460D02*
G01Y1166745D01*
X1148786Y1159460D02*
G01Y1166745D01*
X1148805Y1159460D02*
G01Y1166745D01*
X1148825Y1159460D02*
G01Y1166745D01*
X1148844Y1159460D02*
G01Y1166745D01*
X1148864Y1159460D02*
G01Y1166745D01*
X1148883Y1159460D02*
G01Y1166745D01*
X1148903Y1159460D02*
G01Y1166745D01*
X1148922Y1159460D02*
G01Y1166745D01*
X1148942Y1159460D02*
G01Y1166745D01*
X1148961Y1159460D02*
G01Y1166745D01*
X1148981Y1159460D02*
G01Y1166745D01*
X1149000Y1159460D02*
G01Y1166745D01*
X1149020Y1159460D02*
G01Y1166745D01*
X1149039Y1159460D02*
G01Y1166745D01*
X1149059Y1159460D02*
G01Y1166745D01*
X1149078Y1159460D02*
G01Y1166745D01*
X1149098Y1159460D02*
G01Y1166745D01*
X1149117Y1159460D02*
G01Y1166745D01*
X1149137Y1159460D02*
G01Y1166745D01*
X1149156Y1159460D02*
G01Y1166745D01*
X1149176Y1159460D02*
G01Y1166745D01*
X1149195Y1159460D02*
G01Y1166745D01*
X1149215Y1159460D02*
G01Y1166745D01*
X1149234Y1159460D02*
G01Y1166745D01*
X1149254Y1159460D02*
G01Y1166745D01*
X1149273Y1159460D02*
G01Y1166745D01*
X1149293Y1159460D02*
G01Y1166745D01*
X1149312Y1159460D02*
G01Y1166745D01*
X1149332Y1159460D02*
G01Y1166745D01*
X1149351Y1159460D02*
G01Y1166745D01*
X1149371Y1159460D02*
G01Y1166745D01*
X1149390Y1159460D02*
G01Y1166745D01*
X1149410Y1159460D02*
G01Y1166745D01*
X1149429Y1159460D02*
G01Y1166745D01*
X1149449Y1159460D02*
G01Y1166745D01*
X1149468Y1159460D02*
G01Y1166745D01*
X1149488Y1159460D02*
G01Y1166745D01*
X1149507Y1159460D02*
G01Y1166745D01*
X1149527Y1159460D02*
G01Y1166745D01*
X1149546Y1159460D02*
G01Y1166745D01*
X1149566Y1159460D02*
G01Y1166745D01*
X1149585Y1159460D02*
G01Y1166745D01*
X1149605Y1159460D02*
G01Y1166745D01*
X1149624Y1159460D02*
G01Y1166745D01*
X1149644Y1159460D02*
G01Y1166745D01*
X1149663Y1159460D02*
G01Y1166745D01*
X1149683Y1159460D02*
G01Y1166745D01*
X1149702Y1159460D02*
G01Y1166745D01*
X1149722Y1159460D02*
G01Y1166745D01*
X1149741Y1159460D02*
G01Y1166745D01*
X1149761Y1159460D02*
G01Y1166745D01*
X1149780Y1159460D02*
G01Y1166745D01*
X1149800Y1159460D02*
G01Y1166745D01*
X1149819Y1159460D02*
G01Y1166745D01*
X1149839Y1159460D02*
G01Y1166745D01*
X1149858Y1159460D02*
G01Y1166745D01*
X1149877Y1159460D02*
G01Y1166745D01*
X1149897Y1159460D02*
G01Y1166745D01*
X1149916Y1159460D02*
G01Y1166745D01*
X1149936Y1159460D02*
G01Y1166745D01*
X1149955Y1159460D02*
G01Y1166745D01*
X1149975Y1159460D02*
G01Y1166745D01*
X1149994Y1159460D02*
G01Y1166745D01*
X1150014Y1159460D02*
G01Y1166745D01*
X1150033Y1159460D02*
G01Y1166745D01*
X1150053Y1159460D02*
G01Y1166745D01*
X1150072Y1159460D02*
G01Y1166745D01*
X1150092Y1159460D02*
G01Y1166745D01*
X1150111Y1159460D02*
G01Y1166745D01*
X1150131Y1159460D02*
G01Y1166745D01*
X1150150Y1159460D02*
G01Y1166745D01*
X1150170Y1159460D02*
G01Y1166745D01*
X1150189Y1159460D02*
G01Y1166745D01*
X1150209Y1159460D02*
G01Y1166745D01*
X1150228Y1159460D02*
G01Y1166745D01*
X1150248Y1159460D02*
G01Y1166745D01*
X1150267Y1159460D02*
G01Y1166745D01*
X1150287Y1159460D02*
G01Y1166745D01*
X1150306Y1159460D02*
G01Y1166745D01*
X1150326Y1159460D02*
G01Y1166745D01*
X1150345Y1159460D02*
G01Y1166745D01*
X1150365Y1159460D02*
G01Y1166745D01*
X1150384Y1159460D02*
G01Y1166745D01*
X1150404Y1159460D02*
G01Y1166745D01*
X1150423Y1159460D02*
G01Y1166745D01*
X1150443Y1159460D02*
G01Y1166745D01*
X1150462Y1159460D02*
G01Y1166745D01*
X1150482Y1159460D02*
G01Y1166745D01*
X1150501Y1159460D02*
G01Y1166745D01*
X1150521Y1159460D02*
G01Y1166745D01*
X1150540Y1159460D02*
G01Y1166745D01*
X1150560Y1159460D02*
G01Y1166745D01*
X1150579Y1159460D02*
G01Y1166745D01*
X1150599Y1159460D02*
G01Y1166745D01*
X1150618Y1159460D02*
G01Y1166745D01*
X1150638Y1159460D02*
G01Y1166745D01*
X1150657Y1159460D02*
G01Y1166745D01*
X1150677Y1159460D02*
G01Y1166745D01*
X1150696Y1159460D02*
G01Y1166745D01*
X1150716Y1159460D02*
G01Y1166745D01*
X1150735Y1159460D02*
G01Y1166745D01*
X1150755Y1159460D02*
G01Y1166745D01*
X1150774Y1159460D02*
G01Y1166745D01*
X1150794Y1159460D02*
G01Y1166745D01*
X1150813Y1159460D02*
G01Y1166745D01*
X1150833Y1159460D02*
G01Y1166745D01*
X1150852Y1159460D02*
G01Y1166745D01*
X1150872Y1159460D02*
G01Y1166745D01*
X1150891Y1159460D02*
G01Y1166745D01*
X1150911Y1159460D02*
G01Y1166745D01*
X1150930Y1159460D02*
G01Y1166745D01*
X1150950Y1159460D02*
G01Y1166745D01*
X1150969Y1159460D02*
G01Y1166745D01*
X1150989Y1159460D02*
G01Y1166745D01*
X1151008Y1159460D02*
G01Y1166745D01*
X1151028Y1159460D02*
G01Y1166745D01*
X1151047Y1159460D02*
G01Y1166745D01*
X1151067Y1159460D02*
G01Y1166745D01*
X1151086Y1159460D02*
G01Y1166745D01*
X1151106Y1159460D02*
G01Y1166745D01*
X1151125Y1159460D02*
G01Y1166745D01*
X1151145Y1159460D02*
G01Y1166745D01*
X1151164Y1159460D02*
G01Y1166745D01*
X1151184Y1159460D02*
G01Y1166745D01*
X1151203Y1159460D02*
G01Y1166745D01*
X1151223Y1159460D02*
G01Y1166745D01*
X1151233Y1147255D02*
G01Y1154540D01*
Y1154540D02*
G01X1145877D01*
Y1154540D02*
G01Y1147255D01*
Y1147255D02*
G01X1151233D01*
X1145880D02*
G01Y1154540D01*
X1145900Y1147255D02*
G01Y1154540D01*
X1145919Y1147255D02*
G01Y1154540D01*
X1145939Y1147255D02*
G01Y1154540D01*
X1145958Y1147255D02*
G01Y1154540D01*
X1145978Y1147255D02*
G01Y1154540D01*
X1145997Y1147255D02*
G01Y1154540D01*
X1146017Y1147255D02*
G01Y1154540D01*
X1146036Y1147255D02*
G01Y1154540D01*
X1146056Y1147255D02*
G01Y1154540D01*
X1146075Y1147255D02*
G01Y1154540D01*
X1146095Y1147255D02*
G01Y1154540D01*
X1146114Y1147255D02*
G01Y1154540D01*
X1146134Y1147255D02*
G01Y1154540D01*
X1146153Y1147255D02*
G01Y1154540D01*
X1146173Y1147255D02*
G01Y1154540D01*
X1146192Y1147255D02*
G01Y1154540D01*
X1146212Y1147255D02*
G01Y1154540D01*
X1146231Y1147255D02*
G01Y1154540D01*
X1146251Y1147255D02*
G01Y1154540D01*
X1146270Y1147255D02*
G01Y1154540D01*
X1146290Y1147255D02*
G01Y1154540D01*
X1146309Y1147255D02*
G01Y1154540D01*
X1146329Y1147255D02*
G01Y1154540D01*
X1146348Y1147255D02*
G01Y1154540D01*
X1146368Y1147255D02*
G01Y1154540D01*
X1146387Y1147255D02*
G01Y1154540D01*
X1146407Y1147255D02*
G01Y1154540D01*
X1146426Y1147255D02*
G01Y1154540D01*
X1146446Y1147255D02*
G01Y1154540D01*
X1146465Y1147255D02*
G01Y1154540D01*
X1146485Y1147255D02*
G01Y1154540D01*
X1146504Y1147255D02*
G01Y1154540D01*
X1146524Y1147255D02*
G01Y1154540D01*
X1146543Y1147255D02*
G01Y1154540D01*
X1146563Y1147255D02*
G01Y1154540D01*
X1146582Y1147255D02*
G01Y1154540D01*
X1146602Y1147255D02*
G01Y1154540D01*
X1146621Y1147255D02*
G01Y1154540D01*
X1146641Y1147255D02*
G01Y1154540D01*
X1146660Y1147255D02*
G01Y1154540D01*
X1146680Y1147255D02*
G01Y1154540D01*
X1146699Y1147255D02*
G01Y1154540D01*
X1146719Y1147255D02*
G01Y1154540D01*
X1146738Y1147255D02*
G01Y1154540D01*
X1146758Y1147255D02*
G01Y1154540D01*
X1146777Y1147255D02*
G01Y1154540D01*
X1146797Y1147255D02*
G01Y1154540D01*
X1146816Y1147255D02*
G01Y1154540D01*
X1146836Y1147255D02*
G01Y1154540D01*
X1146855Y1147255D02*
G01Y1154540D01*
X1146875Y1147255D02*
G01Y1154540D01*
X1146894Y1147255D02*
G01Y1154540D01*
X1146914Y1147255D02*
G01Y1154540D01*
X1146933Y1147255D02*
G01Y1154540D01*
X1146953Y1147255D02*
G01Y1154540D01*
X1146972Y1147255D02*
G01Y1154540D01*
X1146992Y1147255D02*
G01Y1154540D01*
X1147011Y1147255D02*
G01Y1154540D01*
X1147031Y1147255D02*
G01Y1154540D01*
X1147050Y1147255D02*
G01Y1154540D01*
X1147070Y1147255D02*
G01Y1154540D01*
X1147089Y1147255D02*
G01Y1154540D01*
X1147109Y1147255D02*
G01Y1154540D01*
X1147128Y1147255D02*
G01Y1154540D01*
X1147148Y1147255D02*
G01Y1154540D01*
X1147167Y1147255D02*
G01Y1154540D01*
X1147187Y1147255D02*
G01Y1154540D01*
X1147206Y1147255D02*
G01Y1154540D01*
X1147226Y1147255D02*
G01Y1154540D01*
X1147245Y1147255D02*
G01Y1154540D01*
X1147265Y1147255D02*
G01Y1154540D01*
X1147284Y1147255D02*
G01Y1154540D01*
X1147304Y1147255D02*
G01Y1154540D01*
X1147323Y1147255D02*
G01Y1154540D01*
X1147343Y1147255D02*
G01Y1154540D01*
X1147362Y1147255D02*
G01Y1154540D01*
X1147382Y1147255D02*
G01Y1154540D01*
X1147401Y1147255D02*
G01Y1154540D01*
X1147421Y1147255D02*
G01Y1154540D01*
X1147440Y1147255D02*
G01Y1154540D01*
X1147460Y1147255D02*
G01Y1154540D01*
X1147479Y1147255D02*
G01Y1154540D01*
X1147499Y1147255D02*
G01Y1154540D01*
X1147518Y1147255D02*
G01Y1154540D01*
X1147538Y1147255D02*
G01Y1154540D01*
X1147557Y1147255D02*
G01Y1154540D01*
X1147577Y1147255D02*
G01Y1154540D01*
X1147596Y1147255D02*
G01Y1154540D01*
X1147616Y1147255D02*
G01Y1154540D01*
X1147635Y1147255D02*
G01Y1154540D01*
X1147655Y1147255D02*
G01Y1154540D01*
X1147674Y1147255D02*
G01Y1154540D01*
X1147694Y1147255D02*
G01Y1154540D01*
X1147713Y1147255D02*
G01Y1154540D01*
X1147733Y1147255D02*
G01Y1154540D01*
X1147752Y1147255D02*
G01Y1154540D01*
X1147772Y1147255D02*
G01Y1154540D01*
X1147791Y1147255D02*
G01Y1154540D01*
X1147811Y1147255D02*
G01Y1154540D01*
X1147830Y1147255D02*
G01Y1154540D01*
X1147850Y1147255D02*
G01Y1154540D01*
X1147869Y1147255D02*
G01Y1154540D01*
X1147889Y1147255D02*
G01Y1154540D01*
X1147908Y1147255D02*
G01Y1154540D01*
X1147928Y1147255D02*
G01Y1154540D01*
X1147947Y1147255D02*
G01Y1154540D01*
X1147967Y1147255D02*
G01Y1154540D01*
X1147986Y1147255D02*
G01Y1154540D01*
X1148006Y1147255D02*
G01Y1154540D01*
X1148025Y1147255D02*
G01Y1154540D01*
X1148045Y1147255D02*
G01Y1154540D01*
X1148064Y1147255D02*
G01Y1154540D01*
X1148084Y1147255D02*
G01Y1154540D01*
X1148103Y1147255D02*
G01Y1154540D01*
X1148123Y1147255D02*
G01Y1154540D01*
X1148142Y1147255D02*
G01Y1154540D01*
X1148162Y1147255D02*
G01Y1154540D01*
X1148181Y1147255D02*
G01Y1154540D01*
X1148201Y1147255D02*
G01Y1154540D01*
X1148220Y1147255D02*
G01Y1154540D01*
X1148240Y1147255D02*
G01Y1154540D01*
X1148259Y1147255D02*
G01Y1154540D01*
X1148279Y1147255D02*
G01Y1154540D01*
X1148298Y1147255D02*
G01Y1154540D01*
X1148318Y1147255D02*
G01Y1154540D01*
X1148337Y1147255D02*
G01Y1154540D01*
X1148357Y1147255D02*
G01Y1154540D01*
X1148376Y1147255D02*
G01Y1154540D01*
X1148396Y1147255D02*
G01Y1154540D01*
X1148415Y1147255D02*
G01Y1154540D01*
X1148435Y1147255D02*
G01Y1154540D01*
X1148454Y1147255D02*
G01Y1154540D01*
X1148474Y1147255D02*
G01Y1154540D01*
X1148493Y1147255D02*
G01Y1154540D01*
X1148513Y1147255D02*
G01Y1154540D01*
X1148532Y1147255D02*
G01Y1154540D01*
X1148552Y1147255D02*
G01Y1154540D01*
X1148571Y1147255D02*
G01Y1154540D01*
X1148591Y1147255D02*
G01Y1154540D01*
X1148610Y1147255D02*
G01Y1154540D01*
X1148630Y1147255D02*
G01Y1154540D01*
X1148649Y1147255D02*
G01Y1154540D01*
X1148669Y1147255D02*
G01Y1154540D01*
X1148688Y1147255D02*
G01Y1154540D01*
X1148708Y1147255D02*
G01Y1154540D01*
X1148727Y1147255D02*
G01Y1154540D01*
X1148747Y1147255D02*
G01Y1154540D01*
X1148766Y1147255D02*
G01Y1154540D01*
X1148786Y1147255D02*
G01Y1154540D01*
X1148805Y1147255D02*
G01Y1154540D01*
X1148825Y1147255D02*
G01Y1154540D01*
X1148844Y1147255D02*
G01Y1154540D01*
X1148864Y1147255D02*
G01Y1154540D01*
X1148883Y1147255D02*
G01Y1154540D01*
X1148903Y1147255D02*
G01Y1154540D01*
X1148922Y1147255D02*
G01Y1154540D01*
X1148942Y1147255D02*
G01Y1154540D01*
X1148961Y1147255D02*
G01Y1154540D01*
X1148981Y1147255D02*
G01Y1154540D01*
X1149000Y1147255D02*
G01Y1154540D01*
X1149020Y1147255D02*
G01Y1154540D01*
X1149039Y1147255D02*
G01Y1154540D01*
X1149059Y1147255D02*
G01Y1154540D01*
X1149078Y1147255D02*
G01Y1154540D01*
X1149098Y1147255D02*
G01Y1154540D01*
X1149117Y1147255D02*
G01Y1154540D01*
X1149137Y1147255D02*
G01Y1154540D01*
X1149156Y1147255D02*
G01Y1154540D01*
X1149176Y1147255D02*
G01Y1154540D01*
X1149195Y1147255D02*
G01Y1154540D01*
X1149215Y1147255D02*
G01Y1154540D01*
X1149234Y1147255D02*
G01Y1154540D01*
X1149254Y1147255D02*
G01Y1154540D01*
X1149273Y1147255D02*
G01Y1154540D01*
X1149293Y1147255D02*
G01Y1154540D01*
X1149312Y1147255D02*
G01Y1154540D01*
X1149332Y1147255D02*
G01Y1154540D01*
X1149351Y1147255D02*
G01Y1154540D01*
X1149371Y1147255D02*
G01Y1154540D01*
X1149390Y1147255D02*
G01Y1154540D01*
X1149410Y1147255D02*
G01Y1154540D01*
X1149429Y1147255D02*
G01Y1154540D01*
X1149449Y1147255D02*
G01Y1154540D01*
X1149468Y1147255D02*
G01Y1154540D01*
X1149488Y1147255D02*
G01Y1154540D01*
X1149507Y1147255D02*
G01Y1154540D01*
X1149527Y1147255D02*
G01Y1154540D01*
X1149546Y1147255D02*
G01Y1154540D01*
X1149566Y1147255D02*
G01Y1154540D01*
X1149585Y1147255D02*
G01Y1154540D01*
X1149605Y1147255D02*
G01Y1154540D01*
X1149624Y1147255D02*
G01Y1154540D01*
X1149644Y1147255D02*
G01Y1154540D01*
X1149663Y1147255D02*
G01Y1154540D01*
X1149683Y1147255D02*
G01Y1154540D01*
X1149702Y1147255D02*
G01Y1154540D01*
X1149722Y1147255D02*
G01Y1154540D01*
X1149741Y1147255D02*
G01Y1154540D01*
X1149761Y1147255D02*
G01Y1154540D01*
X1149780Y1147255D02*
G01Y1154540D01*
X1149800Y1147255D02*
G01Y1154540D01*
X1149819Y1147255D02*
G01Y1154540D01*
X1149839Y1147255D02*
G01Y1154540D01*
X1149858Y1147255D02*
G01Y1154540D01*
X1149877Y1147255D02*
G01Y1154540D01*
X1149897Y1147255D02*
G01Y1154540D01*
X1149916Y1147255D02*
G01Y1154540D01*
X1149936Y1147255D02*
G01Y1154540D01*
X1149955Y1147255D02*
G01Y1154540D01*
X1149975Y1147255D02*
G01Y1154540D01*
X1149994Y1147255D02*
G01Y1154540D01*
X1150014Y1147255D02*
G01Y1154540D01*
X1150033Y1147255D02*
G01Y1154540D01*
X1150053Y1147255D02*
G01Y1154540D01*
X1150072Y1147255D02*
G01Y1154540D01*
X1150092Y1147255D02*
G01Y1154540D01*
X1150111Y1147255D02*
G01Y1154540D01*
X1150131Y1147255D02*
G01Y1154540D01*
X1150150Y1147255D02*
G01Y1154540D01*
X1150170Y1147255D02*
G01Y1154540D01*
X1150189Y1147255D02*
G01Y1154540D01*
X1150209Y1147255D02*
G01Y1154540D01*
X1150228Y1147255D02*
G01Y1154540D01*
X1150248Y1147255D02*
G01Y1154540D01*
X1150267Y1147255D02*
G01Y1154540D01*
X1150287Y1147255D02*
G01Y1154540D01*
X1150306Y1147255D02*
G01Y1154540D01*
X1150326Y1147255D02*
G01Y1154540D01*
X1150345Y1147255D02*
G01Y1154540D01*
X1150365Y1147255D02*
G01Y1154540D01*
X1150384Y1147255D02*
G01Y1154540D01*
X1150404Y1147255D02*
G01Y1154540D01*
X1150423Y1147255D02*
G01Y1154540D01*
X1150443Y1147255D02*
G01Y1154540D01*
X1150462Y1147255D02*
G01Y1154540D01*
X1150482Y1147255D02*
G01Y1154540D01*
X1150501Y1147255D02*
G01Y1154540D01*
X1150521Y1147255D02*
G01Y1154540D01*
X1150540Y1147255D02*
G01Y1154540D01*
X1150560Y1147255D02*
G01Y1154540D01*
X1150579Y1147255D02*
G01Y1154540D01*
X1150599Y1147255D02*
G01Y1154540D01*
X1150618Y1147255D02*
G01Y1154540D01*
X1150638Y1147255D02*
G01Y1154540D01*
X1150657Y1147255D02*
G01Y1154540D01*
X1150677Y1147255D02*
G01Y1154540D01*
X1150696Y1147255D02*
G01Y1154540D01*
X1150716Y1147255D02*
G01Y1154540D01*
X1150735Y1147255D02*
G01Y1154540D01*
X1150755Y1147255D02*
G01Y1154540D01*
X1150774Y1147255D02*
G01Y1154540D01*
X1150794Y1147255D02*
G01Y1154540D01*
X1150813Y1147255D02*
G01Y1154540D01*
X1150833Y1147255D02*
G01Y1154540D01*
X1150852Y1147255D02*
G01Y1154540D01*
X1150872Y1147255D02*
G01Y1154540D01*
X1150891Y1147255D02*
G01Y1154540D01*
X1150911Y1147255D02*
G01Y1154540D01*
X1150930Y1147255D02*
G01Y1154540D01*
X1150950Y1147255D02*
G01Y1154540D01*
X1150969Y1147255D02*
G01Y1154540D01*
X1150989Y1147255D02*
G01Y1154540D01*
X1151008Y1147255D02*
G01Y1154540D01*
X1151028Y1147255D02*
G01Y1154540D01*
X1151047Y1147255D02*
G01Y1154540D01*
X1151067Y1147255D02*
G01Y1154540D01*
X1151086Y1147255D02*
G01Y1154540D01*
X1151106Y1147255D02*
G01Y1154540D01*
X1151125Y1147255D02*
G01Y1154540D01*
X1151145Y1147255D02*
G01Y1154540D01*
X1151164Y1147255D02*
G01Y1154540D01*
X1151184Y1147255D02*
G01Y1154540D01*
X1151203Y1147255D02*
G01Y1154540D01*
X1151223Y1147255D02*
G01Y1154540D01*
G54D20*
X1059606Y1491043D02*
G01Y1483957D01*
X1010394Y1491043D02*
G01Y1483957D01*
X1059606Y1413543D02*
G01Y1406457D01*
X1010394Y1413543D02*
G01Y1406457D01*
M02*
