G04*
G04 #@! TF.GenerationSoftware,Altium Limited,DefaultClient, ()*
G04*
G04 Layer_Color=2752767*
%FSLAX44Y44*%
%MOMM*%
G71*
G04*
G04 #@! TF.SameCoordinates,C0C1BE24-F48D-404B-966D-32A33A0CC593*
G04*
G04*
G04 #@! TF.FilePolarity,Positive*
G04*
G01*
G75*
%ADD15C,0.2540*%
%ADD18C,0.1524*%
%ADD19C,0.1270*%
%ADD109C,0.0508*%
%ADD112C,0.0677*%
D15*
X584870Y-492414D02*
X589950Y-507654D01*
X595030Y-492414D01*
X589950Y25746D02*
X595030Y10506D01*
X584870D02*
X589950Y25746D01*
Y-507654D02*
Y-297326D01*
Y-192710D02*
Y25746D01*
X536864Y-507654D02*
X592490D01*
X538388Y25746D02*
X592490D01*
X-21682Y104738D02*
X-6442Y109817D01*
X-21682Y104738D02*
X-6442Y99657D01*
X522050D02*
X537290Y104738D01*
X522050Y109817D02*
X537290Y104738D01*
X-21682D02*
X200162D01*
X307318D02*
X537290D01*
X-21682Y28286D02*
Y107277D01*
X537290Y29678D02*
Y107277D01*
X-75946Y-465074D02*
X-70866Y-480314D01*
X-65786Y-465074D01*
X-70866Y-1270D02*
X-65786Y-16510D01*
X-75946D02*
X-70866Y-1270D01*
Y-480314D02*
Y-297164D01*
Y-192548D02*
Y-1270D01*
X-73406Y-480314D02*
X-23620D01*
X-73406Y-1270D02*
X-24382D01*
X-127254Y-492506D02*
X-122174Y-507746D01*
X-117094Y-492506D01*
X-122174Y25654D02*
X-117094Y10414D01*
X-127254D02*
X-122174Y25654D01*
Y-507746D02*
Y-297418D01*
Y-192802D02*
Y25654D01*
X-124714Y-507746D02*
X-25400D01*
X-124714Y25654D02*
X-27178D01*
D18*
X599091Y-283106D02*
Y-293262D01*
X588935Y-283106D01*
X586396D01*
X583857Y-285645D01*
Y-290723D01*
X586396Y-293262D01*
X599091Y-278027D02*
Y-272949D01*
Y-275488D01*
X583857D01*
X586396Y-278027D01*
Y-265331D02*
X583857Y-262792D01*
Y-257714D01*
X586396Y-255175D01*
X596552D01*
X599091Y-257714D01*
Y-262792D01*
X596552Y-265331D01*
X586396D01*
Y-250096D02*
X583857Y-247557D01*
Y-242479D01*
X586396Y-239940D01*
X596552D01*
X599091Y-242479D01*
Y-247557D01*
X596552Y-250096D01*
X586396D01*
X599091Y-234861D02*
X596552D01*
Y-232322D01*
X599091D01*
Y-234861D01*
X586396Y-222165D02*
X583857Y-219626D01*
Y-214548D01*
X586396Y-212009D01*
X596552D01*
X599091Y-214548D01*
Y-219626D01*
X596552Y-222165D01*
X586396D01*
Y-206930D02*
X583857Y-204391D01*
Y-199313D01*
X586396Y-196774D01*
X596552D01*
X599091Y-199313D01*
Y-204391D01*
X596552Y-206930D01*
X586396D01*
X214382Y95596D02*
X204226D01*
X214382Y105753D01*
Y108292D01*
X211843Y110831D01*
X206765D01*
X204226Y108292D01*
X229618Y95596D02*
X219461D01*
X229618Y105753D01*
Y108292D01*
X227078Y110831D01*
X222000D01*
X219461Y108292D01*
X234696D02*
X237235Y110831D01*
X242313D01*
X244853Y108292D01*
Y98135D01*
X242313Y95596D01*
X237235D01*
X234696Y98135D01*
Y108292D01*
X249931D02*
X252470Y110831D01*
X257549D01*
X260088Y108292D01*
Y98135D01*
X257549Y95596D01*
X252470D01*
X249931Y98135D01*
Y108292D01*
X265166Y95596D02*
Y98135D01*
X267705D01*
Y95596D01*
X265166D01*
X288019Y110831D02*
X282940Y108292D01*
X277862Y103214D01*
Y98135D01*
X280401Y95596D01*
X285480D01*
X288019Y98135D01*
Y100674D01*
X285480Y103214D01*
X277862D01*
X293097Y108292D02*
X295636Y110831D01*
X300715D01*
X303254Y108292D01*
Y105753D01*
X300715Y103214D01*
X303254Y100674D01*
Y98135D01*
X300715Y95596D01*
X295636D01*
X293097Y98135D01*
Y100674D01*
X295636Y103214D01*
X293097Y105753D01*
Y108292D01*
X295636Y103214D02*
X300715D01*
X-61725Y-293100D02*
Y-288022D01*
Y-290561D01*
X-76960D01*
X-74420Y-293100D01*
Y-280404D02*
X-76960Y-277865D01*
Y-272787D01*
X-74420Y-270248D01*
X-71881D01*
X-69342Y-272787D01*
X-66803Y-270248D01*
X-64264D01*
X-61725Y-272787D01*
Y-277865D01*
X-64264Y-280404D01*
X-66803D01*
X-69342Y-277865D01*
X-71881Y-280404D01*
X-74420D01*
X-69342Y-277865D02*
Y-272787D01*
X-74420Y-265169D02*
X-76960Y-262630D01*
Y-257552D01*
X-74420Y-255013D01*
X-71881D01*
X-69342Y-257552D01*
X-66803Y-255013D01*
X-64264D01*
X-61725Y-257552D01*
Y-262630D01*
X-64264Y-265169D01*
X-66803D01*
X-69342Y-262630D01*
X-71881Y-265169D01*
X-74420D01*
X-69342Y-262630D02*
Y-257552D01*
X-76960Y-239778D02*
X-74420Y-244856D01*
X-69342Y-249934D01*
X-64264D01*
X-61725Y-247395D01*
Y-242317D01*
X-64264Y-239778D01*
X-66803D01*
X-69342Y-242317D01*
Y-249934D01*
X-61725Y-234699D02*
X-64264D01*
Y-232160D01*
X-61725D01*
Y-234699D01*
X-74420Y-222003D02*
X-76960Y-219464D01*
Y-214386D01*
X-74420Y-211847D01*
X-64264D01*
X-61725Y-214386D01*
Y-219464D01*
X-64264Y-222003D01*
X-74420D01*
Y-206768D02*
X-76960Y-204229D01*
Y-199151D01*
X-74420Y-196612D01*
X-64264D01*
X-61725Y-199151D01*
Y-204229D01*
X-64264Y-206768D01*
X-74420D01*
X-113033Y-283198D02*
Y-293354D01*
X-123189Y-283198D01*
X-125728D01*
X-128267Y-285737D01*
Y-290815D01*
X-125728Y-293354D01*
X-113033Y-278119D02*
Y-273041D01*
Y-275580D01*
X-128267D01*
X-125728Y-278119D01*
Y-265423D02*
X-128267Y-262884D01*
Y-257806D01*
X-125728Y-255267D01*
X-115572D01*
X-113033Y-257806D01*
Y-262884D01*
X-115572Y-265423D01*
X-125728D01*
Y-250188D02*
X-128267Y-247649D01*
Y-242571D01*
X-125728Y-240032D01*
X-115572D01*
X-113033Y-242571D01*
Y-247649D01*
X-115572Y-250188D01*
X-125728D01*
X-113033Y-234953D02*
X-115572D01*
Y-232414D01*
X-113033D01*
Y-234953D01*
X-125728Y-222257D02*
X-128267Y-219718D01*
Y-214640D01*
X-125728Y-212101D01*
X-115572D01*
X-113033Y-214640D01*
Y-219718D01*
X-115572Y-222257D01*
X-125728D01*
Y-207022D02*
X-128267Y-204483D01*
Y-199405D01*
X-125728Y-196866D01*
X-115572D01*
X-113033Y-199405D01*
Y-204483D01*
X-115572Y-207022D01*
X-125728D01*
D19*
X14797Y-480989D02*
G03*
X14797Y-480989I-15999J0D01*
G01*
X15051Y341D02*
G03*
X15051Y341I-15999J0D01*
G01*
X435929Y-65699D02*
G03*
X435929Y-65699I-15999J0D01*
G01*
Y-412409D02*
G03*
X435929Y-412409I-15999J0D01*
G01*
X-22790Y-506897D02*
Y26503D01*
X537290Y-125897D02*
Y26503D01*
Y-506897D02*
Y-125897D01*
X-21680Y26000D02*
X538400D01*
X-22790Y-506897D02*
X537290D01*
D109*
X10574Y-256037D02*
X11590Y-254005D01*
X10574Y-251973D01*
X12606Y-252989D01*
X14638Y-251973D01*
X13622Y-254005D01*
X14638Y-256037D01*
X12606Y-255021D01*
X10574Y-256037D01*
X267034Y87D02*
Y-929D01*
X269066D01*
Y87D01*
X270082D01*
Y2119D01*
X269066D01*
Y3135D01*
X267034D01*
Y2119D01*
X266018D01*
Y87D01*
X267034D01*
X241634D02*
Y-929D01*
X243666D01*
Y87D01*
X244682D01*
Y2119D01*
X243666D01*
Y3135D01*
X241634D01*
Y2119D01*
X240618D01*
Y87D01*
X241634D01*
X216234D02*
Y-929D01*
X218266D01*
Y87D01*
X219282D01*
Y2119D01*
X218266D01*
Y3135D01*
X216234D01*
Y2119D01*
X215218D01*
Y87D01*
X216234D01*
X190834D02*
Y-929D01*
X192866D01*
Y87D01*
X193882D01*
Y2119D01*
X192866D01*
Y3135D01*
X190834D01*
Y2119D01*
X189818D01*
Y87D01*
X190834D01*
X165434D02*
Y-929D01*
X167466D01*
Y87D01*
X168482D01*
Y2119D01*
X167466D01*
Y3135D01*
X165434D01*
Y2119D01*
X164418D01*
Y87D01*
X165434D01*
X140034D02*
Y-929D01*
X142066D01*
Y87D01*
X143082D01*
Y2119D01*
X142066D01*
Y3135D01*
X140034D01*
Y2119D01*
X139018D01*
Y87D01*
X140034D01*
X114634D02*
Y-929D01*
X116666D01*
Y87D01*
X117682D01*
Y2119D01*
X116666D01*
Y3135D01*
X114634D01*
Y2119D01*
X113618D01*
Y87D01*
X114634D01*
X89234D02*
Y-929D01*
X91266D01*
Y87D01*
X92282D01*
Y2119D01*
X91266D01*
Y3135D01*
X89234D01*
Y2119D01*
X88218D01*
Y87D01*
X89234D01*
X63834D02*
Y-929D01*
X65866D01*
Y87D01*
X66882D01*
Y2119D01*
X65866D01*
Y3135D01*
X63834D01*
Y2119D01*
X62818D01*
Y87D01*
X63834D01*
X220358Y-336487D02*
X218326Y-332423D01*
X222390D01*
X220358Y-336487D01*
Y-323787D02*
X218326Y-319723D01*
X222390D01*
X220358Y-323787D01*
X10320Y-317880D02*
X11336Y-315847D01*
X10320Y-313815D01*
X12352Y-314832D01*
X14384Y-313815D01*
X13368Y-315847D01*
X14384Y-317880D01*
X12352Y-316863D01*
X10320Y-317880D01*
Y-343279D02*
X11336Y-341247D01*
X10320Y-339216D01*
X12352Y-340232D01*
X14384Y-339216D01*
X13368Y-341247D01*
X14384Y-343279D01*
X12352Y-342263D01*
X10320Y-343279D01*
X10574Y-281437D02*
X11590Y-279405D01*
X10574Y-277373D01*
X12606Y-278389D01*
X14638Y-277373D01*
X13622Y-279405D01*
X14638Y-281437D01*
X12606Y-280421D01*
X10574Y-281437D01*
X302634Y-56912D02*
X300602Y-52848D01*
X304666D01*
X302634Y-56912D01*
X289934D02*
X287902Y-52848D01*
X291966D01*
X289934Y-56912D01*
X336964D02*
X334932Y-52848D01*
X338996D01*
X336964Y-56912D01*
X324264D02*
X322232Y-52848D01*
X326296D01*
X324264Y-56912D01*
X42933Y-473715D02*
X43948Y-471683D01*
X42933Y-469651D01*
X44964Y-470667D01*
X46996Y-469651D01*
X45981Y-471683D01*
X46996Y-473715D01*
X44964Y-472699D01*
X42933Y-473715D01*
X68333D02*
X69349Y-471683D01*
X68333Y-469651D01*
X70364Y-470667D01*
X72396Y-469651D01*
X71381Y-471683D01*
X72396Y-473715D01*
X70364Y-472699D01*
X68333Y-473715D01*
X494352Y-55793D02*
Y-56809D01*
X496384D01*
Y-55793D01*
X497400D01*
Y-53761D01*
X496384D01*
Y-52745D01*
X494352D01*
Y-53761D01*
X493336D01*
Y-55793D01*
X494352D01*
Y-81193D02*
Y-82209D01*
X496384D01*
Y-81193D01*
X497400D01*
Y-79161D01*
X496384D01*
Y-78145D01*
X494352D01*
Y-79161D01*
X493336D01*
Y-81193D01*
X494352D01*
Y-106593D02*
Y-107609D01*
X496384D01*
Y-106593D01*
X497400D01*
Y-104561D01*
X496384D01*
Y-103545D01*
X494352D01*
Y-104561D01*
X493336D01*
Y-106593D01*
X494352D01*
Y-131993D02*
Y-133009D01*
X496384D01*
Y-131993D01*
X497400D01*
Y-129961D01*
X496384D01*
Y-128945D01*
X494352D01*
Y-129961D01*
X493336D01*
Y-131993D01*
X494352D01*
Y-157393D02*
Y-158409D01*
X496384D01*
Y-157393D01*
X497400D01*
Y-155361D01*
X496384D01*
Y-154345D01*
X494352D01*
Y-155361D01*
X493336D01*
Y-157393D01*
X494352D01*
Y-182793D02*
Y-183809D01*
X496384D01*
Y-182793D01*
X497400D01*
Y-180761D01*
X496384D01*
Y-179745D01*
X494352D01*
Y-180761D01*
X493336D01*
Y-182793D01*
X494352D01*
X468952Y-55793D02*
Y-56809D01*
X470984D01*
Y-55793D01*
X472000D01*
Y-53761D01*
X470984D01*
Y-52745D01*
X468952D01*
Y-53761D01*
X467936D01*
Y-55793D01*
X468952D01*
Y-81193D02*
Y-82209D01*
X470984D01*
Y-81193D01*
X472000D01*
Y-79161D01*
X470984D01*
Y-78145D01*
X468952D01*
Y-79161D01*
X467936D01*
Y-81193D01*
X468952D01*
Y-106593D02*
Y-107609D01*
X470984D01*
Y-106593D01*
X472000D01*
Y-104561D01*
X470984D01*
Y-103545D01*
X468952D01*
Y-104561D01*
X467936D01*
Y-106593D01*
X468952D01*
Y-131993D02*
Y-133009D01*
X470984D01*
Y-131993D01*
X472000D01*
Y-129961D01*
X470984D01*
Y-128945D01*
X468952D01*
Y-129961D01*
X467936D01*
Y-131993D01*
X468952D01*
Y-157393D02*
Y-158409D01*
X470984D01*
Y-157393D01*
X472000D01*
Y-155361D01*
X470984D01*
Y-154345D01*
X468952D01*
Y-155361D01*
X467936D01*
Y-157393D01*
X468952D01*
Y-182793D02*
Y-183809D01*
X470984D01*
Y-182793D01*
X472000D01*
Y-180761D01*
X470984D01*
Y-179745D01*
X468952D01*
Y-180761D01*
X467936D01*
Y-182793D01*
X468952D01*
X101934D02*
Y-183809D01*
X103966D01*
Y-182793D01*
X104982D01*
Y-180761D01*
X103966D01*
Y-179745D01*
X101934D01*
Y-180761D01*
X100918D01*
Y-182793D01*
X101934D01*
Y-157393D02*
Y-158409D01*
X103966D01*
Y-157393D01*
X104982D01*
Y-155361D01*
X103966D01*
Y-154345D01*
X101934D01*
Y-155361D01*
X100918D01*
Y-157393D01*
X101934D01*
Y-131993D02*
Y-133009D01*
X103966D01*
Y-131993D01*
X104982D01*
Y-129961D01*
X103966D01*
Y-128945D01*
X101934D01*
Y-129961D01*
X100918D01*
Y-131993D01*
X101934D01*
Y-106593D02*
Y-107609D01*
X103966D01*
Y-106593D01*
X104982D01*
Y-104561D01*
X103966D01*
Y-103545D01*
X101934D01*
Y-104561D01*
X100918D01*
Y-106593D01*
X101934D01*
Y-81193D02*
Y-82209D01*
X103966D01*
Y-81193D01*
X104982D01*
Y-79161D01*
X103966D01*
Y-78145D01*
X101934D01*
Y-79161D01*
X100918D01*
Y-81193D01*
X101934D01*
Y-55793D02*
Y-56809D01*
X103966D01*
Y-55793D01*
X104982D01*
Y-53761D01*
X103966D01*
Y-52745D01*
X101934D01*
Y-53761D01*
X100918D01*
Y-55793D01*
X101934D01*
X76534Y-182793D02*
Y-183809D01*
X78566D01*
Y-182793D01*
X79582D01*
Y-180761D01*
X78566D01*
Y-179745D01*
X76534D01*
Y-180761D01*
X75518D01*
Y-182793D01*
X76534D01*
Y-157393D02*
Y-158409D01*
X78566D01*
Y-157393D01*
X79582D01*
Y-155361D01*
X78566D01*
Y-154345D01*
X76534D01*
Y-155361D01*
X75518D01*
Y-157393D01*
X76534D01*
Y-131993D02*
Y-133009D01*
X78566D01*
Y-131993D01*
X79582D01*
Y-129961D01*
X78566D01*
Y-128945D01*
X76534D01*
Y-129961D01*
X75518D01*
Y-131993D01*
X76534D01*
Y-106593D02*
Y-107609D01*
X78566D01*
Y-106593D01*
X79582D01*
Y-104561D01*
X78566D01*
Y-103545D01*
X76534D01*
Y-104561D01*
X75518D01*
Y-106593D01*
X76534D01*
Y-81193D02*
Y-82209D01*
X78566D01*
Y-81193D01*
X79582D01*
Y-79161D01*
X78566D01*
Y-78145D01*
X76534D01*
Y-79161D01*
X75518D01*
Y-81193D01*
X76534D01*
Y-55793D02*
Y-56809D01*
X78566D01*
Y-55793D01*
X79582D01*
Y-53761D01*
X78566D01*
Y-52745D01*
X76534D01*
Y-53761D01*
X75518D01*
Y-55793D01*
X76534D01*
X493428Y-417581D02*
Y-418597D01*
X495460D01*
Y-417581D01*
X496476D01*
Y-415549D01*
X495460D01*
Y-414533D01*
X493428D01*
Y-415549D01*
X492412D01*
Y-417581D01*
X493428D01*
Y-392181D02*
Y-393197D01*
X495460D01*
Y-392181D01*
X496476D01*
Y-390149D01*
X495460D01*
Y-389133D01*
X493428D01*
Y-390149D01*
X492412D01*
Y-392181D01*
X493428D01*
Y-366781D02*
Y-367797D01*
X495460D01*
Y-366781D01*
X496476D01*
Y-364749D01*
X495460D01*
Y-363733D01*
X493428D01*
Y-364749D01*
X492412D01*
Y-366781D01*
X493428D01*
X358474Y-482513D02*
Y-483529D01*
X360506D01*
Y-482513D01*
X361522D01*
Y-480481D01*
X360506D01*
Y-479465D01*
X358474D01*
Y-480481D01*
X357458D01*
Y-482513D01*
X358474D01*
X383874D02*
Y-483529D01*
X385906D01*
Y-482513D01*
X386922D01*
Y-480481D01*
X385906D01*
Y-479465D01*
X383874D01*
Y-480481D01*
X382858D01*
Y-482513D01*
X383874D01*
X409274D02*
Y-483529D01*
X411306D01*
Y-482513D01*
X412322D01*
Y-480481D01*
X411306D01*
Y-479465D01*
X409274D01*
Y-480481D01*
X408258D01*
Y-482513D01*
X409274D01*
X434674D02*
Y-483529D01*
X436706D01*
Y-482513D01*
X437722D01*
Y-480481D01*
X436706D01*
Y-479465D01*
X434674D01*
Y-480481D01*
X433658D01*
Y-482513D01*
X434674D01*
X460074D02*
Y-483529D01*
X462106D01*
Y-482513D01*
X463122D01*
Y-480481D01*
X462106D01*
Y-479465D01*
X460074D01*
Y-480481D01*
X459058D01*
Y-482513D01*
X460074D01*
X485474D02*
Y-483529D01*
X487506D01*
Y-482513D01*
X488522D01*
Y-480481D01*
X487506D01*
Y-479465D01*
X485474D01*
Y-480481D01*
X484458D01*
Y-482513D01*
X485474D01*
X38434Y87D02*
Y-929D01*
X40466D01*
Y87D01*
X41482D01*
Y2119D01*
X40466D01*
Y3135D01*
X38434D01*
Y2119D01*
X37418D01*
Y87D01*
X38434D01*
X485474D02*
Y-929D01*
X487506D01*
Y87D01*
X488522D01*
Y2119D01*
X487506D01*
Y3135D01*
X485474D01*
Y2119D01*
X484458D01*
Y87D01*
X485474D01*
X409274D02*
Y-929D01*
X411306D01*
Y87D01*
X412322D01*
Y2119D01*
X411306D01*
Y3135D01*
X409274D01*
Y2119D01*
X408258D01*
Y87D01*
X409274D01*
X307674D02*
Y-929D01*
X309706D01*
Y87D01*
X310722D01*
Y2119D01*
X309706D01*
Y3135D01*
X307674D01*
Y2119D01*
X306658D01*
Y87D01*
X307674D01*
X460074D02*
Y-929D01*
X462106D01*
Y87D01*
X463122D01*
Y2119D01*
X462106D01*
Y3135D01*
X460074D01*
Y2119D01*
X459058D01*
Y87D01*
X460074D01*
X434674D02*
Y-929D01*
X436706D01*
Y87D01*
X437722D01*
Y2119D01*
X436706D01*
Y3135D01*
X434674D01*
Y2119D01*
X433658D01*
Y87D01*
X434674D01*
X333074D02*
Y-929D01*
X335106D01*
Y87D01*
X336122D01*
Y2119D01*
X335106D01*
Y3135D01*
X333074D01*
Y2119D01*
X332058D01*
Y87D01*
X333074D01*
X358474D02*
Y-929D01*
X360506D01*
Y87D01*
X361522D01*
Y2119D01*
X360506D01*
Y3135D01*
X358474D01*
Y2119D01*
X357458D01*
Y87D01*
X358474D01*
X383874D02*
Y-929D01*
X385906D01*
Y87D01*
X386922D01*
Y2119D01*
X385906D01*
Y3135D01*
X383874D01*
Y2119D01*
X382858D01*
Y87D01*
X383874D01*
X129874Y-482513D02*
Y-483529D01*
X131906D01*
Y-482513D01*
X132922D01*
Y-480481D01*
X131906D01*
Y-479465D01*
X129874D01*
Y-480481D01*
X128858D01*
Y-482513D01*
X129874D01*
X282274D02*
Y-483529D01*
X284306D01*
Y-482513D01*
X285322D01*
Y-480481D01*
X284306D01*
Y-479465D01*
X282274D01*
Y-480481D01*
X281258D01*
Y-482513D01*
X282274D01*
X307674D02*
Y-483529D01*
X309706D01*
Y-482513D01*
X310722D01*
Y-480481D01*
X309706D01*
Y-479465D01*
X307674D01*
Y-480481D01*
X306658D01*
Y-482513D01*
X307674D01*
X155274D02*
Y-483529D01*
X157306D01*
Y-482513D01*
X158322D01*
Y-480481D01*
X157306D01*
Y-479465D01*
X155274D01*
Y-480481D01*
X154258D01*
Y-482513D01*
X155274D01*
X180674D02*
Y-483529D01*
X182706D01*
Y-482513D01*
X183722D01*
Y-480481D01*
X182706D01*
Y-479465D01*
X180674D01*
Y-480481D01*
X179658D01*
Y-482513D01*
X180674D01*
X256874D02*
Y-483529D01*
X258906D01*
Y-482513D01*
X259922D01*
Y-480481D01*
X258906D01*
Y-479465D01*
X256874D01*
Y-480481D01*
X255858D01*
Y-482513D01*
X256874D01*
X231474D02*
Y-483529D01*
X233506D01*
Y-482513D01*
X234522D01*
Y-480481D01*
X233506D01*
Y-479465D01*
X231474D01*
Y-480481D01*
X230458D01*
Y-482513D01*
X231474D01*
X206074D02*
Y-483529D01*
X208106D01*
Y-482513D01*
X209122D01*
Y-480481D01*
X208106D01*
Y-479465D01*
X206074D01*
Y-480481D01*
X205058D01*
Y-482513D01*
X206074D01*
X140891Y-272796D02*
X142923Y-270764D01*
X144955Y-272796D01*
X142923Y-274828D01*
X140891Y-272796D01*
X143256Y-277876D02*
X145288Y-275844D01*
X147320Y-277876D01*
X145288Y-279908D01*
X143256Y-277876D01*
X213326Y-280037D02*
X215358Y-278005D01*
X217390Y-280037D01*
X215358Y-282069D01*
X213326Y-280037D01*
X305213Y-213106D02*
X306229D01*
X307245Y-212090D01*
X308261Y-213106D01*
X309277D01*
Y-212090D01*
X308261Y-211074D01*
X309277Y-210058D01*
Y-209042D01*
X308261D01*
X307245Y-210058D01*
X306229Y-209042D01*
X305213D01*
Y-210058D01*
X306229Y-211074D01*
X305213Y-212090D01*
Y-213106D01*
X406595Y-315440D02*
X407611Y-314424D01*
X408627D01*
X407611Y-313408D01*
X408627Y-312392D01*
X407611D01*
X406595Y-311376D01*
X405579Y-312392D01*
X404563D01*
X405579Y-313408D01*
X404563Y-314424D01*
X405579D01*
X406595Y-315440D01*
X406146Y-302727D02*
X407162Y-301711D01*
X408178D01*
X407162Y-300695D01*
X408178Y-299679D01*
X407162D01*
X406146Y-298663D01*
X405130Y-299679D01*
X404114D01*
X405130Y-300695D01*
X404114Y-301711D01*
X405130D01*
X406146Y-302727D01*
X393145Y-315510D02*
X394161Y-314494D01*
X395177D01*
X394161Y-313478D01*
X395177Y-312462D01*
X394161D01*
X393145Y-311446D01*
X392129Y-312462D01*
X391113D01*
X392129Y-313478D01*
X391113Y-314494D01*
X392129D01*
X393145Y-315510D01*
Y-302260D02*
X394161Y-301244D01*
X395177D01*
X394161Y-300228D01*
X395177Y-299212D01*
X394161D01*
X393145Y-298196D01*
X392129Y-299212D01*
X391113D01*
X392129Y-300228D01*
X391113Y-301244D01*
X392129D01*
X393145Y-302260D01*
X254414Y-326234D02*
X255430Y-325218D01*
X256446D01*
X255430Y-324202D01*
X256446Y-323186D01*
X255430D01*
X254414Y-322170D01*
X253398Y-323186D01*
X252382D01*
X253398Y-324202D01*
X252382Y-325218D01*
X253398D01*
X254414Y-326234D01*
X185166Y-277372D02*
X186182Y-276356D01*
X187198D01*
X186182Y-275340D01*
X187198Y-274324D01*
X186182D01*
X185166Y-273308D01*
X184150Y-274324D01*
X183134D01*
X184150Y-275340D01*
X183134Y-276356D01*
X184150D01*
X185166Y-277372D01*
X90267Y-330688D02*
X91283D01*
X92298Y-329672D01*
X93315Y-330688D01*
X94331D01*
Y-329672D01*
X93315Y-328656D01*
X94331Y-327640D01*
Y-326624D01*
X93315D01*
X92298Y-327640D01*
X91283Y-326624D01*
X90267D01*
Y-327640D01*
X91283Y-328656D01*
X90267Y-329672D01*
Y-330688D01*
X396574Y-348170D02*
X397590D01*
X398606Y-347154D01*
X399622Y-348170D01*
X400638D01*
Y-347154D01*
X399622Y-346138D01*
X400638Y-345122D01*
Y-344106D01*
X399622D01*
X398606Y-345122D01*
X397590Y-344106D01*
X396574D01*
Y-345122D01*
X397590Y-346138D01*
X396574Y-347154D01*
Y-348170D01*
X194804Y-339550D02*
X195820D01*
X196836Y-338534D01*
X197852Y-339550D01*
X198868D01*
Y-338534D01*
X197852Y-337518D01*
X198868Y-336502D01*
Y-335486D01*
X197852D01*
X196836Y-336502D01*
X195820Y-335486D01*
X194804D01*
Y-336502D01*
X195820Y-337518D01*
X194804Y-338534D01*
Y-339550D01*
X223812Y-269039D02*
X224828Y-268023D01*
X225844D01*
X224828Y-267007D01*
X225844Y-265991D01*
X224828D01*
X223812Y-264975D01*
X222796Y-265991D01*
X221780D01*
X222796Y-267007D01*
X221780Y-268023D01*
X222796D01*
X223812Y-269039D01*
X277528Y-382264D02*
X278544Y-381248D01*
X279560D01*
X278544Y-380232D01*
X279560Y-379216D01*
X278544D01*
X277528Y-378200D01*
X276512Y-379216D01*
X275496D01*
X276512Y-380232D01*
X275496Y-381248D01*
X276512D01*
X277528Y-382264D01*
X268384Y-342651D02*
X269400Y-341635D01*
X270416D01*
X269400Y-340619D01*
X270416Y-339603D01*
X269400D01*
X268384Y-338587D01*
X267368Y-339603D01*
X266352D01*
X267368Y-340619D01*
X266352Y-341635D01*
X267368D01*
X268384Y-342651D01*
X389542Y-402595D02*
X390558Y-401579D01*
X391574D01*
X390558Y-400563D01*
X391574Y-399547D01*
X390558D01*
X389542Y-398531D01*
X388526Y-399547D01*
X387510D01*
X388526Y-400563D01*
X387510Y-401579D01*
X388526D01*
X389542Y-402595D01*
X293276Y-384815D02*
X294292Y-383799D01*
X295308D01*
X294292Y-382783D01*
X295308Y-381767D01*
X294292D01*
X293276Y-380751D01*
X292260Y-381767D01*
X291244D01*
X292260Y-382783D01*
X291244Y-383799D01*
X292260D01*
X293276Y-384815D01*
X250858Y-420245D02*
X251874Y-419229D01*
X252890D01*
X251874Y-418213D01*
X252890Y-417197D01*
X251874D01*
X250858Y-416181D01*
X249842Y-417197D01*
X248826D01*
X249842Y-418213D01*
X248826Y-419229D01*
X249842D01*
X250858Y-420245D01*
X239494Y-200309D02*
X240510Y-199293D01*
X241526D01*
X240510Y-198277D01*
X241526Y-197261D01*
X240510D01*
X239494Y-196245D01*
X238478Y-197261D01*
X237462D01*
X238478Y-198277D01*
X237462Y-199293D01*
X238478D01*
X239494Y-200309D01*
X258748Y-291073D02*
X259764Y-290057D01*
X260780D01*
X259764Y-289041D01*
X260780Y-288025D01*
X259764D01*
X258748Y-287009D01*
X257732Y-288025D01*
X256716D01*
X257732Y-289041D01*
X256716Y-290057D01*
X257732D01*
X258748Y-291073D01*
X244295Y-281614D02*
X245311Y-280599D01*
X246327D01*
X245311Y-279583D01*
X246327Y-278566D01*
X245311D01*
X244295Y-277551D01*
X243279Y-278566D01*
X242263D01*
X243279Y-279583D01*
X242263Y-280599D01*
X243279D01*
X244295Y-281614D01*
X153362Y-297643D02*
X154378Y-296627D01*
X155394D01*
X154378Y-295611D01*
X155394Y-294595D01*
X154378D01*
X153362Y-293579D01*
X152346Y-294595D01*
X151330D01*
X152346Y-295611D01*
X151330Y-296627D01*
X152346D01*
X153362Y-297643D01*
X172358Y-272910D02*
X173374Y-271894D01*
X174390D01*
X173374Y-270878D01*
X174390Y-269862D01*
X173374D01*
X172358Y-268846D01*
X171342Y-269862D01*
X170326D01*
X171342Y-270878D01*
X170326Y-271894D01*
X171342D01*
X172358Y-272910D01*
X90330Y-414911D02*
X91346Y-413895D01*
X92362D01*
X91346Y-412879D01*
X92362Y-411863D01*
X91346D01*
X90330Y-410847D01*
X89314Y-411863D01*
X88298D01*
X89314Y-412879D01*
X88298Y-413895D01*
X89314D01*
X90330Y-414911D01*
X199898Y-422001D02*
X200914Y-420985D01*
X201930D01*
X200914Y-419969D01*
X201930Y-418953D01*
X200914D01*
X199898Y-417937D01*
X198882Y-418953D01*
X197866D01*
X198882Y-419969D01*
X197866Y-420985D01*
X198882D01*
X199898Y-422001D01*
X114460Y-348493D02*
X115476Y-347477D01*
X116492D01*
X115476Y-346461D01*
X116492Y-345445D01*
X115476D01*
X114460Y-344429D01*
X113444Y-345445D01*
X112428D01*
X113444Y-346461D01*
X112428Y-347477D01*
X113444D01*
X114460Y-348493D01*
X121980Y-227589D02*
X122996Y-226573D01*
X124012D01*
X122996Y-225557D01*
X124012Y-224541D01*
X122996D01*
X121980Y-223525D01*
X120964Y-224541D01*
X119948D01*
X120964Y-225557D01*
X119948Y-226573D01*
X120964D01*
X121980Y-227589D01*
X195804Y-218694D02*
X196820D01*
X197836Y-217678D01*
X198852Y-218694D01*
X199868D01*
Y-217678D01*
X198852Y-216662D01*
X199868Y-215646D01*
Y-214630D01*
X198852D01*
X197836Y-215646D01*
X196820Y-214630D01*
X195804D01*
Y-215646D01*
X196820Y-216662D01*
X195804Y-217678D01*
Y-218694D01*
X92028Y-231412D02*
X93044D01*
X94060Y-230396D01*
X95076Y-231412D01*
X96092D01*
Y-230396D01*
X95076Y-229380D01*
X96092Y-228364D01*
Y-227348D01*
X95076D01*
X94060Y-228364D01*
X93044Y-227348D01*
X92028D01*
Y-228364D01*
X93044Y-229380D01*
X92028Y-230396D01*
Y-231412D01*
X323248Y-157231D02*
X324264Y-156215D01*
X325280D01*
X324264Y-155199D01*
X325280Y-154183D01*
X324264D01*
X323248Y-153167D01*
X322232Y-154183D01*
X321216D01*
X322232Y-155199D01*
X321216Y-156215D01*
X322232D01*
X323248Y-157231D01*
X303062Y-107955D02*
X304078Y-106939D01*
X305094D01*
X304078Y-105923D01*
X305094Y-104907D01*
X304078D01*
X303062Y-103891D01*
X302046Y-104907D01*
X301030D01*
X302046Y-105923D01*
X301030Y-106939D01*
X302046D01*
X303062Y-107955D01*
X248826Y-119639D02*
X249842Y-118623D01*
X250858D01*
X249842Y-117607D01*
X250858Y-116591D01*
X249842D01*
X248826Y-115575D01*
X247810Y-116591D01*
X246794D01*
X247810Y-117607D01*
X246794Y-118623D01*
X247810D01*
X248826Y-119639D01*
X346290Y-132593D02*
X347306Y-131577D01*
X348322D01*
X347306Y-130561D01*
X348322Y-129545D01*
X347306D01*
X346290Y-128529D01*
X345274Y-129545D01*
X344258D01*
X345274Y-130561D01*
X344258Y-131577D01*
X345274D01*
X346290Y-132593D01*
X312834Y-265181D02*
X313850Y-264165D01*
X314866D01*
X313850Y-263149D01*
X314866Y-262133D01*
X313850D01*
X312834Y-261117D01*
X311818Y-262133D01*
X310802D01*
X311818Y-263149D01*
X310802Y-264165D01*
X311818D01*
X312834Y-265181D01*
X254414Y-183647D02*
X255430Y-182631D01*
X256446D01*
X255430Y-181615D01*
X256446Y-180599D01*
X255430D01*
X254414Y-179583D01*
X253398Y-180599D01*
X252382D01*
X253398Y-181615D01*
X252382Y-182631D01*
X253398D01*
X254414Y-183647D01*
X528988Y-436377D02*
X530004Y-435361D01*
X531020D01*
X530004Y-434345D01*
X531020Y-433329D01*
X530004D01*
X528988Y-432313D01*
X527972Y-433329D01*
X526956D01*
X527972Y-434345D01*
X526956Y-435361D01*
X527972D01*
X528988Y-436377D01*
X503254Y-297980D02*
X504270Y-296964D01*
X505286D01*
X504270Y-295948D01*
X505286Y-294932D01*
X504270D01*
X503254Y-293916D01*
X502238Y-294932D01*
X501222D01*
X502238Y-295948D01*
X501222Y-296964D01*
X502238D01*
X503254Y-297980D01*
D112*
X421962Y-432567D02*
G03*
X421962Y-432567I-2032J0D01*
G01*
X421962Y-65699D02*
G03*
X421962Y-65699I-2032J0D01*
G01*
X1270Y-1270D02*
G03*
X1270Y-1270I-2032J0D01*
G01*
X2032Y-480314D02*
G03*
X2032Y-480314I-2032J0D01*
G01*
M02*
