G04*
G04 #@! TF.GenerationSoftware,Altium Limited,DefaultClient, ()*
G04*
G04 Layer_Color=128*
%FSLAX44Y44*%
%MOMM*%
G71*
G04*
G04 #@! TF.SameCoordinates,C0C1BE24-F48D-404B-966D-32A33A0CC593*
G04*
G04*
G04 #@! TF.FilePolarity,Positive*
G04*
G01*
G75*
%ADD15C,0.2540*%
%ADD18C,0.1524*%
%ADD19C,0.1270*%
%ADD109C,0.0508*%
D15*
X584870Y-492414D02*
X589950Y-507654D01*
X595030Y-492414D01*
X589950Y25746D02*
X595030Y10506D01*
X584870D02*
X589950Y25746D01*
Y-507654D02*
Y-297326D01*
Y-192710D02*
Y25746D01*
X536864Y-507654D02*
X592490D01*
X538388Y25746D02*
X592490D01*
X-21682Y104738D02*
X-6442Y109817D01*
X-21682Y104738D02*
X-6442Y99657D01*
X522050D02*
X537290Y104738D01*
X522050Y109817D02*
X537290Y104738D01*
X-21682D02*
X200162D01*
X307318D02*
X537290D01*
X-21682Y28286D02*
Y107277D01*
X537290Y29678D02*
Y107277D01*
X-75946Y-465074D02*
X-70866Y-480314D01*
X-65786Y-465074D01*
X-70866Y-1270D02*
X-65786Y-16510D01*
X-75946D02*
X-70866Y-1270D01*
Y-480314D02*
Y-297164D01*
Y-192548D02*
Y-1270D01*
X-73406Y-480314D02*
X-23620D01*
X-73406Y-1270D02*
X-24382D01*
X-127254Y-492506D02*
X-122174Y-507746D01*
X-117094Y-492506D01*
X-122174Y25654D02*
X-117094Y10414D01*
X-127254D02*
X-122174Y25654D01*
Y-507746D02*
Y-297418D01*
Y-192802D02*
Y25654D01*
X-124714Y-507746D02*
X-25400D01*
X-124714Y25654D02*
X-27178D01*
D18*
X599091Y-283106D02*
Y-293262D01*
X588935Y-283106D01*
X586396D01*
X583857Y-285645D01*
Y-290723D01*
X586396Y-293262D01*
X599091Y-278027D02*
Y-272949D01*
Y-275488D01*
X583857D01*
X586396Y-278027D01*
Y-265331D02*
X583857Y-262792D01*
Y-257714D01*
X586396Y-255175D01*
X596552D01*
X599091Y-257714D01*
Y-262792D01*
X596552Y-265331D01*
X586396D01*
Y-250096D02*
X583857Y-247557D01*
Y-242479D01*
X586396Y-239940D01*
X596552D01*
X599091Y-242479D01*
Y-247557D01*
X596552Y-250096D01*
X586396D01*
X599091Y-234861D02*
X596552D01*
Y-232322D01*
X599091D01*
Y-234861D01*
X586396Y-222165D02*
X583857Y-219626D01*
Y-214548D01*
X586396Y-212009D01*
X596552D01*
X599091Y-214548D01*
Y-219626D01*
X596552Y-222165D01*
X586396D01*
Y-206930D02*
X583857Y-204391D01*
Y-199313D01*
X586396Y-196774D01*
X596552D01*
X599091Y-199313D01*
Y-204391D01*
X596552Y-206930D01*
X586396D01*
X214382Y95596D02*
X204226D01*
X214382Y105753D01*
Y108292D01*
X211843Y110831D01*
X206765D01*
X204226Y108292D01*
X229618Y95596D02*
X219461D01*
X229618Y105753D01*
Y108292D01*
X227078Y110831D01*
X222000D01*
X219461Y108292D01*
X234696D02*
X237235Y110831D01*
X242313D01*
X244853Y108292D01*
Y98135D01*
X242313Y95596D01*
X237235D01*
X234696Y98135D01*
Y108292D01*
X249931D02*
X252470Y110831D01*
X257549D01*
X260088Y108292D01*
Y98135D01*
X257549Y95596D01*
X252470D01*
X249931Y98135D01*
Y108292D01*
X265166Y95596D02*
Y98135D01*
X267705D01*
Y95596D01*
X265166D01*
X288019Y110831D02*
X282940Y108292D01*
X277862Y103214D01*
Y98135D01*
X280401Y95596D01*
X285480D01*
X288019Y98135D01*
Y100674D01*
X285480Y103214D01*
X277862D01*
X293097Y108292D02*
X295636Y110831D01*
X300715D01*
X303254Y108292D01*
Y105753D01*
X300715Y103214D01*
X303254Y100674D01*
Y98135D01*
X300715Y95596D01*
X295636D01*
X293097Y98135D01*
Y100674D01*
X295636Y103214D01*
X293097Y105753D01*
Y108292D01*
X295636Y103214D02*
X300715D01*
X-61725Y-293100D02*
Y-288022D01*
Y-290561D01*
X-76960D01*
X-74420Y-293100D01*
Y-280404D02*
X-76960Y-277865D01*
Y-272787D01*
X-74420Y-270248D01*
X-71881D01*
X-69342Y-272787D01*
X-66803Y-270248D01*
X-64264D01*
X-61725Y-272787D01*
Y-277865D01*
X-64264Y-280404D01*
X-66803D01*
X-69342Y-277865D01*
X-71881Y-280404D01*
X-74420D01*
X-69342Y-277865D02*
Y-272787D01*
X-74420Y-265169D02*
X-76960Y-262630D01*
Y-257552D01*
X-74420Y-255013D01*
X-71881D01*
X-69342Y-257552D01*
X-66803Y-255013D01*
X-64264D01*
X-61725Y-257552D01*
Y-262630D01*
X-64264Y-265169D01*
X-66803D01*
X-69342Y-262630D01*
X-71881Y-265169D01*
X-74420D01*
X-69342Y-262630D02*
Y-257552D01*
X-76960Y-239778D02*
X-74420Y-244856D01*
X-69342Y-249934D01*
X-64264D01*
X-61725Y-247395D01*
Y-242317D01*
X-64264Y-239778D01*
X-66803D01*
X-69342Y-242317D01*
Y-249934D01*
X-61725Y-234699D02*
X-64264D01*
Y-232160D01*
X-61725D01*
Y-234699D01*
X-74420Y-222003D02*
X-76960Y-219464D01*
Y-214386D01*
X-74420Y-211847D01*
X-64264D01*
X-61725Y-214386D01*
Y-219464D01*
X-64264Y-222003D01*
X-74420D01*
Y-206768D02*
X-76960Y-204229D01*
Y-199151D01*
X-74420Y-196612D01*
X-64264D01*
X-61725Y-199151D01*
Y-204229D01*
X-64264Y-206768D01*
X-74420D01*
X-113033Y-283198D02*
Y-293354D01*
X-123189Y-283198D01*
X-125728D01*
X-128267Y-285737D01*
Y-290815D01*
X-125728Y-293354D01*
X-113033Y-278119D02*
Y-273041D01*
Y-275580D01*
X-128267D01*
X-125728Y-278119D01*
Y-265423D02*
X-128267Y-262884D01*
Y-257806D01*
X-125728Y-255267D01*
X-115572D01*
X-113033Y-257806D01*
Y-262884D01*
X-115572Y-265423D01*
X-125728D01*
Y-250188D02*
X-128267Y-247649D01*
Y-242571D01*
X-125728Y-240032D01*
X-115572D01*
X-113033Y-242571D01*
Y-247649D01*
X-115572Y-250188D01*
X-125728D01*
X-113033Y-234953D02*
X-115572D01*
Y-232414D01*
X-113033D01*
Y-234953D01*
X-125728Y-222257D02*
X-128267Y-219718D01*
Y-214640D01*
X-125728Y-212101D01*
X-115572D01*
X-113033Y-214640D01*
Y-219718D01*
X-115572Y-222257D01*
X-125728D01*
Y-207022D02*
X-128267Y-204483D01*
Y-199405D01*
X-125728Y-196866D01*
X-115572D01*
X-113033Y-199405D01*
Y-204483D01*
X-115572Y-207022D01*
X-125728D01*
D19*
X14797Y-480989D02*
G03*
X14797Y-480989I-15999J0D01*
G01*
X15051Y341D02*
G03*
X15051Y341I-15999J0D01*
G01*
X435929Y-65699D02*
G03*
X435929Y-65699I-15999J0D01*
G01*
Y-412409D02*
G03*
X435929Y-412409I-15999J0D01*
G01*
X-22790Y-506897D02*
Y26503D01*
X537290Y-125897D02*
Y26503D01*
Y-506897D02*
Y-125897D01*
X-21680Y26000D02*
X538400D01*
X-22790Y-506897D02*
X537290D01*
D109*
X6106Y-254005D02*
X19106D01*
X12606Y-260505D02*
Y-247505D01*
X262970Y1103D02*
X273130D01*
X268050Y-3977D02*
Y6183D01*
X237570Y1103D02*
X247730D01*
X242650Y-3977D02*
Y6183D01*
X212170Y1103D02*
X222330D01*
X217250Y-3977D02*
Y6183D01*
X186770Y1103D02*
X196930D01*
X191850Y-3977D02*
Y6183D01*
X161370Y1103D02*
X171530D01*
X166450Y-3977D02*
Y6183D01*
X135970Y1103D02*
X146130D01*
X141050Y-3977D02*
Y6183D01*
X110570Y1103D02*
X120730D01*
X115650Y-3977D02*
Y6183D01*
X85170Y1103D02*
X95330D01*
X90250Y-3977D02*
Y6183D01*
X59770Y1103D02*
X69930D01*
X64850Y-3977D02*
Y6183D01*
X217183Y-334455D02*
X223533D01*
X220358Y-337630D02*
Y-331280D01*
X217183Y-321755D02*
X223533D01*
X220358Y-324930D02*
Y-318580D01*
X5852Y-315847D02*
X18852D01*
X12352Y-322347D02*
Y-309347D01*
X5852Y-341247D02*
X18852D01*
X12352Y-347747D02*
Y-334748D01*
X6106Y-279405D02*
X19106D01*
X12606Y-285905D02*
Y-272905D01*
X299459Y-54880D02*
X305809D01*
X302634Y-58055D02*
Y-51705D01*
X286759Y-54880D02*
X293109D01*
X289934Y-58055D02*
Y-51705D01*
X333789Y-54880D02*
X340139D01*
X336964Y-58055D02*
Y-51705D01*
X321089Y-54880D02*
X327439D01*
X324264Y-58055D02*
Y-51705D01*
X38465Y-471683D02*
X51465D01*
X44964Y-478183D02*
Y-465183D01*
X63864Y-471683D02*
X76865D01*
X70364Y-478183D02*
Y-465183D01*
X490288Y-54777D02*
X500448D01*
X495368Y-59857D02*
Y-49697D01*
X490288Y-80177D02*
X500448D01*
X495368Y-85257D02*
Y-75097D01*
X490288Y-105577D02*
X500448D01*
X495368Y-110657D02*
Y-100497D01*
X490288Y-130977D02*
X500448D01*
X495368Y-136057D02*
Y-125897D01*
X490288Y-156377D02*
X500448D01*
X495368Y-161457D02*
Y-151297D01*
X490288Y-181777D02*
X500448D01*
X495368Y-186857D02*
Y-176697D01*
X464888Y-54777D02*
X475048D01*
X469968Y-59857D02*
Y-49697D01*
X464888Y-80177D02*
X475048D01*
X469968Y-85257D02*
Y-75097D01*
X464888Y-105577D02*
X475048D01*
X469968Y-110657D02*
Y-100497D01*
X464888Y-130977D02*
X475048D01*
X469968Y-136057D02*
Y-125897D01*
X464888Y-156377D02*
X475048D01*
X469968Y-161457D02*
Y-151297D01*
X464888Y-181777D02*
X475048D01*
X469968Y-186857D02*
Y-176697D01*
X97870Y-181777D02*
X108030D01*
X102950Y-186857D02*
Y-176697D01*
X97870Y-156377D02*
X108030D01*
X102950Y-161457D02*
Y-151297D01*
X97870Y-130977D02*
X108030D01*
X102950Y-136057D02*
Y-125897D01*
X97870Y-105577D02*
X108030D01*
X102950Y-110657D02*
Y-100497D01*
X97870Y-80177D02*
X108030D01*
X102950Y-85257D02*
Y-75097D01*
X97870Y-54777D02*
X108030D01*
X102950Y-59857D02*
Y-49697D01*
X72470Y-181777D02*
X82630D01*
X77550Y-186857D02*
Y-176697D01*
X72470Y-156377D02*
X82630D01*
X77550Y-161457D02*
Y-151297D01*
X72470Y-130977D02*
X82630D01*
X77550Y-136057D02*
Y-125897D01*
X72470Y-105577D02*
X82630D01*
X77550Y-110657D02*
Y-100497D01*
X72470Y-80177D02*
X82630D01*
X77550Y-85257D02*
Y-75097D01*
X72470Y-54777D02*
X82630D01*
X77550Y-59857D02*
Y-49697D01*
X489364Y-416565D02*
X499524D01*
X494444Y-421645D02*
Y-411485D01*
X489364Y-391165D02*
X499524D01*
X494444Y-396245D02*
Y-386085D01*
X489364Y-365765D02*
X499524D01*
X494444Y-370845D02*
Y-360685D01*
X354410Y-481497D02*
X364570D01*
X359490Y-486577D02*
Y-476417D01*
X379810Y-481497D02*
X389970D01*
X384890Y-486577D02*
Y-476417D01*
X405210Y-481497D02*
X415370D01*
X410290Y-486577D02*
Y-476417D01*
X430610Y-481497D02*
X440770D01*
X435690Y-486577D02*
Y-476417D01*
X456010Y-481497D02*
X466170D01*
X461090Y-486577D02*
Y-476417D01*
X481410Y-481497D02*
X491570D01*
X486490Y-486577D02*
Y-476417D01*
X34370Y1103D02*
X44530D01*
X39450Y-3977D02*
Y6183D01*
X481410Y1103D02*
X491570D01*
X486490Y-3977D02*
Y6183D01*
X405210Y1103D02*
X415370D01*
X410290Y-3977D02*
Y6183D01*
X303610Y1103D02*
X313770D01*
X308690Y-3977D02*
Y6183D01*
X456010Y1103D02*
X466170D01*
X461090Y-3977D02*
Y6183D01*
X430610Y1103D02*
X440770D01*
X435690Y-3977D02*
Y6183D01*
X329010Y1103D02*
X339170D01*
X334090Y-3977D02*
Y6183D01*
X354410Y1103D02*
X364570D01*
X359490Y-3977D02*
Y6183D01*
X379810Y1103D02*
X389970D01*
X384890Y-3977D02*
Y6183D01*
X125810Y-481497D02*
X135970D01*
X130890Y-486577D02*
Y-476417D01*
X278210Y-481497D02*
X288370D01*
X283290Y-486577D02*
Y-476417D01*
X303610Y-481497D02*
X313770D01*
X308690Y-486577D02*
Y-476417D01*
X151210Y-481497D02*
X161370D01*
X156290Y-486577D02*
Y-476417D01*
X176610Y-481497D02*
X186770D01*
X181690Y-486577D02*
Y-476417D01*
X252810Y-481497D02*
X262970D01*
X257890Y-486577D02*
Y-476417D01*
X227410Y-481497D02*
X237570D01*
X232490Y-486577D02*
Y-476417D01*
X202010Y-481497D02*
X212170D01*
X207090Y-486577D02*
Y-476417D01*
X403930Y-432567D02*
X435930D01*
X419930Y-448567D02*
Y-416567D01*
X403930Y-65699D02*
X435930D01*
X419930Y-81699D02*
Y-49699D01*
X-16762Y-1270D02*
X15238D01*
X-762Y-17270D02*
Y14730D01*
X-16000Y-480314D02*
X16000D01*
X0Y-496314D02*
Y-464314D01*
X141907Y-272796D02*
X143939D01*
X142923Y-273812D02*
Y-271780D01*
X144272Y-277876D02*
X146304D01*
X145288Y-278892D02*
Y-276860D01*
X214342Y-280037D02*
X216374D01*
X215358Y-281053D02*
Y-279021D01*
X303689Y-211074D02*
X310801D01*
X307245Y-214630D02*
Y-207518D01*
X405325Y-313408D02*
X407865D01*
X406595Y-314678D02*
Y-312138D01*
X404876Y-300695D02*
X407416D01*
X406146Y-301965D02*
Y-299425D01*
X391875Y-313478D02*
X394415D01*
X393145Y-314748D02*
Y-312208D01*
X391875Y-300228D02*
X394415D01*
X393145Y-301498D02*
Y-298958D01*
X253144Y-324202D02*
X255684D01*
X254414Y-325472D02*
Y-322932D01*
X183896Y-275340D02*
X186436D01*
X185166Y-276610D02*
Y-274070D01*
X88743Y-328656D02*
X95855D01*
X92298Y-332212D02*
Y-325100D01*
X395050Y-346138D02*
X402162D01*
X398606Y-349694D02*
Y-342582D01*
X193280Y-337518D02*
X200392D01*
X196836Y-341074D02*
Y-333962D01*
X222542Y-267007D02*
X225082D01*
X223812Y-268277D02*
Y-265737D01*
X276258Y-380232D02*
X278798D01*
X277528Y-381502D02*
Y-378962D01*
X267114Y-340619D02*
X269654D01*
X268384Y-341889D02*
Y-339349D01*
X388272Y-400563D02*
X390812D01*
X389542Y-401833D02*
Y-399293D01*
X292006Y-382783D02*
X294546D01*
X293276Y-384053D02*
Y-381513D01*
X249588Y-418213D02*
X252128D01*
X250858Y-419483D02*
Y-416943D01*
X238224Y-198277D02*
X240764D01*
X239494Y-199547D02*
Y-197007D01*
X257478Y-289041D02*
X260018D01*
X258748Y-290311D02*
Y-287771D01*
X243025Y-279583D02*
X245565D01*
X244295Y-280853D02*
Y-278312D01*
X152092Y-295611D02*
X154632D01*
X153362Y-296881D02*
Y-294341D01*
X171088Y-270878D02*
X173628D01*
X172358Y-272148D02*
Y-269608D01*
X89060Y-412879D02*
X91600D01*
X90330Y-414149D02*
Y-411609D01*
X198628Y-419969D02*
X201168D01*
X199898Y-421239D02*
Y-418699D01*
X113190Y-346461D02*
X115730D01*
X114460Y-347731D02*
Y-345191D01*
X120710Y-225557D02*
X123250D01*
X121980Y-226827D02*
Y-224287D01*
X194280Y-216662D02*
X201392D01*
X197836Y-220218D02*
Y-213106D01*
X90504Y-229380D02*
X97616D01*
X94060Y-232936D02*
Y-225824D01*
X321978Y-155199D02*
X324518D01*
X323248Y-156469D02*
Y-153929D01*
X301792Y-105923D02*
X304332D01*
X303062Y-107193D02*
Y-104653D01*
X247556Y-117607D02*
X250096D01*
X248826Y-118877D02*
Y-116337D01*
X345020Y-130561D02*
X347560D01*
X346290Y-131831D02*
Y-129291D01*
X311564Y-263149D02*
X314104D01*
X312834Y-264419D02*
Y-261879D01*
X253144Y-181615D02*
X255684D01*
X254414Y-182885D02*
Y-180345D01*
X527718Y-434345D02*
X530258D01*
X528988Y-435615D02*
Y-433075D01*
X501984Y-295948D02*
X504524D01*
X503254Y-297218D02*
Y-294678D01*
M02*
