G04*
G04 #@! TF.GenerationSoftware,Altium Limited,DefaultClient, ()*
G04*
G04 Layer_Color=32896*
%FSLAX44Y44*%
%MOMM*%
G71*
G04*
G04 #@! TF.SameCoordinates,C0C1BE24-F48D-404B-966D-32A33A0CC593*
G04*
G04*
G04 #@! TF.FilePolarity,Positive*
G04*
G01*
G75*
%ADD15C,0.2540*%
%ADD18C,0.1524*%
%ADD19C,0.1270*%
G36*
X385064Y-236685D02*
X349897D01*
X367391Y-202099D01*
X385064Y-236685D01*
D02*
G37*
G36*
X403245Y-242013D02*
X403483Y-242027D01*
X403929Y-242117D01*
X404122Y-242161D01*
X404315Y-242220D01*
X404478Y-242295D01*
X404627Y-242354D01*
X404761Y-242428D01*
X404880Y-242488D01*
X404984Y-242562D01*
X405073Y-242607D01*
X405132Y-242651D01*
X405177Y-242696D01*
X405207Y-242711D01*
X405221Y-242726D01*
X405370Y-242874D01*
X405489Y-243023D01*
X405712Y-243365D01*
X405875Y-243706D01*
X405994Y-244048D01*
X406083Y-244345D01*
X406098Y-244479D01*
X406128Y-244598D01*
X406143Y-244687D01*
X406158Y-244761D01*
Y-244806D01*
Y-244821D01*
X404924Y-244955D01*
X404894Y-244628D01*
X404835Y-244345D01*
X404761Y-244108D01*
X404657Y-243900D01*
X404568Y-243736D01*
X404478Y-243617D01*
X404419Y-243558D01*
X404404Y-243528D01*
X404196Y-243350D01*
X403973Y-243216D01*
X403736Y-243127D01*
X403513Y-243053D01*
X403320Y-243023D01*
X403171Y-243008D01*
X403111Y-242993D01*
X403022D01*
X402725Y-243008D01*
X402458Y-243067D01*
X402235Y-243142D01*
X402042Y-243231D01*
X401893Y-243335D01*
X401774Y-243409D01*
X401715Y-243469D01*
X401685Y-243484D01*
X401507Y-243677D01*
X401388Y-243885D01*
X401299Y-244078D01*
X401224Y-244271D01*
X401195Y-244435D01*
X401180Y-244568D01*
X401165Y-244657D01*
Y-244672D01*
Y-244687D01*
X401195Y-244940D01*
X401254Y-245207D01*
X401343Y-245445D01*
X401447Y-245668D01*
X401551Y-245861D01*
X401640Y-246010D01*
X401670Y-246069D01*
X401700Y-246114D01*
X401730Y-246128D01*
Y-246143D01*
X401848Y-246292D01*
X401982Y-246455D01*
X402131Y-246619D01*
X402309Y-246782D01*
X402666Y-247124D01*
X403022Y-247466D01*
X403349Y-247748D01*
X403498Y-247882D01*
X403632Y-247986D01*
X403736Y-248090D01*
X403810Y-248149D01*
X403869Y-248194D01*
X403884Y-248209D01*
X404241Y-248521D01*
X404568Y-248803D01*
X404835Y-249056D01*
X405058Y-249264D01*
X405236Y-249442D01*
X405355Y-249576D01*
X405429Y-249665D01*
X405459Y-249680D01*
Y-249695D01*
X405652Y-249932D01*
X405801Y-250155D01*
X405950Y-250378D01*
X406054Y-250571D01*
X406143Y-250750D01*
X406202Y-250868D01*
X406232Y-250958D01*
X406247Y-250972D01*
Y-250987D01*
X406291Y-251136D01*
X406336Y-251285D01*
X406351Y-251418D01*
X406366Y-251537D01*
X406380Y-251641D01*
Y-251730D01*
Y-251790D01*
Y-251805D01*
X399917D01*
Y-250660D01*
X404716D01*
X404553Y-250423D01*
X404389Y-250229D01*
X404315Y-250140D01*
X404256Y-250081D01*
X404226Y-250036D01*
X404211Y-250021D01*
X404137Y-249947D01*
X404062Y-249873D01*
X403869Y-249695D01*
X403632Y-249487D01*
X403409Y-249279D01*
X403186Y-249085D01*
X403007Y-248937D01*
X402933Y-248877D01*
X402874Y-248833D01*
X402844Y-248803D01*
X402829Y-248788D01*
X402591Y-248580D01*
X402383Y-248402D01*
X402175Y-248223D01*
X401997Y-248060D01*
X401834Y-247897D01*
X401685Y-247763D01*
X401536Y-247629D01*
X401418Y-247510D01*
X401314Y-247406D01*
X401224Y-247317D01*
X401091Y-247183D01*
X401016Y-247094D01*
X400987Y-247064D01*
X400793Y-246827D01*
X400615Y-246619D01*
X400481Y-246411D01*
X400377Y-246232D01*
X400288Y-246084D01*
X400229Y-245980D01*
X400199Y-245905D01*
X400184Y-245876D01*
X400095Y-245668D01*
X400036Y-245460D01*
X399991Y-245267D01*
X399961Y-245088D01*
X399947Y-244940D01*
X399932Y-244821D01*
Y-244746D01*
Y-244717D01*
X399947Y-244509D01*
X399961Y-244301D01*
X400065Y-243929D01*
X400199Y-243602D01*
X400348Y-243320D01*
X400496Y-243097D01*
X400571Y-243008D01*
X400630Y-242919D01*
X400689Y-242859D01*
X400734Y-242815D01*
X400749Y-242800D01*
X400764Y-242785D01*
X400927Y-242651D01*
X401091Y-242518D01*
X401269Y-242414D01*
X401462Y-242325D01*
X401834Y-242191D01*
X402190Y-242102D01*
X402354Y-242057D01*
X402502Y-242042D01*
X402636Y-242027D01*
X402755Y-242013D01*
X402859Y-241998D01*
X402993D01*
X403245Y-242013D01*
D02*
G37*
G36*
X398431Y-247198D02*
X397302Y-247362D01*
X397198Y-247213D01*
X397079Y-247079D01*
X396960Y-246961D01*
X396856Y-246856D01*
X396752Y-246782D01*
X396663Y-246723D01*
X396603Y-246693D01*
X396588Y-246678D01*
X396410Y-246589D01*
X396232Y-246515D01*
X396053Y-246470D01*
X395890Y-246426D01*
X395741Y-246411D01*
X395637Y-246396D01*
X395533D01*
X395206Y-246426D01*
X394909Y-246485D01*
X394642Y-246589D01*
X394434Y-246693D01*
X394255Y-246797D01*
X394137Y-246901D01*
X394062Y-246961D01*
X394033Y-246990D01*
X393839Y-247228D01*
X393691Y-247495D01*
X393587Y-247763D01*
X393527Y-248015D01*
X393483Y-248253D01*
X393468Y-248357D01*
Y-248446D01*
X393453Y-248506D01*
Y-248565D01*
Y-248595D01*
Y-248610D01*
X393483Y-248996D01*
X393542Y-249338D01*
X393646Y-249635D01*
X393750Y-249888D01*
X393854Y-250081D01*
X393958Y-250229D01*
X394018Y-250319D01*
X394048Y-250333D01*
Y-250348D01*
X394166Y-250467D01*
X394285Y-250556D01*
X394523Y-250720D01*
X394776Y-250824D01*
X394998Y-250913D01*
X395206Y-250958D01*
X395370Y-250972D01*
X395429Y-250987D01*
X395518D01*
X395771Y-250972D01*
X396009Y-250913D01*
X396217Y-250839D01*
X396395Y-250764D01*
X396544Y-250675D01*
X396648Y-250616D01*
X396707Y-250556D01*
X396737Y-250541D01*
X396915Y-250348D01*
X397049Y-250126D01*
X397168Y-249903D01*
X397242Y-249680D01*
X397302Y-249472D01*
X397346Y-249308D01*
X397361Y-249249D01*
X397376Y-249204D01*
Y-249174D01*
Y-249160D01*
X398639Y-249249D01*
X398609Y-249472D01*
X398565Y-249695D01*
X398446Y-250081D01*
X398282Y-250423D01*
X398119Y-250705D01*
X398030Y-250824D01*
X397955Y-250928D01*
X397881Y-251017D01*
X397822Y-251091D01*
X397762Y-251151D01*
X397718Y-251195D01*
X397703Y-251210D01*
X397688Y-251225D01*
X397524Y-251359D01*
X397346Y-251463D01*
X397168Y-251567D01*
X396990Y-251656D01*
X396633Y-251790D01*
X396291Y-251879D01*
X396128Y-251909D01*
X395979Y-251923D01*
X395845Y-251938D01*
X395741Y-251953D01*
X395652Y-251968D01*
X395518D01*
X395221Y-251953D01*
X394939Y-251923D01*
X394686Y-251864D01*
X394434Y-251790D01*
X394211Y-251700D01*
X393988Y-251597D01*
X393795Y-251493D01*
X393631Y-251374D01*
X393468Y-251270D01*
X393334Y-251166D01*
X393215Y-251062D01*
X393126Y-250972D01*
X393052Y-250898D01*
X392993Y-250839D01*
X392963Y-250809D01*
X392948Y-250794D01*
X392814Y-250616D01*
X392695Y-250423D01*
X392591Y-250229D01*
X392502Y-250021D01*
X392368Y-249650D01*
X392264Y-249293D01*
X392235Y-249130D01*
X392220Y-248981D01*
X392205Y-248848D01*
X392190Y-248729D01*
X392175Y-248640D01*
Y-248565D01*
Y-248521D01*
Y-248506D01*
X392190Y-248253D01*
X392220Y-248001D01*
X392264Y-247778D01*
X392309Y-247555D01*
X392383Y-247362D01*
X392458Y-247169D01*
X392532Y-247005D01*
X392621Y-246842D01*
X392710Y-246708D01*
X392785Y-246589D01*
X392859Y-246485D01*
X392933Y-246396D01*
X392978Y-246322D01*
X393022Y-246277D01*
X393052Y-246247D01*
X393067Y-246232D01*
X393230Y-246069D01*
X393409Y-245935D01*
X393587Y-245816D01*
X393780Y-245712D01*
X393958Y-245623D01*
X394137Y-245564D01*
X394478Y-245445D01*
X394627Y-245415D01*
X394776Y-245385D01*
X394894Y-245371D01*
X395013Y-245356D01*
X395103Y-245341D01*
X395221D01*
X395578Y-245371D01*
X395920Y-245445D01*
X396232Y-245534D01*
X396499Y-245653D01*
X396737Y-245772D01*
X396826Y-245816D01*
X396915Y-245861D01*
X396975Y-245905D01*
X397019Y-245935D01*
X397049Y-245950D01*
X397064Y-245965D01*
X396529Y-243335D01*
X392636D01*
Y-242191D01*
X397480D01*
X398431Y-247198D01*
D02*
G37*
G36*
X390526Y-251805D02*
X389233D01*
Y-247198D01*
X384181D01*
Y-251805D01*
X382888D01*
Y-242042D01*
X384181D01*
Y-246054D01*
X389233D01*
Y-242042D01*
X390526D01*
Y-251805D01*
D02*
G37*
G36*
X353512D02*
X352219D01*
Y-248417D01*
X350630Y-246886D01*
X347152Y-251805D01*
X345444D01*
X349723Y-246010D01*
X345622Y-242042D01*
X347375D01*
X352219Y-246871D01*
Y-242042D01*
X353512D01*
Y-251805D01*
D02*
G37*
G36*
X316216Y-248877D02*
X312546D01*
Y-247674D01*
X316216D01*
Y-248877D01*
D02*
G37*
G36*
X326989Y-251805D02*
X325741D01*
Y-243498D01*
X322932Y-251805D01*
X321773D01*
X318920Y-243632D01*
Y-251805D01*
X317672D01*
Y-242042D01*
X319426D01*
X321758Y-248833D01*
X321877Y-249204D01*
X321996Y-249516D01*
X322085Y-249784D01*
X322145Y-250007D01*
X322204Y-250170D01*
X322249Y-250289D01*
X322264Y-250363D01*
X322279Y-250393D01*
X322338Y-250200D01*
X322412Y-249962D01*
X322486Y-249724D01*
X322561Y-249487D01*
X322635Y-249279D01*
X322695Y-249115D01*
X322709Y-249041D01*
X322724Y-248996D01*
X322739Y-248967D01*
Y-248952D01*
X325057Y-242042D01*
X326989D01*
Y-251805D01*
D02*
G37*
G36*
X377955D02*
X376633D01*
X372814Y-242042D01*
X374122D01*
X376767Y-249130D01*
X376870Y-249427D01*
X376974Y-249724D01*
X377064Y-249992D01*
X377138Y-250229D01*
X377197Y-250438D01*
X377242Y-250601D01*
X377257Y-250660D01*
X377272Y-250705D01*
X377286Y-250720D01*
Y-250735D01*
X377450Y-250170D01*
X377539Y-249903D01*
X377628Y-249650D01*
X377703Y-249442D01*
X377747Y-249279D01*
X377777Y-249219D01*
X377792Y-249174D01*
X377807Y-249145D01*
Y-249130D01*
X380333Y-242042D01*
X381744D01*
X377955Y-251805D01*
D02*
G37*
G36*
X287627Y-241908D02*
X288073Y-241968D01*
X288474Y-242072D01*
X288653Y-242117D01*
X288816Y-242176D01*
X288965Y-242235D01*
X289113Y-242280D01*
X289232Y-242339D01*
X289321Y-242384D01*
X289410Y-242414D01*
X289470Y-242443D01*
X289499Y-242473D01*
X289514D01*
X289886Y-242711D01*
X290228Y-242993D01*
X290510Y-243276D01*
X290733Y-243558D01*
X290926Y-243810D01*
X291000Y-243914D01*
X291060Y-244004D01*
X291104Y-244093D01*
X291134Y-244152D01*
X291164Y-244182D01*
Y-244197D01*
X291357Y-244628D01*
X291506Y-245088D01*
X291595Y-245534D01*
X291669Y-245950D01*
X291699Y-246143D01*
X291714Y-246307D01*
X291728Y-246470D01*
Y-246604D01*
X291743Y-246708D01*
Y-246782D01*
Y-246842D01*
Y-246856D01*
X291728Y-247377D01*
X291669Y-247852D01*
X291580Y-248298D01*
X291535Y-248506D01*
X291491Y-248684D01*
X291446Y-248862D01*
X291402Y-249011D01*
X291357Y-249145D01*
X291312Y-249264D01*
X291283Y-249353D01*
X291253Y-249412D01*
X291238Y-249457D01*
Y-249472D01*
X291030Y-249903D01*
X290777Y-250274D01*
X290540Y-250601D01*
X290287Y-250854D01*
X290079Y-251062D01*
X289901Y-251210D01*
X289826Y-251255D01*
X289782Y-251299D01*
X289752Y-251314D01*
X289737Y-251329D01*
X289544Y-251448D01*
X289336Y-251537D01*
X288920Y-251700D01*
X288489Y-251805D01*
X288073Y-251894D01*
X287895Y-251909D01*
X287717Y-251938D01*
X287568Y-251953D01*
X287434D01*
X287315Y-251968D01*
X287167D01*
X286884Y-251953D01*
X286617Y-251938D01*
X286127Y-251834D01*
X285904Y-251775D01*
X285681Y-251700D01*
X285488Y-251626D01*
X285309Y-251552D01*
X285146Y-251478D01*
X285012Y-251403D01*
X284893Y-251329D01*
X284789Y-251270D01*
X284700Y-251210D01*
X284641Y-251166D01*
X284611Y-251151D01*
X284596Y-251136D01*
X284403Y-250972D01*
X284225Y-250794D01*
X283927Y-250408D01*
X283660Y-250007D01*
X283467Y-249605D01*
X283378Y-249427D01*
X283318Y-249264D01*
X283259Y-249100D01*
X283199Y-248981D01*
X283170Y-248862D01*
X283140Y-248788D01*
X283125Y-248729D01*
Y-248714D01*
X284418Y-248387D01*
X284537Y-248818D01*
X284685Y-249204D01*
X284863Y-249516D01*
X285027Y-249784D01*
X285190Y-249977D01*
X285324Y-250126D01*
X285413Y-250215D01*
X285428Y-250229D01*
X285443Y-250244D01*
X285740Y-250452D01*
X286037Y-250601D01*
X286349Y-250720D01*
X286632Y-250794D01*
X286884Y-250839D01*
X287003Y-250854D01*
X287092D01*
X287167Y-250868D01*
X287271D01*
X287598Y-250854D01*
X287910Y-250794D01*
X288192Y-250720D01*
X288430Y-250646D01*
X288638Y-250556D01*
X288801Y-250497D01*
X288861Y-250467D01*
X288905Y-250438D01*
X288920Y-250423D01*
X288935D01*
X289202Y-250229D01*
X289425Y-250007D01*
X289618Y-249784D01*
X289782Y-249546D01*
X289901Y-249353D01*
X289975Y-249174D01*
X290005Y-249115D01*
X290035Y-249070D01*
X290049Y-249041D01*
Y-249026D01*
X290168Y-248669D01*
X290257Y-248298D01*
X290317Y-247926D01*
X290361Y-247585D01*
X290376Y-247436D01*
X290391Y-247302D01*
Y-247169D01*
X290406Y-247064D01*
Y-246975D01*
Y-246916D01*
Y-246871D01*
Y-246856D01*
X290391Y-246500D01*
X290361Y-246158D01*
X290317Y-245846D01*
X290257Y-245564D01*
X290198Y-245326D01*
X290183Y-245222D01*
X290153Y-245148D01*
X290138Y-245073D01*
X290124Y-245029D01*
X290109Y-244999D01*
Y-244984D01*
X289975Y-244657D01*
X289812Y-244360D01*
X289633Y-244122D01*
X289470Y-243914D01*
X289306Y-243751D01*
X289173Y-243632D01*
X289083Y-243558D01*
X289069Y-243528D01*
X289054D01*
X288757Y-243350D01*
X288445Y-243216D01*
X288132Y-243112D01*
X287835Y-243053D01*
X287568Y-243008D01*
X287464Y-242993D01*
X287360D01*
X287286Y-242978D01*
X287181D01*
X286825Y-242993D01*
X286513Y-243053D01*
X286231Y-243127D01*
X286008Y-243216D01*
X285814Y-243320D01*
X285681Y-243394D01*
X285592Y-243454D01*
X285562Y-243469D01*
X285324Y-243677D01*
X285131Y-243914D01*
X284953Y-244182D01*
X284819Y-244435D01*
X284715Y-244657D01*
X284670Y-244761D01*
X284626Y-244851D01*
X284596Y-244925D01*
X284581Y-244984D01*
X284566Y-245014D01*
Y-245029D01*
X283288Y-244732D01*
X283467Y-244256D01*
X283571Y-244033D01*
X283675Y-243840D01*
X283794Y-243647D01*
X283913Y-243469D01*
X284017Y-243320D01*
X284135Y-243172D01*
X284240Y-243053D01*
X284343Y-242949D01*
X284447Y-242845D01*
X284522Y-242770D01*
X284596Y-242711D01*
X284641Y-242666D01*
X284670Y-242651D01*
X284685Y-242637D01*
X284878Y-242503D01*
X285072Y-242384D01*
X285280Y-242280D01*
X285488Y-242191D01*
X285904Y-242057D01*
X286290Y-241968D01*
X286468Y-241938D01*
X286632Y-241923D01*
X286780Y-241908D01*
X286899Y-241894D01*
X287003Y-241879D01*
X287152D01*
X287627Y-241908D01*
D02*
G37*
G36*
X432562Y-251805D02*
X431195D01*
X430140Y-248848D01*
X426039D01*
X424910Y-251805D01*
X423453D01*
X427421Y-242042D01*
X428832D01*
X432562Y-251805D01*
D02*
G37*
G36*
X371640D02*
X370347D01*
Y-247822D01*
X367851D01*
X367480Y-247808D01*
X367138Y-247793D01*
X366826Y-247748D01*
X366529Y-247689D01*
X366276Y-247629D01*
X366038Y-247555D01*
X365830Y-247481D01*
X365652Y-247391D01*
X365489Y-247317D01*
X365355Y-247243D01*
X365251Y-247169D01*
X365147Y-247109D01*
X365087Y-247050D01*
X365043Y-247005D01*
X365013Y-246990D01*
X364998Y-246975D01*
X364850Y-246812D01*
X364731Y-246634D01*
X364627Y-246455D01*
X364538Y-246277D01*
X364389Y-245935D01*
X364300Y-245593D01*
X364255Y-245445D01*
X364240Y-245311D01*
X364226Y-245177D01*
X364211Y-245073D01*
X364196Y-244984D01*
Y-244925D01*
Y-244880D01*
Y-244865D01*
X364211Y-244598D01*
X364240Y-244345D01*
X364285Y-244122D01*
X364344Y-243929D01*
X364404Y-243766D01*
X364448Y-243647D01*
X364478Y-243573D01*
X364493Y-243543D01*
X364612Y-243320D01*
X364745Y-243142D01*
X364879Y-242978D01*
X364998Y-242845D01*
X365102Y-242741D01*
X365191Y-242666D01*
X365266Y-242622D01*
X365280Y-242607D01*
X365474Y-242488D01*
X365682Y-242384D01*
X365875Y-242310D01*
X366068Y-242250D01*
X366231Y-242206D01*
X366365Y-242176D01*
X366454Y-242146D01*
X366484D01*
X366692Y-242117D01*
X366930Y-242087D01*
X367182Y-242072D01*
X367420Y-242057D01*
X367643Y-242042D01*
X371640D01*
Y-251805D01*
D02*
G37*
G36*
X363616D02*
X362249D01*
X361194Y-248848D01*
X357093D01*
X355964Y-251805D01*
X354508D01*
X358475Y-242042D01*
X359887D01*
X363616Y-251805D01*
D02*
G37*
G36*
X335993Y-243186D02*
X332784D01*
Y-251805D01*
X331491D01*
Y-243186D01*
X328282D01*
Y-242042D01*
X335993D01*
Y-243186D01*
D02*
G37*
G36*
X311060Y-251805D02*
X309767D01*
Y-247822D01*
X307271D01*
X306899Y-247808D01*
X306558Y-247793D01*
X306246Y-247748D01*
X305949Y-247689D01*
X305696Y-247629D01*
X305458Y-247555D01*
X305250Y-247481D01*
X305072Y-247391D01*
X304908Y-247317D01*
X304775Y-247243D01*
X304671Y-247169D01*
X304567Y-247109D01*
X304507Y-247050D01*
X304463Y-247005D01*
X304433Y-246990D01*
X304418Y-246975D01*
X304269Y-246812D01*
X304151Y-246634D01*
X304046Y-246455D01*
X303957Y-246277D01*
X303809Y-245935D01*
X303720Y-245593D01*
X303675Y-245445D01*
X303660Y-245311D01*
X303645Y-245177D01*
X303631Y-245073D01*
X303616Y-244984D01*
Y-244925D01*
Y-244880D01*
Y-244865D01*
X303631Y-244598D01*
X303660Y-244345D01*
X303705Y-244122D01*
X303764Y-243929D01*
X303824Y-243766D01*
X303868Y-243647D01*
X303898Y-243573D01*
X303913Y-243543D01*
X304032Y-243320D01*
X304165Y-243142D01*
X304299Y-242978D01*
X304418Y-242845D01*
X304522Y-242741D01*
X304611Y-242666D01*
X304685Y-242622D01*
X304700Y-242607D01*
X304893Y-242488D01*
X305102Y-242384D01*
X305295Y-242310D01*
X305488Y-242250D01*
X305651Y-242206D01*
X305785Y-242176D01*
X305874Y-242146D01*
X305904D01*
X306112Y-242117D01*
X306350Y-242087D01*
X306602Y-242072D01*
X306840Y-242057D01*
X307063Y-242042D01*
X311060D01*
Y-251805D01*
D02*
G37*
G36*
X281758Y-243186D02*
X276320D01*
X276498Y-243379D01*
X276691Y-243587D01*
X276854Y-243781D01*
X277018Y-243959D01*
X277152Y-244122D01*
X277256Y-244241D01*
X277315Y-244331D01*
X277345Y-244345D01*
Y-244360D01*
X282323Y-250616D01*
Y-251805D01*
X274611D01*
Y-250660D01*
X280852D01*
X280257Y-249962D01*
X274774Y-243186D01*
Y-242042D01*
X281758D01*
Y-243186D01*
D02*
G37*
G36*
X419397Y-241894D02*
X419739Y-241938D01*
X420036Y-241983D01*
X420303Y-242042D01*
X420511Y-242117D01*
X420601Y-242146D01*
X420675Y-242161D01*
X420749Y-242191D01*
X420794Y-242206D01*
X420808Y-242220D01*
X420823D01*
X421106Y-242354D01*
X421358Y-242518D01*
X421566Y-242681D01*
X421730Y-242830D01*
X421864Y-242978D01*
X421968Y-243097D01*
X422027Y-243172D01*
X422042Y-243186D01*
Y-243201D01*
X422176Y-243439D01*
X422280Y-243692D01*
X422354Y-243914D01*
X422398Y-244137D01*
X422428Y-244316D01*
X422458Y-244449D01*
Y-244509D01*
Y-244553D01*
Y-244568D01*
Y-244583D01*
X422443Y-244821D01*
X422398Y-245059D01*
X422354Y-245267D01*
X422280Y-245445D01*
X422220Y-245593D01*
X422176Y-245697D01*
X422131Y-245772D01*
X422116Y-245802D01*
X421968Y-245995D01*
X421804Y-246173D01*
X421641Y-246322D01*
X421462Y-246455D01*
X421314Y-246559D01*
X421195Y-246634D01*
X421106Y-246693D01*
X421091Y-246708D01*
X421076D01*
X420972Y-246767D01*
X420838Y-246812D01*
X420556Y-246916D01*
X420244Y-247020D01*
X419932Y-247124D01*
X419650Y-247198D01*
X419531Y-247228D01*
X419427Y-247258D01*
X419338Y-247287D01*
X419263Y-247302D01*
X419219Y-247317D01*
X419204D01*
X418966Y-247377D01*
X418743Y-247436D01*
X418535Y-247481D01*
X418357Y-247525D01*
X418208Y-247570D01*
X418060Y-247614D01*
X417941Y-247644D01*
X417822Y-247674D01*
X417733Y-247703D01*
X417658Y-247733D01*
X417540Y-247763D01*
X417480Y-247778D01*
X417465Y-247793D01*
X417257Y-247882D01*
X417064Y-247986D01*
X416916Y-248075D01*
X416797Y-248164D01*
X416707Y-248253D01*
X416633Y-248313D01*
X416603Y-248357D01*
X416589Y-248372D01*
X416499Y-248506D01*
X416440Y-248640D01*
X416381Y-248773D01*
X416351Y-248907D01*
X416336Y-249011D01*
X416321Y-249100D01*
Y-249160D01*
Y-249174D01*
X416336Y-249338D01*
X416366Y-249487D01*
X416410Y-249635D01*
X416455Y-249754D01*
X416514Y-249858D01*
X416559Y-249932D01*
X416589Y-249992D01*
X416603Y-250007D01*
X416722Y-250140D01*
X416856Y-250259D01*
X416990Y-250363D01*
X417138Y-250452D01*
X417257Y-250527D01*
X417361Y-250571D01*
X417421Y-250601D01*
X417450Y-250616D01*
X417673Y-250690D01*
X417896Y-250735D01*
X418104Y-250779D01*
X418312Y-250794D01*
X418476Y-250809D01*
X418624Y-250824D01*
X418743D01*
X419040Y-250809D01*
X419323Y-250779D01*
X419590Y-250735D01*
X419798Y-250675D01*
X419991Y-250631D01*
X420125Y-250586D01*
X420214Y-250556D01*
X420229Y-250541D01*
X420244D01*
X420467Y-250423D01*
X420675Y-250304D01*
X420838Y-250170D01*
X420972Y-250051D01*
X421091Y-249947D01*
X421165Y-249858D01*
X421210Y-249799D01*
X421225Y-249784D01*
X421329Y-249591D01*
X421418Y-249397D01*
X421477Y-249189D01*
X421537Y-248996D01*
X421566Y-248818D01*
X421596Y-248684D01*
X421611Y-248595D01*
Y-248580D01*
Y-248565D01*
X422829Y-248669D01*
X422800Y-249026D01*
X422740Y-249353D01*
X422651Y-249665D01*
X422562Y-249918D01*
X422473Y-250140D01*
X422428Y-250229D01*
X422384Y-250304D01*
X422354Y-250363D01*
X422324Y-250408D01*
X422309Y-250423D01*
Y-250438D01*
X422101Y-250705D01*
X421864Y-250943D01*
X421641Y-251136D01*
X421403Y-251299D01*
X421210Y-251433D01*
X421046Y-251522D01*
X420987Y-251552D01*
X420942Y-251582D01*
X420913Y-251597D01*
X420898D01*
X420541Y-251715D01*
X420170Y-251805D01*
X419798Y-251879D01*
X419456Y-251923D01*
X419293Y-251938D01*
X419144Y-251953D01*
X419011D01*
X418907Y-251968D01*
X418684D01*
X418297Y-251953D01*
X417956Y-251909D01*
X417629Y-251849D01*
X417361Y-251775D01*
X417123Y-251715D01*
X417034Y-251686D01*
X416960Y-251656D01*
X416901Y-251626D01*
X416856Y-251611D01*
X416826Y-251597D01*
X416811D01*
X416514Y-251433D01*
X416247Y-251270D01*
X416024Y-251091D01*
X415846Y-250913D01*
X415697Y-250764D01*
X415608Y-250646D01*
X415534Y-250556D01*
X415519Y-250527D01*
X415370Y-250274D01*
X415266Y-250007D01*
X415177Y-249754D01*
X415132Y-249531D01*
X415103Y-249338D01*
X415073Y-249189D01*
Y-249130D01*
Y-249085D01*
Y-249070D01*
Y-249056D01*
X415088Y-248773D01*
X415132Y-248506D01*
X415207Y-248268D01*
X415281Y-248075D01*
X415355Y-247897D01*
X415430Y-247778D01*
X415474Y-247703D01*
X415489Y-247674D01*
X415653Y-247466D01*
X415846Y-247273D01*
X416054Y-247094D01*
X416262Y-246946D01*
X416455Y-246842D01*
X416603Y-246752D01*
X416663Y-246723D01*
X416693Y-246693D01*
X416722Y-246678D01*
X416737D01*
X416856Y-246634D01*
X417005Y-246574D01*
X417153Y-246515D01*
X417332Y-246470D01*
X417688Y-246366D01*
X418045Y-246262D01*
X418372Y-246188D01*
X418520Y-246143D01*
X418654Y-246114D01*
X418758Y-246084D01*
X418832Y-246069D01*
X418892Y-246054D01*
X418907D01*
X419189Y-245980D01*
X419441Y-245920D01*
X419664Y-245861D01*
X419872Y-245787D01*
X420051Y-245727D01*
X420199Y-245683D01*
X420333Y-245623D01*
X420452Y-245564D01*
X420556Y-245519D01*
X420645Y-245490D01*
X420704Y-245445D01*
X420749Y-245415D01*
X420823Y-245371D01*
X420838Y-245356D01*
X420957Y-245222D01*
X421046Y-245088D01*
X421121Y-244940D01*
X421165Y-244806D01*
X421195Y-244687D01*
X421210Y-244583D01*
Y-244524D01*
Y-244494D01*
X421180Y-244271D01*
X421121Y-244078D01*
X421046Y-243900D01*
X420942Y-243751D01*
X420853Y-243617D01*
X420764Y-243528D01*
X420704Y-243469D01*
X420690Y-243454D01*
X420586Y-243379D01*
X420467Y-243305D01*
X420199Y-243201D01*
X419917Y-243127D01*
X419635Y-243082D01*
X419382Y-243038D01*
X419263D01*
X419174Y-243023D01*
X418981D01*
X418580Y-243038D01*
X418238Y-243097D01*
X417941Y-243172D01*
X417703Y-243261D01*
X417525Y-243350D01*
X417391Y-243424D01*
X417317Y-243484D01*
X417287Y-243498D01*
X417094Y-243692D01*
X416930Y-243914D01*
X416811Y-244137D01*
X416722Y-244360D01*
X416663Y-244568D01*
X416633Y-244732D01*
X416618Y-244791D01*
X416603Y-244836D01*
Y-244865D01*
Y-244880D01*
X415370Y-244791D01*
X415400Y-244479D01*
X415459Y-244197D01*
X415548Y-243929D01*
X415638Y-243706D01*
X415712Y-243528D01*
X415786Y-243379D01*
X415846Y-243290D01*
X415860Y-243261D01*
X416039Y-243023D01*
X416247Y-242815D01*
X416455Y-242637D01*
X416663Y-242488D01*
X416856Y-242384D01*
X417005Y-242295D01*
X417064Y-242265D01*
X417109Y-242250D01*
X417123Y-242235D01*
X417138D01*
X417450Y-242117D01*
X417777Y-242027D01*
X418104Y-241968D01*
X418401Y-241923D01*
X418654Y-241894D01*
X418758D01*
X418862Y-241879D01*
X419040D01*
X419397Y-241894D01*
D02*
G37*
G36*
X411002Y-242027D02*
X411343Y-242087D01*
X411655Y-242176D01*
X411908Y-242280D01*
X412116Y-242399D01*
X412265Y-242488D01*
X412324Y-242518D01*
X412369Y-242547D01*
X412383Y-242577D01*
X412398D01*
X412651Y-242815D01*
X412859Y-243067D01*
X413037Y-243335D01*
X413186Y-243602D01*
X413305Y-243840D01*
X413349Y-243944D01*
X413379Y-244033D01*
X413409Y-244108D01*
X413438Y-244167D01*
X413453Y-244197D01*
Y-244212D01*
X413513Y-244420D01*
X413572Y-244628D01*
X413647Y-245088D01*
X413706Y-245549D01*
X413750Y-245995D01*
X413765Y-246203D01*
X413780Y-246396D01*
Y-246559D01*
X413795Y-246708D01*
Y-246827D01*
Y-246916D01*
Y-246975D01*
Y-246990D01*
X413780Y-247481D01*
X413750Y-247956D01*
X413706Y-248372D01*
X413647Y-248773D01*
X413572Y-249130D01*
X413498Y-249457D01*
X413409Y-249754D01*
X413320Y-250007D01*
X413230Y-250244D01*
X413141Y-250438D01*
X413067Y-250601D01*
X412993Y-250735D01*
X412933Y-250839D01*
X412889Y-250913D01*
X412859Y-250958D01*
X412844Y-250972D01*
X412681Y-251151D01*
X412517Y-251299D01*
X412339Y-251433D01*
X412146Y-251552D01*
X411967Y-251641D01*
X411774Y-251730D01*
X411418Y-251849D01*
X411254Y-251879D01*
X411106Y-251909D01*
X410972Y-251938D01*
X410853Y-251953D01*
X410749Y-251968D01*
X410615D01*
X410229Y-251938D01*
X409887Y-251879D01*
X409590Y-251790D01*
X409323Y-251686D01*
X409129Y-251582D01*
X408966Y-251493D01*
X408921Y-251448D01*
X408877Y-251433D01*
X408862Y-251403D01*
X408847D01*
X408594Y-251166D01*
X408386Y-250898D01*
X408208Y-250631D01*
X408060Y-250363D01*
X407941Y-250126D01*
X407896Y-250036D01*
X407851Y-249947D01*
X407822Y-249873D01*
X407807Y-249813D01*
X407792Y-249784D01*
Y-249769D01*
X407733Y-249561D01*
X407673Y-249353D01*
X407584Y-248892D01*
X407525Y-248432D01*
X407480Y-247986D01*
X407465Y-247778D01*
X407450Y-247585D01*
Y-247421D01*
X407435Y-247273D01*
Y-247154D01*
Y-247064D01*
Y-247005D01*
Y-246990D01*
X407450Y-246470D01*
Y-246247D01*
X407465Y-246024D01*
X407480Y-245816D01*
X407510Y-245623D01*
X407525Y-245460D01*
X407539Y-245296D01*
X407569Y-245163D01*
X407584Y-245029D01*
X407599Y-244925D01*
X407629Y-244851D01*
X407644Y-244776D01*
Y-244732D01*
X407658Y-244702D01*
Y-244687D01*
X407747Y-244375D01*
X407851Y-244093D01*
X407956Y-243840D01*
X408045Y-243632D01*
X408134Y-243469D01*
X408208Y-243335D01*
X408253Y-243261D01*
X408268Y-243231D01*
X408416Y-243023D01*
X408580Y-242845D01*
X408743Y-242681D01*
X408892Y-242547D01*
X409040Y-242458D01*
X409144Y-242384D01*
X409218Y-242339D01*
X409248Y-242325D01*
X409471Y-242220D01*
X409709Y-242131D01*
X409947Y-242072D01*
X410155Y-242042D01*
X410333Y-242013D01*
X410481Y-241998D01*
X410615D01*
X411002Y-242027D01*
D02*
G37*
G36*
X341357Y-241894D02*
X341699Y-241938D01*
X341996Y-241983D01*
X342264Y-242042D01*
X342472Y-242117D01*
X342561Y-242146D01*
X342635Y-242161D01*
X342710Y-242191D01*
X342754Y-242206D01*
X342769Y-242220D01*
X342784D01*
X343066Y-242354D01*
X343319Y-242518D01*
X343527Y-242681D01*
X343690Y-242830D01*
X343824Y-242978D01*
X343928Y-243097D01*
X343988Y-243172D01*
X344002Y-243186D01*
Y-243201D01*
X344136Y-243439D01*
X344240Y-243692D01*
X344314Y-243914D01*
X344359Y-244137D01*
X344389Y-244316D01*
X344418Y-244449D01*
Y-244509D01*
Y-244553D01*
Y-244568D01*
Y-244583D01*
X344404Y-244821D01*
X344359Y-245059D01*
X344314Y-245267D01*
X344240Y-245445D01*
X344181Y-245593D01*
X344136Y-245697D01*
X344091Y-245772D01*
X344077Y-245802D01*
X343928Y-245995D01*
X343765Y-246173D01*
X343601Y-246322D01*
X343423Y-246455D01*
X343274Y-246559D01*
X343155Y-246634D01*
X343066Y-246693D01*
X343051Y-246708D01*
X343036D01*
X342933Y-246767D01*
X342799Y-246812D01*
X342517Y-246916D01*
X342204Y-247020D01*
X341892Y-247124D01*
X341610Y-247198D01*
X341491Y-247228D01*
X341387Y-247258D01*
X341298Y-247287D01*
X341224Y-247302D01*
X341179Y-247317D01*
X341164D01*
X340927Y-247377D01*
X340704Y-247436D01*
X340496Y-247481D01*
X340317Y-247525D01*
X340169Y-247570D01*
X340020Y-247614D01*
X339901Y-247644D01*
X339782Y-247674D01*
X339693Y-247703D01*
X339619Y-247733D01*
X339500Y-247763D01*
X339441Y-247778D01*
X339426Y-247793D01*
X339218Y-247882D01*
X339025Y-247986D01*
X338876Y-248075D01*
X338757Y-248164D01*
X338668Y-248253D01*
X338594Y-248313D01*
X338564Y-248357D01*
X338549Y-248372D01*
X338460Y-248506D01*
X338400Y-248640D01*
X338341Y-248773D01*
X338311Y-248907D01*
X338297Y-249011D01*
X338282Y-249100D01*
Y-249160D01*
Y-249174D01*
X338297Y-249338D01*
X338326Y-249487D01*
X338371Y-249635D01*
X338415Y-249754D01*
X338475Y-249858D01*
X338519Y-249932D01*
X338549Y-249992D01*
X338564Y-250007D01*
X338683Y-250140D01*
X338817Y-250259D01*
X338950Y-250363D01*
X339099Y-250452D01*
X339218Y-250527D01*
X339322Y-250571D01*
X339381Y-250601D01*
X339411Y-250616D01*
X339634Y-250690D01*
X339857Y-250735D01*
X340065Y-250779D01*
X340273Y-250794D01*
X340436Y-250809D01*
X340585Y-250824D01*
X340704D01*
X341001Y-250809D01*
X341283Y-250779D01*
X341551Y-250735D01*
X341759Y-250675D01*
X341952Y-250631D01*
X342085Y-250586D01*
X342175Y-250556D01*
X342190Y-250541D01*
X342204D01*
X342427Y-250423D01*
X342635Y-250304D01*
X342799Y-250170D01*
X342933Y-250051D01*
X343051Y-249947D01*
X343126Y-249858D01*
X343170Y-249799D01*
X343185Y-249784D01*
X343289Y-249591D01*
X343378Y-249397D01*
X343438Y-249189D01*
X343497Y-248996D01*
X343527Y-248818D01*
X343557Y-248684D01*
X343571Y-248595D01*
Y-248580D01*
Y-248565D01*
X344790Y-248669D01*
X344760Y-249026D01*
X344701Y-249353D01*
X344612Y-249665D01*
X344522Y-249918D01*
X344433Y-250140D01*
X344389Y-250229D01*
X344344Y-250304D01*
X344314Y-250363D01*
X344285Y-250408D01*
X344270Y-250423D01*
Y-250438D01*
X344062Y-250705D01*
X343824Y-250943D01*
X343601Y-251136D01*
X343363Y-251299D01*
X343170Y-251433D01*
X343007Y-251522D01*
X342947Y-251552D01*
X342903Y-251582D01*
X342873Y-251597D01*
X342858D01*
X342502Y-251715D01*
X342130Y-251805D01*
X341759Y-251879D01*
X341417Y-251923D01*
X341253Y-251938D01*
X341105Y-251953D01*
X340971D01*
X340867Y-251968D01*
X340644D01*
X340258Y-251953D01*
X339916Y-251909D01*
X339589Y-251849D01*
X339322Y-251775D01*
X339084Y-251715D01*
X338995Y-251686D01*
X338921Y-251656D01*
X338861Y-251626D01*
X338817Y-251611D01*
X338787Y-251597D01*
X338772D01*
X338475Y-251433D01*
X338207Y-251270D01*
X337985Y-251091D01*
X337806Y-250913D01*
X337658Y-250764D01*
X337568Y-250646D01*
X337494Y-250556D01*
X337479Y-250527D01*
X337331Y-250274D01*
X337227Y-250007D01*
X337137Y-249754D01*
X337093Y-249531D01*
X337063Y-249338D01*
X337034Y-249189D01*
Y-249130D01*
Y-249085D01*
Y-249070D01*
Y-249056D01*
X337048Y-248773D01*
X337093Y-248506D01*
X337167Y-248268D01*
X337242Y-248075D01*
X337316Y-247897D01*
X337390Y-247778D01*
X337435Y-247703D01*
X337449Y-247674D01*
X337613Y-247466D01*
X337806Y-247273D01*
X338014Y-247094D01*
X338222Y-246946D01*
X338415Y-246842D01*
X338564Y-246752D01*
X338623Y-246723D01*
X338653Y-246693D01*
X338683Y-246678D01*
X338698D01*
X338817Y-246634D01*
X338965Y-246574D01*
X339114Y-246515D01*
X339292Y-246470D01*
X339649Y-246366D01*
X340005Y-246262D01*
X340332Y-246188D01*
X340481Y-246143D01*
X340615Y-246114D01*
X340718Y-246084D01*
X340793Y-246069D01*
X340852Y-246054D01*
X340867D01*
X341149Y-245980D01*
X341402Y-245920D01*
X341625Y-245861D01*
X341833Y-245787D01*
X342011Y-245727D01*
X342160Y-245683D01*
X342294Y-245623D01*
X342412Y-245564D01*
X342517Y-245519D01*
X342606Y-245490D01*
X342665Y-245445D01*
X342710Y-245415D01*
X342784Y-245371D01*
X342799Y-245356D01*
X342918Y-245222D01*
X343007Y-245088D01*
X343081Y-244940D01*
X343126Y-244806D01*
X343155Y-244687D01*
X343170Y-244583D01*
Y-244524D01*
Y-244494D01*
X343140Y-244271D01*
X343081Y-244078D01*
X343007Y-243900D01*
X342903Y-243751D01*
X342814Y-243617D01*
X342724Y-243528D01*
X342665Y-243469D01*
X342650Y-243454D01*
X342546Y-243379D01*
X342427Y-243305D01*
X342160Y-243201D01*
X341878Y-243127D01*
X341595Y-243082D01*
X341343Y-243038D01*
X341224D01*
X341135Y-243023D01*
X340941D01*
X340540Y-243038D01*
X340199Y-243097D01*
X339901Y-243172D01*
X339664Y-243261D01*
X339485Y-243350D01*
X339352Y-243424D01*
X339277Y-243484D01*
X339248Y-243498D01*
X339054Y-243692D01*
X338891Y-243914D01*
X338772Y-244137D01*
X338683Y-244360D01*
X338623Y-244568D01*
X338594Y-244732D01*
X338579Y-244791D01*
X338564Y-244836D01*
Y-244865D01*
Y-244880D01*
X337331Y-244791D01*
X337360Y-244479D01*
X337420Y-244197D01*
X337509Y-243929D01*
X337598Y-243706D01*
X337672Y-243528D01*
X337747Y-243379D01*
X337806Y-243290D01*
X337821Y-243261D01*
X337999Y-243023D01*
X338207Y-242815D01*
X338415Y-242637D01*
X338623Y-242488D01*
X338817Y-242384D01*
X338965Y-242295D01*
X339025Y-242265D01*
X339069Y-242250D01*
X339084Y-242235D01*
X339099D01*
X339411Y-242117D01*
X339738Y-242027D01*
X340065Y-241968D01*
X340362Y-241923D01*
X340615Y-241894D01*
X340718D01*
X340822Y-241879D01*
X341001D01*
X341357Y-241894D01*
D02*
G37*
G36*
X298073D02*
X298445Y-241938D01*
X298786Y-242013D01*
X299098Y-242087D01*
X299396Y-242206D01*
X299678Y-242310D01*
X299931Y-242443D01*
X300168Y-242562D01*
X300376Y-242696D01*
X300555Y-242830D01*
X300703Y-242934D01*
X300837Y-243038D01*
X300941Y-243127D01*
X301015Y-243201D01*
X301060Y-243246D01*
X301075Y-243261D01*
X301298Y-243528D01*
X301506Y-243810D01*
X301669Y-244122D01*
X301818Y-244435D01*
X301951Y-244746D01*
X302055Y-245059D01*
X302130Y-245371D01*
X302204Y-245668D01*
X302263Y-245965D01*
X302293Y-246218D01*
X302323Y-246455D01*
X302353Y-246663D01*
Y-246827D01*
X302367Y-246961D01*
Y-247035D01*
Y-247064D01*
X302338Y-247540D01*
X302278Y-247986D01*
X302189Y-248402D01*
X302145Y-248580D01*
X302085Y-248759D01*
X302041Y-248922D01*
X301996Y-249070D01*
X301951Y-249189D01*
X301907Y-249293D01*
X301862Y-249382D01*
X301847Y-249442D01*
X301818Y-249487D01*
Y-249501D01*
X301580Y-249903D01*
X301327Y-250274D01*
X301045Y-250571D01*
X300777Y-250839D01*
X300540Y-251047D01*
X300436Y-251121D01*
X300347Y-251195D01*
X300272Y-251240D01*
X300213Y-251285D01*
X300183Y-251299D01*
X300168Y-251314D01*
X299960Y-251433D01*
X299752Y-251522D01*
X299321Y-251686D01*
X298905Y-251805D01*
X298534Y-251879D01*
X298356Y-251909D01*
X298192Y-251938D01*
X298058Y-251953D01*
X297939D01*
X297835Y-251968D01*
X297702D01*
X297241Y-251938D01*
X296795Y-251879D01*
X296394Y-251775D01*
X296052Y-251671D01*
X295889Y-251611D01*
X295755Y-251567D01*
X295636Y-251507D01*
X295532Y-251463D01*
X295443Y-251433D01*
X295384Y-251403D01*
X295354Y-251374D01*
X295339D01*
X294953Y-251121D01*
X294611Y-250839D01*
X294314Y-250541D01*
X294076Y-250259D01*
X293898Y-250007D01*
X293824Y-249888D01*
X293749Y-249799D01*
X293705Y-249709D01*
X293675Y-249650D01*
X293645Y-249620D01*
Y-249605D01*
X293437Y-249160D01*
X293289Y-248699D01*
X293185Y-248253D01*
X293110Y-247837D01*
X293081Y-247644D01*
X293066Y-247481D01*
X293051Y-247332D01*
Y-247198D01*
X293036Y-247094D01*
Y-247005D01*
Y-246961D01*
Y-246946D01*
X293066Y-246411D01*
X293125Y-245920D01*
X293214Y-245475D01*
X293274Y-245281D01*
X293318Y-245088D01*
X293378Y-244925D01*
X293437Y-244776D01*
X293482Y-244643D01*
X293526Y-244538D01*
X293556Y-244449D01*
X293586Y-244390D01*
X293615Y-244345D01*
Y-244331D01*
X293853Y-243914D01*
X294106Y-243558D01*
X294388Y-243246D01*
X294656Y-242993D01*
X294893Y-242800D01*
X294997Y-242711D01*
X295086Y-242651D01*
X295161Y-242592D01*
X295220Y-242562D01*
X295250Y-242533D01*
X295265D01*
X295473Y-242414D01*
X295681Y-242310D01*
X296097Y-242161D01*
X296513Y-242042D01*
X296884Y-241953D01*
X297063Y-241938D01*
X297211Y-241908D01*
X297360Y-241894D01*
X297479D01*
X297568Y-241879D01*
X297702D01*
X298073Y-241894D01*
D02*
G37*
G36*
X418489Y-211170D02*
X419382Y-211304D01*
X420274Y-211482D01*
X421122Y-211706D01*
X421926Y-211973D01*
X422640Y-212330D01*
X423354Y-212643D01*
X423978Y-213000D01*
X424514Y-213357D01*
X425005Y-213669D01*
X425451Y-213982D01*
X425808Y-214294D01*
X426120Y-214517D01*
X426299Y-214696D01*
X426433Y-214830D01*
X426478Y-214874D01*
X427147Y-215588D01*
X427682Y-216302D01*
X428173Y-217061D01*
X428620Y-217820D01*
X428977Y-218578D01*
X429289Y-219337D01*
X429512Y-220051D01*
X429735Y-220720D01*
X429869Y-221345D01*
X430003Y-221970D01*
X430048Y-222461D01*
X430137Y-222907D01*
Y-223309D01*
X430182Y-223577D01*
Y-223755D01*
Y-223800D01*
X430137Y-224781D01*
X430003Y-225674D01*
X429825Y-226567D01*
X429602Y-227415D01*
X429334Y-228218D01*
X429021Y-228932D01*
X428664Y-229646D01*
X428307Y-230271D01*
X427995Y-230806D01*
X427638Y-231297D01*
X427325Y-231744D01*
X427058Y-232101D01*
X426834Y-232413D01*
X426656Y-232591D01*
X426522Y-232725D01*
X426478Y-232770D01*
X425764Y-233439D01*
X425049Y-233975D01*
X424291Y-234466D01*
X423532Y-234912D01*
X422773Y-235269D01*
X422015Y-235581D01*
X421301Y-235805D01*
X420587Y-236028D01*
X419962Y-236162D01*
X419382Y-236296D01*
X418846Y-236340D01*
X418400Y-236429D01*
X417998D01*
X417730Y-236474D01*
X417061D01*
X416615Y-236429D01*
X416213D01*
Y-232591D01*
X416659Y-232636D01*
X417061Y-232681D01*
X417507D01*
X418177Y-232636D01*
X418846Y-232547D01*
X419426Y-232458D01*
X420051Y-232279D01*
X421122Y-231877D01*
X422015Y-231386D01*
X422416Y-231163D01*
X422773Y-230896D01*
X423086Y-230672D01*
X423309Y-230494D01*
X423532Y-230315D01*
X423666Y-230182D01*
X423755Y-230137D01*
X423800Y-230092D01*
X424246Y-229601D01*
X424648Y-229066D01*
X425005Y-228530D01*
X425273Y-227995D01*
X425540Y-227504D01*
X425764Y-226968D01*
X426076Y-225986D01*
X426254Y-225094D01*
X426299Y-224737D01*
X426344Y-224424D01*
X426388Y-224157D01*
Y-223978D01*
Y-223844D01*
Y-223800D01*
X426344Y-223130D01*
X426254Y-222461D01*
X426165Y-221881D01*
X425987Y-221256D01*
X425585Y-220229D01*
X425094Y-219292D01*
X424871Y-218891D01*
X424603Y-218578D01*
X424380Y-218266D01*
X424202Y-217998D01*
X424023Y-217820D01*
X423889Y-217686D01*
X423844Y-217596D01*
X423800Y-217552D01*
X423309Y-217106D01*
X422773Y-216659D01*
X422238Y-216347D01*
X421702Y-216035D01*
X421167Y-215767D01*
X420631Y-215544D01*
X419650Y-215231D01*
X418801Y-215053D01*
X418445Y-215008D01*
X418132Y-214963D01*
X417864Y-214919D01*
X417061D01*
X416615Y-214963D01*
X416436D01*
X416347Y-215008D01*
X416213D01*
X416258Y-211215D01*
X416659Y-211170D01*
X417061Y-211125D01*
X417507D01*
X418489Y-211170D01*
D02*
G37*
G36*
X396934D02*
X397826Y-211304D01*
X398719Y-211482D01*
X399567Y-211706D01*
X400370Y-211973D01*
X401084Y-212330D01*
X401798Y-212643D01*
X402423Y-213000D01*
X402959Y-213357D01*
X403450Y-213669D01*
X403896Y-213982D01*
X404253Y-214294D01*
X404565Y-214517D01*
X404744Y-214696D01*
X404878Y-214830D01*
X404922Y-214874D01*
X405592Y-215588D01*
X406127Y-216302D01*
X406618Y-217061D01*
X407064Y-217820D01*
X407421Y-218578D01*
X407734Y-219337D01*
X407957Y-220051D01*
X408180Y-220720D01*
X408314Y-221345D01*
X408448Y-221970D01*
X408493Y-222461D01*
X408582Y-222907D01*
Y-223309D01*
X408626Y-223577D01*
Y-223755D01*
Y-223800D01*
X408582Y-224781D01*
X408448Y-225674D01*
X408269Y-226567D01*
X408046Y-227415D01*
X407779Y-228218D01*
X407466Y-228932D01*
X407109Y-229646D01*
X406752Y-230271D01*
X406440Y-230806D01*
X406083Y-231297D01*
X405770Y-231744D01*
X405502Y-232101D01*
X405279Y-232413D01*
X405101Y-232591D01*
X404967Y-232725D01*
X404922Y-232770D01*
X404208Y-233439D01*
X403494Y-233975D01*
X402735Y-234466D01*
X401977Y-234912D01*
X401218Y-235269D01*
X400460Y-235581D01*
X399745Y-235805D01*
X399031Y-236028D01*
X398407Y-236162D01*
X397826Y-236296D01*
X397291Y-236340D01*
X396845Y-236429D01*
X396443D01*
X396175Y-236474D01*
X395506D01*
X395104Y-236429D01*
X394702D01*
Y-232591D01*
X395149Y-232636D01*
X395550Y-232681D01*
X395952D01*
X396532Y-232636D01*
X397068Y-232591D01*
X398139Y-232368D01*
X399076Y-232056D01*
X399924Y-231699D01*
X400593Y-231342D01*
X400861Y-231163D01*
X401084Y-231029D01*
X401263Y-230896D01*
X401397Y-230806D01*
X401486Y-230717D01*
X401531D01*
X402334Y-229958D01*
X403048Y-229110D01*
X403583Y-228263D01*
X403985Y-227459D01*
X404253Y-226790D01*
X404387Y-226477D01*
X404476Y-226210D01*
X404521Y-226031D01*
X404565Y-225853D01*
X404610Y-225763D01*
Y-225719D01*
X397202D01*
Y-221925D01*
X404610D01*
X404297Y-220810D01*
X403851Y-219828D01*
X403360Y-218980D01*
X402825Y-218266D01*
X402334Y-217686D01*
X401932Y-217239D01*
X401754Y-217061D01*
X401620Y-216972D01*
X401575Y-216882D01*
X401531D01*
X401084Y-216525D01*
X400593Y-216213D01*
X399612Y-215767D01*
X398674Y-215410D01*
X397826Y-215142D01*
X397068Y-215008D01*
X396755Y-214963D01*
X396488D01*
X396264Y-214919D01*
X395506D01*
X395104Y-214963D01*
X394792Y-215008D01*
X394702D01*
Y-211215D01*
X395193Y-211170D01*
X395595Y-211125D01*
X395952D01*
X396934Y-211170D01*
D02*
G37*
%LPC*%
G36*
X361545Y-214505D02*
X361456D01*
X357707Y-221869D01*
X357752D01*
X357886Y-221958D01*
X358064Y-222003D01*
X358243Y-222092D01*
X358466Y-222181D01*
X358644Y-222226D01*
X358778Y-222315D01*
X358823D01*
X359225Y-222494D01*
X359537Y-222761D01*
X359849Y-223029D01*
X360072Y-223342D01*
X360251Y-223609D01*
X360385Y-223788D01*
X360429Y-223966D01*
X360474Y-224011D01*
X360697Y-224413D01*
X361054Y-224814D01*
X361411Y-225216D01*
X361813Y-225528D01*
X362170Y-225841D01*
X362482Y-226064D01*
X362661Y-226242D01*
X362750Y-226287D01*
X363375Y-226733D01*
X363575Y-226883D01*
X367221Y-224970D01*
X368719Y-226836D01*
X365566Y-228480D01*
X365562Y-228474D01*
X365517Y-228429D01*
X365383Y-228295D01*
X365115Y-228072D01*
X364803Y-227804D01*
X364401Y-227492D01*
X363910Y-227135D01*
X363575Y-226883D01*
X352039Y-232937D01*
X350254Y-236462D01*
X365566Y-228480D01*
X365740Y-228697D01*
X366008Y-229009D01*
X366365Y-229366D01*
X366677Y-229768D01*
X366990Y-230125D01*
X367257Y-230437D01*
X367391Y-230661D01*
X367481Y-230750D01*
X367972Y-231330D01*
X368161Y-231541D01*
X368105Y-231642D01*
X368150Y-231687D01*
X368239Y-231821D01*
X368418Y-232044D01*
X368462Y-232089D01*
X368596Y-232222D01*
X368730Y-232401D01*
X368864Y-232535D01*
X368909D01*
X368953Y-232580D01*
X369132Y-232624D01*
X369400D01*
X369534Y-232580D01*
X369578D01*
X369310Y-232535D01*
X368998D01*
X368953Y-232490D01*
X368909Y-232446D01*
X368820Y-232312D01*
X368641Y-232089D01*
X368373Y-231776D01*
X368161Y-231541D01*
X368820Y-230348D01*
X368864Y-230304D01*
X368953Y-230259D01*
X369087Y-230214D01*
X369132D01*
X369310Y-230125D01*
X369489Y-230036D01*
X369578D01*
X369757Y-230080D01*
X369891Y-230214D01*
X369935Y-230393D01*
X369980Y-230437D01*
X370024Y-230527D01*
X370069Y-230661D01*
X370114Y-230839D01*
Y-230884D01*
X370158Y-231107D01*
Y-231196D01*
Y-231241D01*
Y-231285D01*
X370203Y-231375D01*
X370248Y-231464D01*
Y-231509D01*
X370292Y-231687D01*
Y-231776D01*
Y-231866D01*
Y-232044D01*
Y-232178D01*
Y-232267D01*
X370203Y-232401D01*
X370069Y-232446D01*
X369891Y-232535D01*
X369846D01*
X369712Y-232580D01*
X369891D01*
X370114Y-232535D01*
X370426Y-232401D01*
X370649Y-232267D01*
X370738Y-232178D01*
X370872Y-231955D01*
X370917Y-231642D01*
Y-231330D01*
X370872Y-230973D01*
X370828Y-230661D01*
X370738Y-230393D01*
X370694Y-230170D01*
X370649Y-230125D01*
X370471Y-229590D01*
X370292Y-229188D01*
X370203Y-228920D01*
X370158Y-228697D01*
X370114Y-228608D01*
X370069Y-228563D01*
Y-228518D01*
X368719Y-226836D01*
X370193Y-226068D01*
X369862Y-224780D01*
X369801Y-224993D01*
X369667Y-224020D01*
X369862Y-224780D01*
X369980Y-224368D01*
X370058Y-224359D01*
X370024Y-224189D01*
X369970Y-224054D01*
X369625Y-223715D01*
X369667Y-224020D01*
X369592Y-223726D01*
X367221Y-224970D01*
X367168Y-224904D01*
Y-224859D01*
X367124Y-224770D01*
X367079Y-224591D01*
X366990Y-224413D01*
X366945Y-224234D01*
X366900Y-224056D01*
X366856Y-223966D01*
Y-223922D01*
X366722Y-223565D01*
X366677Y-223297D01*
X366633Y-223074D01*
Y-222940D01*
Y-222806D01*
Y-222761D01*
X366677Y-222717D01*
X366856Y-222583D01*
X367079Y-222494D01*
X367302Y-222449D01*
X367391D01*
X367748Y-222360D01*
X368016Y-222226D01*
X368074Y-222169D01*
X368061Y-222137D01*
Y-222092D01*
Y-221958D01*
X368150Y-221780D01*
X368329Y-221423D01*
X368507Y-221155D01*
X368552Y-221066D01*
X368596Y-221021D01*
X368775Y-220798D01*
X368953Y-220619D01*
X369087Y-220530D01*
X369221Y-220485D01*
X369444D01*
X369891Y-220709D01*
X369712Y-220664D01*
X369489Y-220619D01*
X369310D01*
X369803Y-222176D01*
X369913Y-222314D01*
X369578Y-220798D01*
X369801Y-221066D01*
X370694Y-221958D01*
X371319Y-222315D01*
X371518Y-222715D01*
X370573Y-223211D01*
X370382Y-222895D01*
X369913Y-222314D01*
X370070Y-223021D01*
X369803Y-222176D01*
X368909Y-221066D01*
X369411Y-223022D01*
X369667Y-223118D01*
X369904Y-223562D01*
X370160Y-223428D01*
X370070Y-223021D01*
X370193Y-223410D01*
X370573Y-223211D01*
X371006Y-223922D01*
X371634Y-224591D01*
X371452D01*
X370783Y-224279D01*
X370478Y-224313D01*
X370193Y-223410D01*
X370160Y-223428D01*
X370359Y-224326D01*
X370314Y-224331D01*
X370382Y-224457D01*
X370259Y-224337D01*
X370058Y-224359D01*
X370069Y-224413D01*
Y-224591D01*
Y-224680D01*
X370114Y-225037D01*
X370158Y-225350D01*
X370203Y-225573D01*
Y-225618D01*
Y-225662D01*
Y-225930D01*
Y-226063D01*
X370687Y-225810D01*
X371077Y-227574D01*
X371096Y-227537D01*
X371140Y-227447D01*
X371185Y-227358D01*
X371319Y-227135D01*
Y-227001D01*
X371317Y-226965D01*
X370914Y-225692D01*
X371432Y-225422D01*
X371274Y-225930D01*
X371317Y-226965D01*
X371982Y-229068D01*
X371988Y-229054D01*
X372033Y-228965D01*
X372211Y-228697D01*
X372345Y-228429D01*
X372434Y-228251D01*
X372479Y-228206D01*
X372613Y-227983D01*
X372658Y-227849D01*
X372702Y-227804D01*
Y-226198D01*
X373104Y-225171D01*
X373179Y-224757D01*
X372952Y-224629D01*
X371432Y-225422D01*
X371676Y-224636D01*
X371634Y-224591D01*
X371810D01*
X372167Y-224189D01*
X372952Y-224629D01*
X373081Y-224562D01*
X371720Y-223118D01*
X371518Y-222715D01*
X372104Y-222407D01*
X372122Y-222449D01*
X372479Y-223074D01*
X372658Y-223297D01*
X372791Y-223520D01*
X372925Y-223654D01*
X372970Y-223699D01*
X373282Y-224056D01*
X373505Y-224323D01*
X373517Y-224335D01*
X373081Y-224562D01*
X373193Y-224680D01*
X373179Y-224757D01*
X373282Y-224814D01*
X373372Y-224457D01*
X373907Y-224770D01*
X373952Y-224814D01*
X373996Y-224859D01*
Y-224948D01*
X373952Y-225171D01*
Y-225484D01*
X373907Y-225796D01*
Y-226153D01*
X373862Y-226466D01*
Y-226689D01*
Y-226733D01*
Y-226778D01*
X373818Y-227403D01*
Y-227894D01*
Y-228251D01*
Y-228518D01*
Y-228652D01*
X373862Y-228786D01*
Y-228831D01*
X373728Y-228965D01*
X373639Y-229099D01*
X373372Y-229500D01*
X373282Y-229679D01*
X373193Y-229857D01*
X373148Y-229946D01*
Y-229991D01*
X373014Y-230304D01*
X372881Y-230571D01*
X372791Y-230750D01*
X372702Y-230884D01*
X372613Y-231018D01*
X372599D01*
X372613Y-231062D01*
Y-231018D01*
X372658D01*
Y-230973D01*
X372702Y-231107D01*
Y-231152D01*
X372747Y-231241D01*
X372791Y-231330D01*
X372881Y-231419D01*
X372925Y-231464D01*
X373104Y-231598D01*
X373238Y-231642D01*
X373282D01*
Y-231598D01*
X373327Y-231464D01*
X373372Y-231375D01*
Y-231330D01*
X373461Y-231107D01*
X373550Y-230973D01*
X373595Y-230884D01*
X373639Y-230839D01*
X373773Y-230705D01*
X373818Y-230661D01*
X373907Y-230616D01*
X373996Y-230527D01*
X374219Y-230750D01*
X373282Y-231642D01*
X373416D01*
X373550Y-231598D01*
X373639D01*
X373684Y-231553D01*
X373773D01*
X373952Y-231419D01*
X373996Y-231375D01*
X374041D01*
X374219Y-231241D01*
X374309Y-231196D01*
X374398Y-231107D01*
X374487Y-231018D01*
X374576Y-230973D01*
X374621Y-230928D01*
X374800Y-230795D01*
X374844Y-230750D01*
X374934Y-230571D01*
X374978Y-230482D01*
X375023D01*
X375157Y-230348D01*
X375290Y-230170D01*
X375469Y-230036D01*
X375514Y-229946D01*
X375737Y-229634D01*
X375826Y-229411D01*
X375871Y-229322D01*
Y-229277D01*
X375915Y-228965D01*
X376005Y-228563D01*
X376049Y-228117D01*
X376138Y-227670D01*
X376183Y-227269D01*
X376228Y-226912D01*
X376272Y-226689D01*
Y-226599D01*
X376362Y-225930D01*
X376406Y-225350D01*
X376451Y-224904D01*
Y-224591D01*
Y-224323D01*
X376406Y-224189D01*
Y-224100D01*
Y-224056D01*
X376362Y-223922D01*
X376272Y-223743D01*
X376183Y-223520D01*
X376094Y-223297D01*
X375987Y-223048D01*
X373557Y-224314D01*
X373416Y-224145D01*
X373104Y-223788D01*
X373059Y-223743D01*
X372970Y-223609D01*
X372791Y-223431D01*
X372613Y-223163D01*
X372256Y-222672D01*
X372122Y-222404D01*
X372120Y-222399D01*
X374948Y-220915D01*
X374934Y-220887D01*
X374844Y-220709D01*
X374755Y-220530D01*
X374710Y-220441D01*
Y-220396D01*
X374398Y-219816D01*
X374130Y-219325D01*
X373862Y-218923D01*
X373595Y-218522D01*
X373372Y-218209D01*
X373148Y-217986D01*
X372970Y-217763D01*
X372747Y-217585D01*
X372434Y-217362D01*
X372211Y-217228D01*
X372077Y-217183D01*
X371810D01*
X371542Y-217138D01*
X371185Y-217049D01*
X370828Y-216960D01*
X370471Y-216915D01*
X370203Y-216826D01*
X370024Y-216781D01*
X369935D01*
X368641Y-216469D01*
X368016Y-216335D01*
X367481Y-216201D01*
X366990Y-216067D01*
X366633Y-215978D01*
X366410Y-215889D01*
X366320D01*
X365651Y-215710D01*
X365026Y-215532D01*
X364446Y-215353D01*
X363955Y-215219D01*
X363553Y-215086D01*
X363241Y-215041D01*
X363018Y-214952D01*
X362973D01*
X362482Y-214818D01*
X362081Y-214684D01*
X361813Y-214595D01*
X361634Y-214550D01*
X361545Y-214505D01*
D02*
G37*
G36*
X368418Y-221958D02*
X368284Y-222003D01*
X368195Y-222047D01*
X368074Y-222169D01*
X368090Y-222210D01*
X368613Y-222723D01*
X369284Y-222975D01*
X368909Y-222449D01*
X368864Y-222404D01*
X368820Y-222315D01*
X368686Y-222181D01*
X368641Y-222137D01*
X368552Y-222047D01*
X368418Y-221958D01*
D02*
G37*
G36*
X376362Y-220173D02*
X374948Y-220915D01*
X375201Y-221423D01*
X375514Y-222047D01*
X375826Y-222672D01*
X375987Y-223048D01*
X377477Y-222271D01*
X376362Y-220173D01*
D02*
G37*
G36*
X368061Y-222181D02*
X368239Y-222583D01*
X368382Y-222637D01*
X368418Y-222672D01*
X368596Y-222851D01*
X368864Y-223074D01*
X368909Y-223118D01*
X368998Y-223163D01*
X369221Y-223386D01*
X369489Y-223609D01*
X369546Y-223638D01*
X369577Y-223668D01*
X369592Y-223726D01*
X369620Y-223711D01*
X369577Y-223668D01*
X369572Y-223651D01*
X369578Y-223654D01*
X369623Y-223699D01*
X369624Y-223709D01*
X369758Y-223638D01*
X369463Y-223225D01*
X369411Y-223022D01*
X369284Y-222975D01*
X369463Y-223225D01*
X369572Y-223651D01*
X369546Y-223638D01*
X368613Y-222723D01*
X368382Y-222637D01*
X368239Y-222494D01*
X368150Y-222360D01*
X368090Y-222210D01*
X368061Y-222181D01*
D02*
G37*
G36*
X369624Y-223709D02*
X369620Y-223711D01*
X369625Y-223715D01*
X369624Y-223709D01*
D02*
G37*
G36*
X369904Y-223562D02*
X369758Y-223638D01*
X369801Y-223699D01*
Y-223743D01*
X369846Y-223832D01*
X369891Y-223922D01*
X369935Y-223966D01*
X369970Y-224054D01*
X370259Y-224337D01*
X370314Y-224331D01*
X369904Y-223562D01*
D02*
G37*
G36*
X370203Y-226063D02*
X370193Y-226068D01*
X370203Y-226108D01*
Y-226064D01*
Y-226063D01*
D02*
G37*
G36*
Y-226108D02*
Y-226153D01*
Y-226198D01*
X370158Y-226242D01*
Y-226332D01*
X370203Y-226599D01*
X370248Y-226823D01*
X370292Y-226867D01*
Y-226912D01*
Y-227224D01*
Y-227537D01*
X370426Y-228027D01*
X370471Y-228251D01*
X370560Y-228385D01*
X370605Y-228474D01*
Y-228518D01*
X370738Y-228786D01*
X370828Y-228965D01*
X370917Y-229099D01*
X370872Y-228876D01*
Y-228742D01*
Y-228715D01*
X371022Y-229298D01*
X371006Y-229277D01*
X370962Y-229188D01*
X371006Y-229322D01*
Y-229366D01*
X371051Y-229411D01*
X371022Y-229298D01*
X371140Y-229456D01*
X371229Y-229590D01*
X371408Y-229768D01*
X371497Y-229857D01*
X371597Y-229924D01*
X371077Y-227574D01*
X371051Y-227626D01*
X370962Y-227804D01*
Y-227849D01*
X370917Y-227983D01*
X370872Y-228161D01*
Y-228295D01*
X370828Y-228340D01*
Y-228385D01*
Y-228429D01*
Y-228518D01*
X370872Y-228608D01*
Y-228652D01*
Y-228715D01*
X370203Y-226108D01*
D02*
G37*
G36*
X371597Y-229924D02*
X371720Y-230482D01*
Y-230437D01*
Y-230393D01*
Y-230214D01*
X371738Y-230161D01*
X371720Y-230125D01*
X371676Y-230036D01*
Y-229991D01*
X371631Y-229946D01*
X371597Y-229924D01*
D02*
G37*
G36*
X371982Y-229068D02*
X371899Y-229277D01*
X371810Y-229590D01*
X371765Y-229991D01*
Y-230080D01*
X371738Y-230161D01*
X371765Y-230214D01*
X371810Y-230304D01*
Y-230348D01*
X371899Y-230527D01*
X371988Y-230661D01*
X372122Y-230750D01*
X372167Y-230795D01*
X372345Y-230928D01*
X372479Y-230973D01*
X372568Y-231018D01*
X372599D01*
X371982Y-229068D01*
D02*
G37*
%LPD*%
G36*
X369891Y-220709D02*
D01*
D01*
D01*
D02*
G37*
G36*
X369980Y-220753D02*
X369935D01*
X369891Y-220709D01*
X369980Y-220753D01*
D02*
G37*
G36*
X370248Y-220842D02*
X370426Y-220932D01*
X370515Y-220976D01*
X370560D01*
X370694Y-221066D01*
X370426Y-220976D01*
X370158Y-220842D01*
X369980Y-220753D01*
X370248Y-220842D01*
D02*
G37*
G36*
X370917Y-221155D02*
X371051Y-221199D01*
X371140Y-221244D01*
X371185D01*
X371408Y-221333D01*
X371586Y-221423D01*
X371720Y-221512D01*
X371810Y-221601D01*
X371899Y-221735D01*
Y-221824D01*
X371912Y-221872D01*
X371810Y-221735D01*
X371765Y-221646D01*
X371631D01*
X371542Y-221601D01*
X371452D01*
X371408Y-221556D01*
X371319Y-221467D01*
X371096Y-221333D01*
X371051Y-221289D01*
X370872Y-221199D01*
X370694Y-221066D01*
X370917Y-221155D01*
D02*
G37*
G36*
X371943Y-221914D02*
X371988Y-222092D01*
X372033Y-222137D01*
Y-222181D01*
X372120Y-222399D01*
X372104Y-222407D01*
X371988Y-222137D01*
X371912Y-221872D01*
X371943Y-221914D01*
D02*
G37*
G36*
X373639Y-224413D02*
X373773Y-224591D01*
X373862Y-224725D01*
X373773Y-224636D01*
X373684Y-224502D01*
X373517Y-224335D01*
X373557Y-224314D01*
X373639Y-224413D01*
D02*
G37*
G36*
X370914Y-225692D02*
X370687Y-225810D01*
X370359Y-224326D01*
X370478Y-224313D01*
X370914Y-225692D01*
D02*
G37*
%LPC*%
G36*
X428164Y-243053D02*
X428060Y-243379D01*
X427956Y-243721D01*
X427837Y-244063D01*
X427718Y-244390D01*
X427629Y-244672D01*
X427584Y-244791D01*
X427540Y-244895D01*
X427510Y-244984D01*
X427480Y-245044D01*
X427465Y-245088D01*
Y-245103D01*
X426455Y-247793D01*
X429768D01*
X428699Y-244940D01*
X428580Y-244598D01*
X428476Y-244256D01*
X428387Y-243944D01*
X428312Y-243647D01*
X428253Y-243409D01*
X428223Y-243305D01*
X428194Y-243216D01*
X428179Y-243142D01*
Y-243097D01*
X428164Y-243067D01*
Y-243053D01*
D02*
G37*
G36*
X370347Y-243186D02*
X367569D01*
X367301Y-243201D01*
X367093Y-243216D01*
X366930Y-243231D01*
X366811Y-243246D01*
X366722Y-243261D01*
X366677Y-243276D01*
X366662D01*
X366484Y-243350D01*
X366321Y-243424D01*
X366187Y-243528D01*
X366068Y-243617D01*
X365964Y-243706D01*
X365905Y-243781D01*
X365860Y-243840D01*
X365845Y-243855D01*
X365741Y-244018D01*
X365667Y-244197D01*
X365607Y-244375D01*
X365578Y-244538D01*
X365548Y-244687D01*
X365533Y-244806D01*
Y-244880D01*
Y-244910D01*
X365563Y-245207D01*
X365622Y-245475D01*
X365696Y-245697D01*
X365801Y-245876D01*
X365905Y-246024D01*
X365979Y-246128D01*
X366038Y-246203D01*
X366068Y-246218D01*
X366172Y-246292D01*
X366291Y-246366D01*
X366558Y-246485D01*
X366856Y-246559D01*
X367153Y-246619D01*
X367420Y-246649D01*
X367524Y-246663D01*
X367628D01*
X367717Y-246678D01*
X370347D01*
Y-243186D01*
D02*
G37*
G36*
X359218Y-243053D02*
X359114Y-243379D01*
X359010Y-243721D01*
X358891Y-244063D01*
X358772Y-244390D01*
X358683Y-244672D01*
X358638Y-244791D01*
X358594Y-244895D01*
X358564Y-244984D01*
X358535Y-245044D01*
X358520Y-245088D01*
Y-245103D01*
X357509Y-247793D01*
X360823D01*
X359753Y-244940D01*
X359634Y-244598D01*
X359530Y-244256D01*
X359441Y-243944D01*
X359367Y-243647D01*
X359307Y-243409D01*
X359277Y-243305D01*
X359248Y-243216D01*
X359233Y-243142D01*
Y-243097D01*
X359218Y-243067D01*
Y-243053D01*
D02*
G37*
G36*
X309767Y-243186D02*
X306989D01*
X306721Y-243201D01*
X306513Y-243216D01*
X306350Y-243231D01*
X306231Y-243246D01*
X306142Y-243261D01*
X306097Y-243276D01*
X306082D01*
X305904Y-243350D01*
X305740Y-243424D01*
X305607Y-243528D01*
X305488Y-243617D01*
X305384Y-243706D01*
X305324Y-243781D01*
X305280Y-243840D01*
X305265Y-243855D01*
X305161Y-244018D01*
X305087Y-244197D01*
X305027Y-244375D01*
X304998Y-244538D01*
X304968Y-244687D01*
X304953Y-244806D01*
Y-244880D01*
Y-244910D01*
X304983Y-245207D01*
X305042Y-245475D01*
X305116Y-245697D01*
X305220Y-245876D01*
X305324Y-246024D01*
X305399Y-246128D01*
X305458Y-246203D01*
X305488Y-246218D01*
X305592Y-246292D01*
X305711Y-246366D01*
X305978Y-246485D01*
X306275Y-246559D01*
X306572Y-246619D01*
X306840Y-246649D01*
X306944Y-246663D01*
X307048D01*
X307137Y-246678D01*
X309767D01*
Y-243186D01*
D02*
G37*
G36*
X410704Y-242993D02*
X410630D01*
X410481Y-243008D01*
X410333Y-243023D01*
X410065Y-243112D01*
X409828Y-243246D01*
X409620Y-243394D01*
X409456Y-243543D01*
X409337Y-243677D01*
X409263Y-243766D01*
X409233Y-243781D01*
Y-243796D01*
X409129Y-243959D01*
X409040Y-244152D01*
X408966Y-244375D01*
X408907Y-244628D01*
X408802Y-245148D01*
X408743Y-245683D01*
X408713Y-245950D01*
X408698Y-246188D01*
X408684Y-246411D01*
Y-246604D01*
X408669Y-246767D01*
Y-246886D01*
Y-246961D01*
Y-246990D01*
Y-247421D01*
X408698Y-247822D01*
X408713Y-248179D01*
X408758Y-248506D01*
X408802Y-248803D01*
X408847Y-249070D01*
X408892Y-249293D01*
X408951Y-249501D01*
X409011Y-249665D01*
X409055Y-249813D01*
X409100Y-249947D01*
X409144Y-250036D01*
X409174Y-250111D01*
X409204Y-250155D01*
X409233Y-250185D01*
Y-250200D01*
X409337Y-250333D01*
X409456Y-250452D01*
X409575Y-250571D01*
X409694Y-250660D01*
X409917Y-250794D01*
X410140Y-250883D01*
X410333Y-250943D01*
X410481Y-250972D01*
X410541Y-250987D01*
X410615D01*
X410764Y-250972D01*
X410912Y-250958D01*
X411180Y-250868D01*
X411418Y-250735D01*
X411626Y-250586D01*
X411789Y-250452D01*
X411908Y-250319D01*
X411982Y-250229D01*
X412012Y-250215D01*
Y-250200D01*
X412101Y-250036D01*
X412190Y-249828D01*
X412265Y-249605D01*
X412324Y-249368D01*
X412428Y-248833D01*
X412487Y-248298D01*
X412517Y-248045D01*
X412532Y-247793D01*
X412547Y-247570D01*
Y-247377D01*
X412562Y-247213D01*
Y-247094D01*
Y-247020D01*
Y-246990D01*
Y-246559D01*
X412532Y-246158D01*
X412502Y-245802D01*
X412473Y-245475D01*
X412413Y-245163D01*
X412369Y-244895D01*
X412309Y-244657D01*
X412250Y-244449D01*
X412205Y-244271D01*
X412146Y-244108D01*
X412086Y-243989D01*
X412042Y-243885D01*
X412012Y-243810D01*
X411982Y-243751D01*
X411953Y-243721D01*
Y-243706D01*
X411863Y-243587D01*
X411759Y-243469D01*
X411536Y-243290D01*
X411314Y-243172D01*
X411106Y-243082D01*
X410912Y-243023D01*
X410764Y-243008D01*
X410704Y-242993D01*
D02*
G37*
G36*
X297835D02*
X297702D01*
X297345Y-243008D01*
X297018Y-243067D01*
X296721Y-243142D01*
X296468Y-243231D01*
X296260Y-243335D01*
X296097Y-243409D01*
X296038Y-243439D01*
X295993Y-243469D01*
X295978Y-243484D01*
X295963D01*
X295696Y-243677D01*
X295458Y-243900D01*
X295250Y-244137D01*
X295086Y-244360D01*
X294953Y-244553D01*
X294864Y-244717D01*
X294834Y-244776D01*
X294804Y-244821D01*
X294789Y-244851D01*
Y-244865D01*
X294656Y-245207D01*
X294552Y-245564D01*
X294477Y-245920D01*
X294418Y-246232D01*
X294388Y-246515D01*
Y-246649D01*
X294373Y-246752D01*
Y-246827D01*
Y-246886D01*
Y-246931D01*
Y-246946D01*
X294388Y-247287D01*
X294418Y-247614D01*
X294463Y-247911D01*
X294522Y-248194D01*
X294596Y-248461D01*
X294671Y-248699D01*
X294760Y-248907D01*
X294849Y-249115D01*
X294938Y-249279D01*
X295027Y-249427D01*
X295101Y-249561D01*
X295176Y-249665D01*
X295235Y-249754D01*
X295280Y-249813D01*
X295309Y-249843D01*
X295324Y-249858D01*
X295503Y-250036D01*
X295696Y-250185D01*
X295889Y-250319D01*
X296097Y-250438D01*
X296290Y-250541D01*
X296498Y-250616D01*
X296870Y-250735D01*
X297048Y-250779D01*
X297211Y-250809D01*
X297345Y-250839D01*
X297479Y-250854D01*
X297583Y-250868D01*
X297717D01*
X297984Y-250854D01*
X298222Y-250824D01*
X298459Y-250779D01*
X298682Y-250705D01*
X298905Y-250631D01*
X299098Y-250541D01*
X299277Y-250452D01*
X299440Y-250363D01*
X299589Y-250274D01*
X299722Y-250170D01*
X299827Y-250096D01*
X299916Y-250021D01*
X299990Y-249947D01*
X300049Y-249903D01*
X300079Y-249873D01*
X300094Y-249858D01*
X300257Y-249665D01*
X300406Y-249442D01*
X300525Y-249219D01*
X300629Y-248996D01*
X300718Y-248759D01*
X300807Y-248536D01*
X300911Y-248090D01*
X300956Y-247882D01*
X300986Y-247689D01*
X301000Y-247525D01*
X301015Y-247377D01*
X301030Y-247243D01*
Y-247154D01*
Y-247094D01*
Y-247079D01*
X301015Y-246678D01*
X300986Y-246307D01*
X300941Y-245980D01*
X300882Y-245668D01*
X300807Y-245371D01*
X300718Y-245118D01*
X300629Y-244895D01*
X300540Y-244687D01*
X300451Y-244509D01*
X300361Y-244360D01*
X300272Y-244226D01*
X300198Y-244122D01*
X300139Y-244048D01*
X300094Y-243989D01*
X300064Y-243959D01*
X300049Y-243944D01*
X299856Y-243781D01*
X299663Y-243632D01*
X299470Y-243498D01*
X299262Y-243394D01*
X299069Y-243305D01*
X298876Y-243231D01*
X298504Y-243112D01*
X298341Y-243067D01*
X298192Y-243038D01*
X298043Y-243023D01*
X297925Y-243008D01*
X297835Y-242993D01*
D02*
G37*
%LPD*%
D15*
X584870Y-492414D02*
X589950Y-507654D01*
X595030Y-492414D01*
X589950Y25746D02*
X595030Y10506D01*
X584870D02*
X589950Y25746D01*
Y-507654D02*
Y-297326D01*
Y-192710D02*
Y25746D01*
X536864Y-507654D02*
X592490D01*
X538388Y25746D02*
X592490D01*
X-21682Y104738D02*
X-6442Y109817D01*
X-21682Y104738D02*
X-6442Y99657D01*
X522050D02*
X537290Y104738D01*
X522050Y109817D02*
X537290Y104738D01*
X-21682D02*
X200162D01*
X307318D02*
X537290D01*
X-21682Y28286D02*
Y107277D01*
X537290Y29678D02*
Y107277D01*
X-75946Y-465074D02*
X-70866Y-480314D01*
X-65786Y-465074D01*
X-70866Y-1270D02*
X-65786Y-16510D01*
X-75946D02*
X-70866Y-1270D01*
Y-480314D02*
Y-297164D01*
Y-192548D02*
Y-1270D01*
X-73406Y-480314D02*
X-23620D01*
X-73406Y-1270D02*
X-24382D01*
X-127254Y-492506D02*
X-122174Y-507746D01*
X-117094Y-492506D01*
X-122174Y25654D02*
X-117094Y10414D01*
X-127254D02*
X-122174Y25654D01*
Y-507746D02*
Y-297418D01*
Y-192802D02*
Y25654D01*
X-124714Y-507746D02*
X-25400D01*
X-124714Y25654D02*
X-27178D01*
D18*
X599091Y-283106D02*
Y-293262D01*
X588935Y-283106D01*
X586396D01*
X583857Y-285645D01*
Y-290723D01*
X586396Y-293262D01*
X599091Y-278027D02*
Y-272949D01*
Y-275488D01*
X583857D01*
X586396Y-278027D01*
Y-265331D02*
X583857Y-262792D01*
Y-257714D01*
X586396Y-255175D01*
X596552D01*
X599091Y-257714D01*
Y-262792D01*
X596552Y-265331D01*
X586396D01*
Y-250096D02*
X583857Y-247557D01*
Y-242479D01*
X586396Y-239940D01*
X596552D01*
X599091Y-242479D01*
Y-247557D01*
X596552Y-250096D01*
X586396D01*
X599091Y-234861D02*
X596552D01*
Y-232322D01*
X599091D01*
Y-234861D01*
X586396Y-222165D02*
X583857Y-219626D01*
Y-214548D01*
X586396Y-212009D01*
X596552D01*
X599091Y-214548D01*
Y-219626D01*
X596552Y-222165D01*
X586396D01*
Y-206930D02*
X583857Y-204391D01*
Y-199313D01*
X586396Y-196774D01*
X596552D01*
X599091Y-199313D01*
Y-204391D01*
X596552Y-206930D01*
X586396D01*
X214382Y95596D02*
X204226D01*
X214382Y105753D01*
Y108292D01*
X211843Y110831D01*
X206765D01*
X204226Y108292D01*
X229618Y95596D02*
X219461D01*
X229618Y105753D01*
Y108292D01*
X227078Y110831D01*
X222000D01*
X219461Y108292D01*
X234696D02*
X237235Y110831D01*
X242313D01*
X244853Y108292D01*
Y98135D01*
X242313Y95596D01*
X237235D01*
X234696Y98135D01*
Y108292D01*
X249931D02*
X252470Y110831D01*
X257549D01*
X260088Y108292D01*
Y98135D01*
X257549Y95596D01*
X252470D01*
X249931Y98135D01*
Y108292D01*
X265166Y95596D02*
Y98135D01*
X267705D01*
Y95596D01*
X265166D01*
X288019Y110831D02*
X282940Y108292D01*
X277862Y103214D01*
Y98135D01*
X280401Y95596D01*
X285480D01*
X288019Y98135D01*
Y100674D01*
X285480Y103214D01*
X277862D01*
X293097Y108292D02*
X295636Y110831D01*
X300715D01*
X303254Y108292D01*
Y105753D01*
X300715Y103214D01*
X303254Y100674D01*
Y98135D01*
X300715Y95596D01*
X295636D01*
X293097Y98135D01*
Y100674D01*
X295636Y103214D01*
X293097Y105753D01*
Y108292D01*
X295636Y103214D02*
X300715D01*
X-61725Y-293100D02*
Y-288022D01*
Y-290561D01*
X-76960D01*
X-74420Y-293100D01*
Y-280404D02*
X-76960Y-277865D01*
Y-272787D01*
X-74420Y-270248D01*
X-71881D01*
X-69342Y-272787D01*
X-66803Y-270248D01*
X-64264D01*
X-61725Y-272787D01*
Y-277865D01*
X-64264Y-280404D01*
X-66803D01*
X-69342Y-277865D01*
X-71881Y-280404D01*
X-74420D01*
X-69342Y-277865D02*
Y-272787D01*
X-74420Y-265169D02*
X-76960Y-262630D01*
Y-257552D01*
X-74420Y-255013D01*
X-71881D01*
X-69342Y-257552D01*
X-66803Y-255013D01*
X-64264D01*
X-61725Y-257552D01*
Y-262630D01*
X-64264Y-265169D01*
X-66803D01*
X-69342Y-262630D01*
X-71881Y-265169D01*
X-74420D01*
X-69342Y-262630D02*
Y-257552D01*
X-76960Y-239778D02*
X-74420Y-244856D01*
X-69342Y-249934D01*
X-64264D01*
X-61725Y-247395D01*
Y-242317D01*
X-64264Y-239778D01*
X-66803D01*
X-69342Y-242317D01*
Y-249934D01*
X-61725Y-234699D02*
X-64264D01*
Y-232160D01*
X-61725D01*
Y-234699D01*
X-74420Y-222003D02*
X-76960Y-219464D01*
Y-214386D01*
X-74420Y-211847D01*
X-64264D01*
X-61725Y-214386D01*
Y-219464D01*
X-64264Y-222003D01*
X-74420D01*
Y-206768D02*
X-76960Y-204229D01*
Y-199151D01*
X-74420Y-196612D01*
X-64264D01*
X-61725Y-199151D01*
Y-204229D01*
X-64264Y-206768D01*
X-74420D01*
X-113033Y-283198D02*
Y-293354D01*
X-123189Y-283198D01*
X-125728D01*
X-128267Y-285737D01*
Y-290815D01*
X-125728Y-293354D01*
X-113033Y-278119D02*
Y-273041D01*
Y-275580D01*
X-128267D01*
X-125728Y-278119D01*
Y-265423D02*
X-128267Y-262884D01*
Y-257806D01*
X-125728Y-255267D01*
X-115572D01*
X-113033Y-257806D01*
Y-262884D01*
X-115572Y-265423D01*
X-125728D01*
Y-250188D02*
X-128267Y-247649D01*
Y-242571D01*
X-125728Y-240032D01*
X-115572D01*
X-113033Y-242571D01*
Y-247649D01*
X-115572Y-250188D01*
X-125728D01*
X-113033Y-234953D02*
X-115572D01*
Y-232414D01*
X-113033D01*
Y-234953D01*
X-125728Y-222257D02*
X-128267Y-219718D01*
Y-214640D01*
X-125728Y-212101D01*
X-115572D01*
X-113033Y-214640D01*
Y-219718D01*
X-115572Y-222257D01*
X-125728D01*
Y-207022D02*
X-128267Y-204483D01*
Y-199405D01*
X-125728Y-196866D01*
X-115572D01*
X-113033Y-199405D01*
Y-204483D01*
X-115572Y-207022D01*
X-125728D01*
D19*
X14797Y-480989D02*
G03*
X14797Y-480989I-15999J0D01*
G01*
X15051Y341D02*
G03*
X15051Y341I-15999J0D01*
G01*
X435929Y-65699D02*
G03*
X435929Y-65699I-15999J0D01*
G01*
Y-412409D02*
G03*
X435929Y-412409I-15999J0D01*
G01*
X-22790Y-506897D02*
Y26503D01*
X537290Y-125897D02*
Y26503D01*
Y-506897D02*
Y-125897D01*
X-21680Y26000D02*
X538400D01*
X-22790Y-506897D02*
X537290D01*
M02*
