G04*
G04 #@! TF.GenerationSoftware,Altium Limited,DefaultClient, ()*
G04*
G04 Layer_Color=16711935*
%FSLAX44Y44*%
%MOMM*%
G71*
G04*
G04 #@! TF.SameCoordinates,C0C1BE24-F48D-404B-966D-32A33A0CC593*
G04*
G04*
G04 #@! TF.FilePolarity,Negative*
G04*
G01*
G75*
%ADD15C,0.2540*%
%ADD18C,0.1524*%
%ADD19C,0.1270*%
%ADD67R,2.1532X2.1532*%
%ADD68R,1.7272X1.7272*%
%ADD69C,1.7272*%
%ADD70C,1.0922*%
%ADD71C,2.1532*%
%ADD72R,2.1532X2.1532*%
%ADD73C,1.9812*%
%ADD74R,1.9812X1.9812*%
%ADD75C,3.4032*%
%ADD76C,0.4572*%
%ADD77C,1.4732*%
%ADD78C,0.7112*%
D15*
X584870Y-492414D02*
X589950Y-507654D01*
X595030Y-492414D01*
X589950Y25746D02*
X595030Y10506D01*
X584870D02*
X589950Y25746D01*
Y-507654D02*
Y-297326D01*
Y-192710D02*
Y25746D01*
X536864Y-507654D02*
X592490D01*
X538388Y25746D02*
X592490D01*
X-21682Y104738D02*
X-6442Y109817D01*
X-21682Y104738D02*
X-6442Y99657D01*
X522050D02*
X537290Y104738D01*
X522050Y109817D02*
X537290Y104738D01*
X-21682D02*
X200162D01*
X307318D02*
X537290D01*
X-21682Y28286D02*
Y107277D01*
X537290Y29678D02*
Y107277D01*
X-75946Y-465074D02*
X-70866Y-480314D01*
X-65786Y-465074D01*
X-70866Y-1270D02*
X-65786Y-16510D01*
X-75946D02*
X-70866Y-1270D01*
Y-480314D02*
Y-297164D01*
Y-192548D02*
Y-1270D01*
X-73406Y-480314D02*
X-23620D01*
X-73406Y-1270D02*
X-24382D01*
X-127254Y-492506D02*
X-122174Y-507746D01*
X-117094Y-492506D01*
X-122174Y25654D02*
X-117094Y10414D01*
X-127254D02*
X-122174Y25654D01*
Y-507746D02*
Y-297418D01*
Y-192802D02*
Y25654D01*
X-124714Y-507746D02*
X-25400D01*
X-124714Y25654D02*
X-27178D01*
D18*
X599091Y-283106D02*
Y-293262D01*
X588935Y-283106D01*
X586396D01*
X583857Y-285645D01*
Y-290723D01*
X586396Y-293262D01*
X599091Y-278027D02*
Y-272949D01*
Y-275488D01*
X583857D01*
X586396Y-278027D01*
Y-265331D02*
X583857Y-262792D01*
Y-257714D01*
X586396Y-255175D01*
X596552D01*
X599091Y-257714D01*
Y-262792D01*
X596552Y-265331D01*
X586396D01*
Y-250096D02*
X583857Y-247557D01*
Y-242479D01*
X586396Y-239940D01*
X596552D01*
X599091Y-242479D01*
Y-247557D01*
X596552Y-250096D01*
X586396D01*
X599091Y-234861D02*
X596552D01*
Y-232322D01*
X599091D01*
Y-234861D01*
X586396Y-222165D02*
X583857Y-219626D01*
Y-214548D01*
X586396Y-212009D01*
X596552D01*
X599091Y-214548D01*
Y-219626D01*
X596552Y-222165D01*
X586396D01*
Y-206930D02*
X583857Y-204391D01*
Y-199313D01*
X586396Y-196774D01*
X596552D01*
X599091Y-199313D01*
Y-204391D01*
X596552Y-206930D01*
X586396D01*
X214382Y95596D02*
X204226D01*
X214382Y105753D01*
Y108292D01*
X211843Y110831D01*
X206765D01*
X204226Y108292D01*
X229618Y95596D02*
X219461D01*
X229618Y105753D01*
Y108292D01*
X227078Y110831D01*
X222000D01*
X219461Y108292D01*
X234696D02*
X237235Y110831D01*
X242313D01*
X244853Y108292D01*
Y98135D01*
X242313Y95596D01*
X237235D01*
X234696Y98135D01*
Y108292D01*
X249931D02*
X252470Y110831D01*
X257549D01*
X260088Y108292D01*
Y98135D01*
X257549Y95596D01*
X252470D01*
X249931Y98135D01*
Y108292D01*
X265166Y95596D02*
Y98135D01*
X267705D01*
Y95596D01*
X265166D01*
X288019Y110831D02*
X282940Y108292D01*
X277862Y103214D01*
Y98135D01*
X280401Y95596D01*
X285480D01*
X288019Y98135D01*
Y100674D01*
X285480Y103214D01*
X277862D01*
X293097Y108292D02*
X295636Y110831D01*
X300715D01*
X303254Y108292D01*
Y105753D01*
X300715Y103214D01*
X303254Y100674D01*
Y98135D01*
X300715Y95596D01*
X295636D01*
X293097Y98135D01*
Y100674D01*
X295636Y103214D01*
X293097Y105753D01*
Y108292D01*
X295636Y103214D02*
X300715D01*
X-61725Y-293100D02*
Y-288022D01*
Y-290561D01*
X-76960D01*
X-74420Y-293100D01*
Y-280404D02*
X-76960Y-277865D01*
Y-272787D01*
X-74420Y-270248D01*
X-71881D01*
X-69342Y-272787D01*
X-66803Y-270248D01*
X-64264D01*
X-61725Y-272787D01*
Y-277865D01*
X-64264Y-280404D01*
X-66803D01*
X-69342Y-277865D01*
X-71881Y-280404D01*
X-74420D01*
X-69342Y-277865D02*
Y-272787D01*
X-74420Y-265169D02*
X-76960Y-262630D01*
Y-257552D01*
X-74420Y-255013D01*
X-71881D01*
X-69342Y-257552D01*
X-66803Y-255013D01*
X-64264D01*
X-61725Y-257552D01*
Y-262630D01*
X-64264Y-265169D01*
X-66803D01*
X-69342Y-262630D01*
X-71881Y-265169D01*
X-74420D01*
X-69342Y-262630D02*
Y-257552D01*
X-76960Y-239778D02*
X-74420Y-244856D01*
X-69342Y-249934D01*
X-64264D01*
X-61725Y-247395D01*
Y-242317D01*
X-64264Y-239778D01*
X-66803D01*
X-69342Y-242317D01*
Y-249934D01*
X-61725Y-234699D02*
X-64264D01*
Y-232160D01*
X-61725D01*
Y-234699D01*
X-74420Y-222003D02*
X-76960Y-219464D01*
Y-214386D01*
X-74420Y-211847D01*
X-64264D01*
X-61725Y-214386D01*
Y-219464D01*
X-64264Y-222003D01*
X-74420D01*
Y-206768D02*
X-76960Y-204229D01*
Y-199151D01*
X-74420Y-196612D01*
X-64264D01*
X-61725Y-199151D01*
Y-204229D01*
X-64264Y-206768D01*
X-74420D01*
X-113033Y-283198D02*
Y-293354D01*
X-123189Y-283198D01*
X-125728D01*
X-128267Y-285737D01*
Y-290815D01*
X-125728Y-293354D01*
X-113033Y-278119D02*
Y-273041D01*
Y-275580D01*
X-128267D01*
X-125728Y-278119D01*
Y-265423D02*
X-128267Y-262884D01*
Y-257806D01*
X-125728Y-255267D01*
X-115572D01*
X-113033Y-257806D01*
Y-262884D01*
X-115572Y-265423D01*
X-125728D01*
Y-250188D02*
X-128267Y-247649D01*
Y-242571D01*
X-125728Y-240032D01*
X-115572D01*
X-113033Y-242571D01*
Y-247649D01*
X-115572Y-250188D01*
X-125728D01*
X-113033Y-234953D02*
X-115572D01*
Y-232414D01*
X-113033D01*
Y-234953D01*
X-125728Y-222257D02*
X-128267Y-219718D01*
Y-214640D01*
X-125728Y-212101D01*
X-115572D01*
X-113033Y-214640D01*
Y-219718D01*
X-115572Y-222257D01*
X-125728D01*
Y-207022D02*
X-128267Y-204483D01*
Y-199405D01*
X-125728Y-196866D01*
X-115572D01*
X-113033Y-199405D01*
Y-204483D01*
X-115572Y-207022D01*
X-125728D01*
D19*
X14797Y-480989D02*
G03*
X14797Y-480989I-15999J0D01*
G01*
X15051Y341D02*
G03*
X15051Y341I-15999J0D01*
G01*
X435929Y-65699D02*
G03*
X435929Y-65699I-15999J0D01*
G01*
Y-412409D02*
G03*
X435929Y-412409I-15999J0D01*
G01*
X-22790Y-506897D02*
Y26503D01*
X537290Y-125897D02*
Y26503D01*
Y-506897D02*
Y-125897D01*
X-21680Y26000D02*
X538400D01*
X-22790Y-506897D02*
X537290D01*
D67*
X12606Y-254005D02*
D03*
X12352Y-315847D02*
D03*
D68*
X268050Y1103D02*
D03*
X359490Y-481497D02*
D03*
X486490Y1103D02*
D03*
X308690Y-481497D02*
D03*
D69*
X242650Y1103D02*
D03*
X217250D02*
D03*
X191850D02*
D03*
X166450D02*
D03*
X141050D02*
D03*
X115650D02*
D03*
X90250D02*
D03*
X64850D02*
D03*
X384890Y-481497D02*
D03*
X410290D02*
D03*
X435690D02*
D03*
X461090D02*
D03*
X486490D02*
D03*
X39450Y1103D02*
D03*
X410290D02*
D03*
X308690D02*
D03*
X461090D02*
D03*
X435690D02*
D03*
X334090D02*
D03*
X359490D02*
D03*
X384890D02*
D03*
X130890Y-481497D02*
D03*
X283290D02*
D03*
X156290D02*
D03*
X181690D02*
D03*
X257890D02*
D03*
X232490D02*
D03*
X207090D02*
D03*
D70*
X220358Y-334455D02*
D03*
Y-321755D02*
D03*
X302634Y-54880D02*
D03*
X289934D02*
D03*
X336964D02*
D03*
X324264D02*
D03*
D71*
X12352Y-341247D02*
D03*
X12606Y-279405D02*
D03*
X70364Y-471683D02*
D03*
D72*
X44964D02*
D03*
D73*
X495368Y-54777D02*
D03*
Y-80177D02*
D03*
Y-105577D02*
D03*
Y-130977D02*
D03*
Y-156377D02*
D03*
Y-181777D02*
D03*
X469968Y-54777D02*
D03*
Y-80177D02*
D03*
Y-105577D02*
D03*
Y-130977D02*
D03*
Y-156377D02*
D03*
X102950D02*
D03*
Y-130977D02*
D03*
Y-105577D02*
D03*
Y-80177D02*
D03*
Y-54777D02*
D03*
X77550Y-181777D02*
D03*
Y-156377D02*
D03*
Y-130977D02*
D03*
Y-105577D02*
D03*
Y-80177D02*
D03*
Y-54777D02*
D03*
X494444Y-391165D02*
D03*
Y-365765D02*
D03*
D74*
X469968Y-181777D02*
D03*
X102950D02*
D03*
X494444Y-416565D02*
D03*
D75*
X419930Y-432567D02*
D03*
X419930Y-65699D02*
D03*
X-762Y-1270D02*
D03*
X0Y-480314D02*
D03*
D76*
X142923Y-272796D02*
D03*
X145288Y-277876D02*
D03*
X215358Y-280037D02*
D03*
D77*
X307245Y-211074D02*
D03*
X92298Y-328656D02*
D03*
X398606Y-346138D02*
D03*
X196836Y-337518D02*
D03*
X197836Y-216662D02*
D03*
X94060Y-229380D02*
D03*
D78*
X406595Y-313408D02*
D03*
X406146Y-300695D02*
D03*
X393145Y-313478D02*
D03*
Y-300228D02*
D03*
X254414Y-324202D02*
D03*
X185166Y-275340D02*
D03*
X223812Y-267007D02*
D03*
X277528Y-380232D02*
D03*
X268384Y-340619D02*
D03*
X389542Y-400563D02*
D03*
X293276Y-382783D02*
D03*
X250858Y-418213D02*
D03*
X239494Y-198277D02*
D03*
X258748Y-289041D02*
D03*
X244295Y-279583D02*
D03*
X153362Y-295611D02*
D03*
X172358Y-270878D02*
D03*
X90330Y-412879D02*
D03*
X199898Y-419969D02*
D03*
X114460Y-346461D02*
D03*
X121980Y-225557D02*
D03*
X323248Y-155199D02*
D03*
X303062Y-105923D02*
D03*
X248826Y-117607D02*
D03*
X346290Y-130561D02*
D03*
X312834Y-263149D02*
D03*
X254414Y-181615D02*
D03*
X528988Y-434345D02*
D03*
X503254Y-295948D02*
D03*
M02*
