G04*
G04 #@! TF.GenerationSoftware,Altium Limited,DefaultClient, ()*
G04*
G04 Layer_Color=16711935*
%FSLAX44Y44*%
%MOMM*%
G71*
G04*
G04 #@! TF.SameCoordinates,C0C1BE24-F48D-404B-966D-32A33A0CC593*
G04*
G04*
G04 #@! TF.FilePolarity,Positive*
G04*
G01*
G75*
%ADD10C,0.2000*%
%ADD15C,0.2540*%
%ADD16C,0.1500*%
%ADD18C,0.1524*%
%ADD19C,0.1270*%
%ADD107C,0.1000*%
%ADD109C,0.0508*%
%ADD110C,0.0500*%
G36*
X460460Y-287666D02*
X460528Y-287675D01*
X460616Y-287685D01*
X460714Y-287695D01*
X460821Y-287714D01*
X461045Y-287773D01*
X461279Y-287861D01*
X461396Y-287919D01*
X461513Y-287987D01*
X461630Y-288056D01*
X461738Y-288143D01*
X461747Y-288153D01*
X461757Y-288163D01*
X461786Y-288192D01*
X461825Y-288231D01*
X461864Y-288280D01*
X461913Y-288339D01*
X461962Y-288407D01*
X462020Y-288485D01*
X462128Y-288670D01*
X462235Y-288894D01*
X462313Y-289148D01*
X462342Y-289294D01*
X462362Y-289441D01*
X461533Y-289499D01*
Y-289489D01*
Y-289470D01*
X461523Y-289441D01*
X461513Y-289402D01*
X461484Y-289294D01*
X461445Y-289158D01*
X461396Y-289011D01*
X461318Y-288865D01*
X461230Y-288719D01*
X461113Y-288592D01*
X461094Y-288582D01*
X461055Y-288543D01*
X460987Y-288504D01*
X460889Y-288446D01*
X460772Y-288397D01*
X460635Y-288348D01*
X460479Y-288309D01*
X460314Y-288299D01*
X460255D01*
X460216Y-288309D01*
X460109Y-288319D01*
X459972Y-288348D01*
X459826Y-288407D01*
X459660Y-288475D01*
X459504Y-288582D01*
X459426Y-288641D01*
X459348Y-288719D01*
Y-288729D01*
X459328Y-288738D01*
X459290Y-288797D01*
X459221Y-288894D01*
X459153Y-289021D01*
X459085Y-289187D01*
X459016Y-289382D01*
X458977Y-289606D01*
X458958Y-289860D01*
Y-289870D01*
Y-289889D01*
Y-289928D01*
X458968Y-289967D01*
Y-290026D01*
X458977Y-290094D01*
X459007Y-290250D01*
X459046Y-290416D01*
X459114Y-290592D01*
X459212Y-290767D01*
X459338Y-290923D01*
X459358Y-290943D01*
X459407Y-290982D01*
X459485Y-291050D01*
X459602Y-291118D01*
X459738Y-291187D01*
X459914Y-291255D01*
X460109Y-291294D01*
X460323Y-291313D01*
X460392D01*
X460460Y-291304D01*
X460557Y-291294D01*
X460665Y-291264D01*
X460782Y-291235D01*
X460899Y-291187D01*
X461016Y-291128D01*
X461026Y-291118D01*
X461065Y-291099D01*
X461123Y-291060D01*
X461191Y-291011D01*
X461260Y-290943D01*
X461338Y-290865D01*
X461416Y-290777D01*
X461484Y-290679D01*
X462225Y-290787D01*
X461601Y-294074D01*
X458421D01*
Y-293323D01*
X460977D01*
X461328Y-291596D01*
X461318Y-291606D01*
X461299Y-291616D01*
X461269Y-291635D01*
X461230Y-291664D01*
X461172Y-291694D01*
X461113Y-291723D01*
X460957Y-291801D01*
X460782Y-291879D01*
X460577Y-291938D01*
X460353Y-291986D01*
X460118Y-292006D01*
X460041D01*
X459982Y-291996D01*
X459904Y-291986D01*
X459826Y-291977D01*
X459728Y-291957D01*
X459631Y-291938D01*
X459407Y-291859D01*
X459290Y-291821D01*
X459172Y-291762D01*
X459046Y-291694D01*
X458929Y-291616D01*
X458812Y-291528D01*
X458704Y-291421D01*
X458694Y-291411D01*
X458675Y-291391D01*
X458646Y-291362D01*
X458616Y-291313D01*
X458568Y-291255D01*
X458519Y-291187D01*
X458470Y-291108D01*
X458412Y-291021D01*
X458353Y-290913D01*
X458304Y-290806D01*
X458256Y-290679D01*
X458207Y-290553D01*
X458178Y-290406D01*
X458148Y-290260D01*
X458129Y-290094D01*
X458119Y-289928D01*
Y-289918D01*
Y-289889D01*
Y-289841D01*
X458129Y-289782D01*
X458139Y-289704D01*
X458148Y-289616D01*
X458158Y-289519D01*
X458178Y-289411D01*
X458246Y-289177D01*
X458334Y-288933D01*
X458392Y-288797D01*
X458460Y-288670D01*
X458539Y-288543D01*
X458626Y-288426D01*
X458636Y-288417D01*
X458656Y-288397D01*
X458694Y-288358D01*
X458743Y-288309D01*
X458802Y-288251D01*
X458880Y-288182D01*
X458968Y-288114D01*
X459075Y-288046D01*
X459182Y-287968D01*
X459309Y-287900D01*
X459455Y-287831D01*
X459602Y-287773D01*
X459767Y-287724D01*
X459933Y-287685D01*
X460118Y-287666D01*
X460314Y-287656D01*
X460401D01*
X460460Y-287666D01*
D02*
G37*
G36*
X468487Y-294171D02*
X465512D01*
X465434Y-294161D01*
X465356D01*
X465161Y-294152D01*
X464956Y-294132D01*
X464742Y-294093D01*
X464537Y-294054D01*
X464439Y-294025D01*
X464352Y-293996D01*
X464342D01*
X464332Y-293986D01*
X464274Y-293966D01*
X464196Y-293918D01*
X464098Y-293849D01*
X463981Y-293771D01*
X463864Y-293664D01*
X463747Y-293537D01*
X463640Y-293381D01*
X463630Y-293362D01*
X463601Y-293303D01*
X463552Y-293215D01*
X463503Y-293098D01*
X463454Y-292952D01*
X463405Y-292786D01*
X463376Y-292610D01*
X463367Y-292416D01*
Y-292406D01*
Y-292386D01*
Y-292347D01*
X463376Y-292298D01*
Y-292240D01*
X463386Y-292172D01*
X463425Y-292016D01*
X463474Y-291830D01*
X463552Y-291645D01*
X463669Y-291450D01*
X463737Y-291352D01*
X463815Y-291264D01*
X463835Y-291245D01*
X463864Y-291225D01*
X463893Y-291187D01*
X463942Y-291157D01*
X464001Y-291108D01*
X464069Y-291070D01*
X464147Y-291021D01*
X464235Y-290972D01*
X464342Y-290923D01*
X464449Y-290874D01*
X464576Y-290826D01*
X464703Y-290777D01*
X464849Y-290738D01*
X465005Y-290709D01*
X465171Y-290679D01*
X465151Y-290670D01*
X465112Y-290650D01*
X465054Y-290621D01*
X464986Y-290582D01*
X464820Y-290474D01*
X464732Y-290416D01*
X464664Y-290357D01*
X464644Y-290338D01*
X464595Y-290299D01*
X464527Y-290221D01*
X464439Y-290123D01*
X464332Y-289997D01*
X464215Y-289850D01*
X464088Y-289685D01*
X463961Y-289499D01*
X462850Y-287763D01*
X463913D01*
X464761Y-289090D01*
Y-289099D01*
X464781Y-289119D01*
X464800Y-289148D01*
X464820Y-289187D01*
X464888Y-289285D01*
X464976Y-289411D01*
X465073Y-289558D01*
X465181Y-289704D01*
X465278Y-289841D01*
X465376Y-289967D01*
X465386Y-289977D01*
X465415Y-290016D01*
X465463Y-290075D01*
X465512Y-290143D01*
X465659Y-290279D01*
X465727Y-290348D01*
X465805Y-290396D01*
X465815Y-290406D01*
X465834Y-290416D01*
X465873Y-290436D01*
X465922Y-290465D01*
X466039Y-290523D01*
X466185Y-290572D01*
X466195D01*
X466214Y-290582D01*
X466254D01*
X466302Y-290592D01*
X466371Y-290601D01*
X466449D01*
X466546Y-290611D01*
X467639D01*
Y-287763D01*
X468487D01*
Y-294171D01*
D02*
G37*
G36*
X303983Y-369691D02*
X304062Y-369700D01*
X304140Y-369710D01*
X304237Y-369720D01*
X304335Y-369739D01*
X304559Y-369798D01*
X304793Y-369896D01*
X304910Y-369944D01*
X305017Y-370013D01*
X305134Y-370090D01*
X305242Y-370178D01*
X305252Y-370188D01*
X305261Y-370198D01*
X305291Y-370227D01*
X305329Y-370266D01*
X305368Y-370325D01*
X305417Y-370383D01*
X305476Y-370451D01*
X305525Y-370530D01*
X305642Y-370724D01*
X305739Y-370949D01*
X305827Y-371203D01*
X305856Y-371339D01*
X305876Y-371485D01*
X305086Y-371593D01*
Y-371583D01*
X305076Y-371563D01*
Y-371524D01*
X305056Y-371485D01*
X305027Y-371368D01*
X304978Y-371222D01*
X304920Y-371066D01*
X304842Y-370900D01*
X304744Y-370754D01*
X304637Y-370627D01*
X304618Y-370617D01*
X304578Y-370578D01*
X304510Y-370539D01*
X304413Y-370481D01*
X304305Y-370432D01*
X304169Y-370383D01*
X304013Y-370344D01*
X303847Y-370334D01*
X303788D01*
X303749Y-370344D01*
X303652Y-370354D01*
X303525Y-370383D01*
X303369Y-370432D01*
X303213Y-370490D01*
X303057Y-370588D01*
X302911Y-370715D01*
X302891Y-370734D01*
X302852Y-370783D01*
X302794Y-370861D01*
X302715Y-370978D01*
X302647Y-371115D01*
X302589Y-371281D01*
X302550Y-371466D01*
X302530Y-371671D01*
Y-371680D01*
Y-371690D01*
Y-371719D01*
X302540Y-371758D01*
X302550Y-371856D01*
X302579Y-371983D01*
X302618Y-372119D01*
X302686Y-372275D01*
X302774Y-372422D01*
X302891Y-372558D01*
X302911Y-372578D01*
X302950Y-372617D01*
X303028Y-372665D01*
X303135Y-372734D01*
X303262Y-372802D01*
X303418Y-372851D01*
X303584Y-372890D01*
X303779Y-372909D01*
X303867D01*
X303935Y-372900D01*
X304013Y-372890D01*
X304110Y-372880D01*
X304218Y-372861D01*
X304335Y-372831D01*
X304247Y-373524D01*
X304198D01*
X304159Y-373514D01*
X304032D01*
X303944Y-373524D01*
X303818Y-373543D01*
X303681Y-373573D01*
X303535Y-373621D01*
X303379Y-373680D01*
X303223Y-373768D01*
X303203Y-373777D01*
X303155Y-373816D01*
X303096Y-373885D01*
X303018Y-373973D01*
X302940Y-374080D01*
X302881Y-374216D01*
X302833Y-374382D01*
X302813Y-374577D01*
Y-374587D01*
Y-374597D01*
Y-374646D01*
X302833Y-374724D01*
X302852Y-374831D01*
X302881Y-374938D01*
X302940Y-375055D01*
X303008Y-375182D01*
X303106Y-375289D01*
X303115Y-375299D01*
X303155Y-375338D01*
X303223Y-375387D01*
X303311Y-375435D01*
X303418Y-375494D01*
X303545Y-375533D01*
X303691Y-375572D01*
X303857Y-375582D01*
X303935D01*
X304023Y-375562D01*
X304120Y-375543D01*
X304247Y-375513D01*
X304374Y-375455D01*
X304501Y-375387D01*
X304627Y-375289D01*
X304637Y-375280D01*
X304676Y-375240D01*
X304725Y-375172D01*
X304783Y-375075D01*
X304852Y-374958D01*
X304910Y-374811D01*
X304969Y-374636D01*
X305008Y-374431D01*
X305798Y-374567D01*
Y-374577D01*
X305788Y-374607D01*
X305778Y-374646D01*
X305768Y-374694D01*
X305749Y-374762D01*
X305729Y-374841D01*
X305661Y-375016D01*
X305583Y-375211D01*
X305466Y-375416D01*
X305329Y-375611D01*
X305154Y-375787D01*
X305144Y-375796D01*
X305134Y-375806D01*
X305105Y-375826D01*
X305056Y-375855D01*
X305008Y-375884D01*
X304949Y-375923D01*
X304803Y-376011D01*
X304618Y-376089D01*
X304393Y-376157D01*
X304149Y-376206D01*
X304013Y-376226D01*
X303788D01*
X303691Y-376216D01*
X303564Y-376196D01*
X303418Y-376167D01*
X303252Y-376128D01*
X303086Y-376069D01*
X302920Y-375992D01*
X302911D01*
X302901Y-375982D01*
X302842Y-375952D01*
X302764Y-375904D01*
X302667Y-375835D01*
X302560Y-375748D01*
X302442Y-375640D01*
X302335Y-375513D01*
X302238Y-375377D01*
X302228Y-375358D01*
X302199Y-375309D01*
X302160Y-375231D01*
X302121Y-375133D01*
X302082Y-375006D01*
X302043Y-374870D01*
X302013Y-374724D01*
X302003Y-374558D01*
Y-374538D01*
Y-374489D01*
X302013Y-374411D01*
X302033Y-374314D01*
X302062Y-374197D01*
X302101Y-374070D01*
X302150Y-373933D01*
X302228Y-373807D01*
X302238Y-373787D01*
X302267Y-373748D01*
X302325Y-373690D01*
X302394Y-373612D01*
X302491Y-373524D01*
X302598Y-373436D01*
X302735Y-373339D01*
X302891Y-373260D01*
X302881D01*
X302862Y-373251D01*
X302833D01*
X302794Y-373231D01*
X302696Y-373202D01*
X302569Y-373143D01*
X302433Y-373075D01*
X302286Y-372978D01*
X302140Y-372861D01*
X302013Y-372714D01*
X302003Y-372695D01*
X301964Y-372636D01*
X301916Y-372548D01*
X301847Y-372431D01*
X301789Y-372285D01*
X301740Y-372109D01*
X301701Y-371905D01*
X301691Y-371680D01*
Y-371671D01*
Y-371641D01*
Y-371602D01*
X301701Y-371544D01*
X301711Y-371466D01*
X301721Y-371388D01*
X301740Y-371290D01*
X301769Y-371193D01*
X301838Y-370968D01*
X301887Y-370842D01*
X301955Y-370724D01*
X302023Y-370607D01*
X302101Y-370490D01*
X302199Y-370373D01*
X302306Y-370256D01*
X302316Y-370247D01*
X302335Y-370227D01*
X302364Y-370208D01*
X302413Y-370169D01*
X302472Y-370120D01*
X302550Y-370071D01*
X302638Y-370022D01*
X302725Y-369973D01*
X302833Y-369915D01*
X302950Y-369866D01*
X303076Y-369817D01*
X303213Y-369769D01*
X303359Y-369730D01*
X303515Y-369710D01*
X303681Y-369691D01*
X303847Y-369681D01*
X303925D01*
X303983Y-369691D01*
D02*
G37*
G36*
X312020Y-376196D02*
X309563D01*
X309397Y-376186D01*
X309221Y-376177D01*
X309026Y-376157D01*
X308841Y-376128D01*
X308685Y-376099D01*
X308675D01*
X308655Y-376089D01*
X308636D01*
X308597Y-376069D01*
X308490Y-376040D01*
X308363Y-375992D01*
X308217Y-375933D01*
X308060Y-375855D01*
X307904Y-375757D01*
X307748Y-375640D01*
X307739D01*
X307729Y-375621D01*
X307661Y-375562D01*
X307573Y-375465D01*
X307466Y-375338D01*
X307339Y-375182D01*
X307212Y-374997D01*
X307095Y-374782D01*
X306988Y-374538D01*
Y-374528D01*
X306978Y-374509D01*
X306968Y-374470D01*
X306949Y-374421D01*
X306929Y-374363D01*
X306910Y-374285D01*
X306880Y-374197D01*
X306861Y-374099D01*
X306841Y-373992D01*
X306812Y-373875D01*
X306773Y-373621D01*
X306744Y-373339D01*
X306734Y-373026D01*
Y-373017D01*
Y-372997D01*
Y-372958D01*
Y-372900D01*
X306744Y-372841D01*
Y-372763D01*
X306754Y-372588D01*
X306773Y-372392D01*
X306812Y-372168D01*
X306851Y-371944D01*
X306910Y-371729D01*
Y-371719D01*
X306919Y-371700D01*
X306929Y-371671D01*
X306939Y-371632D01*
X306978Y-371534D01*
X307027Y-371398D01*
X307085Y-371251D01*
X307163Y-371095D01*
X307251Y-370939D01*
X307348Y-370793D01*
X307358Y-370773D01*
X307397Y-370734D01*
X307446Y-370666D01*
X307524Y-370578D01*
X307602Y-370490D01*
X307709Y-370393D01*
X307817Y-370295D01*
X307934Y-370208D01*
X307943Y-370198D01*
X307992Y-370178D01*
X308060Y-370139D01*
X308148Y-370090D01*
X308256Y-370042D01*
X308382Y-369993D01*
X308529Y-369944D01*
X308694Y-369896D01*
X308714D01*
X308773Y-369876D01*
X308860Y-369866D01*
X308987Y-369847D01*
X309133Y-369827D01*
X309309Y-369808D01*
X309504Y-369798D01*
X309719Y-369788D01*
X312020D01*
Y-376196D01*
D02*
G37*
G36*
X232048Y-84759D02*
X232038Y-84925D01*
X232028Y-85100D01*
X232009Y-85295D01*
X231979Y-85480D01*
X231950Y-85637D01*
Y-85646D01*
X231940Y-85666D01*
Y-85685D01*
X231921Y-85724D01*
X231892Y-85832D01*
X231843Y-85958D01*
X231784Y-86105D01*
X231706Y-86261D01*
X231609Y-86417D01*
X231492Y-86573D01*
Y-86583D01*
X231472Y-86592D01*
X231414Y-86661D01*
X231316Y-86749D01*
X231189Y-86856D01*
X231033Y-86983D01*
X230848Y-87109D01*
X230633Y-87226D01*
X230389Y-87334D01*
X230380D01*
X230360Y-87344D01*
X230321Y-87353D01*
X230273Y-87373D01*
X230214Y-87392D01*
X230136Y-87412D01*
X230048Y-87441D01*
X229951Y-87460D01*
X229843Y-87480D01*
X229726Y-87509D01*
X229473Y-87548D01*
X229190Y-87577D01*
X228878Y-87587D01*
X228868D01*
X228848D01*
X228809D01*
X228751D01*
X228692Y-87577D01*
X228614D01*
X228439Y-87568D01*
X228244Y-87548D01*
X228019Y-87509D01*
X227795Y-87470D01*
X227581Y-87412D01*
X227571D01*
X227551Y-87402D01*
X227522Y-87392D01*
X227483Y-87382D01*
X227385Y-87344D01*
X227249Y-87295D01*
X227103Y-87236D01*
X226947Y-87158D01*
X226790Y-87070D01*
X226644Y-86973D01*
X226625Y-86963D01*
X226586Y-86924D01*
X226517Y-86875D01*
X226430Y-86797D01*
X226342Y-86719D01*
X226244Y-86612D01*
X226147Y-86505D01*
X226059Y-86388D01*
X226049Y-86378D01*
X226030Y-86329D01*
X225991Y-86261D01*
X225942Y-86173D01*
X225893Y-86066D01*
X225844Y-85939D01*
X225796Y-85793D01*
X225747Y-85627D01*
Y-85607D01*
X225727Y-85549D01*
X225718Y-85461D01*
X225698Y-85334D01*
X225679Y-85188D01*
X225659Y-85012D01*
X225649Y-84817D01*
X225639Y-84603D01*
Y-82301D01*
X232048D01*
Y-84759D01*
D02*
G37*
G36*
X225815Y-88338D02*
X225893Y-88348D01*
X225981Y-88358D01*
X226078Y-88387D01*
X226176Y-88416D01*
X226186D01*
X226196Y-88426D01*
X226254Y-88446D01*
X226332Y-88485D01*
X226449Y-88543D01*
X226576Y-88611D01*
X226722Y-88709D01*
X226868Y-88806D01*
X227024Y-88933D01*
X227034D01*
X227044Y-88953D01*
X227103Y-89002D01*
X227190Y-89080D01*
X227307Y-89197D01*
X227444Y-89343D01*
X227610Y-89518D01*
X227795Y-89733D01*
X228000Y-89967D01*
X228010Y-89977D01*
X228039Y-90016D01*
X228078Y-90065D01*
X228146Y-90133D01*
X228214Y-90221D01*
X228302Y-90318D01*
X228488Y-90533D01*
X228712Y-90767D01*
X228936Y-91001D01*
X229044Y-91118D01*
X229151Y-91216D01*
X229258Y-91303D01*
X229356Y-91382D01*
X229365D01*
X229375Y-91401D01*
X229404Y-91420D01*
X229443Y-91440D01*
X229541Y-91498D01*
X229668Y-91567D01*
X229814Y-91635D01*
X229970Y-91694D01*
X230146Y-91733D01*
X230312Y-91752D01*
X230321D01*
X230331D01*
X230389Y-91742D01*
X230477Y-91733D01*
X230585Y-91713D01*
X230711Y-91664D01*
X230838Y-91606D01*
X230975Y-91528D01*
X231101Y-91411D01*
X231111Y-91391D01*
X231150Y-91352D01*
X231199Y-91274D01*
X231267Y-91177D01*
X231326Y-91050D01*
X231375Y-90904D01*
X231414Y-90728D01*
X231423Y-90533D01*
Y-90474D01*
X231414Y-90435D01*
X231404Y-90338D01*
X231384Y-90211D01*
X231336Y-90065D01*
X231277Y-89909D01*
X231189Y-89762D01*
X231072Y-89626D01*
X231053Y-89616D01*
X231014Y-89577D01*
X230936Y-89518D01*
X230828Y-89460D01*
X230692Y-89392D01*
X230536Y-89343D01*
X230350Y-89304D01*
X230136Y-89284D01*
X230224Y-88475D01*
X230233D01*
X230263D01*
X230312Y-88485D01*
X230370Y-88494D01*
X230448Y-88514D01*
X230536Y-88524D01*
X230731Y-88582D01*
X230955Y-88660D01*
X231180Y-88767D01*
X231404Y-88914D01*
X231501Y-88992D01*
X231599Y-89089D01*
X231609Y-89099D01*
X231618Y-89119D01*
X231648Y-89148D01*
X231677Y-89187D01*
X231706Y-89245D01*
X231755Y-89314D01*
X231794Y-89392D01*
X231843Y-89480D01*
X231882Y-89577D01*
X231931Y-89684D01*
X231970Y-89811D01*
X231999Y-89938D01*
X232057Y-90231D01*
X232067Y-90387D01*
X232077Y-90552D01*
Y-90640D01*
X232067Y-90709D01*
X232057Y-90787D01*
X232048Y-90874D01*
X232038Y-90972D01*
X232009Y-91079D01*
X231950Y-91313D01*
X231862Y-91557D01*
X231804Y-91684D01*
X231735Y-91801D01*
X231648Y-91908D01*
X231560Y-92015D01*
X231550Y-92025D01*
X231540Y-92035D01*
X231511Y-92064D01*
X231472Y-92103D01*
X231414Y-92142D01*
X231355Y-92191D01*
X231209Y-92289D01*
X231024Y-92386D01*
X230809Y-92474D01*
X230565Y-92542D01*
X230429Y-92552D01*
X230292Y-92562D01*
X230273D01*
X230224D01*
X230146Y-92552D01*
X230048Y-92542D01*
X229931Y-92523D01*
X229804Y-92493D01*
X229668Y-92454D01*
X229531Y-92396D01*
X229512Y-92386D01*
X229463Y-92367D01*
X229395Y-92328D01*
X229297Y-92269D01*
X229180Y-92201D01*
X229044Y-92113D01*
X228907Y-91996D01*
X228751Y-91869D01*
X228731Y-91850D01*
X228673Y-91801D01*
X228585Y-91713D01*
X228527Y-91655D01*
X228458Y-91586D01*
X228380Y-91508D01*
X228293Y-91411D01*
X228205Y-91313D01*
X228097Y-91206D01*
X227990Y-91089D01*
X227873Y-90952D01*
X227756Y-90816D01*
X227619Y-90660D01*
X227610Y-90650D01*
X227590Y-90630D01*
X227561Y-90591D01*
X227522Y-90543D01*
X227424Y-90426D01*
X227298Y-90279D01*
X227161Y-90133D01*
X227024Y-89977D01*
X226908Y-89850D01*
X226859Y-89801D01*
X226810Y-89753D01*
X226800Y-89743D01*
X226771Y-89723D01*
X226732Y-89684D01*
X226673Y-89636D01*
X226547Y-89528D01*
X226390Y-89421D01*
Y-92571D01*
X225639D01*
Y-88329D01*
X225649D01*
X225688D01*
X225747D01*
X225815Y-88338D01*
D02*
G37*
G36*
X206361Y-84759D02*
X206352Y-84925D01*
X206342Y-85100D01*
X206322Y-85295D01*
X206293Y-85481D01*
X206264Y-85637D01*
Y-85646D01*
X206254Y-85666D01*
Y-85685D01*
X206234Y-85724D01*
X206205Y-85832D01*
X206157Y-85958D01*
X206098Y-86105D01*
X206020Y-86261D01*
X205922Y-86417D01*
X205805Y-86573D01*
Y-86583D01*
X205786Y-86593D01*
X205727Y-86661D01*
X205630Y-86749D01*
X205503Y-86856D01*
X205347Y-86983D01*
X205162Y-87109D01*
X204947Y-87226D01*
X204703Y-87334D01*
X204693D01*
X204674Y-87344D01*
X204635Y-87353D01*
X204586Y-87373D01*
X204528Y-87392D01*
X204450Y-87412D01*
X204362Y-87441D01*
X204264Y-87461D01*
X204157Y-87480D01*
X204040Y-87509D01*
X203786Y-87548D01*
X203503Y-87578D01*
X203191Y-87587D01*
X203182D01*
X203162D01*
X203123D01*
X203065D01*
X203006Y-87578D01*
X202928D01*
X202752Y-87568D01*
X202557Y-87548D01*
X202333Y-87509D01*
X202109Y-87470D01*
X201894Y-87412D01*
X201884D01*
X201865Y-87402D01*
X201836Y-87392D01*
X201797Y-87383D01*
X201699Y-87344D01*
X201562Y-87295D01*
X201416Y-87236D01*
X201260Y-87158D01*
X201104Y-87070D01*
X200958Y-86973D01*
X200938Y-86963D01*
X200899Y-86924D01*
X200831Y-86875D01*
X200743Y-86797D01*
X200655Y-86719D01*
X200558Y-86612D01*
X200460Y-86505D01*
X200373Y-86388D01*
X200363Y-86378D01*
X200343Y-86329D01*
X200304Y-86261D01*
X200256Y-86173D01*
X200207Y-86066D01*
X200158Y-85939D01*
X200109Y-85793D01*
X200061Y-85627D01*
Y-85607D01*
X200041Y-85549D01*
X200031Y-85461D01*
X200012Y-85334D01*
X199992Y-85188D01*
X199973Y-85012D01*
X199963Y-84817D01*
X199953Y-84603D01*
Y-82301D01*
X206361D01*
Y-84759D01*
D02*
G37*
G36*
X204781Y-89050D02*
X204791Y-89070D01*
X204811Y-89109D01*
X204840Y-89148D01*
X204869Y-89206D01*
X204898Y-89275D01*
X204986Y-89431D01*
X205093Y-89606D01*
X205220Y-89801D01*
X205366Y-89997D01*
X205522Y-90182D01*
X205532Y-90192D01*
X205542Y-90201D01*
X205600Y-90260D01*
X205688Y-90348D01*
X205796Y-90455D01*
X205932Y-90572D01*
X206078Y-90689D01*
X206234Y-90796D01*
X206390Y-90884D01*
Y-91401D01*
X199953D01*
Y-90611D01*
X204967D01*
X204957Y-90601D01*
X204918Y-90562D01*
X204869Y-90494D01*
X204801Y-90406D01*
X204713Y-90299D01*
X204625Y-90172D01*
X204518Y-90026D01*
X204420Y-89860D01*
Y-89850D01*
X204411Y-89840D01*
X204371Y-89782D01*
X204323Y-89694D01*
X204264Y-89587D01*
X204196Y-89460D01*
X204137Y-89324D01*
X204069Y-89177D01*
X204011Y-89041D01*
X204781D01*
Y-89050D01*
D02*
G37*
G36*
X172105Y-427450D02*
X172163D01*
X172241Y-427459D01*
X172417Y-427489D01*
X172612Y-427547D01*
X172817Y-427625D01*
X173022Y-427723D01*
X173119Y-427791D01*
X173217Y-427869D01*
X173226D01*
X173236Y-427888D01*
X173295Y-427947D01*
X173373Y-428045D01*
X173470Y-428171D01*
X173578Y-428337D01*
X173665Y-428532D01*
X173753Y-428766D01*
X173802Y-429030D01*
X173022Y-429088D01*
Y-429078D01*
Y-429069D01*
X173002Y-429010D01*
X172973Y-428932D01*
X172944Y-428835D01*
X172846Y-428610D01*
X172787Y-428513D01*
X172719Y-428425D01*
X172710Y-428405D01*
X172661Y-428367D01*
X172592Y-428318D01*
X172505Y-428249D01*
X172388Y-428191D01*
X172251Y-428132D01*
X172095Y-428093D01*
X171929Y-428084D01*
X171861D01*
X171793Y-428093D01*
X171705Y-428113D01*
X171598Y-428132D01*
X171481Y-428171D01*
X171373Y-428230D01*
X171256Y-428298D01*
X171237Y-428308D01*
X171198Y-428347D01*
X171129Y-428415D01*
X171051Y-428503D01*
X170954Y-428610D01*
X170856Y-428747D01*
X170759Y-428913D01*
X170671Y-429098D01*
Y-429108D01*
X170661Y-429118D01*
X170651Y-429156D01*
X170642Y-429196D01*
X170622Y-429244D01*
X170603Y-429313D01*
X170583Y-429391D01*
X170564Y-429478D01*
X170544Y-429576D01*
X170525Y-429683D01*
X170505Y-429810D01*
X170486Y-429937D01*
X170476Y-430083D01*
X170466Y-430239D01*
X170456Y-430405D01*
Y-430571D01*
X170466Y-430561D01*
X170505Y-430512D01*
X170564Y-430434D01*
X170651Y-430337D01*
X170749Y-430229D01*
X170866Y-430122D01*
X171003Y-430025D01*
X171149Y-429937D01*
X171168Y-429927D01*
X171217Y-429907D01*
X171305Y-429869D01*
X171412Y-429829D01*
X171539Y-429790D01*
X171685Y-429752D01*
X171841Y-429732D01*
X172007Y-429722D01*
X172085D01*
X172144Y-429732D01*
X172212Y-429742D01*
X172290Y-429752D01*
X172475Y-429790D01*
X172680Y-429869D01*
X172797Y-429907D01*
X172905Y-429966D01*
X173022Y-430034D01*
X173139Y-430112D01*
X173246Y-430200D01*
X173353Y-430307D01*
X173363Y-430317D01*
X173373Y-430337D01*
X173402Y-430366D01*
X173441Y-430415D01*
X173480Y-430473D01*
X173529Y-430541D01*
X173578Y-430620D01*
X173636Y-430707D01*
X173685Y-430815D01*
X173734Y-430922D01*
X173782Y-431049D01*
X173821Y-431175D01*
X173860Y-431322D01*
X173890Y-431468D01*
X173899Y-431634D01*
X173909Y-431800D01*
Y-431810D01*
Y-431829D01*
Y-431858D01*
Y-431897D01*
X173899Y-431956D01*
Y-432014D01*
X173880Y-432170D01*
X173841Y-432336D01*
X173802Y-432531D01*
X173734Y-432726D01*
X173646Y-432921D01*
Y-432931D01*
X173636Y-432941D01*
X173617Y-432970D01*
X173597Y-433009D01*
X173538Y-433097D01*
X173461Y-433214D01*
X173353Y-433341D01*
X173226Y-433468D01*
X173090Y-433594D01*
X172924Y-433711D01*
X172905Y-433721D01*
X172846Y-433750D01*
X172749Y-433799D01*
X172631Y-433848D01*
X172475Y-433897D01*
X172300Y-433946D01*
X172105Y-433975D01*
X171900Y-433984D01*
X171861D01*
X171802Y-433975D01*
X171734D01*
X171656Y-433965D01*
X171559Y-433946D01*
X171451Y-433926D01*
X171334Y-433897D01*
X171207Y-433858D01*
X171071Y-433809D01*
X170944Y-433750D01*
X170807Y-433682D01*
X170671Y-433594D01*
X170534Y-433497D01*
X170408Y-433390D01*
X170291Y-433263D01*
X170281Y-433253D01*
X170261Y-433224D01*
X170232Y-433185D01*
X170193Y-433126D01*
X170144Y-433048D01*
X170096Y-432951D01*
X170037Y-432834D01*
X169988Y-432697D01*
X169930Y-432541D01*
X169871Y-432365D01*
X169822Y-432170D01*
X169774Y-431956D01*
X169735Y-431722D01*
X169705Y-431458D01*
X169686Y-431185D01*
X169676Y-430883D01*
Y-430873D01*
Y-430863D01*
Y-430834D01*
Y-430805D01*
Y-430707D01*
X169686Y-430580D01*
X169696Y-430424D01*
X169715Y-430249D01*
X169735Y-430054D01*
X169764Y-429849D01*
X169793Y-429625D01*
X169842Y-429400D01*
X169900Y-429176D01*
X169969Y-428961D01*
X170047Y-428737D01*
X170135Y-428542D01*
X170242Y-428347D01*
X170359Y-428181D01*
X170369Y-428171D01*
X170388Y-428152D01*
X170417Y-428113D01*
X170466Y-428064D01*
X170534Y-428006D01*
X170603Y-427947D01*
X170690Y-427879D01*
X170788Y-427811D01*
X170895Y-427742D01*
X171022Y-427674D01*
X171149Y-427615D01*
X171295Y-427557D01*
X171451Y-427508D01*
X171617Y-427469D01*
X171793Y-427450D01*
X171978Y-427440D01*
X172046D01*
X172105Y-427450D01*
D02*
G37*
G36*
X161542Y-427372D02*
X161620Y-427381D01*
X161717Y-427391D01*
X161824Y-427401D01*
X161942Y-427420D01*
X162195Y-427479D01*
X162468Y-427567D01*
X162605Y-427625D01*
X162741Y-427693D01*
X162868Y-427771D01*
X162995Y-427859D01*
X163005Y-427869D01*
X163024Y-427879D01*
X163053Y-427908D01*
X163102Y-427947D01*
X163151Y-427996D01*
X163219Y-428064D01*
X163288Y-428132D01*
X163356Y-428210D01*
X163434Y-428308D01*
X163502Y-428405D01*
X163580Y-428522D01*
X163658Y-428649D01*
X163726Y-428776D01*
X163795Y-428922D01*
X163912Y-429235D01*
X163073Y-429430D01*
Y-429420D01*
X163063Y-429400D01*
X163053Y-429361D01*
X163034Y-429313D01*
X163005Y-429254D01*
X162975Y-429186D01*
X162907Y-429039D01*
X162819Y-428874D01*
X162702Y-428698D01*
X162575Y-428542D01*
X162419Y-428405D01*
X162400Y-428396D01*
X162341Y-428357D01*
X162254Y-428308D01*
X162127Y-428240D01*
X161980Y-428181D01*
X161795Y-428132D01*
X161590Y-428093D01*
X161356Y-428084D01*
X161288D01*
X161239Y-428093D01*
X161171D01*
X161103Y-428103D01*
X160927Y-428132D01*
X160732Y-428171D01*
X160527Y-428240D01*
X160322Y-428327D01*
X160127Y-428445D01*
X160118D01*
X160108Y-428464D01*
X160049Y-428513D01*
X159962Y-428591D01*
X159854Y-428698D01*
X159747Y-428835D01*
X159630Y-428991D01*
X159523Y-429186D01*
X159435Y-429400D01*
Y-429410D01*
X159425Y-429430D01*
X159415Y-429459D01*
X159406Y-429508D01*
X159386Y-429556D01*
X159376Y-429625D01*
X159337Y-429781D01*
X159298Y-429966D01*
X159269Y-430171D01*
X159249Y-430395D01*
X159240Y-430629D01*
Y-430639D01*
Y-430668D01*
Y-430707D01*
Y-430766D01*
X159249Y-430834D01*
Y-430922D01*
X159259Y-431010D01*
X159269Y-431107D01*
X159298Y-431331D01*
X159337Y-431575D01*
X159396Y-431819D01*
X159474Y-432053D01*
Y-432063D01*
X159484Y-432083D01*
X159503Y-432112D01*
X159523Y-432151D01*
X159571Y-432268D01*
X159649Y-432395D01*
X159757Y-432551D01*
X159883Y-432697D01*
X160030Y-432843D01*
X160205Y-432970D01*
X160215D01*
X160225Y-432980D01*
X160254Y-432999D01*
X160293Y-433019D01*
X160400Y-433058D01*
X160537Y-433116D01*
X160693Y-433165D01*
X160878Y-433214D01*
X161083Y-433253D01*
X161298Y-433263D01*
X161366D01*
X161415Y-433253D01*
X161473D01*
X161551Y-433243D01*
X161717Y-433214D01*
X161903Y-433165D01*
X162107Y-433087D01*
X162302Y-432990D01*
X162498Y-432853D01*
X162507Y-432843D01*
X162517Y-432834D01*
X162575Y-432775D01*
X162663Y-432677D01*
X162771Y-432551D01*
X162878Y-432375D01*
X162995Y-432170D01*
X163092Y-431917D01*
X163171Y-431634D01*
X164019Y-431848D01*
Y-431858D01*
X164009Y-431897D01*
X163990Y-431946D01*
X163970Y-432024D01*
X163931Y-432102D01*
X163892Y-432209D01*
X163853Y-432317D01*
X163795Y-432434D01*
X163668Y-432697D01*
X163492Y-432960D01*
X163297Y-433214D01*
X163180Y-433331D01*
X163053Y-433438D01*
X163044Y-433448D01*
X163024Y-433458D01*
X162985Y-433487D01*
X162927Y-433526D01*
X162858Y-433565D01*
X162780Y-433614D01*
X162693Y-433663D01*
X162585Y-433711D01*
X162468Y-433760D01*
X162341Y-433809D01*
X162195Y-433858D01*
X162049Y-433897D01*
X161727Y-433965D01*
X161551Y-433975D01*
X161366Y-433984D01*
X161269D01*
X161190Y-433975D01*
X161103D01*
X161005Y-433965D01*
X160888Y-433946D01*
X160771Y-433936D01*
X160498Y-433877D01*
X160215Y-433809D01*
X159942Y-433702D01*
X159805Y-433643D01*
X159679Y-433565D01*
X159669Y-433555D01*
X159649Y-433546D01*
X159620Y-433516D01*
X159571Y-433487D01*
X159454Y-433390D01*
X159318Y-433253D01*
X159152Y-433087D01*
X158996Y-432873D01*
X158830Y-432629D01*
X158694Y-432346D01*
Y-432336D01*
X158684Y-432307D01*
X158664Y-432268D01*
X158645Y-432209D01*
X158616Y-432131D01*
X158586Y-432044D01*
X158557Y-431946D01*
X158528Y-431829D01*
X158498Y-431712D01*
X158469Y-431575D01*
X158411Y-431283D01*
X158372Y-430971D01*
X158362Y-430629D01*
Y-430620D01*
Y-430580D01*
Y-430532D01*
X158372Y-430463D01*
Y-430376D01*
X158381Y-430268D01*
X158391Y-430161D01*
X158411Y-430034D01*
X158460Y-429761D01*
X158518Y-429469D01*
X158616Y-429166D01*
X158742Y-428883D01*
Y-428874D01*
X158762Y-428854D01*
X158781Y-428815D01*
X158811Y-428757D01*
X158850Y-428698D01*
X158898Y-428630D01*
X159025Y-428464D01*
X159171Y-428279D01*
X159357Y-428093D01*
X159581Y-427908D01*
X159825Y-427752D01*
X159835D01*
X159854Y-427733D01*
X159893Y-427713D01*
X159952Y-427693D01*
X160010Y-427664D01*
X160088Y-427625D01*
X160186Y-427596D01*
X160283Y-427557D01*
X160391Y-427518D01*
X160508Y-427489D01*
X160771Y-427420D01*
X161064Y-427381D01*
X161376Y-427362D01*
X161473D01*
X161542Y-427372D01*
D02*
G37*
G36*
X167706Y-433877D02*
X166916D01*
Y-428864D01*
X166906Y-428874D01*
X166867Y-428913D01*
X166799Y-428961D01*
X166711Y-429030D01*
X166604Y-429118D01*
X166477Y-429205D01*
X166331Y-429313D01*
X166165Y-429410D01*
X166155D01*
X166145Y-429420D01*
X166087Y-429459D01*
X165999Y-429508D01*
X165892Y-429566D01*
X165765Y-429634D01*
X165628Y-429693D01*
X165482Y-429761D01*
X165345Y-429820D01*
Y-429049D01*
X165355D01*
X165375Y-429039D01*
X165414Y-429020D01*
X165453Y-428991D01*
X165511Y-428961D01*
X165580Y-428932D01*
X165736Y-428844D01*
X165911Y-428737D01*
X166106Y-428610D01*
X166301Y-428464D01*
X166487Y-428308D01*
X166496Y-428298D01*
X166506Y-428288D01*
X166565Y-428230D01*
X166653Y-428142D01*
X166760Y-428035D01*
X166877Y-427898D01*
X166994Y-427752D01*
X167101Y-427596D01*
X167189Y-427440D01*
X167706D01*
Y-433877D01*
D02*
G37*
G36*
X153525Y-369331D02*
X153613D01*
X153710Y-369340D01*
X153827Y-369360D01*
X153944Y-369370D01*
X154218Y-369428D01*
X154500Y-369496D01*
X154774Y-369604D01*
X154910Y-369662D01*
X155037Y-369740D01*
X155047Y-369750D01*
X155066Y-369760D01*
X155095Y-369789D01*
X155144Y-369818D01*
X155261Y-369916D01*
X155398Y-370052D01*
X155563Y-370218D01*
X155720Y-370433D01*
X155885Y-370677D01*
X156022Y-370960D01*
Y-370969D01*
X156032Y-370998D01*
X156051Y-371037D01*
X156071Y-371096D01*
X156100Y-371174D01*
X156129Y-371262D01*
X156159Y-371359D01*
X156188Y-371476D01*
X156217Y-371593D01*
X156246Y-371730D01*
X156305Y-372023D01*
X156344Y-372335D01*
X156354Y-372676D01*
Y-372686D01*
Y-372725D01*
Y-372774D01*
X156344Y-372842D01*
Y-372930D01*
X156334Y-373037D01*
X156324Y-373144D01*
X156305Y-373271D01*
X156256Y-373544D01*
X156198Y-373837D01*
X156100Y-374139D01*
X155973Y-374422D01*
Y-374432D01*
X155954Y-374451D01*
X155934Y-374490D01*
X155905Y-374549D01*
X155866Y-374607D01*
X155817Y-374676D01*
X155690Y-374841D01*
X155544Y-375027D01*
X155359Y-375212D01*
X155134Y-375397D01*
X154890Y-375553D01*
X154881D01*
X154861Y-375573D01*
X154822Y-375592D01*
X154764Y-375612D01*
X154705Y-375641D01*
X154627Y-375680D01*
X154530Y-375709D01*
X154432Y-375748D01*
X154325Y-375788D01*
X154208Y-375817D01*
X153944Y-375885D01*
X153652Y-375924D01*
X153340Y-375943D01*
X153242D01*
X153174Y-375934D01*
X153096Y-375924D01*
X152998Y-375914D01*
X152891Y-375905D01*
X152774Y-375885D01*
X152520Y-375826D01*
X152247Y-375739D01*
X152111Y-375680D01*
X151974Y-375612D01*
X151847Y-375534D01*
X151721Y-375446D01*
X151711Y-375436D01*
X151691Y-375427D01*
X151662Y-375397D01*
X151613Y-375358D01*
X151565Y-375310D01*
X151496Y-375241D01*
X151428Y-375173D01*
X151360Y-375095D01*
X151282Y-374997D01*
X151213Y-374900D01*
X151135Y-374783D01*
X151057Y-374656D01*
X150989Y-374529D01*
X150921Y-374383D01*
X150804Y-374071D01*
X151643Y-373876D01*
Y-373885D01*
X151652Y-373905D01*
X151662Y-373944D01*
X151682Y-373993D01*
X151711Y-374051D01*
X151740Y-374120D01*
X151808Y-374266D01*
X151896Y-374432D01*
X152013Y-374607D01*
X152140Y-374763D01*
X152296Y-374900D01*
X152316Y-374910D01*
X152374Y-374949D01*
X152462Y-374997D01*
X152589Y-375066D01*
X152735Y-375124D01*
X152920Y-375173D01*
X153125Y-375212D01*
X153359Y-375222D01*
X153427D01*
X153476Y-375212D01*
X153545D01*
X153613Y-375202D01*
X153788Y-375173D01*
X153983Y-375134D01*
X154188Y-375066D01*
X154393Y-374978D01*
X154588Y-374861D01*
X154598D01*
X154608Y-374841D01*
X154666Y-374793D01*
X154754Y-374715D01*
X154861Y-374607D01*
X154969Y-374471D01*
X155086Y-374315D01*
X155193Y-374120D01*
X155281Y-373905D01*
Y-373895D01*
X155290Y-373876D01*
X155300Y-373847D01*
X155310Y-373798D01*
X155330Y-373749D01*
X155339Y-373681D01*
X155378Y-373525D01*
X155417Y-373339D01*
X155447Y-373134D01*
X155466Y-372910D01*
X155476Y-372676D01*
Y-372666D01*
Y-372637D01*
Y-372598D01*
Y-372539D01*
X155466Y-372471D01*
Y-372383D01*
X155456Y-372296D01*
X155447Y-372198D01*
X155417Y-371974D01*
X155378Y-371730D01*
X155320Y-371486D01*
X155242Y-371252D01*
Y-371242D01*
X155232Y-371223D01*
X155212Y-371194D01*
X155193Y-371155D01*
X155144Y-371037D01*
X155066Y-370911D01*
X154959Y-370755D01*
X154832Y-370608D01*
X154686Y-370462D01*
X154510Y-370335D01*
X154500D01*
X154491Y-370326D01*
X154461Y-370306D01*
X154422Y-370286D01*
X154315Y-370247D01*
X154178Y-370189D01*
X154023Y-370140D01*
X153837Y-370091D01*
X153632Y-370052D01*
X153418Y-370043D01*
X153350D01*
X153301Y-370052D01*
X153242D01*
X153164Y-370062D01*
X152998Y-370091D01*
X152813Y-370140D01*
X152608Y-370218D01*
X152413Y-370316D01*
X152218Y-370452D01*
X152208Y-370462D01*
X152199Y-370472D01*
X152140Y-370530D01*
X152052Y-370628D01*
X151945Y-370755D01*
X151838Y-370930D01*
X151721Y-371135D01*
X151623Y-371389D01*
X151545Y-371671D01*
X150696Y-371457D01*
Y-371447D01*
X150706Y-371408D01*
X150726Y-371359D01*
X150745Y-371281D01*
X150784Y-371203D01*
X150823Y-371096D01*
X150862Y-370989D01*
X150921Y-370872D01*
X151048Y-370608D01*
X151223Y-370345D01*
X151418Y-370091D01*
X151535Y-369974D01*
X151662Y-369867D01*
X151672Y-369857D01*
X151691Y-369847D01*
X151730Y-369818D01*
X151789Y-369779D01*
X151857Y-369740D01*
X151935Y-369692D01*
X152023Y-369643D01*
X152130Y-369594D01*
X152247Y-369545D01*
X152374Y-369496D01*
X152520Y-369448D01*
X152667Y-369409D01*
X152989Y-369340D01*
X153164Y-369331D01*
X153350Y-369321D01*
X153447D01*
X153525Y-369331D01*
D02*
G37*
G36*
X147800Y-374441D02*
X147809Y-374432D01*
X147848Y-374393D01*
X147917Y-374344D01*
X148005Y-374276D01*
X148112Y-374188D01*
X148239Y-374100D01*
X148385Y-373993D01*
X148551Y-373895D01*
X148560D01*
X148570Y-373885D01*
X148629Y-373847D01*
X148716Y-373798D01*
X148824Y-373739D01*
X148951Y-373671D01*
X149087Y-373612D01*
X149234Y-373544D01*
X149370Y-373486D01*
Y-374256D01*
X149360D01*
X149341Y-374266D01*
X149302Y-374285D01*
X149263Y-374315D01*
X149204Y-374344D01*
X149136Y-374373D01*
X148980Y-374461D01*
X148804Y-374568D01*
X148609Y-374695D01*
X148414Y-374841D01*
X148229Y-374997D01*
X148219Y-375007D01*
X148209Y-375017D01*
X148151Y-375075D01*
X148063Y-375163D01*
X147956Y-375271D01*
X147839Y-375407D01*
X147722Y-375553D01*
X147614Y-375709D01*
X147527Y-375866D01*
X147010D01*
Y-369428D01*
X147800D01*
Y-374441D01*
D02*
G37*
G36*
X142825D02*
X142835Y-374432D01*
X142874Y-374393D01*
X142942Y-374344D01*
X143030Y-374276D01*
X143138Y-374188D01*
X143264Y-374100D01*
X143411Y-373993D01*
X143576Y-373895D01*
X143586D01*
X143596Y-373885D01*
X143654Y-373847D01*
X143742Y-373798D01*
X143849Y-373739D01*
X143976Y-373671D01*
X144113Y-373612D01*
X144259Y-373544D01*
X144396Y-373486D01*
Y-374256D01*
X144386D01*
X144366Y-374266D01*
X144327Y-374285D01*
X144288Y-374315D01*
X144230Y-374344D01*
X144162Y-374373D01*
X144005Y-374461D01*
X143830Y-374568D01*
X143635Y-374695D01*
X143440Y-374841D01*
X143254Y-374997D01*
X143245Y-375007D01*
X143235Y-375017D01*
X143176Y-375075D01*
X143089Y-375163D01*
X142981Y-375271D01*
X142864Y-375407D01*
X142747Y-375553D01*
X142640Y-375709D01*
X142552Y-375866D01*
X142035D01*
Y-369428D01*
X142825D01*
Y-374441D01*
D02*
G37*
G36*
X251838Y-244871D02*
X251896D01*
X251975Y-244880D01*
X252150Y-244910D01*
X252345Y-244958D01*
X252550Y-245036D01*
X252745Y-245134D01*
X252940Y-245271D01*
X252950Y-245280D01*
X252960Y-245290D01*
X253018Y-245348D01*
X253096Y-245446D01*
X253194Y-245573D01*
X253291Y-245739D01*
X253379Y-245944D01*
X253457Y-246178D01*
X253506Y-246451D01*
X252755Y-246509D01*
Y-246500D01*
Y-246490D01*
X252745Y-246460D01*
X252735Y-246421D01*
X252716Y-246324D01*
X252677Y-246217D01*
X252628Y-246090D01*
X252569Y-245963D01*
X252491Y-245836D01*
X252394Y-245739D01*
X252384Y-245729D01*
X252345Y-245700D01*
X252287Y-245661D01*
X252199Y-245622D01*
X252101Y-245583D01*
X251984Y-245544D01*
X251848Y-245514D01*
X251692Y-245505D01*
X251633D01*
X251565Y-245514D01*
X251477Y-245524D01*
X251380Y-245544D01*
X251272Y-245573D01*
X251165Y-245612D01*
X251058Y-245670D01*
X251048Y-245680D01*
X251009Y-245700D01*
X250960Y-245739D01*
X250902Y-245787D01*
X250824Y-245846D01*
X250755Y-245924D01*
X250677Y-246012D01*
X250609Y-246109D01*
X250599Y-246119D01*
X250580Y-246158D01*
X250550Y-246226D01*
X250502Y-246314D01*
X250463Y-246421D01*
X250414Y-246548D01*
X250365Y-246695D01*
X250316Y-246860D01*
Y-246870D01*
X250307Y-246880D01*
Y-246909D01*
X250297Y-246938D01*
X250277Y-247036D01*
X250258Y-247163D01*
X250238Y-247309D01*
X250219Y-247465D01*
X250199Y-247641D01*
Y-247826D01*
Y-247836D01*
Y-247865D01*
Y-247914D01*
Y-247982D01*
X250209Y-247962D01*
X250248Y-247924D01*
X250297Y-247845D01*
X250375Y-247767D01*
X250463Y-247670D01*
X250580Y-247563D01*
X250707Y-247465D01*
X250853Y-247367D01*
X250872Y-247358D01*
X250921Y-247328D01*
X251009Y-247299D01*
X251116Y-247260D01*
X251243Y-247211D01*
X251389Y-247182D01*
X251555Y-247153D01*
X251731Y-247143D01*
X251809D01*
X251867Y-247153D01*
X251936Y-247163D01*
X252013Y-247173D01*
X252199Y-247211D01*
X252413Y-247280D01*
X252521Y-247328D01*
X252638Y-247387D01*
X252745Y-247455D01*
X252862Y-247533D01*
X252969Y-247621D01*
X253077Y-247719D01*
X253086Y-247728D01*
X253096Y-247748D01*
X253125Y-247777D01*
X253164Y-247826D01*
X253203Y-247885D01*
X253252Y-247953D01*
X253301Y-248031D01*
X253350Y-248128D01*
X253398Y-248226D01*
X253447Y-248343D01*
X253496Y-248470D01*
X253535Y-248606D01*
X253574Y-248752D01*
X253603Y-248899D01*
X253613Y-249065D01*
X253623Y-249240D01*
Y-249250D01*
Y-249279D01*
Y-249338D01*
X253613Y-249406D01*
X253603Y-249484D01*
X253594Y-249582D01*
X253574Y-249689D01*
X253555Y-249806D01*
X253486Y-250050D01*
X253438Y-250186D01*
X253379Y-250313D01*
X253321Y-250450D01*
X253242Y-250576D01*
X253155Y-250693D01*
X253057Y-250811D01*
X253047Y-250820D01*
X253028Y-250840D01*
X252999Y-250869D01*
X252950Y-250908D01*
X252901Y-250947D01*
X252833Y-250996D01*
X252755Y-251054D01*
X252657Y-251113D01*
X252560Y-251162D01*
X252452Y-251220D01*
X252209Y-251318D01*
X252072Y-251347D01*
X251926Y-251376D01*
X251770Y-251396D01*
X251614Y-251406D01*
X251555D01*
X251506Y-251396D01*
X251458D01*
X251389Y-251386D01*
X251233Y-251367D01*
X251058Y-251318D01*
X250872Y-251259D01*
X250667Y-251181D01*
X250472Y-251064D01*
X250463D01*
X250453Y-251045D01*
X250424Y-251025D01*
X250385Y-251006D01*
X250297Y-250928D01*
X250180Y-250820D01*
X250053Y-250674D01*
X249916Y-250518D01*
X249790Y-250323D01*
X249682Y-250098D01*
Y-250089D01*
X249673Y-250069D01*
X249653Y-250030D01*
X249643Y-249981D01*
X249614Y-249923D01*
X249595Y-249845D01*
X249575Y-249747D01*
X249546Y-249640D01*
X249517Y-249523D01*
X249497Y-249387D01*
X249468Y-249240D01*
X249448Y-249084D01*
X249438Y-248909D01*
X249419Y-248723D01*
X249409Y-248519D01*
Y-248304D01*
Y-248294D01*
Y-248245D01*
Y-248187D01*
Y-248099D01*
X249419Y-248001D01*
Y-247875D01*
X249429Y-247748D01*
X249438Y-247602D01*
X249478Y-247290D01*
X249526Y-246958D01*
X249595Y-246636D01*
X249634Y-246490D01*
X249682Y-246343D01*
Y-246334D01*
X249692Y-246314D01*
X249712Y-246275D01*
X249731Y-246226D01*
X249760Y-246158D01*
X249790Y-246090D01*
X249877Y-245934D01*
X249995Y-245748D01*
X250131Y-245563D01*
X250287Y-245387D01*
X250472Y-245231D01*
X250482D01*
X250492Y-245212D01*
X250521Y-245202D01*
X250570Y-245173D01*
X250619Y-245144D01*
X250677Y-245114D01*
X250824Y-245046D01*
X251009Y-244978D01*
X251214Y-244919D01*
X251458Y-244880D01*
X251711Y-244861D01*
X251779D01*
X251838Y-244871D01*
D02*
G37*
G36*
X257173D02*
X257261D01*
X257358Y-244880D01*
X257475Y-244900D01*
X257593Y-244910D01*
X257866Y-244968D01*
X258148Y-245036D01*
X258422Y-245144D01*
X258558Y-245202D01*
X258685Y-245280D01*
X258695Y-245290D01*
X258714Y-245300D01*
X258743Y-245329D01*
X258792Y-245358D01*
X258909Y-245456D01*
X259046Y-245592D01*
X259212Y-245758D01*
X259368Y-245973D01*
X259534Y-246217D01*
X259670Y-246500D01*
Y-246509D01*
X259680Y-246539D01*
X259699Y-246577D01*
X259719Y-246636D01*
X259748Y-246714D01*
X259777Y-246802D01*
X259807Y-246899D01*
X259836Y-247016D01*
X259865Y-247133D01*
X259894Y-247270D01*
X259953Y-247563D01*
X259992Y-247875D01*
X260002Y-248216D01*
Y-248226D01*
Y-248265D01*
Y-248314D01*
X259992Y-248382D01*
Y-248470D01*
X259982Y-248577D01*
X259972Y-248684D01*
X259953Y-248811D01*
X259904Y-249084D01*
X259846Y-249377D01*
X259748Y-249679D01*
X259621Y-249962D01*
Y-249972D01*
X259602Y-249991D01*
X259582Y-250030D01*
X259553Y-250089D01*
X259514Y-250147D01*
X259465Y-250216D01*
X259338Y-250381D01*
X259192Y-250567D01*
X259007Y-250752D01*
X258783Y-250937D01*
X258539Y-251093D01*
X258529D01*
X258509Y-251113D01*
X258470Y-251132D01*
X258412Y-251152D01*
X258353Y-251181D01*
X258275Y-251220D01*
X258178Y-251250D01*
X258080Y-251289D01*
X257973Y-251327D01*
X257856Y-251357D01*
X257593Y-251425D01*
X257300Y-251464D01*
X256988Y-251483D01*
X256890D01*
X256822Y-251474D01*
X256744Y-251464D01*
X256646Y-251454D01*
X256539Y-251444D01*
X256422Y-251425D01*
X256168Y-251367D01*
X255895Y-251279D01*
X255759Y-251220D01*
X255622Y-251152D01*
X255495Y-251074D01*
X255369Y-250986D01*
X255359Y-250976D01*
X255340Y-250967D01*
X255310Y-250937D01*
X255261Y-250898D01*
X255213Y-250850D01*
X255144Y-250781D01*
X255076Y-250713D01*
X255008Y-250635D01*
X254930Y-250537D01*
X254862Y-250440D01*
X254783Y-250323D01*
X254706Y-250196D01*
X254637Y-250069D01*
X254569Y-249923D01*
X254452Y-249611D01*
X255291Y-249416D01*
Y-249426D01*
X255301Y-249445D01*
X255310Y-249484D01*
X255330Y-249533D01*
X255359Y-249591D01*
X255388Y-249660D01*
X255457Y-249806D01*
X255544Y-249972D01*
X255661Y-250147D01*
X255788Y-250303D01*
X255944Y-250440D01*
X255964Y-250450D01*
X256022Y-250489D01*
X256110Y-250537D01*
X256237Y-250606D01*
X256383Y-250664D01*
X256568Y-250713D01*
X256773Y-250752D01*
X257007Y-250762D01*
X257076D01*
X257124Y-250752D01*
X257193D01*
X257261Y-250742D01*
X257437Y-250713D01*
X257632Y-250674D01*
X257836Y-250606D01*
X258041Y-250518D01*
X258236Y-250401D01*
X258246D01*
X258256Y-250381D01*
X258314Y-250333D01*
X258402Y-250255D01*
X258509Y-250147D01*
X258617Y-250011D01*
X258734Y-249855D01*
X258841Y-249660D01*
X258929Y-249445D01*
Y-249435D01*
X258939Y-249416D01*
X258948Y-249387D01*
X258958Y-249338D01*
X258978Y-249289D01*
X258987Y-249221D01*
X259026Y-249065D01*
X259065Y-248879D01*
X259095Y-248675D01*
X259114Y-248450D01*
X259124Y-248216D01*
Y-248206D01*
Y-248177D01*
Y-248138D01*
Y-248079D01*
X259114Y-248011D01*
Y-247924D01*
X259104Y-247836D01*
X259095Y-247738D01*
X259065Y-247514D01*
X259026Y-247270D01*
X258968Y-247026D01*
X258890Y-246792D01*
Y-246782D01*
X258880Y-246763D01*
X258860Y-246733D01*
X258841Y-246695D01*
X258792Y-246577D01*
X258714Y-246451D01*
X258607Y-246295D01*
X258480Y-246148D01*
X258334Y-246002D01*
X258158Y-245875D01*
X258148D01*
X258139Y-245865D01*
X258109Y-245846D01*
X258071Y-245826D01*
X257963Y-245787D01*
X257827Y-245729D01*
X257671Y-245680D01*
X257485Y-245631D01*
X257280Y-245592D01*
X257066Y-245583D01*
X256998D01*
X256949Y-245592D01*
X256890D01*
X256812Y-245602D01*
X256646Y-245631D01*
X256461Y-245680D01*
X256256Y-245758D01*
X256061Y-245856D01*
X255866Y-245992D01*
X255856Y-246002D01*
X255847Y-246012D01*
X255788Y-246070D01*
X255700Y-246168D01*
X255593Y-246295D01*
X255486Y-246470D01*
X255369Y-246675D01*
X255271Y-246929D01*
X255193Y-247211D01*
X254345Y-246997D01*
Y-246987D01*
X254354Y-246948D01*
X254374Y-246899D01*
X254393Y-246821D01*
X254432Y-246743D01*
X254471Y-246636D01*
X254510Y-246529D01*
X254569Y-246412D01*
X254696Y-246148D01*
X254871Y-245885D01*
X255066Y-245631D01*
X255183Y-245514D01*
X255310Y-245407D01*
X255320Y-245397D01*
X255340Y-245387D01*
X255378Y-245358D01*
X255437Y-245319D01*
X255505Y-245280D01*
X255583Y-245231D01*
X255671Y-245183D01*
X255778Y-245134D01*
X255895Y-245085D01*
X256022Y-245036D01*
X256168Y-244988D01*
X256315Y-244949D01*
X256637Y-244880D01*
X256812Y-244871D01*
X256998Y-244861D01*
X257095D01*
X257173Y-244871D01*
D02*
G37*
G36*
X174529Y-181625D02*
X174617D01*
X174715Y-181634D01*
X174832Y-181654D01*
X174949Y-181664D01*
X175222Y-181722D01*
X175504Y-181790D01*
X175778Y-181898D01*
X175914Y-181956D01*
X176041Y-182034D01*
X176051Y-182044D01*
X176070Y-182054D01*
X176099Y-182083D01*
X176148Y-182112D01*
X176265Y-182210D01*
X176402Y-182346D01*
X176568Y-182512D01*
X176724Y-182727D01*
X176889Y-182971D01*
X177026Y-183253D01*
Y-183263D01*
X177036Y-183293D01*
X177055Y-183332D01*
X177075Y-183390D01*
X177104Y-183468D01*
X177133Y-183556D01*
X177163Y-183653D01*
X177192Y-183770D01*
X177221Y-183887D01*
X177250Y-184024D01*
X177309Y-184317D01*
X177348Y-184629D01*
X177358Y-184970D01*
Y-184980D01*
Y-185019D01*
Y-185068D01*
X177348Y-185136D01*
Y-185224D01*
X177338Y-185331D01*
X177328Y-185438D01*
X177309Y-185565D01*
X177260Y-185838D01*
X177202Y-186131D01*
X177104Y-186433D01*
X176977Y-186716D01*
Y-186726D01*
X176958Y-186745D01*
X176938Y-186784D01*
X176909Y-186843D01*
X176870Y-186901D01*
X176821Y-186970D01*
X176695Y-187135D01*
X176548Y-187321D01*
X176363Y-187506D01*
X176138Y-187691D01*
X175895Y-187847D01*
X175885D01*
X175865Y-187867D01*
X175826Y-187886D01*
X175768Y-187906D01*
X175709Y-187935D01*
X175631Y-187974D01*
X175534Y-188004D01*
X175436Y-188043D01*
X175329Y-188081D01*
X175212Y-188111D01*
X174949Y-188179D01*
X174656Y-188218D01*
X174344Y-188237D01*
X174246D01*
X174178Y-188228D01*
X174100Y-188218D01*
X174002Y-188208D01*
X173895Y-188199D01*
X173778Y-188179D01*
X173524Y-188120D01*
X173251Y-188033D01*
X173115Y-187974D01*
X172978Y-187906D01*
X172852Y-187828D01*
X172725Y-187740D01*
X172715Y-187730D01*
X172696Y-187721D01*
X172666Y-187691D01*
X172617Y-187652D01*
X172569Y-187604D01*
X172500Y-187535D01*
X172432Y-187467D01*
X172364Y-187389D01*
X172286Y-187291D01*
X172218Y-187194D01*
X172139Y-187077D01*
X172062Y-186950D01*
X171993Y-186823D01*
X171925Y-186677D01*
X171808Y-186365D01*
X172647Y-186170D01*
Y-186180D01*
X172656Y-186199D01*
X172666Y-186238D01*
X172686Y-186287D01*
X172715Y-186345D01*
X172744Y-186414D01*
X172812Y-186560D01*
X172900Y-186726D01*
X173017Y-186901D01*
X173144Y-187057D01*
X173300Y-187194D01*
X173320Y-187204D01*
X173378Y-187243D01*
X173466Y-187291D01*
X173593Y-187360D01*
X173739Y-187418D01*
X173924Y-187467D01*
X174129Y-187506D01*
X174363Y-187516D01*
X174432D01*
X174480Y-187506D01*
X174549D01*
X174617Y-187496D01*
X174792Y-187467D01*
X174988Y-187428D01*
X175192Y-187360D01*
X175397Y-187272D01*
X175592Y-187155D01*
X175602D01*
X175612Y-187135D01*
X175670Y-187087D01*
X175758Y-187009D01*
X175865Y-186901D01*
X175973Y-186765D01*
X176090Y-186609D01*
X176197Y-186414D01*
X176285Y-186199D01*
Y-186189D01*
X176295Y-186170D01*
X176304Y-186140D01*
X176314Y-186092D01*
X176334Y-186043D01*
X176343Y-185975D01*
X176382Y-185819D01*
X176421Y-185633D01*
X176451Y-185429D01*
X176470Y-185204D01*
X176480Y-184970D01*
Y-184960D01*
Y-184931D01*
Y-184892D01*
Y-184834D01*
X176470Y-184765D01*
Y-184678D01*
X176460Y-184590D01*
X176451Y-184492D01*
X176421Y-184268D01*
X176382Y-184024D01*
X176324Y-183780D01*
X176246Y-183546D01*
Y-183536D01*
X176236Y-183517D01*
X176217Y-183487D01*
X176197Y-183449D01*
X176148Y-183332D01*
X176070Y-183205D01*
X175963Y-183049D01*
X175836Y-182902D01*
X175690Y-182756D01*
X175514Y-182629D01*
X175504D01*
X175495Y-182619D01*
X175466Y-182600D01*
X175427Y-182581D01*
X175319Y-182541D01*
X175183Y-182483D01*
X175027Y-182434D01*
X174841Y-182385D01*
X174636Y-182346D01*
X174422Y-182337D01*
X174354D01*
X174305Y-182346D01*
X174246D01*
X174168Y-182356D01*
X174002Y-182385D01*
X173817Y-182434D01*
X173612Y-182512D01*
X173417Y-182610D01*
X173222Y-182746D01*
X173212Y-182756D01*
X173203Y-182766D01*
X173144Y-182824D01*
X173056Y-182922D01*
X172949Y-183049D01*
X172842Y-183224D01*
X172725Y-183429D01*
X172627Y-183683D01*
X172549Y-183965D01*
X171701Y-183751D01*
Y-183741D01*
X171710Y-183702D01*
X171730Y-183653D01*
X171749Y-183575D01*
X171788Y-183497D01*
X171827Y-183390D01*
X171866Y-183283D01*
X171925Y-183166D01*
X172052Y-182902D01*
X172227Y-182639D01*
X172422Y-182385D01*
X172539Y-182268D01*
X172666Y-182161D01*
X172676Y-182151D01*
X172696Y-182141D01*
X172735Y-182112D01*
X172793Y-182073D01*
X172861Y-182034D01*
X172939Y-181985D01*
X173027Y-181937D01*
X173134Y-181888D01*
X173251Y-181839D01*
X173378Y-181790D01*
X173524Y-181742D01*
X173671Y-181703D01*
X173993Y-181634D01*
X174168Y-181625D01*
X174354Y-181615D01*
X174451D01*
X174529Y-181625D01*
D02*
G37*
G36*
X170033Y-181732D02*
Y-181761D01*
Y-181800D01*
X170023Y-181859D01*
Y-181927D01*
X170013Y-182015D01*
X170004Y-182122D01*
X169994Y-182229D01*
X169974Y-182356D01*
X169955Y-182502D01*
X169935Y-182649D01*
X169906Y-182805D01*
X169877Y-182980D01*
X169838Y-183156D01*
X169740Y-183546D01*
Y-183556D01*
X169730Y-183595D01*
X169711Y-183653D01*
X169691Y-183731D01*
X169662Y-183829D01*
X169623Y-183936D01*
X169584Y-184063D01*
X169535Y-184209D01*
X169477Y-184356D01*
X169418Y-184521D01*
X169282Y-184873D01*
X169116Y-185243D01*
X168931Y-185614D01*
X168921Y-185624D01*
X168901Y-185663D01*
X168872Y-185711D01*
X168833Y-185780D01*
X168784Y-185867D01*
X168726Y-185965D01*
X168657Y-186072D01*
X168589Y-186199D01*
X168414Y-186462D01*
X168219Y-186745D01*
X168014Y-187028D01*
X167789Y-187301D01*
X170930D01*
Y-188052D01*
X166785D01*
Y-187438D01*
X166795Y-187428D01*
X166814Y-187409D01*
X166843Y-187369D01*
X166892Y-187321D01*
X166941Y-187252D01*
X167009Y-187174D01*
X167087Y-187077D01*
X167165Y-186979D01*
X167253Y-186862D01*
X167351Y-186726D01*
X167458Y-186589D01*
X167555Y-186433D01*
X167663Y-186267D01*
X167780Y-186092D01*
X167887Y-185897D01*
X168004Y-185702D01*
X168014Y-185692D01*
X168033Y-185653D01*
X168062Y-185594D01*
X168102Y-185516D01*
X168150Y-185419D01*
X168209Y-185302D01*
X168277Y-185165D01*
X168345Y-185019D01*
X168414Y-184863D01*
X168492Y-184687D01*
X168570Y-184502D01*
X168648Y-184307D01*
X168794Y-183907D01*
X168931Y-183478D01*
Y-183468D01*
X168940Y-183439D01*
X168950Y-183400D01*
X168970Y-183341D01*
X168989Y-183263D01*
X169009Y-183175D01*
X169028Y-183068D01*
X169057Y-182961D01*
X169077Y-182834D01*
X169106Y-182698D01*
X169155Y-182405D01*
X169194Y-182073D01*
X169223Y-181722D01*
X170033D01*
Y-181732D01*
D02*
G37*
G36*
X506775Y-316212D02*
X506862D01*
X506970Y-316222D01*
X507077Y-316231D01*
X507204Y-316251D01*
X507477Y-316300D01*
X507769Y-316358D01*
X508072Y-316456D01*
X508355Y-316583D01*
X508364D01*
X508384Y-316602D01*
X508423Y-316622D01*
X508481Y-316651D01*
X508540Y-316690D01*
X508608Y-316739D01*
X508774Y-316866D01*
X508959Y-317012D01*
X509145Y-317197D01*
X509330Y-317421D01*
X509486Y-317665D01*
Y-317675D01*
X509506Y-317695D01*
X509525Y-317734D01*
X509545Y-317792D01*
X509574Y-317851D01*
X509613Y-317929D01*
X509642Y-318026D01*
X509681Y-318124D01*
X509720Y-318231D01*
X509749Y-318348D01*
X509818Y-318611D01*
X509857Y-318904D01*
X509876Y-319216D01*
Y-319314D01*
X509866Y-319382D01*
X509857Y-319460D01*
X509847Y-319557D01*
X509837Y-319665D01*
X509818Y-319782D01*
X509759Y-320036D01*
X509671Y-320309D01*
X509613Y-320445D01*
X509545Y-320582D01*
X509467Y-320709D01*
X509379Y-320835D01*
X509369Y-320845D01*
X509359Y-320864D01*
X509330Y-320894D01*
X509291Y-320942D01*
X509242Y-320991D01*
X509174Y-321060D01*
X509106Y-321128D01*
X509028Y-321196D01*
X508930Y-321274D01*
X508833Y-321342D01*
X508716Y-321421D01*
X508589Y-321498D01*
X508462Y-321567D01*
X508316Y-321635D01*
X508004Y-321752D01*
X507808Y-320913D01*
X507818D01*
X507838Y-320904D01*
X507877Y-320894D01*
X507925Y-320874D01*
X507984Y-320845D01*
X508052Y-320816D01*
X508199Y-320747D01*
X508364Y-320660D01*
X508540Y-320543D01*
X508696Y-320416D01*
X508833Y-320260D01*
X508842Y-320240D01*
X508881Y-320182D01*
X508930Y-320094D01*
X508998Y-319967D01*
X509057Y-319821D01*
X509106Y-319636D01*
X509145Y-319431D01*
X509154Y-319197D01*
Y-319128D01*
X509145Y-319080D01*
Y-319011D01*
X509135Y-318943D01*
X509106Y-318768D01*
X509067Y-318572D01*
X508998Y-318368D01*
X508911Y-318163D01*
X508793Y-317968D01*
Y-317958D01*
X508774Y-317948D01*
X508725Y-317890D01*
X508647Y-317802D01*
X508540Y-317695D01*
X508403Y-317587D01*
X508247Y-317470D01*
X508052Y-317363D01*
X507838Y-317275D01*
X507828D01*
X507808Y-317265D01*
X507779Y-317256D01*
X507730Y-317246D01*
X507682Y-317226D01*
X507613Y-317217D01*
X507457Y-317178D01*
X507272Y-317139D01*
X507067Y-317109D01*
X506843Y-317090D01*
X506609Y-317080D01*
X506599D01*
X506570D01*
X506531D01*
X506472D01*
X506404Y-317090D01*
X506316D01*
X506228Y-317100D01*
X506131Y-317109D01*
X505906Y-317139D01*
X505663Y-317178D01*
X505419Y-317236D01*
X505185Y-317314D01*
X505175D01*
X505155Y-317324D01*
X505126Y-317344D01*
X505087Y-317363D01*
X504970Y-317412D01*
X504843Y-317490D01*
X504687Y-317597D01*
X504541Y-317724D01*
X504395Y-317870D01*
X504268Y-318046D01*
Y-318055D01*
X504258Y-318065D01*
X504239Y-318095D01*
X504219Y-318134D01*
X504180Y-318241D01*
X504122Y-318377D01*
X504073Y-318533D01*
X504024Y-318719D01*
X503985Y-318923D01*
X503975Y-319138D01*
Y-319206D01*
X503985Y-319255D01*
Y-319314D01*
X503995Y-319392D01*
X504024Y-319557D01*
X504073Y-319743D01*
X504151Y-319948D01*
X504248Y-320143D01*
X504385Y-320338D01*
X504395Y-320348D01*
X504404Y-320357D01*
X504463Y-320416D01*
X504561Y-320504D01*
X504687Y-320611D01*
X504863Y-320718D01*
X505068Y-320835D01*
X505321Y-320933D01*
X505604Y-321011D01*
X505390Y-321859D01*
X505380D01*
X505341Y-321850D01*
X505292Y-321830D01*
X505214Y-321811D01*
X505136Y-321772D01*
X505029Y-321733D01*
X504921Y-321694D01*
X504804Y-321635D01*
X504541Y-321508D01*
X504278Y-321333D01*
X504024Y-321138D01*
X503907Y-321021D01*
X503800Y-320894D01*
X503790Y-320884D01*
X503780Y-320864D01*
X503751Y-320826D01*
X503712Y-320767D01*
X503673Y-320699D01*
X503624Y-320621D01*
X503575Y-320533D01*
X503527Y-320426D01*
X503478Y-320309D01*
X503429Y-320182D01*
X503380Y-320036D01*
X503341Y-319889D01*
X503273Y-319567D01*
X503263Y-319392D01*
X503254Y-319206D01*
Y-319109D01*
X503263Y-319031D01*
Y-318943D01*
X503273Y-318846D01*
X503293Y-318729D01*
X503302Y-318611D01*
X503361Y-318338D01*
X503429Y-318055D01*
X503536Y-317782D01*
X503595Y-317646D01*
X503673Y-317519D01*
X503683Y-317509D01*
X503692Y-317490D01*
X503722Y-317460D01*
X503751Y-317412D01*
X503848Y-317295D01*
X503985Y-317158D01*
X504151Y-316992D01*
X504365Y-316836D01*
X504609Y-316670D01*
X504892Y-316534D01*
X504902D01*
X504931Y-316524D01*
X504970Y-316505D01*
X505029Y-316485D01*
X505107Y-316456D01*
X505195Y-316427D01*
X505292Y-316397D01*
X505409Y-316368D01*
X505526Y-316339D01*
X505663Y-316310D01*
X505955Y-316251D01*
X506267Y-316212D01*
X506609Y-316202D01*
X506618D01*
X506657D01*
X506706D01*
X506775Y-316212D01*
D02*
G37*
G36*
X509759Y-325244D02*
Y-325888D01*
X505614D01*
Y-326756D01*
X504892D01*
Y-325888D01*
X503361D01*
Y-325098D01*
X504892D01*
Y-322318D01*
X505614D01*
X509759Y-325244D01*
D02*
G37*
G36*
X347001Y-410968D02*
X347079Y-410978D01*
X347177Y-410988D01*
X347284Y-410997D01*
X347401Y-411017D01*
X347655Y-411075D01*
X347928Y-411163D01*
X348064Y-411222D01*
X348201Y-411290D01*
X348328Y-411368D01*
X348454Y-411456D01*
X348464Y-411465D01*
X348484Y-411475D01*
X348513Y-411505D01*
X348562Y-411544D01*
X348610Y-411592D01*
X348679Y-411661D01*
X348747Y-411729D01*
X348815Y-411807D01*
X348893Y-411904D01*
X348962Y-412002D01*
X349040Y-412119D01*
X349118Y-412246D01*
X349186Y-412373D01*
X349254Y-412519D01*
X349371Y-412831D01*
X348532Y-413026D01*
Y-413016D01*
X348523Y-412997D01*
X348513Y-412958D01*
X348493Y-412909D01*
X348464Y-412851D01*
X348435Y-412782D01*
X348367Y-412636D01*
X348279Y-412470D01*
X348162Y-412295D01*
X348035Y-412138D01*
X347879Y-412002D01*
X347859Y-411992D01*
X347801Y-411953D01*
X347713Y-411904D01*
X347586Y-411836D01*
X347440Y-411778D01*
X347255Y-411729D01*
X347050Y-411690D01*
X346816Y-411680D01*
X346748D01*
X346699Y-411690D01*
X346631D01*
X346562Y-411700D01*
X346387Y-411729D01*
X346192Y-411768D01*
X345987Y-411836D01*
X345782Y-411924D01*
X345587Y-412041D01*
X345577D01*
X345567Y-412061D01*
X345509Y-412109D01*
X345421Y-412187D01*
X345314Y-412295D01*
X345206Y-412431D01*
X345089Y-412587D01*
X344982Y-412782D01*
X344894Y-412997D01*
Y-413007D01*
X344885Y-413026D01*
X344875Y-413055D01*
X344865Y-413104D01*
X344846Y-413153D01*
X344836Y-413221D01*
X344797Y-413377D01*
X344758Y-413563D01*
X344729Y-413767D01*
X344709Y-413992D01*
X344699Y-414226D01*
Y-414236D01*
Y-414265D01*
Y-414304D01*
Y-414362D01*
X344709Y-414431D01*
Y-414518D01*
X344719Y-414606D01*
X344729Y-414704D01*
X344758Y-414928D01*
X344797Y-415172D01*
X344855Y-415416D01*
X344933Y-415650D01*
Y-415660D01*
X344943Y-415679D01*
X344963Y-415708D01*
X344982Y-415747D01*
X345031Y-415864D01*
X345109Y-415991D01*
X345216Y-416147D01*
X345343Y-416294D01*
X345489Y-416440D01*
X345665Y-416567D01*
X345675D01*
X345684Y-416576D01*
X345714Y-416596D01*
X345753Y-416615D01*
X345860Y-416655D01*
X345997Y-416713D01*
X346153Y-416762D01*
X346338Y-416810D01*
X346543Y-416850D01*
X346757Y-416859D01*
X346826D01*
X346874Y-416850D01*
X346933D01*
X347011Y-416840D01*
X347177Y-416810D01*
X347362Y-416762D01*
X347567Y-416684D01*
X347762Y-416586D01*
X347957Y-416450D01*
X347967Y-416440D01*
X347976Y-416430D01*
X348035Y-416372D01*
X348123Y-416274D01*
X348230Y-416147D01*
X348337Y-415972D01*
X348454Y-415767D01*
X348552Y-415513D01*
X348630Y-415230D01*
X349479Y-415445D01*
Y-415455D01*
X349469Y-415494D01*
X349449Y-415543D01*
X349430Y-415621D01*
X349391Y-415699D01*
X349352Y-415806D01*
X349313Y-415913D01*
X349254Y-416030D01*
X349127Y-416294D01*
X348952Y-416557D01*
X348757Y-416810D01*
X348640Y-416928D01*
X348513Y-417035D01*
X348503Y-417045D01*
X348484Y-417054D01*
X348445Y-417084D01*
X348386Y-417123D01*
X348318Y-417162D01*
X348240Y-417210D01*
X348152Y-417259D01*
X348045Y-417308D01*
X347928Y-417357D01*
X347801Y-417406D01*
X347655Y-417454D01*
X347508Y-417493D01*
X347187Y-417561D01*
X347011Y-417571D01*
X346826Y-417581D01*
X346728D01*
X346650Y-417571D01*
X346562D01*
X346465Y-417561D01*
X346348Y-417542D01*
X346231Y-417532D01*
X345957Y-417474D01*
X345675Y-417406D01*
X345402Y-417298D01*
X345265Y-417240D01*
X345138Y-417162D01*
X345129Y-417152D01*
X345109Y-417142D01*
X345080Y-417113D01*
X345031Y-417084D01*
X344914Y-416986D01*
X344777Y-416850D01*
X344612Y-416684D01*
X344455Y-416469D01*
X344290Y-416225D01*
X344153Y-415942D01*
Y-415933D01*
X344143Y-415903D01*
X344124Y-415864D01*
X344104Y-415806D01*
X344075Y-415728D01*
X344046Y-415640D01*
X344017Y-415543D01*
X343987Y-415425D01*
X343958Y-415308D01*
X343929Y-415172D01*
X343870Y-414879D01*
X343831Y-414567D01*
X343821Y-414226D01*
Y-414216D01*
Y-414177D01*
Y-414128D01*
X343831Y-414060D01*
Y-413972D01*
X343841Y-413865D01*
X343851Y-413758D01*
X343870Y-413631D01*
X343919Y-413358D01*
X343978Y-413065D01*
X344075Y-412763D01*
X344202Y-412480D01*
Y-412470D01*
X344221Y-412451D01*
X344241Y-412412D01*
X344270Y-412353D01*
X344309Y-412295D01*
X344358Y-412226D01*
X344485Y-412061D01*
X344631Y-411875D01*
X344816Y-411690D01*
X345041Y-411505D01*
X345285Y-411348D01*
X345294D01*
X345314Y-411329D01*
X345353Y-411310D01*
X345411Y-411290D01*
X345470Y-411261D01*
X345548Y-411222D01*
X345645Y-411192D01*
X345743Y-411153D01*
X345850Y-411114D01*
X345967Y-411085D01*
X346231Y-411017D01*
X346523Y-410978D01*
X346835Y-410958D01*
X346933D01*
X347001Y-410968D01*
D02*
G37*
G36*
X352473Y-411046D02*
X352551Y-411056D01*
X352639Y-411066D01*
X352736Y-411075D01*
X352844Y-411105D01*
X353078Y-411163D01*
X353321Y-411251D01*
X353448Y-411310D01*
X353565Y-411378D01*
X353673Y-411465D01*
X353780Y-411553D01*
X353790Y-411563D01*
X353799Y-411573D01*
X353829Y-411602D01*
X353868Y-411641D01*
X353907Y-411700D01*
X353955Y-411758D01*
X354053Y-411904D01*
X354151Y-412090D01*
X354238Y-412304D01*
X354307Y-412548D01*
X354316Y-412685D01*
X354326Y-412821D01*
Y-412841D01*
Y-412890D01*
X354316Y-412968D01*
X354307Y-413065D01*
X354287Y-413182D01*
X354258Y-413309D01*
X354219Y-413446D01*
X354160Y-413582D01*
X354151Y-413602D01*
X354131Y-413650D01*
X354092Y-413719D01*
X354034Y-413816D01*
X353965Y-413933D01*
X353877Y-414070D01*
X353760Y-414206D01*
X353634Y-414362D01*
X353614Y-414382D01*
X353565Y-414440D01*
X353478Y-414528D01*
X353419Y-414587D01*
X353351Y-414655D01*
X353273Y-414733D01*
X353175Y-414821D01*
X353078Y-414909D01*
X352970Y-415016D01*
X352853Y-415123D01*
X352717Y-415240D01*
X352580Y-415357D01*
X352424Y-415494D01*
X352414Y-415504D01*
X352395Y-415523D01*
X352356Y-415552D01*
X352307Y-415591D01*
X352190Y-415689D01*
X352044Y-415816D01*
X351898Y-415952D01*
X351741Y-416089D01*
X351615Y-416206D01*
X351566Y-416255D01*
X351517Y-416303D01*
X351507Y-416313D01*
X351488Y-416342D01*
X351449Y-416381D01*
X351400Y-416440D01*
X351293Y-416567D01*
X351185Y-416723D01*
X354336D01*
Y-417474D01*
X350093D01*
Y-417464D01*
Y-417425D01*
Y-417366D01*
X350103Y-417298D01*
X350113Y-417220D01*
X350122Y-417132D01*
X350152Y-417035D01*
X350181Y-416937D01*
Y-416928D01*
X350191Y-416918D01*
X350210Y-416859D01*
X350249Y-416781D01*
X350308Y-416664D01*
X350376Y-416537D01*
X350473Y-416391D01*
X350571Y-416245D01*
X350698Y-416089D01*
Y-416079D01*
X350717Y-416069D01*
X350766Y-416011D01*
X350844Y-415923D01*
X350961Y-415806D01*
X351107Y-415669D01*
X351283Y-415504D01*
X351498Y-415318D01*
X351732Y-415113D01*
X351741Y-415104D01*
X351780Y-415074D01*
X351829Y-415035D01*
X351898Y-414967D01*
X351985Y-414899D01*
X352083Y-414811D01*
X352297Y-414626D01*
X352532Y-414401D01*
X352766Y-414177D01*
X352883Y-414070D01*
X352980Y-413963D01*
X353068Y-413855D01*
X353146Y-413758D01*
Y-413748D01*
X353165Y-413738D01*
X353185Y-413709D01*
X353204Y-413670D01*
X353263Y-413572D01*
X353331Y-413446D01*
X353400Y-413299D01*
X353458Y-413143D01*
X353497Y-412968D01*
X353517Y-412802D01*
Y-412792D01*
Y-412782D01*
X353507Y-412724D01*
X353497Y-412636D01*
X353478Y-412529D01*
X353429Y-412402D01*
X353370Y-412275D01*
X353292Y-412138D01*
X353175Y-412012D01*
X353156Y-412002D01*
X353117Y-411963D01*
X353039Y-411914D01*
X352941Y-411846D01*
X352814Y-411787D01*
X352668Y-411739D01*
X352492Y-411700D01*
X352297Y-411690D01*
X352239D01*
X352200Y-411700D01*
X352102Y-411709D01*
X351976Y-411729D01*
X351829Y-411778D01*
X351673Y-411836D01*
X351527Y-411924D01*
X351390Y-412041D01*
X351381Y-412061D01*
X351342Y-412099D01*
X351283Y-412178D01*
X351225Y-412285D01*
X351156Y-412421D01*
X351107Y-412578D01*
X351068Y-412763D01*
X351049Y-412977D01*
X350239Y-412890D01*
Y-412880D01*
Y-412851D01*
X350249Y-412802D01*
X350259Y-412743D01*
X350278Y-412665D01*
X350288Y-412578D01*
X350347Y-412382D01*
X350425Y-412158D01*
X350532Y-411934D01*
X350678Y-411709D01*
X350756Y-411612D01*
X350854Y-411514D01*
X350864Y-411505D01*
X350883Y-411495D01*
X350912Y-411465D01*
X350951Y-411436D01*
X351010Y-411407D01*
X351078Y-411358D01*
X351156Y-411319D01*
X351244Y-411270D01*
X351342Y-411231D01*
X351449Y-411183D01*
X351576Y-411144D01*
X351702Y-411114D01*
X351995Y-411056D01*
X352151Y-411046D01*
X352317Y-411036D01*
X352405D01*
X352473Y-411046D01*
D02*
G37*
%LPC*%
G36*
X467639Y-291343D02*
X465727D01*
X465620Y-291352D01*
X465493Y-291362D01*
X465346Y-291372D01*
X465190Y-291391D01*
X465044Y-291421D01*
X464917Y-291460D01*
X464898Y-291469D01*
X464859Y-291479D01*
X464800Y-291508D01*
X464732Y-291547D01*
X464654Y-291606D01*
X464566Y-291674D01*
X464488Y-291752D01*
X464420Y-291840D01*
X464410Y-291850D01*
X464391Y-291889D01*
X464361Y-291938D01*
X464332Y-292016D01*
X464303Y-292094D01*
X464274Y-292191D01*
X464254Y-292298D01*
X464244Y-292416D01*
Y-292425D01*
Y-292435D01*
Y-292493D01*
X464264Y-292572D01*
X464283Y-292679D01*
X464322Y-292796D01*
X464381Y-292923D01*
X464469Y-293050D01*
X464576Y-293167D01*
X464595Y-293176D01*
X464635Y-293215D01*
X464722Y-293264D01*
X464829Y-293313D01*
X464976Y-293371D01*
X465151Y-293410D01*
X465366Y-293449D01*
X465620Y-293459D01*
X467639D01*
Y-291343D01*
D02*
G37*
G36*
X311172Y-370539D02*
X309709D01*
X309602Y-370549D01*
X309455Y-370559D01*
X309299Y-370569D01*
X309133Y-370588D01*
X308977Y-370617D01*
X308831Y-370656D01*
X308811Y-370666D01*
X308773Y-370676D01*
X308704Y-370705D01*
X308626Y-370744D01*
X308529Y-370793D01*
X308431Y-370842D01*
X308343Y-370910D01*
X308256Y-370988D01*
X308246Y-370998D01*
X308207Y-371046D01*
X308148Y-371115D01*
X308080Y-371203D01*
X308012Y-371320D01*
X307934Y-371456D01*
X307856Y-371622D01*
X307787Y-371797D01*
Y-371807D01*
X307778Y-371817D01*
X307768Y-371846D01*
X307758Y-371885D01*
X307748Y-371934D01*
X307729Y-371992D01*
X307700Y-372139D01*
X307670Y-372324D01*
X307641Y-372539D01*
X307622Y-372773D01*
X307612Y-373036D01*
Y-373046D01*
Y-373085D01*
Y-373134D01*
Y-373202D01*
X307622Y-373290D01*
X307631Y-373387D01*
X307641Y-373495D01*
X307651Y-373602D01*
X307690Y-373855D01*
X307748Y-374109D01*
X307836Y-374353D01*
X307885Y-374470D01*
X307943Y-374577D01*
Y-374587D01*
X307963Y-374597D01*
X307973Y-374626D01*
X308002Y-374665D01*
X308070Y-374762D01*
X308168Y-374870D01*
X308285Y-374997D01*
X308421Y-375114D01*
X308577Y-375221D01*
X308743Y-375309D01*
X308763Y-375318D01*
X308811Y-375328D01*
X308890Y-375348D01*
X309007Y-375377D01*
X309163Y-375406D01*
X309348Y-375426D01*
X309572Y-375435D01*
X309836Y-375445D01*
X311172D01*
Y-370539D01*
D02*
G37*
G36*
X231297Y-83149D02*
X226390D01*
Y-84613D01*
X226400Y-84720D01*
X226410Y-84866D01*
X226420Y-85022D01*
X226439Y-85188D01*
X226469Y-85344D01*
X226508Y-85490D01*
X226517Y-85510D01*
X226527Y-85549D01*
X226556Y-85617D01*
X226595Y-85695D01*
X226644Y-85793D01*
X226693Y-85890D01*
X226761Y-85978D01*
X226839Y-86066D01*
X226849Y-86075D01*
X226898Y-86115D01*
X226966Y-86173D01*
X227054Y-86241D01*
X227171Y-86310D01*
X227307Y-86388D01*
X227473Y-86466D01*
X227649Y-86534D01*
X227659D01*
X227668Y-86544D01*
X227698Y-86553D01*
X227736Y-86563D01*
X227785Y-86573D01*
X227844Y-86592D01*
X227990Y-86622D01*
X228175Y-86651D01*
X228390Y-86680D01*
X228624Y-86700D01*
X228888Y-86709D01*
X228897D01*
X228936D01*
X228985D01*
X229053D01*
X229141Y-86700D01*
X229239Y-86690D01*
X229346Y-86680D01*
X229453Y-86671D01*
X229707Y-86631D01*
X229960Y-86573D01*
X230204Y-86485D01*
X230321Y-86436D01*
X230429Y-86378D01*
X230438D01*
X230448Y-86358D01*
X230477Y-86349D01*
X230516Y-86319D01*
X230614Y-86251D01*
X230721Y-86153D01*
X230848Y-86037D01*
X230965Y-85900D01*
X231072Y-85744D01*
X231160Y-85578D01*
X231170Y-85559D01*
X231180Y-85510D01*
X231199Y-85432D01*
X231228Y-85315D01*
X231258Y-85159D01*
X231277Y-84973D01*
X231287Y-84749D01*
X231297Y-84486D01*
Y-83149D01*
D02*
G37*
G36*
X205610Y-83149D02*
X200704D01*
Y-84613D01*
X200714Y-84720D01*
X200724Y-84866D01*
X200734Y-85022D01*
X200753Y-85188D01*
X200782Y-85344D01*
X200821Y-85490D01*
X200831Y-85510D01*
X200841Y-85549D01*
X200870Y-85617D01*
X200909Y-85695D01*
X200958Y-85793D01*
X201007Y-85890D01*
X201075Y-85978D01*
X201153Y-86066D01*
X201163Y-86076D01*
X201211Y-86115D01*
X201280Y-86173D01*
X201367Y-86241D01*
X201485Y-86310D01*
X201621Y-86388D01*
X201787Y-86466D01*
X201962Y-86534D01*
X201972D01*
X201982Y-86544D01*
X202011Y-86553D01*
X202050Y-86563D01*
X202099Y-86573D01*
X202157Y-86593D01*
X202304Y-86622D01*
X202489Y-86651D01*
X202704Y-86680D01*
X202938Y-86700D01*
X203201Y-86710D01*
X203211D01*
X203250D01*
X203299D01*
X203367D01*
X203455Y-86700D01*
X203552Y-86690D01*
X203659Y-86680D01*
X203767Y-86671D01*
X204020Y-86631D01*
X204274Y-86573D01*
X204518Y-86485D01*
X204635Y-86437D01*
X204742Y-86378D01*
X204752D01*
X204762Y-86358D01*
X204791Y-86349D01*
X204830Y-86319D01*
X204928Y-86251D01*
X205035Y-86154D01*
X205162Y-86037D01*
X205279Y-85900D01*
X205386Y-85744D01*
X205474Y-85578D01*
X205483Y-85559D01*
X205493Y-85510D01*
X205513Y-85432D01*
X205542Y-85315D01*
X205571Y-85159D01*
X205591Y-84973D01*
X205600Y-84749D01*
X205610Y-84486D01*
Y-83149D01*
D02*
G37*
G36*
X171851Y-430415D02*
X171802D01*
X171763Y-430424D01*
X171666Y-430434D01*
X171539Y-430463D01*
X171402Y-430512D01*
X171246Y-430580D01*
X171100Y-430678D01*
X170954Y-430805D01*
X170934Y-430824D01*
X170895Y-430873D01*
X170837Y-430961D01*
X170769Y-431068D01*
X170700Y-431214D01*
X170642Y-431390D01*
X170603Y-431585D01*
X170583Y-431810D01*
Y-431829D01*
Y-431878D01*
X170593Y-431956D01*
X170603Y-432053D01*
X170622Y-432180D01*
X170651Y-432307D01*
X170690Y-432444D01*
X170749Y-432590D01*
X170759Y-432609D01*
X170778Y-432648D01*
X170817Y-432717D01*
X170876Y-432795D01*
X170944Y-432892D01*
X171022Y-432980D01*
X171120Y-433077D01*
X171227Y-433156D01*
X171237Y-433165D01*
X171285Y-433185D01*
X171344Y-433214D01*
X171422Y-433243D01*
X171520Y-433282D01*
X171637Y-433312D01*
X171754Y-433331D01*
X171880Y-433341D01*
X171929D01*
X171968Y-433331D01*
X172056Y-433321D01*
X172183Y-433292D01*
X172310Y-433243D01*
X172456Y-433175D01*
X172602Y-433077D01*
X172739Y-432941D01*
X172758Y-432921D01*
X172797Y-432863D01*
X172856Y-432775D01*
X172924Y-432658D01*
X172983Y-432502D01*
X173041Y-432307D01*
X173080Y-432092D01*
X173100Y-431848D01*
Y-431839D01*
Y-431819D01*
Y-431780D01*
X173090Y-431741D01*
Y-431683D01*
X173080Y-431614D01*
X173061Y-431468D01*
X173012Y-431302D01*
X172953Y-431127D01*
X172866Y-430961D01*
X172749Y-430805D01*
X172729Y-430785D01*
X172690Y-430746D01*
X172612Y-430678D01*
X172505Y-430610D01*
X172378Y-430541D01*
X172222Y-430473D01*
X172046Y-430434D01*
X171851Y-430415D01*
D02*
G37*
G36*
X251536Y-247836D02*
X251487D01*
X251448Y-247845D01*
X251350Y-247855D01*
X251223Y-247885D01*
X251087Y-247933D01*
X250931Y-247992D01*
X250784Y-248089D01*
X250648Y-248216D01*
X250629Y-248236D01*
X250590Y-248284D01*
X250531Y-248372D01*
X250463Y-248489D01*
X250404Y-248645D01*
X250346Y-248821D01*
X250307Y-249035D01*
X250287Y-249270D01*
Y-249279D01*
Y-249299D01*
Y-249338D01*
X250297Y-249387D01*
Y-249445D01*
X250307Y-249504D01*
X250336Y-249660D01*
X250375Y-249835D01*
X250443Y-250011D01*
X250531Y-250186D01*
X250648Y-250352D01*
X250667Y-250372D01*
X250716Y-250411D01*
X250784Y-250479D01*
X250892Y-250557D01*
X251019Y-250625D01*
X251165Y-250693D01*
X251331Y-250732D01*
X251516Y-250752D01*
X251565D01*
X251604Y-250742D01*
X251701Y-250732D01*
X251828Y-250703D01*
X251975Y-250645D01*
X252121Y-250567D01*
X252277Y-250469D01*
X252355Y-250401D01*
X252433Y-250323D01*
X252452Y-250303D01*
X252491Y-250245D01*
X252550Y-250147D01*
X252618Y-250021D01*
X252696Y-249864D01*
X252755Y-249669D01*
X252794Y-249455D01*
X252813Y-249211D01*
Y-249201D01*
Y-249182D01*
Y-249152D01*
X252803Y-249113D01*
X252794Y-248996D01*
X252764Y-248860D01*
X252726Y-248694D01*
X252657Y-248528D01*
X252569Y-248372D01*
X252452Y-248216D01*
X252433Y-248197D01*
X252384Y-248158D01*
X252306Y-248099D01*
X252199Y-248031D01*
X252062Y-247953D01*
X251906Y-247894D01*
X251731Y-247855D01*
X251536Y-247836D01*
D02*
G37*
G36*
X505614Y-323088D02*
Y-325098D01*
X508481D01*
X505614Y-323088D01*
D02*
G37*
%LPD*%
D10*
X454487Y-293156D02*
X482487D01*
X454487D02*
Y-282156D01*
X482487D01*
Y-293156D02*
Y-282156D01*
X325020Y-377063D02*
Y-366063D01*
X299021D02*
X325020D01*
X299021Y-377063D02*
Y-366063D01*
Y-377063D02*
X325020D01*
X220140Y-69301D02*
X231140D01*
X220140Y-95301D02*
Y-69301D01*
Y-95301D02*
X231140D01*
Y-69301D01*
X196336D02*
X207336D01*
X196336Y-95301D02*
Y-69301D01*
Y-95301D02*
X207336D01*
Y-69301D01*
X120362Y-463984D02*
Y-403984D01*
Y-463984D02*
X196362D01*
Y-403984D01*
X120362D02*
X196362D01*
X118354Y-399321D02*
X194354D01*
X118354D02*
Y-339321D01*
X194354D01*
Y-399321D02*
Y-339321D01*
X222002Y-274861D02*
X298002D01*
X222002D02*
Y-214861D01*
X298002D01*
Y-274861D02*
Y-214861D01*
X215358Y-211615D02*
Y-151615D01*
X139358D02*
X215358D01*
X139358Y-211615D02*
Y-151615D01*
Y-211615D02*
X215358D01*
X508754Y-327263D02*
Y-305142D01*
X497754Y-327263D02*
X508754D01*
X497754D02*
Y-305142D01*
X508754D01*
X305822Y-447581D02*
Y-387581D01*
Y-447581D02*
X381822D01*
Y-387581D01*
X305822D02*
X381822D01*
D15*
X584870Y-492414D02*
X589950Y-507654D01*
X595030Y-492414D01*
X589950Y25746D02*
X595030Y10506D01*
X584870D02*
X589950Y25746D01*
Y-507654D02*
Y-297326D01*
Y-192710D02*
Y25746D01*
X536864Y-507654D02*
X592490D01*
X538388Y25746D02*
X592490D01*
X-21682Y104738D02*
X-6442Y109817D01*
X-21682Y104738D02*
X-6442Y99657D01*
X522050D02*
X537290Y104738D01*
X522050Y109817D02*
X537290Y104738D01*
X-21682D02*
X200162D01*
X307318D02*
X537290D01*
X-21682Y28286D02*
Y107277D01*
X537290Y29678D02*
Y107277D01*
X-75946Y-465074D02*
X-70866Y-480314D01*
X-65786Y-465074D01*
X-70866Y-1270D02*
X-65786Y-16510D01*
X-75946D02*
X-70866Y-1270D01*
Y-480314D02*
Y-297164D01*
Y-192548D02*
Y-1270D01*
X-73406Y-480314D02*
X-23620D01*
X-73406Y-1270D02*
X-24382D01*
X-127254Y-492506D02*
X-122174Y-507746D01*
X-117094Y-492506D01*
X-122174Y25654D02*
X-117094Y10414D01*
X-127254D02*
X-122174Y25654D01*
Y-507746D02*
Y-297418D01*
Y-192802D02*
Y25654D01*
X-124714Y-507746D02*
X-25400D01*
X-124714Y25654D02*
X-27178D01*
D16*
X-22790Y-196977D02*
X62310D01*
Y-39577D01*
X-22790D02*
X62310D01*
X-22790Y-196977D02*
Y-39577D01*
X482444Y-429265D02*
Y-353065D01*
X506444D01*
Y-429265D02*
Y-353065D01*
X482444Y-429265D02*
X506444D01*
D18*
X599091Y-283106D02*
Y-293262D01*
X588935Y-283106D01*
X586396D01*
X583857Y-285645D01*
Y-290723D01*
X586396Y-293262D01*
X599091Y-278027D02*
Y-272949D01*
Y-275488D01*
X583857D01*
X586396Y-278027D01*
Y-265331D02*
X583857Y-262792D01*
Y-257714D01*
X586396Y-255175D01*
X596552D01*
X599091Y-257714D01*
Y-262792D01*
X596552Y-265331D01*
X586396D01*
Y-250096D02*
X583857Y-247557D01*
Y-242479D01*
X586396Y-239940D01*
X596552D01*
X599091Y-242479D01*
Y-247557D01*
X596552Y-250096D01*
X586396D01*
X599091Y-234861D02*
X596552D01*
Y-232322D01*
X599091D01*
Y-234861D01*
X586396Y-222165D02*
X583857Y-219626D01*
Y-214548D01*
X586396Y-212009D01*
X596552D01*
X599091Y-214548D01*
Y-219626D01*
X596552Y-222165D01*
X586396D01*
Y-206930D02*
X583857Y-204391D01*
Y-199313D01*
X586396Y-196774D01*
X596552D01*
X599091Y-199313D01*
Y-204391D01*
X596552Y-206930D01*
X586396D01*
X214382Y95596D02*
X204226D01*
X214382Y105753D01*
Y108292D01*
X211843Y110831D01*
X206765D01*
X204226Y108292D01*
X229618Y95596D02*
X219461D01*
X229618Y105753D01*
Y108292D01*
X227078Y110831D01*
X222000D01*
X219461Y108292D01*
X234696D02*
X237235Y110831D01*
X242313D01*
X244853Y108292D01*
Y98135D01*
X242313Y95596D01*
X237235D01*
X234696Y98135D01*
Y108292D01*
X249931D02*
X252470Y110831D01*
X257549D01*
X260088Y108292D01*
Y98135D01*
X257549Y95596D01*
X252470D01*
X249931Y98135D01*
Y108292D01*
X265166Y95596D02*
Y98135D01*
X267705D01*
Y95596D01*
X265166D01*
X288019Y110831D02*
X282940Y108292D01*
X277862Y103214D01*
Y98135D01*
X280401Y95596D01*
X285480D01*
X288019Y98135D01*
Y100674D01*
X285480Y103214D01*
X277862D01*
X293097Y108292D02*
X295636Y110831D01*
X300715D01*
X303254Y108292D01*
Y105753D01*
X300715Y103214D01*
X303254Y100674D01*
Y98135D01*
X300715Y95596D01*
X295636D01*
X293097Y98135D01*
Y100674D01*
X295636Y103214D01*
X293097Y105753D01*
Y108292D01*
X295636Y103214D02*
X300715D01*
X-61725Y-293100D02*
Y-288022D01*
Y-290561D01*
X-76960D01*
X-74420Y-293100D01*
Y-280404D02*
X-76960Y-277865D01*
Y-272787D01*
X-74420Y-270248D01*
X-71881D01*
X-69342Y-272787D01*
X-66803Y-270248D01*
X-64264D01*
X-61725Y-272787D01*
Y-277865D01*
X-64264Y-280404D01*
X-66803D01*
X-69342Y-277865D01*
X-71881Y-280404D01*
X-74420D01*
X-69342Y-277865D02*
Y-272787D01*
X-74420Y-265169D02*
X-76960Y-262630D01*
Y-257552D01*
X-74420Y-255013D01*
X-71881D01*
X-69342Y-257552D01*
X-66803Y-255013D01*
X-64264D01*
X-61725Y-257552D01*
Y-262630D01*
X-64264Y-265169D01*
X-66803D01*
X-69342Y-262630D01*
X-71881Y-265169D01*
X-74420D01*
X-69342Y-262630D02*
Y-257552D01*
X-76960Y-239778D02*
X-74420Y-244856D01*
X-69342Y-249934D01*
X-64264D01*
X-61725Y-247395D01*
Y-242317D01*
X-64264Y-239778D01*
X-66803D01*
X-69342Y-242317D01*
Y-249934D01*
X-61725Y-234699D02*
X-64264D01*
Y-232160D01*
X-61725D01*
Y-234699D01*
X-74420Y-222003D02*
X-76960Y-219464D01*
Y-214386D01*
X-74420Y-211847D01*
X-64264D01*
X-61725Y-214386D01*
Y-219464D01*
X-64264Y-222003D01*
X-74420D01*
Y-206768D02*
X-76960Y-204229D01*
Y-199151D01*
X-74420Y-196612D01*
X-64264D01*
X-61725Y-199151D01*
Y-204229D01*
X-64264Y-206768D01*
X-74420D01*
X-113033Y-283198D02*
Y-293354D01*
X-123189Y-283198D01*
X-125728D01*
X-128267Y-285737D01*
Y-290815D01*
X-125728Y-293354D01*
X-113033Y-278119D02*
Y-273041D01*
Y-275580D01*
X-128267D01*
X-125728Y-278119D01*
Y-265423D02*
X-128267Y-262884D01*
Y-257806D01*
X-125728Y-255267D01*
X-115572D01*
X-113033Y-257806D01*
Y-262884D01*
X-115572Y-265423D01*
X-125728D01*
Y-250188D02*
X-128267Y-247649D01*
Y-242571D01*
X-125728Y-240032D01*
X-115572D01*
X-113033Y-242571D01*
Y-247649D01*
X-115572Y-250188D01*
X-125728D01*
X-113033Y-234953D02*
X-115572D01*
Y-232414D01*
X-113033D01*
Y-234953D01*
X-125728Y-222257D02*
X-128267Y-219718D01*
Y-214640D01*
X-125728Y-212101D01*
X-115572D01*
X-113033Y-214640D01*
Y-219718D01*
X-115572Y-222257D01*
X-125728D01*
Y-207022D02*
X-128267Y-204483D01*
Y-199405D01*
X-125728Y-196866D01*
X-115572D01*
X-113033Y-199405D01*
Y-204483D01*
X-115572Y-207022D01*
X-125728D01*
D19*
X14797Y-480989D02*
G03*
X14797Y-480989I-15999J0D01*
G01*
X15051Y341D02*
G03*
X15051Y341I-15999J0D01*
G01*
X435929Y-65699D02*
G03*
X435929Y-65699I-15999J0D01*
G01*
Y-412409D02*
G03*
X435929Y-412409I-15999J0D01*
G01*
X-22790Y-506897D02*
Y26503D01*
X537290Y-125897D02*
Y26503D01*
Y-506897D02*
Y-125897D01*
X-21680Y26000D02*
X538400D01*
X-22790Y-506897D02*
X537290D01*
D107*
X419376Y-331558D02*
Y-282558D01*
X380376Y-331558D02*
X419376D01*
X380376D02*
Y-282558D01*
X419376D01*
X96752Y-386221D02*
X105752D01*
X96752Y-403221D02*
X105752D01*
Y-386221D01*
X96752Y-403221D02*
Y-386221D01*
X97514Y-426099D02*
X106514D01*
X97514Y-443099D02*
X106514D01*
Y-426099D01*
X97514Y-443099D02*
Y-426099D01*
X203896Y-373732D02*
X213396D01*
X203896Y-391232D02*
X213396D01*
Y-373732D01*
X203896Y-391232D02*
Y-373732D01*
X302306Y-358031D02*
Y-349031D01*
X319307Y-358031D02*
Y-349031D01*
X302306D02*
X319307D01*
X302306Y-358031D02*
X319307D01*
X280728Y-352693D02*
X289728D01*
X280728Y-369693D02*
X289728D01*
Y-352693D01*
X280728Y-369693D02*
Y-352693D01*
X254994Y-75833D02*
X263994D01*
X254994Y-92833D02*
X263994D01*
Y-75833D01*
X254994Y-92833D02*
Y-75833D01*
X187962Y-329190D02*
Y-308190D01*
X174462Y-329190D02*
Y-308190D01*
X187962D01*
X174462Y-329190D02*
X187962D01*
X165919D02*
Y-308190D01*
X152419Y-329190D02*
Y-308190D01*
X165919D01*
X152419Y-329190D02*
X165919D01*
X143877D02*
Y-308190D01*
X130377Y-329190D02*
Y-308190D01*
X143877D01*
X130377Y-329190D02*
X143877D01*
X181895Y-248880D02*
Y-227880D01*
X195395Y-248880D02*
Y-227880D01*
X181895Y-248880D02*
X195395D01*
X181895Y-227880D02*
X195395D01*
X159853Y-248880D02*
Y-227880D01*
X173353Y-248880D02*
Y-227880D01*
X159853Y-248880D02*
X173353D01*
X159853Y-227880D02*
X173353D01*
X137810Y-248880D02*
Y-227880D01*
X151310Y-248880D02*
Y-227880D01*
X137810Y-248880D02*
X151310D01*
X137810Y-227880D02*
X151310D01*
X307245Y-91817D02*
Y-74817D01*
X298245Y-91817D02*
Y-74817D01*
X307245D01*
X298245Y-91817D02*
X307245D01*
X318748D02*
X327748D01*
X318748Y-74817D02*
X327748D01*
X318748Y-91817D02*
Y-74817D01*
X327748Y-91817D02*
Y-74817D01*
X350790Y-91817D02*
Y-74817D01*
X341790Y-91817D02*
Y-74817D01*
X350790D01*
X341790Y-91817D02*
X350790D01*
X207526Y-125345D02*
Y-108345D01*
X198526Y-125345D02*
Y-108345D01*
X207526D01*
X198526Y-125345D02*
X207526D01*
X455700Y-324448D02*
Y-307448D01*
X464700Y-324448D02*
Y-307448D01*
X455700Y-324448D02*
X464700D01*
X455700Y-307448D02*
X464700D01*
X338639Y-317695D02*
Y-300695D01*
X347639Y-317695D02*
Y-300695D01*
X338639Y-317695D02*
X347639D01*
X338639Y-300695D02*
X347639D01*
X81578Y-431629D02*
Y-409629D01*
X67078Y-431629D02*
Y-409629D01*
X81578D01*
X67078Y-431629D02*
X81578D01*
X61535Y-431640D02*
Y-409640D01*
X47035Y-431640D02*
Y-409640D01*
X61535D01*
X47035Y-431640D02*
X61535D01*
X-20148Y-301147D02*
X44852D01*
X-20148Y-355947D02*
Y-301147D01*
Y-355947D02*
X44852D01*
Y-301147D01*
X45106Y-294105D02*
Y-239305D01*
X-19894Y-294105D02*
X45106D01*
X-19894D02*
Y-239305D01*
X45106D01*
X30264Y-504183D02*
Y-439183D01*
Y-504183D02*
X85064D01*
Y-439183D01*
X30264D02*
X85064D01*
X224919Y-393982D02*
X229919Y-398982D01*
X224919D02*
X264919D01*
Y-358982D01*
X224919D02*
X264919D01*
X224919Y-398982D02*
Y-358982D01*
X256560Y-342268D02*
Y-332768D01*
X239060Y-342268D02*
Y-332768D01*
Y-342268D02*
X256560D01*
X239060Y-332768D02*
X256560D01*
X221994Y-410469D02*
X239494D01*
X221994Y-419969D02*
X239494D01*
X221994D02*
Y-410469D01*
X239494Y-419969D02*
Y-410469D01*
X203896Y-348658D02*
X213396D01*
X203896Y-366158D02*
X213396D01*
Y-348658D01*
X203896Y-366158D02*
Y-348658D01*
X198340Y-410072D02*
X215840D01*
X198340Y-400572D02*
X215840D01*
Y-410072D02*
Y-400572D01*
X198340Y-410072D02*
Y-400572D01*
X225090Y-450271D02*
X242589D01*
X225090Y-440771D02*
X242589D01*
Y-450271D02*
Y-440771D01*
X225090Y-450271D02*
Y-440771D01*
X99084Y-315655D02*
X116084D01*
X99084Y-306655D02*
X116084D01*
Y-315655D02*
Y-306655D01*
X99084Y-315655D02*
Y-306655D01*
X192603Y-282139D02*
X202104D01*
X192603Y-264639D02*
X202104D01*
X192603Y-282139D02*
Y-264639D01*
X202104Y-282139D02*
Y-264639D01*
X106518Y-249361D02*
X123518D01*
X106518Y-240361D02*
X123518D01*
Y-249361D02*
Y-240361D01*
X106518Y-249361D02*
Y-240361D01*
X503982Y-29647D02*
X521481D01*
X503982Y-20147D02*
X521481D01*
Y-29647D02*
Y-20147D01*
X503982Y-29647D02*
Y-20147D01*
X129427Y-76958D02*
Y-59458D01*
X138927Y-76958D02*
Y-59458D01*
X129427Y-76958D02*
X138927D01*
X129427Y-59458D02*
X138927D01*
X388876Y-365310D02*
Y-356310D01*
X371876Y-365310D02*
Y-356310D01*
Y-365310D02*
X388876D01*
X371876Y-356310D02*
X388876D01*
D109*
X160648Y-267007D02*
G03*
X160648Y-267007I-762J0D01*
G01*
X131678Y-265389D02*
X161678D01*
X131678Y-285389D02*
X161678D01*
Y-265389D01*
X131678Y-285389D02*
Y-265389D01*
D110*
X62688Y-197017D02*
X62691Y-197019D01*
M02*
