%FSLAX23Y23*%
%MOIN*%
G70*
G01*
G75*
G04 Layer_Color=16711935*
%ADD10O,0.024X0.059*%
%ADD11O,0.018X0.067*%
%ADD12O,0.059X0.024*%
%ADD13R,0.071X0.051*%
%ADD14R,0.039X0.039*%
%ADD15R,0.039X0.035*%
%ADD16R,0.039X0.039*%
%ADD17R,0.080X0.050*%
%ADD18R,0.134X0.085*%
%ADD19R,0.041X0.085*%
%ADD20R,0.041X0.085*%
%ADD21R,0.106X0.071*%
%ADD22R,0.035X0.039*%
%ADD23O,0.024X0.087*%
%ADD24R,0.051X0.071*%
%ADD25R,0.047X0.047*%
%ADD26R,0.075X0.134*%
%ADD27O,0.024X0.087*%
%ADD28C,0.040*%
%ADD29R,0.016X0.049*%
%ADD30R,0.071X0.079*%
%ADD31R,0.079X0.031*%
%ADD32R,0.134X0.063*%
%ADD33R,0.026X0.041*%
%ADD34R,0.134X0.075*%
%ADD35R,0.091X0.091*%
%ADD36O,0.087X0.024*%
%ADD37O,0.087X0.024*%
%ADD38R,0.071X0.094*%
%ADD39R,0.084X0.052*%
%ADD40O,0.011X0.067*%
%ADD41O,0.067X0.011*%
%ADD42R,0.141X0.116*%
%ADD43O,0.012X0.047*%
%ADD44R,0.177X0.059*%
%ADD45C,0.008*%
%ADD46C,0.012*%
%ADD47C,0.010*%
%ADD48C,0.025*%
%ADD49C,0.020*%
%ADD50C,0.015*%
%ADD51C,0.012*%
%ADD52C,0.004*%
%ADD53C,0.004*%
%ADD54C,0.118*%
%ADD55C,0.125*%
%ADD56C,0.035*%
%ADD57C,0.118*%
%ADD58C,0.065*%
%ADD59R,0.065X0.065*%
%ADD60R,0.065X0.065*%
%ADD61C,0.039*%
%ADD62C,0.040*%
%ADD63C,0.158*%
%ADD64C,0.168*%
%ADD65C,0.056*%
%ADD66C,0.079*%
%ADD67C,0.079*%
%ADD68C,0.058*%
%ADD69C,0.060*%
%ADD70R,0.071X0.063*%
%ADD71R,0.063X0.071*%
%ADD72R,0.013X0.028*%
%ADD73R,0.018X0.040*%
%ADD74R,0.028X0.039*%
%ADD75C,0.039*%
%ADD76C,0.039*%
%ADD77C,0.010*%
%ADD78C,0.008*%
%ADD79C,0.024*%
%ADD80C,0.012*%
%ADD81C,0.020*%
%ADD82R,2.010X0.213*%
%ADD83R,0.560X0.250*%
%ADD84R,0.920X0.150*%
%ADD85C,0.008*%
%ADD86C,0.120*%
%ADD87C,0.145*%
D10*
X7585Y768D02*
D03*
X7622Y843D02*
D03*
X7547D02*
D03*
X6482Y373D02*
D03*
X6557D02*
D03*
X6520Y298D02*
D03*
X7237Y683D02*
D03*
X7312D02*
D03*
X7275Y608D02*
D03*
X6963Y582D02*
D03*
X6888D02*
D03*
X6925Y657D02*
D03*
X7388Y1452D02*
D03*
X7313D02*
D03*
X7350Y1527D02*
D03*
X7422Y1883D02*
D03*
X7497D02*
D03*
X7460Y1808D02*
D03*
X6775Y583D02*
D03*
X6812Y658D02*
D03*
X6737D02*
D03*
X4450Y1802D02*
D03*
X4413Y1727D02*
D03*
X4488D02*
D03*
X4240Y1802D02*
D03*
X4203Y1727D02*
D03*
X4278D02*
D03*
X4025Y1802D02*
D03*
X3988Y1727D02*
D03*
X4063D02*
D03*
D13*
X747Y239D02*
D03*
Y353D02*
D03*
X2367Y1589D02*
D03*
Y1703D02*
D03*
D14*
X5119Y1449D02*
D03*
Y1511D02*
D03*
X7465Y1466D02*
D03*
Y1404D02*
D03*
X7165Y799D02*
D03*
Y861D02*
D03*
X7555Y1466D02*
D03*
Y1404D02*
D03*
X7235Y799D02*
D03*
Y861D02*
D03*
X625Y599D02*
D03*
Y661D02*
D03*
X7310Y799D02*
D03*
Y861D02*
D03*
X6915Y1466D02*
D03*
Y1404D02*
D03*
X6585Y1466D02*
D03*
Y1404D02*
D03*
X6605Y774D02*
D03*
Y836D02*
D03*
X7875Y1466D02*
D03*
Y1404D02*
D03*
X7700Y774D02*
D03*
Y836D02*
D03*
X7240Y1466D02*
D03*
Y1404D02*
D03*
X7785Y774D02*
D03*
Y836D02*
D03*
X7785Y1466D02*
D03*
Y1404D02*
D03*
X6697Y774D02*
D03*
Y836D02*
D03*
X6495Y1466D02*
D03*
Y1404D02*
D03*
X6825Y1466D02*
D03*
Y1404D02*
D03*
X7395Y861D02*
D03*
Y799D02*
D03*
X2367Y1414D02*
D03*
Y1477D02*
D03*
X3660Y1124D02*
D03*
Y1186D02*
D03*
X3590Y1124D02*
D03*
Y1186D02*
D03*
X3520Y1186D02*
D03*
Y1124D02*
D03*
X7015Y836D02*
D03*
Y774D02*
D03*
X7150Y1404D02*
D03*
Y1466D02*
D03*
X6925Y836D02*
D03*
Y774D02*
D03*
X1330Y1154D02*
D03*
Y1216D02*
D03*
D16*
X2181Y1780D02*
D03*
X2119D02*
D03*
X2181Y1705D02*
D03*
X2119D02*
D03*
X2579Y975D02*
D03*
X2641D02*
D03*
X2384D02*
D03*
X2446D02*
D03*
X2641Y905D02*
D03*
X2579D02*
D03*
X2594Y1765D02*
D03*
X2656D02*
D03*
X2914Y1470D02*
D03*
X2976D02*
D03*
X2601Y1200D02*
D03*
X2539D02*
D03*
D22*
X5040Y267D02*
D03*
X5107D02*
D03*
X4821Y267D02*
D03*
X4888D02*
D03*
D23*
X5625Y1338D02*
D03*
X5675D02*
D03*
X5725D02*
D03*
X5775D02*
D03*
X5975Y1527D02*
D03*
X5925D02*
D03*
X5875D02*
D03*
X5825D02*
D03*
X5775D02*
D03*
X5725D02*
D03*
X5675D02*
D03*
X5625D02*
D03*
X5625Y1910D02*
D03*
X5675D02*
D03*
X5725D02*
D03*
X5775D02*
D03*
X5825D02*
D03*
X5875D02*
D03*
X5925D02*
D03*
X5975D02*
D03*
Y1721D02*
D03*
X5925D02*
D03*
X5875D02*
D03*
X5825D02*
D03*
X5775D02*
D03*
X5725D02*
D03*
X5675D02*
D03*
X5625D02*
D03*
X5975Y1338D02*
D03*
X5925D02*
D03*
X5875D02*
D03*
X5825D02*
D03*
X5630Y351D02*
D03*
X5680D02*
D03*
X5730D02*
D03*
X5780D02*
D03*
X5980Y540D02*
D03*
X5930D02*
D03*
X5880D02*
D03*
X5830D02*
D03*
X5780D02*
D03*
X5730D02*
D03*
X5680D02*
D03*
X5630D02*
D03*
Y915D02*
D03*
X5680D02*
D03*
X5730D02*
D03*
X5780D02*
D03*
X5830D02*
D03*
X5880D02*
D03*
X5930D02*
D03*
X5980D02*
D03*
Y726D02*
D03*
X5930D02*
D03*
X5880D02*
D03*
X5830D02*
D03*
X5780D02*
D03*
X5730D02*
D03*
X5680D02*
D03*
X5630D02*
D03*
X5980Y351D02*
D03*
X5930D02*
D03*
X5880D02*
D03*
X5830D02*
D03*
X4510Y361D02*
D03*
X4560D02*
D03*
X4610D02*
D03*
X4660D02*
D03*
X4310Y550D02*
D03*
X4360D02*
D03*
X4410D02*
D03*
X4460D02*
D03*
X4510D02*
D03*
X4560D02*
D03*
X4610D02*
D03*
X4660D02*
D03*
X4460Y361D02*
D03*
X4410D02*
D03*
X4360D02*
D03*
X4310D02*
D03*
D24*
X793Y1285D02*
D03*
X907D02*
D03*
X380Y826D02*
D03*
X494D02*
D03*
X2747Y1420D02*
D03*
X2633D02*
D03*
X814Y686D02*
D03*
X700D02*
D03*
D28*
X2745Y1826D02*
D03*
X2533Y905D02*
D03*
X2496Y976D02*
D03*
X2383Y919D02*
D03*
D34*
X445Y421D02*
D03*
Y579D02*
D03*
D36*
X1204Y1110D02*
D03*
Y1160D02*
D03*
Y1210D02*
D03*
Y1260D02*
D03*
X1015D02*
D03*
Y1210D02*
D03*
Y1160D02*
D03*
Y1110D02*
D03*
D47*
X-163Y-264D02*
Y-334D01*
Y-264D02*
X-133D01*
X-123Y-268D01*
X-120Y-271D01*
X-116Y-278D01*
Y-284D01*
X-120Y-291D01*
X-123Y-294D01*
X-133Y-298D01*
X-163D02*
X-133D01*
X-123Y-301D01*
X-120Y-304D01*
X-116Y-311D01*
Y-321D01*
X-120Y-328D01*
X-123Y-331D01*
X-133Y-334D01*
X-163D01*
X-84Y-288D02*
X-91Y-291D01*
X-97Y-298D01*
X-101Y-308D01*
Y-314D01*
X-97Y-324D01*
X-91Y-331D01*
X-84Y-334D01*
X-74D01*
X-67Y-331D01*
X-61Y-324D01*
X-57Y-314D01*
Y-308D01*
X-61Y-298D01*
X-67Y-291D01*
X-74Y-288D01*
X-84D01*
X-32Y-264D02*
Y-321D01*
X-29Y-331D01*
X-22Y-334D01*
X-15D01*
X-42Y-288D02*
X-19D01*
X5Y-264D02*
Y-321D01*
X8Y-331D01*
X15Y-334D01*
X21D01*
X-5Y-288D02*
X18D01*
X48D02*
X41Y-291D01*
X35Y-298D01*
X31Y-308D01*
Y-314D01*
X35Y-324D01*
X41Y-331D01*
X48Y-334D01*
X58D01*
X65Y-331D01*
X71Y-324D01*
X75Y-314D01*
Y-308D01*
X71Y-298D01*
X65Y-291D01*
X58Y-288D01*
X48D01*
X90D02*
Y-334D01*
Y-301D02*
X100Y-291D01*
X107Y-288D01*
X117D01*
X123Y-291D01*
X127Y-301D01*
Y-334D01*
Y-301D02*
X137Y-291D01*
X143Y-288D01*
X153D01*
X160Y-291D01*
X163Y-301D01*
Y-334D01*
X287Y-274D02*
X280Y-268D01*
X270Y-264D01*
X257D01*
X247Y-268D01*
X240Y-274D01*
Y-281D01*
X244Y-288D01*
X247Y-291D01*
X254Y-294D01*
X274Y-301D01*
X280Y-304D01*
X284Y-308D01*
X287Y-314D01*
Y-324D01*
X280Y-331D01*
X270Y-334D01*
X257D01*
X247Y-331D01*
X240Y-324D01*
X319Y-288D02*
X313Y-291D01*
X306Y-298D01*
X303Y-308D01*
Y-314D01*
X306Y-324D01*
X313Y-331D01*
X319Y-334D01*
X329D01*
X336Y-331D01*
X343Y-324D01*
X346Y-314D01*
Y-308D01*
X343Y-298D01*
X336Y-291D01*
X329Y-288D01*
X319D01*
X361Y-264D02*
Y-334D01*
X416Y-264D02*
Y-334D01*
Y-298D02*
X409Y-291D01*
X403Y-288D01*
X393D01*
X386Y-291D01*
X379Y-298D01*
X376Y-308D01*
Y-314D01*
X379Y-324D01*
X386Y-331D01*
X393Y-334D01*
X403D01*
X409Y-331D01*
X416Y-324D01*
X435Y-308D02*
X475D01*
Y-301D01*
X471Y-294D01*
X468Y-291D01*
X461Y-288D01*
X451D01*
X445Y-291D01*
X438Y-298D01*
X435Y-308D01*
Y-314D01*
X438Y-324D01*
X445Y-331D01*
X451Y-334D01*
X461D01*
X468Y-331D01*
X475Y-324D01*
X490Y-288D02*
Y-334D01*
Y-308D02*
X493Y-298D01*
X500Y-291D01*
X506Y-288D01*
X516D01*
X578Y-264D02*
Y-334D01*
Y-264D02*
X604Y-334D01*
X631Y-264D02*
X604Y-334D01*
X631Y-264D02*
Y-334D01*
X691Y-288D02*
Y-334D01*
Y-298D02*
X684Y-291D01*
X677Y-288D01*
X667D01*
X661Y-291D01*
X654Y-298D01*
X651Y-308D01*
Y-314D01*
X654Y-324D01*
X661Y-331D01*
X667Y-334D01*
X677D01*
X684Y-331D01*
X691Y-324D01*
X746Y-298D02*
X743Y-291D01*
X733Y-288D01*
X723D01*
X713Y-291D01*
X709Y-298D01*
X713Y-304D01*
X719Y-308D01*
X736Y-311D01*
X743Y-314D01*
X746Y-321D01*
Y-324D01*
X743Y-331D01*
X733Y-334D01*
X723D01*
X713Y-331D01*
X709Y-324D01*
X761Y-264D02*
Y-334D01*
X794Y-288D02*
X761Y-321D01*
X774Y-308D02*
X797Y-334D01*
D52*
X-200Y2224D02*
X-100Y2324D01*
X-200Y-21D02*
X-100Y-121D01*
X8180D02*
X8280Y-21D01*
X8180Y2324D02*
X8280Y2224D01*
X8280D01*
Y2074D02*
Y2224D01*
Y-21D02*
Y129D01*
X-100Y-121D02*
X8180D01*
X-100Y2324D02*
X8180D01*
X-200Y-21D02*
Y2224D01*
D53*
X8280Y2074D02*
X8792D01*
X8280Y129D02*
X8792D01*
Y2074D01*
D54*
X-19Y981D02*
D03*
X-19Y1341D02*
D03*
X-19Y495D02*
D03*
Y680D02*
D03*
D56*
X570Y485D02*
D03*
X660D02*
D03*
X1995Y1920D02*
D03*
X3530Y960D02*
D03*
X3650Y1050D02*
D03*
X3790Y675D02*
D03*
X3100Y1275D02*
D03*
X3020D02*
D03*
X2925Y1200D02*
D03*
X2835Y840D02*
D03*
X2115Y1095D02*
D03*
Y1020D02*
D03*
X3055Y1640D02*
D03*
X3130D02*
D03*
X2910Y1730D02*
D03*
X2115Y945D02*
D03*
X3000Y1725D02*
D03*
X2115Y870D02*
D03*
X3860Y1565D02*
D03*
X4165Y245D02*
D03*
X4695Y760D02*
D03*
X5302Y662D02*
D03*
X7139Y1789D02*
D03*
X6838Y535D02*
D03*
X7728Y1217D02*
D03*
X7623Y1201D02*
D03*
X6910Y1039D02*
D03*
X7450Y1195D02*
D03*
X7490Y1055D02*
D03*
X7550Y1240D02*
D03*
X7540Y1030D02*
D03*
X7500Y1220D02*
D03*
X7385Y1190D02*
D03*
X7585Y710D02*
D03*
X7877Y1325D02*
D03*
X8085Y1894D02*
D03*
X7306Y916D02*
D03*
X7397Y678D02*
D03*
X7235Y913D02*
D03*
X7312Y734D02*
D03*
X6585Y1326D02*
D03*
X6495D02*
D03*
X6040Y1865D02*
D03*
X5505Y1855D02*
D03*
X6100Y1825D02*
D03*
X6040Y1795D02*
D03*
X6050Y865D02*
D03*
Y805D02*
D03*
X5500Y910D02*
D03*
Y805D02*
D03*
X4635Y1700D02*
D03*
X800Y1045D02*
D03*
X905Y700D02*
D03*
X4385Y835D02*
D03*
X4105Y620D02*
D03*
X835Y1870D02*
D03*
X4170Y865D02*
D03*
X4745Y575D02*
D03*
X5680Y1020D02*
D03*
X5535Y235D02*
D03*
X1735Y1000D02*
D03*
X3610Y1970D02*
D03*
X4815Y1805D02*
D03*
X5105Y800D02*
D03*
X5350Y825D02*
D03*
X2825Y1833D02*
D03*
X4843Y1448D02*
D03*
X4389Y245D02*
D03*
X2856Y441D02*
D03*
X5334Y1425D02*
D03*
X3244Y1550D02*
D03*
X5386Y426D02*
D03*
X4436Y1495D02*
D03*
X5036Y1570D02*
D03*
X5269Y1767D02*
D03*
X4758Y1541D02*
D03*
X2027Y2018D02*
D03*
X6010Y1590D02*
D03*
X6015Y595D02*
D03*
Y673D02*
D03*
X1730Y1378D02*
D03*
X3135Y1960D02*
D03*
X4635Y630D02*
D03*
X4535D02*
D03*
X3694Y689D02*
D03*
X3660Y1244D02*
D03*
X5122Y1571D02*
D03*
X4094Y458D02*
D03*
X1975Y1750D02*
D03*
X1385Y365D02*
D03*
X1387Y991D02*
D03*
X1462Y1346D02*
D03*
X5955Y620D02*
D03*
X5855D02*
D03*
X5755D02*
D03*
X5655D02*
D03*
X905Y1220D02*
D03*
X3330Y1960D02*
D03*
X7373Y1326D02*
D03*
X500Y1979D02*
D03*
X6079Y1313D02*
D03*
X7150Y1529D02*
D03*
X7787Y1533D02*
D03*
X6951Y1660D02*
D03*
X6087Y1221D02*
D03*
X6167Y1272D02*
D03*
X4077Y801D02*
D03*
X7016Y710D02*
D03*
X6572Y596D02*
D03*
X6648Y1646D02*
D03*
X4692Y1140D02*
D03*
X4772Y941D02*
D03*
X7059Y1478D02*
D03*
X7787Y679D02*
D03*
X4342Y1076D02*
D03*
X3860Y1123D02*
D03*
X3977Y1221D02*
D03*
X3195Y1808D02*
D03*
X2987Y1826D02*
D03*
X3857Y936D02*
D03*
X3307Y816D02*
D03*
X5555Y1817D02*
D03*
X6010Y1660D02*
D03*
X6087Y1021D02*
D03*
X6167Y1071D02*
D03*
X6087Y1121D02*
D03*
X6167Y1172D02*
D03*
X665Y285D02*
D03*
X835Y1345D02*
D03*
X442Y936D02*
D03*
X3660Y2015D02*
D03*
X3475Y2020D02*
D03*
X1938Y1488D02*
D03*
X1443Y726D02*
D03*
X1566Y990D02*
D03*
X1575Y575D02*
D03*
X1387Y265D02*
D03*
X1645Y1345D02*
D03*
X6795Y270D02*
D03*
X6912Y281D02*
D03*
X7205Y236D02*
D03*
X7490Y269D02*
D03*
X7887Y271D02*
D03*
X7410Y1965D02*
D03*
X7882Y1931D02*
D03*
X6902Y1951D02*
D03*
X6582Y1946D02*
D03*
X6405Y1485D02*
D03*
X6734Y1478D02*
D03*
X7697D02*
D03*
X7877Y760D02*
D03*
X7487Y759D02*
D03*
X7108D02*
D03*
X6787D02*
D03*
X4627Y1011D02*
D03*
X3757Y631D02*
D03*
X3852Y251D02*
D03*
X2972Y476D02*
D03*
X3770Y1840D02*
D03*
X6517Y1171D02*
D03*
X6377Y1221D02*
D03*
Y1121D02*
D03*
Y1021D02*
D03*
X6517Y1271D02*
D03*
X7682Y1902D02*
D03*
X2255Y1852D02*
D03*
X2257Y1721D02*
D03*
Y1786D02*
D03*
X2632Y1051D02*
D03*
X665Y225D02*
D03*
X625Y535D02*
D03*
X4717Y836D02*
D03*
X2606Y1893D02*
D03*
X2562Y1846D02*
D03*
X2553Y1688D02*
D03*
X1965Y1815D02*
D03*
X3115Y1530D02*
D03*
X1640Y1515D02*
D03*
X2060Y1260D02*
D03*
X1890Y2010D02*
D03*
X1767Y791D02*
D03*
X835Y1430D02*
D03*
X2965Y1152D02*
D03*
X3361Y1151D02*
D03*
X3116Y965D02*
D03*
X3004Y1199D02*
D03*
X4536Y836D02*
D03*
X4607Y836D02*
D03*
X3900Y1841D02*
D03*
X825Y225D02*
D03*
X7464Y1546D02*
D03*
X1517Y336D02*
D03*
X5750Y1605D02*
D03*
X5650D02*
D03*
X5850D02*
D03*
X5950D02*
D03*
X4934Y346D02*
D03*
X4993Y344D02*
D03*
X5106Y404D02*
D03*
X4819Y402D02*
D03*
X4770Y270D02*
D03*
X5152D02*
D03*
X5028Y1291D02*
D03*
X5590Y1585D02*
D03*
X2222Y1380D02*
D03*
X2185Y1852D02*
D03*
X2522Y1472D02*
D03*
X2595Y1505D02*
D03*
X2185Y784D02*
D03*
X6370Y1676D02*
D03*
X7237Y742D02*
D03*
X7396Y737D02*
D03*
X897Y451D02*
D03*
X4288Y758D02*
D03*
X5268Y586D02*
D03*
X5271Y828D02*
D03*
X4885Y588D02*
D03*
X4953Y585D02*
D03*
X4950Y672D02*
D03*
X4949Y831D02*
D03*
X5025Y1755D02*
D03*
X5185Y1598D02*
D03*
X5118Y1633D02*
D03*
X5055D02*
D03*
X5050Y514D02*
D03*
X4856Y498D02*
D03*
X2823Y370D02*
D03*
X2604Y568D02*
D03*
X2150Y406D02*
D03*
X1650Y635D02*
D03*
X2696Y568D02*
D03*
X2390Y531D02*
D03*
X7589Y225D02*
D03*
X6275Y250D02*
D03*
X6861Y405D02*
D03*
X7506Y986D02*
D03*
X3412Y916D02*
D03*
X2749Y1695D02*
D03*
X2663Y1687D02*
D03*
X2700Y906D02*
D03*
X1959Y1126D02*
D03*
X2493Y1069D02*
D03*
X2284Y1387D02*
D03*
X2490Y1394D02*
D03*
X2535Y1376D02*
D03*
X2584Y1356D02*
D03*
D57*
X8560Y537D02*
D03*
Y1666D02*
D03*
X-19Y1763D02*
D03*
D58*
X8106Y452D02*
D03*
Y570D02*
D03*
Y688D02*
D03*
Y806D02*
D03*
Y924D02*
D03*
Y1042D02*
D03*
Y1160D02*
D03*
Y1278D02*
D03*
Y1396D02*
D03*
Y1515D02*
D03*
Y1633D02*
D03*
Y1751D02*
D03*
X8224Y452D02*
D03*
Y570D02*
D03*
Y688D02*
D03*
Y806D02*
D03*
Y924D02*
D03*
Y1042D02*
D03*
Y1160D02*
D03*
Y1278D02*
D03*
Y1396D02*
D03*
Y1515D02*
D03*
Y1633D02*
D03*
X151Y1375D02*
D03*
Y1493D02*
D03*
Y1611D02*
D03*
Y1729D02*
D03*
Y1847D02*
D03*
X269Y1257D02*
D03*
X269Y1373D02*
D03*
X269Y1847D02*
D03*
X269Y1729D02*
D03*
Y1611D02*
D03*
Y1493D02*
D03*
X151Y646D02*
D03*
Y765D02*
D03*
X151Y528D02*
D03*
X269Y528D02*
D03*
Y646D02*
D03*
Y765D02*
D03*
X269Y410D02*
D03*
X2100Y700D02*
D03*
X2200D02*
D03*
X2300D02*
D03*
X2400D02*
D03*
X2500D02*
D03*
X2600D02*
D03*
X2700D02*
D03*
D59*
X8224Y1751D02*
D03*
X151Y1257D02*
D03*
X151Y410D02*
D03*
D60*
X2000Y700D02*
D03*
D61*
X6165Y970D02*
D03*
D70*
X7585Y298D02*
D03*
Y410D02*
D03*
X7785Y298D02*
D03*
Y410D02*
D03*
X7396Y301D02*
D03*
Y413D02*
D03*
X7207Y301D02*
D03*
Y413D02*
D03*
X7015Y301D02*
D03*
Y413D02*
D03*
X6697Y1790D02*
D03*
Y1902D02*
D03*
X7017Y1790D02*
D03*
Y1902D02*
D03*
X7285Y1790D02*
D03*
Y1902D02*
D03*
X7787Y1790D02*
D03*
Y1902D02*
D03*
X7607Y1790D02*
D03*
Y1902D02*
D03*
X6697Y413D02*
D03*
Y301D02*
D03*
X7971Y1783D02*
D03*
Y1895D02*
D03*
D71*
X8527Y1459D02*
D03*
X8415D02*
D03*
X8527Y729D02*
D03*
X8415D02*
D03*
Y859D02*
D03*
X8527D02*
D03*
Y989D02*
D03*
X8415D02*
D03*
Y1199D02*
D03*
X8527D02*
D03*
Y1329D02*
D03*
X8415D02*
D03*
D72*
X4918Y788D02*
D03*
X4949D02*
D03*
X4981D02*
D03*
X5012D02*
D03*
Y722D02*
D03*
X4981D02*
D03*
X4949D02*
D03*
X4918D02*
D03*
X5239Y788D02*
D03*
X5271D02*
D03*
X5302D02*
D03*
Y722D02*
D03*
X5271D02*
D03*
X5239D02*
D03*
X5208Y788D02*
D03*
Y722D02*
D03*
X5073Y1692D02*
D03*
X5104D02*
D03*
X5136D02*
D03*
X5167D02*
D03*
Y1758D02*
D03*
X5136D02*
D03*
X5104D02*
D03*
X5073D02*
D03*
D73*
X5011Y960D02*
D03*
X4981D02*
D03*
X4950D02*
D03*
X4918D02*
D03*
Y880D02*
D03*
X4950D02*
D03*
X4981D02*
D03*
X5011D02*
D03*
X5301Y960D02*
D03*
X5271D02*
D03*
X5240D02*
D03*
Y880D02*
D03*
X5271D02*
D03*
X5301D02*
D03*
X4918Y435D02*
D03*
X4950D02*
D03*
X4981D02*
D03*
X5011D02*
D03*
Y515D02*
D03*
X4981D02*
D03*
X4950D02*
D03*
X4918D02*
D03*
X5208Y960D02*
D03*
Y880D02*
D03*
X5168Y1830D02*
D03*
X5137D02*
D03*
X5106D02*
D03*
X5075D02*
D03*
Y1910D02*
D03*
X5106D02*
D03*
X5137D02*
D03*
X5168D02*
D03*
D74*
X825Y567D02*
D03*
X787Y465D02*
D03*
X749Y567D02*
D03*
X825Y465D02*
D03*
X749D02*
D03*
D75*
X4360Y690D02*
D03*
X4310Y645D02*
D03*
X4235Y360D02*
D03*
X4330Y245D02*
D03*
X4270D02*
D03*
X4460Y255D02*
D03*
X4410Y645D02*
D03*
X4435Y725D02*
D03*
X5170Y815D02*
D03*
X5330Y600D02*
D03*
X5140Y960D02*
D03*
Y880D02*
D03*
X2805Y1700D02*
D03*
X2690Y1835D02*
D03*
X2745Y1765D02*
D03*
D76*
X2435Y1070D02*
D03*
X2365Y1355D02*
D03*
X2260Y1445D02*
D03*
X2525Y1425D02*
D03*
X2635Y1345D02*
D03*
D86*
X7847Y79D02*
D03*
X147D02*
D03*
Y2126D02*
D03*
D87*
X8100Y229D02*
D03*
X0Y2202D02*
D03*
Y0D02*
D03*
M02*
