G04 CAM350 V9.5.2 (Build 226) Date:  Wed Nov 19 13:46:36 2008 *
G04 Database: (Untitled) *
G04 Layer 14: 09-000040-00SB_ *
%FSLAX35Y35*%
%MOIN*%
%SFA1.000B1.000*%

%MIA0B0*%
%IPPOS*%
%ADD10C,0.01575*%
%ADD11C,0.00984*%
%ADD12C,0.01969*%
%ADD13C,0.00787*%
%ADD14C,0.00394*%
%ADD17C,0.02362*%
%ADD72C,0.01575*%
%ADD42C,0.00500*%
%ADD57C,0.00800*%
%ADD63C,0.00400*%
%ADD75C,0.00591*%
%LN09-000040-00SB_*%
%LPD*%
G54D10*
X1207158Y841043D02*
G01X1206084Y840551D01*
X1205369Y839075*
X1205011Y836614*
Y835138*
X1205369Y832677*
X1206084Y831201*
X1207158Y830709*
X1207874*
X1208948Y831201*
X1209664Y832677*
X1210021Y835138*
Y836614*
X1209664Y839075*
X1208948Y840551*
X1207874Y841043*
X1207158*
X1217895Y837598D02*
G01X1217538Y836122D01*
X1216822Y835138*
X1215748Y834646*
X1215390*
X1214316Y835138*
X1213601Y836122*
X1213243Y837598*
Y838091*
X1213601Y839567*
X1214316Y840551*
X1215390Y841043*
X1215748*
X1216822Y840551*
X1217538Y839567*
X1217895Y837598*
Y835138*
X1217538Y832677*
X1216822Y831201*
X1215748Y830709*
X1215032*
X1213958Y831201*
X1213601Y832185*
X1221117Y835138D02*
G01X1227559D01*
X1232928Y841043D02*
G01X1231854Y840551D01*
X1231138Y839075*
X1230780Y836614*
Y835138*
X1231138Y832677*
X1231854Y831201*
X1232928Y830709*
X1233644*
X1234717Y831201*
X1235433Y832677*
X1235791Y835138*
Y836614*
X1235433Y839075*
X1234717Y840551*
X1233644Y841043*
X1232928*
X1241160D02*
G01X1240086Y840551D01*
X1239370Y839075*
X1239012Y836614*
Y835138*
X1239370Y832677*
X1240086Y831201*
X1241160Y830709*
X1241875*
X1242949Y831201*
X1243665Y832677*
X1244023Y835138*
Y836614*
X1243665Y839075*
X1242949Y840551*
X1241875Y841043*
X1241160*
X1249392D02*
G01X1248318Y840551D01*
X1247602Y839075*
X1247244Y836614*
Y835138*
X1247602Y832677*
X1248318Y831201*
X1249392Y830709*
X1250107*
X1251181Y831201*
X1251897Y832677*
X1252255Y835138*
Y836614*
X1251897Y839075*
X1251181Y840551*
X1250107Y841043*
X1249392*
X1257623D02*
G01X1256550Y840551D01*
X1255834Y839075*
X1255476Y836614*
Y835138*
X1255834Y832677*
X1256550Y831201*
X1257623Y830709*
X1258339*
X1259413Y831201*
X1260129Y832677*
X1260487Y835138*
Y836614*
X1260129Y839075*
X1259413Y840551*
X1258339Y841043*
X1257623*
X1267287D02*
G01X1263708Y834154D01*
X1269077*
X1267287Y841043D02*
G01Y830709D01*
X1274445Y841043D02*
G01X1273372Y840551D01*
X1272656Y839075*
X1272298Y836614*
Y835138*
X1272656Y832677*
X1273372Y831201*
X1274445Y830709*
X1275161*
X1276235Y831201*
X1276951Y832677*
X1277309Y835138*
Y836614*
X1276951Y839075*
X1276235Y840551*
X1275161Y841043*
X1274445*
X992377Y895915D02*
G01X995240Y885581D01*
X998103Y895915D02*
G01X995240Y885581D01*
X1001324Y895915D02*
G01Y885581D01*
Y895915D02*
G01X1005977D01*
X1001324Y890994D02*
G01X1004188D01*
X1001324Y885581D02*
G01X1005977D01*
X1009198Y895915D02*
G01Y885581D01*
X1014209Y895915D02*
G01Y885581D01*
X1009198Y890994D02*
G01X1014209D01*
X1017430Y895915D02*
G01Y885581D01*
X1026020Y893455D02*
G01X1025662Y894439D01*
X1024946Y895423*
X1024230Y895915*
X1022799*
X1022083Y895423*
X1021367Y894439*
X1021009Y893455*
X1020651Y891978*
Y889518*
X1021009Y888041*
X1021367Y887057*
X1022083Y886073*
X1022799Y885581*
X1024230*
X1024946Y886073*
X1025662Y887057*
X1026020Y888041*
X1029241Y895915D02*
G01Y885581D01*
X1033536*
X1036757Y895915D02*
G01Y885581D01*
Y895915D02*
G01X1041410D01*
X1036757Y890994D02*
G01X1039621D01*
X1036757Y885581D02*
G01X1041410D01*
X1052863Y895915D02*
G01Y885581D01*
Y895915D02*
G01X1055369D01*
X1056442Y895423*
X1057158Y894439*
X1057516Y893455*
X1057874Y891978*
Y889518*
X1057516Y888041*
X1057158Y887057*
X1056442Y886073*
X1055369Y885581*
X1052863*
X1061095Y895915D02*
G01Y885581D01*
X1069327Y894439D02*
G01X1068611Y895423D01*
X1067538Y895915*
X1066106*
X1065032Y895423*
X1064316Y894439*
Y893455*
X1064674Y892470*
X1065032Y891978*
X1065748Y891486*
X1067895Y890502*
X1068611Y890010*
X1068969Y889518*
X1069327Y888533*
Y887057*
X1068611Y886073*
X1067538Y885581*
X1066106*
X1065032Y886073*
X1064316Y887057*
X1072548Y895915D02*
G01Y885581D01*
Y895915D02*
G01X1075770D01*
X1076843Y895423*
X1077201Y894931*
X1077559Y893947*
Y892470*
X1077201Y891486*
X1076843Y890994*
X1075770Y890502*
X1072548*
X1080780Y895915D02*
G01Y885581D01*
X1085075*
X1091160Y895915D02*
G01X1088296Y885581D01*
X1091160Y895915D02*
G01X1094023Y885581D01*
X1089370Y889026D02*
G01X1092949D01*
X1097244Y895915D02*
G01X1100107Y890994D01*
Y885581*
X1102971Y895915D02*
G01X1100107Y890994D01*
X1119435Y894439D02*
G01X1118719Y895423D01*
X1117645Y895915*
X1116213*
X1115140Y895423*
X1114424Y894439*
Y893455*
X1114782Y892470*
X1115140Y891978*
X1115855Y891486*
X1118003Y890502*
X1118719Y890010*
X1119077Y889518*
X1119435Y888533*
Y887057*
X1118719Y886073*
X1117645Y885581*
X1116213*
X1115140Y886073*
X1114424Y887057*
X1122656Y895915D02*
G01X1125519Y890994D01*
Y885581*
X1128382Y895915D02*
G01X1125519Y890994D01*
X1136614Y894439D02*
G01X1135898Y895423D01*
X1134825Y895915*
X1133393*
X1132319Y895423*
X1131603Y894439*
Y893455*
X1131961Y892470*
X1132319Y891978*
X1133035Y891486*
X1135183Y890502*
X1135898Y890010*
X1136256Y889518*
X1136614Y888533*
Y887057*
X1135898Y886073*
X1134825Y885581*
X1133393*
X1132319Y886073*
X1131603Y887057*
X1142341Y895915D02*
G01Y885581D01*
X1139835Y895915D02*
G01X1144846D01*
X1148067D02*
G01Y885581D01*
Y895915D02*
G01X1152720D01*
X1148067Y890994D02*
G01X1150931D01*
X1148067Y885581D02*
G01X1152720D01*
X1155941Y895915D02*
G01Y885581D01*
Y895915D02*
G01X1158805Y885581D01*
X1161668Y895915D02*
G01X1158805Y885581D01*
X1161668Y895915D02*
G01Y885581D01*
X1178490Y893455D02*
G01X1178132Y894439D01*
X1177416Y895423*
X1176700Y895915*
X1175268*
X1174553Y895423*
X1173837Y894439*
X1173479Y893455*
X1173121Y891978*
Y889518*
X1173479Y888041*
X1173837Y887057*
X1174553Y886073*
X1175268Y885581*
X1176700*
X1177416Y886073*
X1178132Y887057*
X1178490Y888041*
X1183858Y895915D02*
G01X1183142Y895423D01*
X1182427Y894439*
X1182069Y893455*
X1181711Y891978*
Y889518*
X1182069Y888041*
X1182427Y887057*
X1183142Y886073*
X1183858Y885581*
X1185290*
X1186006Y886073*
X1186722Y887057*
X1187079Y888041*
X1187437Y889518*
Y891978*
X1187079Y893455*
X1186722Y894439*
X1186006Y895423*
X1185290Y895915*
X1183858*
X1190659D02*
G01Y885581D01*
Y895915D02*
G01X1195669Y885581D01*
Y895915D02*
G01Y885581D01*
X1201396Y895915D02*
G01Y885581D01*
X1198890Y895915D02*
G01X1203901D01*
X1207122D02*
G01Y885581D01*
Y895915D02*
G01X1210344D01*
X1211417Y895423*
X1211775Y894931*
X1212133Y893947*
Y892963*
X1211775Y891978*
X1211417Y891486*
X1210344Y890994*
X1207122*
X1209628D02*
G01X1212133Y885581D01*
X1217502Y895915D02*
G01X1216786Y895423D01*
X1216070Y894439*
X1215712Y893455*
X1215354Y891978*
Y889518*
X1215712Y888041*
X1216070Y887057*
X1216786Y886073*
X1217502Y885581*
X1218933*
X1219649Y886073*
X1220365Y887057*
X1220723Y888041*
X1221081Y889518*
Y891978*
X1220723Y893455*
X1220365Y894439*
X1219649Y895423*
X1218933Y895915*
X1217502*
X1224302D02*
G01Y885581D01*
X1228597*
X1231818Y895915D02*
G01Y885581D01*
X1236113*
X1239334Y895915D02*
G01Y885581D01*
Y895915D02*
G01X1243987D01*
X1239334Y890994D02*
G01X1242198D01*
X1239334Y885581D02*
G01X1243987D01*
X1247208Y895915D02*
G01Y885581D01*
Y895915D02*
G01X1250429D01*
X1251503Y895423*
X1251861Y894931*
X1252219Y893947*
Y892963*
X1251861Y891978*
X1251503Y891486*
X1250429Y890994*
X1247208*
X1249714D02*
G01X1252219Y885581D01*
X1263672Y895915D02*
G01Y885581D01*
Y895915D02*
G01X1266893D01*
X1267967Y895423*
X1268325Y894931*
X1268683Y893947*
Y892963*
X1268325Y891978*
X1267967Y891486*
X1266893Y890994*
X1263672D02*
G01X1266893D01*
X1267967Y890502*
X1268325Y890010*
X1268683Y889026*
Y887549*
X1268325Y886565*
X1267967Y886073*
X1266893Y885581*
X1263672*
X1274052Y895915D02*
G01X1273336Y895423D01*
X1272620Y894439*
X1272262Y893455*
X1271904Y891978*
Y889518*
X1272262Y888041*
X1272620Y887057*
X1273336Y886073*
X1274052Y885581*
X1275483*
X1276199Y886073*
X1276915Y887057*
X1277273Y888041*
X1277631Y889518*
Y891978*
X1277273Y893455*
X1276915Y894439*
X1276199Y895423*
X1275483Y895915*
X1274052*
X1283715D02*
G01X1280852Y885581D01*
X1283715Y895915D02*
G01X1286578Y885581D01*
X1281926Y889026D02*
G01X1285505D01*
X1289800Y895915D02*
G01Y885581D01*
Y895915D02*
G01X1293021D01*
X1294094Y895423*
X1294452Y894931*
X1294810Y893947*
Y892963*
X1294452Y891978*
X1294094Y891486*
X1293021Y890994*
X1289800*
X1292305D02*
G01X1294810Y885581D01*
X1298031Y895915D02*
G01Y885581D01*
Y895915D02*
G01X1300537D01*
X1301611Y895423*
X1302326Y894439*
X1302684Y893455*
X1303042Y891978*
Y889518*
X1302684Y888041*
X1302326Y887057*
X1301611Y886073*
X1300537Y885581*
X1298031*
X1288082Y839567D02*
G01X1287366Y840551D01*
X1286292Y841043*
X1284860*
X1283787Y840551*
X1283071Y839567*
Y838583*
X1283429Y837598*
X1283787Y837106*
X1284503Y836614*
X1286650Y835630*
X1287366Y835138*
X1287724Y834646*
X1288082Y833661*
Y832185*
X1287366Y831201*
X1286292Y830709*
X1284860*
X1283787Y831201*
X1283071Y832185*
X1291303Y841043D02*
G01Y830709D01*
Y841043D02*
G01X1294524D01*
X1295598Y840551*
X1295956Y840059*
X1296314Y839075*
Y838091*
X1295956Y837106*
X1295598Y836614*
X1294524Y836122*
X1291303D02*
G01X1294524D01*
X1295598Y835630*
X1295956Y835138*
X1296314Y834154*
Y832677*
X1295956Y831693*
X1295598Y831201*
X1294524Y830709*
X1291303*
X1299893Y831693D02*
G01X1299535Y831201D01*
X1299893Y830709*
X1300251Y831201*
X1299893Y831693*
X1303472Y841043D02*
G01Y830709D01*
Y841043D02*
G01X1306693D01*
X1307767Y840551*
X1308125Y840059*
X1308482Y839075*
Y837598*
X1308125Y836614*
X1307767Y836122*
X1306693Y835630*
X1303472*
X1311704Y841043D02*
G01Y830709D01*
X1316714Y841043D02*
G01Y830709D01*
X1311704Y836122D02*
G01X1316714D01*
X1322083Y841043D02*
G01X1321367Y840551D01*
X1320651Y839567*
X1320293Y838583*
X1319936Y837106*
Y834646*
X1320293Y833169*
X1320651Y832185*
X1321367Y831201*
X1322083Y830709*
X1323515*
X1324230Y831201*
X1324946Y832185*
X1325304Y833169*
X1325662Y834646*
Y837106*
X1325304Y838583*
X1324946Y839567*
X1324230Y840551*
X1323515Y841043*
X1322083*
X977058Y839567D02*
G01X976342Y840551D01*
X975268Y841043*
X973837*
X972763Y840551*
X972047Y839567*
Y838583*
X972405Y837598*
X972763Y837106*
X973479Y836614*
X975626Y835630*
X976342Y835138*
X976700Y834646*
X977058Y833661*
Y832185*
X976342Y831201*
X975268Y830709*
X973837*
X972763Y831201*
X972047Y832185*
X980279Y841043D02*
G01Y830709D01*
X983500Y841043D02*
G01Y830709D01*
X987795*
X991016Y841043D02*
G01Y830709D01*
X996027Y841043D02*
G01X991016Y834154D01*
X992806Y836614D02*
G01X996027Y830709D01*
X1004259Y839567D02*
G01X1003543Y840551D01*
X1002470Y841043*
X1001038*
X999964Y840551*
X999248Y839567*
Y838583*
X999606Y837598*
X999964Y837106*
X1000680Y836614*
X1002827Y835630*
X1003543Y835138*
X1003901Y834646*
X1004259Y833661*
Y832185*
X1003543Y831201*
X1002470Y830709*
X1001038*
X999964Y831201*
X999248Y832185*
X1012849Y838583D02*
G01X1012491Y839567D01*
X1011775Y840551*
X1011059Y841043*
X1009628*
X1008912Y840551*
X1008196Y839567*
X1007838Y838583*
X1007480Y837106*
Y834646*
X1007838Y833169*
X1008196Y832185*
X1008912Y831201*
X1009628Y830709*
X1011059*
X1011775Y831201*
X1012491Y832185*
X1012849Y833169*
X1016070Y841043D02*
G01Y830709D01*
Y841043D02*
G01X1019291D01*
X1020365Y840551*
X1020723Y840059*
X1021081Y839075*
Y838091*
X1020723Y837106*
X1020365Y836614*
X1019291Y836122*
X1016070*
X1018576D02*
G01X1021081Y830709D01*
X1024302Y841043D02*
G01Y830709D01*
Y841043D02*
G01X1028955D01*
X1024302Y836122D02*
G01X1027165D01*
X1024302Y830709D02*
G01X1028955D01*
X1032176Y841043D02*
G01Y830709D01*
Y841043D02*
G01X1036829D01*
X1032176Y836122D02*
G01X1035039D01*
X1032176Y830709D02*
G01X1036829D01*
X1040050Y841043D02*
G01Y830709D01*
Y841043D02*
G01X1045061Y830709D01*
Y841043D02*
G01Y830709D01*
X1059019Y843012D02*
G01X1058304Y842028D01*
X1057588Y840551*
X1056872Y838583*
X1056514Y836122*
Y834154*
X1056872Y831693*
X1057588Y829724*
X1058304Y828248*
X1059019Y827264*
X1062241Y841043D02*
G01Y830709D01*
Y841043D02*
G01X1065462D01*
X1066535Y840551*
X1066893Y840059*
X1067251Y839075*
Y838091*
X1066893Y837106*
X1066535Y836614*
X1065462Y836122*
X1062241D02*
G01X1065462D01*
X1066535Y835630*
X1066893Y835138*
X1067251Y834154*
Y832677*
X1066893Y831693*
X1066535Y831201*
X1065462Y830709*
X1062241*
X1072620Y841043D02*
G01X1071904Y840551D01*
X1071188Y839567*
X1070830Y838583*
X1070472Y837106*
Y834646*
X1070830Y833169*
X1071188Y832185*
X1071904Y831201*
X1072620Y830709*
X1074052*
X1074767Y831201*
X1075483Y832185*
X1075841Y833169*
X1076199Y834646*
Y837106*
X1075841Y838583*
X1075483Y839567*
X1074767Y840551*
X1074052Y841043*
X1072620*
X1081926D02*
G01Y830709D01*
X1079420Y841043D02*
G01X1084431D01*
X1090157D02*
G01Y830709D01*
X1087652Y841043D02*
G01X1092663D01*
X1098031D02*
G01X1097316Y840551D01*
X1096600Y839567*
X1096242Y838583*
X1095884Y837106*
Y834646*
X1096242Y833169*
X1096600Y832185*
X1097316Y831201*
X1098031Y830709*
X1099463*
X1100179Y831201*
X1100895Y832185*
X1101253Y833169*
X1101611Y834646*
Y837106*
X1101253Y838583*
X1100895Y839567*
X1100179Y840551*
X1099463Y841043*
X1098031*
X1104832D02*
G01Y830709D01*
Y841043D02*
G01X1107695Y830709D01*
X1110558Y841043D02*
G01X1107695Y830709D01*
X1110558Y841043D02*
G01Y830709D01*
X1127022Y839567D02*
G01X1126306Y840551D01*
X1125233Y841043*
X1123801*
X1122727Y840551*
X1122011Y839567*
Y838583*
X1122369Y837598*
X1122727Y837106*
X1123443Y836614*
X1125591Y835630*
X1126306Y835138*
X1126664Y834646*
X1127022Y833661*
Y832185*
X1126306Y831201*
X1125233Y830709*
X1123801*
X1122727Y831201*
X1122011Y832185*
X1130243Y841043D02*
G01Y830709D01*
X1133465Y841043D02*
G01Y830709D01*
Y841043D02*
G01X1135970D01*
X1137044Y840551*
X1137759Y839567*
X1138117Y838583*
X1138475Y837106*
Y834646*
X1138117Y833169*
X1137759Y832185*
X1137044Y831201*
X1135970Y830709*
X1133465*
X1141696Y841043D02*
G01Y830709D01*
Y841043D02*
G01X1146349D01*
X1141696Y836122D02*
G01X1144560D01*
X1141696Y830709D02*
G01X1146349D01*
X1149571Y843012D02*
G01X1150286Y842028D01*
X1151002Y840551*
X1151718Y838583*
X1152076Y836122*
Y834154*
X1151718Y831693*
X1151002Y829724*
X1150286Y828248*
X1149571Y827264*
X1234843Y1238976D02*
G01X1282480D01*
Y1261024*
X1234843*
Y1238976*
G54D11*
X1044390Y1195472D02*
G75*
G03X1044390Y1195472I-492D01*
X1105020Y1113583D02*
G03X1105020Y1113583I-492D01*
X1293209Y1128543D02*
G03X1293209Y1128543I-492D01*
X1288484Y1142323D02*
G03X1288484Y1142323I-492D01*
X1269656Y1111024D02*
G03X1269656Y1111024I-247D01*
X1314695Y1102756D02*
G03X1314695Y1102756I-246D01*
X1109301Y1061535D02*
G03X1109301Y1061535I-246D01*
X1160876Y1052283D02*
G03X1160876Y1052283I-246D01*
X1085679Y1045000D02*
G03X1085679Y1045000I-246D01*
X1041831Y1059646D02*
G03X1041831Y1059646I-492D01*
X1288681Y1094094D02*
G03X1288681Y1094094I-492D01*
X1293012D02*
G03X1293012Y1094094I-492D01*
X1054695Y1103543D02*
G03X1054695Y1103543I-246D01*
X1108238Y1110630D02*
G03X1108238Y1110630I-246D01*
X1068356Y1045000D02*
G03X1068356Y1045000I-246D01*
X1127776Y1261811D02*
G03X1127776Y1261811I-246D01*
X1212500Y1162697D02*
G03X1212500Y1162697I-246D01*
X1195492Y1261811D02*
G03X1195492Y1261811I-246D01*
X1326053Y1158809D02*
G03X1326053Y1158809I-246D01*
X1160876Y1072559D02*
G03X1160876Y1072559I-246D01*
X1137943Y1049754D02*
G03X1137943Y1049754I-246D01*
X1067175Y1059449D02*
G03X1067175Y1059449I-246D01*
X1329262Y1102756D02*
G03X1329262Y1102756I-246D01*
X1053199Y1076063D02*
G03X1053199Y1076063I-246D01*
X1100197Y1109055D02*
G03X1100197Y1109055I-197D01*
X1032593Y1054618D02*
G03X1032593Y1054618I-247D01*
X964173Y855512D02*
G03X968110Y851575I3937D01*
Y851575D02*
G01X1129528D01*
Y851575D02*
G03X1133465Y855512J3937D01*
Y855512D02*
G01Y871260D01*
Y871260D02*
G03X1129528Y875197I-3937D01*
Y875197D02*
G01X968110D01*
Y875197D02*
G03X964173Y871260J-3937D01*
Y871260D02*
G01Y855512D01*
X1137402D02*
G03X1141339Y851575I3937D01*
Y851575D02*
G01X1176772D01*
Y851575D02*
G03X1180709Y855512J3937D01*
Y855512D02*
G01Y871260D01*
Y871260D02*
G03X1176772Y875197I-3937D01*
Y875197D02*
G01X1141339D01*
Y875197D02*
G03X1137402Y871260J-3937D01*
Y871260D02*
G01Y855512D01*
X964173Y827953D02*
G03X968110Y824016I3937D01*
Y824016D02*
G01X1176772D01*
Y824016D02*
G03X1180709Y827953J3937D01*
Y827953D02*
G01Y843701D01*
Y843701D02*
G03X1176772Y847638I-3937D01*
Y847638D02*
G01X968110D01*
Y847638D02*
G03X964173Y843701J-3937D01*
Y843701D02*
G01Y827953D01*
X1184646D02*
G03X1188583Y824016I3937D01*
Y824016D02*
G01X1330315D01*
Y824016D02*
G03X1334252Y827953J3937D01*
Y827953D02*
G01Y843701D01*
Y843701D02*
G03X1330315Y847638I-3937D01*
Y847638D02*
G01X1188583D01*
Y847638D02*
G03X1184646Y843701J-3937D01*
Y843701D02*
G01Y827953D01*
Y855512D02*
G03X1188583Y851575I3937D01*
Y851575D02*
G01X1330315D01*
Y851575D02*
G03X1334252Y855512J3937D01*
Y855512D02*
G01Y871260D01*
Y871260D02*
G03X1330315Y875197I-3937D01*
Y875197D02*
G01X1188583D01*
Y875197D02*
G03X1184646Y871260J-3937D01*
Y871260D02*
G01Y855512D01*
X964173Y883071D02*
G03X968110Y879134I3937D01*
Y879134D02*
G01X1330315D01*
Y879134D02*
G03X1334252Y883071J3937D01*
Y883071D02*
G01Y898819D01*
Y898819D02*
G03X1330315Y902756I-3937D01*
Y902756D02*
G01X968110D01*
Y902756D02*
G03X964173Y898819J-3937D01*
Y898819D02*
G01Y883071D01*
G54D12*
X960236Y827953D02*
G03X968110Y820079I7874D01*
Y820079D02*
G01X1330315D01*
Y820079D02*
G03X1338189Y827953J7874D01*
Y827953D02*
G01Y898819D01*
Y898819D02*
G03X1330315Y906693I-7874D01*
Y906693D02*
G01X968110D01*
Y906693D02*
G03X960236Y898819J-7874D01*
Y898819D02*
G01Y827953D01*
G54D13*
X1268110Y1201181D02*
G01Y1204331D01*
X1284252D02*
G01Y1201181D01*
X1036614Y1175394D02*
G01Y1172244D01*
X1042913Y1175394D02*
G01Y1172244D01*
X1062205Y1159449D02*
G01Y1162598D01*
X1044000Y1152425D02*
G01Y1155575D01*
Y1145425D02*
G01Y1148575D01*
X1050000Y1131012D02*
G01Y1134161D01*
Y1123925D02*
G01Y1127075D01*
X1220079Y1171457D02*
G01Y1174606D01*
X1212205Y1098819D02*
G01X1215354D01*
X1200394D02*
G01X1203543D01*
X1183661Y1155709D02*
G01X1180512D01*
X1162205Y1027559D02*
G01X1159055D01*
X1149606D02*
G01X1146457D01*
X1155906D02*
G01X1152756D01*
X1137008D02*
G01X1133858D01*
X1130709D02*
G01X1127559D01*
X1168504D02*
G01X1165354D01*
X1013386Y1042581D02*
G01X1010236D01*
X1019685D02*
G01X1016535D01*
X1025984D02*
G01X1022835D01*
X1032283D02*
G01X1029134D01*
X1315551Y1151575D02*
G01Y1148425D01*
X1244882Y1072835D02*
G01X1248031D01*
X1148819Y1099016D02*
G01Y1102165D01*
X1079921Y1160236D02*
G01Y1163386D01*
X1285433Y1102756D02*
G01X1288583D01*
X1253543Y1079134D02*
G01Y1075984D01*
X1259843Y1079134D02*
G01Y1075984D01*
X1043307Y1197638D02*
G01X1046063D01*
Y1227559*
X1043307*
X1030709Y1197638D02*
G01X1027953D01*
Y1227559*
X1030709*
X1148819Y1126575D02*
G01Y1129724D01*
X1079921Y1153937D02*
G01Y1157087D01*
X1152756Y1156299D02*
G01X1149606D01*
X1103937Y1115748D02*
G01X1106693D01*
Y1145669*
X1103937*
X1091339Y1115748D02*
G01X1088583D01*
Y1145669*
X1091339*
X1146260Y1156299D02*
G01X1143110D01*
X1079921Y1147638D02*
G01Y1144488D01*
X1257874Y1100787D02*
G01Y1097638D01*
X1122638Y1159843D02*
G01X1119488D01*
X1089764Y1090945D02*
G01X1092913D01*
X1101969Y1171260D02*
G01X1098819D01*
X1117323Y1090945D02*
G01X1120472D01*
X1298819Y1102756D02*
G01X1295669D01*
X1133071Y1090945D02*
G01X1136220D01*
X1320866Y1079134D02*
G01Y1075984D01*
X1327165Y1079134D02*
G01Y1075984D01*
X1148819Y1141339D02*
G01Y1138189D01*
X1043307Y1247638D02*
G01X1046457D01*
X1294882Y1129134D02*
G01Y1126378D01*
X1324803*
Y1129134*
X1294882Y1141732D02*
G01Y1144488D01*
X1324803*
Y1141732*
X1285827D02*
G01Y1144488D01*
X1255906*
Y1141732*
X1285827Y1129134D02*
G01Y1126378D01*
X1255906*
Y1129134*
X1196457Y1058268D02*
G01Y1061417D01*
X1057480Y1083858D02*
G01X1060630D01*
X1106693Y1020472D02*
G01X1109843D01*
X1106693Y1026772D02*
G01X1109843D01*
X1116142Y1053543D02*
G01Y1050394D01*
X1177953Y1028543D02*
G01Y1031693D01*
X1171654Y1028543D02*
G01Y1031693D01*
X1073031Y1101181D02*
G01X1069882D01*
X1137875Y1078650D02*
G01X1134725D01*
X1137875Y1072350D02*
G01X1134725D01*
X1127559Y1120866D02*
G01Y1117717D01*
X1123622Y1108268D02*
G01Y1105118D01*
X1129921Y1108268D02*
G01Y1105118D01*
X1148031Y1063386D02*
G01Y1060236D01*
X1166732Y1070866D02*
G01Y1067717D01*
X1071850Y1084646D02*
G01Y1081496D01*
X1078150Y1084646D02*
G01Y1081496D01*
X1062598Y1051575D02*
G01X1059449D01*
X1085039Y1020472D02*
G01X1088189D01*
X1085039Y1026772D02*
G01X1088189D01*
X1095276Y1157480D02*
G01Y1160630D01*
X1088976Y1157480D02*
G01Y1160630D01*
X1220079Y1259055D02*
G01X1216929D01*
X1220079Y1252756D02*
G01X1216929D01*
X1091339Y1105709D02*
G01X1088189D01*
X1045850Y1104075D02*
G01Y1100925D01*
X1052150Y1104075D02*
G01Y1100925D01*
X1282087Y1106299D02*
G01X1270669D01*
X1282087*
X1301772Y1107480D02*
G01X1313189D01*
X1301772*
X1113780Y1074213D02*
G01Y1062795D01*
Y1074213*
X1165354Y1064961D02*
G01Y1053543D01*
Y1064961*
X1090157Y1057677D02*
G01Y1046260D01*
Y1057677*
X1041929Y1057480D02*
G01X1040748D01*
Y1035433*
X1041929*
X1050984Y1057480D02*
G01X1052165D01*
Y1035433*
X1050984*
X1286220Y1084252D02*
G01Y1071654D01*
X1273622*
X1265748Y1079528D02*
G01Y1087008D01*
X1270866Y1092126*
X1278346*
X1302362D02*
G01X1314961D01*
Y1079528*
X1307087Y1071654D02*
G01X1299606D01*
X1294488Y1076772*
Y1084252*
X1067126Y1098819D02*
G01X1055709D01*
X1067126*
X1120669Y1105906D02*
G01X1109252D01*
X1120669*
X1072835Y1057677D02*
G01Y1046260D01*
Y1057677*
X1011417Y1137008D02*
G01Y1140157D01*
Y1146063D02*
G01Y1149213D01*
X1193307Y1098819D02*
G01X1190157D01*
X1187402D02*
G01X1184252D01*
X1241142Y1171457D02*
G01Y1174606D01*
X1200984Y1134843D02*
G01Y1137992D01*
X1190157Y1036220D02*
G01Y1039370D01*
X1124409Y1027559D02*
G01X1121260D01*
X1140157D02*
G01X1143307D01*
X1190157Y1045669D02*
G01Y1042520D01*
Y1049213D02*
G01Y1052362D01*
Y1026772D02*
G01Y1023622D01*
Y1033071D02*
G01Y1029921D01*
X1206890Y1025984D02*
G01Y1022835D01*
X1221075Y1060500D02*
G01X1217925D01*
X1319094Y1186220D02*
G01Y1189370D01*
X1257874Y1119685D02*
G01Y1116535D01*
Y1110236D02*
G01Y1113386D01*
X1079921Y1138189D02*
G01Y1141339D01*
X1257874Y1107087D02*
G01Y1103937D01*
X1196457Y1071654D02*
G01Y1074803D01*
X1066929Y1083858D02*
G01X1063780D01*
X1051181D02*
G01X1054331D01*
X1116142Y1047244D02*
G01Y1044094D01*
Y1059843D02*
G01Y1056693D01*
X1148031Y1066535D02*
G01Y1069685D01*
Y1057087D02*
G01Y1053937D01*
X1097835Y1105709D02*
G01X1094685D01*
X1114961Y1120866D02*
G01Y1117717D01*
X1094882Y1066535D02*
G01X1098031D01*
X1088583D02*
G01X1091732D01*
X1085433D02*
G01X1082283D01*
X1051925Y1150500D02*
G01X1055075D01*
X1057925Y1129000D02*
G01X1061075D01*
X1228740Y1072835D02*
G01X1231890D01*
X1235039Y1059843D02*
G01Y1062992D01*
X1011417Y1122047D02*
G01Y1118898D01*
Y1131102D02*
G01Y1127953D01*
X1284646Y1169094D02*
G01X1294094D01*
X1284646Y1178937D02*
G01X1294094D01*
X1284646Y1182087D02*
G01X1294094D01*
X1284646Y1191929D02*
G01X1294094D01*
X1046018Y1086442D02*
G01X1042869D01*
X1122244Y1189173D02*
G01X1087205D01*
Y1262008*
X1122244*
Y1189173*
X1207087Y1140748D02*
G01X1194488D01*
Y1160827*
X1207087*
Y1140748*
X1189961Y1189173D02*
G01X1154921D01*
Y1262008*
X1189961*
Y1189173*
X1305118Y1165748D02*
G01Y1172835D01*
X1324803*
Y1165748*
X1305118*
X1324016D02*
G01X1324803Y1166535D01*
X1323228Y1165748D02*
G01X1324803Y1167323D01*
X1322441Y1165748D02*
G01X1324803Y1168110D01*
X1321654Y1165748D02*
G01X1324803Y1168898D01*
X1320866Y1165748D02*
G01X1324803Y1169685D01*
X1165354Y1085236D02*
G01Y1073819D01*
Y1085236*
X1124803Y1054331D02*
G01Y1062992D01*
X1137402*
Y1054331*
X1124803*
X1136614D02*
G01X1137402Y1055118D01*
X1135827Y1054331D02*
G01X1137402Y1055906D01*
X1135039Y1054331D02*
G01X1137402Y1056693D01*
X1134252Y1054331D02*
G01X1137402Y1057480D01*
X1133465Y1054331D02*
G01X1137402Y1058268D01*
X1071654Y1072047D02*
G01X1073228D01*
Y1060236*
X1071654*
Y1072047*
X1073228Y1234646D02*
G01X1076378D01*
Y1216535D02*
G01X1073228D01*
X1137008Y1234646D02*
G01X1140157D01*
Y1216535D02*
G01X1137008D01*
X1204724Y1234646D02*
G01X1207874D01*
Y1216535D02*
G01X1204724D01*
X1116142Y1148031D02*
G01Y1151181D01*
X1109843Y1148031D02*
G01Y1151181D01*
X1222047Y1072835D02*
G01X1225197D01*
X1179800Y1079325D02*
G01Y1082475D01*
X1011417Y1155118D02*
G01Y1158268D01*
X1114961Y1124409D02*
G01Y1127559D01*
X1209843Y1071654D02*
G01Y1074803D01*
Y1059017D02*
G01Y1055868D01*
X1196457Y1068110D02*
G01Y1064961D01*
X1203700Y1079825D02*
G01Y1082975D01*
X1209843Y1065710D02*
G01Y1062561D01*
X1316339Y1107480D02*
G01X1327756D01*
X1316339*
X1048228Y1063386D02*
G01Y1074803D01*
Y1063386*
X1106890Y1105906D02*
G01Y1105512D01*
X1100591*
Y1105906*
X1106890*
X1241339Y1074409D02*
G01Y1077559D01*
X1235039Y1074409D02*
G01Y1077559D01*
X1273622Y1183465D02*
G01X1270472D01*
X1179979Y1062000D02*
G01Y1065150D01*
X1179800Y1059975D02*
G01Y1056825D01*
X1223925Y1060500D02*
G01X1227075D01*
X1215475Y1013900D02*
G01X1212325D01*
X1222175Y1017000D02*
G01X1219025D01*
X1220400Y1049725D02*
G01Y1052875D01*
X1011657Y1061557D02*
G01Y1068643D01*
X1031343*
Y1061557*
X1011657*
X1030555D02*
G01X1031343Y1062344D01*
X1029768Y1061557D02*
G01X1031343Y1063131D01*
X1028980Y1061557D02*
G01X1031343Y1063919D01*
X1028193Y1061557D02*
G01X1031343Y1064706D01*
X1027406Y1061557D02*
G01X1031343Y1065494D01*
X1196400Y1015225D02*
G01Y1018375D01*
X1187600Y1006575D02*
G01Y1003425D01*
X1067075Y1129000D02*
G01X1063925D01*
X1061075Y1150500D02*
G01X1057925D01*
X1297835Y1253469D02*
G01Y1248302D01*
Y1253469D02*
G01X1296224D01*
X1295687Y1253223*
X1295508Y1252977*
X1295329Y1252485*
Y1251993*
X1295508Y1251501*
X1295687Y1251255*
X1296224Y1251009*
X1297835*
X1296582D02*
G01X1295329Y1248302D01*
X1293719Y1253469D02*
G01Y1248302D01*
Y1253469D02*
G01X1291392D01*
X1293719Y1251009D02*
G01X1292287D01*
X1293719Y1248302D02*
G01X1291392D01*
X1289782Y1253469D02*
G01X1288350Y1248302D01*
X1286918Y1253469D02*
G01X1288350Y1248302D01*
X1191267Y843701D02*
G01X1191088Y844193D01*
X1190730Y844685*
X1190372Y844931*
X1189656*
X1189298Y844685*
X1188941Y844193*
X1188762Y843701*
X1188583Y842963*
Y841732*
X1188762Y840994*
X1188941Y840502*
X1189298Y840010*
X1189656Y839764*
X1190372*
X1190730Y840010*
X1191088Y840502*
X1191267Y840994*
Y841732*
X1190372D02*
G01X1191267D01*
X1192878Y844931D02*
G01Y839764D01*
Y844931D02*
G01X1195204D01*
X1192878Y842470D02*
G01X1194309D01*
X1192878Y839764D02*
G01X1195204D01*
X1196815Y844931D02*
G01Y839764D01*
Y844931D02*
G01X1198425D01*
X1198962Y844685*
X1199141Y844439*
X1199320Y843947*
Y843455*
X1199141Y842963*
X1198962Y842717*
X1198425Y842470*
X1196815*
X1198067D02*
G01X1199320Y839764D01*
X1200931Y844931D02*
G01Y839764D01*
Y844931D02*
G01X1202541D01*
X1203078Y844685*
X1203257Y844439*
X1203436Y843947*
Y843455*
X1203257Y842963*
X1203078Y842717*
X1202541Y842470*
X1200931D02*
G01X1202541D01*
X1203078Y842224*
X1203257Y841978*
X1203436Y841486*
Y840748*
X1203257Y840256*
X1203078Y840010*
X1202541Y839764*
X1200931*
X1205047Y844931D02*
G01Y839764D01*
Y844931D02*
G01X1207373D01*
X1205047Y842470D02*
G01X1206478D01*
X1205047Y839764D02*
G01X1207373D01*
X1208984Y844931D02*
G01Y839764D01*
Y844931D02*
G01X1210594D01*
X1211131Y844685*
X1211310Y844439*
X1211489Y843947*
Y843455*
X1211310Y842963*
X1211131Y842717*
X1210594Y842470*
X1208984*
X1210236D02*
G01X1211489Y839764D01*
X1213278Y843209D02*
G01X1213099Y842963D01*
Y842963D02*
G01X1213278Y842717D01*
X1213457Y842963*
X1213278Y843209*
Y840256D02*
G01X1213099Y840010D01*
Y840010D02*
G01X1213278Y839764D01*
X1213457Y840010*
X1213278Y840256*
X1188583Y872490D02*
G01Y867323D01*
Y872490D02*
G01X1189835D01*
X1190372Y872244*
X1190730Y871752*
X1190909Y871260*
X1191088Y870522*
Y869291*
X1190909Y868553*
X1190730Y868061*
X1190372Y867569*
X1189835Y867323*
X1188583*
X1194130Y872490D02*
G01X1192699Y867323D01*
X1194130Y872490D02*
G01X1195562Y867323D01*
X1193236Y869045D02*
G01X1195025D01*
X1198425Y872490D02*
G01Y867323D01*
X1197173Y872490D02*
G01X1199678D01*
X1201288D02*
G01Y867323D01*
Y872490D02*
G01X1203615D01*
X1201288Y870030D02*
G01X1202720D01*
X1201288Y867323D02*
G01X1203615D01*
X1205404Y870768D02*
G01X1205225Y870522D01*
X1205404Y870276*
X1205583Y870522*
X1205404Y870768*
Y867815D02*
G01X1205225Y867569D01*
X1205404Y867323*
X1205583Y867569*
X1205404Y867815*
X1141339Y872490D02*
G01Y867323D01*
Y872490D02*
G01X1142949D01*
X1143486Y872244*
X1143665Y871998*
X1143844Y871506*
Y871014*
X1143665Y870522*
X1143486Y870276*
X1142949Y870030*
X1141339*
X1142591D02*
G01X1143844Y867323D01*
X1145455Y872490D02*
G01Y867323D01*
Y872490D02*
G01X1147781D01*
X1145455Y870030D02*
G01X1146886D01*
X1145455Y867323D02*
G01X1147781D01*
X1149392Y872490D02*
G01X1150823Y867323D01*
X1152255Y872490D02*
G01X1150823Y867323D01*
X1154044Y870768D02*
G01X1153865Y870522D01*
X1154044Y870276*
X1154223Y870522*
X1154044Y870768*
Y867815D02*
G01X1153865Y867569D01*
X1154044Y867323*
X1154223Y867569*
X1154044Y867815*
X968110Y872490D02*
G01Y867323D01*
Y872490D02*
G01X969721D01*
X970258Y872244*
X970437Y871998*
X970616Y871506*
Y870768*
X970437Y870276*
X970258Y870030*
X969721Y869783*
X968110*
X973658Y872490D02*
G01X972226Y867323D01*
X973658Y872490D02*
G01X975089Y867323D01*
X972763Y869045D02*
G01X974553D01*
X976700Y872490D02*
G01Y867323D01*
Y872490D02*
G01X978311D01*
X978848Y872244*
X979026Y871998*
X979205Y871506*
Y871014*
X979026Y870522*
X978848Y870276*
X978311Y870030*
X976700*
X977953D02*
G01X979205Y867323D01*
X982069Y872490D02*
G01Y867323D01*
X980816Y872490D02*
G01X983321D01*
X989048D02*
G01Y867323D01*
Y872490D02*
G01X991553Y867323D01*
Y872490D02*
G01Y867323D01*
X994238Y872490D02*
G01X993880Y872244D01*
X993522Y871752*
X993343Y871260*
X993164Y870522*
Y869291*
X993343Y868553*
X993522Y868061*
X993880Y867569*
X994238Y867323*
X994953*
X995311Y867569*
X995669Y868061*
X995848Y868553*
X996027Y869291*
Y870522*
X995848Y871260*
X995669Y871752*
X995311Y872244*
X994953Y872490*
X994238*
X997817Y867815D02*
G01X997638Y867569D01*
X997817Y867323*
X997996Y867569*
X997817Y867815*
X999785Y870768D02*
G01X999606Y870522D01*
X999785Y870276*
X999964Y870522*
X999785Y870768*
Y867815D02*
G01X999606Y867569D01*
X999785Y867323*
X999964Y867569*
X999785Y867815*
X933071Y818898D02*
G03X933071Y818898I-3937D01*
X937008D02*
G03X937008Y818898I-7874D01*
X933071Y1267717D02*
G03X933071Y1267717I-3937D01*
X937008D02*
G03X937008Y1267717I-7874D01*
X1354331Y818898D02*
G03X1354331Y818898I-3937D01*
X1358268D02*
G03X1358268Y818898I-7874D01*
X1234055Y1238189D02*
G01X1283268D01*
Y1261811*
X1234055*
Y1238189*
G54D14*
X917323Y818898D02*
G01X940945D01*
X929134Y807087D02*
G01Y830709D01*
X917323Y1267717D02*
G01X940945D01*
X929134Y1255906D02*
G01Y1279528D01*
X1338583Y818898D02*
G01X1362205D01*
X1350394Y807087D02*
G01Y830709D01*
X920866Y820079D02*
G01X920906D01*
X920866D02*
G01X921063D01*
G54D17*
X1119488Y1258071D02*
G03X1119488Y1258071I-1181D01*
X1204331Y1156890D02*
G03X1204331Y1156890I-1181D01*
X1187205Y1258071D02*
G03X1187205Y1258071I-1181D01*
X1236417Y1240551D02*
G01X1280906D01*
Y1259449*
X1236417*
Y1240551*
X1237992Y1242126D02*
G01X1279331D01*
Y1257874*
X1237992*
Y1242126*
X1239567Y1243701D02*
G01X1277756D01*
Y1256299*
X1239567*
Y1243701*
X1241142Y1245276D02*
G01X1276181D01*
Y1254724*
X1241142*
Y1245276*
X1242717Y1246850D02*
G01X1274606D01*
Y1253150*
X1242717*
Y1246850*
X1244291Y1248425D02*
G01X1273031D01*
Y1251575*
X1244291*
Y1248425*
X1245472Y1249606D02*
G01X1271457D01*
Y1250394*
X1245472*
Y1249606*
G54D42*
X1268728Y1197791D02*
G01X1268841Y1198103D01*
X1269068Y1198416*
X1269296Y1198572*
X1269750*
X1269978Y1198416*
X1270205Y1198103*
X1270318Y1197791*
X1270432Y1197322*
Y1196541*
X1270318Y1196072*
X1270205Y1195760*
X1269978Y1195447*
X1269750Y1195291*
X1269296*
X1269068Y1195447*
X1268841Y1195760*
X1268728Y1196072*
X1267705Y1197947D02*
G01X1267478Y1198103D01*
X1267137Y1198572*
Y1195291*
X1285184Y1198185D02*
G01X1285297Y1198497D01*
X1285525Y1198810*
X1285752Y1198966*
X1286207*
X1286434Y1198810*
X1286661Y1198497*
X1286775Y1198185*
X1286888Y1197716*
Y1196935*
X1286775Y1196466*
X1286661Y1196153*
X1286434Y1195841*
X1286207Y1195685*
X1285752*
X1285525Y1195841*
X1285297Y1196153*
X1285184Y1196466*
X1284047Y1198185D02*
G01Y1198341D01*
X1283934Y1198653*
X1283820Y1198810*
X1283593Y1198966*
X1283138*
X1282911Y1198810*
X1282797Y1198653*
X1282684Y1198341*
Y1198028*
X1282797Y1197716*
X1283025Y1197247*
X1284161Y1195685*
X1282570*
X1034047Y1177968D02*
G01X1034359Y1177855D01*
X1034672Y1177627*
X1034828Y1177400*
Y1176945*
X1034672Y1176718*
X1034359Y1176491*
X1034047Y1176377*
X1033578Y1176264*
X1032797*
X1032328Y1176377*
X1032016Y1176491*
X1031703Y1176718*
X1031547Y1176945*
Y1177400*
X1031703Y1177627*
X1032016Y1177855*
X1032328Y1177968*
X1034828Y1179218D02*
G01Y1180468D01*
X1033578Y1179786*
Y1180127*
X1033422Y1180355*
X1033266Y1180468*
X1032797Y1180582*
X1032484*
X1032016Y1180468*
X1031703Y1180241*
X1031547Y1179900*
Y1179559*
X1031703Y1179218*
X1031859Y1179105*
X1032172Y1178991*
X1071389Y1161447D02*
G01X1071502Y1161759D01*
X1071730Y1162072*
X1071957Y1162228*
X1072411*
X1072639Y1162072*
X1072866Y1161759*
X1072980Y1161447*
X1073093Y1160978*
Y1160197*
X1072980Y1159728*
X1072866Y1159416*
X1072639Y1159103*
X1072411Y1158947*
X1071957*
X1071730Y1159103*
X1071502Y1159416*
X1071389Y1159728*
X1069230Y1162228D02*
G01X1070366Y1160041D01*
X1068661*
X1069230Y1162228D02*
G01Y1158947D01*
X1035289Y1154847D02*
G01X1035402Y1155159D01*
X1035630Y1155472*
X1035857Y1155628*
X1036311*
X1036539Y1155472*
X1036766Y1155159*
X1036880Y1154847*
X1036993Y1154378*
Y1153597*
X1036880Y1153128*
X1036766Y1152816*
X1036539Y1152503*
X1036311Y1152347*
X1035857*
X1035630Y1152503*
X1035402Y1152816*
X1035289Y1153128*
X1032789Y1155628D02*
G01X1033925D01*
X1034039Y1154222*
X1033925Y1154378*
X1033584Y1154534*
X1033243*
X1032902Y1154378*
X1032675Y1154066*
X1032561Y1153597*
X1032675Y1153284*
X1032789Y1152816*
X1033016Y1152503*
X1033357Y1152347*
X1033698*
X1034039Y1152503*
X1034152Y1152659*
X1034266Y1152972*
X1035275Y1147447D02*
G01X1035389Y1147759D01*
X1035616Y1148072*
X1035843Y1148228*
X1036298*
X1036525Y1148072*
X1036752Y1147759*
X1036866Y1147447*
X1036980Y1146978*
Y1146197*
X1036866Y1145728*
X1036752Y1145416*
X1036525Y1145103*
X1036298Y1144947*
X1035843*
X1035616Y1145103*
X1035389Y1145416*
X1035275Y1145728*
X1032889Y1147759D02*
G01X1033002Y1148072D01*
X1033343Y1148228*
X1033570*
X1033911Y1148072*
X1034139Y1147603*
X1034252Y1146822*
Y1146041*
X1034139Y1145416*
X1033911Y1145103*
X1033570Y1144947*
X1033457*
X1033116Y1145103*
X1032889Y1145416*
X1032775Y1145884*
Y1146041*
X1032889Y1146509*
X1033116Y1146822*
X1033457Y1146978*
X1033570*
X1033911Y1146822*
X1034139Y1146509*
X1034252Y1146041*
X1038727Y1133527D02*
G01X1038841Y1133840D01*
X1039068Y1134152*
X1039295Y1134308*
X1039750*
X1039977Y1134152*
X1040204Y1133840*
X1040318Y1133527*
X1040432Y1133058*
Y1132277*
X1040318Y1131808*
X1040204Y1131496*
X1039977Y1131183*
X1039750Y1131027*
X1039295*
X1039068Y1131183*
X1038841Y1131496*
X1038727Y1131808*
X1036113Y1134308D02*
G01X1037250Y1131027D01*
X1037704Y1134308D02*
G01X1036113D01*
X1038727Y1126441D02*
G01X1038841Y1126753D01*
X1039068Y1127066*
X1039295Y1127222*
X1039750*
X1039977Y1127066*
X1040204Y1126753*
X1040318Y1126441*
X1040432Y1125972*
Y1125191*
X1040318Y1124722*
X1040204Y1124409*
X1039977Y1124097*
X1039750Y1123941*
X1039295*
X1039068Y1124097*
X1038841Y1124409*
X1038727Y1124722*
X1037136Y1127222D02*
G01X1037477Y1127066D01*
X1037591Y1126753*
Y1126441*
X1037477Y1126128*
X1037250Y1125972*
X1036795Y1125816*
X1036454Y1125659*
X1036227Y1125347*
X1036113Y1125034*
Y1124566*
X1036227Y1124253*
X1036341Y1124097*
X1036682Y1123941*
X1037136*
X1037477Y1124097*
X1037591Y1124253*
X1037704Y1124566*
Y1125034*
X1037591Y1125347*
X1037363Y1125659*
X1037023Y1125816*
X1036568Y1125972*
X1036341Y1126128*
X1036227Y1126441*
Y1126753*
X1036341Y1127066*
X1036682Y1127222*
X1037136*
X1211570Y1173775D02*
G01X1211683Y1174088D01*
X1211911Y1174400*
X1212138Y1174556*
X1212593*
X1212820Y1174400*
X1213047Y1174088*
X1213161Y1173775*
X1213274Y1173306*
Y1172525*
X1213161Y1172056*
X1213047Y1171744*
X1212820Y1171431*
X1212593Y1171275*
X1212138*
X1211911Y1171431*
X1211683Y1171744*
X1211570Y1172056*
X1210547Y1173931D02*
G01X1210320Y1174088D01*
X1209979Y1174556*
Y1171275*
X1207365Y1174556D02*
G01X1208502Y1171275D01*
X1208956Y1174556D02*
G01X1207365D01*
X1220232Y1095517D02*
G01X1220544Y1095403D01*
X1220857Y1095176*
X1221013Y1094949*
Y1094494*
X1220857Y1094267*
X1220544Y1094040*
X1220232Y1093926*
X1219763Y1093812*
X1218982*
X1218513Y1093926*
X1218201Y1094040*
X1217888Y1094267*
X1217732Y1094494*
Y1094949*
X1217888Y1095176*
X1218201Y1095403*
X1218513Y1095517*
X1220388Y1096540D02*
G01X1220544Y1096767D01*
X1221013Y1097108*
X1217732*
X1221013Y1098699D02*
G01X1220857Y1098358D01*
X1220544Y1098244*
X1220232*
X1219919Y1098358*
X1219763Y1098585*
X1219607Y1099040*
X1219451Y1099380*
X1219138Y1099608*
X1218826Y1099721*
X1218357*
X1218044Y1099608*
X1217888Y1099494*
X1217732Y1099153*
Y1098699*
X1217888Y1098358*
X1218044Y1098244*
X1218357Y1098130*
X1218826*
X1219138Y1098244*
X1219451Y1098471*
X1219607Y1098812*
X1219763Y1099267*
X1219919Y1099494*
X1220232Y1099608*
X1220544*
X1220857Y1099494*
X1221013Y1099153*
Y1098699*
X1208224Y1097345D02*
G01X1208537Y1097232D01*
X1208849Y1097004*
X1209005Y1096777*
Y1096323*
X1208849Y1096095*
X1208537Y1095868*
X1208224Y1095754*
X1207755Y1095641*
X1206974*
X1206505Y1095754*
X1206193Y1095868*
X1205880Y1096095*
X1205724Y1096323*
Y1096777*
X1205880Y1097004*
X1206193Y1097232*
X1206505Y1097345*
X1208380Y1098368D02*
G01X1208537Y1098595D01*
X1209005Y1098936*
X1205724*
X1207912Y1101436D02*
G01X1207443Y1101323D01*
X1207130Y1101095*
X1206974Y1100754*
Y1100641*
X1207130Y1100300*
X1207443Y1100073*
X1207912Y1099959*
X1208068*
X1208537Y1100073*
X1208849Y1100300*
X1209005Y1100641*
Y1100754*
X1208849Y1101095*
X1208537Y1101323*
X1207912Y1101436*
X1207130*
X1206349Y1101323*
X1205880Y1101095*
X1205724Y1100754*
Y1100527*
X1205880Y1100186*
X1206193Y1100073*
X1178647Y1153361D02*
G01X1178959Y1153248D01*
X1179272Y1153020*
X1179428Y1152793*
Y1152339*
X1179272Y1152111*
X1178959Y1151884*
X1178647Y1151770*
X1178178Y1151657*
X1177397*
X1176928Y1151770*
X1176616Y1151884*
X1176303Y1152111*
X1176147Y1152339*
Y1152793*
X1176303Y1153020*
X1176616Y1153248*
X1176928Y1153361*
X1178647Y1154498D02*
G01X1178803D01*
X1179116Y1154611*
X1179272Y1154725*
X1179428Y1154952*
Y1155407*
X1179272Y1155634*
X1179116Y1155748*
X1178803Y1155861*
X1178491*
X1178178Y1155748*
X1177709Y1155520*
X1176147Y1154384*
Y1155975*
X1179428Y1157680D02*
G01X1179272Y1157339D01*
X1178803Y1157111*
X1178022Y1156998*
X1177553*
X1176772Y1157111*
X1176303Y1157339*
X1176147Y1157680*
Y1157907*
X1176303Y1158248*
X1176772Y1158475*
X1177553Y1158589*
X1178022*
X1178803Y1158475*
X1179272Y1158248*
X1179428Y1157907*
Y1157680*
X1161374Y1036344D02*
G01X1161686Y1036230D01*
X1161999Y1036003*
X1162155Y1035776*
Y1035321*
X1161999Y1035094*
X1161686Y1034867*
X1161374Y1034753*
X1160905Y1034639*
X1160124*
X1159655Y1034753*
X1159342Y1034867*
X1159030Y1035094*
X1158874Y1035321*
Y1035776*
X1159030Y1036003*
X1159342Y1036230*
X1159655Y1036344*
X1161374Y1037480D02*
G01X1161530D01*
X1161842Y1037594*
X1161999Y1037708*
X1162155Y1037935*
Y1038389*
X1161999Y1038617*
X1161842Y1038730*
X1161530Y1038844*
X1161217*
X1160905Y1038730*
X1160436Y1038503*
X1158874Y1037367*
Y1038958*
X1161374Y1040094D02*
G01X1161530D01*
X1161842Y1040208*
X1161999Y1040321*
X1162155Y1040549*
Y1041003*
X1161999Y1041230*
X1161842Y1041344*
X1161530Y1041458*
X1161217*
X1160905Y1041344*
X1160436Y1041117*
X1158874Y1039980*
Y1041571*
X1148972Y1036147D02*
G01X1149285Y1036034D01*
X1149597Y1035806*
X1149753Y1035579*
Y1035124*
X1149597Y1034897*
X1149285Y1034670*
X1148972Y1034556*
X1148503Y1034443*
X1147722*
X1147253Y1034556*
X1146941Y1034670*
X1146628Y1034897*
X1146472Y1035124*
Y1035579*
X1146628Y1035806*
X1146941Y1036034*
X1147253Y1036147*
X1148972Y1037284D02*
G01X1149128D01*
X1149441Y1037397*
X1149597Y1037511*
X1149753Y1037738*
Y1038193*
X1149597Y1038420*
X1149441Y1038534*
X1149128Y1038647*
X1148816*
X1148503Y1038534*
X1148035Y1038306*
X1146472Y1037170*
Y1038761*
X1149753Y1040011D02*
G01Y1041261D01*
X1148503Y1040579*
Y1040920*
X1148347Y1041147*
X1148191Y1041261*
X1147722Y1041374*
X1147410*
X1146941Y1041261*
X1146628Y1041034*
X1146472Y1040693*
Y1040352*
X1146628Y1040011*
X1146785Y1039897*
X1147097Y1039784*
X1155074Y1036287D02*
G01X1155387Y1036174D01*
X1155699Y1035946*
X1155856Y1035719*
Y1035264*
X1155699Y1035037*
X1155387Y1034810*
X1155074Y1034696*
X1154606Y1034583*
X1153824*
X1153356Y1034696*
X1153043Y1034810*
X1152731Y1035037*
X1152574Y1035264*
Y1035719*
X1152731Y1035946*
X1153043Y1036174*
X1153356Y1036287*
X1155074Y1037424D02*
G01X1155231D01*
X1155543Y1037537*
X1155699Y1037651*
X1155856Y1037878*
Y1038333*
X1155699Y1038560*
X1155543Y1038674*
X1155231Y1038787*
X1154918*
X1154606Y1038674*
X1154137Y1038446*
X1152574Y1037310*
Y1038901*
X1155856Y1041060D02*
G01X1153668Y1039924D01*
Y1041628*
X1155856Y1041060D02*
G01X1152574D01*
X1138547Y1036205D02*
G01X1138859Y1036091D01*
X1139172Y1035864*
X1139328Y1035636*
Y1035182*
X1139172Y1034955*
X1138859Y1034727*
X1138547Y1034614*
X1138078Y1034500*
X1137297*
X1136828Y1034614*
X1136516Y1034727*
X1136203Y1034955*
X1136047Y1035182*
Y1035636*
X1136203Y1035864*
X1136516Y1036091*
X1136828Y1036205*
X1138547Y1037341D02*
G01X1138703D01*
X1139016Y1037455*
X1139172Y1037568*
X1139328Y1037795*
Y1038250*
X1139172Y1038477*
X1139016Y1038591*
X1138703Y1038705*
X1138391*
X1138078Y1038591*
X1137609Y1038364*
X1136047Y1037227*
Y1038818*
X1139328Y1041318D02*
G01Y1040182D01*
X1137922Y1040068*
X1138078Y1040182*
X1138234Y1040523*
Y1040864*
X1138078Y1041205*
X1137766Y1041432*
X1137297Y1041545*
X1136984Y1041432*
X1136516Y1041318*
X1136203Y1041091*
X1136047Y1040750*
Y1040409*
X1136203Y1040068*
X1136359Y1039955*
X1136672Y1039841*
X1129878Y1036401D02*
G01X1130190Y1036287D01*
X1130503Y1036060*
X1130659Y1035833*
Y1035378*
X1130503Y1035151*
X1130190Y1034924*
X1129878Y1034810*
X1129409Y1034696*
X1128628*
X1128159Y1034810*
X1127846Y1034924*
X1127534Y1035151*
X1127378Y1035378*
Y1035833*
X1127534Y1036060*
X1127846Y1036287*
X1128159Y1036401*
X1129878Y1037537D02*
G01X1130034D01*
X1130346Y1037651*
X1130503Y1037764*
X1130659Y1037992*
Y1038446*
X1130503Y1038674*
X1130346Y1038787*
X1130034Y1038901*
X1129721*
X1129409Y1038787*
X1128940Y1038560*
X1127378Y1037424*
Y1039014*
X1130190Y1041401D02*
G01X1130503Y1041287D01*
X1130659Y1040946*
Y1040719*
X1130503Y1040378*
X1130034Y1040151*
X1129253Y1040037*
X1128471*
X1127846Y1040151*
X1127534Y1040378*
X1127378Y1040719*
Y1040833*
X1127534Y1041174*
X1127846Y1041401*
X1128315Y1041514*
X1128471*
X1128940Y1041401*
X1129253Y1041174*
X1129409Y1040833*
Y1040719*
X1129253Y1040378*
X1128940Y1040151*
X1128471Y1040037*
X1167673Y1036344D02*
G01X1167985Y1036230D01*
X1168298Y1036003*
X1168454Y1035776*
Y1035321*
X1168298Y1035094*
X1167985Y1034867*
X1167673Y1034753*
X1167204Y1034639*
X1166423*
X1165954Y1034753*
X1165642Y1034867*
X1165329Y1035094*
X1165173Y1035321*
Y1035776*
X1165329Y1036003*
X1165642Y1036230*
X1165954Y1036344*
X1167673Y1037480D02*
G01X1167829D01*
X1168142Y1037594*
X1168298Y1037708*
X1168454Y1037935*
Y1038389*
X1168298Y1038617*
X1168142Y1038730*
X1167829Y1038844*
X1167517*
X1167204Y1038730*
X1166735Y1038503*
X1165173Y1037367*
Y1038958*
X1168454Y1041571D02*
G01X1165173Y1040435D01*
X1168454Y1039980D02*
G01Y1041571D01*
X1007547Y1041261D02*
G01X1007859Y1041148D01*
X1008172Y1040920*
X1008328Y1040693*
Y1040239*
X1008172Y1040011*
X1007859Y1039784*
X1007547Y1039670*
X1007078Y1039557*
X1006297*
X1005828Y1039670*
X1005516Y1039784*
X1005203Y1040011*
X1005047Y1040239*
Y1040693*
X1005203Y1040920*
X1005516Y1041148*
X1005828Y1041261*
X1007547Y1042398D02*
G01X1007703D01*
X1008016Y1042511*
X1008172Y1042625*
X1008328Y1042852*
Y1043307*
X1008172Y1043534*
X1008016Y1043648*
X1007703Y1043761*
X1007391*
X1007078Y1043648*
X1006609Y1043420*
X1005047Y1042284*
Y1043875*
X1008328Y1045466D02*
G01X1008172Y1045125D01*
X1007859Y1045011*
X1007547*
X1007234Y1045125*
X1007078Y1045352*
X1006922Y1045807*
X1006766Y1046148*
X1006453Y1046375*
X1006141Y1046489*
X1005672*
X1005359Y1046375*
X1005203Y1046261*
X1005047Y1045920*
Y1045466*
X1005203Y1045125*
X1005359Y1045011*
X1005672Y1044898*
X1006141*
X1006453Y1045011*
X1006766Y1045239*
X1006922Y1045580*
X1007078Y1046034*
X1007234Y1046261*
X1007547Y1046375*
X1007859*
X1008172Y1046261*
X1008328Y1045920*
Y1045466*
X1020547Y1028718D02*
G01X1020859Y1028605D01*
X1021172Y1028377*
X1021328Y1028150*
Y1027695*
X1021172Y1027468*
X1020859Y1027241*
X1020547Y1027127*
X1020078Y1027014*
X1019297*
X1018828Y1027127*
X1018516Y1027241*
X1018203Y1027468*
X1018047Y1027695*
Y1028150*
X1018203Y1028377*
X1018516Y1028605*
X1018828Y1028718*
X1020547Y1029855D02*
G01X1020703D01*
X1021016Y1029968*
X1021172Y1030082*
X1021328Y1030309*
Y1030764*
X1021172Y1030991*
X1021016Y1031105*
X1020703Y1031218*
X1020391*
X1020078Y1031105*
X1019609Y1030877*
X1018047Y1029741*
Y1031332*
X1020234Y1033832D02*
G01X1019766Y1033718D01*
X1019453Y1033491*
X1019297Y1033150*
Y1033036*
X1019453Y1032695*
X1019766Y1032468*
X1020234Y1032355*
X1020391*
X1020859Y1032468*
X1021172Y1032695*
X1021328Y1033036*
Y1033150*
X1021172Y1033491*
X1020859Y1033718*
X1020234Y1033832*
X1019453*
X1018672Y1033718*
X1018203Y1033491*
X1018047Y1033150*
Y1032923*
X1018203Y1032582*
X1018516Y1032468*
X1026846Y1028661D02*
G01X1027159Y1028548D01*
X1027471Y1028320*
X1027627Y1028093*
Y1027639*
X1027471Y1027411*
X1027159Y1027184*
X1026846Y1027070*
X1026377Y1026957*
X1025596*
X1025127Y1027070*
X1024815Y1027184*
X1024502Y1027411*
X1024346Y1027639*
Y1028093*
X1024502Y1028320*
X1024815Y1028548*
X1025127Y1028661*
X1027627Y1029911D02*
G01Y1031161D01*
X1026377Y1030480*
Y1030820*
X1026221Y1031048*
X1026065Y1031161*
X1025596Y1031275*
X1025284*
X1024815Y1031161*
X1024502Y1030934*
X1024346Y1030593*
Y1030252*
X1024502Y1029911*
X1024659Y1029798*
X1024971Y1029684*
X1027627Y1032980D02*
G01X1027471Y1032639D01*
X1027002Y1032411*
X1026221Y1032298*
X1025752*
X1024971Y1032411*
X1024502Y1032639*
X1024346Y1032980*
Y1033207*
X1024502Y1033548*
X1024971Y1033775*
X1025752Y1033889*
X1026221*
X1027002Y1033775*
X1027471Y1033548*
X1027627Y1033207*
Y1032980*
X1033145Y1028779D02*
G01X1033458Y1028665D01*
X1033770Y1028438*
X1033927Y1028211*
Y1027756*
X1033770Y1027529*
X1033458Y1027302*
X1033145Y1027188*
X1032677Y1027074*
X1031895*
X1031427Y1027188*
X1031114Y1027302*
X1030802Y1027529*
X1030645Y1027756*
Y1028211*
X1030802Y1028438*
X1031114Y1028665*
X1031427Y1028779*
X1033927Y1030029D02*
G01Y1031279D01*
X1032677Y1030597*
Y1030938*
X1032520Y1031165*
X1032364Y1031279*
X1031895Y1031393*
X1031583*
X1031114Y1031279*
X1030802Y1031052*
X1030645Y1030711*
Y1030370*
X1030802Y1030029*
X1030958Y1029915*
X1031270Y1029802*
X1033302Y1032415D02*
G01X1033458Y1032643D01*
X1033927Y1032984*
X1030645*
X1305782Y1150744D02*
G01X1305896Y1151056D01*
X1306123Y1151369*
X1306350Y1151525*
X1306805*
X1307032Y1151369*
X1307259Y1151056*
X1307373Y1150744*
X1307486Y1150275*
Y1149494*
X1307373Y1149025*
X1307259Y1148712*
X1307032Y1148400*
X1306805Y1148244*
X1306350*
X1306123Y1148400*
X1305896Y1148712*
X1305782Y1149025*
X1304532Y1151525D02*
G01X1303282D01*
X1303964Y1150275*
X1303623*
X1303396Y1150119*
X1303282Y1149962*
X1303168Y1149494*
Y1149181*
X1303282Y1148712*
X1303509Y1148400*
X1303850Y1148244*
X1304191*
X1304532Y1148400*
X1304646Y1148556*
X1304759Y1148869*
X1301918Y1151525D02*
G01X1300668D01*
X1301350Y1150275*
X1301009*
X1300782Y1150119*
X1300668Y1149962*
X1300555Y1149494*
Y1149181*
X1300668Y1148712*
X1300896Y1148400*
X1301236Y1148244*
X1301577*
X1301918Y1148400*
X1302032Y1148556*
X1302146Y1148869*
X1249247Y1061918D02*
G01X1249559Y1061805D01*
X1249872Y1061577*
X1250028Y1061350*
Y1060895*
X1249872Y1060668*
X1249559Y1060441*
X1249247Y1060327*
X1248778Y1060214*
X1247997*
X1247528Y1060327*
X1247216Y1060441*
X1246903Y1060668*
X1246747Y1060895*
Y1061350*
X1246903Y1061577*
X1247216Y1061805*
X1247528Y1061918*
X1248934Y1064418D02*
G01X1248466Y1064305D01*
X1248153Y1064077*
X1247997Y1063736*
Y1063623*
X1248153Y1063282*
X1248466Y1063055*
X1248934Y1062941*
X1249091*
X1249559Y1063055*
X1249872Y1063282*
X1250028Y1063623*
Y1063736*
X1249872Y1064077*
X1249559Y1064305*
X1248934Y1064418*
X1248153*
X1247372Y1064305*
X1246903Y1064077*
X1246747Y1063736*
Y1063509*
X1246903Y1063168*
X1247216Y1063055*
X1249247Y1065555D02*
G01X1249403D01*
X1249716Y1065668*
X1249872Y1065782*
X1250028Y1066009*
Y1066464*
X1249872Y1066691*
X1249716Y1066805*
X1249403Y1066918*
X1249091*
X1248778Y1066805*
X1248309Y1066577*
X1246747Y1065441*
Y1067032*
X1151001Y1107240D02*
G01X1151114Y1107552D01*
X1151342Y1107865*
X1151569Y1108021*
X1152023*
X1152251Y1107865*
X1152478Y1107552*
X1152592Y1107240*
X1152705Y1106771*
Y1105990*
X1152592Y1105521*
X1152478Y1105209*
X1152251Y1104896*
X1152023Y1104740*
X1151569*
X1151342Y1104896*
X1151114Y1105209*
X1151001Y1105521*
X1149751Y1108021D02*
G01X1148501D01*
X1149183Y1106771*
X1148842*
X1148614Y1106615*
X1148501Y1106459*
X1148387Y1105990*
Y1105677*
X1148501Y1105209*
X1148728Y1104896*
X1149069Y1104740*
X1149410*
X1149751Y1104896*
X1149864Y1105052*
X1149978Y1105365*
X1146001Y1107552D02*
G01X1146114Y1107865D01*
X1146455Y1108021*
X1146683*
X1147023Y1107865*
X1147251Y1107396*
X1147364Y1106615*
Y1105834*
X1147251Y1105209*
X1147023Y1104896*
X1146683Y1104740*
X1146569*
X1146228Y1104896*
X1146001Y1105209*
X1145887Y1105677*
Y1105834*
X1146001Y1106302*
X1146228Y1106615*
X1146569Y1106771*
X1146683*
X1147023Y1106615*
X1147251Y1106302*
X1147364Y1105834*
X1082039Y1167647D02*
G01X1082152Y1167959D01*
X1082380Y1168272*
X1082607Y1168428*
X1083061*
X1083289Y1168272*
X1083516Y1167959*
X1083630Y1167647*
X1083743Y1167178*
Y1166397*
X1083630Y1165928*
X1083516Y1165616*
X1083289Y1165303*
X1083061Y1165147*
X1082607*
X1082380Y1165303*
X1082152Y1165616*
X1082039Y1165928*
X1080789Y1168428D02*
G01X1079539D01*
X1080220Y1167178*
X1079880*
X1079652Y1167022*
X1079539Y1166866*
X1079425Y1166397*
Y1166084*
X1079539Y1165616*
X1079766Y1165303*
X1080107Y1165147*
X1080448*
X1080789Y1165303*
X1080902Y1165459*
X1081016Y1165772*
X1076811Y1168428D02*
G01X1077948Y1165147D01*
X1078402Y1168428D02*
G01X1076811D01*
X1287948Y1113903D02*
G01X1288261Y1113789D01*
X1288573Y1113562*
X1288730Y1113335*
Y1112880*
X1288573Y1112653*
X1288261Y1112426*
X1287948Y1112312*
X1287480Y1112199*
X1286698*
X1286230Y1112312*
X1285917Y1112426*
X1285605Y1112653*
X1285448Y1112880*
Y1113335*
X1285605Y1113562*
X1285917Y1113789*
X1286230Y1113903*
X1288730Y1115153D02*
G01Y1116403D01*
X1287480Y1115721*
Y1116062*
X1287323Y1116289*
X1287167Y1116403*
X1286698Y1116517*
X1286386*
X1285917Y1116403*
X1285605Y1116176*
X1285448Y1115835*
Y1115494*
X1285605Y1115153*
X1285761Y1115039*
X1286073Y1114926*
X1288730Y1118108D02*
G01X1288573Y1117767D01*
X1288261Y1117653*
X1287948*
X1287636Y1117767*
X1287480Y1117994*
X1287323Y1118449*
X1287167Y1118789*
X1286855Y1119017*
X1286542Y1119130*
X1286073*
X1285761Y1119017*
X1285605Y1118903*
X1285448Y1118562*
Y1118108*
X1285605Y1117767*
X1285761Y1117653*
X1286073Y1117539*
X1286542*
X1286855Y1117653*
X1287167Y1117880*
X1287323Y1118221*
X1287480Y1118676*
X1287636Y1118903*
X1287948Y1119017*
X1288261*
X1288573Y1118903*
X1288730Y1118562*
Y1118108*
X1251095Y1087447D02*
G01X1251209Y1087759D01*
X1251436Y1088072*
X1251664Y1088228*
X1252118*
X1252345Y1088072*
X1252573Y1087759*
X1252686Y1087447*
X1252800Y1086978*
Y1086197*
X1252686Y1085728*
X1252573Y1085416*
X1252345Y1085103*
X1252118Y1084947*
X1251664*
X1251436Y1085103*
X1251209Y1085416*
X1251095Y1085728*
X1248936Y1088228D02*
G01X1250073Y1086041D01*
X1248368*
X1248936Y1088228D02*
G01Y1084947D01*
X1246664Y1088228D02*
G01X1247005Y1088072D01*
X1247232Y1087603*
X1247345Y1086822*
Y1086353*
X1247232Y1085572*
X1247005Y1085103*
X1246664Y1084947*
X1246436*
X1246095Y1085103*
X1245868Y1085572*
X1245755Y1086353*
Y1086822*
X1245868Y1087603*
X1246095Y1088072*
X1246436Y1088228*
X1246664*
X1050547Y1210697D02*
G01X1050859Y1210583D01*
X1051172Y1210356*
X1051328Y1210128*
Y1209674*
X1051172Y1209447*
X1050859Y1209219*
X1050547Y1209106*
X1050078Y1208992*
X1049297*
X1048828Y1209106*
X1048516Y1209219*
X1048203Y1209447*
X1048047Y1209674*
Y1210128*
X1048203Y1210356*
X1048516Y1210583*
X1048828Y1210697*
X1051328Y1212856D02*
G01X1049141Y1211719D01*
Y1213424*
X1051328Y1212856D02*
G01X1048047D01*
X1050547Y1214560D02*
G01X1050703D01*
X1051016Y1214674*
X1051172Y1214788*
X1051328Y1215015*
Y1215469*
X1051172Y1215697*
X1051016Y1215810*
X1050703Y1215924*
X1050391*
X1050078Y1215810*
X1049609Y1215583*
X1048047Y1214447*
Y1216038*
X1151171Y1123382D02*
G01X1151285Y1123694D01*
X1151512Y1124007*
X1151739Y1124163*
X1152194*
X1152421Y1124007*
X1152648Y1123694*
X1152762Y1123382*
X1152876Y1122913*
Y1122132*
X1152762Y1121663*
X1152648Y1121350*
X1152421Y1121038*
X1152194Y1120882*
X1151739*
X1151512Y1121038*
X1151285Y1121350*
X1151171Y1121663*
X1149012Y1124163D02*
G01X1150148Y1121975D01*
X1148444*
X1149012Y1124163D02*
G01Y1120882D01*
X1146285Y1124163D02*
G01X1147421Y1121975D01*
X1145717*
X1146285Y1124163D02*
G01Y1120882D01*
X1081852Y1152147D02*
G01X1081966Y1152459D01*
X1082193Y1152772*
X1082420Y1152928*
X1082875*
X1083102Y1152772*
X1083330Y1152459*
X1083443Y1152147*
X1083557Y1151678*
Y1150897*
X1083443Y1150428*
X1083330Y1150116*
X1083102Y1149803*
X1082875Y1149647*
X1082420*
X1082193Y1149803*
X1081966Y1150116*
X1081852Y1150428*
X1079693Y1152928D02*
G01X1080830Y1150741D01*
X1079125*
X1079693Y1152928D02*
G01Y1149647D01*
X1076625Y1152928D02*
G01X1077761D01*
X1077875Y1151522*
X1077761Y1151678*
X1077420Y1151834*
X1077080*
X1076739Y1151678*
X1076511Y1151366*
X1076398Y1150897*
X1076511Y1150584*
X1076625Y1150116*
X1076852Y1149803*
X1077193Y1149647*
X1077534*
X1077875Y1149803*
X1077989Y1149959*
X1078102Y1150272*
X1151747Y1165561D02*
G01X1152059Y1165448D01*
X1152372Y1165220*
X1152528Y1164993*
Y1164539*
X1152372Y1164311*
X1152059Y1164084*
X1151747Y1163970*
X1151278Y1163857*
X1150497*
X1150028Y1163970*
X1149716Y1164084*
X1149403Y1164311*
X1149247Y1164539*
Y1164993*
X1149403Y1165220*
X1149716Y1165448*
X1150028Y1165561*
X1152528Y1167720D02*
G01X1150341Y1166584D01*
Y1168289*
X1152528Y1167720D02*
G01X1149247D01*
X1152059Y1170675D02*
G01X1152372Y1170561D01*
X1152528Y1170220*
Y1169993*
X1152372Y1169652*
X1151903Y1169425*
X1151122Y1169311*
X1150341*
X1149716Y1169425*
X1149403Y1169652*
X1149247Y1169993*
Y1170107*
X1149403Y1170448*
X1149716Y1170675*
X1150184Y1170789*
X1150341*
X1150809Y1170675*
X1151122Y1170448*
X1151278Y1170107*
Y1169993*
X1151122Y1169652*
X1150809Y1169425*
X1150341Y1169311*
X1099647Y1150405D02*
G01X1099959Y1150291D01*
X1100272Y1150064*
X1100428Y1149836*
Y1149382*
X1100272Y1149155*
X1099959Y1148927*
X1099647Y1148814*
X1099178Y1148700*
X1098397*
X1097928Y1148814*
X1097616Y1148927*
X1097303Y1149155*
X1097147Y1149382*
Y1149836*
X1097303Y1150064*
X1097616Y1150291*
X1097928Y1150405*
X1100428Y1152564D02*
G01X1098241Y1151427D01*
Y1153132*
X1100428Y1152564D02*
G01X1097147D01*
X1100428Y1154723D02*
G01X1100272Y1154382D01*
X1099959Y1154268*
X1099647*
X1099334Y1154382*
X1099178Y1154609*
X1099022Y1155064*
X1098866Y1155405*
X1098553Y1155632*
X1098241Y1155745*
X1097772*
X1097459Y1155632*
X1097303Y1155518*
X1097147Y1155177*
Y1154723*
X1097303Y1154382*
X1097459Y1154268*
X1097772Y1154155*
X1098241*
X1098553Y1154268*
X1098866Y1154495*
X1099022Y1154836*
X1099178Y1155291*
X1099334Y1155518*
X1099647Y1155632*
X1099959*
X1100272Y1155518*
X1100428Y1155177*
Y1154723*
X1140547Y1157561D02*
G01X1140859Y1157448D01*
X1141172Y1157220*
X1141328Y1156993*
Y1156539*
X1141172Y1156311*
X1140859Y1156084*
X1140547Y1155970*
X1140078Y1155857*
X1139297*
X1138828Y1155970*
X1138516Y1156084*
X1138203Y1156311*
X1138047Y1156539*
Y1156993*
X1138203Y1157220*
X1138516Y1157448*
X1138828Y1157561*
X1141328Y1159720D02*
G01X1139141Y1158584D01*
Y1160289*
X1141328Y1159720D02*
G01X1138047D01*
X1140234Y1162789D02*
G01X1139766Y1162675D01*
X1139453Y1162448*
X1139297Y1162107*
Y1161993*
X1139453Y1161652*
X1139766Y1161425*
X1140234Y1161311*
X1140391*
X1140859Y1161425*
X1141172Y1161652*
X1141328Y1161993*
Y1162107*
X1141172Y1162448*
X1140859Y1162675*
X1140234Y1162789*
X1139453*
X1138672Y1162675*
X1138203Y1162448*
X1138047Y1162107*
Y1161880*
X1138203Y1161539*
X1138516Y1161425*
X1079855Y1134799D02*
G01X1079968Y1135111D01*
X1080195Y1135424*
X1080423Y1135580*
X1080877*
X1081105Y1135424*
X1081332Y1135111*
X1081445Y1134799*
X1081559Y1134330*
Y1133549*
X1081445Y1133080*
X1081332Y1132768*
X1081105Y1132455*
X1080877Y1132299*
X1080423*
X1080195Y1132455*
X1079968Y1132768*
X1079855Y1133080*
X1077355Y1135580D02*
G01X1078491D01*
X1078605Y1134174*
X1078491Y1134330*
X1078150Y1134486*
X1077809*
X1077468Y1134330*
X1077241Y1134018*
X1077127Y1133549*
X1077241Y1133236*
X1077355Y1132768*
X1077582Y1132455*
X1077923Y1132299*
X1078264*
X1078605Y1132455*
X1078718Y1132611*
X1078832Y1132924*
X1075423Y1135580D02*
G01X1075764Y1135424D01*
X1075991Y1134955*
X1076105Y1134174*
Y1133705*
X1075991Y1132924*
X1075764Y1132455*
X1075423Y1132299*
X1075195*
X1074855Y1132455*
X1074627Y1132924*
X1074514Y1133705*
Y1134174*
X1074627Y1134955*
X1074855Y1135424*
X1075195Y1135580*
X1075423*
X1247177Y1100153D02*
G01X1247291Y1100466D01*
X1247518Y1100778*
X1247746Y1100934*
X1248200*
X1248427Y1100778*
X1248655Y1100466*
X1248768Y1100153*
X1248882Y1099684*
Y1098903*
X1248768Y1098434*
X1248655Y1098122*
X1248427Y1097809*
X1248200Y1097653*
X1247746*
X1247518Y1097809*
X1247291Y1098122*
X1247177Y1098434*
X1244677Y1100934D02*
G01X1245814D01*
X1245927Y1099528*
X1245814Y1099684*
X1245473Y1099841*
X1245132*
X1244791Y1099684*
X1244564Y1099372*
X1244450Y1098903*
X1244564Y1098591*
X1244677Y1098122*
X1244905Y1097809*
X1245246Y1097653*
X1245586*
X1245927Y1097809*
X1246041Y1097966*
X1246155Y1098278*
X1243314Y1100153D02*
G01Y1100309D01*
X1243200Y1100622*
X1243086Y1100778*
X1242859Y1100934*
X1242405*
X1242177Y1100778*
X1242064Y1100622*
X1241950Y1100309*
Y1099997*
X1242064Y1099684*
X1242291Y1099216*
X1243427Y1097653*
X1241836*
X1126747Y1155305D02*
G01X1127059Y1155191D01*
X1127372Y1154964*
X1127528Y1154736*
Y1154282*
X1127372Y1154055*
X1127059Y1153827*
X1126747Y1153714*
X1126278Y1153600*
X1125497*
X1125028Y1153714*
X1124716Y1153827*
X1124403Y1154055*
X1124247Y1154282*
Y1154736*
X1124403Y1154964*
X1124716Y1155191*
X1125028Y1155305*
X1127528Y1157805D02*
G01Y1156668D01*
X1126122Y1156555*
X1126278Y1156668*
X1126434Y1157009*
Y1157350*
X1126278Y1157691*
X1125966Y1157918*
X1125497Y1158032*
X1125184Y1157918*
X1124716Y1157805*
X1124403Y1157577*
X1124247Y1157236*
Y1156895*
X1124403Y1156555*
X1124559Y1156441*
X1124872Y1156327*
X1127528Y1159282D02*
G01Y1160532D01*
X1126278Y1159850*
Y1160191*
X1126122Y1160418*
X1125966Y1160532*
X1125497Y1160645*
X1125184*
X1124716Y1160532*
X1124403Y1160305*
X1124247Y1159964*
Y1159623*
X1124403Y1159282*
X1124559Y1159168*
X1124872Y1159055*
X1097147Y1088748D02*
G01X1097459Y1088634D01*
X1097772Y1088407*
X1097928Y1088180*
Y1087725*
X1097772Y1087498*
X1097459Y1087270*
X1097147Y1087157*
X1096678Y1087043*
X1095897*
X1095428Y1087157*
X1095116Y1087270*
X1094803Y1087498*
X1094647Y1087725*
Y1088180*
X1094803Y1088407*
X1095116Y1088634*
X1095428Y1088748*
X1097928Y1091248D02*
G01Y1090111D01*
X1096522Y1089998*
X1096678Y1090111*
X1096834Y1090452*
Y1090793*
X1096678Y1091134*
X1096366Y1091361*
X1095897Y1091475*
X1095584Y1091361*
X1095116Y1091248*
X1094803Y1091020*
X1094647Y1090680*
Y1090339*
X1094803Y1089998*
X1094959Y1089884*
X1095272Y1089770*
X1097928Y1093975D02*
G01Y1092839D01*
X1096522Y1092725*
X1096678Y1092839*
X1096834Y1093180*
Y1093520*
X1096678Y1093861*
X1096366Y1094089*
X1095897Y1094202*
X1095584Y1094089*
X1095116Y1093975*
X1094803Y1093748*
X1094647Y1093407*
Y1093066*
X1094803Y1092725*
X1094959Y1092611*
X1095272Y1092498*
X1106846Y1169415D02*
G01X1107159Y1169301D01*
X1107471Y1169074*
X1107627Y1168847*
Y1168392*
X1107471Y1168165*
X1107159Y1167938*
X1106846Y1167824*
X1106377Y1167710*
X1105596*
X1105127Y1167824*
X1104815Y1167938*
X1104502Y1168165*
X1104346Y1168392*
Y1168847*
X1104502Y1169074*
X1104815Y1169301*
X1105127Y1169415*
X1107627Y1171915D02*
G01Y1170779D01*
X1106221Y1170665*
X1106377Y1170779*
X1106534Y1171119*
Y1171460*
X1106377Y1171801*
X1106065Y1172029*
X1105596Y1172142*
X1105284Y1172029*
X1104815Y1171915*
X1104502Y1171688*
X1104346Y1171347*
Y1171006*
X1104502Y1170665*
X1104659Y1170551*
X1104971Y1170438*
X1107159Y1174529D02*
G01X1107471Y1174415D01*
X1107627Y1174074*
Y1173847*
X1107471Y1173506*
X1107002Y1173279*
X1106221Y1173165*
X1105440*
X1104815Y1173279*
X1104502Y1173506*
X1104346Y1173847*
Y1173960*
X1104502Y1174301*
X1104815Y1174529*
X1105284Y1174642*
X1105440*
X1105909Y1174529*
X1106221Y1174301*
X1106377Y1173960*
Y1173847*
X1106221Y1173506*
X1105909Y1173279*
X1105440Y1173165*
X1115247Y1088705D02*
G01X1115559Y1088591D01*
X1115872Y1088364*
X1116028Y1088136*
Y1087682*
X1115872Y1087455*
X1115559Y1087227*
X1115247Y1087114*
X1114778Y1087000*
X1113997*
X1113528Y1087114*
X1113216Y1087227*
X1112903Y1087455*
X1112747Y1087682*
Y1088136*
X1112903Y1088364*
X1113216Y1088591*
X1113528Y1088705*
X1116028Y1091205D02*
G01Y1090068D01*
X1114622Y1089955*
X1114778Y1090068*
X1114934Y1090409*
Y1090750*
X1114778Y1091091*
X1114466Y1091318*
X1113997Y1091432*
X1113684Y1091318*
X1113216Y1091205*
X1112903Y1090977*
X1112747Y1090636*
Y1090295*
X1112903Y1089955*
X1113059Y1089841*
X1113372Y1089727*
X1116028Y1094045D02*
G01X1112747Y1092909D01*
X1116028Y1092455D02*
G01Y1094045D01*
X1297847Y1115505D02*
G01X1298159Y1115391D01*
X1298472Y1115164*
X1298628Y1114936*
Y1114482*
X1298472Y1114255*
X1298159Y1114027*
X1297847Y1113914*
X1297378Y1113800*
X1296597*
X1296128Y1113914*
X1295816Y1114027*
X1295503Y1114255*
X1295347Y1114482*
Y1114936*
X1295503Y1115164*
X1295816Y1115391*
X1296128Y1115505*
X1298628Y1118005D02*
G01Y1116868D01*
X1297222Y1116755*
X1297378Y1116868*
X1297534Y1117209*
Y1117550*
X1297378Y1117891*
X1297066Y1118118*
X1296597Y1118232*
X1296284Y1118118*
X1295816Y1118005*
X1295503Y1117777*
X1295347Y1117436*
Y1117095*
X1295503Y1116755*
X1295659Y1116641*
X1295972Y1116527*
X1298628Y1119823D02*
G01X1298472Y1119482D01*
X1298159Y1119368*
X1297847*
X1297534Y1119482*
X1297378Y1119709*
X1297222Y1120164*
X1297066Y1120505*
X1296753Y1120732*
X1296441Y1120845*
X1295972*
X1295659Y1120732*
X1295503Y1120618*
X1295347Y1120277*
Y1119823*
X1295503Y1119482*
X1295659Y1119368*
X1295972Y1119255*
X1296441*
X1296753Y1119368*
X1297066Y1119595*
X1297222Y1119936*
X1297378Y1120391*
X1297534Y1120618*
X1297847Y1120732*
X1298159*
X1298472Y1120618*
X1298628Y1120277*
Y1119823*
X1140047Y1088861D02*
G01X1140359Y1088748D01*
X1140672Y1088520*
X1140828Y1088293*
Y1087839*
X1140672Y1087611*
X1140359Y1087384*
X1140047Y1087270*
X1139578Y1087157*
X1138797*
X1138328Y1087270*
X1138016Y1087384*
X1137703Y1087611*
X1137547Y1087839*
Y1088293*
X1137703Y1088520*
X1138016Y1088748*
X1138328Y1088861*
X1140828Y1091361D02*
G01Y1090225D01*
X1139422Y1090111*
X1139578Y1090225*
X1139734Y1090566*
Y1090907*
X1139578Y1091248*
X1139266Y1091475*
X1138797Y1091589*
X1138484Y1091475*
X1138016Y1091361*
X1137703Y1091134*
X1137547Y1090793*
Y1090452*
X1137703Y1090111*
X1137859Y1089998*
X1138172Y1089884*
X1139734Y1094089D02*
G01X1139266Y1093975D01*
X1138953Y1093748*
X1138797Y1093407*
Y1093293*
X1138953Y1092952*
X1139266Y1092725*
X1139734Y1092611*
X1139891*
X1140359Y1092725*
X1140672Y1092952*
X1140828Y1093293*
Y1093407*
X1140672Y1093748*
X1140359Y1093975*
X1139734Y1094089*
X1138953*
X1138172Y1093975*
X1137703Y1093748*
X1137547Y1093407*
Y1093180*
X1137703Y1092839*
X1138016Y1092725*
X1326198Y1066492D02*
G01X1326311Y1066804D01*
X1326538Y1067117*
X1326766Y1067273*
X1327220*
X1327448Y1067117*
X1327675Y1066804*
X1327788Y1066492*
X1327902Y1066023*
Y1065242*
X1327788Y1064773*
X1327675Y1064461*
X1327448Y1064148*
X1327220Y1063992*
X1326766*
X1326538Y1064148*
X1326311Y1064461*
X1326198Y1064773*
X1323811Y1066804D02*
G01X1323925Y1067117D01*
X1324266Y1067273*
X1324493*
X1324834Y1067117*
X1325061Y1066648*
X1325175Y1065867*
Y1065086*
X1325061Y1064461*
X1324834Y1064148*
X1324493Y1063992*
X1324379*
X1324038Y1064148*
X1323811Y1064461*
X1323698Y1064929*
Y1065086*
X1323811Y1065554*
X1324038Y1065867*
X1324379Y1066023*
X1324493*
X1324834Y1065867*
X1325061Y1065554*
X1325175Y1065086*
X1322561Y1066492D02*
G01Y1066648D01*
X1322448Y1066961*
X1322334Y1067117*
X1322107Y1067273*
X1321652*
X1321425Y1067117*
X1321311Y1066961*
X1321198Y1066648*
Y1066336*
X1321311Y1066023*
X1321538Y1065554*
X1322675Y1063992*
X1321084*
X1151058Y1135193D02*
G01X1151171Y1135505D01*
X1151398Y1135818*
X1151626Y1135974*
X1152080*
X1152308Y1135818*
X1152535Y1135505*
X1152648Y1135193*
X1152762Y1134724*
Y1133943*
X1152648Y1133474*
X1152535Y1133161*
X1152308Y1132849*
X1152080Y1132693*
X1151626*
X1151398Y1132849*
X1151171Y1133161*
X1151058Y1133474*
X1148671Y1135505D02*
G01X1148785Y1135818D01*
X1149126Y1135974*
X1149353*
X1149694Y1135818*
X1149921Y1135349*
X1150035Y1134568*
Y1133786*
X1149921Y1133161*
X1149694Y1132849*
X1149353Y1132693*
X1149239*
X1148898Y1132849*
X1148671Y1133161*
X1148558Y1133630*
Y1133786*
X1148671Y1134255*
X1148898Y1134568*
X1149239Y1134724*
X1149353*
X1149694Y1134568*
X1149921Y1134255*
X1150035Y1133786*
X1146058Y1135974D02*
G01X1147194D01*
X1147308Y1134568*
X1147194Y1134724*
X1146853Y1134880*
X1146512*
X1146171Y1134724*
X1145944Y1134411*
X1145830Y1133943*
X1145944Y1133630*
X1146058Y1133161*
X1146285Y1132849*
X1146626Y1132693*
X1146967*
X1147308Y1132849*
X1147421Y1133005*
X1147535Y1133318*
X1039917Y1245854D02*
G01X1040229Y1245740D01*
X1040542Y1245513*
X1040698Y1245286*
Y1244831*
X1040542Y1244604*
X1040229Y1244376*
X1039917Y1244263*
X1039448Y1244149*
X1038667*
X1038198Y1244263*
X1037886Y1244376*
X1037573Y1244604*
X1037417Y1244831*
Y1245286*
X1037573Y1245513*
X1037886Y1245740*
X1038198Y1245854*
X1040698Y1248354D02*
G01Y1247217D01*
X1039292Y1247104*
X1039448Y1247217*
X1039604Y1247558*
Y1247899*
X1039448Y1248240*
X1039136Y1248467*
X1038667Y1248581*
X1038354Y1248467*
X1037886Y1248354*
X1037573Y1248126*
X1037417Y1247786*
Y1247445*
X1037573Y1247104*
X1037729Y1246990*
X1038042Y1246876*
X1040073Y1249604D02*
G01X1040229Y1249831D01*
X1040698Y1250172*
X1037417*
X1309425Y1123947D02*
G01X1309539Y1124259D01*
X1309766Y1124572*
X1309993Y1124728*
X1310448*
X1310675Y1124572*
X1310902Y1124259*
X1311016Y1123947*
X1311130Y1123478*
Y1122697*
X1311016Y1122228*
X1310902Y1121916*
X1310675Y1121603*
X1310448Y1121447*
X1309993*
X1309766Y1121603*
X1309539Y1121916*
X1309425Y1122228*
X1307039Y1124259D02*
G01X1307152Y1124572D01*
X1307493Y1124728*
X1307720*
X1308061Y1124572*
X1308289Y1124103*
X1308402Y1123322*
Y1122541*
X1308289Y1121916*
X1308061Y1121603*
X1307720Y1121447*
X1307607*
X1307266Y1121603*
X1307039Y1121916*
X1306925Y1122384*
Y1122541*
X1307039Y1123009*
X1307266Y1123322*
X1307607Y1123478*
X1307720*
X1308061Y1123322*
X1308289Y1123009*
X1308402Y1122541*
X1304425Y1123634D02*
G01X1304539Y1123166D01*
X1304766Y1122853*
X1305107Y1122697*
X1305220*
X1305561Y1122853*
X1305789Y1123166*
X1305902Y1123634*
Y1123791*
X1305789Y1124259*
X1305561Y1124572*
X1305220Y1124728*
X1305107*
X1304766Y1124572*
X1304539Y1124259*
X1304425Y1123634*
Y1122853*
X1304539Y1122072*
X1304766Y1121603*
X1305107Y1121447*
X1305334*
X1305675Y1121603*
X1305789Y1121916*
X1273892Y1148972D02*
G01X1274006Y1149285D01*
X1274233Y1149597*
X1274460Y1149753*
X1274915*
X1275142Y1149597*
X1275369Y1149285*
X1275483Y1148972*
X1275597Y1148503*
Y1147722*
X1275483Y1147253*
X1275369Y1146941*
X1275142Y1146628*
X1274915Y1146472*
X1274460*
X1274233Y1146628*
X1274006Y1146941*
X1273892Y1147253*
X1271279Y1149753D02*
G01X1272415Y1146472D01*
X1272869Y1149753D02*
G01X1271279D01*
X1269574D02*
G01X1269915Y1149597D01*
X1270142Y1149128*
X1270256Y1148347*
Y1147878*
X1270142Y1147097*
X1269915Y1146628*
X1269574Y1146472*
X1269347*
X1269006Y1146628*
X1268779Y1147097*
X1268665Y1147878*
Y1148347*
X1268779Y1149128*
X1269006Y1149597*
X1269347Y1149753*
X1269574*
X1189347Y1058161D02*
G01X1189659Y1058048D01*
X1189972Y1057820*
X1190128Y1057593*
Y1057139*
X1189972Y1056911*
X1189659Y1056684*
X1189347Y1056570*
X1188878Y1056457*
X1188097*
X1187628Y1056570*
X1187316Y1056684*
X1187003Y1056911*
X1186847Y1057139*
Y1057593*
X1187003Y1057820*
X1187316Y1058048*
X1187628Y1058161*
X1189034Y1060661D02*
G01X1188566Y1060548D01*
X1188253Y1060320*
X1188097Y1059980*
Y1059866*
X1188253Y1059525*
X1188566Y1059298*
X1189034Y1059184*
X1189191*
X1189659Y1059298*
X1189972Y1059525*
X1190128Y1059866*
Y1059980*
X1189972Y1060320*
X1189659Y1060548*
X1189034Y1060661*
X1188253*
X1187472Y1060548*
X1187003Y1060320*
X1186847Y1059980*
Y1059752*
X1187003Y1059411*
X1187316Y1059298*
X1190128Y1063161D02*
G01Y1062025D01*
X1188722Y1061911*
X1188878Y1062025*
X1189034Y1062366*
Y1062707*
X1188878Y1063048*
X1188566Y1063275*
X1188097Y1063389*
X1187784Y1063275*
X1187316Y1063161*
X1187003Y1062934*
X1186847Y1062593*
Y1062252*
X1187003Y1061911*
X1187159Y1061798*
X1187472Y1061684*
X1058447Y1071761D02*
G01X1058759Y1071648D01*
X1059072Y1071420*
X1059228Y1071193*
Y1070739*
X1059072Y1070511*
X1058759Y1070284*
X1058447Y1070170*
X1057978Y1070057*
X1057197*
X1056728Y1070170*
X1056416Y1070284*
X1056103Y1070511*
X1055947Y1070739*
Y1071193*
X1056103Y1071420*
X1056416Y1071648*
X1056728Y1071761*
X1059228Y1074375D02*
G01X1055947Y1073239D01*
X1059228Y1072784D02*
G01Y1074375D01*
Y1075625D02*
G01Y1076875D01*
X1057978Y1076193*
Y1076534*
X1057822Y1076761*
X1057666Y1076875*
X1057197Y1076989*
X1056884*
X1056416Y1076875*
X1056103Y1076648*
X1055947Y1076307*
Y1075966*
X1056103Y1075625*
X1056259Y1075511*
X1056572Y1075398*
X1112195Y1029847D02*
G01X1112309Y1030159D01*
X1112536Y1030472*
X1112764Y1030628*
X1113218*
X1113445Y1030472*
X1113673Y1030159*
X1113786Y1029847*
X1113900Y1029378*
Y1028597*
X1113786Y1028128*
X1113673Y1027816*
X1113445Y1027503*
X1113218Y1027347*
X1112764*
X1112536Y1027503*
X1112309Y1027816*
X1112195Y1028128*
X1109582Y1030628D02*
G01X1110718Y1027347D01*
X1111173Y1030628D02*
G01X1109582D01*
X1107082D02*
G01X1108218D01*
X1108332Y1029222*
X1108218Y1029378*
X1107877Y1029534*
X1107536*
X1107195Y1029378*
X1106968Y1029066*
X1106855Y1028597*
X1106968Y1028284*
X1107082Y1027816*
X1107309Y1027503*
X1107650Y1027347*
X1107991*
X1108332Y1027503*
X1108445Y1027659*
X1108559Y1027972*
X1109282Y1055147D02*
G01X1109395Y1055459D01*
X1109623Y1055772*
X1109850Y1055928*
X1110305*
X1110532Y1055772*
X1110759Y1055459*
X1110873Y1055147*
X1110986Y1054678*
Y1053897*
X1110873Y1053428*
X1110759Y1053116*
X1110532Y1052803*
X1110305Y1052647*
X1109850*
X1109623Y1052803*
X1109395Y1053116*
X1109282Y1053428*
X1106668Y1055928D02*
G01X1107805Y1052647D01*
X1108259Y1055928D02*
G01X1106668D01*
X1104282Y1055459D02*
G01X1104395Y1055772D01*
X1104736Y1055928*
X1104964*
X1105305Y1055772*
X1105532Y1055303*
X1105645Y1054522*
Y1053741*
X1105532Y1053116*
X1105305Y1052803*
X1104964Y1052647*
X1104850*
X1104509Y1052803*
X1104282Y1053116*
X1104168Y1053584*
Y1053741*
X1104282Y1054209*
X1104509Y1054522*
X1104850Y1054678*
X1104964*
X1105305Y1054522*
X1105532Y1054209*
X1105645Y1053741*
X1174139Y1042047D02*
G01X1174252Y1042359D01*
X1174480Y1042672*
X1174707Y1042828*
X1175161*
X1175389Y1042672*
X1175616Y1042359*
X1175730Y1042047*
X1175843Y1041578*
Y1040797*
X1175730Y1040328*
X1175616Y1040016*
X1175389Y1039703*
X1175161Y1039547*
X1174707*
X1174480Y1039703*
X1174252Y1040016*
X1174139Y1040328*
X1171525Y1042828D02*
G01X1172661Y1039547D01*
X1173116Y1042828D02*
G01X1171525D01*
X1168911D02*
G01X1170048Y1039547D01*
X1170502Y1042828D02*
G01X1168911D01*
X1077647Y1095361D02*
G01X1077959Y1095248D01*
X1078272Y1095020*
X1078428Y1094793*
Y1094339*
X1078272Y1094111*
X1077959Y1093884*
X1077647Y1093770*
X1077178Y1093657*
X1076397*
X1075928Y1093770*
X1075616Y1093884*
X1075303Y1094111*
X1075147Y1094339*
Y1094793*
X1075303Y1095020*
X1075616Y1095248*
X1075928Y1095361*
X1078428Y1097975D02*
G01X1075147Y1096839D01*
X1078428Y1096384D02*
G01Y1097975D01*
Y1099566D02*
G01X1078272Y1099225D01*
X1077959Y1099111*
X1077647*
X1077334Y1099225*
X1077178Y1099452*
X1077022Y1099907*
X1076866Y1100248*
X1076553Y1100475*
X1076241Y1100589*
X1075772*
X1075459Y1100475*
X1075303Y1100361*
X1075147Y1100020*
Y1099566*
X1075303Y1099225*
X1075459Y1099111*
X1075772Y1098998*
X1076241*
X1076553Y1099111*
X1076866Y1099339*
X1077022Y1099680*
X1077178Y1100134*
X1077334Y1100361*
X1077647Y1100475*
X1077959*
X1078272Y1100361*
X1078428Y1100020*
Y1099566*
X1138595Y1082937D02*
G01X1138709Y1083249D01*
X1138936Y1083562*
X1139164Y1083718*
X1139618*
X1139845Y1083562*
X1140073Y1083249*
X1140186Y1082937*
X1140300Y1082468*
Y1081687*
X1140186Y1081218*
X1140073Y1080905*
X1139845Y1080593*
X1139618Y1080437*
X1139164*
X1138936Y1080593*
X1138709Y1080905*
X1138595Y1081218*
X1135982Y1083718D02*
G01X1137118Y1080437D01*
X1137573Y1083718D02*
G01X1135982D01*
X1133823D02*
G01X1134959Y1081530D01*
X1133255*
X1133823Y1083718D02*
G01Y1080437D01*
X1132739Y1124647D02*
G01X1132852Y1124959D01*
X1133080Y1125272*
X1133307Y1125428*
X1133761*
X1133989Y1125272*
X1134216Y1124959*
X1134330Y1124647*
X1134443Y1124178*
Y1123397*
X1134330Y1122928*
X1134216Y1122616*
X1133989Y1122303*
X1133761Y1122147*
X1133307*
X1133080Y1122303*
X1132852Y1122616*
X1132739Y1122928*
X1131148Y1125428D02*
G01X1131489Y1125272D01*
X1131602Y1124959*
Y1124647*
X1131489Y1124334*
X1131261Y1124178*
X1130807Y1124022*
X1130466Y1123866*
X1130239Y1123553*
X1130125Y1123241*
Y1122772*
X1130239Y1122459*
X1130352Y1122303*
X1130693Y1122147*
X1131148*
X1131489Y1122303*
X1131602Y1122459*
X1131716Y1122772*
Y1123241*
X1131602Y1123553*
X1131375Y1123866*
X1131034Y1124022*
X1130580Y1124178*
X1130352Y1124334*
X1130239Y1124647*
Y1124959*
X1130352Y1125272*
X1130693Y1125428*
X1131148*
X1128420D02*
G01X1128761Y1125272D01*
X1128989Y1124803*
X1129102Y1124022*
Y1123553*
X1128989Y1122772*
X1128761Y1122303*
X1128420Y1122147*
X1128193*
X1127852Y1122303*
X1127625Y1122772*
X1127511Y1123553*
Y1124022*
X1127625Y1124803*
X1127852Y1125272*
X1128193Y1125428*
X1128420*
X1134347Y1109273D02*
G01X1134659Y1109159D01*
X1134972Y1108932*
X1135128Y1108705*
Y1108250*
X1134972Y1108023*
X1134659Y1107795*
X1134347Y1107682*
X1133878Y1107568*
X1133097*
X1132628Y1107682*
X1132316Y1107795*
X1132003Y1108023*
X1131847Y1108250*
Y1108705*
X1132003Y1108932*
X1132316Y1109159*
X1132628Y1109273*
X1135128Y1110864D02*
G01X1134972Y1110523D01*
X1134659Y1110409*
X1134347*
X1134034Y1110523*
X1133878Y1110750*
X1133722Y1111205*
X1133566Y1111545*
X1133253Y1111773*
X1132941Y1111886*
X1132472*
X1132159Y1111773*
X1132003Y1111659*
X1131847Y1111318*
Y1110864*
X1132003Y1110523*
X1132159Y1110409*
X1132472Y1110295*
X1132941*
X1133253Y1110409*
X1133566Y1110636*
X1133722Y1110977*
X1133878Y1111432*
X1134034Y1111659*
X1134347Y1111773*
X1134659*
X1134972Y1111659*
X1135128Y1111318*
Y1110864*
X1134503Y1112909D02*
G01X1134659Y1113136D01*
X1135128Y1113477*
X1131847*
X1154539Y1050847D02*
G01X1154652Y1051159D01*
X1154880Y1051472*
X1155107Y1051628*
X1155561*
X1155789Y1051472*
X1156016Y1051159*
X1156130Y1050847*
X1156243Y1050378*
Y1049597*
X1156130Y1049128*
X1156016Y1048816*
X1155789Y1048503*
X1155561Y1048347*
X1155107*
X1154880Y1048503*
X1154652Y1048816*
X1154539Y1049128*
X1152948Y1051628D02*
G01X1153289Y1051472D01*
X1153402Y1051159*
Y1050847*
X1153289Y1050534*
X1153061Y1050378*
X1152607Y1050222*
X1152266Y1050066*
X1152039Y1049753*
X1151925Y1049441*
Y1048972*
X1152039Y1048659*
X1152152Y1048503*
X1152493Y1048347*
X1152948*
X1153289Y1048503*
X1153402Y1048659*
X1153516Y1048972*
Y1049441*
X1153402Y1049753*
X1153175Y1050066*
X1152834Y1050222*
X1152380Y1050378*
X1152152Y1050534*
X1152039Y1050847*
Y1051159*
X1152152Y1051472*
X1152493Y1051628*
X1152948*
X1150789Y1050847D02*
G01Y1051003D01*
X1150675Y1051316*
X1150561Y1051472*
X1150334Y1051628*
X1149880*
X1149652Y1051472*
X1149539Y1051316*
X1149425Y1051003*
Y1050691*
X1149539Y1050378*
X1149766Y1049909*
X1150902Y1048347*
X1149311*
X1173139Y1075247D02*
G01X1173252Y1075559D01*
X1173480Y1075872*
X1173707Y1076028*
X1174161*
X1174389Y1075872*
X1174616Y1075559*
X1174730Y1075247*
X1174843Y1074778*
Y1073997*
X1174730Y1073528*
X1174616Y1073216*
X1174389Y1072903*
X1174161Y1072747*
X1173707*
X1173480Y1072903*
X1173252Y1073216*
X1173139Y1073528*
X1171548Y1076028D02*
G01X1171889Y1075872D01*
X1172002Y1075559*
Y1075247*
X1171889Y1074934*
X1171661Y1074778*
X1171207Y1074622*
X1170866Y1074466*
X1170639Y1074153*
X1170525Y1073841*
Y1073372*
X1170639Y1073059*
X1170752Y1072903*
X1171093Y1072747*
X1171548*
X1171889Y1072903*
X1172002Y1073059*
X1172116Y1073372*
Y1073841*
X1172002Y1074153*
X1171775Y1074466*
X1171434Y1074622*
X1170980Y1074778*
X1170752Y1074934*
X1170639Y1075247*
Y1075559*
X1170752Y1075872*
X1171093Y1076028*
X1171548*
X1169275D02*
G01X1168025D01*
X1168707Y1074778*
X1168366*
X1168139Y1074622*
X1168025Y1074466*
X1167911Y1073997*
Y1073684*
X1168025Y1073216*
X1168252Y1072903*
X1168593Y1072747*
X1168934*
X1169275Y1072903*
X1169389Y1073059*
X1169502Y1073372*
X1082347Y1090205D02*
G01X1082659Y1090091D01*
X1082972Y1089864*
X1083128Y1089636*
Y1089182*
X1082972Y1088955*
X1082659Y1088727*
X1082347Y1088614*
X1081878Y1088500*
X1081097*
X1080628Y1088614*
X1080316Y1088727*
X1080003Y1088955*
X1079847Y1089182*
Y1089636*
X1080003Y1089864*
X1080316Y1090091*
X1080628Y1090205*
X1083128Y1091795D02*
G01X1082972Y1091455D01*
X1082659Y1091341*
X1082347*
X1082034Y1091455*
X1081878Y1091682*
X1081722Y1092136*
X1081566Y1092477*
X1081253Y1092705*
X1080941Y1092818*
X1080472*
X1080159Y1092705*
X1080003Y1092591*
X1079847Y1092250*
Y1091795*
X1080003Y1091455*
X1080159Y1091341*
X1080472Y1091227*
X1080941*
X1081253Y1091341*
X1081566Y1091568*
X1081722Y1091909*
X1081878Y1092364*
X1082034Y1092591*
X1082347Y1092705*
X1082659*
X1082972Y1092591*
X1083128Y1092250*
Y1091795*
Y1094977D02*
G01X1080941Y1093841D01*
Y1095545*
X1083128Y1094977D02*
G01X1079847D01*
X1059799Y1039240D02*
G01X1060111Y1039126D01*
X1060424Y1038899*
X1060580Y1038672*
Y1038217*
X1060424Y1037990*
X1060111Y1037763*
X1059799Y1037649*
X1059330Y1037535*
X1058549*
X1058080Y1037649*
X1057768Y1037763*
X1057455Y1037990*
X1057299Y1038217*
Y1038672*
X1057455Y1038899*
X1057768Y1039126*
X1058080Y1039240*
X1060580Y1040831D02*
G01X1060424Y1040490D01*
X1060111Y1040376*
X1059799*
X1059486Y1040490*
X1059330Y1040717*
X1059174Y1041172*
X1059018Y1041513*
X1058705Y1041740*
X1058393Y1041854*
X1057924*
X1057611Y1041740*
X1057455Y1041626*
X1057299Y1041285*
Y1040831*
X1057455Y1040490*
X1057611Y1040376*
X1057924Y1040263*
X1058393*
X1058705Y1040376*
X1059018Y1040604*
X1059174Y1040945*
X1059330Y1041399*
X1059486Y1041626*
X1059799Y1041740*
X1060111*
X1060424Y1041626*
X1060580Y1041285*
Y1040831*
Y1044354D02*
G01Y1043217D01*
X1059174Y1043104*
X1059330Y1043217*
X1059486Y1043558*
Y1043899*
X1059330Y1044240*
X1059018Y1044467*
X1058549Y1044581*
X1058236Y1044467*
X1057768Y1044354*
X1057455Y1044126*
X1057299Y1043785*
Y1043445*
X1057455Y1043104*
X1057611Y1042990*
X1057924Y1042876*
X1081982Y1030747D02*
G01X1082095Y1031059D01*
X1082323Y1031372*
X1082550Y1031528*
X1083005*
X1083232Y1031372*
X1083459Y1031059*
X1083573Y1030747*
X1083686Y1030278*
Y1029497*
X1083573Y1029028*
X1083459Y1028716*
X1083232Y1028403*
X1083005Y1028247*
X1082550*
X1082323Y1028403*
X1082095Y1028716*
X1081982Y1029028*
X1080391Y1031528D02*
G01X1080732Y1031372D01*
X1080845Y1031059*
Y1030747*
X1080732Y1030434*
X1080505Y1030278*
X1080050Y1030122*
X1079709Y1029966*
X1079482Y1029653*
X1079368Y1029341*
Y1028872*
X1079482Y1028559*
X1079595Y1028403*
X1079936Y1028247*
X1080391*
X1080732Y1028403*
X1080845Y1028559*
X1080959Y1028872*
Y1029341*
X1080845Y1029653*
X1080618Y1029966*
X1080277Y1030122*
X1079823Y1030278*
X1079595Y1030434*
X1079482Y1030747*
Y1031059*
X1079595Y1031372*
X1079936Y1031528*
X1080391*
X1076982Y1031059D02*
G01X1077095Y1031372D01*
X1077436Y1031528*
X1077664*
X1078005Y1031372*
X1078232Y1030903*
X1078345Y1030122*
Y1029341*
X1078232Y1028716*
X1078005Y1028403*
X1077664Y1028247*
X1077550*
X1077209Y1028403*
X1076982Y1028716*
X1076868Y1029184*
Y1029341*
X1076982Y1029809*
X1077209Y1030122*
X1077550Y1030278*
X1077664*
X1078005Y1030122*
X1078232Y1029809*
X1078345Y1029341*
X1093247Y1169661D02*
G01X1093559Y1169548D01*
X1093872Y1169320*
X1094028Y1169093*
Y1168639*
X1093872Y1168411*
X1093559Y1168184*
X1093247Y1168070*
X1092778Y1167957*
X1091997*
X1091528Y1168070*
X1091216Y1168184*
X1090903Y1168411*
X1090747Y1168639*
Y1169093*
X1090903Y1169320*
X1091216Y1169548*
X1091528Y1169661*
X1094028Y1171252D02*
G01X1093872Y1170911D01*
X1093559Y1170798*
X1093247*
X1092934Y1170911*
X1092778Y1171139*
X1092622Y1171593*
X1092466Y1171934*
X1092153Y1172161*
X1091841Y1172275*
X1091372*
X1091059Y1172161*
X1090903Y1172048*
X1090747Y1171707*
Y1171252*
X1090903Y1170911*
X1091059Y1170798*
X1091372Y1170684*
X1091841*
X1092153Y1170798*
X1092466Y1171025*
X1092622Y1171366*
X1092778Y1171820*
X1092934Y1172048*
X1093247Y1172161*
X1093559*
X1093872Y1172048*
X1094028Y1171707*
Y1171252*
Y1173866D02*
G01X1093872Y1173525D01*
X1093559Y1173411*
X1093247*
X1092934Y1173525*
X1092778Y1173752*
X1092622Y1174207*
X1092466Y1174548*
X1092153Y1174775*
X1091841Y1174889*
X1091372*
X1091059Y1174775*
X1090903Y1174661*
X1090747Y1174320*
Y1173866*
X1090903Y1173525*
X1091059Y1173411*
X1091372Y1173298*
X1091841*
X1092153Y1173411*
X1092466Y1173639*
X1092622Y1173980*
X1092778Y1174434*
X1092934Y1174661*
X1093247Y1174775*
X1093559*
X1093872Y1174661*
X1094028Y1174320*
Y1173866*
X1217483Y1249759D02*
G01X1217597Y1250072D01*
X1217824Y1250384*
X1218052Y1250541*
X1218506*
X1218733Y1250384*
X1218961Y1250072*
X1219074Y1249759*
X1219188Y1249291*
Y1248509*
X1219074Y1248041*
X1218961Y1247728*
X1218733Y1247416*
X1218506Y1247259*
X1218052*
X1217824Y1247416*
X1217597Y1247728*
X1217483Y1248041*
X1216461Y1249916D02*
G01X1216233Y1250072D01*
X1215892Y1250541*
Y1247259*
X1214870Y1249916D02*
G01X1214642Y1250072D01*
X1214302Y1250541*
Y1247259*
X1212597Y1250541D02*
G01X1212938Y1250384D01*
X1213165Y1249916*
X1213279Y1249134*
Y1248666*
X1213165Y1247884*
X1212938Y1247416*
X1212597Y1247259*
X1212370*
X1212029Y1247416*
X1211802Y1247884*
X1211688Y1248666*
Y1249134*
X1211802Y1249916*
X1212029Y1250384*
X1212370Y1250541*
X1212597*
X1079484Y1105692D02*
G01X1079796Y1105579D01*
X1080109Y1105351*
X1080265Y1105124*
Y1104669*
X1080109Y1104442*
X1079796Y1104215*
X1079484Y1104101*
X1079015Y1103988*
X1078234*
X1077765Y1104101*
X1077453Y1104215*
X1077140Y1104442*
X1076984Y1104669*
Y1105124*
X1077140Y1105351*
X1077453Y1105579*
X1077765Y1105692*
X1079796Y1108079D02*
G01X1080109Y1107965D01*
X1080265Y1107624*
Y1107397*
X1080109Y1107056*
X1079640Y1106829*
X1078859Y1106715*
X1078078*
X1077453Y1106829*
X1077140Y1107056*
X1076984Y1107397*
Y1107510*
X1077140Y1107851*
X1077453Y1108079*
X1077921Y1108192*
X1078078*
X1078546Y1108079*
X1078859Y1107851*
X1079015Y1107510*
Y1107397*
X1078859Y1107056*
X1078546Y1106829*
X1078078Y1106715*
X1080265Y1109897D02*
G01X1080109Y1109556D01*
X1079640Y1109329*
X1078859Y1109215*
X1078390*
X1077609Y1109329*
X1077140Y1109556*
X1076984Y1109897*
Y1110124*
X1077140Y1110465*
X1077609Y1110692*
X1078390Y1110806*
X1078859*
X1079640Y1110692*
X1080109Y1110465*
X1080265Y1110124*
Y1109897*
X1042647Y1105218D02*
G01X1042959Y1105105D01*
X1043272Y1104877*
X1043428Y1104650*
Y1104195*
X1043272Y1103968*
X1042959Y1103741*
X1042647Y1103627*
X1042178Y1103514*
X1041397*
X1040928Y1103627*
X1040616Y1103741*
X1040303Y1103968*
X1040147Y1104195*
Y1104650*
X1040303Y1104877*
X1040616Y1105105*
X1040928Y1105218*
X1043428Y1107832D02*
G01X1040147Y1106695D01*
X1043428Y1106241D02*
G01Y1107832D01*
X1042334Y1110332D02*
G01X1041866Y1110218D01*
X1041553Y1109991*
X1041397Y1109650*
Y1109536*
X1041553Y1109195*
X1041866Y1108968*
X1042334Y1108855*
X1042491*
X1042959Y1108968*
X1043272Y1109195*
X1043428Y1109536*
Y1109650*
X1043272Y1109991*
X1042959Y1110218*
X1042334Y1110332*
X1041553*
X1040772Y1110218*
X1040303Y1109991*
X1040147Y1109650*
Y1109423*
X1040303Y1109082*
X1040616Y1108968*
X1278249Y1119045D02*
G01Y1115763D01*
Y1119045D02*
G01X1277454D01*
X1277113Y1118888*
X1276886Y1118576*
X1276772Y1118263*
X1276658Y1117795*
Y1117013*
X1276772Y1116545*
X1276886Y1116232*
X1277113Y1115920*
X1277454Y1115763*
X1278249*
X1275636Y1118420D02*
G01X1275408Y1118576D01*
X1275067Y1119045*
Y1115763*
X1304980Y1116028D02*
G01Y1112747D01*
Y1116028D02*
G01X1304184D01*
X1303843Y1115872*
X1303616Y1115559*
X1303502Y1115247*
X1303389Y1114778*
Y1113997*
X1303502Y1113528*
X1303616Y1113216*
X1303843Y1112903*
X1304184Y1112747*
X1304980*
X1302139Y1116028D02*
G01X1300889D01*
X1301570Y1114778*
X1301230*
X1301002Y1114622*
X1300889Y1114466*
X1300775Y1113997*
Y1113684*
X1300889Y1113216*
X1301116Y1112903*
X1301457Y1112747*
X1301798*
X1302139Y1112903*
X1302252Y1113059*
X1302366Y1113372*
X1120580Y1074728D02*
G01Y1071447D01*
Y1074728D02*
G01X1119784D01*
X1119443Y1074572*
X1119216Y1074259*
X1119102Y1073947*
X1118989Y1073478*
Y1072697*
X1119102Y1072228*
X1119216Y1071916*
X1119443Y1071603*
X1119784Y1071447*
X1120580*
X1117398Y1074728D02*
G01X1117739Y1074572D01*
X1117852Y1074259*
Y1073947*
X1117739Y1073634*
X1117511Y1073478*
X1117057Y1073322*
X1116716Y1073166*
X1116489Y1072853*
X1116375Y1072541*
Y1072072*
X1116489Y1071759*
X1116602Y1071603*
X1116943Y1071447*
X1117398*
X1117739Y1071603*
X1117852Y1071759*
X1117966Y1072072*
Y1072541*
X1117852Y1072853*
X1117625Y1073166*
X1117284Y1073322*
X1116830Y1073478*
X1116602Y1073634*
X1116489Y1073947*
Y1074259*
X1116602Y1074572*
X1116943Y1074728*
X1117398*
X1168139Y1051328D02*
G01Y1048047D01*
Y1051328D02*
G01X1167343D01*
X1167002Y1051172*
X1166775Y1050859*
X1166662Y1050547*
X1166548Y1050078*
Y1049297*
X1166662Y1048828*
X1166775Y1048516*
X1167002Y1048203*
X1167343Y1048047*
X1168139*
X1165525Y1050703D02*
G01X1165298Y1050859D01*
X1164957Y1051328*
Y1048047*
X1163252Y1051328D02*
G01X1163593Y1051172D01*
X1163821Y1050703*
X1163934Y1049922*
Y1049453*
X1163821Y1048672*
X1163593Y1048203*
X1163252Y1048047*
X1163025*
X1162684Y1048203*
X1162457Y1048672*
X1162343Y1049453*
Y1049922*
X1162457Y1050703*
X1162684Y1051172*
X1163025Y1051328*
X1163252*
X1093218Y1044045D02*
G01Y1040763D01*
Y1044045D02*
G01X1092423D01*
X1092082Y1043888*
X1091854Y1043576*
X1091741Y1043263*
X1091627Y1042795*
Y1042013*
X1091741Y1041545*
X1091854Y1041232*
X1092082Y1040920*
X1092423Y1040763*
X1093218*
X1090604Y1043420D02*
G01X1090377Y1043576D01*
X1090036Y1044045*
Y1040763*
X1089013Y1043420D02*
G01X1088786Y1043576D01*
X1088445Y1044045*
Y1040763*
X1038730Y1043672D02*
G01X1035448D01*
X1038730D02*
G01Y1044468D01*
X1038573Y1044809*
X1038261Y1045036*
X1037948Y1045150*
X1037480Y1045263*
X1036698*
X1036230Y1045150*
X1035917Y1045036*
X1035605Y1044809*
X1035448Y1044468*
Y1043672*
X1038105Y1046286D02*
G01X1038261Y1046513D01*
X1038730Y1046854*
X1035448*
X1037948Y1047990D02*
G01X1038105D01*
X1038417Y1048104*
X1038573Y1048218*
X1038730Y1048445*
Y1048900*
X1038573Y1049127*
X1038417Y1049240*
X1038105Y1049354*
X1037792*
X1037480Y1049240*
X1037011Y1049013*
X1035448Y1047877*
Y1049468*
X1279055Y1069128D02*
G01Y1065847D01*
X1277691*
X1276668Y1068503D02*
G01X1276441Y1068659D01*
X1276100Y1069128*
Y1065847*
X1296364Y1072588D02*
G01Y1069307D01*
X1295000*
X1293864Y1071807D02*
G01Y1071963D01*
X1293750Y1072275*
X1293636Y1072432*
X1293409Y1072588*
X1292954*
X1292727Y1072432*
X1292614Y1072275*
X1292500Y1071963*
Y1071650*
X1292614Y1071338*
X1292841Y1070869*
X1293977Y1069307*
X1292386*
X1067611Y1110828D02*
G01X1067839Y1110672D01*
X1068066Y1110359*
X1068180Y1110047*
X1068293Y1109578*
Y1108797*
X1068180Y1108328*
X1068066Y1108016*
X1067839Y1107703*
X1067611Y1107547*
X1067157*
X1066930Y1107703*
X1066702Y1108016*
X1066589Y1108328*
X1066475Y1108797*
Y1109578*
X1066589Y1110047*
X1066702Y1110359*
X1066930Y1110672*
X1067157Y1110828*
X1067611*
X1067270Y1108172D02*
G01X1066589Y1107234D01*
X1065339Y1110047D02*
G01Y1110203D01*
X1065225Y1110516*
X1065111Y1110672*
X1064884Y1110828*
X1064430*
X1064202Y1110672*
X1064089Y1110516*
X1063975Y1110203*
Y1109891*
X1064089Y1109578*
X1064316Y1109109*
X1065452Y1107547*
X1063861*
X1111761Y1098185D02*
G01X1111605Y1097958D01*
X1111292Y1097731*
X1110980Y1097617*
X1110511Y1097504*
X1109730*
X1109261Y1097617*
X1108949Y1097731*
X1108636Y1097958*
X1108480Y1098185*
Y1098640*
X1108636Y1098867*
X1108949Y1099095*
X1109261Y1099208*
X1109730Y1099322*
X1110511*
X1110980Y1099208*
X1111292Y1099095*
X1111605Y1098867*
X1111761Y1098640*
Y1098185*
X1109105Y1098526D02*
G01X1108167Y1099208D01*
X1111761Y1100572D02*
G01Y1101822D01*
X1110511Y1101140*
Y1101481*
X1110355Y1101708*
X1110199Y1101822*
X1109730Y1101935*
X1109417*
X1108949Y1101822*
X1108636Y1101595*
X1108480Y1101254*
Y1100913*
X1108636Y1100572*
X1108792Y1100458*
X1109105Y1100345*
X1074903Y1044045D02*
G01X1075130Y1043888D01*
X1075357Y1043576*
X1075471Y1043263*
X1075585Y1042795*
Y1042013*
X1075471Y1041545*
X1075357Y1041232*
X1075130Y1040920*
X1074903Y1040763*
X1074448*
X1074221Y1040920*
X1073994Y1041232*
X1073880Y1041545*
X1073766Y1042013*
Y1042795*
X1073880Y1043263*
X1073994Y1043576*
X1074221Y1043888*
X1074448Y1044045*
X1074903*
X1074562Y1041388D02*
G01X1073880Y1040451D01*
X1071607Y1044045D02*
G01X1072744Y1041857D01*
X1071039*
X1071607Y1044045D02*
G01Y1040763D01*
X1022580Y1139328D02*
G01Y1136047D01*
Y1139328D02*
G01X1021557D01*
X1021216Y1139172*
X1021102Y1139016*
X1020989Y1138703*
Y1138391*
X1021102Y1138078*
X1021216Y1137922*
X1021557Y1137766*
X1022580*
X1021784D02*
G01X1020989Y1136047D01*
X1019852Y1138547D02*
G01Y1138703D01*
X1019739Y1139016*
X1019625Y1139172*
X1019398Y1139328*
X1018943*
X1018716Y1139172*
X1018602Y1139016*
X1018489Y1138703*
Y1138391*
X1018602Y1138078*
X1018830Y1137609*
X1019966Y1136047*
X1018375*
X1023080Y1148828D02*
G01Y1145547D01*
Y1148828D02*
G01X1022057D01*
X1021716Y1148672*
X1021602Y1148516*
X1021489Y1148203*
Y1147891*
X1021602Y1147578*
X1021716Y1147422*
X1022057Y1147266*
X1023080*
X1022284D02*
G01X1021489Y1145547D01*
X1020239Y1148828D02*
G01X1018989D01*
X1019670Y1147578*
X1019330*
X1019102Y1147422*
X1018989Y1147266*
X1018875Y1146797*
Y1146484*
X1018989Y1146016*
X1019216Y1145703*
X1019557Y1145547*
X1019898*
X1020239Y1145703*
X1020352Y1145859*
X1020466Y1146172*
X1197528Y1096164D02*
G01X1194247D01*
X1197528D02*
G01Y1097186D01*
X1197372Y1097527*
X1197216Y1097641*
X1196903Y1097755*
X1196591*
X1196278Y1097641*
X1196122Y1097527*
X1195966Y1097186*
Y1096164*
Y1096959D02*
G01X1194247Y1097755D01*
X1197528Y1099914D02*
G01X1195341Y1098777D01*
Y1100482*
X1197528Y1099914D02*
G01X1194247D01*
X1187328Y1105777D02*
G01X1184047D01*
X1187328D02*
G01Y1106800D01*
X1187172Y1107141*
X1187016Y1107255*
X1186703Y1107368*
X1186391*
X1186078Y1107255*
X1185922Y1107141*
X1185766Y1106800*
Y1105777*
Y1106573D02*
G01X1184047Y1107368D01*
X1186859Y1109755D02*
G01X1187172Y1109641D01*
X1187328Y1109300*
Y1109073*
X1187172Y1108732*
X1186703Y1108505*
X1185922Y1108391*
X1185141*
X1184516Y1108505*
X1184203Y1108732*
X1184047Y1109073*
Y1109186*
X1184203Y1109527*
X1184516Y1109755*
X1184984Y1109868*
X1185141*
X1185609Y1109755*
X1185922Y1109527*
X1186078Y1109186*
Y1109073*
X1185922Y1108732*
X1185609Y1108505*
X1185141Y1108391*
X1243131Y1180462D02*
G01Y1177181D01*
Y1180462D02*
G01X1242108D01*
X1241767Y1180306*
X1241653Y1180149*
X1241540Y1179837*
Y1179524*
X1241653Y1179212*
X1241767Y1179056*
X1242108Y1178899*
X1243131*
X1242335D02*
G01X1241540Y1177181D01*
X1238926Y1180462D02*
G01X1240063Y1177181D01*
X1240517Y1180462D02*
G01X1238926D01*
X1206580Y1133428D02*
G01Y1130147D01*
Y1133428D02*
G01X1205557D01*
X1205216Y1133272*
X1205102Y1133116*
X1204989Y1132803*
Y1132491*
X1205102Y1132178*
X1205216Y1132022*
X1205557Y1131866*
X1206580*
X1205784D02*
G01X1204989Y1130147D01*
X1203398Y1133428D02*
G01X1203739Y1133272D01*
X1203852Y1132959*
Y1132647*
X1203739Y1132334*
X1203511Y1132178*
X1203057Y1132022*
X1202716Y1131866*
X1202489Y1131553*
X1202375Y1131241*
Y1130772*
X1202489Y1130459*
X1202602Y1130303*
X1202943Y1130147*
X1203398*
X1203739Y1130303*
X1203852Y1130459*
X1203966Y1130772*
Y1131241*
X1203852Y1131553*
X1203625Y1131866*
X1203284Y1132022*
X1202830Y1132178*
X1202602Y1132334*
X1202489Y1132647*
Y1132959*
X1202602Y1133272*
X1202943Y1133428*
X1203398*
X1208475Y1039328D02*
G01Y1036047D01*
Y1039328D02*
G01X1207452D01*
X1207111Y1039172*
X1206998Y1039016*
X1206884Y1038703*
Y1038391*
X1206998Y1038078*
X1207111Y1037922*
X1207452Y1037766*
X1208475*
X1207680D02*
G01X1206884Y1036047D01*
X1205861Y1038703D02*
G01X1205634Y1038859D01*
X1205293Y1039328*
Y1036047*
X1203589Y1039328D02*
G01X1203930Y1039172D01*
X1204157Y1038703*
X1204270Y1037922*
Y1037453*
X1204157Y1036672*
X1203930Y1036203*
X1203589Y1036047*
X1203361*
X1203020Y1036203*
X1202793Y1036672*
X1202680Y1037453*
Y1037922*
X1202793Y1038703*
X1203020Y1039172*
X1203361Y1039328*
X1203589*
X1120728Y1034336D02*
G01X1117447D01*
X1120728D02*
G01Y1035359D01*
X1120572Y1035700*
X1120416Y1035814*
X1120103Y1035927*
X1119791*
X1119478Y1035814*
X1119322Y1035700*
X1119166Y1035359*
Y1034336*
Y1035132D02*
G01X1117447Y1035927D01*
X1120103Y1036950D02*
G01X1120259Y1037177D01*
X1120728Y1037518*
X1117447*
X1120103Y1038541D02*
G01X1120259Y1038768D01*
X1120728Y1039109*
X1117447*
X1143257Y1034617D02*
G01X1139976D01*
X1143257D02*
G01Y1035640D01*
X1143101Y1035981*
X1142945Y1036094*
X1142632Y1036208*
X1142320*
X1142007Y1036094*
X1141851Y1035981*
X1141695Y1035640*
Y1034617*
Y1035413D02*
G01X1139976Y1036208D01*
X1142632Y1037231D02*
G01X1142789Y1037458D01*
X1143257Y1037799*
X1139976*
X1142476Y1038935D02*
G01X1142632D01*
X1142945Y1039049*
X1143101Y1039163*
X1143257Y1039390*
Y1039844*
X1143101Y1040072*
X1142945Y1040185*
X1142632Y1040299*
X1142320*
X1142007Y1040185*
X1141539Y1039958*
X1139976Y1038822*
Y1040413*
X1183775Y1043328D02*
G01Y1040047D01*
Y1043328D02*
G01X1182752D01*
X1182411Y1043172*
X1182298Y1043016*
X1182184Y1042703*
Y1042391*
X1182298Y1042078*
X1182411Y1041922*
X1182752Y1041766*
X1183775*
X1182980D02*
G01X1182184Y1040047D01*
X1181161Y1042703D02*
G01X1180934Y1042859D01*
X1180593Y1043328*
Y1040047*
X1179343Y1043328D02*
G01X1178093D01*
X1178775Y1042078*
X1178434*
X1178207Y1041922*
X1178093Y1041766*
X1177980Y1041297*
Y1040984*
X1178093Y1040516*
X1178320Y1040203*
X1178661Y1040047*
X1179002*
X1179343Y1040203*
X1179457Y1040359*
X1179570Y1040672*
X1195632Y1056528D02*
G01Y1053247D01*
Y1056528D02*
G01X1194609D01*
X1194268Y1056372*
X1194155Y1056216*
X1194041Y1055903*
Y1055591*
X1194155Y1055278*
X1194268Y1055122*
X1194609Y1054966*
X1195632*
X1194836D02*
G01X1194041Y1053247D01*
X1193018Y1055903D02*
G01X1192791Y1056059D01*
X1192450Y1056528*
Y1053247*
X1190291Y1056528D02*
G01X1191427Y1054341D01*
X1189723*
X1190291Y1056528D02*
G01Y1053247D01*
X1189032Y1022128D02*
G01Y1018847D01*
Y1022128D02*
G01X1188009D01*
X1187668Y1021972*
X1187555Y1021816*
X1187441Y1021503*
Y1021191*
X1187555Y1020878*
X1187668Y1020722*
X1188009Y1020566*
X1189032*
X1188236D02*
G01X1187441Y1018847D01*
X1186418Y1021503D02*
G01X1186191Y1021659D01*
X1185850Y1022128*
Y1018847*
X1183350Y1022128D02*
G01X1184486D01*
X1184600Y1020722*
X1184486Y1020878*
X1184145Y1021034*
X1183805*
X1183464Y1020878*
X1183236Y1020566*
X1183123Y1020097*
X1183236Y1019784*
X1183350Y1019316*
X1183577Y1019003*
X1183918Y1018847*
X1184259*
X1184600Y1019003*
X1184714Y1019159*
X1184827Y1019472*
X1202518Y1032728D02*
G01Y1029447D01*
Y1032728D02*
G01X1201495D01*
X1201155Y1032572*
X1201041Y1032416*
X1200927Y1032103*
Y1031791*
X1201041Y1031478*
X1201155Y1031322*
X1201495Y1031166*
X1202518*
X1201723D02*
G01X1200927Y1029447D01*
X1199905Y1032103D02*
G01X1199677Y1032259D01*
X1199336Y1032728*
Y1029447*
X1196950Y1032259D02*
G01X1197064Y1032572D01*
X1197405Y1032728*
X1197632*
X1197973Y1032572*
X1198200Y1032103*
X1198314Y1031322*
Y1030541*
X1198200Y1029916*
X1197973Y1029603*
X1197632Y1029447*
X1197518*
X1197177Y1029603*
X1196950Y1029916*
X1196836Y1030384*
Y1030541*
X1196950Y1031009*
X1197177Y1031322*
X1197518Y1031478*
X1197632*
X1197973Y1031322*
X1198200Y1031009*
X1198314Y1030541*
X1214875Y1031628D02*
G01Y1028347D01*
Y1031628D02*
G01X1213852D01*
X1213511Y1031472*
X1213398Y1031316*
X1213284Y1031003*
Y1030691*
X1213398Y1030378*
X1213511Y1030222*
X1213852Y1030066*
X1214875*
X1214080D02*
G01X1213284Y1028347D01*
X1212261Y1031003D02*
G01X1212034Y1031159D01*
X1211693Y1031628*
Y1028347*
X1209080Y1031628D02*
G01X1210216Y1028347D01*
X1210670Y1031628D02*
G01X1209080D01*
X1220928Y1067125D02*
G01X1217647D01*
X1220928D02*
G01Y1068148D01*
X1220772Y1068489*
X1220616Y1068602*
X1220303Y1068716*
X1219991*
X1219678Y1068602*
X1219522Y1068489*
X1219366Y1068148*
Y1067125*
Y1067920D02*
G01X1217647Y1068716D01*
X1220303Y1069739D02*
G01X1220459Y1069966D01*
X1220928Y1070307*
X1217647*
X1220928Y1071898D02*
G01X1220772Y1071557D01*
X1220459Y1071443*
X1220147*
X1219834Y1071557*
X1219678Y1071784*
X1219522Y1072239*
X1219366Y1072580*
X1219053Y1072807*
X1218741Y1072920*
X1218272*
X1217959Y1072807*
X1217803Y1072693*
X1217647Y1072352*
Y1071898*
X1217803Y1071557*
X1217959Y1071443*
X1218272Y1071330*
X1218741*
X1219053Y1071443*
X1219366Y1071670*
X1219522Y1072011*
X1219678Y1072466*
X1219834Y1072693*
X1220147Y1072807*
X1220459*
X1220772Y1072693*
X1220928Y1072352*
Y1071898*
X1327186Y1195428D02*
G01Y1192147D01*
Y1195428D02*
G01X1326164D01*
X1325823Y1195272*
X1325709Y1195116*
X1325595Y1194803*
Y1194491*
X1325709Y1194178*
X1325823Y1194022*
X1326164Y1193866*
X1327186*
X1326391D02*
G01X1325595Y1192147D01*
X1324459Y1194647D02*
G01Y1194803D01*
X1324345Y1195116*
X1324232Y1195272*
X1324005Y1195428*
X1323550*
X1323323Y1195272*
X1323209Y1195116*
X1323095Y1194803*
Y1194491*
X1323209Y1194178*
X1323436Y1193709*
X1324573Y1192147*
X1322982*
X1321277Y1195428D02*
G01X1321618Y1195272D01*
X1321845Y1194803*
X1321959Y1194022*
Y1193553*
X1321845Y1192772*
X1321618Y1192303*
X1321277Y1192147*
X1321050*
X1320709Y1192303*
X1320482Y1192772*
X1320368Y1193553*
Y1194022*
X1320482Y1194803*
X1320709Y1195272*
X1321050Y1195428*
X1321277*
X1248375Y1119832D02*
G01Y1116551D01*
Y1119832D02*
G01X1247352D01*
X1247011Y1119676*
X1246897Y1119520*
X1246784Y1119207*
Y1118895*
X1246897Y1118582*
X1247011Y1118426*
X1247352Y1118270*
X1248375*
X1247579D02*
G01X1246784Y1116551D01*
X1245647Y1119051D02*
G01Y1119207D01*
X1245534Y1119520*
X1245420Y1119676*
X1245193Y1119832*
X1244738*
X1244511Y1119676*
X1244397Y1119520*
X1244284Y1119207*
Y1118895*
X1244397Y1118582*
X1244625Y1118113*
X1245761Y1116551*
X1244170*
X1243034Y1119051D02*
G01Y1119207D01*
X1242920Y1119520*
X1242806Y1119676*
X1242579Y1119832*
X1242125*
X1241897Y1119676*
X1241784Y1119520*
X1241670Y1119207*
Y1118895*
X1241784Y1118582*
X1242011Y1118113*
X1243147Y1116551*
X1241556*
X1248375Y1113533D02*
G01Y1110252D01*
Y1113533D02*
G01X1247352D01*
X1247011Y1113377*
X1246897Y1113220*
X1246784Y1112908*
Y1112595*
X1246897Y1112283*
X1247011Y1112127*
X1247352Y1111970*
X1248375*
X1247579D02*
G01X1246784Y1110252D01*
X1245647Y1112752D02*
G01Y1112908D01*
X1245534Y1113220*
X1245420Y1113377*
X1245193Y1113533*
X1244738*
X1244511Y1113377*
X1244397Y1113220*
X1244284Y1112908*
Y1112595*
X1244397Y1112283*
X1244625Y1111814*
X1245761Y1110252*
X1244170*
X1242920Y1113533D02*
G01X1241670D01*
X1242352Y1112283*
X1242011*
X1241784Y1112127*
X1241670Y1111970*
X1241556Y1111502*
Y1111189*
X1241670Y1110720*
X1241897Y1110408*
X1242238Y1110252*
X1242579*
X1242920Y1110408*
X1243034Y1110564*
X1243147Y1110877*
X1082443Y1130928D02*
G01Y1127647D01*
Y1130928D02*
G01X1081420D01*
X1081080Y1130772*
X1080966Y1130616*
X1080852Y1130303*
Y1129991*
X1080966Y1129678*
X1081080Y1129522*
X1081420Y1129366*
X1082443*
X1081648D02*
G01X1080852Y1127647D01*
X1079716Y1130147D02*
G01Y1130303D01*
X1079602Y1130616*
X1079489Y1130772*
X1079261Y1130928*
X1078807*
X1078580Y1130772*
X1078466Y1130616*
X1078352Y1130303*
Y1129991*
X1078466Y1129678*
X1078693Y1129209*
X1079830Y1127647*
X1078239*
X1076080Y1130928D02*
G01X1077216Y1128741D01*
X1075511*
X1076080Y1130928D02*
G01Y1127647D01*
X1242086Y1107428D02*
G01Y1104147D01*
Y1107428D02*
G01X1241064D01*
X1240723Y1107272*
X1240609Y1107116*
X1240495Y1106803*
Y1106491*
X1240609Y1106178*
X1240723Y1106022*
X1241064Y1105866*
X1242086*
X1241291D02*
G01X1240495Y1104147D01*
X1239359Y1106647D02*
G01Y1106803D01*
X1239245Y1107116*
X1239132Y1107272*
X1238905Y1107428*
X1238450*
X1238223Y1107272*
X1238109Y1107116*
X1237995Y1106803*
Y1106491*
X1238109Y1106178*
X1238336Y1105709*
X1239473Y1104147*
X1237882*
X1235268Y1107428D02*
G01X1236405Y1104147D01*
X1236859Y1107428D02*
G01X1235268D01*
X1198330Y1079028D02*
G01Y1075747D01*
Y1079028D02*
G01X1197307D01*
X1196966Y1078872*
X1196852Y1078716*
X1196739Y1078403*
Y1078091*
X1196852Y1077778*
X1196966Y1077622*
X1197307Y1077466*
X1198330*
X1197534D02*
G01X1196739Y1075747D01*
X1195489Y1079028D02*
G01X1194239D01*
X1194920Y1077778*
X1194580*
X1194352Y1077622*
X1194239Y1077466*
X1194125Y1076997*
Y1076684*
X1194239Y1076216*
X1194466Y1075903*
X1194807Y1075747*
X1195148*
X1195489Y1075903*
X1195602Y1076059*
X1195716Y1076372*
X1191739Y1078559D02*
G01X1191852Y1078872D01*
X1192193Y1079028*
X1192420*
X1192761Y1078872*
X1192989Y1078403*
X1193102Y1077622*
Y1076841*
X1192989Y1076216*
X1192761Y1075903*
X1192420Y1075747*
X1192307*
X1191966Y1075903*
X1191739Y1076216*
X1191625Y1076684*
Y1076841*
X1191739Y1077309*
X1191966Y1077622*
X1192307Y1077778*
X1192420*
X1192761Y1077622*
X1192989Y1077309*
X1193102Y1076841*
X1068128Y1089514D02*
G01X1064847D01*
X1068128D02*
G01Y1090536D01*
X1067972Y1090877*
X1067816Y1090991*
X1067503Y1091105*
X1067191*
X1066878Y1090991*
X1066722Y1090877*
X1066566Y1090536*
Y1089514*
Y1090309D02*
G01X1064847Y1091105D01*
X1068128Y1092355D02*
G01Y1093605D01*
X1066878Y1092923*
Y1093264*
X1066722Y1093491*
X1066566Y1093605*
X1066097Y1093718*
X1065784*
X1065316Y1093605*
X1065003Y1093377*
X1064847Y1093036*
Y1092695*
X1065003Y1092355*
X1065159Y1092241*
X1065472Y1092127*
X1068128Y1096332D02*
G01X1064847Y1095195D01*
X1068128Y1094741D02*
G01Y1096332D01*
X1057028Y1090414D02*
G01X1053747D01*
X1057028D02*
G01Y1091436D01*
X1056872Y1091777*
X1056716Y1091891*
X1056403Y1092005*
X1056091*
X1055778Y1091891*
X1055622Y1091777*
X1055466Y1091436*
Y1090414*
Y1091209D02*
G01X1053747Y1092005D01*
X1057028Y1093255D02*
G01Y1094505D01*
X1055778Y1093823*
Y1094164*
X1055622Y1094391*
X1055466Y1094505*
X1054997Y1094618*
X1054684*
X1054216Y1094505*
X1053903Y1094277*
X1053747Y1093936*
Y1093595*
X1053903Y1093255*
X1054059Y1093141*
X1054372Y1093027*
X1057028Y1096209D02*
G01X1056872Y1095868D01*
X1056559Y1095755*
X1056247*
X1055934Y1095868*
X1055778Y1096095*
X1055622Y1096550*
X1055466Y1096891*
X1055153Y1097118*
X1054841Y1097232*
X1054372*
X1054059Y1097118*
X1053903Y1097005*
X1053747Y1096664*
Y1096209*
X1053903Y1095868*
X1054059Y1095755*
X1054372Y1095641*
X1054841*
X1055153Y1095755*
X1055466Y1095982*
X1055622Y1096323*
X1055778Y1096777*
X1055934Y1097005*
X1056247Y1097118*
X1056559*
X1056872Y1097005*
X1057028Y1096664*
Y1096209*
X1118130Y1042928D02*
G01Y1039647D01*
Y1042928D02*
G01X1117107D01*
X1116766Y1042772*
X1116652Y1042616*
X1116539Y1042303*
Y1041991*
X1116652Y1041678*
X1116766Y1041522*
X1117107Y1041366*
X1118130*
X1117334D02*
G01X1116539Y1039647D01*
X1115289Y1042928D02*
G01X1114039D01*
X1114720Y1041678*
X1114380*
X1114152Y1041522*
X1114039Y1041366*
X1113925Y1040897*
Y1040584*
X1114039Y1040116*
X1114266Y1039803*
X1114607Y1039647*
X1114948*
X1115289Y1039803*
X1115402Y1039959*
X1115516Y1040272*
X1111425Y1041834D02*
G01X1111539Y1041366D01*
X1111766Y1041053*
X1112107Y1040897*
X1112220*
X1112561Y1041053*
X1112789Y1041366*
X1112902Y1041834*
Y1041991*
X1112789Y1042459*
X1112561Y1042772*
X1112220Y1042928*
X1112107*
X1111766Y1042772*
X1111539Y1042459*
X1111425Y1041834*
Y1041053*
X1111539Y1040272*
X1111766Y1039803*
X1112107Y1039647*
X1112334*
X1112675Y1039803*
X1112789Y1040116*
X1123243Y1064428D02*
G01Y1061147D01*
Y1064428D02*
G01X1122220D01*
X1121880Y1064272*
X1121766Y1064116*
X1121652Y1063803*
Y1063491*
X1121766Y1063178*
X1121880Y1063022*
X1122220Y1062866*
X1123243*
X1122448D02*
G01X1121652Y1061147D01*
X1119493Y1064428D02*
G01X1120630Y1062241D01*
X1118925*
X1119493Y1064428D02*
G01Y1061147D01*
X1117220Y1064428D02*
G01X1117561Y1064272D01*
X1117789Y1063803*
X1117902Y1063022*
Y1062553*
X1117789Y1061772*
X1117561Y1061303*
X1117220Y1061147*
X1116993*
X1116652Y1061303*
X1116425Y1061772*
X1116311Y1062553*
Y1063022*
X1116425Y1063803*
X1116652Y1064272*
X1116993Y1064428*
X1117220*
X1154932Y1074828D02*
G01Y1071547D01*
Y1074828D02*
G01X1153909D01*
X1153568Y1074672*
X1153455Y1074516*
X1153341Y1074203*
Y1073891*
X1153455Y1073578*
X1153568Y1073422*
X1153909Y1073266*
X1154932*
X1154136D02*
G01X1153341Y1071547D01*
X1151182Y1074828D02*
G01X1152318Y1072641D01*
X1150614*
X1151182Y1074828D02*
G01Y1071547D01*
X1149591Y1074203D02*
G01X1149364Y1074359D01*
X1149023Y1074828*
Y1071547*
X1149443Y1045228D02*
G01Y1041947D01*
Y1045228D02*
G01X1148420D01*
X1148080Y1045072*
X1147966Y1044916*
X1147852Y1044603*
Y1044291*
X1147966Y1043978*
X1148080Y1043822*
X1148420Y1043666*
X1149443*
X1148648D02*
G01X1147852Y1041947D01*
X1145693Y1045228D02*
G01X1146830Y1043041D01*
X1145125*
X1145693Y1045228D02*
G01Y1041947D01*
X1143989Y1044447D02*
G01Y1044603D01*
X1143875Y1044916*
X1143761Y1045072*
X1143534Y1045228*
X1143080*
X1142852Y1045072*
X1142739Y1044916*
X1142625Y1044603*
Y1044291*
X1142739Y1043978*
X1142966Y1043509*
X1144102Y1041947*
X1142511*
X1084793Y1103931D02*
G01X1081511D01*
X1084793D02*
G01Y1104954D01*
X1084636Y1105294*
X1084480Y1105408*
X1084168Y1105522*
X1083855*
X1083543Y1105408*
X1083386Y1105294*
X1083230Y1104954*
Y1103931*
Y1104726D02*
G01X1081511Y1105522D01*
X1084793Y1107681D02*
G01X1082605Y1106544D01*
Y1108249*
X1084793Y1107681D02*
G01X1081511D01*
X1084793Y1109499D02*
G01Y1110749D01*
X1083543Y1110067*
Y1110408*
X1083386Y1110635*
X1083230Y1110749*
X1082761Y1110863*
X1082449*
X1081980Y1110749*
X1081668Y1110522*
X1081511Y1110181*
Y1109840*
X1081668Y1109499*
X1081824Y1109385*
X1082136Y1109272*
X1125600Y1132928D02*
G01Y1129647D01*
Y1132928D02*
G01X1124577D01*
X1124236Y1132772*
X1124123Y1132616*
X1124009Y1132303*
Y1131991*
X1124123Y1131678*
X1124236Y1131522*
X1124577Y1131366*
X1125600*
X1124805D02*
G01X1124009Y1129647D01*
X1121850Y1132928D02*
G01X1122986Y1130741D01*
X1121282*
X1121850Y1132928D02*
G01Y1129647D01*
X1119123Y1132928D02*
G01X1120259Y1130741D01*
X1118555*
X1119123Y1132928D02*
G01Y1129647D01*
X1098179Y1073870D02*
G01X1094897D01*
X1098179D02*
G01Y1074892D01*
X1098022Y1075233*
X1097866Y1075347*
X1097554Y1075460*
X1097241*
X1096929Y1075347*
X1096772Y1075233*
X1096616Y1074892*
Y1073870*
Y1074665D02*
G01X1094897Y1075460D01*
X1098179Y1077620D02*
G01X1095991Y1076483D01*
Y1078188*
X1098179Y1077620D02*
G01X1094897D01*
X1097710Y1080574D02*
G01X1098022Y1080460D01*
X1098179Y1080120*
Y1079892*
X1098022Y1079551*
X1097554Y1079324*
X1096772Y1079210*
X1095991*
X1095366Y1079324*
X1095054Y1079551*
X1094897Y1079892*
Y1080006*
X1095054Y1080347*
X1095366Y1080574*
X1095835Y1080688*
X1095991*
X1096460Y1080574*
X1096772Y1080347*
X1096929Y1080006*
Y1079892*
X1096772Y1079551*
X1096460Y1079324*
X1095991Y1079210*
X1091682Y1073616D02*
G01X1088401D01*
X1091682D02*
G01Y1074639D01*
X1091526Y1074980*
X1091370Y1075093*
X1091057Y1075207*
X1090745*
X1090432Y1075093*
X1090276Y1074980*
X1090120Y1074639*
Y1073616*
Y1074411D02*
G01X1088401Y1075207D01*
X1091682Y1077366D02*
G01X1089495Y1076230D01*
Y1077934*
X1091682Y1077366D02*
G01X1088401D01*
X1091682Y1080548D02*
G01X1088401Y1079411D01*
X1091682Y1078957D02*
G01Y1080548D01*
X1088028Y1077357D02*
G01X1084747D01*
X1088028D02*
G01Y1078380D01*
X1087872Y1078720*
X1087716Y1078834*
X1087403Y1078948*
X1087091*
X1086778Y1078834*
X1086622Y1078720*
X1086466Y1078380*
Y1077357*
Y1078152D02*
G01X1084747Y1078948D01*
X1088028Y1081107D02*
G01X1085841Y1079970D01*
Y1081675*
X1088028Y1081107D02*
G01X1084747D01*
X1088028Y1083266D02*
G01X1087872Y1082925D01*
X1087559Y1082811*
X1087247*
X1086934Y1082925*
X1086778Y1083152*
X1086622Y1083607*
X1086466Y1083948*
X1086153Y1084175*
X1085841Y1084289*
X1085372*
X1085059Y1084175*
X1084903Y1084061*
X1084747Y1083720*
Y1083266*
X1084903Y1082925*
X1085059Y1082811*
X1085372Y1082698*
X1085841*
X1086153Y1082811*
X1086466Y1083039*
X1086622Y1083380*
X1086778Y1083834*
X1086934Y1084061*
X1087247Y1084175*
X1087559*
X1087872Y1084061*
X1088028Y1083720*
Y1083266*
X1052928Y1136614D02*
G01X1049647D01*
X1052928D02*
G01Y1137636D01*
X1052772Y1137977*
X1052616Y1138091*
X1052303Y1138205*
X1051991*
X1051678Y1138091*
X1051522Y1137977*
X1051366Y1137636*
Y1136614*
Y1137409D02*
G01X1049647Y1138205D01*
X1052928Y1140364D02*
G01X1050741Y1139227D01*
Y1140932*
X1052928Y1140364D02*
G01X1049647D01*
X1051834Y1143432D02*
G01X1051366Y1143318D01*
X1051053Y1143091*
X1050897Y1142750*
Y1142636*
X1051053Y1142295*
X1051366Y1142068*
X1051834Y1141955*
X1051991*
X1052459Y1142068*
X1052772Y1142295*
X1052928Y1142636*
Y1142750*
X1052772Y1143091*
X1052459Y1143318*
X1051834Y1143432*
X1051053*
X1050272Y1143318*
X1049803Y1143091*
X1049647Y1142750*
Y1142523*
X1049803Y1142182*
X1050116Y1142068*
X1062928Y1114457D02*
G01X1059647D01*
X1062928D02*
G01Y1115480D01*
X1062772Y1115820*
X1062616Y1115934*
X1062303Y1116048*
X1061991*
X1061678Y1115934*
X1061522Y1115820*
X1061366Y1115480*
Y1114457*
Y1115252D02*
G01X1059647Y1116048D01*
X1062928Y1118548D02*
G01Y1117411D01*
X1061522Y1117298*
X1061678Y1117411*
X1061834Y1117752*
Y1118093*
X1061678Y1118434*
X1061366Y1118661*
X1060897Y1118775*
X1060584Y1118661*
X1060116Y1118548*
X1059803Y1118320*
X1059647Y1117980*
Y1117639*
X1059803Y1117298*
X1059959Y1117184*
X1060272Y1117070*
X1062928Y1120480D02*
G01X1062772Y1120139D01*
X1062303Y1119911*
X1061522Y1119798*
X1061053*
X1060272Y1119911*
X1059803Y1120139*
X1059647Y1120480*
Y1120707*
X1059803Y1121048*
X1060272Y1121275*
X1061053Y1121389*
X1061522*
X1062303Y1121275*
X1062772Y1121048*
X1062928Y1120707*
Y1120480*
X1232128Y1087768D02*
G01X1228847D01*
X1232128D02*
G01Y1088791D01*
X1231972Y1089132*
X1231816Y1089245*
X1231503Y1089359*
X1231191*
X1230878Y1089245*
X1230722Y1089132*
X1230566Y1088791*
Y1087768*
Y1088564D02*
G01X1228847Y1089359D01*
X1232128Y1091859D02*
G01Y1090723D01*
X1230722Y1090609*
X1230878Y1090723*
X1231034Y1091064*
Y1091405*
X1230878Y1091745*
X1230566Y1091973*
X1230097Y1092086*
X1229784Y1091973*
X1229316Y1091859*
X1229003Y1091632*
X1228847Y1091291*
Y1090950*
X1229003Y1090609*
X1229159Y1090495*
X1229472Y1090382*
X1231503Y1093109D02*
G01X1231659Y1093336D01*
X1232128Y1093677*
X1228847*
X1241986Y1057828D02*
G01Y1054547D01*
Y1057828D02*
G01X1240964D01*
X1240623Y1057672*
X1240509Y1057516*
X1240395Y1057203*
Y1056891*
X1240509Y1056578*
X1240623Y1056422*
X1240964Y1056266*
X1241986*
X1241191D02*
G01X1240395Y1054547D01*
X1237895Y1057828D02*
G01X1239032D01*
X1239145Y1056422*
X1239032Y1056578*
X1238691Y1056734*
X1238350*
X1238009Y1056578*
X1237782Y1056266*
X1237668Y1055797*
X1237782Y1055484*
X1237895Y1055016*
X1238123Y1054703*
X1238464Y1054547*
X1238805*
X1239145Y1054703*
X1239259Y1054859*
X1239373Y1055172*
X1235282Y1057359D02*
G01X1235395Y1057672D01*
X1235736Y1057828*
X1235964*
X1236305Y1057672*
X1236532Y1057203*
X1236645Y1056422*
Y1055641*
X1236532Y1055016*
X1236305Y1054703*
X1235964Y1054547*
X1235850*
X1235509Y1054703*
X1235282Y1055016*
X1235168Y1055484*
Y1055641*
X1235282Y1056109*
X1235509Y1056422*
X1235850Y1056578*
X1235964*
X1236305Y1056422*
X1236532Y1056109*
X1236645Y1055641*
X1029534Y1121997D02*
G01Y1118716D01*
Y1121997D02*
G01X1028511D01*
X1028170Y1121841*
X1028056Y1121685*
X1027943Y1121372*
Y1121060*
X1028056Y1120747*
X1028170Y1120591*
X1028511Y1120435*
X1029534*
X1028738D02*
G01X1027943Y1118716D01*
X1025443Y1121997D02*
G01X1026579D01*
X1026693Y1120591*
X1026579Y1120747*
X1026238Y1120904*
X1025897*
X1025556Y1120747*
X1025329Y1120435*
X1025216Y1119966*
X1025329Y1119654*
X1025443Y1119185*
X1025670Y1118872*
X1026011Y1118716*
X1026352*
X1026693Y1118872*
X1026806Y1119029*
X1026920Y1119341*
X1022602Y1121997D02*
G01X1023738Y1118716D01*
X1024193Y1121997D02*
G01X1022602D01*
X1025143Y1130428D02*
G01Y1127147D01*
Y1130428D02*
G01X1024120D01*
X1023780Y1130272*
X1023666Y1130116*
X1023552Y1129803*
Y1129491*
X1023666Y1129178*
X1023780Y1129022*
X1024120Y1128866*
X1025143*
X1024348D02*
G01X1023552Y1127147D01*
X1021052Y1130428D02*
G01X1022189D01*
X1022302Y1129022*
X1022189Y1129178*
X1021848Y1129334*
X1021507*
X1021166Y1129178*
X1020939Y1128866*
X1020825Y1128397*
X1020939Y1128084*
X1021052Y1127616*
X1021280Y1127303*
X1021620Y1127147*
X1021961*
X1022302Y1127303*
X1022416Y1127459*
X1022530Y1127772*
X1019234Y1130428D02*
G01X1019575Y1130272D01*
X1019689Y1129959*
Y1129647*
X1019575Y1129334*
X1019348Y1129178*
X1018893Y1129022*
X1018552Y1128866*
X1018325Y1128553*
X1018211Y1128241*
Y1127772*
X1018325Y1127459*
X1018439Y1127303*
X1018780Y1127147*
X1019234*
X1019575Y1127303*
X1019689Y1127459*
X1019802Y1127772*
Y1128241*
X1019689Y1128553*
X1019461Y1128866*
X1019120Y1129022*
X1018666Y1129178*
X1018439Y1129334*
X1018325Y1129647*
Y1129959*
X1018439Y1130272*
X1018780Y1130428*
X1019234*
X1293256Y1166682D02*
G01Y1163401D01*
Y1166682D02*
G01X1292234D01*
X1291893Y1166526*
X1291779Y1166370*
X1291666Y1166057*
Y1165745*
X1291779Y1165432*
X1291893Y1165276*
X1292234Y1165120*
X1293256*
X1292461D02*
G01X1291666Y1163401D01*
X1289279Y1166214D02*
G01X1289393Y1166526D01*
X1289734Y1166682*
X1289961*
X1290302Y1166526*
X1290529Y1166057*
X1290643Y1165276*
Y1164495*
X1290529Y1163870*
X1290302Y1163557*
X1289961Y1163401*
X1289847*
X1289506Y1163557*
X1289279Y1163870*
X1289166Y1164339*
Y1164495*
X1289279Y1164964*
X1289506Y1165276*
X1289847Y1165432*
X1289961*
X1290302Y1165276*
X1290529Y1164964*
X1290643Y1164495*
X1286666Y1166682D02*
G01X1287802D01*
X1287916Y1165276*
X1287802Y1165432*
X1287461Y1165589*
X1287120*
X1286779Y1165432*
X1286552Y1165120*
X1286438Y1164651*
X1286552Y1164339*
X1286666Y1163870*
X1286893Y1163557*
X1287234Y1163401*
X1287575*
X1287916Y1163557*
X1288029Y1163714*
X1288143Y1164026*
X1298064Y1197785D02*
G01Y1194504D01*
Y1197785D02*
G01X1297041D01*
X1296700Y1197629*
X1296587Y1197472*
X1296473Y1197160*
Y1196847*
X1296587Y1196535*
X1296700Y1196379*
X1297041Y1196222*
X1298064*
X1297269D02*
G01X1296473Y1194504D01*
X1294087Y1197316D02*
G01X1294200Y1197629D01*
X1294541Y1197785*
X1294769*
X1295110Y1197629*
X1295337Y1197160*
X1295450Y1196379*
Y1195597*
X1295337Y1194972*
X1295110Y1194660*
X1294769Y1194504*
X1294655*
X1294314Y1194660*
X1294087Y1194972*
X1293973Y1195441*
Y1195597*
X1294087Y1196066*
X1294314Y1196379*
X1294655Y1196535*
X1294769*
X1295110Y1196379*
X1295337Y1196066*
X1295450Y1195597*
X1291587Y1197316D02*
G01X1291700Y1197629D01*
X1292041Y1197785*
X1292269*
X1292610Y1197629*
X1292837Y1197160*
X1292950Y1196379*
Y1195597*
X1292837Y1194972*
X1292610Y1194660*
X1292269Y1194504*
X1292155*
X1291814Y1194660*
X1291587Y1194972*
X1291473Y1195441*
Y1195597*
X1291587Y1196066*
X1291814Y1196379*
X1292155Y1196535*
X1292269*
X1292610Y1196379*
X1292837Y1196066*
X1292950Y1195597*
X1045728Y1072770D02*
G01X1042447D01*
X1045728D02*
G01Y1073793D01*
X1045572Y1074134*
X1045416Y1074248*
X1045103Y1074361*
X1044791*
X1044478Y1074248*
X1044322Y1074134*
X1044166Y1073793*
Y1072770*
Y1073566D02*
G01X1042447Y1074361D01*
X1045259Y1076748D02*
G01X1045572Y1076634D01*
X1045728Y1076293*
Y1076066*
X1045572Y1075725*
X1045103Y1075498*
X1044322Y1075384*
X1043541*
X1042916Y1075498*
X1042603Y1075725*
X1042447Y1076066*
Y1076180*
X1042603Y1076520*
X1042916Y1076748*
X1043384Y1076861*
X1043541*
X1044009Y1076748*
X1044322Y1076520*
X1044478Y1076180*
Y1076066*
X1044322Y1075725*
X1044009Y1075498*
X1043541Y1075384*
X1045728Y1078452D02*
G01X1045572Y1078111D01*
X1045259Y1077998*
X1044947*
X1044634Y1078111*
X1044478Y1078339*
X1044322Y1078793*
X1044166Y1079134*
X1043853Y1079361*
X1043541Y1079475*
X1043072*
X1042759Y1079361*
X1042603Y1079248*
X1042447Y1078907*
Y1078452*
X1042603Y1078111*
X1042759Y1077998*
X1043072Y1077884*
X1043541*
X1043853Y1077998*
X1044166Y1078225*
X1044322Y1078566*
X1044478Y1079020*
X1044634Y1079248*
X1044947Y1079361*
X1045259*
X1045572Y1079248*
X1045728Y1078907*
Y1078452*
X1134526Y1263927D02*
G01Y1261583D01*
X1134412Y1261114*
X1134185Y1260802*
X1133844Y1260645*
X1133617*
X1133276Y1260802*
X1133049Y1261114*
X1132935Y1261583*
Y1263927*
X1130435D02*
G01X1131572D01*
X1131685Y1262520*
X1131572Y1262677*
X1131231Y1262833*
X1130890*
X1130549Y1262677*
X1130322Y1262364*
X1130208Y1261895*
X1130322Y1261583*
X1130435Y1261114*
X1130662Y1260802*
X1131003Y1260645*
X1131344*
X1131685Y1260802*
X1131799Y1260958*
X1131912Y1261270*
X1202580Y1165895D02*
G01Y1163551D01*
X1202466Y1163083*
X1202239Y1162770*
X1201898Y1162614*
X1201670*
X1201330Y1162770*
X1201102Y1163083*
X1200989Y1163551*
Y1165895*
X1198375D02*
G01X1199511Y1162614D01*
X1199966Y1165895D02*
G01X1198375D01*
X1201145Y1264123D02*
G01Y1261780D01*
X1201031Y1261311*
X1200804Y1260998*
X1200463Y1260842*
X1200236*
X1199895Y1260998*
X1199668Y1261311*
Y1261311D02*
G01X1199554Y1261780D01*
Y1264123*
X1197054Y1263030D02*
G01X1197168Y1262561D01*
Y1262561D02*
G01X1197395Y1262248D01*
X1197736Y1262092*
X1197849*
X1198190Y1262248*
X1198418Y1262561*
Y1262561D02*
G01X1198531Y1263030D01*
Y1263186*
X1198418Y1263655*
Y1263655D02*
G01X1198190Y1263967D01*
X1197849Y1264123*
X1197736*
X1197395Y1263967*
X1197168Y1263655*
Y1263655D02*
G01X1197054Y1263030D01*
Y1262248*
X1197168Y1261467*
Y1261467D02*
G01X1197395Y1260998D01*
X1197736Y1260842*
X1197963*
X1198304Y1260998*
X1198418Y1261311*
X1329828Y1166336D02*
G01X1327484D01*
X1327016Y1166450*
X1326703Y1166677*
X1326547Y1167018*
Y1167245*
X1326703Y1167586*
X1327016Y1167814*
X1327484Y1167927*
X1329828*
X1329203Y1168950D02*
G01X1329359Y1169177D01*
X1329828Y1169518*
X1326547*
X1329203Y1170541D02*
G01X1329359Y1170768D01*
X1329828Y1171109*
X1326547*
X1163923Y1089228D02*
G01Y1085947D01*
Y1089228D02*
G01X1163127D01*
X1162786Y1089072*
X1162559Y1088759*
X1162445Y1088447*
X1162332Y1087978*
Y1087197*
X1162445Y1086728*
X1162559Y1086416*
X1162786Y1086103*
X1163127Y1085947*
X1163923*
X1159832Y1088134D02*
G01X1159945Y1087666D01*
X1160173Y1087353*
X1160514Y1087197*
X1160627*
X1160968Y1087353*
X1161195Y1087666*
X1161309Y1088134*
Y1088291*
X1161195Y1088759*
X1160968Y1089072*
X1160627Y1089228*
X1160514*
X1160173Y1089072*
X1159945Y1088759*
X1159832Y1088134*
Y1087353*
X1159945Y1086572*
X1160173Y1086103*
X1160514Y1085947*
X1160741*
X1161082Y1086103*
X1161195Y1086416*
X1141828Y1056125D02*
G01X1139484D01*
X1139016Y1056239*
X1138703Y1056466*
X1138547Y1056807*
Y1057034*
X1138703Y1057375*
X1139016Y1057602*
X1139484Y1057716*
X1141828*
X1141203Y1058739D02*
G01X1141359Y1058966D01*
X1141828Y1059307*
X1138547*
X1141828Y1061920D02*
G01X1138547Y1060784D01*
X1141828Y1060330D02*
G01Y1061920D01*
X1064528Y1058325D02*
G01X1062184D01*
X1061716Y1058439*
X1061403Y1058666*
X1061247Y1059007*
Y1059234*
X1061403Y1059575*
X1061716Y1059802*
X1062184Y1059916*
X1064528*
X1063903Y1060939D02*
G01X1064059Y1061166D01*
X1064528Y1061507*
X1061247*
X1064528Y1063098D02*
G01X1064372Y1062757D01*
X1064059Y1062643*
X1063747*
X1063434Y1062757*
X1063278Y1062984*
X1063122Y1063439*
X1062966Y1063780*
X1062653Y1064007*
X1062341Y1064120*
X1061872*
X1061559Y1064007*
X1061403Y1063893*
X1061247Y1063552*
Y1063098*
X1061403Y1062757*
X1061559Y1062643*
X1061872Y1062530*
X1062341*
X1062653Y1062643*
X1062966Y1062870*
X1063122Y1063211*
X1063278Y1063666*
X1063434Y1063893*
X1063747Y1064007*
X1064059*
X1064372Y1063893*
X1064528Y1063552*
Y1063098*
X1071807Y1243029D02*
G01X1072119Y1242915D01*
X1072432Y1242688*
X1072588Y1242461*
Y1242006*
X1072432Y1241779*
X1072119Y1241552*
X1071807Y1241438*
X1071338Y1241324*
X1070557*
X1070088Y1241438*
X1069775Y1241552*
X1069463Y1241779*
X1069307Y1242006*
Y1242461*
X1069463Y1242688*
X1069775Y1242915*
X1070088Y1243029*
X1071963Y1244052D02*
G01X1072119Y1244279D01*
X1072588Y1244620*
X1069307*
X1072588Y1246324D02*
G01X1072432Y1245983D01*
X1071963Y1245756*
X1071182Y1245643*
X1070713*
X1069932Y1245756*
X1069463Y1245983*
X1069307Y1246324*
Y1246552*
X1069463Y1246893*
X1069932Y1247120*
X1070713Y1247233*
X1071182*
X1071963Y1247120*
X1072432Y1246893*
X1072588Y1246552*
Y1246324*
X1071807Y1248370D02*
G01X1071963D01*
X1072275Y1248483*
X1072432Y1248597*
X1072588Y1248824*
Y1249279*
X1072432Y1249506*
X1072275Y1249620*
X1071963Y1249733*
X1071650*
X1071338Y1249620*
X1070869Y1249393*
X1069307Y1248256*
Y1249847*
X1071847Y1203466D02*
G01X1072159Y1203352D01*
X1072472Y1203125*
X1072628Y1202898*
Y1202443*
X1072472Y1202216*
X1072159Y1201989*
X1071847Y1201875*
X1071378Y1201761*
X1070597*
X1070128Y1201875*
X1069816Y1201989*
X1069503Y1202216*
X1069347Y1202443*
Y1202898*
X1069503Y1203125*
X1069816Y1203352*
X1070128Y1203466*
X1072003Y1204489D02*
G01X1072159Y1204716D01*
X1072628Y1205057*
X1069347*
X1072628Y1206761D02*
G01X1072472Y1206420D01*
X1072003Y1206193*
X1071222Y1206080*
X1070753*
X1069972Y1206193*
X1069503Y1206420*
X1069347Y1206761*
Y1206989*
X1069503Y1207330*
X1069972Y1207557*
X1070753Y1207670*
X1071222*
X1072003Y1207557*
X1072472Y1207330*
X1072628Y1206989*
Y1206761*
Y1208920D02*
G01Y1210170D01*
X1071378Y1209489*
Y1209830*
X1071222Y1210057*
X1071066Y1210170*
X1070597Y1210284*
X1070284*
X1069816Y1210170*
X1069503Y1209943*
X1069347Y1209602*
Y1209261*
X1069503Y1208920*
X1069659Y1208807*
X1069972Y1208693*
X1144247Y1231109D02*
G01X1144559Y1230995D01*
X1144872Y1230768*
X1145028Y1230541*
Y1230086*
X1144872Y1229859*
X1144559Y1229632*
X1144247Y1229518*
X1143778Y1229405*
X1142997*
X1142528Y1229518*
X1142216Y1229632*
X1141903Y1229859*
X1141747Y1230086*
Y1230541*
X1141903Y1230768*
X1142216Y1230995*
X1142528Y1231109*
X1144403Y1232132D02*
G01X1144559Y1232359D01*
X1145028Y1232700*
X1141747*
X1145028Y1234405D02*
G01X1144872Y1234064D01*
X1144403Y1233836*
X1143622Y1233723*
X1143153*
X1142372Y1233836*
X1141903Y1234064*
X1141747Y1234405*
Y1234632*
X1141903Y1234973*
X1142372Y1235200*
X1143153Y1235314*
X1143622*
X1144403Y1235200*
X1144872Y1234973*
X1145028Y1234632*
Y1234405*
Y1237473D02*
G01X1142841Y1236336D01*
Y1238041*
X1145028Y1237473D02*
G01X1141747D01*
X1144047Y1213709D02*
G01X1144359Y1213595D01*
X1144672Y1213368*
X1144828Y1213141*
Y1212686*
X1144672Y1212459*
X1144359Y1212232*
X1144047Y1212118*
X1143578Y1212005*
X1142797*
X1142328Y1212118*
X1142016Y1212232*
X1141703Y1212459*
X1141547Y1212686*
Y1213141*
X1141703Y1213368*
X1142016Y1213595*
X1142328Y1213709*
X1144203Y1214732D02*
G01X1144359Y1214959D01*
X1144828Y1215300*
X1141547*
X1144828Y1217005D02*
G01X1144672Y1216664D01*
X1144203Y1216436*
X1143422Y1216323*
X1142953*
X1142172Y1216436*
X1141703Y1216664*
X1141547Y1217005*
Y1217232*
X1141703Y1217573*
X1142172Y1217800*
X1142953Y1217914*
X1143422*
X1144203Y1217800*
X1144672Y1217573*
X1144828Y1217232*
Y1217005*
Y1220414D02*
G01Y1219277D01*
X1143422Y1219164*
X1143578Y1219277*
X1143734Y1219618*
Y1219959*
X1143578Y1220300*
X1143266Y1220527*
X1142797Y1220641*
X1142484Y1220527*
X1142016Y1220414*
X1141703Y1220186*
X1141547Y1219845*
Y1219505*
X1141703Y1219164*
X1141859Y1219050*
X1142172Y1218936*
X1211347Y1232523D02*
G01X1211659Y1232409D01*
X1211972Y1232182*
X1212128Y1231955*
Y1231500*
X1211972Y1231273*
X1211659Y1231045*
X1211347Y1230932*
X1210878Y1230818*
X1210097*
X1209628Y1230932*
X1209316Y1231045*
X1209003Y1231273*
X1208847Y1231500*
Y1231955*
X1209003Y1232182*
X1209316Y1232409*
X1209628Y1232523*
X1211503Y1233545D02*
G01X1211659Y1233773D01*
X1212128Y1234114*
X1208847*
X1212128Y1235818D02*
G01X1211972Y1235477D01*
X1211503Y1235250*
X1210722Y1235136*
X1210253*
X1209472Y1235250*
X1209003Y1235477*
X1208847Y1235818*
Y1236045*
X1209003Y1236386*
X1209472Y1236614*
X1210253Y1236727*
X1210722*
X1211503Y1236614*
X1211972Y1236386*
X1212128Y1236045*
Y1235818*
X1211659Y1239114D02*
G01X1211972Y1239000D01*
X1212128Y1238659*
Y1238432*
X1211972Y1238091*
X1211503Y1237864*
X1210722Y1237750*
X1209941*
X1209316Y1237864*
X1209003Y1238091*
X1208847Y1238432*
Y1238545*
X1209003Y1238886*
X1209316Y1239114*
X1209784Y1239227*
X1209941*
X1210409Y1239114*
X1210722Y1238886*
X1210878Y1238545*
Y1238432*
X1210722Y1238091*
X1210409Y1237864*
X1209941Y1237750*
X1211347Y1215566D02*
G01X1211659Y1215452D01*
X1211972Y1215225*
X1212128Y1214998*
Y1214543*
X1211972Y1214316*
X1211659Y1214089*
X1211347Y1213975*
X1210878Y1213861*
X1210097*
X1209628Y1213975*
X1209316Y1214089*
X1209003Y1214316*
X1208847Y1214543*
Y1214998*
X1209003Y1215225*
X1209316Y1215452*
X1209628Y1215566*
X1211503Y1216589D02*
G01X1211659Y1216816D01*
X1212128Y1217157*
X1208847*
X1212128Y1218861D02*
G01X1211972Y1218520D01*
X1211503Y1218293*
X1210722Y1218180*
X1210253*
X1209472Y1218293*
X1209003Y1218520*
X1208847Y1218861*
Y1219089*
X1209003Y1219430*
X1209472Y1219657*
X1210253Y1219770*
X1210722*
X1211503Y1219657*
X1211972Y1219430*
X1212128Y1219089*
Y1218861*
Y1222384D02*
G01X1208847Y1221248D01*
X1212128Y1220793D02*
G01Y1222384D01*
X1121019Y1141905D02*
G01X1121332Y1141791D01*
X1121644Y1141564*
X1121801Y1141336*
Y1140882*
X1121644Y1140655*
X1121332Y1140427*
X1121019Y1140314*
X1120551Y1140200*
X1119769*
X1119301Y1140314*
X1118988Y1140427*
X1118676Y1140655*
X1118519Y1140882*
Y1141336*
X1118676Y1141564*
X1118988Y1141791*
X1119301Y1141905*
X1121176Y1142927D02*
G01X1121332Y1143155D01*
X1121801Y1143496*
X1118519*
X1121801Y1145200D02*
G01X1121644Y1144859D01*
X1121176Y1144632*
X1120394Y1144518*
X1119926*
X1119144Y1144632*
X1118676Y1144859*
X1118519Y1145200*
Y1145427*
X1118676Y1145768*
X1119144Y1145996*
X1119926Y1146109*
X1120394*
X1121176Y1145996*
X1121644Y1145768*
X1121801Y1145427*
Y1145200*
X1120707Y1148609D02*
G01X1120238Y1148496D01*
X1119926Y1148268*
X1119769Y1147927*
Y1147814*
X1119926Y1147473*
X1120238Y1147246*
X1120707Y1147132*
X1120863*
X1121332Y1147246*
X1121644Y1147473*
X1121801Y1147814*
Y1147927*
X1121644Y1148268*
X1121332Y1148496*
X1120707Y1148609*
X1119926*
X1119144Y1148496*
X1118676Y1148268*
X1118519Y1147927*
Y1147700*
X1118676Y1147359*
X1118988Y1147246*
X1222247Y1080630D02*
G01X1222559Y1080516D01*
X1222872Y1080289*
X1223028Y1080061*
Y1079607*
X1222872Y1079380*
X1222559Y1079152*
X1222247Y1079039*
X1221778Y1078925*
X1220997*
X1220528Y1079039*
X1220216Y1079152*
X1219903Y1079380*
X1219747Y1079607*
Y1080061*
X1219903Y1080289*
X1220216Y1080516*
X1220528Y1080630*
X1221934Y1083130D02*
G01X1221466Y1083016D01*
X1221153Y1082789*
X1220997Y1082448*
Y1082334*
X1221153Y1081993*
X1221466Y1081766*
X1221934Y1081652*
X1222091*
X1222559Y1081766*
X1222872Y1081993*
X1223028Y1082334*
Y1082448*
X1222872Y1082789*
X1222559Y1083016*
X1221934Y1083130*
X1221153*
X1220372Y1083016*
X1219903Y1082789*
X1219747Y1082448*
Y1082220*
X1219903Y1081880*
X1220216Y1081766*
X1222403Y1084152D02*
G01X1222559Y1084380D01*
X1223028Y1084720*
X1219747*
X1182675Y1087028D02*
G01Y1083747D01*
Y1087028D02*
G01X1181652D01*
X1181311Y1086872*
X1181198Y1086716*
X1181084Y1086403*
Y1086091*
X1181198Y1085778*
X1181311Y1085622*
X1181652Y1085466*
X1182675*
X1181880D02*
G01X1181084Y1083747D01*
X1179948Y1086247D02*
G01Y1086403D01*
X1179834Y1086716*
X1179720Y1086872*
X1179493Y1087028*
X1179039*
X1178811Y1086872*
X1178698Y1086716*
X1178584Y1086403*
Y1086091*
X1178698Y1085778*
X1178925Y1085309*
X1180061Y1083747*
X1178470*
X1177448Y1086403D02*
G01X1177220Y1086559D01*
X1176880Y1087028*
Y1083747*
X1015243Y1162728D02*
G01Y1159447D01*
Y1162728D02*
G01X1014220D01*
X1013880Y1162572*
X1013766Y1162416*
X1013652Y1162103*
Y1161791*
X1013766Y1161478*
X1013880Y1161322*
X1014220Y1161166*
X1015243*
X1014448D02*
G01X1013652Y1159447D01*
X1011152Y1162728D02*
G01X1012289D01*
X1012402Y1161322*
X1012289Y1161478*
X1011948Y1161634*
X1011607*
X1011266Y1161478*
X1011039Y1161166*
X1010925Y1160697*
X1011039Y1160384*
X1011152Y1159916*
X1011380Y1159603*
X1011720Y1159447*
X1012061*
X1012402Y1159603*
X1012516Y1159759*
X1012630Y1160072*
X1009675Y1162728D02*
G01X1008425D01*
X1009107Y1161478*
X1008766*
X1008539Y1161322*
X1008425Y1161166*
X1008311Y1160697*
Y1160384*
X1008425Y1159916*
X1008652Y1159603*
X1008993Y1159447*
X1009334*
X1009675Y1159603*
X1009789Y1159759*
X1009902Y1160072*
X1125330Y1137428D02*
G01Y1134147D01*
Y1137428D02*
G01X1124307D01*
X1123966Y1137272*
X1123852Y1137116*
X1123739Y1136803*
Y1136491*
X1123852Y1136178*
X1123966Y1136022*
X1124307Y1135866*
X1125330*
X1124534D02*
G01X1123739Y1134147D01*
X1121352Y1136959D02*
G01X1121466Y1137272D01*
X1121807Y1137428*
X1122034*
X1122375Y1137272*
X1122602Y1136803*
X1122716Y1136022*
Y1135241*
X1122602Y1134616*
X1122375Y1134303*
X1122034Y1134147*
X1121920*
X1121580Y1134303*
X1121352Y1134616*
X1121239Y1135084*
Y1135241*
X1121352Y1135709*
X1121580Y1136022*
X1121920Y1136178*
X1122034*
X1122375Y1136022*
X1122602Y1135709*
X1122716Y1135241*
X1118625Y1137428D02*
G01X1119761Y1134147D01*
X1120216Y1137428D02*
G01X1118625D01*
X1211682Y1077947D02*
G01X1211795Y1078259D01*
X1212023Y1078572*
X1212250Y1078728*
X1212705*
X1212932Y1078572*
X1213159Y1078259*
X1213273Y1077947*
X1213386Y1077478*
Y1076697*
X1213273Y1076228*
X1213159Y1075916*
X1212932Y1075603*
X1212705Y1075447*
X1212250*
X1212023Y1075603*
X1211795Y1075916*
X1211682Y1076228*
X1209182Y1077634D02*
G01X1209295Y1077166D01*
X1209523Y1076853*
X1209864Y1076697*
X1209977*
X1210318Y1076853*
X1210545Y1077166*
X1210659Y1077634*
Y1077791*
X1210545Y1078259*
X1210318Y1078572*
X1209977Y1078728*
X1209864*
X1209523Y1078572*
X1209295Y1078259*
X1209182Y1077634*
Y1076853*
X1209295Y1076072*
X1209523Y1075603*
X1209864Y1075447*
X1210091*
X1210432Y1075603*
X1210545Y1075916*
X1206568Y1078728D02*
G01X1207705Y1075447D01*
X1208159Y1078728D02*
G01X1206568D01*
X1212782Y1053547D02*
G01X1212895Y1053859D01*
X1213123Y1054172*
X1213350Y1054328*
X1213805*
X1214032Y1054172*
X1214259Y1053859*
X1214373Y1053547*
X1214486Y1053078*
Y1052297*
X1214373Y1051828*
X1214259Y1051516*
X1214032Y1051203*
X1213805Y1051047*
X1213350*
X1213123Y1051203*
X1212895Y1051516*
X1212782Y1051828*
X1210282Y1053234D02*
G01X1210395Y1052766D01*
X1210623Y1052453*
X1210964Y1052297*
X1211077*
X1211418Y1052453*
X1211645Y1052766*
X1211759Y1053234*
Y1053391*
X1211645Y1053859*
X1211418Y1054172*
X1211077Y1054328*
X1210964*
X1210623Y1054172*
X1210395Y1053859*
X1210282Y1053234*
Y1052453*
X1210395Y1051672*
X1210623Y1051203*
X1210964Y1051047*
X1211191*
X1211532Y1051203*
X1211645Y1051516*
X1208691Y1054328D02*
G01X1209032Y1054172D01*
X1209145Y1053859*
Y1053547*
X1209032Y1053234*
X1208805Y1053078*
X1208350Y1052922*
X1208009Y1052766*
X1207782Y1052453*
X1207668Y1052141*
Y1051672*
X1207782Y1051359*
X1207895Y1051203*
X1208236Y1051047*
X1208691*
X1209032Y1051203*
X1209145Y1051359*
X1209259Y1051672*
Y1052141*
X1209145Y1052453*
X1208918Y1052766*
X1208577Y1052922*
X1208123Y1053078*
X1207895Y1053234*
X1207782Y1053547*
Y1053859*
X1207895Y1054172*
X1208236Y1054328*
X1208691*
X1190028Y1064657D02*
G01X1186747D01*
X1190028D02*
G01Y1065680D01*
X1189872Y1066020*
X1189716Y1066134*
X1189403Y1066248*
X1189091*
X1188778Y1066134*
X1188622Y1066020*
X1188466Y1065680*
Y1064657*
Y1065452D02*
G01X1186747Y1066248D01*
X1189247Y1067384D02*
G01X1189403D01*
X1189716Y1067498*
X1189872Y1067611*
X1190028Y1067839*
Y1068293*
X1189872Y1068520*
X1189716Y1068634*
X1189403Y1068748*
X1189091*
X1188778Y1068634*
X1188309Y1068407*
X1186747Y1067270*
Y1068861*
X1190028Y1071361D02*
G01Y1070225D01*
X1188622Y1070111*
X1188778Y1070225*
X1188934Y1070566*
Y1070907*
X1188778Y1071248*
X1188466Y1071475*
X1187997Y1071589*
X1187684Y1071475*
X1187216Y1071361*
X1186903Y1071134*
X1186747Y1070793*
Y1070452*
X1186903Y1070111*
X1187059Y1069998*
X1187372Y1069884*
X1205430Y1087428D02*
G01Y1084147D01*
Y1087428D02*
G01X1204407D01*
X1204066Y1087272*
X1203952Y1087116*
X1203839Y1086803*
Y1086491*
X1203952Y1086178*
X1204066Y1086022*
X1204407Y1085866*
X1205430*
X1204634D02*
G01X1203839Y1084147D01*
X1202702Y1086647D02*
G01Y1086803D01*
X1202589Y1087116*
X1202475Y1087272*
X1202248Y1087428*
X1201793*
X1201566Y1087272*
X1201452Y1087116*
X1201339Y1086803*
Y1086491*
X1201452Y1086178*
X1201680Y1085709*
X1202816Y1084147*
X1201225*
X1198725Y1086334D02*
G01X1198839Y1085866D01*
X1199066Y1085553*
X1199407Y1085397*
X1199520*
X1199861Y1085553*
X1200089Y1085866*
X1200202Y1086334*
Y1086491*
X1200089Y1086959*
X1199861Y1087272*
X1199520Y1087428*
X1199407*
X1199066Y1087272*
X1198839Y1086959*
X1198725Y1086334*
Y1085553*
X1198839Y1084772*
X1199066Y1084303*
X1199407Y1084147*
X1199634*
X1199975Y1084303*
X1200089Y1084616*
X1213475Y1069828D02*
G01Y1066547D01*
Y1069828D02*
G01X1212452D01*
X1212111Y1069672*
X1211998Y1069516*
X1211884Y1069203*
Y1068891*
X1211998Y1068578*
X1212111Y1068422*
X1212452Y1068266*
X1213475*
X1212680D02*
G01X1211884Y1066547D01*
X1210634Y1069828D02*
G01X1209384D01*
X1210066Y1068578*
X1209725*
X1209498Y1068422*
X1209384Y1068266*
X1209270Y1067797*
Y1067484*
X1209384Y1067016*
X1209611Y1066703*
X1209952Y1066547*
X1210293*
X1210634Y1066703*
X1210748Y1066859*
X1210861Y1067172*
X1208248Y1069203D02*
G01X1208020Y1069359D01*
X1207680Y1069828*
Y1066547*
X1319536Y1114428D02*
G01Y1111147D01*
Y1114428D02*
G01X1318741D01*
X1318400Y1114272*
X1318173Y1113959*
X1318059Y1113647*
X1317945Y1113178*
Y1112397*
X1318059Y1111928*
X1318173Y1111616*
X1318400Y1111303*
X1318741Y1111147*
X1319536*
X1315786Y1114428D02*
G01X1316923Y1112241D01*
X1315218*
X1315786Y1114428D02*
G01Y1111147D01*
X1038533Y1066909D02*
G01X1035252D01*
X1038533D02*
G01Y1067704D01*
X1038377Y1068045*
X1038064Y1068272*
X1037752Y1068386*
X1037283Y1068500*
X1036502*
X1036033Y1068386*
X1035720Y1068272*
X1035408Y1068045*
X1035252Y1067704*
Y1066909*
X1038533Y1071113D02*
G01X1035252Y1069977D01*
X1038533Y1069522D02*
G01Y1071113D01*
X1102528Y1099632D02*
G01X1102372Y1099405D01*
X1102059Y1099177*
X1101747Y1099064*
X1101278Y1098950*
X1100497*
X1100028Y1099064*
X1099716Y1099177*
X1099403Y1099405*
X1099247Y1099632*
Y1100086*
X1099403Y1100314*
X1099716Y1100541*
X1100028Y1100655*
X1100497Y1100768*
X1101278*
X1101747Y1100655*
X1102059Y1100541*
X1102372Y1100314*
X1102528Y1100086*
Y1099632*
X1099872Y1099973D02*
G01X1098934Y1100655D01*
X1102528Y1103268D02*
G01Y1102132D01*
X1101122Y1102018*
X1101278Y1102132*
X1101434Y1102473*
Y1102814*
X1101278Y1103155*
X1100966Y1103382*
X1100497Y1103495*
X1100184Y1103382*
X1099716Y1103268*
X1099403Y1103041*
X1099247Y1102700*
Y1102359*
X1099403Y1102018*
X1099559Y1101905*
X1099872Y1101791*
X1238933Y1090141D02*
G01X1239245Y1090027D01*
X1239558Y1089800*
X1239714Y1089573*
Y1089118*
X1239558Y1088891*
X1239245Y1088664*
X1238933Y1088550*
X1238464Y1088436*
X1237683*
X1237214Y1088550*
X1236901Y1088664*
X1236589Y1088891*
X1236433Y1089118*
Y1089573*
X1236589Y1089800*
X1236901Y1090027*
X1237214Y1090141*
X1238620Y1092641D02*
G01X1238151Y1092527D01*
X1237839Y1092300*
X1237683Y1091959*
Y1091846*
X1237839Y1091505*
X1238151Y1091277*
X1238620Y1091164*
X1238776*
X1239245Y1091277*
X1239558Y1091505*
X1239714Y1091846*
Y1091959*
X1239558Y1092300*
X1239245Y1092527*
X1238620Y1092641*
X1237839*
X1237058Y1092527*
X1236589Y1092300*
X1236433Y1091959*
Y1091732*
X1236589Y1091391*
X1236901Y1091277*
X1239714Y1094346D02*
G01X1239558Y1094005D01*
X1239089Y1093777*
X1238308Y1093664*
X1237839*
X1237058Y1093777*
X1236589Y1094005*
X1236433Y1094346*
Y1094573*
X1236589Y1094914*
X1237058Y1095141*
X1237839Y1095255*
X1238308*
X1239089Y1095141*
X1239558Y1094914*
X1239714Y1094573*
Y1094346*
X1266295Y1181169D02*
G01X1266607Y1181055D01*
X1266920Y1180828*
X1267076Y1180601*
Y1180146*
X1266920Y1179919*
X1266607Y1179692*
X1266295Y1179578*
X1265826Y1179465*
X1265045*
X1264576Y1179578*
X1264264Y1179692*
X1263951Y1179919*
X1263795Y1180146*
Y1180601*
X1263951Y1180828*
X1264264Y1181055*
X1264576Y1181169*
X1267076Y1183328D02*
G01X1264889Y1182192D01*
Y1183896*
X1267076Y1183328D02*
G01X1263795D01*
X1267076Y1185146D02*
G01Y1186396D01*
X1265826Y1185715*
Y1186055*
X1265670Y1186283*
X1265514Y1186396*
X1265045Y1186510*
X1264732*
X1264264Y1186396*
X1263951Y1186169*
X1263795Y1185828*
Y1185487*
X1263951Y1185146*
X1264107Y1185033*
X1264420Y1184919*
X1178859Y1069347D02*
G01X1178973Y1069659D01*
X1179200Y1069972*
X1179427Y1070128*
X1179882*
X1180109Y1069972*
X1180336Y1069659*
X1180450Y1069347*
X1180564Y1068878*
Y1068097*
X1180450Y1067628*
X1180336Y1067316*
X1180109Y1067003*
X1179882Y1066847*
X1179427*
X1179200Y1067003*
X1178973Y1067316*
X1178859Y1067628*
X1177723Y1069347D02*
G01Y1069503D01*
X1177609Y1069816*
X1177495Y1069972*
X1177268Y1070128*
X1176814*
X1176586Y1069972*
X1176473Y1069816*
X1176359Y1069503*
Y1069191*
X1176473Y1068878*
X1176700Y1068409*
X1177836Y1066847*
X1176245*
X1175223Y1069503D02*
G01X1174995Y1069659D01*
X1174655Y1070128*
Y1066847*
X1172795Y1055147D02*
G01X1172909Y1055459D01*
X1173136Y1055772*
X1173364Y1055928*
X1173818*
X1174045Y1055772*
X1174273Y1055459*
X1174386Y1055147*
X1174500Y1054678*
Y1053897*
X1174386Y1053428*
X1174273Y1053116*
X1174045Y1052803*
X1173818Y1052647*
X1173364*
X1173136Y1052803*
X1172909Y1053116*
X1172795Y1053428*
X1171545Y1055928D02*
G01X1170295D01*
X1170977Y1054678*
X1170636*
X1170409Y1054522*
X1170295Y1054366*
X1170182Y1053897*
Y1053584*
X1170295Y1053116*
X1170523Y1052803*
X1170864Y1052647*
X1171205*
X1171545Y1052803*
X1171659Y1052959*
X1171773Y1053272*
X1169045Y1055147D02*
G01Y1055303D01*
X1168932Y1055616*
X1168818Y1055772*
X1168591Y1055928*
X1168136*
X1167909Y1055772*
X1167795Y1055616*
X1167682Y1055303*
Y1054991*
X1167795Y1054678*
X1168023Y1054209*
X1169159Y1052647*
X1167568*
X1230347Y1059245D02*
G01X1230659Y1059132D01*
X1230972Y1058905*
X1231128Y1058677*
Y1058223*
X1230972Y1057995*
X1230659Y1057768*
X1230347Y1057655*
X1229878Y1057541*
X1229097*
X1228628Y1057655*
X1228316Y1057768*
X1228003Y1057995*
X1227847Y1058223*
Y1058677*
X1228003Y1058905*
X1228316Y1059132*
X1228628Y1059245*
X1230034Y1061745D02*
G01X1229566Y1061632D01*
X1229253Y1061405*
X1229097Y1061064*
Y1060950*
X1229253Y1060609*
X1229566Y1060382*
X1230034Y1060268*
X1230191*
X1230659Y1060382*
X1230972Y1060609*
X1231128Y1060950*
Y1061064*
X1230972Y1061405*
X1230659Y1061632*
X1230034Y1061745*
X1229253*
X1228472Y1061632*
X1228003Y1061405*
X1227847Y1061064*
Y1060836*
X1228003Y1060495*
X1228316Y1060382*
X1210228Y1008900D02*
G01X1206947D01*
X1210228D02*
G01Y1009923D01*
X1210072Y1010264*
X1209916Y1010377*
X1209603Y1010491*
X1209291*
X1208978Y1010377*
X1208822Y1010264*
X1208666Y1009923*
Y1008900*
Y1009695D02*
G01X1206947Y1010491D01*
X1209603Y1011514D02*
G01X1209759Y1011741D01*
X1210228Y1012082*
X1206947*
X1227628Y1020400D02*
G01X1224347D01*
X1227628D02*
G01Y1021423D01*
X1227472Y1021764*
X1227316Y1021877*
X1227003Y1021991*
X1226691*
X1226378Y1021877*
X1226222Y1021764*
X1226066Y1021423*
Y1020400*
Y1021195D02*
G01X1224347Y1021991D01*
X1227628Y1024491D02*
G01Y1023355D01*
X1226222Y1023241*
X1226378Y1023355*
X1226534Y1023695*
Y1024036*
X1226378Y1024377*
X1226066Y1024605*
X1225597Y1024718*
X1225284Y1024605*
X1224816Y1024491*
X1224503Y1024264*
X1224347Y1023923*
Y1023582*
X1224503Y1023241*
X1224659Y1023127*
X1224972Y1023014*
X1222445Y1047828D02*
G01Y1044547D01*
Y1047828D02*
G01X1221423D01*
X1221082Y1047672*
X1220968Y1047516*
X1220855Y1047203*
Y1046891*
X1220968Y1046578*
X1221082Y1046422*
X1221423Y1046266*
X1222445*
X1221650D02*
G01X1220855Y1044547D01*
X1218355Y1046734D02*
G01X1218468Y1046266D01*
X1218695Y1045953*
X1219036Y1045797*
X1219150*
X1219491Y1045953*
X1219718Y1046266*
X1219832Y1046734*
Y1046891*
X1219718Y1047359*
X1219491Y1047672*
X1219150Y1047828*
X1219036*
X1218695Y1047672*
X1218468Y1047359*
X1218355Y1046734*
Y1045953*
X1218468Y1045172*
X1218695Y1044703*
X1219036Y1044547*
X1219264*
X1219605Y1044703*
X1219718Y1045016*
X1198695Y1013247D02*
G01X1198809Y1013559D01*
X1199036Y1013872*
X1199264Y1014028*
X1199718*
X1199945Y1013872*
X1200173Y1013559*
X1200286Y1013247*
X1200400Y1012778*
Y1011997*
X1200286Y1011528*
X1200173Y1011216*
X1199945Y1010903*
X1199718Y1010747*
X1199264*
X1199036Y1010903*
X1198809Y1011216*
X1198695Y1011528*
X1197445Y1014028D02*
G01X1196195D01*
X1196877Y1012778*
X1196536*
X1196309Y1012622*
X1196195Y1012466*
X1196082Y1011997*
Y1011684*
X1196195Y1011216*
X1196423Y1010903*
X1196764Y1010747*
X1197105*
X1197445Y1010903*
X1197559Y1011059*
X1197673Y1011372*
X1193923Y1014028D02*
G01X1195059Y1011841D01*
X1193355*
X1193923Y1014028D02*
G01Y1010747D01*
X1188595Y1011547D02*
G01X1188709Y1011859D01*
X1188936Y1012172*
X1189164Y1012328*
X1189618*
X1189845Y1012172*
X1190073Y1011859*
X1190186Y1011547*
X1190300Y1011078*
Y1010297*
X1190186Y1009828*
X1190073Y1009516*
X1189845Y1009203*
X1189618Y1009047*
X1189164*
X1188936Y1009203*
X1188709Y1009516*
X1188595Y1009828*
X1187345Y1012328D02*
G01X1186095D01*
X1186777Y1011078*
X1186436*
X1186209Y1010922*
X1186095Y1010766*
X1185982Y1010297*
Y1009984*
X1186095Y1009516*
X1186323Y1009203*
X1186664Y1009047*
X1187005*
X1187345Y1009203*
X1187459Y1009359*
X1187573Y1009672*
X1183482Y1012328D02*
G01X1184618D01*
X1184732Y1010922*
X1184618Y1011078*
X1184277Y1011234*
X1183936*
X1183595Y1011078*
X1183368Y1010766*
X1183255Y1010297*
X1183368Y1009984*
X1183482Y1009516*
X1183709Y1009203*
X1184050Y1009047*
X1184391*
X1184732Y1009203*
X1184845Y1009359*
X1184959Y1009672*
X1069028Y1115100D02*
G01X1065747D01*
X1069028D02*
G01Y1116123D01*
X1068872Y1116464*
X1068716Y1116577*
X1068403Y1116691*
X1068091*
X1067778Y1116577*
X1067622Y1116464*
X1067466Y1116123*
Y1115100*
Y1115895D02*
G01X1065747Y1116691D01*
X1069028Y1117941D02*
G01Y1119191D01*
X1067778Y1118509*
Y1118850*
X1067622Y1119077*
X1067466Y1119191*
X1066997Y1119305*
X1066684*
X1066216Y1119191*
X1065903Y1118964*
X1065747Y1118623*
Y1118282*
X1065903Y1117941*
X1066059Y1117827*
X1066372Y1117714*
X1069028Y1121805D02*
G01Y1120668D01*
X1067622Y1120555*
X1067778Y1120668*
X1067934Y1121009*
Y1121350*
X1067778Y1121691*
X1067466Y1121918*
X1066997Y1122032*
X1066684Y1121918*
X1066216Y1121805*
X1065903Y1121577*
X1065747Y1121236*
Y1120895*
X1065903Y1120555*
X1066059Y1120441*
X1066372Y1120327*
X1067528Y1146300D02*
G01X1064247D01*
X1067528D02*
G01Y1147323D01*
X1067372Y1147664*
X1067216Y1147777*
X1066903Y1147891*
X1066591*
X1066278Y1147777*
X1066122Y1147664*
X1065966Y1147323*
Y1146300*
Y1147095D02*
G01X1064247Y1147891D01*
X1067528Y1150391D02*
G01Y1149255D01*
X1066122Y1149141*
X1066278Y1149255*
X1066434Y1149595*
Y1149936*
X1066278Y1150277*
X1065966Y1150505*
X1065497Y1150618*
X1065184Y1150505*
X1064716Y1150391*
X1064403Y1150164*
X1064247Y1149823*
Y1149482*
X1064403Y1149141*
X1064559Y1149027*
X1064872Y1148914*
X1066747Y1151755D02*
G01X1066903D01*
X1067216Y1151868*
X1067372Y1151982*
X1067528Y1152209*
Y1152664*
X1067372Y1152891*
X1067216Y1153005*
X1066903Y1153118*
X1066591*
X1066278Y1153005*
X1065809Y1152777*
X1064247Y1151641*
Y1153232*
G54D75*
X1010572Y1072069D02*
G01Y1068193D01*
Y1072069D02*
G01X1009633D01*
X1009230Y1071884*
X1008962Y1071515*
X1008828Y1071146*
X1008693Y1070592*
Y1069670*
X1008828Y1069116*
X1008962Y1068747*
X1009230Y1068378*
X1009633Y1068193*
X1010572*
X1007485Y1071330D02*
G01X1007217Y1071515D01*
X1006814Y1072069*
Y1068193*
X1004935Y1072069D02*
G01X1005338Y1071884D01*
X1005472Y1071515*
Y1071146*
X1005338Y1070777*
X1005070Y1070592*
X1004533Y1070408*
X1004130Y1070223*
X1003862Y1069854*
X1003727Y1069485*
Y1068931*
X1003862Y1068562*
X1003996Y1068378*
X1004398Y1068193*
X1004935*
X1005338Y1068378*
X1005472Y1068562*
X1005606Y1068931*
Y1069485*
X1005472Y1069854*
X1005204Y1070223*
X1004801Y1070408*
X1004264Y1070592*
X1003996Y1070777*
X1003862Y1071146*
Y1071515*
X1003996Y1071884*
X1004398Y1072069*
X1004935*
G54D57*
X1003000Y1185500D02*
G01X1023000D01*
Y1175500*
X1003000*
Y1185500*
G54D63*
X1000000Y1015748D02*
G01X1175984D01*
Y1000000*
X1333465*
Y1265748*
X1000000*
Y1015748*
G54D72*
X1017967Y868356D02*
G01X1016893Y867864D01*
X1016178Y866388*
X1015820Y863927*
Y862451*
X1016178Y859990*
X1016893Y858514*
X1017967Y858022*
X1018683*
X1019757Y858514*
X1020472Y859990*
X1020830Y862451*
Y863927*
X1020472Y866388*
X1019757Y867864*
X1018683Y868356*
X1017967*
X1028704Y864911D02*
G01X1028346Y863435D01*
X1027631Y862451*
X1026557Y861959*
X1026199*
X1025125Y862451*
X1024409Y863435*
X1024052Y864911*
Y865404*
X1024409Y866880*
X1025125Y867864*
X1026199Y868356*
X1026557*
X1027631Y867864*
X1028346Y866880*
X1028704Y864911*
Y862451*
X1028346Y859990*
X1027631Y858514*
X1026557Y858022*
X1025841*
X1024767Y858514*
X1024409Y859498*
X1031926Y862451D02*
G01X1038368D01*
X1043737Y868356D02*
G01X1042663Y867864D01*
X1041947Y866388*
X1041589Y863927*
Y862451*
X1041947Y859990*
X1042663Y858514*
X1043737Y858022*
X1044452*
X1045526Y858514*
X1046242Y859990*
X1046600Y862451*
Y863927*
X1046242Y866388*
X1045526Y867864*
X1044452Y868356*
X1043737*
X1051968D02*
G01X1050895Y867864D01*
X1050179Y866388*
X1049821Y863927*
Y862451*
X1050179Y859990*
X1050895Y858514*
X1051968Y858022*
X1052684*
X1053758Y858514*
X1054474Y859990*
X1054832Y862451*
Y863927*
X1054474Y866388*
X1053758Y867864*
X1052684Y868356*
X1051968*
X1060200D02*
G01X1059127Y867864D01*
X1058411Y866388*
X1058053Y863927*
Y862451*
X1058411Y859990*
X1059127Y858514*
X1060200Y858022*
X1060916*
X1061990Y858514*
X1062706Y859990*
X1063064Y862451*
Y863927*
X1062706Y866388*
X1061990Y867864*
X1060916Y868356*
X1060200*
X1068432D02*
G01X1067359Y867864D01*
X1066643Y866388*
X1066285Y863927*
Y862451*
X1066643Y859990*
X1067359Y858514*
X1068432Y858022*
X1069148*
X1070222Y858514*
X1070938Y859990*
X1071296Y862451*
Y863927*
X1070938Y866388*
X1070222Y867864*
X1069148Y868356*
X1068432*
X1078096D02*
G01X1074517Y861467D01*
X1079885*
X1078096Y868356D02*
G01Y858022D01*
X1085254Y868356D02*
G01X1084180Y867864D01*
X1083464Y866388*
X1083107Y863927*
Y862451*
X1083464Y859990*
X1084180Y858514*
X1085254Y858022*
X1085970*
X1087044Y858514*
X1087759Y859990*
X1088117Y862451*
Y863927*
X1087759Y866388*
X1087044Y867864*
X1085970Y868356*
X1085254*
X1091338Y862451D02*
G01X1097781D01*
X1103149Y868356D02*
G01X1102076Y867864D01*
X1101360Y866388*
X1101002Y863927*
Y862451*
X1101360Y859990*
X1102076Y858514*
X1103149Y858022*
X1103865*
X1104939Y858514*
X1105655Y859990*
X1106013Y862451*
Y863927*
X1105655Y866388*
X1104939Y867864*
X1103865Y868356*
X1103149*
X1111381D02*
G01X1110308Y867864D01*
X1109592Y866388*
X1109234Y863927*
Y862451*
X1109592Y859990*
X1110308Y858514*
X1111381Y858022*
X1112097*
X1113171Y858514*
X1113887Y859990*
X1114245Y862451*
Y863927*
X1113887Y866388*
X1113171Y867864*
X1112097Y868356*
X1111381*
X1233178Y866388D02*
G01X1233894Y866880D01*
X1234968Y868356*
Y858022*
X1242842Y864911D02*
G01X1242484Y863435D01*
X1241768Y862451*
X1240694Y861959*
X1240336*
X1239263Y862451*
X1238547Y863435*
X1238189Y864911*
Y865404*
X1238547Y866880*
X1239263Y867864*
X1240336Y868356*
X1240694*
X1241768Y867864*
X1242484Y866880*
X1242842Y864911*
Y862451*
X1242484Y859990*
X1241768Y858514*
X1240694Y858022*
X1239978*
X1238905Y858514*
X1238547Y859498*
X1246063Y862451D02*
G01X1252505D01*
X1255726Y868356D02*
G01Y858022D01*
Y868356D02*
G01X1260737Y858022D01*
Y868356D02*
G01Y858022D01*
X1266106Y868356D02*
G01X1265390Y867864D01*
X1264674Y866880*
X1264316Y865896*
X1263958Y864419*
Y861959*
X1264316Y860482*
X1264674Y859498*
X1265390Y858514*
X1266106Y858022*
X1267537*
X1268253Y858514*
X1268969Y859498*
X1269327Y860482*
X1269685Y861959*
Y864419*
X1269327Y865896*
X1268969Y866880*
X1268253Y867864*
X1267537Y868356*
X1266106*
X1272906D02*
G01X1275769Y858022D01*
X1278633Y868356D02*
G01X1275769Y858022D01*
X1281854Y862451D02*
G01X1288296D01*
X1293665Y868356D02*
G01X1292591Y867864D01*
X1291875Y866388*
X1291517Y863927*
Y862451*
X1291875Y859990*
X1292591Y858514*
X1293665Y858022*
X1294381*
X1295454Y858514*
X1296170Y859990*
X1296528Y862451*
Y863927*
X1296170Y866388*
X1295454Y867864*
X1294381Y868356*
X1293665*
X1301539D02*
G01X1300465Y867864D01*
X1300107Y866880*
Y865896*
X1300465Y864911*
X1301181Y864419*
X1302613Y863927*
X1303686Y863435*
X1304402Y862451*
X1304760Y861467*
Y859990*
X1304402Y859006*
X1304044Y858514*
X1302970Y858022*
X1301539*
X1300465Y858514*
X1300107Y859006*
X1299749Y859990*
Y861467*
X1300107Y862451*
X1300823Y863435*
X1301897Y863927*
X1303328Y864419*
X1304044Y864911*
X1304402Y865896*
Y866880*
X1304044Y867864*
X1302970Y868356*
X1301539*
X1162670D02*
G01X1159807Y858022D01*
X1162670Y868356D02*
G01X1165533Y858022D01*
X1160880Y861467D02*
G01X1164459D01*
X1168754Y868356D02*
G01Y858022D01*
Y868356D02*
G01X1173407D01*
X1168754Y863435D02*
G01X1171618D01*
X1168754Y858022D02*
G01X1173407D01*
M02*
