%
T1C.01024F095S3
X10244Y10491
X10118Y10491
X10181Y10491
X102047Y11185
X10037Y11204
X102047Y112795
X10038Y11295
X102047Y113661
X10035Y11386
X102047Y114567
X10037Y11476
X101142Y115236
X10079Y11613
X10465Y11833
X103091Y117579
X10478Y11755
X103248Y117323
X104626Y117323
X104783Y117067
X103091Y117067
X104626Y116811
X103248Y116811
X10463Y11586
X104154Y114035
X10435Y113661
X10312Y11306
X10376Y11274
X103917Y11252
X103484Y112303
X10369Y11185
X102894Y111437
X104154Y110925
X10435Y110728
X103917Y109429
X10307Y10492
X105925Y102028
X10766Y10232
X106299Y102579
X10731Y10286
X10669Y10303
X10757Y10309
X10696Y1031
X10617Y1031
X1067Y1033
X1062Y10337
X10648Y10346
X105354Y103661
X10563Y1037
X10659Y10373
X107362Y104941
X10565Y105138
X107795Y105591
X10565Y10562
X106339Y10624
X10588Y10699
X10577Y10736
X10562Y1076
X106654Y109114
X106496Y10937
X105551Y109429
X106693Y109626
X105768Y109803
X1057Y11093
X10648Y11093
X106004Y113681
X10636Y11494
X107244Y115177
X106693Y115217
X106969Y115236
X107028Y115886
X107618Y118504
X107224Y118701
X107421Y118898
X107028Y119094
X107067Y123465
X10878Y125866
X109016Y125551
X10878Y125236
X109016Y124921
X10878Y124606
X109016Y124291
X10878Y123976
X109016Y123661
X10878Y123346
X109016Y123031
X10878Y122087
X109016Y121772
X10878Y121457
X109016Y121142
X10878Y120827
X109016Y120512
X10878Y120197
X109016Y119882
X10878Y119567
X109016Y119252
X109272Y119055
X109154Y118091
X109547Y118091
X109941Y118091
X108563Y118071
X10876Y117874
X109744Y117874
X10935Y117874
X108642Y116752
X108366Y116555
X108681Y116201
X108661Y115197
X108346Y115138
X10906Y11413
X10866Y11368
X10893Y11341
X10879Y11298
X10835Y11293
X10904Y11277
X10882Y11258
X10865Y11231
X10835Y11215
X10858Y11199
X1086Y11099
X10839Y11079
X10839Y11052
X10839Y11025
X11006Y10988
X109626Y109823
X109744Y109488
X10839Y10947
X10914Y10837
X110217Y108366
X108858Y108366
X10803Y10834
X10841Y10821
X11011Y108
X10923Y10796
X10959Y10785
X1097Y10745
X11004Y10612
X108681Y105925
X109016Y105925
X11002Y10585
X11031Y10547
X109606Y104764
X108976Y104587
X11002Y10373
X10824Y10372
X109567Y103661
X10861Y10366
X10809Y10348
X108386Y103465
X110157Y103465
X109764Y103465
X10885Y1034
X10957Y10318
X10792Y10311
X10915Y10293
X10976Y10231
X112283Y102028
X111969Y102028
X11083Y10268
X11094Y10295
X11193Y10339
X11272Y10346
X11113Y10366
X11197Y10366
X1115Y10366
X11076Y10369
X11039Y10371
X11271Y1045
X11233Y10451
X110886Y104567
X11075Y10613
X1126Y10711
X11263Y10738
X11138Y10753
X11127Y108
X1125Y108169
X112303Y108366
X112697Y108366
X111909Y108366
X11091Y10837
X1109Y11053
X110728Y111594
X110531Y115512
X112303Y117874
X111319Y117874
X112008Y117874
X110925Y117874
X110531Y117874
X111713Y117874
X111516Y118071
X1125Y118071
X112697Y118327
X111929Y119252
X112165Y119567
X111929Y119882
X112165Y120197
X111929Y120512
X112165Y121142
X111929Y121457
X112165Y121772
X111929Y122087
X112165Y123031
X111929Y123346
X112165Y123661
X111929Y123976
X112165Y124291
X111929Y124606
X112165Y124921
X111929Y125236
X112165Y125551
X111929Y125866
X11424Y12604
X11319Y12587
X11457Y12572
X11345Y12557
X11429Y12547
X11319Y1253
X11348Y125
X11455Y12495
X11394Y12461
X1133Y12431
X11319Y12394
X11429Y1239
X11456Y12363
X11343Y1236
X11317Y12333
X11429Y12333
X114528Y123031
X11343Y12303
X11428Y12218
X113189Y122087
X11458Y12186
X113425Y121772
X11429Y12161
X113189Y121457
X11453Y12122
X113425Y121142
X11319Y12094
X11454Y12075
X11332Y12057
X1142Y12043
X1138Y12018
X11453Y12018
X11341Y11969
X11422Y11955
X11314Y11943
X11457Y11939
X11345Y11912
X11455Y11892
X113484Y118661
X11387Y11854
X11362Y1184
X11309Y11836
X11289Y11814
X11498Y11672
X11461Y11665
X11534Y11655
X114862Y116457
X11514Y11636
X11315Y11579
X114665Y108366
X113484Y108366
X115059Y108366
X114272Y108366
X113878Y108366
X113091Y108366
X113287Y108169
X113681Y108169
X114862Y108169
X112894Y108169
X114075Y108169
X114469Y108169
X11526Y10792
X113504Y107185
X113878Y106457
X113307Y10622
X112913Y10622
X11315Y105945
X11505Y10514
X11427Y105
X11386Y10496
X114488Y104567
X11311Y104547
X113228Y103661
X114094Y103661
X113504Y103661
X11378Y103661
X112913Y103661
X11437Y103661
X11495Y10366
X11522Y10356
X113858Y102028
X115118Y102028
X116063Y102028
X11628Y10347
X11575Y10372
X11593Y10418
X116693Y104291
X11543Y10482
X11563Y10544
X11555Y10581
X116Y1072
X11579Y10803
X115669Y108583
X11675Y10999
X11675Y11036
X11742Y11062
X11726Y11085
X11674Y11191
X115394Y111949
X11687Y11218
X116752Y112421
X116969Y112618
X11675Y11295
X11675Y11332
X11716Y1136
X11565Y113976
X11718Y114
X11565Y114291
X116752Y11439
X116752Y114783
X11675Y11506
X11671Y11533
X11563Y11591
X117264Y116772
X117539Y116791
X11781Y11686
X11748Y119055
X11579Y11926
X115551Y119567
X115787Y119882
X115551Y120197
X115787Y120512
X115551Y120827
X115787Y121142
X115551Y121457
X115787Y121772
X115551Y122087
X115787Y123031
X115551Y123346
X115787Y123661
X115551Y123976
X115787Y124291
X115551Y124606
X115787Y124921
X115551Y125236
X115787Y125551
X115551Y125866
X118701Y125866
X119961Y125866
X118937Y125551
X119961Y125551
X11996Y12525
X118701Y125236
X11996Y12498
X118937Y124921
X118701Y124606
X118937Y124291
X118701Y123976
X118937Y123661
X1202Y12354
X118701Y123346
X11991Y1233
X118937Y123031
X1202Y12297
X118681Y122087
X119961Y122087
X119961Y121772
X118937Y121772
X12012Y12146
X118701Y121457
X11994Y12125
X118937Y121142
X1202Y12098
X118701Y120827
X118937Y120512
X11989Y12036
X118701Y120197
X11994Y11992
X118937Y119882
X11996Y11965
X118701Y119567
X118937Y119252
X1184Y11806
X119193Y118051
X119587Y118051
X11998Y118051
X118799Y118051
X11939Y117854
X118996Y117854
X119783Y117854
X120177Y117854
X11808Y11688
X119508Y116811
X119783Y116811
X11906Y11664
X11841Y11654
X11923Y11643
X11881Y11642
X1201Y11567
X11963Y11567
X120276Y114449
X11939Y113386
X11978Y11326
X119587Y111437
X11998Y11124
X118957Y111043
X118602Y109094
X12018Y10906
X11974Y10503
X11833Y10495
X12026Y10489
X11831Y10442
X12024Y10442
X11969Y10421
X118051Y103976
X118307Y103799
X118287Y10315
X11935Y102087
X12239Y10909
X121417Y109094
X121122Y109094
X122165Y110197
X122736Y110197
X121772Y110197
X120965Y110413
X121752Y11065
X120571Y110846
X121358Y110945
X121161Y11124
X120965Y111437
X122539Y112087
X121969Y112421
X121555Y112618
X120768Y112835
X120374Y113031
X121063Y113799
X121752Y115177
X12065Y115236
X120394Y115374
X121752Y115453
X120394Y115669
X121752Y115728
X121752Y116004
X121752Y11628
X121752Y116555
X121949Y117854
X122343Y117854
X121555Y117854
X120571Y117854
X122736Y117854
X121752Y118051
X122539Y118051
X120374Y118051
X122146Y118051
X12087Y1191
X12089Y11954
X12036Y12017
X12098Y12033
X1208Y12053
X12137Y12308
X12167Y12331
X12187Y123681
X122067Y124035
X12036Y12422
X122323Y124331
X122087Y124665
X122638Y124862
X124154Y124094
X123957Y123898
X124154Y123701
X123957Y123504
X124154Y123307
X12303Y12042
X123858Y120354
X123583Y120354
X123307Y120354
X12341Y11684
X12378Y11677
X12341Y11657
X12325Y11622
X125256Y115256
X12303Y11512
X124508Y114843
X123031Y114646
X12303Y11437
X1233Y11373
X12439Y113701
X124272Y113445
X124154Y113189
X124035Y112933
X123917Y112677
X123799Y112421
X123681Y112165
X123563Y111909
X122933Y11189
X123327Y110394
X12372Y110394
X12313Y110197
X123524Y110197
X125039Y110059
X125039Y109764
X125039Y109291
X125157Y106772
X12365Y10658
X127874Y109567
X128701Y109567
X126516Y110512
X126516Y111181
X126969Y111496
X125748Y112677
X125531Y115118
X130965Y120098
X131949Y119862
X130433Y118346
X13124Y117224
X131746Y117008
X130551Y115315
X132362Y115315
X132283Y115
T2C.01181F095S3
X101181Y10351
X101811Y10351
X102441Y10351
X10048Y10575
X1005Y10775
X1015Y11135
X10225Y11136
X102047Y112165
X10281Y11281
X102047Y113091
X1023Y11341
X10203Y11398
X10243Y11404
X102047Y114882
X10251Y11515
X10243Y11567
X10147Y11654
X102815Y119134
X102815Y123386
X104134Y125984
X104488Y125512
X10451Y12401
X103976Y118465
X10478Y11794
X10463Y11625
X10526Y11601
X10409Y11593
X10292Y11457
X10383Y11418
X1045Y11415
X10476Y11366
X10353Y11306
X10446Y11211
X10483Y11181
X10455Y11135
X10392Y11126
X10421Y11037
X104823Y110295
X10395Y11011
X105276Y109134
X10357Y10898
X1041Y10898
X10369Y10826
X104444Y107896
X104902Y106909
X10396Y10575
X104075Y103819
X103071Y10351
X10475Y1024
X10564Y1033
X10709Y10349
X1077Y10364
X1062Y10373
X10565Y10601
X10605Y10618
X10591Y10659
X106339Y106614
X107382Y107244
X10616Y10726
X10669Y10749
X10698Y10828
X105827Y109134
X107244Y10937
X107146Y110886
X10609Y11095
X106299Y111417
X105906Y111417
X107087Y111417
X106693Y111417
X10543Y11142
X10562Y112
X1073Y11221
X10729Y11276
X10723Y1132
X10718Y11376
X10639Y11419
X107264Y114193
X10555Y1142
X10713Y11454
X107205Y115571
X10547Y11637
X1072Y11673
X107677Y116811
X10748Y119685
X10748Y120079
X10748Y120472
X1059Y1205
X10748Y120866
X107008Y121398
X10748Y122402
X10748Y122717
X107067Y12378
X10748Y124409
X10748Y124803
X10748Y125394
X10748Y125787
X10878Y122717
X109055Y122402
X10817Y11724
X110039Y116378
X109213Y115827
X11034Y11514
X10874Y11439
X10854Y11329
X10833Y11254
X10897Y11152
X10839Y10986
X109213Y109843
X108878Y109823
X11013Y10949
X10832Y1086
X10973Y10834
X108346Y107874
X10876Y107874
X10931Y10757
X11021Y10747
X10811Y107382
X108386Y105906
X1101Y10503
X10926Y10342
X10861Y10309
X10866Y10254
X11038Y1031
X11154Y10326
X11093Y10331
X11236Y10366
X11047Y10455
X11236Y10493
X11067Y10507
X11089Y10583
X11048Y10585
X1125Y10777
X11081Y10791
X11186Y10798
X110571Y108307
X1113Y10839
X1125Y10943
X1106Y10979
X11112Y10979
X11189Y109843
X11068Y1102
X11237Y11259
X11151Y11311
X111299Y113819
X11211Y11508
X1113Y11605
X11045Y1164
X11112Y11652
X11205Y11673
X11263Y11678
X11143Y11678
X11122Y118504
X112205Y118504
X110827Y118504
X111811Y118504
X112165Y122402
X111909Y122717
X11416Y12508
X11355Y12461
X11417Y12429
X11359Y12419
X113858Y122717
X113858Y122402
X11417Y12102
X11369Y12076
X11341Y12018
X11422Y11994
X11381Y1194
X11416Y11885
X11317Y11787
X11484Y11782
X11381Y11678
X113287Y116634
X114469Y116378
X11296Y11633
X114Y11525
X11315Y11496
X114469Y114882
X115118Y114882
X1149Y1145
X11413Y11398
X114Y1128
X113504Y111929
X113268Y11124
X11415Y1111
X1147Y1111
X1136Y1111
X114Y1104
X1134Y11037
X11419Y11006
X11378Y10993
X11337Y10984
X11525Y1095
X11481Y10949
X1144Y10944
X11477Y10778
X11532Y10747
X11466Y10502
X11407Y10465
X11509Y10461
X112913Y102028
X114803Y102028
X114173Y102028
X113543Y102028
X115433Y102028
X11618Y10374
X11539Y10405
X11742Y10449
X11587Y10457
X11705Y10498
X11767Y10549
X11728Y10636
X1159Y1067
X11564Y10701
X11732Y10751
X116457Y107953
X11545Y10824
X1171Y10848
X11624Y108858
X117717Y109035
X11568Y10907
X11655Y10912
X11733Y10967
X11563Y110059
X117205Y110256
X117598Y110256
X11568Y11063
X11687Y11085
X11563Y111103
X11757Y11131
X11568Y11163
X11721Y11176
X11563Y112224
X11566Y11282
X117205Y113209
X117598Y113209
X11682Y11381
X11777Y11383
X11752Y11439
X117106Y11439
X11549Y11459
X11752Y114803
X117126Y114803
X11568Y11552
X117539Y115728
X117146Y115728
X11568Y1162
X11672Y11627
X11568Y11697
X11602Y11797
X115807Y122402
X115551Y122717
X12008Y12393
X118701Y122717
X118937Y122402
X11995Y11844
X11818Y11737
X11872Y11686
X120079Y116811
X11792Y11643
X11813Y11468
X11832Y11397
X11889Y11364
X11978Y11287
X11838Y1125
X11901Y11221
X11818Y11144
X118583Y11063
X120197Y11063
X119173Y11063
X118Y10984
X11958Y10909
X11811Y109035
X11911Y10874
X1191Y10809
X11966Y107657
X11866Y10751
X11867Y10684
X12029Y10632
X11871Y10583
X11998Y10549
X11803Y1052
X11796Y10462
X11986Y10459
X12Y10371
X118071Y103583
X119764Y103268
X11813Y1023
X12033Y10136
X11972Y1012
X11835Y10116
X12002Y10098
X11872Y10096
X12025Y10077
X12043Y10106
X12275Y10166
X12062Y10178
X12206Y10235
X12164Y10273
X12243Y10283
X12062Y10298
X12274Y10351
X1226Y1041
X12154Y10428
X12278Y10472
X12171Y1048
X1205Y10521
X1213Y10534
X12067Y10608
X12071Y10689
X12194Y10765
X12092Y10774
X12157Y10792
X12262Y1081
X12247Y10851
X12129Y10872
X12062Y10901
X12195Y10918
X121339Y11063
X120846Y113602
X12063Y114232
X12252Y11677
X12211Y11685
X121772Y11685
X12075Y11871
X12041Y11933
X12254Y11951
X12075Y11993
X12036Y12059
X12059Y12097
X12119Y12117
X12063Y122402
X12124Y1225
X12063Y122717
X12148Y12367
X12065Y12421
X1215Y12437
X12035Y12464
X12068Y12559
X122913Y125591
X12502Y12224
X12425Y11897
X12474Y11677
X12394Y11646
X12361Y11622
X12417Y11598
X124941Y114429
X12302Y11401
X12494Y11356
X12491Y11293
X125039Y111811
X12457Y11136
X125039Y111358
X125039Y111004
X12393Y11067
X125039Y110551
X12458Y11055
X12415Y10965
X12372Y108661
X12303Y10849
X12463Y10814
X12504Y10803
X12303Y10799
X12445Y10584
X12317Y10557
X1232Y1041
X1231Y10225
X12422Y10211
X12305Y10117
X12304Y10077
X12746Y10547
X126634Y105846
X125945Y109055
X12536Y10906
X12565Y10934
X126102Y109488
X127579Y109567
X12656Y10974
X1266Y11015
X12669Y11178
X12714Y11179
X12706Y11234
X12687Y1174
X12728Y11752
X126063Y120276
X129173Y120276
X12984Y11624
X12961Y11567
X13Y112283
X12872Y112283
X12829Y11209
X12917Y11174
X12813Y111575
X12971Y11112
X128898Y111063
X128543Y111063
X130118Y110984
X129173Y110866
X129173Y110551
X129252Y110197
X129252Y109882
X13Y109488
X1299Y107
X128917Y105886
X1299Y1055
X1316Y10585
X132421Y106201
X132402Y108976
X131988Y108976
X13128Y109547
X130945Y109547
X132579Y109744
X131496Y110236
X130591Y110728
X13164Y111
X131654Y111654
X132598Y11187
X13179Y11207
X13077Y115
X131752Y116673
X13157Y11936
X13089Y11943
X130433Y119528
X1315Y11977
X13043Y1204
T3C.01969F095S3
X1037Y10745
X109764Y112835
X103701Y119173
X103701Y123366
X127402Y113819
X126772Y113543
X127402Y113268
X127638Y108425
X126575Y108327
X127343Y107933
X12565Y10645
X12689Y104724
X129272Y104724
X130728Y107933
X130728Y108465
X132185Y112579
X130669Y113268
X130669Y113819
X128937Y11785
X128937Y1185
T4C.03937F197S55
X125157Y121102
X125157Y12315
X126142Y12315
X127126Y12315
X12811Y12315
X127126Y121102
X12811Y121102
X126142Y121102
T5C.04F139S55
X100787Y117047
X101787Y117047
X100787Y118047
X101787Y118047
X100787Y119047
X101787Y119047
X100787Y120047
X101787Y120047
X100787Y121047
X101787Y121047
X100787Y122047
X101787Y122047
X106575Y125929
X105575Y125929
X106575Y124929
X105575Y124929
X106575Y123929
X105575Y123929
X106575Y122929
X105575Y122929
X106575Y121929
X105575Y121929
X106575Y120929
X105575Y120929
X106575Y119929
X105575Y119929
X106575Y118929
X105575Y118929
X106575Y117929
X105575Y117929
X106575Y116929
X105575Y116929
T6C.1378F035S794
X101732Y109449
X123091Y122126
X131614Y124843
X130177Y122126
T7C.1378F035S794
X101732Y124843
X131614Y103307
M30
