%FSLAX23Y23*%
%MOIN*%
G70*
G01*
G75*
G04 Layer_Color=8421504*
%ADD10O,0.024X0.059*%
%ADD11O,0.018X0.067*%
%ADD12O,0.059X0.024*%
%ADD13R,0.071X0.051*%
%ADD14R,0.039X0.039*%
%ADD15R,0.039X0.035*%
%ADD16R,0.039X0.039*%
%ADD17R,0.080X0.050*%
%ADD18R,0.134X0.085*%
%ADD19R,0.041X0.085*%
%ADD20R,0.041X0.085*%
%ADD21R,0.106X0.071*%
%ADD22R,0.035X0.039*%
%ADD23O,0.024X0.087*%
%ADD24R,0.051X0.071*%
%ADD25R,0.047X0.047*%
%ADD26R,0.075X0.134*%
%ADD27O,0.024X0.087*%
%ADD28C,0.040*%
%ADD29R,0.016X0.049*%
%ADD30R,0.071X0.079*%
%ADD31R,0.079X0.031*%
%ADD32R,0.134X0.063*%
%ADD33R,0.026X0.041*%
%ADD34R,0.134X0.075*%
%ADD35R,0.091X0.091*%
%ADD36O,0.087X0.024*%
%ADD37O,0.087X0.024*%
%ADD38R,0.071X0.094*%
%ADD39R,0.084X0.052*%
%ADD40O,0.011X0.067*%
%ADD41O,0.067X0.011*%
%ADD42R,0.141X0.116*%
%ADD43O,0.012X0.047*%
%ADD44R,0.177X0.059*%
%ADD45C,0.008*%
%ADD46C,0.012*%
%ADD47C,0.010*%
%ADD48C,0.025*%
%ADD49C,0.020*%
%ADD50C,0.015*%
%ADD51C,0.012*%
%ADD52C,0.004*%
%ADD53C,0.004*%
%ADD54C,0.118*%
%ADD55C,0.125*%
%ADD56C,0.035*%
%ADD57C,0.118*%
%ADD58C,0.065*%
%ADD59R,0.065X0.065*%
%ADD60R,0.065X0.065*%
%ADD61C,0.039*%
%ADD62C,0.040*%
%ADD63C,0.158*%
%ADD64C,0.168*%
%ADD65C,0.056*%
%ADD66C,0.079*%
%ADD67C,0.079*%
%ADD68C,0.058*%
%ADD69C,0.060*%
%ADD70R,0.071X0.063*%
%ADD71R,0.063X0.071*%
%ADD72R,0.013X0.028*%
%ADD73R,0.018X0.040*%
%ADD74R,0.028X0.039*%
%ADD75C,0.039*%
%ADD76C,0.039*%
%ADD77C,0.010*%
%ADD78C,0.008*%
%ADD79C,0.024*%
%ADD80C,0.012*%
%ADD81C,0.020*%
%ADD82R,2.010X0.213*%
%ADD83R,0.560X0.250*%
%ADD84R,0.920X0.150*%
%ADD85C,0.008*%
D10*
X523Y363D02*
D03*
X560Y288D02*
D03*
X598Y363D02*
D03*
X7585Y483D02*
D03*
X7548Y558D02*
D03*
X7623D02*
D03*
X4855Y357D02*
D03*
X4818Y282D02*
D03*
X4893D02*
D03*
X5070Y357D02*
D03*
X5033Y282D02*
D03*
X5108D02*
D03*
X1638Y1208D02*
D03*
X1563D02*
D03*
X1600Y1133D02*
D03*
X4717Y1062D02*
D03*
X4792D02*
D03*
X4755Y1137D02*
D03*
X3622Y1877D02*
D03*
X3697D02*
D03*
X3659Y1952D02*
D03*
X6452Y1872D02*
D03*
X6527D02*
D03*
X6490Y1947D02*
D03*
X3270Y983D02*
D03*
X3233Y1058D02*
D03*
X3308D02*
D03*
X1455Y418D02*
D03*
X1418Y493D02*
D03*
X1493D02*
D03*
X3065Y417D02*
D03*
X3102Y342D02*
D03*
X3027D02*
D03*
X5297Y1287D02*
D03*
X5372D02*
D03*
X5335Y1362D02*
D03*
D11*
X5004Y523D02*
D03*
X4978D02*
D03*
X4952D02*
D03*
X4927D02*
D03*
Y747D02*
D03*
X4952D02*
D03*
X4978D02*
D03*
X5004D02*
D03*
X5294Y523D02*
D03*
X5268D02*
D03*
X5242D02*
D03*
X5217D02*
D03*
Y747D02*
D03*
X5242D02*
D03*
X5268D02*
D03*
X5294D02*
D03*
X5081Y1482D02*
D03*
X5107D02*
D03*
X5133D02*
D03*
X5158D02*
D03*
Y1706D02*
D03*
X5133D02*
D03*
X5107D02*
D03*
X5081D02*
D03*
D12*
X7748Y1115D02*
D03*
X7823Y1152D02*
D03*
Y1077D02*
D03*
X4747Y613D02*
D03*
X4822Y650D02*
D03*
X4277Y403D02*
D03*
X4352Y365D02*
D03*
X4168Y902D02*
D03*
Y977D02*
D03*
X4093Y940D02*
D03*
X4097Y403D02*
D03*
Y328D02*
D03*
X4172Y365D02*
D03*
X2997Y1055D02*
D03*
X2922Y1018D02*
D03*
Y1093D02*
D03*
X1798Y1000D02*
D03*
X1873Y1037D02*
D03*
Y962D02*
D03*
X1798Y1250D02*
D03*
X1873Y1287D02*
D03*
Y1212D02*
D03*
X6137Y1625D02*
D03*
X6062Y1588D02*
D03*
Y1663D02*
D03*
X6142Y635D02*
D03*
X6067Y598D02*
D03*
Y673D02*
D03*
X5458Y1625D02*
D03*
X5533Y1662D02*
D03*
Y1587D02*
D03*
X5468Y635D02*
D03*
X5543Y672D02*
D03*
Y597D02*
D03*
X2543Y405D02*
D03*
X2618Y367D02*
D03*
Y442D02*
D03*
X4277Y328D02*
D03*
X4747Y688D02*
D03*
X2298Y367D02*
D03*
Y442D02*
D03*
X2223Y405D02*
D03*
D13*
X5385Y357D02*
D03*
Y243D02*
D03*
X1465Y1242D02*
D03*
Y1128D02*
D03*
X4485Y318D02*
D03*
Y432D02*
D03*
X5800Y1432D02*
D03*
Y1318D02*
D03*
X5805Y432D02*
D03*
Y318D02*
D03*
X3112Y1168D02*
D03*
Y1054D02*
D03*
X3922Y929D02*
D03*
Y1043D02*
D03*
X2962Y679D02*
D03*
Y793D02*
D03*
X4417Y1069D02*
D03*
Y1183D02*
D03*
X5255Y1593D02*
D03*
Y1707D02*
D03*
X4790Y1878D02*
D03*
Y1992D02*
D03*
X3800Y448D02*
D03*
Y562D02*
D03*
D14*
X2185Y1966D02*
D03*
Y1904D02*
D03*
X2255Y1966D02*
D03*
Y1904D02*
D03*
X5084Y665D02*
D03*
Y603D02*
D03*
X2325Y1904D02*
D03*
Y1966D02*
D03*
X2395Y1904D02*
D03*
Y1966D02*
D03*
X2467Y1904D02*
D03*
Y1967D02*
D03*
X2557Y1904D02*
D03*
Y1967D02*
D03*
X3770Y1961D02*
D03*
Y1899D02*
D03*
X4717Y894D02*
D03*
Y957D02*
D03*
X3900Y1961D02*
D03*
Y1899D02*
D03*
X1447Y267D02*
D03*
Y330D02*
D03*
X397Y1284D02*
D03*
Y1347D02*
D03*
X4327Y957D02*
D03*
Y894D02*
D03*
X4627Y957D02*
D03*
Y894D02*
D03*
X4427Y894D02*
D03*
Y957D02*
D03*
X3802Y1124D02*
D03*
Y1187D02*
D03*
X1495Y636D02*
D03*
Y574D02*
D03*
X3222Y1214D02*
D03*
Y1151D02*
D03*
X3312Y1151D02*
D03*
Y1214D02*
D03*
X3730Y1124D02*
D03*
Y1186D02*
D03*
X3922Y1154D02*
D03*
Y1217D02*
D03*
X3405Y1961D02*
D03*
Y1899D02*
D03*
X3475Y1961D02*
D03*
Y1899D02*
D03*
X3412Y1207D02*
D03*
Y1144D02*
D03*
X4627Y1137D02*
D03*
Y1074D02*
D03*
X4527Y1074D02*
D03*
Y1137D02*
D03*
X2825Y1894D02*
D03*
Y1956D02*
D03*
X3195Y1899D02*
D03*
Y1961D02*
D03*
X2991Y1897D02*
D03*
Y1960D02*
D03*
X1552Y1399D02*
D03*
Y1462D02*
D03*
X1642Y1399D02*
D03*
Y1462D02*
D03*
X1462Y1399D02*
D03*
Y1462D02*
D03*
X3412Y1037D02*
D03*
Y974D02*
D03*
X4500Y1781D02*
D03*
Y1719D02*
D03*
X4395Y1781D02*
D03*
Y1719D02*
D03*
X4290Y1786D02*
D03*
Y1724D02*
D03*
X4500Y1899D02*
D03*
Y1961D02*
D03*
X4395Y1899D02*
D03*
Y1961D02*
D03*
X4290Y1904D02*
D03*
Y1966D02*
D03*
X4185Y1786D02*
D03*
Y1724D02*
D03*
X4080Y1781D02*
D03*
Y1719D02*
D03*
X3975Y1781D02*
D03*
Y1719D02*
D03*
X4185Y1904D02*
D03*
Y1966D02*
D03*
X4080Y1899D02*
D03*
Y1961D02*
D03*
X3975Y1899D02*
D03*
Y1961D02*
D03*
X3900Y1782D02*
D03*
Y1719D02*
D03*
X2685Y1966D02*
D03*
Y1904D02*
D03*
X5384Y600D02*
D03*
Y662D02*
D03*
X5220Y1284D02*
D03*
Y1346D02*
D03*
X4255Y894D02*
D03*
Y956D02*
D03*
X3545Y1899D02*
D03*
Y1961D02*
D03*
D15*
X4595Y1551D02*
D03*
Y1618D02*
D03*
X4527Y893D02*
D03*
Y959D02*
D03*
X5080Y1348D02*
D03*
Y1281D02*
D03*
X4750Y457D02*
D03*
Y524D02*
D03*
X1405Y572D02*
D03*
Y639D02*
D03*
X2755Y1958D02*
D03*
Y1891D02*
D03*
X5150Y1281D02*
D03*
Y1348D02*
D03*
X5345Y1672D02*
D03*
X4665Y1552D02*
D03*
Y1619D02*
D03*
X4680Y1901D02*
D03*
Y1968D02*
D03*
X2460Y468D02*
D03*
Y401D02*
D03*
X5345Y1739D02*
D03*
X2390Y402D02*
D03*
Y469D02*
D03*
D16*
X4231Y480D02*
D03*
X4169D02*
D03*
X2176Y1380D02*
D03*
X2114D02*
D03*
X704Y1430D02*
D03*
X766D02*
D03*
X1506Y1970D02*
D03*
X1444D02*
D03*
X354Y1979D02*
D03*
X416D02*
D03*
X4169Y825D02*
D03*
X4231D02*
D03*
X4231Y755D02*
D03*
X4169D02*
D03*
X729Y285D02*
D03*
X791D02*
D03*
X729Y365D02*
D03*
X791D02*
D03*
X704Y1345D02*
D03*
X766D02*
D03*
X739Y990D02*
D03*
X801D02*
D03*
X6229Y635D02*
D03*
X6291D02*
D03*
X4169Y620D02*
D03*
X4231D02*
D03*
X4169Y550D02*
D03*
X4231D02*
D03*
X1802Y1488D02*
D03*
X1865D02*
D03*
X2961Y936D02*
D03*
X3023D02*
D03*
X1446Y791D02*
D03*
X1508D02*
D03*
X1446Y891D02*
D03*
X1508D02*
D03*
X1446Y991D02*
D03*
X1508D02*
D03*
X2114Y1310D02*
D03*
X2176D02*
D03*
X2114Y1450D02*
D03*
X2176D02*
D03*
X2114Y1520D02*
D03*
X2176D02*
D03*
X2114Y1595D02*
D03*
X2176D02*
D03*
X2114Y1690D02*
D03*
X2176D02*
D03*
X2114Y1780D02*
D03*
X2176D02*
D03*
D17*
X1308Y1091D02*
D03*
Y791D02*
D03*
X908D02*
D03*
Y1091D02*
D03*
Y991D02*
D03*
Y891D02*
D03*
X1308Y991D02*
D03*
Y891D02*
D03*
X1309Y265D02*
D03*
Y365D02*
D03*
X909D02*
D03*
Y265D02*
D03*
X908Y1971D02*
D03*
Y1871D02*
D03*
X1308D02*
D03*
Y1971D02*
D03*
X912Y1279D02*
D03*
Y1579D02*
D03*
X1312D02*
D03*
Y1279D02*
D03*
Y1379D02*
D03*
Y1479D02*
D03*
X912Y1379D02*
D03*
Y1479D02*
D03*
D18*
X6495Y1646D02*
D03*
X6825D02*
D03*
X7787Y594D02*
D03*
X7787Y1646D02*
D03*
X6697Y594D02*
D03*
X7017D02*
D03*
X7397D02*
D03*
X7150Y1646D02*
D03*
X7464Y1644D02*
D03*
D19*
X6586Y1402D02*
D03*
X6495D02*
D03*
X6916D02*
D03*
X6825D02*
D03*
X7696Y838D02*
D03*
X7787D02*
D03*
X7878Y1402D02*
D03*
X7787D02*
D03*
X6697Y838D02*
D03*
X6606D02*
D03*
X7017D02*
D03*
X6926D02*
D03*
X7397D02*
D03*
X7306D02*
D03*
X7241Y1402D02*
D03*
X7150D02*
D03*
X7464Y1400D02*
D03*
X7555D02*
D03*
D20*
X6404Y1402D02*
D03*
X6734D02*
D03*
X7878Y838D02*
D03*
X7696Y1402D02*
D03*
X6788Y838D02*
D03*
X7108D02*
D03*
X7488D02*
D03*
X7059Y1402D02*
D03*
X7373Y1400D02*
D03*
D21*
X7017Y1768D02*
D03*
Y1943D02*
D03*
Y268D02*
D03*
Y443D02*
D03*
X6697Y1768D02*
D03*
Y1943D02*
D03*
X7787Y1758D02*
D03*
Y1933D02*
D03*
X7285Y1766D02*
D03*
Y1941D02*
D03*
X7525D02*
D03*
Y1766D02*
D03*
X7787Y443D02*
D03*
Y268D02*
D03*
X6697Y443D02*
D03*
Y268D02*
D03*
X7397D02*
D03*
Y443D02*
D03*
D22*
X848Y620D02*
D03*
X781D02*
D03*
X6133Y1740D02*
D03*
X6066D02*
D03*
X6071Y520D02*
D03*
X6138D02*
D03*
X6071Y750D02*
D03*
X6138D02*
D03*
X5539Y520D02*
D03*
X5472D02*
D03*
X5539Y1740D02*
D03*
X5472D02*
D03*
X5539Y750D02*
D03*
X5472D02*
D03*
X5539Y1515D02*
D03*
X5472D02*
D03*
X6066Y1515D02*
D03*
X6133D02*
D03*
X2763Y300D02*
D03*
X2696D02*
D03*
Y510D02*
D03*
X2764Y440D02*
D03*
Y370D02*
D03*
X2697Y440D02*
D03*
Y370D02*
D03*
X4272Y244D02*
D03*
X4339D02*
D03*
X2763Y510D02*
D03*
D23*
X5650Y1720D02*
D03*
X5800D02*
D03*
X5950D02*
D03*
Y1531D02*
D03*
X5800D02*
D03*
X5750D02*
D03*
X5700D02*
D03*
X5650D02*
D03*
X5900Y1720D02*
D03*
X5850D02*
D03*
X5750D02*
D03*
X5700D02*
D03*
X5850Y1531D02*
D03*
X5900D02*
D03*
X521Y830D02*
D03*
X469D02*
D03*
X573Y621D02*
D03*
X521D02*
D03*
X625Y830D02*
D03*
Y621D02*
D03*
X469D02*
D03*
X4586Y550D02*
D03*
X4536D02*
D03*
X4336D02*
D03*
X4386D02*
D03*
X4436D02*
D03*
X4486D02*
D03*
X4636D02*
D03*
X4336Y758D02*
D03*
X4386D02*
D03*
X4436D02*
D03*
X4486D02*
D03*
X4536D02*
D03*
X4586D02*
D03*
X4636D02*
D03*
X1764Y1591D02*
D03*
X5655Y541D02*
D03*
X5705D02*
D03*
X5755D02*
D03*
X5805D02*
D03*
X5855D02*
D03*
X5905D02*
D03*
X5955D02*
D03*
Y730D02*
D03*
X5905D02*
D03*
X5855D02*
D03*
X5805D02*
D03*
X5755D02*
D03*
X5705D02*
D03*
X5655D02*
D03*
D24*
X1891Y1938D02*
D03*
X1777D02*
D03*
X1911Y1378D02*
D03*
X1797D02*
D03*
X1907Y1125D02*
D03*
X1793D02*
D03*
X4758Y1605D02*
D03*
X4872D02*
D03*
D25*
X3075Y1879D02*
D03*
Y1961D02*
D03*
X3270Y1879D02*
D03*
Y1961D02*
D03*
D26*
X3395Y381D02*
D03*
X3241D02*
D03*
D27*
X573Y830D02*
D03*
X1914Y1795D02*
D03*
X1864D02*
D03*
X1814D02*
D03*
X1764D02*
D03*
X1914Y1591D02*
D03*
X1864D02*
D03*
X1814D02*
D03*
D28*
X7847Y79D02*
D03*
X147D02*
D03*
Y2126D02*
D03*
D29*
X7327Y1078D02*
D03*
X7308Y1156D02*
D03*
X7288Y1078D02*
D03*
X7268Y1156D02*
D03*
X7249Y1078D02*
D03*
X7229Y1156D02*
D03*
X6973Y1078D02*
D03*
X7170D02*
D03*
X7190Y1156D02*
D03*
X7209Y1078D02*
D03*
X7347Y1156D02*
D03*
X6993D02*
D03*
X7012Y1078D02*
D03*
X7032Y1156D02*
D03*
X7052Y1078D02*
D03*
X7071Y1156D02*
D03*
X7130Y1078D02*
D03*
X7150Y1156D02*
D03*
X7091Y1078D02*
D03*
X7111Y1156D02*
D03*
D30*
X6910Y1117D02*
D03*
X7410D02*
D03*
D31*
X1224Y620D02*
D03*
Y520D02*
D03*
X996D02*
D03*
Y620D02*
D03*
D32*
X4925Y1721D02*
D03*
Y1878D02*
D03*
D33*
X4758Y1701D02*
D03*
X4683D02*
D03*
Y1799D02*
D03*
X4720D02*
D03*
X4758D02*
D03*
D34*
X3652Y572D02*
D03*
Y418D02*
D03*
D35*
X3452Y566D02*
D03*
Y743D02*
D03*
D36*
X3569Y1727D02*
D03*
X3778Y1571D02*
D03*
Y1623D02*
D03*
Y1675D02*
D03*
Y1727D02*
D03*
X3569Y1571D02*
D03*
Y1623D02*
D03*
D37*
X3569Y1675D02*
D03*
X6447Y1272D02*
D03*
Y1222D02*
D03*
Y1172D02*
D03*
Y1122D02*
D03*
Y1072D02*
D03*
Y1022D02*
D03*
Y972D02*
D03*
Y922D02*
D03*
X6243Y972D02*
D03*
Y1022D02*
D03*
Y1072D02*
D03*
Y1122D02*
D03*
Y1172D02*
D03*
Y1222D02*
D03*
Y1272D02*
D03*
Y922D02*
D03*
D38*
X415Y283D02*
D03*
Y445D02*
D03*
D39*
X3202Y818D02*
D03*
Y573D02*
D03*
D40*
X2737Y1184D02*
D03*
X2718D02*
D03*
X2796Y1754D02*
D03*
X2757Y1184D02*
D03*
X2836Y1754D02*
D03*
X2816D02*
D03*
X2777D02*
D03*
X2757D02*
D03*
X2737D02*
D03*
X2718D02*
D03*
X2698D02*
D03*
X2678D02*
D03*
X2659D02*
D03*
X2639D02*
D03*
X2619D02*
D03*
X2599D02*
D03*
X2580D02*
D03*
X2560D02*
D03*
X2540D02*
D03*
X2521D02*
D03*
X2501D02*
D03*
X2481D02*
D03*
X2462D02*
D03*
X2836Y1184D02*
D03*
X2816D02*
D03*
X2796D02*
D03*
X2777D02*
D03*
X2698D02*
D03*
X2678D02*
D03*
X2659D02*
D03*
X2639D02*
D03*
X2619D02*
D03*
X2599D02*
D03*
X2580D02*
D03*
X2560D02*
D03*
X2540D02*
D03*
X2521D02*
D03*
X2501D02*
D03*
X2481D02*
D03*
X2462D02*
D03*
D41*
X2365Y1362D02*
D03*
X2936Y1618D02*
D03*
X2365Y1657D02*
D03*
Y1637D02*
D03*
Y1618D02*
D03*
Y1598D02*
D03*
Y1578D02*
D03*
Y1559D02*
D03*
Y1539D02*
D03*
Y1519D02*
D03*
Y1499D02*
D03*
Y1480D02*
D03*
Y1460D02*
D03*
Y1440D02*
D03*
Y1421D02*
D03*
Y1401D02*
D03*
Y1381D02*
D03*
Y1342D02*
D03*
Y1322D02*
D03*
Y1303D02*
D03*
Y1283D02*
D03*
X2936Y1657D02*
D03*
Y1637D02*
D03*
Y1598D02*
D03*
Y1578D02*
D03*
Y1559D02*
D03*
Y1539D02*
D03*
Y1519D02*
D03*
Y1499D02*
D03*
Y1480D02*
D03*
Y1460D02*
D03*
Y1440D02*
D03*
Y1421D02*
D03*
Y1401D02*
D03*
Y1381D02*
D03*
Y1362D02*
D03*
Y1342D02*
D03*
Y1322D02*
D03*
Y1303D02*
D03*
Y1283D02*
D03*
D42*
X3707Y851D02*
D03*
D43*
X3617Y742D02*
D03*
X3643D02*
D03*
X3669D02*
D03*
X3694D02*
D03*
X3720D02*
D03*
X3745D02*
D03*
X3771D02*
D03*
X3797D02*
D03*
X3617Y960D02*
D03*
X3643D02*
D03*
X3669D02*
D03*
X3694D02*
D03*
X3720D02*
D03*
X3745D02*
D03*
X3771D02*
D03*
X3797D02*
D03*
D44*
X2675Y976D02*
D03*
X2341D02*
D03*
D47*
X-143Y-274D02*
Y-334D01*
X-163Y-274D02*
X-123D01*
X-102Y-294D02*
X-107Y-297D01*
X-113Y-303D01*
X-116Y-311D01*
Y-317D01*
X-113Y-326D01*
X-107Y-331D01*
X-102Y-334D01*
X-93D01*
X-87Y-331D01*
X-82Y-326D01*
X-79Y-317D01*
Y-311D01*
X-82Y-303D01*
X-87Y-297D01*
X-93Y-294D01*
X-102D01*
X-66D02*
Y-354D01*
Y-303D02*
X-60Y-297D01*
X-54Y-294D01*
X-46D01*
X-40Y-297D01*
X-34Y-303D01*
X-31Y-311D01*
Y-317D01*
X-34Y-326D01*
X-40Y-331D01*
X-46Y-334D01*
X-54D01*
X-60Y-331D01*
X-66Y-326D01*
X29Y-306D02*
X54D01*
X63Y-303D01*
X66Y-300D01*
X69Y-294D01*
Y-286D01*
X66Y-280D01*
X63Y-277D01*
X54Y-274D01*
X29D01*
Y-334D01*
X116Y-294D02*
Y-334D01*
Y-303D02*
X111Y-297D01*
X105Y-294D01*
X96D01*
X91Y-297D01*
X85Y-303D01*
X82Y-311D01*
Y-317D01*
X85Y-326D01*
X91Y-331D01*
X96Y-334D01*
X105D01*
X111Y-331D01*
X116Y-326D01*
X164Y-303D02*
X161Y-297D01*
X152Y-294D01*
X144D01*
X135Y-297D01*
X132Y-303D01*
X135Y-309D01*
X141Y-311D01*
X155Y-314D01*
X161Y-317D01*
X164Y-323D01*
Y-326D01*
X161Y-331D01*
X152Y-334D01*
X144D01*
X135Y-331D01*
X132Y-326D01*
X185Y-274D02*
Y-323D01*
X188Y-331D01*
X193Y-334D01*
X199D01*
X176Y-294D02*
X196D01*
X208Y-311D02*
X242D01*
Y-306D01*
X239Y-300D01*
X236Y-297D01*
X231Y-294D01*
X222D01*
X216Y-297D01*
X211Y-303D01*
X208Y-311D01*
Y-317D01*
X211Y-326D01*
X216Y-331D01*
X222Y-334D01*
X231D01*
X236Y-331D01*
X242Y-326D01*
D52*
X-200Y2224D02*
X-100Y2324D01*
X-200Y-21D02*
X-100Y-121D01*
X8180D02*
X8280Y-21D01*
X8180Y2324D02*
X8280Y2224D01*
X8280D01*
Y2074D02*
Y2224D01*
Y-21D02*
Y129D01*
X-100Y-121D02*
X8180D01*
X-100Y2324D02*
X8180D01*
X-200Y-21D02*
Y2224D01*
D53*
X8280Y2074D02*
X8792D01*
X8280Y129D02*
X8792D01*
Y2074D01*
M02*
