G04 CAM350 V9.5.2 (Build 226) Date:  Wed Nov 19 13:46:35 2008 *
G04 Database: (Untitled) *
G04 Layer 12: 09-000040-00PB_ *
%FSLAX35Y35*%
%MOIN*%
%SFA1.000B1.000*%

%MIA0B0*%
%IPPOS*%
%ADD10C,0.01575*%
%ADD11C,0.00984*%
%ADD12C,0.01969*%
%ADD13C,0.00787*%
%ADD14C,0.00394*%
%ADD15R,0.09449X0.09449*%
%ADD16C,0.01181*%
%ADD17C,0.02362*%
%ADD18R,0.05118X0.05118*%
%ADD22R,0.03937X0.03937*%
%ADD72C,0.01575*%
%ADD73R,0.03543X0.03543*%
%ADD30C,0.00197*%
%ADD54C,0.02559*%
%ADD55R,0.05906X0.05906*%
%ADD56R,0.05512X0.05512*%
%ADD63C,0.00400*%
%LN09-000040-00PB_*%
%LPD*%
G54D22*
X1264961Y1202756D03*
X1271260D03*
X1287402D03*
X1281102D03*
X1059055Y1161024D03*
X1065354D03*
X1040850Y1154000D03*
X1047150D03*
X1040850Y1147000D03*
X1047150D03*
X1046850Y1132587D03*
X1053150D03*
X1046850Y1125500D03*
X1053150D03*
X1216929Y1173031D03*
X1223228D03*
X1213780Y1101969D03*
Y1095669D03*
X1201969Y1101969D03*
Y1095669D03*
X1182087Y1152559D03*
Y1158858D03*
X1160630Y1024409D03*
Y1030709D03*
X1148031Y1024409D03*
Y1030709D03*
X1154331Y1024409D03*
Y1030709D03*
X1135433Y1024409D03*
Y1030709D03*
X1129134Y1024409D03*
Y1030709D03*
X1166929Y1024409D03*
Y1030709D03*
X1011811Y1039431D03*
Y1045731D03*
X1018110Y1039431D03*
Y1045731D03*
X1024409Y1039431D03*
Y1045731D03*
X1030709Y1039431D03*
Y1045731D03*
X1318701Y1150000D03*
X1312402D03*
X1246457Y1075984D03*
Y1069685D03*
X1145669Y1100591D03*
X1151969D03*
X1076772Y1161811D03*
X1083071D03*
X1287008Y1105906D03*
Y1099606D03*
X1145669Y1128150D03*
X1151969D03*
X1076772Y1155512D03*
X1083071D03*
X1151181Y1153150D03*
Y1159449D03*
X1144685Y1153150D03*
Y1159449D03*
X1083071Y1146063D03*
X1076772D03*
X1261024Y1099213D03*
X1254724D03*
X1121063Y1156693D03*
Y1162992D03*
X1091339Y1094094D03*
Y1087795D03*
X1100394Y1168110D03*
Y1174409D03*
X1118898Y1094094D03*
Y1087795D03*
X1297244Y1099606D03*
Y1105906D03*
X1134646Y1094094D03*
Y1087795D03*
X1151969Y1139764D03*
X1145669D03*
X1044882Y1250787D03*
Y1244488D03*
X1193307Y1059843D03*
X1199606D03*
X1059055Y1087008D03*
Y1080709D03*
X1119291Y1051969D03*
X1112992D03*
X1071457Y1098031D03*
Y1104331D03*
X1130709Y1119291D03*
X1124409D03*
X1151181Y1061811D03*
X1144882D03*
X1169882Y1069291D03*
X1163583D03*
X1061024Y1048425D03*
Y1054724D03*
X1089764Y1102559D03*
Y1108858D03*
X1074803Y1237795D03*
Y1231496D03*
Y1213386D03*
Y1219685D03*
X1138583Y1237795D03*
Y1231496D03*
Y1213386D03*
Y1219685D03*
X1206299Y1237795D03*
Y1231496D03*
Y1213386D03*
Y1219685D03*
X1223622Y1075984D03*
Y1069685D03*
X1206693Y1073228D03*
X1212992D03*
Y1057443D03*
X1206693D03*
X1272047Y1180315D03*
Y1186614D03*
X1176829Y1063575D03*
X1183128D03*
X1182950Y1058400D03*
X1176650D03*
X1225500Y1063650D03*
Y1057350D03*
X1193250Y1016800D03*
X1199550D03*
X1190750Y1005000D03*
X1184450D03*
G54D10*
X1214567Y1159744D02*
G01X1209449D01*
X1214567Y1157185D02*
G01X1209449D01*
X1214567Y1154626D02*
G01X1209449D01*
X1214567Y1152067D02*
G01X1209449D01*
X1214567Y1149508D02*
G01X1209449D01*
X1214567Y1146949D02*
G01X1209449D01*
X1214567Y1144390D02*
G01X1209449D01*
X1214567Y1141831D02*
G01X1209449D01*
X1192126D02*
G01X1187008D01*
X1192126Y1144390D02*
G01X1187008D01*
X1192126Y1146949D02*
G01X1187008D01*
X1192126Y1149508D02*
G01X1187008D01*
X1192126Y1152067D02*
G01X1187008D01*
X1192126Y1154626D02*
G01X1187008D01*
X1192126Y1157185D02*
G01X1187008D01*
X1192126Y1159744D02*
G01X1187008D01*
X1207158Y841043D02*
G01X1206084Y840551D01*
X1205369Y839075*
X1205011Y836614*
Y835138*
X1205369Y832677*
X1206084Y831201*
X1207158Y830709*
X1207874*
X1208948Y831201*
X1209664Y832677*
X1210021Y835138*
Y836614*
X1209664Y839075*
X1208948Y840551*
X1207874Y841043*
X1207158*
X1217895Y837598D02*
G01X1217538Y836122D01*
X1216822Y835138*
X1215748Y834646*
X1215390*
X1214316Y835138*
X1213601Y836122*
X1213243Y837598*
Y838091*
X1213601Y839567*
X1214316Y840551*
X1215390Y841043*
X1215748*
X1216822Y840551*
X1217538Y839567*
X1217895Y837598*
Y835138*
X1217538Y832677*
X1216822Y831201*
X1215748Y830709*
X1215032*
X1213958Y831201*
X1213601Y832185*
X1221117Y835138D02*
G01X1227559D01*
X1232928Y841043D02*
G01X1231854Y840551D01*
X1231138Y839075*
X1230780Y836614*
Y835138*
X1231138Y832677*
X1231854Y831201*
X1232928Y830709*
X1233644*
X1234717Y831201*
X1235433Y832677*
X1235791Y835138*
Y836614*
X1235433Y839075*
X1234717Y840551*
X1233644Y841043*
X1232928*
X1241160D02*
G01X1240086Y840551D01*
X1239370Y839075*
X1239012Y836614*
Y835138*
X1239370Y832677*
X1240086Y831201*
X1241160Y830709*
X1241875*
X1242949Y831201*
X1243665Y832677*
X1244023Y835138*
Y836614*
X1243665Y839075*
X1242949Y840551*
X1241875Y841043*
X1241160*
X1249392D02*
G01X1248318Y840551D01*
X1247602Y839075*
X1247244Y836614*
Y835138*
X1247602Y832677*
X1248318Y831201*
X1249392Y830709*
X1250107*
X1251181Y831201*
X1251897Y832677*
X1252255Y835138*
Y836614*
X1251897Y839075*
X1251181Y840551*
X1250107Y841043*
X1249392*
X1257623D02*
G01X1256550Y840551D01*
X1255834Y839075*
X1255476Y836614*
Y835138*
X1255834Y832677*
X1256550Y831201*
X1257623Y830709*
X1258339*
X1259413Y831201*
X1260129Y832677*
X1260487Y835138*
Y836614*
X1260129Y839075*
X1259413Y840551*
X1258339Y841043*
X1257623*
X1267287D02*
G01X1263708Y834154D01*
X1269077*
X1267287Y841043D02*
G01Y830709D01*
X1274445Y841043D02*
G01X1273372Y840551D01*
X1272656Y839075*
X1272298Y836614*
Y835138*
X1272656Y832677*
X1273372Y831201*
X1274445Y830709*
X1275161*
X1276235Y831201*
X1276951Y832677*
X1277309Y835138*
Y836614*
X1276951Y839075*
X1276235Y840551*
X1275161Y841043*
X1274445*
X992377Y895915D02*
G01X995240Y885581D01*
X998103Y895915D02*
G01X995240Y885581D01*
X1001324Y895915D02*
G01Y885581D01*
Y895915D02*
G01X1005977D01*
X1001324Y890994D02*
G01X1004188D01*
X1001324Y885581D02*
G01X1005977D01*
X1009198Y895915D02*
G01Y885581D01*
X1014209Y895915D02*
G01Y885581D01*
X1009198Y890994D02*
G01X1014209D01*
X1017430Y895915D02*
G01Y885581D01*
X1026020Y893455D02*
G01X1025662Y894439D01*
X1024946Y895423*
X1024230Y895915*
X1022799*
X1022083Y895423*
X1021367Y894439*
X1021009Y893455*
X1020651Y891978*
Y889518*
X1021009Y888041*
X1021367Y887057*
X1022083Y886073*
X1022799Y885581*
X1024230*
X1024946Y886073*
X1025662Y887057*
X1026020Y888041*
X1029241Y895915D02*
G01Y885581D01*
X1033536*
X1036757Y895915D02*
G01Y885581D01*
Y895915D02*
G01X1041410D01*
X1036757Y890994D02*
G01X1039621D01*
X1036757Y885581D02*
G01X1041410D01*
X1052863Y895915D02*
G01Y885581D01*
Y895915D02*
G01X1055369D01*
X1056442Y895423*
X1057158Y894439*
X1057516Y893455*
X1057874Y891978*
Y889518*
X1057516Y888041*
X1057158Y887057*
X1056442Y886073*
X1055369Y885581*
X1052863*
X1061095Y895915D02*
G01Y885581D01*
X1069327Y894439D02*
G01X1068611Y895423D01*
X1067538Y895915*
X1066106*
X1065032Y895423*
X1064316Y894439*
Y893455*
X1064674Y892470*
X1065032Y891978*
X1065748Y891486*
X1067895Y890502*
X1068611Y890010*
X1068969Y889518*
X1069327Y888533*
Y887057*
X1068611Y886073*
X1067538Y885581*
X1066106*
X1065032Y886073*
X1064316Y887057*
X1072548Y895915D02*
G01Y885581D01*
Y895915D02*
G01X1075770D01*
X1076843Y895423*
X1077201Y894931*
X1077559Y893947*
Y892470*
X1077201Y891486*
X1076843Y890994*
X1075770Y890502*
X1072548*
X1080780Y895915D02*
G01Y885581D01*
X1085075*
X1091160Y895915D02*
G01X1088296Y885581D01*
X1091160Y895915D02*
G01X1094023Y885581D01*
X1089370Y889026D02*
G01X1092949D01*
X1097244Y895915D02*
G01X1100107Y890994D01*
Y885581*
X1102971Y895915D02*
G01X1100107Y890994D01*
X1119435Y894439D02*
G01X1118719Y895423D01*
X1117645Y895915*
X1116213*
X1115140Y895423*
X1114424Y894439*
Y893455*
X1114782Y892470*
X1115140Y891978*
X1115855Y891486*
X1118003Y890502*
X1118719Y890010*
X1119077Y889518*
X1119435Y888533*
Y887057*
X1118719Y886073*
X1117645Y885581*
X1116213*
X1115140Y886073*
X1114424Y887057*
X1122656Y895915D02*
G01X1125519Y890994D01*
Y885581*
X1128382Y895915D02*
G01X1125519Y890994D01*
X1136614Y894439D02*
G01X1135898Y895423D01*
X1134825Y895915*
X1133393*
X1132319Y895423*
X1131603Y894439*
Y893455*
X1131961Y892470*
X1132319Y891978*
X1133035Y891486*
X1135183Y890502*
X1135898Y890010*
X1136256Y889518*
X1136614Y888533*
Y887057*
X1135898Y886073*
X1134825Y885581*
X1133393*
X1132319Y886073*
X1131603Y887057*
X1142341Y895915D02*
G01Y885581D01*
X1139835Y895915D02*
G01X1144846D01*
X1148067D02*
G01Y885581D01*
Y895915D02*
G01X1152720D01*
X1148067Y890994D02*
G01X1150931D01*
X1148067Y885581D02*
G01X1152720D01*
X1155941Y895915D02*
G01Y885581D01*
Y895915D02*
G01X1158805Y885581D01*
X1161668Y895915D02*
G01X1158805Y885581D01*
X1161668Y895915D02*
G01Y885581D01*
X1178490Y893455D02*
G01X1178132Y894439D01*
X1177416Y895423*
X1176700Y895915*
X1175268*
X1174553Y895423*
X1173837Y894439*
X1173479Y893455*
X1173121Y891978*
Y889518*
X1173479Y888041*
X1173837Y887057*
X1174553Y886073*
X1175268Y885581*
X1176700*
X1177416Y886073*
X1178132Y887057*
X1178490Y888041*
X1183858Y895915D02*
G01X1183142Y895423D01*
X1182427Y894439*
X1182069Y893455*
X1181711Y891978*
Y889518*
X1182069Y888041*
X1182427Y887057*
X1183142Y886073*
X1183858Y885581*
X1185290*
X1186006Y886073*
X1186722Y887057*
X1187079Y888041*
X1187437Y889518*
Y891978*
X1187079Y893455*
X1186722Y894439*
X1186006Y895423*
X1185290Y895915*
X1183858*
X1190659D02*
G01Y885581D01*
Y895915D02*
G01X1195669Y885581D01*
Y895915D02*
G01Y885581D01*
X1201396Y895915D02*
G01Y885581D01*
X1198890Y895915D02*
G01X1203901D01*
X1207122D02*
G01Y885581D01*
Y895915D02*
G01X1210344D01*
X1211417Y895423*
X1211775Y894931*
X1212133Y893947*
Y892963*
X1211775Y891978*
X1211417Y891486*
X1210344Y890994*
X1207122*
X1209628D02*
G01X1212133Y885581D01*
X1217502Y895915D02*
G01X1216786Y895423D01*
X1216070Y894439*
X1215712Y893455*
X1215354Y891978*
Y889518*
X1215712Y888041*
X1216070Y887057*
X1216786Y886073*
X1217502Y885581*
X1218933*
X1219649Y886073*
X1220365Y887057*
X1220723Y888041*
X1221081Y889518*
Y891978*
X1220723Y893455*
X1220365Y894439*
X1219649Y895423*
X1218933Y895915*
X1217502*
X1224302D02*
G01Y885581D01*
X1228597*
X1231818Y895915D02*
G01Y885581D01*
X1236113*
X1239334Y895915D02*
G01Y885581D01*
Y895915D02*
G01X1243987D01*
X1239334Y890994D02*
G01X1242198D01*
X1239334Y885581D02*
G01X1243987D01*
X1247208Y895915D02*
G01Y885581D01*
Y895915D02*
G01X1250429D01*
X1251503Y895423*
X1251861Y894931*
X1252219Y893947*
Y892963*
X1251861Y891978*
X1251503Y891486*
X1250429Y890994*
X1247208*
X1249714D02*
G01X1252219Y885581D01*
X1263672Y895915D02*
G01Y885581D01*
Y895915D02*
G01X1266893D01*
X1267967Y895423*
X1268325Y894931*
X1268683Y893947*
Y892963*
X1268325Y891978*
X1267967Y891486*
X1266893Y890994*
X1263672D02*
G01X1266893D01*
X1267967Y890502*
X1268325Y890010*
X1268683Y889026*
Y887549*
X1268325Y886565*
X1267967Y886073*
X1266893Y885581*
X1263672*
X1274052Y895915D02*
G01X1273336Y895423D01*
X1272620Y894439*
X1272262Y893455*
X1271904Y891978*
Y889518*
X1272262Y888041*
X1272620Y887057*
X1273336Y886073*
X1274052Y885581*
X1275483*
X1276199Y886073*
X1276915Y887057*
X1277273Y888041*
X1277631Y889518*
Y891978*
X1277273Y893455*
X1276915Y894439*
X1276199Y895423*
X1275483Y895915*
X1274052*
X1283715D02*
G01X1280852Y885581D01*
X1283715Y895915D02*
G01X1286578Y885581D01*
X1281926Y889026D02*
G01X1285505D01*
X1289800Y895915D02*
G01Y885581D01*
Y895915D02*
G01X1293021D01*
X1294094Y895423*
X1294452Y894931*
X1294810Y893947*
Y892963*
X1294452Y891978*
X1294094Y891486*
X1293021Y890994*
X1289800*
X1292305D02*
G01X1294810Y885581D01*
X1298031Y895915D02*
G01Y885581D01*
Y895915D02*
G01X1300537D01*
X1301611Y895423*
X1302326Y894439*
X1302684Y893455*
X1303042Y891978*
Y889518*
X1302684Y888041*
X1302326Y887057*
X1301611Y886073*
X1300537Y885581*
X1298031*
X1283071Y841043D02*
G01Y830709D01*
Y841043D02*
G01X1286292D01*
X1287366Y840551*
X1287724Y840059*
X1288082Y839075*
Y837598*
X1287724Y836614*
X1287366Y836122*
X1286292Y835630*
X1283071*
X1291303Y841043D02*
G01Y830709D01*
Y841043D02*
G01X1294524D01*
X1295598Y840551*
X1295956Y840059*
X1296314Y839075*
Y838091*
X1295956Y837106*
X1295598Y836614*
X1294524Y836122*
X1291303D02*
G01X1294524D01*
X1295598Y835630*
X1295956Y835138*
X1296314Y834154*
Y832677*
X1295956Y831693*
X1295598Y831201*
X1294524Y830709*
X1291303*
X1299893Y831693D02*
G01X1299535Y831201D01*
X1299893Y830709*
X1300251Y831201*
X1299893Y831693*
X1303472Y841043D02*
G01Y830709D01*
Y841043D02*
G01X1306693D01*
X1307767Y840551*
X1308125Y840059*
X1308482Y839075*
Y837598*
X1308125Y836614*
X1307767Y836122*
X1306693Y835630*
X1303472*
X1311704Y841043D02*
G01Y830709D01*
X1316714Y841043D02*
G01Y830709D01*
X1311704Y836122D02*
G01X1316714D01*
X1322083Y841043D02*
G01X1321367Y840551D01*
X1320651Y839567*
X1320293Y838583*
X1319936Y837106*
Y834646*
X1320293Y833169*
X1320651Y832185*
X1321367Y831201*
X1322083Y830709*
X1323515*
X1324230Y831201*
X1324946Y832185*
X1325304Y833169*
X1325662Y834646*
Y837106*
X1325304Y838583*
X1324946Y839567*
X1324230Y840551*
X1323515Y841043*
X1322083*
X972047D02*
G01Y830709D01*
Y841043D02*
G01X975268D01*
X976342Y840551*
X976700Y840059*
X977058Y839075*
Y837598*
X976700Y836614*
X976342Y836122*
X975268Y835630*
X972047*
X983142Y841043D02*
G01X980279Y830709D01*
X983142Y841043D02*
G01X986006Y830709D01*
X981353Y834154D02*
G01X984932D01*
X994238Y839567D02*
G01X993522Y840551D01*
X992448Y841043*
X991016*
X989943Y840551*
X989227Y839567*
Y838583*
X989585Y837598*
X989943Y837106*
X990659Y836614*
X992806Y835630*
X993522Y835138*
X993880Y834646*
X994238Y833661*
Y832185*
X993522Y831201*
X992448Y830709*
X991016*
X989943Y831201*
X989227Y832185*
X999964Y841043D02*
G01Y830709D01*
X997459Y841043D02*
G01X1002470D01*
X1005691D02*
G01Y830709D01*
Y841043D02*
G01X1010344D01*
X1005691Y836122D02*
G01X1008554D01*
X1005691Y830709D02*
G01X1010344D01*
X1021797Y841043D02*
G01Y830709D01*
Y841043D02*
G01X1024660Y830709D01*
X1027523Y841043D02*
G01X1024660Y830709D01*
X1027523Y841043D02*
G01Y830709D01*
X1033608Y841043D02*
G01X1030744Y830709D01*
X1033608Y841043D02*
G01X1036471Y830709D01*
X1031818Y834154D02*
G01X1035397D01*
X1044703Y839567D02*
G01X1043987Y840551D01*
X1042913Y841043*
X1041482*
X1040408Y840551*
X1039692Y839567*
Y838583*
X1040050Y837598*
X1040408Y837106*
X1041124Y836614*
X1043271Y835630*
X1043987Y835138*
X1044345Y834646*
X1044703Y833661*
Y832185*
X1043987Y831201*
X1042913Y830709*
X1041482*
X1040408Y831201*
X1039692Y832185*
X1047924Y841043D02*
G01Y830709D01*
X1052935Y841043D02*
G01X1047924Y834154D01*
X1049714Y836614D02*
G01X1052935Y830709D01*
X1066893Y843012D02*
G01X1066178Y842028D01*
X1065462Y840551*
X1064746Y838583*
X1064388Y836122*
Y834154*
X1064746Y831693*
X1065462Y829724*
X1066178Y828248*
X1066893Y827264*
X1070115Y841043D02*
G01Y830709D01*
Y841043D02*
G01X1073336D01*
X1074409Y840551*
X1074767Y840059*
X1075125Y839075*
Y838091*
X1074767Y837106*
X1074409Y836614*
X1073336Y836122*
X1070115D02*
G01X1073336D01*
X1074409Y835630*
X1074767Y835138*
X1075125Y834154*
Y832677*
X1074767Y831693*
X1074409Y831201*
X1073336Y830709*
X1070115*
X1080494Y841043D02*
G01X1079778Y840551D01*
X1079062Y839567*
X1078704Y838583*
X1078346Y837106*
Y834646*
X1078704Y833169*
X1079062Y832185*
X1079778Y831201*
X1080494Y830709*
X1081926*
X1082641Y831201*
X1083357Y832185*
X1083715Y833169*
X1084073Y834646*
Y837106*
X1083715Y838583*
X1083357Y839567*
X1082641Y840551*
X1081926Y841043*
X1080494*
X1089800D02*
G01Y830709D01*
X1087294Y841043D02*
G01X1092305D01*
X1098031D02*
G01Y830709D01*
X1095526Y841043D02*
G01X1100537D01*
X1105906D02*
G01X1105190Y840551D01*
X1104474Y839567*
X1104116Y838583*
X1103758Y837106*
Y834646*
X1104116Y833169*
X1104474Y832185*
X1105190Y831201*
X1105906Y830709*
X1107337*
X1108053Y831201*
X1108769Y832185*
X1109127Y833169*
X1109485Y834646*
Y837106*
X1109127Y838583*
X1108769Y839567*
X1108053Y840551*
X1107337Y841043*
X1105906*
X1112706D02*
G01Y830709D01*
Y841043D02*
G01X1115569Y830709D01*
X1118432Y841043D02*
G01X1115569Y830709D01*
X1118432Y841043D02*
G01Y830709D01*
X1134896Y839567D02*
G01X1134180Y840551D01*
X1133107Y841043*
X1131675*
X1130601Y840551*
X1129885Y839567*
Y838583*
X1130243Y837598*
X1130601Y837106*
X1131317Y836614*
X1133465Y835630*
X1134180Y835138*
X1134538Y834646*
X1134896Y833661*
Y832185*
X1134180Y831201*
X1133107Y830709*
X1131675*
X1130601Y831201*
X1129885Y832185*
X1138117Y841043D02*
G01Y830709D01*
X1141339Y841043D02*
G01Y830709D01*
Y841043D02*
G01X1143844D01*
X1144918Y840551*
X1145634Y839567*
Y839567D02*
G01X1145991Y838583D01*
X1146349Y837106*
Y834646*
X1145991Y833169*
X1145634Y832185*
Y832185D02*
G01X1144918Y831201D01*
X1143844Y830709*
X1141339*
X1149571Y841043D02*
G01Y830709D01*
Y841043D02*
G01X1154223D01*
X1149571Y836122D02*
G01X1152434D01*
X1149571Y830709D02*
G01X1154223D01*
X1157445Y843012D02*
G01X1158160Y842028D01*
X1158876Y840551*
X1159592Y838583*
X1159950Y836122*
Y834154*
X1159592Y831693*
X1158876Y829724*
X1158160Y828248*
X1157445Y827264*
G54D11*
X1135039Y1048031D02*
G01Y1052362D01*
X1133071Y1048031D02*
G01Y1052362D01*
X1131102Y1048031D02*
G01Y1052362D01*
X1129134Y1048031D02*
G01Y1052362D01*
X1127165Y1048031D02*
G01Y1052362D01*
Y1064961D02*
G01Y1069291D01*
X1129134Y1064961D02*
G01Y1069291D01*
X1131102Y1064961D02*
G01Y1069291D01*
X1133071Y1064961D02*
G01Y1069291D01*
X1135039Y1064961D02*
G01Y1069291D01*
X964173Y855512D02*
G75*
G03X968110Y851575I3937D01*
Y851575D02*
G01X1129528D01*
Y851575D02*
G03X1133465Y855512J3937D01*
Y855512D02*
G01Y871260D01*
Y871260D02*
G03X1129528Y875197I-3937D01*
Y875197D02*
G01X968110D01*
Y875197D02*
G03X964173Y871260J-3937D01*
Y871260D02*
G01Y855512D01*
X1137402D02*
G03X1141339Y851575I3937D01*
Y851575D02*
G01X1176772D01*
Y851575D02*
G03X1180709Y855512J3937D01*
Y855512D02*
G01Y871260D01*
Y871260D02*
G03X1176772Y875197I-3937D01*
Y875197D02*
G01X1141339D01*
Y875197D02*
G03X1137402Y871260J-3937D01*
Y871260D02*
G01Y855512D01*
X964173Y827953D02*
G03X968110Y824016I3937D01*
Y824016D02*
G01X1176772D01*
Y824016D02*
G03X1180709Y827953J3937D01*
Y827953D02*
G01Y843701D01*
Y843701D02*
G03X1176772Y847638I-3937D01*
Y847638D02*
G01X968110D01*
Y847638D02*
G03X964173Y843701J-3937D01*
Y843701D02*
G01Y827953D01*
X1184646D02*
G03X1188583Y824016I3937D01*
Y824016D02*
G01X1330315D01*
Y824016D02*
G03X1334252Y827953J3937D01*
Y827953D02*
G01Y843701D01*
Y843701D02*
G03X1330315Y847638I-3937D01*
Y847638D02*
G01X1188583D01*
Y847638D02*
G03X1184646Y843701J-3937D01*
Y843701D02*
G01Y827953D01*
Y855512D02*
G03X1188583Y851575I3937D01*
Y851575D02*
G01X1330315D01*
Y851575D02*
G03X1334252Y855512J3937D01*
Y855512D02*
G01Y871260D01*
Y871260D02*
G03X1330315Y875197I-3937D01*
Y875197D02*
G01X1188583D01*
Y875197D02*
G03X1184646Y871260J-3937D01*
Y871260D02*
G01Y855512D01*
X964173Y883071D02*
G03X968110Y879134I3937D01*
Y879134D02*
G01X1330315D01*
Y879134D02*
G03X1334252Y883071J3937D01*
Y883071D02*
G01Y898819D01*
Y898819D02*
G03X1330315Y902756I-3937D01*
Y902756D02*
G01X968110D01*
Y902756D02*
G03X964173Y898819J-3937D01*
Y898819D02*
G01Y883071D01*
G54D12*
X1128839Y1258661D02*
G01X1124705D01*
X1128839Y1255512D02*
G01X1124705D01*
X1128839Y1252362D02*
G01X1124705D01*
X1128839Y1249213D02*
G01X1124705D01*
X1128839Y1246063D02*
G01X1124705D01*
X1128839Y1242913D02*
G01X1124705D01*
X1128839Y1239764D02*
G01X1124705D01*
X1128839Y1236614D02*
G01X1124705D01*
X1128839Y1233465D02*
G01X1124705D01*
X1128839Y1230315D02*
G01X1124705D01*
X1128839Y1227165D02*
G01X1124705D01*
X1128839Y1224016D02*
G01X1124705D01*
X1128839Y1220866D02*
G01X1124705D01*
X1128839Y1217717D02*
G01X1124705D01*
X1128839Y1214567D02*
G01X1124705D01*
X1128839Y1211417D02*
G01X1124705D01*
X1128839Y1208268D02*
G01X1124705D01*
X1128839Y1205118D02*
G01X1124705D01*
X1128839Y1201969D02*
G01X1124705D01*
X1128839Y1198819D02*
G01X1124705D01*
X1128839Y1195669D02*
G01X1124705D01*
X1128839Y1192520D02*
G01X1124705D01*
X1084744D02*
G01X1080610D01*
X1084744Y1195669D02*
G01X1080610D01*
X1084744Y1198819D02*
G01X1080610D01*
X1084744Y1201969D02*
G01X1080610D01*
X1084744Y1205118D02*
G01X1080610D01*
X1084744Y1208268D02*
G01X1080610D01*
X1084744Y1211417D02*
G01X1080610D01*
X1084744Y1214567D02*
G01X1080610D01*
X1084744Y1217717D02*
G01X1080610D01*
X1084744Y1220866D02*
G01X1080610D01*
X1084744Y1224016D02*
G01X1080610D01*
X1084744Y1227165D02*
G01X1080610D01*
X1084744Y1230315D02*
G01X1080610D01*
X1084744Y1233465D02*
G01X1080610D01*
X1084744Y1236614D02*
G01X1080610D01*
X1084744Y1239764D02*
G01X1080610D01*
X1084744Y1242913D02*
G01X1080610D01*
X1084744Y1246063D02*
G01X1080610D01*
X1084744Y1249213D02*
G01X1080610D01*
X1084744Y1252362D02*
G01X1080610D01*
X1084744Y1255512D02*
G01X1080610D01*
X1084744Y1258661D02*
G01X1080610D01*
X1196555D02*
G01X1192421D01*
X1196555Y1255512D02*
G01X1192421D01*
X1196555Y1252362D02*
G01X1192421D01*
X1196555Y1249213D02*
G01X1192421D01*
X1196555Y1246063D02*
G01X1192421D01*
X1196555Y1242913D02*
G01X1192421D01*
X1196555Y1239764D02*
G01X1192421D01*
X1196555Y1236614D02*
G01X1192421D01*
X1196555Y1233465D02*
G01X1192421D01*
X1196555Y1230315D02*
G01X1192421D01*
X1196555Y1227165D02*
G01X1192421D01*
X1196555Y1224016D02*
G01X1192421D01*
X1196555Y1220866D02*
G01X1192421D01*
X1196555Y1217717D02*
G01X1192421D01*
X1196555Y1214567D02*
G01X1192421D01*
X1196555Y1211417D02*
G01X1192421D01*
X1196555Y1208268D02*
G01X1192421D01*
X1196555Y1205118D02*
G01X1192421D01*
X1196555Y1201969D02*
G01X1192421D01*
X1196555Y1198819D02*
G01X1192421D01*
X1196555Y1195669D02*
G01X1192421D01*
X1196555Y1192520D02*
G01X1192421D01*
X1152461D02*
G01X1148327D01*
X1152461Y1195669D02*
G01X1148327D01*
X1152461Y1198819D02*
G01X1148327D01*
X1152461Y1201969D02*
G01X1148327D01*
X1152461Y1205118D02*
G01X1148327D01*
X1152461Y1208268D02*
G01X1148327D01*
X1152461Y1211417D02*
G01X1148327D01*
X1152461Y1214567D02*
G01X1148327D01*
X1152461Y1217717D02*
G01X1148327D01*
X1152461Y1220866D02*
G01X1148327D01*
X1152461Y1224016D02*
G01X1148327D01*
X1152461Y1227165D02*
G01X1148327D01*
X1152461Y1230315D02*
G01X1148327D01*
X1152461Y1233465D02*
G01X1148327D01*
X1152461Y1236614D02*
G01X1148327D01*
X1152461Y1239764D02*
G01X1148327D01*
X1152461Y1242913D02*
G01X1148327D01*
X1152461Y1246063D02*
G01X1148327D01*
X1152461Y1249213D02*
G01X1148327D01*
X1152461Y1252362D02*
G01X1148327D01*
X1152461Y1255512D02*
G01X1148327D01*
X1152461Y1258661D02*
G01X1148327D01*
X960236Y827953D02*
G03X968110Y820079I7874D01*
Y820079D02*
G01X1330315D01*
Y820079D02*
G03X1338189Y827953J7874D01*
Y827953D02*
G01Y898819D01*
Y898819D02*
G03X1330315Y906693I-7874D01*
Y906693D02*
G01X968110D01*
Y906693D02*
G03X960236Y898819J-7874D01*
Y898819D02*
G01Y827953D01*
G54D13*
X1191267Y843701D02*
G01X1191088Y844193D01*
X1190730Y844685*
X1190372Y844931*
X1189656*
X1189298Y844685*
X1188941Y844193*
X1188762Y843701*
X1188583Y842963*
Y841732*
X1188762Y840994*
X1188941Y840502*
X1189298Y840010*
X1189656Y839764*
X1190372*
X1190730Y840010*
X1191088Y840502*
X1191267Y840994*
Y841732*
X1190372D02*
G01X1191267D01*
X1192878Y844931D02*
G01Y839764D01*
Y844931D02*
G01X1195204D01*
X1192878Y842470D02*
G01X1194309D01*
X1192878Y839764D02*
G01X1195204D01*
X1196815Y844931D02*
G01Y839764D01*
Y844931D02*
G01X1198425D01*
X1198962Y844685*
X1199141Y844439*
X1199320Y843947*
Y843455*
X1199141Y842963*
X1198962Y842717*
X1198425Y842470*
X1196815*
X1198067D02*
G01X1199320Y839764D01*
X1200931Y844931D02*
G01Y839764D01*
Y844931D02*
G01X1202541D01*
X1203078Y844685*
X1203257Y844439*
X1203436Y843947*
Y843455*
X1203257Y842963*
X1203078Y842717*
X1202541Y842470*
X1200931D02*
G01X1202541D01*
X1203078Y842224*
X1203257Y841978*
X1203436Y841486*
Y840748*
X1203257Y840256*
X1203078Y840010*
X1202541Y839764*
X1200931*
X1205047Y844931D02*
G01Y839764D01*
Y844931D02*
G01X1207373D01*
X1205047Y842470D02*
G01X1206478D01*
X1205047Y839764D02*
G01X1207373D01*
X1208984Y844931D02*
G01Y839764D01*
Y844931D02*
G01X1210594D01*
X1211131Y844685*
X1211310Y844439*
X1211489Y843947*
Y843455*
X1211310Y842963*
X1211131Y842717*
X1210594Y842470*
X1208984*
X1210236D02*
G01X1211489Y839764D01*
X1213278Y843209D02*
G01X1213099Y842963D01*
Y842963D02*
G01X1213278Y842717D01*
X1213457Y842963*
X1213278Y843209*
Y840256D02*
G01X1213099Y840010D01*
Y840010D02*
G01X1213278Y839764D01*
X1213457Y840010*
X1213278Y840256*
X1188583Y872490D02*
G01Y867323D01*
Y872490D02*
G01X1189835D01*
X1190372Y872244*
X1190730Y871752*
X1190909Y871260*
X1191088Y870522*
Y869291*
X1190909Y868553*
X1190730Y868061*
X1190372Y867569*
X1189835Y867323*
X1188583*
X1194130Y872490D02*
G01X1192699Y867323D01*
X1194130Y872490D02*
G01X1195562Y867323D01*
X1193236Y869045D02*
G01X1195025D01*
X1198425Y872490D02*
G01Y867323D01*
X1197173Y872490D02*
G01X1199678D01*
X1201288D02*
G01Y867323D01*
Y872490D02*
G01X1203615D01*
X1201288Y870030D02*
G01X1202720D01*
X1201288Y867323D02*
G01X1203615D01*
X1205404Y870768D02*
G01X1205225Y870522D01*
X1205404Y870276*
X1205583Y870522*
X1205404Y870768*
Y867815D02*
G01X1205225Y867569D01*
X1205404Y867323*
X1205583Y867569*
X1205404Y867815*
X1141339Y872490D02*
G01Y867323D01*
Y872490D02*
G01X1142949D01*
X1143486Y872244*
X1143665Y871998*
X1143844Y871506*
Y871014*
X1143665Y870522*
X1143486Y870276*
X1142949Y870030*
X1141339*
X1142591D02*
G01X1143844Y867323D01*
X1145455Y872490D02*
G01Y867323D01*
Y872490D02*
G01X1147781D01*
X1145455Y870030D02*
G01X1146886D01*
X1145455Y867323D02*
G01X1147781D01*
X1149392Y872490D02*
G01X1150823Y867323D01*
X1152255Y872490D02*
G01X1150823Y867323D01*
X1154044Y870768D02*
G01X1153865Y870522D01*
X1154044Y870276*
X1154223Y870522*
X1154044Y870768*
Y867815D02*
G01X1153865Y867569D01*
X1154044Y867323*
X1154223Y867569*
X1154044Y867815*
X968110Y872490D02*
G01Y867323D01*
Y872490D02*
G01X969721D01*
X970258Y872244*
X970437Y871998*
X970616Y871506*
Y870768*
X970437Y870276*
X970258Y870030*
X969721Y869783*
X968110*
X973658Y872490D02*
G01X972226Y867323D01*
X973658Y872490D02*
G01X975089Y867323D01*
X972763Y869045D02*
G01X974553D01*
X976700Y872490D02*
G01Y867323D01*
Y872490D02*
G01X978311D01*
X978848Y872244*
X979026Y871998*
X979205Y871506*
Y871014*
X979026Y870522*
X978848Y870276*
X978311Y870030*
X976700*
X977953D02*
G01X979205Y867323D01*
X982069Y872490D02*
G01Y867323D01*
X980816Y872490D02*
G01X983321D01*
X989048D02*
G01Y867323D01*
Y872490D02*
G01X991553Y867323D01*
Y872490D02*
G01Y867323D01*
X994238Y872490D02*
G01X993880Y872244D01*
X993522Y871752*
X993343Y871260*
X993164Y870522*
Y869291*
X993343Y868553*
X993522Y868061*
X993880Y867569*
X994238Y867323*
X994953*
X995311Y867569*
X995669Y868061*
X995848Y868553*
X996027Y869291*
Y870522*
X995848Y871260*
X995669Y871752*
X995311Y872244*
X994953Y872490*
X994238*
X997817Y867815D02*
G01X997638Y867569D01*
X997817Y867323*
X997996Y867569*
X997817Y867815*
X999785Y870768D02*
G01X999606Y870522D01*
X999785Y870276*
X999964Y870522*
X999785Y870768*
Y867815D02*
G01X999606Y867569D01*
X999785Y867323*
X999964Y867569*
X999785Y867815*
X933071Y818898D02*
G03X933071Y818898I-3937D01*
X937008D02*
G03X937008Y818898I-7874D01*
X933071Y1267717D02*
G03X933071Y1267717I-3937D01*
X937008D02*
G03X937008Y1267717I-7874D01*
X1354331Y818898D02*
G03X1354331Y818898I-3937D01*
X1358268D02*
G03X1358268Y818898I-7874D01*
G54D14*
X917323D02*
G01X940945D01*
X929134Y807087D02*
G01Y830709D01*
X917323Y1267717D02*
G01X940945D01*
X929134Y1255906D02*
G01Y1279528D01*
X1338583Y818898D02*
G01X1362205D01*
X1350394Y807087D02*
G01Y830709D01*
X920866Y820079D02*
G01X920906D01*
X920866D02*
G01X921063D01*
G54D16*
X1101772Y1109744D02*
G01Y1107972D01*
X1105709Y1109744D02*
G01Y1107972D01*
X1103740Y1103445D02*
G01Y1101673D01*
G54D17*
X1322461Y1156693D02*
G01Y1162992D01*
X1317461Y1156693D02*
G01Y1162992D01*
X1312461Y1156693D02*
G01Y1162992D01*
X1307461Y1156693D02*
G01Y1162992D01*
Y1175591D02*
G01Y1181890D01*
X1312461Y1175591D02*
G01Y1181890D01*
X1317461Y1175591D02*
G01Y1181890D01*
X1322461Y1175591D02*
G01Y1181890D01*
X1066535Y1062402D02*
G01X1068898D01*
X1066535Y1066142D02*
G01X1068898D01*
X1066535Y1069882D02*
G01X1068898D01*
X1075984D02*
G01X1078346D01*
X1075984Y1066142D02*
G01X1078346D01*
X1075984Y1062402D02*
G01X1078346D01*
X1029000Y1052502D02*
G01Y1058801D01*
X1024000Y1052502D02*
G01Y1058801D01*
X1019000Y1052502D02*
G01Y1058801D01*
X1014000Y1052502D02*
G01Y1058801D01*
Y1071399D02*
G01Y1077698D01*
X1019000Y1071399D02*
G01Y1077698D01*
X1024000Y1071399D02*
G01Y1077698D01*
X1029000Y1071399D02*
G01Y1077698D01*
G54D18*
X1040748Y1179528D02*
G01X1038780D01*
X1040748Y1168110D02*
G01X1038780D01*
X1257677Y1083268D02*
G01X1255709D01*
X1257677Y1071850D02*
G01X1255709D01*
X1325000Y1083268D02*
G01X1323031D01*
X1325000Y1071850D02*
G01X1323031D01*
X1102559Y1024606D02*
G01Y1022638D01*
X1113976Y1024606D02*
G01Y1022638D01*
X1173819Y1024409D02*
G01X1175787D01*
X1173819Y1035827D02*
G01X1175787D01*
X1142009Y1074516D02*
G01Y1076484D01*
X1130591Y1074516D02*
G01Y1076484D01*
X1127756Y1112402D02*
G01X1125787D01*
X1127756Y1100984D02*
G01X1125787D01*
X1075984Y1088780D02*
G01X1074016D01*
X1075984Y1077362D02*
G01X1074016D01*
X1080906Y1024606D02*
G01Y1022638D01*
X1092323Y1024606D02*
G01Y1022638D01*
X1091142Y1153346D02*
G01X1093110D01*
X1091142Y1164764D02*
G01X1093110D01*
X1224213Y1254921D02*
G01Y1256890D01*
X1212795Y1254921D02*
G01Y1256890D01*
X1049984Y1108209D02*
G01X1048016D01*
X1049984Y1096791D02*
G01X1048016D01*
X1112008Y1143898D02*
G01X1113976D01*
X1112008Y1155315D02*
G01X1113976D01*
X1237205Y1070276D02*
G01X1239173D01*
X1237205Y1081693D02*
G01X1239173D01*
G54D15*
X1037008Y1200000D02*
G01Y1201181D01*
Y1224016D02*
G01Y1225197D01*
X1097638Y1118110D02*
G01Y1119291D01*
Y1142126D02*
G01Y1143307D01*
X1297244Y1135433D02*
G01X1298425D01*
X1321260D02*
G01X1322441D01*
X1283465D02*
G01X1282283D01*
X1259449D02*
G01X1258268D01*
G54D30*
X1278569Y1090181D02*
G01X1284276Y1084474D01*
X1289148Y1089346*
X1283441Y1095053*
X1278569Y1090181*
X1284105Y1084646D02*
G01X1284447D01*
X1283908Y1084843D02*
G01X1284644D01*
X1283711Y1085039D02*
G01X1284841D01*
X1283514Y1085236D02*
G01X1285038D01*
X1283317Y1085433D02*
G01X1285235D01*
X1283120Y1085630D02*
G01X1285431D01*
X1282923Y1085827D02*
G01X1285628D01*
X1282727Y1086024D02*
G01X1285825D01*
X1282530Y1086220D02*
G01X1286022D01*
X1282333Y1086417D02*
G01X1286219D01*
X1282136Y1086614D02*
G01X1286416D01*
X1281939Y1086811D02*
G01X1286612D01*
X1281742Y1087008D02*
G01X1286809D01*
X1281546Y1087205D02*
G01X1287006D01*
X1281349Y1087402D02*
G01X1287203D01*
X1281152Y1087598D02*
G01X1287400D01*
X1280955Y1087795D02*
G01X1287597D01*
X1280758Y1087992D02*
G01X1287794D01*
X1280561Y1088189D02*
G01X1287990D01*
X1280364Y1088386D02*
G01X1288187D01*
X1280168Y1088583D02*
G01X1288384D01*
X1279971Y1088780D02*
G01X1288581D01*
X1279774Y1088976D02*
G01X1288778D01*
X1279577Y1089173D02*
G01X1288975D01*
X1279380Y1089370D02*
G01X1289124D01*
X1279183Y1089567D02*
G01X1288927D01*
X1278986Y1089764D02*
G01X1288730D01*
X1278790Y1089961D02*
G01X1288533D01*
X1278593Y1090157D02*
G01X1288336D01*
X1278742Y1090354D02*
G01X1288140D01*
X1278939Y1090551D02*
G01X1287943D01*
X1279136Y1090748D02*
G01X1287746D01*
X1279332Y1090945D02*
G01X1287549D01*
X1279529Y1091142D02*
G01X1287352D01*
X1279726Y1091339D02*
G01X1287155D01*
X1279923Y1091535D02*
G01X1286958D01*
X1280120Y1091732D02*
G01X1286762D01*
X1280317Y1091929D02*
G01X1286565D01*
X1280514Y1092126D02*
G01X1286368D01*
X1280710Y1092323D02*
G01X1286171D01*
X1280907Y1092520D02*
G01X1285974D01*
X1281104Y1092717D02*
G01X1285777D01*
X1281301Y1092913D02*
G01X1285580D01*
X1281498Y1093110D02*
G01X1285384D01*
X1281695Y1093307D02*
G01X1285187D01*
X1281891Y1093504D02*
G01X1284990D01*
X1282088Y1093701D02*
G01X1284793D01*
X1282285Y1093898D02*
G01X1284596D01*
X1282482Y1094094D02*
G01X1284399D01*
X1282679Y1094291D02*
G01X1284203D01*
X1282876Y1094488D02*
G01X1284006D01*
X1283073Y1094685D02*
G01X1283809D01*
X1283269Y1094882D02*
G01X1283612D01*
X1278740Y1090010D02*
G01Y1090353D01*
X1278937Y1089813D02*
G01Y1090549D01*
X1279134Y1089616D02*
G01Y1090746D01*
X1279331Y1089420D02*
G01Y1090943D01*
X1279528Y1089223D02*
G01Y1091140D01*
X1279724Y1089026D02*
G01Y1091337D01*
X1279921Y1088829D02*
G01Y1091534D01*
X1280118Y1088632D02*
G01Y1091731D01*
X1280315Y1088435D02*
G01Y1091927D01*
X1280512Y1088238D02*
G01Y1092124D01*
X1280709Y1088042D02*
G01Y1092321D01*
X1280906Y1087845D02*
G01Y1092518D01*
X1281102Y1087648D02*
G01Y1092715D01*
X1281299Y1087451D02*
G01Y1092912D01*
X1281496Y1087254D02*
G01Y1093109D01*
X1281693Y1087057D02*
G01Y1093305D01*
X1281890Y1086860D02*
G01Y1093502D01*
X1282087Y1086664D02*
G01Y1093699D01*
X1282283Y1086467D02*
G01Y1093896D01*
X1282480Y1086270D02*
G01Y1094093D01*
X1282677Y1086073D02*
G01Y1094290D01*
X1282874Y1085876D02*
G01Y1094486D01*
X1283071Y1085679D02*
G01Y1094683D01*
X1283268Y1085483D02*
G01Y1094880D01*
X1283465Y1085286D02*
G01Y1095029D01*
X1283661Y1085089D02*
G01Y1094832D01*
X1283858Y1084892D02*
G01Y1094636D01*
X1284055Y1084695D02*
G01Y1094439D01*
X1284252Y1084498D02*
G01Y1094242D01*
X1284449Y1084647D02*
G01Y1094045D01*
X1284646Y1084844D02*
G01Y1093848D01*
X1284843Y1085041D02*
G01Y1093651D01*
X1285039Y1085238D02*
G01Y1093454D01*
X1285236Y1085435D02*
G01Y1093258D01*
X1285433Y1085632D02*
G01Y1093061D01*
X1285630Y1085828D02*
G01Y1092864D01*
X1285827Y1086025D02*
G01Y1092667D01*
X1286024Y1086222D02*
G01Y1092470D01*
X1286220Y1086419D02*
G01Y1092273D01*
X1286417Y1086616D02*
G01Y1092077D01*
X1286614Y1086813D02*
G01Y1091880D01*
X1286811Y1087010D02*
G01Y1091683D01*
X1287008Y1087206D02*
G01Y1091486D01*
X1287205Y1087403D02*
G01Y1091289D01*
X1287402Y1087600D02*
G01Y1091092D01*
X1287598Y1087797D02*
G01Y1090895D01*
X1287795Y1087994D02*
G01Y1090699D01*
X1287992Y1088191D02*
G01Y1090502D01*
X1288189Y1088388D02*
G01Y1090305D01*
X1288386Y1088584D02*
G01Y1090108D01*
X1288583Y1088781D02*
G01Y1089911D01*
X1288780Y1088978D02*
G01Y1089714D01*
X1288976Y1089175D02*
G01Y1089517D01*
X1262821Y1074433D02*
G01X1268528Y1068726D01*
X1273400Y1073598*
X1267693Y1079305*
X1262821Y1074433*
X1268357Y1068898D02*
G01X1268699D01*
X1268160Y1069094D02*
G01X1268896D01*
X1267963Y1069291D02*
G01X1269093D01*
X1267766Y1069488D02*
G01X1269290D01*
X1267569Y1069685D02*
G01X1269486D01*
X1267372Y1069882D02*
G01X1269683D01*
X1267175Y1070079D02*
G01X1269880D01*
X1266979Y1070276D02*
G01X1270077D01*
X1266782Y1070472D02*
G01X1270274D01*
X1266585Y1070669D02*
G01X1270471D01*
X1266388Y1070866D02*
G01X1270668D01*
X1266191Y1071063D02*
G01X1270864D01*
X1265994Y1071260D02*
G01X1271061D01*
X1265797Y1071457D02*
G01X1271258D01*
X1265601Y1071654D02*
G01X1271455D01*
X1265404Y1071850D02*
G01X1271652D01*
X1265207Y1072047D02*
G01X1271849D01*
X1265010Y1072244D02*
G01X1272046D01*
X1264813Y1072441D02*
G01X1272242D01*
X1264616Y1072638D02*
G01X1272439D01*
X1264420Y1072835D02*
G01X1272636D01*
X1264223Y1073031D02*
G01X1272833D01*
X1264026Y1073228D02*
G01X1273030D01*
X1263829Y1073425D02*
G01X1273227D01*
X1263632Y1073622D02*
G01X1273376D01*
X1263435Y1073819D02*
G01X1273179D01*
X1263238Y1074016D02*
G01X1272982D01*
X1263042Y1074213D02*
G01X1272785D01*
X1262845Y1074409D02*
G01X1272588D01*
X1262994Y1074606D02*
G01X1272391D01*
X1263191Y1074803D02*
G01X1272195D01*
X1263388Y1075000D02*
G01X1271998D01*
X1263584Y1075197D02*
G01X1271801D01*
X1263781Y1075394D02*
G01X1271604D01*
X1263978Y1075591D02*
G01X1271407D01*
X1264175Y1075787D02*
G01X1271210D01*
X1264372Y1075984D02*
G01X1271014D01*
X1264569Y1076181D02*
G01X1270817D01*
X1264765Y1076378D02*
G01X1270620D01*
X1264962Y1076575D02*
G01X1270423D01*
X1265159Y1076772D02*
G01X1270226D01*
X1265356Y1076969D02*
G01X1270029D01*
X1265553Y1077165D02*
G01X1269832D01*
X1265750Y1077362D02*
G01X1269636D01*
X1265947Y1077559D02*
G01X1269439D01*
X1266143Y1077756D02*
G01X1269242D01*
X1266340Y1077953D02*
G01X1269045D01*
X1266537Y1078150D02*
G01X1268848D01*
X1266734Y1078346D02*
G01X1268651D01*
X1266931Y1078543D02*
G01X1268454D01*
X1267128Y1078740D02*
G01X1268258D01*
X1267325Y1078937D02*
G01X1268061D01*
X1267521Y1079134D02*
G01X1267864D01*
X1262992Y1074262D02*
G01Y1074605D01*
X1263189Y1074065D02*
G01Y1074801D01*
X1263386Y1073868D02*
G01Y1074998D01*
X1263583Y1073672D02*
G01Y1075195D01*
X1263780Y1073475D02*
G01Y1075392D01*
X1263976Y1073278D02*
G01Y1075589D01*
X1264173Y1073081D02*
G01Y1075786D01*
X1264370Y1072884D02*
G01Y1075983D01*
X1264567Y1072687D02*
G01Y1076179D01*
X1264764Y1072490D02*
G01Y1076376D01*
X1264961Y1072294D02*
G01Y1076573D01*
X1265157Y1072097D02*
G01Y1076770D01*
X1265354Y1071900D02*
G01Y1076967D01*
X1265551Y1071703D02*
G01Y1077164D01*
X1265748Y1071506D02*
G01Y1077361D01*
X1265945Y1071309D02*
G01Y1077557D01*
X1266142Y1071112D02*
G01Y1077754D01*
X1266339Y1070916D02*
G01Y1077951D01*
X1266535Y1070719D02*
G01Y1078148D01*
X1266732Y1070522D02*
G01Y1078345D01*
X1266929Y1070325D02*
G01Y1078542D01*
X1267126Y1070128D02*
G01Y1078738D01*
X1267323Y1069931D02*
G01Y1078935D01*
X1267520Y1069735D02*
G01Y1079132D01*
X1267717Y1069538D02*
G01Y1079281D01*
X1267913Y1069341D02*
G01Y1079084D01*
X1268110Y1069144D02*
G01Y1078888D01*
X1268307Y1068947D02*
G01Y1078691D01*
X1268504Y1068750D02*
G01Y1078494D01*
X1268701Y1068899D02*
G01Y1078297D01*
X1268898Y1069096D02*
G01Y1078100D01*
X1269094Y1069293D02*
G01Y1077903D01*
X1269291Y1069490D02*
G01Y1077706D01*
X1269488Y1069687D02*
G01Y1077510D01*
X1269685Y1069884D02*
G01Y1077313D01*
X1269882Y1070080D02*
G01Y1077116D01*
X1270079Y1070277D02*
G01Y1076919D01*
X1270276Y1070474D02*
G01Y1076722D01*
X1270472Y1070671D02*
G01Y1076525D01*
X1270669Y1070868D02*
G01Y1076328D01*
X1270866Y1071065D02*
G01Y1076132D01*
X1271063Y1071262D02*
G01Y1075935D01*
X1271260Y1071458D02*
G01Y1075738D01*
X1271457Y1071655D02*
G01Y1075541D01*
X1271654Y1071852D02*
G01Y1075344D01*
X1271850Y1072049D02*
G01Y1075147D01*
X1272047Y1072246D02*
G01Y1074951D01*
X1272244Y1072443D02*
G01Y1074754D01*
X1272441Y1072639D02*
G01Y1074557D01*
X1272638Y1072836D02*
G01Y1074360D01*
X1272835Y1073033D02*
G01Y1074163D01*
X1273031Y1073230D02*
G01Y1073966D01*
X1273228Y1073427D02*
G01Y1073769D01*
X1296433Y1084474D02*
G01X1302140Y1090181D01*
X1297268Y1095053*
X1291561Y1089346*
X1296433Y1084474*
X1296262Y1084646D02*
G01X1296604D01*
X1296065Y1084843D02*
G01X1296801D01*
X1295868Y1085039D02*
G01X1296998D01*
X1295671Y1085236D02*
G01X1297195D01*
X1295474Y1085433D02*
G01X1297391D01*
X1295277Y1085630D02*
G01X1297588D01*
X1295080Y1085827D02*
G01X1297785D01*
X1294884Y1086024D02*
G01X1297982D01*
X1294687Y1086220D02*
G01X1298179D01*
X1294490Y1086417D02*
G01X1298376D01*
X1294293Y1086614D02*
G01X1298573D01*
X1294096Y1086811D02*
G01X1298769D01*
X1293899Y1087008D02*
G01X1298966D01*
X1293702Y1087205D02*
G01X1299163D01*
X1293506Y1087402D02*
G01X1299360D01*
X1293309Y1087598D02*
G01X1299557D01*
X1293112Y1087795D02*
G01X1299754D01*
X1292915Y1087992D02*
G01X1299951D01*
X1292718Y1088189D02*
G01X1300147D01*
X1292521Y1088386D02*
G01X1300344D01*
X1292325Y1088583D02*
G01X1300541D01*
X1292128Y1088780D02*
G01X1300738D01*
X1291931Y1088976D02*
G01X1300935D01*
X1291734Y1089173D02*
G01X1301132D01*
X1291585Y1089370D02*
G01X1301328D01*
X1291782Y1089567D02*
G01X1301525D01*
X1291979Y1089764D02*
G01X1301722D01*
X1292175Y1089961D02*
G01X1301919D01*
X1292372Y1090157D02*
G01X1302116D01*
X1292569Y1090354D02*
G01X1301967D01*
X1292766Y1090551D02*
G01X1301770D01*
X1292963Y1090748D02*
G01X1301573D01*
X1293160Y1090945D02*
G01X1301376D01*
X1293357Y1091142D02*
G01X1301179D01*
X1293553Y1091339D02*
G01X1300983D01*
X1293750Y1091535D02*
G01X1300786D01*
X1293947Y1091732D02*
G01X1300589D01*
X1294144Y1091929D02*
G01X1300392D01*
X1294341Y1092126D02*
G01X1300195D01*
X1294538Y1092323D02*
G01X1299998D01*
X1294735Y1092520D02*
G01X1299801D01*
X1294931Y1092717D02*
G01X1299605D01*
X1295128Y1092913D02*
G01X1299408D01*
X1295325Y1093110D02*
G01X1299211D01*
X1295522Y1093307D02*
G01X1299014D01*
X1295719Y1093504D02*
G01X1298817D01*
X1295916Y1093701D02*
G01X1298620D01*
X1296112Y1093898D02*
G01X1298423D01*
X1296309Y1094094D02*
G01X1298227D01*
X1296506Y1094291D02*
G01X1298030D01*
X1296703Y1094488D02*
G01X1297833D01*
X1296900Y1094685D02*
G01X1297636D01*
X1297097Y1094882D02*
G01X1297439D01*
X1291732Y1089175D02*
G01Y1089517D01*
X1291929Y1088978D02*
G01Y1089714D01*
X1292126Y1088781D02*
G01Y1089911D01*
X1292323Y1088584D02*
G01Y1090108D01*
X1292520Y1088388D02*
G01Y1090305D01*
X1292717Y1088191D02*
G01Y1090502D01*
X1292913Y1087994D02*
G01Y1090699D01*
X1293110Y1087797D02*
G01Y1090895D01*
X1293307Y1087600D02*
G01Y1091092D01*
X1293504Y1087403D02*
G01Y1091289D01*
X1293701Y1087206D02*
G01Y1091486D01*
X1293898Y1087010D02*
G01Y1091683D01*
X1294094Y1086813D02*
G01Y1091880D01*
X1294291Y1086616D02*
G01Y1092077D01*
X1294488Y1086419D02*
G01Y1092273D01*
X1294685Y1086222D02*
G01Y1092470D01*
X1294882Y1086025D02*
G01Y1092667D01*
X1295079Y1085828D02*
G01Y1092864D01*
X1295276Y1085632D02*
G01Y1093061D01*
X1295472Y1085435D02*
G01Y1093258D01*
X1295669Y1085238D02*
G01Y1093454D01*
X1295866Y1085041D02*
G01Y1093651D01*
X1296063Y1084844D02*
G01Y1093848D01*
X1296260Y1084647D02*
G01Y1094045D01*
X1296457Y1084498D02*
G01Y1094242D01*
X1296654Y1084695D02*
G01Y1094439D01*
X1296850Y1084892D02*
G01Y1094636D01*
X1297047Y1085089D02*
G01Y1094832D01*
X1297244Y1085286D02*
G01Y1095029D01*
X1297441Y1085483D02*
G01Y1094880D01*
X1297638Y1085679D02*
G01Y1094683D01*
X1297835Y1085876D02*
G01Y1094486D01*
X1298031Y1086073D02*
G01Y1094290D01*
X1298228Y1086270D02*
G01Y1094093D01*
X1298425Y1086467D02*
G01Y1093896D01*
X1298622Y1086664D02*
G01Y1093699D01*
X1298819Y1086860D02*
G01Y1093502D01*
X1299016Y1087057D02*
G01Y1093305D01*
X1299213Y1087254D02*
G01Y1093109D01*
X1299409Y1087451D02*
G01Y1092912D01*
X1299606Y1087648D02*
G01Y1092715D01*
X1299803Y1087845D02*
G01Y1092518D01*
X1300000Y1088042D02*
G01Y1092321D01*
X1300197Y1088238D02*
G01Y1092124D01*
X1300394Y1088435D02*
G01Y1091927D01*
X1300591Y1088632D02*
G01Y1091731D01*
X1300787Y1088829D02*
G01Y1091534D01*
X1300984Y1089026D02*
G01Y1091337D01*
X1301181Y1089223D02*
G01Y1091140D01*
X1301378Y1089420D02*
G01Y1090943D01*
X1301575Y1089616D02*
G01Y1090746D01*
X1301772Y1089813D02*
G01Y1090549D01*
X1301969Y1090010D02*
G01Y1090353D01*
X1312181Y1068726D02*
G01X1317888Y1074433D01*
X1313016Y1079305*
X1307309Y1073598*
X1312181Y1068726*
X1312010Y1068898D02*
G01X1312352D01*
X1311813Y1069094D02*
G01X1312549D01*
X1311616Y1069291D02*
G01X1312746D01*
X1311419Y1069488D02*
G01X1312943D01*
X1311222Y1069685D02*
G01X1313140D01*
X1311025Y1069882D02*
G01X1313336D01*
X1310828Y1070079D02*
G01X1313533D01*
X1310632Y1070276D02*
G01X1313730D01*
X1310435Y1070472D02*
G01X1313927D01*
X1310238Y1070669D02*
G01X1314124D01*
X1310041Y1070866D02*
G01X1314321D01*
X1309844Y1071063D02*
G01X1314517D01*
X1309647Y1071260D02*
G01X1314714D01*
X1309451Y1071457D02*
G01X1314911D01*
X1309254Y1071654D02*
G01X1315108D01*
X1309057Y1071850D02*
G01X1315305D01*
X1308860Y1072047D02*
G01X1315502D01*
X1308663Y1072244D02*
G01X1315699D01*
X1308466Y1072441D02*
G01X1315895D01*
X1308269Y1072638D02*
G01X1316092D01*
X1308073Y1072835D02*
G01X1316289D01*
X1307876Y1073031D02*
G01X1316486D01*
X1307679Y1073228D02*
G01X1316683D01*
X1307482Y1073425D02*
G01X1316880D01*
X1307333Y1073622D02*
G01X1317077D01*
X1307530Y1073819D02*
G01X1317273D01*
X1307727Y1074016D02*
G01X1317470D01*
X1307923Y1074213D02*
G01X1317667D01*
X1308120Y1074409D02*
G01X1317864D01*
X1308317Y1074606D02*
G01X1317715D01*
X1308514Y1074803D02*
G01X1317518D01*
X1308711Y1075000D02*
G01X1317321D01*
X1308908Y1075197D02*
G01X1317124D01*
X1309105Y1075394D02*
G01X1316927D01*
X1309301Y1075591D02*
G01X1316731D01*
X1309498Y1075787D02*
G01X1316534D01*
X1309695Y1075984D02*
G01X1316337D01*
X1309892Y1076181D02*
G01X1316140D01*
X1310089Y1076378D02*
G01X1315943D01*
X1310286Y1076575D02*
G01X1315746D01*
X1310483Y1076772D02*
G01X1315549D01*
X1310679Y1076969D02*
G01X1315353D01*
X1310876Y1077165D02*
G01X1315156D01*
X1311073Y1077362D02*
G01X1314959D01*
X1311270Y1077559D02*
G01X1314762D01*
X1311467Y1077756D02*
G01X1314565D01*
X1311664Y1077953D02*
G01X1314368D01*
X1311860Y1078150D02*
G01X1314172D01*
X1312057Y1078346D02*
G01X1313975D01*
X1312254Y1078543D02*
G01X1313778D01*
X1312451Y1078740D02*
G01X1313581D01*
X1312648Y1078937D02*
G01X1313384D01*
X1312845Y1079134D02*
G01X1313187D01*
X1307480Y1073427D02*
G01Y1073769D01*
X1307677Y1073230D02*
G01Y1073966D01*
X1307874Y1073033D02*
G01Y1074163D01*
X1308071Y1072836D02*
G01Y1074360D01*
X1308268Y1072639D02*
G01Y1074557D01*
X1308465Y1072443D02*
G01Y1074754D01*
X1308661Y1072246D02*
G01Y1074951D01*
X1308858Y1072049D02*
G01Y1075147D01*
X1309055Y1071852D02*
G01Y1075344D01*
X1309252Y1071655D02*
G01Y1075541D01*
X1309449Y1071458D02*
G01Y1075738D01*
X1309646Y1071262D02*
G01Y1075935D01*
X1309843Y1071065D02*
G01Y1076132D01*
X1310039Y1070868D02*
G01Y1076328D01*
X1310236Y1070671D02*
G01Y1076525D01*
X1310433Y1070474D02*
G01Y1076722D01*
X1310630Y1070277D02*
G01Y1076919D01*
X1310827Y1070080D02*
G01Y1077116D01*
X1311024Y1069884D02*
G01Y1077313D01*
X1311220Y1069687D02*
G01Y1077510D01*
X1311417Y1069490D02*
G01Y1077706D01*
X1311614Y1069293D02*
G01Y1077903D01*
X1311811Y1069096D02*
G01Y1078100D01*
X1312008Y1068899D02*
G01Y1078297D01*
X1312205Y1068750D02*
G01Y1078494D01*
X1312402Y1068947D02*
G01Y1078691D01*
X1312598Y1069144D02*
G01Y1078888D01*
X1312795Y1069341D02*
G01Y1079084D01*
X1312992Y1069538D02*
G01Y1079281D01*
X1313189Y1069735D02*
G01Y1079132D01*
X1313386Y1069931D02*
G01Y1078935D01*
X1313583Y1070128D02*
G01Y1078738D01*
X1313780Y1070325D02*
G01Y1078542D01*
X1313976Y1070522D02*
G01Y1078345D01*
X1314173Y1070719D02*
G01Y1078148D01*
X1314370Y1070916D02*
G01Y1077951D01*
X1314567Y1071112D02*
G01Y1077754D01*
X1314764Y1071309D02*
G01Y1077557D01*
X1314961Y1071506D02*
G01Y1077361D01*
X1315157Y1071703D02*
G01Y1077164D01*
X1315354Y1071900D02*
G01Y1076967D01*
X1315551Y1072097D02*
G01Y1076770D01*
X1315748Y1072294D02*
G01Y1076573D01*
X1315945Y1072490D02*
G01Y1076376D01*
X1316142Y1072687D02*
G01Y1076179D01*
X1316339Y1072884D02*
G01Y1075983D01*
X1316535Y1073081D02*
G01Y1075786D01*
X1316732Y1073278D02*
G01Y1075589D01*
X1316929Y1073475D02*
G01Y1075392D01*
X1317126Y1073672D02*
G01Y1075195D01*
X1317323Y1073868D02*
G01Y1074998D01*
X1317520Y1074065D02*
G01Y1074801D01*
X1317717Y1074262D02*
G01Y1074605D01*
G54D73*
X1008071Y1138780D02*
G01Y1138386D01*
X1014764Y1138780D02*
G01Y1138386D01*
X1008071Y1147835D02*
G01Y1147441D01*
X1014764Y1147835D02*
G01Y1147441D01*
X1191535Y1095472D02*
G01X1191929D01*
X1191535Y1102165D02*
G01X1191929D01*
X1185630Y1095472D02*
G01X1186024D01*
X1185630Y1102165D02*
G01X1186024D01*
X1237795Y1173228D02*
G01Y1172835D01*
X1244488Y1173228D02*
G01Y1172835D01*
X1197638Y1136614D02*
G01Y1136220D01*
X1204331Y1136614D02*
G01Y1136220D01*
X1186811Y1037992D02*
G01Y1037598D01*
X1193504Y1037992D02*
G01Y1037598D01*
X1122638Y1024213D02*
G01X1123031D01*
X1122638Y1030906D02*
G01X1123031D01*
X1141929D02*
G01X1141535D01*
X1141929Y1024213D02*
G01X1141535D01*
X1193504Y1043898D02*
G01Y1044291D01*
X1186811Y1043898D02*
G01Y1044291D01*
Y1050984D02*
G01Y1050591D01*
X1193504Y1050984D02*
G01Y1050591D01*
Y1025000D02*
G01Y1025394D01*
X1186811Y1025000D02*
G01Y1025394D01*
X1193504Y1031299D02*
G01Y1031693D01*
X1186811Y1031299D02*
G01Y1031693D01*
X1210236Y1024213D02*
G01Y1024606D01*
X1203543Y1024213D02*
G01Y1024606D01*
X1219303Y1057154D02*
G01X1219697D01*
X1219303Y1063846D02*
G01X1219697D01*
X1315748Y1187992D02*
G01Y1187598D01*
X1322441Y1187992D02*
G01Y1187598D01*
X1261220Y1117913D02*
G01Y1118307D01*
X1254528Y1117913D02*
G01Y1118307D01*
Y1112008D02*
G01Y1111614D01*
X1261220Y1112008D02*
G01Y1111614D01*
X1076575Y1139961D02*
G01Y1139567D01*
X1083268Y1139961D02*
G01Y1139567D01*
X1261220Y1105315D02*
G01Y1105709D01*
X1254528Y1105315D02*
G01Y1105709D01*
X1193110Y1073425D02*
G01Y1073031D01*
X1199803Y1073425D02*
G01Y1073031D01*
X1065157Y1080512D02*
G01X1065551D01*
X1065157Y1087205D02*
G01X1065551D01*
X1052953D02*
G01X1052559D01*
X1052953Y1080512D02*
G01X1052559D01*
X1119488Y1045472D02*
G01Y1045866D01*
X1112795Y1045472D02*
G01Y1045866D01*
X1119488Y1058071D02*
G01Y1058465D01*
X1112795Y1058071D02*
G01Y1058465D01*
X1144685Y1068307D02*
G01Y1067913D01*
X1151378Y1068307D02*
G01Y1067913D01*
Y1055315D02*
G01Y1055709D01*
X1144685Y1055315D02*
G01Y1055709D01*
X1096063Y1102362D02*
G01X1096457D01*
X1096063Y1109055D02*
G01X1096457D01*
X1118307Y1119094D02*
G01Y1119488D01*
X1111614Y1119094D02*
G01Y1119488D01*
X1096654Y1069882D02*
G01X1096260D01*
X1096654Y1063189D02*
G01X1096260D01*
X1090354Y1069882D02*
G01X1089961D01*
X1090354Y1063189D02*
G01X1089961D01*
X1083661D02*
G01X1084055D01*
X1083661Y1069882D02*
G01X1084055D01*
X1053697Y1153846D02*
G01X1053303D01*
X1053697Y1147154D02*
G01X1053303D01*
X1059697Y1132346D02*
G01X1059303D01*
X1059697Y1125654D02*
G01X1059303D01*
X1230512Y1076181D02*
G01X1230118D01*
X1230512Y1069488D02*
G01X1230118D01*
X1231693Y1061614D02*
G01Y1061220D01*
X1238386Y1061614D02*
G01Y1061220D01*
X1014764Y1120276D02*
G01Y1120669D01*
X1008071Y1120276D02*
G01Y1120669D01*
X1014764Y1129331D02*
G01Y1129724D01*
X1008071Y1129331D02*
G01Y1129724D01*
X1044246Y1083095D02*
G01X1044640D01*
X1044246Y1089788D02*
G01X1044640D01*
X1176454Y1081097D02*
G01Y1080703D01*
X1183146Y1081097D02*
G01Y1080703D01*
X1008071Y1156890D02*
G01Y1156496D01*
X1014764Y1156890D02*
G01Y1156496D01*
X1111614Y1126181D02*
G01Y1125787D01*
X1118307Y1126181D02*
G01Y1125787D01*
X1199803Y1066339D02*
G01Y1066732D01*
X1193110Y1066339D02*
G01Y1066732D01*
X1200354Y1081597D02*
G01Y1081203D01*
X1207046Y1081597D02*
G01Y1081203D01*
X1213189Y1063939D02*
G01Y1064332D01*
X1206496Y1063939D02*
G01Y1064332D01*
X1213703Y1010554D02*
G01X1214097D01*
X1213703Y1017246D02*
G01X1214097D01*
X1220403Y1013654D02*
G01X1220797D01*
X1220403Y1020346D02*
G01X1220797D01*
X1217054Y1051497D02*
G01Y1051103D01*
X1223746Y1051497D02*
G01Y1051103D01*
X1065303Y1125654D02*
G01X1065697D01*
X1065303Y1132346D02*
G01X1065697D01*
X1059303Y1147154D02*
G01X1059697D01*
X1059303Y1153846D02*
G01X1059697D01*
G54D54*
X1272638Y1112500D02*
G01Y1109154D01*
X1280118Y1112500D02*
G01Y1109154D01*
X1276378Y1103445D02*
G01Y1100098D01*
X1311220Y1101280D02*
G01Y1104626D01*
X1303740Y1101280D02*
G01Y1104626D01*
X1307480Y1110335D02*
G01Y1113681D01*
X1107579Y1064764D02*
G01X1110925D01*
X1107579Y1072244D02*
G01X1110925D01*
X1116634Y1068504D02*
G01X1119980D01*
X1159154Y1055512D02*
G01X1162500D01*
X1159154Y1062992D02*
G01X1162500D01*
X1168209Y1059252D02*
G01X1171555D01*
X1083957Y1048228D02*
G01X1087303D01*
X1083957Y1055709D02*
G01X1087303D01*
X1093012Y1051969D02*
G01X1096358D01*
X1057677Y1105020D02*
G01Y1101673D01*
X1065157Y1105020D02*
G01Y1101673D01*
X1061417Y1095965D02*
G01Y1092618D01*
X1111220Y1112106D02*
G01Y1108760D01*
X1118701Y1112106D02*
G01Y1108760D01*
X1114961Y1103051D02*
G01Y1099705D01*
X1066634Y1048228D02*
G01X1069980D01*
X1066634Y1055709D02*
G01X1069980D01*
X1075689Y1051969D02*
G01X1079035D01*
X1159154Y1075787D02*
G01X1162500D01*
X1159154Y1083268D02*
G01X1162500D01*
X1168209Y1079528D02*
G01X1171555D01*
X1325787Y1101280D02*
G01Y1104626D01*
X1318307Y1101280D02*
G01Y1104626D01*
X1322047Y1110335D02*
G01Y1113681D01*
X1054429Y1072835D02*
G01X1051083D01*
X1054429Y1065354D02*
G01X1051083D01*
X1045374Y1069094D02*
G01X1042028D01*
G54D55*
X1046457Y1056890D02*
G01Y1052559D01*
Y1040354D02*
G01Y1036024D01*
G54D56*
X1280315Y1176575D02*
G01Y1171457D01*
X1298425Y1176575D02*
G01Y1171457D01*
X1280315Y1189567D02*
G01Y1184449D01*
X1298425Y1189567D02*
G01Y1184449D01*
G54D63*
X1000000Y1015748D02*
G01X1175984D01*
Y1000000*
X1333465*
Y1265748*
X1000000*
Y1015748*
G54D72*
X1017967Y868356D02*
G01X1016893Y867864D01*
X1016178Y866388*
X1015820Y863927*
Y862451*
X1016178Y859990*
X1016893Y858514*
X1017967Y858022*
X1018683*
X1019757Y858514*
X1020472Y859990*
X1020830Y862451*
Y863927*
X1020472Y866388*
X1019757Y867864*
X1018683Y868356*
X1017967*
X1028704Y864911D02*
G01X1028346Y863435D01*
X1027631Y862451*
X1026557Y861959*
X1026199*
X1025125Y862451*
X1024409Y863435*
X1024052Y864911*
Y865404*
X1024409Y866880*
X1025125Y867864*
X1026199Y868356*
X1026557*
X1027631Y867864*
X1028346Y866880*
X1028704Y864911*
Y862451*
X1028346Y859990*
X1027631Y858514*
X1026557Y858022*
X1025841*
X1024767Y858514*
X1024409Y859498*
X1031926Y862451D02*
G01X1038368D01*
X1043737Y868356D02*
G01X1042663Y867864D01*
X1041947Y866388*
X1041589Y863927*
Y862451*
X1041947Y859990*
X1042663Y858514*
X1043737Y858022*
X1044452*
X1045526Y858514*
X1046242Y859990*
X1046600Y862451*
Y863927*
X1046242Y866388*
X1045526Y867864*
X1044452Y868356*
X1043737*
X1051968D02*
G01X1050895Y867864D01*
X1050179Y866388*
X1049821Y863927*
Y862451*
X1050179Y859990*
X1050895Y858514*
X1051968Y858022*
X1052684*
X1053758Y858514*
X1054474Y859990*
X1054832Y862451*
Y863927*
X1054474Y866388*
X1053758Y867864*
X1052684Y868356*
X1051968*
X1060200D02*
G01X1059127Y867864D01*
X1058411Y866388*
X1058053Y863927*
Y862451*
X1058411Y859990*
X1059127Y858514*
X1060200Y858022*
X1060916*
X1061990Y858514*
X1062706Y859990*
X1063064Y862451*
Y863927*
X1062706Y866388*
X1061990Y867864*
X1060916Y868356*
X1060200*
X1068432D02*
G01X1067359Y867864D01*
X1066643Y866388*
X1066285Y863927*
Y862451*
X1066643Y859990*
X1067359Y858514*
X1068432Y858022*
X1069148*
X1070222Y858514*
X1070938Y859990*
X1071296Y862451*
Y863927*
X1070938Y866388*
X1070222Y867864*
X1069148Y868356*
X1068432*
X1078096D02*
G01X1074517Y861467D01*
X1079885*
X1078096Y868356D02*
G01Y858022D01*
X1085254Y868356D02*
G01X1084180Y867864D01*
X1083464Y866388*
X1083107Y863927*
Y862451*
X1083464Y859990*
X1084180Y858514*
X1085254Y858022*
X1085970*
X1087044Y858514*
X1087759Y859990*
X1088117Y862451*
Y863927*
X1087759Y866388*
X1087044Y867864*
X1085970Y868356*
X1085254*
X1091338Y862451D02*
G01X1097781D01*
X1103149Y868356D02*
G01X1102076Y867864D01*
X1101360Y866388*
X1101002Y863927*
Y862451*
X1101360Y859990*
X1102076Y858514*
X1103149Y858022*
X1103865*
X1104939Y858514*
X1105655Y859990*
X1106013Y862451*
Y863927*
X1105655Y866388*
X1104939Y867864*
X1103865Y868356*
X1103149*
X1111381D02*
G01X1110308Y867864D01*
X1109592Y866388*
X1109234Y863927*
Y862451*
X1109592Y859990*
X1110308Y858514*
X1111381Y858022*
X1112097*
X1113171Y858514*
X1113887Y859990*
X1114245Y862451*
Y863927*
X1113887Y866388*
X1113171Y867864*
X1112097Y868356*
X1111381*
X1233178Y866388D02*
G01X1233894Y866880D01*
X1234968Y868356*
Y858022*
X1242842Y864911D02*
G01X1242484Y863435D01*
X1241768Y862451*
X1240694Y861959*
X1240336*
X1239263Y862451*
X1238547Y863435*
X1238189Y864911*
Y865404*
X1238547Y866880*
X1239263Y867864*
X1240336Y868356*
X1240694*
X1241768Y867864*
X1242484Y866880*
X1242842Y864911*
Y862451*
X1242484Y859990*
X1241768Y858514*
X1240694Y858022*
X1239978*
X1238905Y858514*
X1238547Y859498*
X1246063Y862451D02*
G01X1252505D01*
X1255726Y868356D02*
G01Y858022D01*
Y868356D02*
G01X1260737Y858022D01*
Y868356D02*
G01Y858022D01*
X1266106Y868356D02*
G01X1265390Y867864D01*
X1264674Y866880*
X1264316Y865896*
X1263958Y864419*
Y861959*
X1264316Y860482*
X1264674Y859498*
X1265390Y858514*
X1266106Y858022*
X1267537*
X1268253Y858514*
X1268969Y859498*
X1269327Y860482*
X1269685Y861959*
Y864419*
X1269327Y865896*
X1268969Y866880*
X1268253Y867864*
X1267537Y868356*
X1266106*
X1272906D02*
G01X1275769Y858022D01*
X1278633Y868356D02*
G01X1275769Y858022D01*
X1281854Y862451D02*
G01X1288296D01*
X1293665Y868356D02*
G01X1292591Y867864D01*
X1291875Y866388*
X1291517Y863927*
Y862451*
X1291875Y859990*
X1292591Y858514*
X1293665Y858022*
X1294381*
X1295454Y858514*
X1296170Y859990*
X1296528Y862451*
Y863927*
X1296170Y866388*
X1295454Y867864*
X1294381Y868356*
X1293665*
X1301539D02*
G01X1300465Y867864D01*
X1300107Y866880*
Y865896*
X1300465Y864911*
X1301181Y864419*
X1302613Y863927*
X1303686Y863435*
X1304402Y862451*
X1304760Y861467*
Y859990*
X1304402Y859006*
X1304044Y858514*
X1302970Y858022*
X1301539*
X1300465Y858514*
X1300107Y859006*
X1299749Y859990*
Y861467*
X1300107Y862451*
X1300823Y863435*
X1301897Y863927*
X1303328Y864419*
X1304044Y864911*
X1304402Y865896*
Y866880*
X1304044Y867864*
X1302970Y868356*
X1301539*
X1162670D02*
G01X1159807Y858022D01*
X1162670Y868356D02*
G01X1165533Y858022D01*
X1160880Y861467D02*
G01X1164459D01*
X1168754Y868356D02*
G01Y858022D01*
Y868356D02*
G01X1173407D01*
X1168754Y863435D02*
G01X1171618D01*
X1168754Y858022D02*
G01X1173407D01*
M02*
