%FSLAX23Y23*%
%MOIN*%
G70*
G01*
G75*
G04 Layer_Color=65535*
%ADD10O,0.024X0.059*%
%ADD11O,0.018X0.067*%
%ADD12O,0.059X0.024*%
%ADD13R,0.071X0.051*%
%ADD14R,0.039X0.039*%
%ADD15R,0.039X0.035*%
%ADD16R,0.039X0.039*%
%ADD17R,0.080X0.050*%
%ADD18R,0.134X0.085*%
%ADD19R,0.041X0.085*%
%ADD20R,0.041X0.085*%
%ADD21R,0.106X0.071*%
%ADD22R,0.035X0.039*%
%ADD23O,0.024X0.087*%
%ADD24R,0.051X0.071*%
%ADD25R,0.047X0.047*%
%ADD26R,0.075X0.134*%
%ADD27O,0.024X0.087*%
%ADD28C,0.040*%
%ADD29R,0.016X0.049*%
%ADD30R,0.071X0.079*%
%ADD31R,0.079X0.031*%
%ADD32R,0.134X0.063*%
%ADD33R,0.026X0.041*%
%ADD34R,0.134X0.075*%
%ADD35R,0.091X0.091*%
%ADD36O,0.087X0.024*%
%ADD37O,0.087X0.024*%
%ADD38R,0.071X0.094*%
%ADD39R,0.084X0.052*%
%ADD40O,0.011X0.067*%
%ADD41O,0.067X0.011*%
%ADD42R,0.141X0.116*%
%ADD43O,0.012X0.047*%
%ADD44R,0.177X0.059*%
%ADD45C,0.008*%
%ADD46C,0.012*%
%ADD47C,0.010*%
%ADD48C,0.025*%
%ADD49C,0.020*%
%ADD50C,0.015*%
%ADD51C,0.012*%
%ADD52C,0.004*%
%ADD53C,0.004*%
%ADD54C,0.118*%
%ADD55C,0.125*%
%ADD56C,0.035*%
%ADD57C,0.118*%
%ADD58C,0.065*%
%ADD59R,0.065X0.065*%
%ADD60R,0.065X0.065*%
%ADD61C,0.039*%
%ADD62C,0.040*%
%ADD63C,0.158*%
%ADD64C,0.168*%
%ADD65C,0.056*%
%ADD66C,0.079*%
%ADD67C,0.079*%
%ADD68C,0.058*%
%ADD69C,0.060*%
%ADD70R,0.071X0.063*%
%ADD71R,0.063X0.071*%
%ADD72R,0.013X0.028*%
%ADD73R,0.018X0.040*%
%ADD74R,0.028X0.039*%
%ADD75C,0.039*%
%ADD76C,0.039*%
%ADD77C,0.010*%
%ADD78C,0.008*%
%ADD79C,0.024*%
%ADD80C,0.012*%
%ADD81C,0.020*%
%ADD82R,2.010X0.213*%
%ADD83R,0.560X0.250*%
%ADD84R,0.920X0.150*%
D45*
X4760Y835D02*
Y1005D01*
X5160D01*
Y835D02*
Y1005D01*
X4315Y835D02*
X5160D01*
X4290Y860D02*
X4315Y835D01*
X5280Y272D02*
X5330D01*
X5280D02*
Y293D01*
X5282Y301D01*
X5285Y303D01*
X5290Y305D01*
X5294D01*
X5299Y303D01*
X5301Y301D01*
X5304Y293D01*
Y272D01*
Y289D02*
X5330Y305D01*
X5280Y340D02*
X5313Y317D01*
Y352D01*
X5280Y340D02*
X5330D01*
X5287Y390D02*
X5282Y387D01*
X5280Y380D01*
Y375D01*
X5282Y368D01*
X5290Y363D01*
X5301Y361D01*
X5313D01*
X5323Y363D01*
X5328Y368D01*
X5330Y375D01*
Y378D01*
X5328Y385D01*
X5323Y390D01*
X5316Y392D01*
X5313D01*
X5306Y390D01*
X5301Y385D01*
X5299Y378D01*
Y375D01*
X5301Y368D01*
X5306Y363D01*
X5313Y361D01*
X2239Y2053D02*
X2234Y2050D01*
X2229Y2046D01*
X2227Y2041D01*
Y2031D01*
X2229Y2027D01*
X2234Y2022D01*
X2239Y2019D01*
X2246Y2017D01*
X2258D01*
X2265Y2019D01*
X2270Y2022D01*
X2275Y2027D01*
X2277Y2031D01*
Y2041D01*
X2275Y2046D01*
X2270Y2050D01*
X2265Y2053D01*
X2227Y2072D02*
Y2098D01*
X2246Y2083D01*
Y2091D01*
X2248Y2095D01*
X2251Y2098D01*
X2258Y2100D01*
X2263D01*
X2270Y2098D01*
X2275Y2093D01*
X2277Y2086D01*
Y2079D01*
X2275Y2072D01*
X2272Y2069D01*
X2267Y2067D01*
X2234Y2140D02*
X2229Y2137D01*
X2227Y2130D01*
Y2126D01*
X2229Y2118D01*
X2237Y2114D01*
X2248Y2111D01*
X2260D01*
X2270Y2114D01*
X2275Y2118D01*
X2277Y2126D01*
Y2128D01*
X2275Y2135D01*
X2270Y2140D01*
X2263Y2142D01*
X2260D01*
X2253Y2140D01*
X2248Y2135D01*
X2246Y2128D01*
Y2126D01*
X2248Y2118D01*
X2253Y2114D01*
X2260Y2111D01*
X2171Y2056D02*
X2166Y2053D01*
X2161Y2049D01*
X2159Y2044D01*
Y2034D01*
X2161Y2030D01*
X2166Y2025D01*
X2171Y2022D01*
X2178Y2020D01*
X2190D01*
X2197Y2022D01*
X2202Y2025D01*
X2207Y2030D01*
X2209Y2034D01*
Y2044D01*
X2207Y2049D01*
X2202Y2053D01*
X2197Y2056D01*
X2159Y2075D02*
Y2101D01*
X2178Y2086D01*
Y2094D01*
X2180Y2098D01*
X2183Y2101D01*
X2190Y2103D01*
X2195D01*
X2202Y2101D01*
X2207Y2096D01*
X2209Y2089D01*
Y2082D01*
X2207Y2075D01*
X2204Y2072D01*
X2199Y2070D01*
X2159Y2143D02*
Y2119D01*
X2180Y2117D01*
X2178Y2119D01*
X2176Y2126D01*
Y2133D01*
X2178Y2140D01*
X2183Y2145D01*
X2190Y2148D01*
X2195D01*
X2202Y2145D01*
X2207Y2140D01*
X2209Y2133D01*
Y2126D01*
X2207Y2119D01*
X2204Y2117D01*
X2199Y2114D01*
X4005Y500D02*
Y450D01*
Y500D02*
X4026D01*
X4034Y498D01*
X4036Y495D01*
X4038Y490D01*
Y486D01*
X4036Y481D01*
X4034Y479D01*
X4026Y476D01*
X4005D01*
X4022D02*
X4038Y450D01*
X4080Y483D02*
X4078Y476D01*
X4073Y471D01*
X4066Y469D01*
X4064D01*
X4057Y471D01*
X4052Y476D01*
X4050Y483D01*
Y486D01*
X4052Y493D01*
X4057Y498D01*
X4064Y500D01*
X4066D01*
X4073Y498D01*
X4078Y493D01*
X4080Y483D01*
Y471D01*
X4078Y460D01*
X4073Y452D01*
X4066Y450D01*
X4061D01*
X4054Y452D01*
X4052Y457D01*
X4123Y500D02*
X4099D01*
X4096Y479D01*
X4099Y481D01*
X4106Y483D01*
X4113D01*
X4120Y481D01*
X4125Y476D01*
X4127Y469D01*
Y464D01*
X4125Y457D01*
X4120Y452D01*
X4113Y450D01*
X4106D01*
X4099Y452D01*
X4096Y455D01*
X4094Y460D01*
X4230Y1025D02*
X4280D01*
X4230D02*
Y1046D01*
X4232Y1054D01*
X4235Y1056D01*
X4240Y1058D01*
X4244D01*
X4249Y1056D01*
X4251Y1054D01*
X4254Y1046D01*
Y1025D01*
Y1042D02*
X4280Y1058D01*
X4247Y1100D02*
X4254Y1098D01*
X4259Y1093D01*
X4261Y1086D01*
Y1084D01*
X4259Y1077D01*
X4254Y1072D01*
X4247Y1070D01*
X4244D01*
X4237Y1072D01*
X4232Y1077D01*
X4230Y1084D01*
Y1086D01*
X4232Y1093D01*
X4237Y1098D01*
X4247Y1100D01*
X4259D01*
X4270Y1098D01*
X4278Y1093D01*
X4280Y1086D01*
Y1081D01*
X4278Y1074D01*
X4273Y1072D01*
X4230Y1138D02*
X4263Y1114D01*
Y1150D01*
X4230Y1138D02*
X4280D01*
X7558Y1137D02*
Y1087D01*
Y1137D02*
X7575D01*
X7582Y1135D01*
X7587Y1130D01*
X7589Y1125D01*
X7591Y1118D01*
Y1106D01*
X7589Y1099D01*
X7587Y1094D01*
X7582Y1089D01*
X7575Y1087D01*
X7558D01*
X7603Y1127D02*
X7607Y1130D01*
X7614Y1137D01*
Y1087D01*
X7670Y1120D02*
X7668Y1113D01*
X7663Y1108D01*
X7656Y1106D01*
X7653D01*
X7646Y1108D01*
X7642Y1113D01*
X7639Y1120D01*
Y1123D01*
X7642Y1130D01*
X7646Y1135D01*
X7653Y1137D01*
X7656D01*
X7663Y1135D01*
X7668Y1130D01*
X7670Y1120D01*
Y1108D01*
X7668Y1097D01*
X7663Y1089D01*
X7656Y1087D01*
X7651D01*
X7644Y1089D01*
X7642Y1094D01*
X6295Y1925D02*
Y1875D01*
Y1925D02*
X6312D01*
X6319Y1923D01*
X6324Y1918D01*
X6326Y1913D01*
X6328Y1906D01*
Y1894D01*
X6326Y1887D01*
X6324Y1882D01*
X6319Y1877D01*
X6312Y1875D01*
X6295D01*
X6340Y1915D02*
X6344Y1918D01*
X6351Y1925D01*
Y1875D01*
X6409Y1925D02*
X6386Y1875D01*
X6376Y1925D02*
X6409D01*
X7535Y440D02*
Y390D01*
Y440D02*
X7552D01*
X7559Y438D01*
X7564Y433D01*
X7566Y428D01*
X7568Y421D01*
Y409D01*
X7566Y402D01*
X7564Y397D01*
X7559Y392D01*
X7552Y390D01*
X7535D01*
X7580Y430D02*
X7584Y433D01*
X7591Y440D01*
Y390D01*
X7640Y440D02*
X7616Y407D01*
X7652D01*
X7640Y440D02*
Y390D01*
X2830Y1000D02*
X2880D01*
X2830D02*
Y1017D01*
X2832Y1024D01*
X2837Y1029D01*
X2842Y1031D01*
X2849Y1033D01*
X2861D01*
X2868Y1031D01*
X2873Y1029D01*
X2878Y1024D01*
X2880Y1017D01*
Y1000D01*
X2840Y1045D02*
X2837Y1049D01*
X2830Y1056D01*
X2880D01*
X2830Y1086D02*
Y1112D01*
X2849Y1098D01*
Y1105D01*
X2851Y1110D01*
X2854Y1112D01*
X2861Y1114D01*
X2866D01*
X2873Y1112D01*
X2878Y1107D01*
X2880Y1100D01*
Y1093D01*
X2878Y1086D01*
X2875Y1084D01*
X2870Y1081D01*
X3102Y920D02*
X3097Y917D01*
X3092Y913D01*
X3090Y908D01*
Y898D01*
X3092Y894D01*
X3097Y889D01*
X3102Y886D01*
X3109Y884D01*
X3121D01*
X3128Y886D01*
X3133Y889D01*
X3138Y894D01*
X3140Y898D01*
Y908D01*
X3138Y913D01*
X3133Y917D01*
X3128Y920D01*
X3102Y936D02*
X3100D01*
X3095Y939D01*
X3092Y941D01*
X3090Y946D01*
Y955D01*
X3092Y960D01*
X3095Y962D01*
X3100Y965D01*
X3104D01*
X3109Y962D01*
X3116Y958D01*
X3140Y934D01*
Y967D01*
X3090Y993D02*
X3092Y985D01*
X3100Y981D01*
X3111Y978D01*
X3119D01*
X3130Y981D01*
X3138Y985D01*
X3140Y993D01*
Y997D01*
X3138Y1004D01*
X3130Y1009D01*
X3119Y1012D01*
X3111D01*
X3100Y1009D01*
X3092Y1004D01*
X3090Y997D01*
Y993D01*
X3286Y1265D02*
X3336D01*
X3286D02*
Y1286D01*
X3288Y1294D01*
X3291Y1296D01*
X3296Y1298D01*
X3300D01*
X3305Y1296D01*
X3307Y1294D01*
X3310Y1286D01*
Y1265D01*
Y1282D02*
X3336Y1298D01*
X3296Y1310D02*
X3293Y1314D01*
X3286Y1321D01*
X3336D01*
X3286Y1379D02*
X3336Y1356D01*
X3286Y1346D02*
Y1379D01*
Y1395D02*
Y1422D01*
X3305Y1407D01*
Y1414D01*
X3307Y1419D01*
X3310Y1422D01*
X3317Y1424D01*
X3322D01*
X3329Y1422D01*
X3334Y1417D01*
X3336Y1410D01*
Y1403D01*
X3334Y1395D01*
X3331Y1393D01*
X3326Y1391D01*
X3197Y1256D02*
X3247D01*
X3197D02*
Y1277D01*
X3199Y1285D01*
X3202Y1287D01*
X3207Y1289D01*
X3211D01*
X3216Y1287D01*
X3218Y1285D01*
X3221Y1277D01*
Y1256D01*
Y1273D02*
X3247Y1289D01*
X3207Y1301D02*
X3204Y1305D01*
X3197Y1312D01*
X3247D01*
X3197Y1370D02*
X3247Y1347D01*
X3197Y1337D02*
Y1370D01*
X3209Y1384D02*
X3207D01*
X3202Y1386D01*
X3199Y1389D01*
X3197Y1394D01*
Y1403D01*
X3199Y1408D01*
X3202Y1410D01*
X3207Y1413D01*
X3211D01*
X3216Y1410D01*
X3223Y1405D01*
X3247Y1382D01*
Y1415D01*
X6205Y735D02*
Y685D01*
Y735D02*
X6226D01*
X6234Y733D01*
X6236Y730D01*
X6238Y725D01*
Y721D01*
X6236Y716D01*
X6234Y714D01*
X6226Y711D01*
X6205D01*
X6222D02*
X6238Y685D01*
X6250Y725D02*
X6254Y728D01*
X6261Y735D01*
Y685D01*
X6319Y735D02*
X6296Y685D01*
X6286Y735D02*
X6319D01*
X6331Y725D02*
X6335Y728D01*
X6343Y735D01*
Y685D01*
X1550Y544D02*
X1600D01*
X1550D02*
Y565D01*
X1552Y573D01*
X1555Y575D01*
X1560Y577D01*
X1564D01*
X1569Y575D01*
X1571Y573D01*
X1574Y565D01*
Y544D01*
Y561D02*
X1600Y577D01*
X1560Y589D02*
X1557Y593D01*
X1550Y600D01*
X1600D01*
X1550Y658D02*
X1600Y635D01*
X1550Y625D02*
Y658D01*
Y684D02*
X1552Y677D01*
X1560Y672D01*
X1571Y670D01*
X1579D01*
X1590Y672D01*
X1598Y677D01*
X1600Y684D01*
Y689D01*
X1598Y696D01*
X1590Y701D01*
X1579Y703D01*
X1571D01*
X1560Y701D01*
X1552Y696D01*
X1550Y689D01*
Y684D01*
X3229Y945D02*
X3225Y943D01*
X3220Y938D01*
X3217Y933D01*
X3215Y926D01*
Y914D01*
X3217Y907D01*
X3220Y902D01*
X3225Y897D01*
X3229Y895D01*
X3239D01*
X3244Y897D01*
X3248Y902D01*
X3251Y907D01*
X3253Y914D01*
Y926D01*
X3251Y933D01*
X3248Y938D01*
X3244Y943D01*
X3239Y945D01*
X3229D01*
X3236Y905D02*
X3251Y890D01*
X3265Y935D02*
X3270Y938D01*
X3277Y945D01*
Y895D01*
X3335Y945D02*
X3311Y895D01*
X3301Y945D02*
X3335D01*
X1271Y472D02*
X1267Y470D01*
X1262Y465D01*
X1259Y460D01*
X1257Y453D01*
Y441D01*
X1259Y434D01*
X1262Y429D01*
X1267Y424D01*
X1271Y422D01*
X1281D01*
X1286Y424D01*
X1290Y429D01*
X1293Y434D01*
X1295Y441D01*
Y453D01*
X1293Y460D01*
X1290Y465D01*
X1286Y470D01*
X1281Y472D01*
X1271D01*
X1278Y432D02*
X1293Y417D01*
X1307Y462D02*
X1312Y465D01*
X1319Y472D01*
Y422D01*
X1372Y465D02*
X1370Y470D01*
X1362Y472D01*
X1358D01*
X1351Y470D01*
X1346Y462D01*
X1343Y451D01*
Y439D01*
X1346Y429D01*
X1351Y424D01*
X1358Y422D01*
X1360D01*
X1367Y424D01*
X1372Y429D01*
X1374Y436D01*
Y439D01*
X1372Y446D01*
X1367Y451D01*
X1360Y453D01*
X1358D01*
X1351Y451D01*
X1346Y446D01*
X1343Y439D01*
X617Y1012D02*
Y962D01*
Y1012D02*
X638D01*
X646Y1010D01*
X648Y1007D01*
X650Y1002D01*
Y998D01*
X648Y993D01*
X646Y991D01*
X638Y988D01*
X617D01*
X634D02*
X650Y962D01*
X695Y1012D02*
X671Y962D01*
X662Y1012D02*
X695D01*
X574Y1360D02*
Y1310D01*
Y1360D02*
X595D01*
X603Y1358D01*
X605Y1355D01*
X607Y1350D01*
Y1346D01*
X605Y1341D01*
X603Y1339D01*
X595Y1336D01*
X574D01*
X591D02*
X607Y1310D01*
X642Y1360D02*
X619Y1327D01*
X654D01*
X642Y1360D02*
Y1310D01*
X3641Y1132D02*
X3636Y1129D01*
X3631Y1125D01*
X3629Y1120D01*
Y1110D01*
X3631Y1106D01*
X3636Y1101D01*
X3641Y1098D01*
X3648Y1096D01*
X3660D01*
X3667Y1098D01*
X3672Y1101D01*
X3677Y1106D01*
X3679Y1110D01*
Y1120D01*
X3677Y1125D01*
X3672Y1129D01*
X3667Y1132D01*
X3641Y1148D02*
X3639D01*
X3634Y1151D01*
X3631Y1153D01*
X3629Y1158D01*
Y1167D01*
X3631Y1172D01*
X3634Y1174D01*
X3639Y1177D01*
X3643D01*
X3648Y1174D01*
X3655Y1170D01*
X3679Y1146D01*
Y1179D01*
X3629Y1195D02*
Y1221D01*
X3648Y1207D01*
Y1214D01*
X3650Y1219D01*
X3653Y1221D01*
X3660Y1224D01*
X3665D01*
X3672Y1221D01*
X3677Y1216D01*
X3679Y1209D01*
Y1202D01*
X3677Y1195D01*
X3674Y1193D01*
X3669Y1190D01*
X714Y479D02*
Y429D01*
Y479D02*
X735D01*
X743Y477D01*
X745Y474D01*
X747Y469D01*
Y465D01*
X745Y460D01*
X743Y458D01*
X735Y455D01*
X714D01*
X731D02*
X747Y429D01*
X763Y479D02*
X789D01*
X775Y460D01*
X782D01*
X787Y458D01*
X789Y455D01*
X792Y448D01*
Y443D01*
X789Y436D01*
X785Y431D01*
X778Y429D01*
X770D01*
X763Y431D01*
X761Y434D01*
X759Y439D01*
X3046Y2017D02*
X3096D01*
X3046D02*
Y2033D01*
X3049Y2041D01*
X3054Y2045D01*
X3058Y2048D01*
X3065Y2050D01*
X3077D01*
X3084Y2048D01*
X3089Y2045D01*
X3094Y2041D01*
X3096Y2033D01*
Y2017D01*
X3054Y2095D02*
X3049Y2090D01*
X3046Y2083D01*
Y2073D01*
X3049Y2066D01*
X3054Y2061D01*
X3058D01*
X3063Y2064D01*
X3065Y2066D01*
X3068Y2071D01*
X3073Y2085D01*
X3075Y2090D01*
X3077Y2092D01*
X3082Y2095D01*
X3089D01*
X3094Y2090D01*
X3096Y2083D01*
Y2073D01*
X3094Y2066D01*
X3089Y2061D01*
X3056Y2106D02*
X3054Y2111D01*
X3046Y2118D01*
X3096D01*
X745Y1121D02*
Y1085D01*
X747Y1078D01*
X752Y1073D01*
X759Y1071D01*
X764D01*
X771Y1073D01*
X776Y1078D01*
X778Y1085D01*
Y1121D01*
X795Y1109D02*
Y1111D01*
X797Y1116D01*
X799Y1119D01*
X804Y1121D01*
X814D01*
X818Y1119D01*
X821Y1116D01*
X823Y1111D01*
Y1107D01*
X821Y1102D01*
X816Y1095D01*
X792Y1071D01*
X825D01*
X1075Y1730D02*
Y1694D01*
X1077Y1687D01*
X1082Y1682D01*
X1089Y1680D01*
X1094D01*
X1101Y1682D01*
X1106Y1687D01*
X1108Y1694D01*
Y1730D01*
X1146D02*
X1122Y1697D01*
X1158D01*
X1146Y1730D02*
Y1680D01*
X3241Y2022D02*
X3291D01*
X3241D02*
Y2038D01*
X3244Y2046D01*
X3249Y2050D01*
X3253Y2053D01*
X3260Y2055D01*
X3272D01*
X3279Y2053D01*
X3284Y2050D01*
X3289Y2046D01*
X3291Y2038D01*
Y2022D01*
X3249Y2100D02*
X3244Y2095D01*
X3241Y2088D01*
Y2078D01*
X3244Y2071D01*
X3249Y2066D01*
X3253D01*
X3258Y2069D01*
X3260Y2071D01*
X3263Y2076D01*
X3268Y2090D01*
X3270Y2095D01*
X3272Y2097D01*
X3277Y2100D01*
X3284D01*
X3289Y2095D01*
X3291Y2088D01*
Y2078D01*
X3289Y2071D01*
X3284Y2066D01*
X3253Y2113D02*
X3251D01*
X3246Y2116D01*
X3244Y2118D01*
X3241Y2123D01*
Y2132D01*
X3244Y2137D01*
X3246Y2139D01*
X3251Y2142D01*
X3256D01*
X3260Y2139D01*
X3268Y2135D01*
X3291Y2111D01*
Y2144D01*
X1929Y1053D02*
Y1003D01*
Y1053D02*
X1946D01*
X1953Y1051D01*
X1958Y1046D01*
X1960Y1041D01*
X1962Y1034D01*
Y1022D01*
X1960Y1015D01*
X1958Y1010D01*
X1953Y1005D01*
X1946Y1003D01*
X1929D01*
X1978Y1053D02*
X2004D01*
X1990Y1034D01*
X1997D01*
X2002Y1032D01*
X2004Y1029D01*
X2007Y1022D01*
Y1017D01*
X2004Y1010D01*
X2000Y1005D01*
X1993Y1003D01*
X1985D01*
X1978Y1005D01*
X1976Y1008D01*
X1974Y1013D01*
X1920Y1245D02*
Y1195D01*
Y1245D02*
X1937D01*
X1944Y1243D01*
X1949Y1238D01*
X1951Y1233D01*
X1953Y1226D01*
Y1214D01*
X1951Y1207D01*
X1949Y1202D01*
X1944Y1197D01*
X1937Y1195D01*
X1920D01*
X1967Y1233D02*
Y1235D01*
X1969Y1240D01*
X1972Y1243D01*
X1976Y1245D01*
X1986D01*
X1991Y1243D01*
X1993Y1240D01*
X1995Y1235D01*
Y1231D01*
X1993Y1226D01*
X1988Y1219D01*
X1965Y1195D01*
X1998D01*
X2944Y331D02*
X2994D01*
X2944D02*
Y348D01*
X2946Y355D01*
X2951Y360D01*
X2956Y362D01*
X2963Y364D01*
X2975D01*
X2982Y362D01*
X2987Y360D01*
X2992Y355D01*
X2994Y348D01*
Y331D01*
X2944Y399D02*
X2977Y376D01*
Y411D01*
X2944Y399D02*
X2994D01*
X2153Y992D02*
X2172Y969D01*
Y942D01*
X2191Y992D02*
X2172Y969D01*
X2198Y983D02*
X2203Y985D01*
X2210Y992D01*
Y942D01*
X3995Y330D02*
X4031D01*
X4038Y332D01*
X4043Y337D01*
X4045Y344D01*
Y349D01*
X4043Y356D01*
X4038Y361D01*
X4031Y363D01*
X3995D01*
X4012Y408D02*
X4019Y406D01*
X4024Y401D01*
X4026Y394D01*
Y391D01*
X4024Y384D01*
X4019Y380D01*
X4012Y377D01*
X4009D01*
X4002Y380D01*
X3997Y384D01*
X3995Y391D01*
Y394D01*
X3997Y401D01*
X4002Y406D01*
X4012Y408D01*
X4024D01*
X4035Y406D01*
X4043Y401D01*
X4045Y394D01*
Y389D01*
X4043Y382D01*
X4038Y380D01*
X1069Y194D02*
Y158D01*
X1071Y151D01*
X1076Y146D01*
X1083Y144D01*
X1088D01*
X1095Y146D01*
X1100Y151D01*
X1102Y158D01*
Y194D01*
X1145D02*
X1121D01*
X1119Y173D01*
X1121Y175D01*
X1128Y177D01*
X1135D01*
X1142Y175D01*
X1147Y170D01*
X1149Y163D01*
Y158D01*
X1147Y151D01*
X1142Y146D01*
X1135Y144D01*
X1128D01*
X1121Y146D01*
X1119Y149D01*
X1116Y154D01*
X5625Y1465D02*
Y1429D01*
X5627Y1422D01*
X5632Y1417D01*
X5639Y1415D01*
X5644D01*
X5651Y1417D01*
X5656Y1422D01*
X5658Y1429D01*
Y1465D01*
X5672Y1455D02*
X5677Y1458D01*
X5684Y1465D01*
Y1415D01*
X5709Y1455D02*
X5714Y1458D01*
X5721Y1465D01*
Y1415D01*
X5750Y846D02*
Y810D01*
X5752Y803D01*
X5757Y798D01*
X5764Y796D01*
X5769D01*
X5776Y798D01*
X5781Y803D01*
X5783Y810D01*
Y846D01*
X5797Y836D02*
X5802Y839D01*
X5809Y846D01*
Y796D01*
X5836Y834D02*
Y836D01*
X5839Y841D01*
X5841Y844D01*
X5846Y846D01*
X5855D01*
X5860Y844D01*
X5862Y841D01*
X5865Y836D01*
Y832D01*
X5862Y827D01*
X5858Y820D01*
X5834Y796D01*
X5867D01*
X1620Y1725D02*
Y1689D01*
X1622Y1682D01*
X1627Y1677D01*
X1634Y1675D01*
X1639D01*
X1646Y1677D01*
X1651Y1682D01*
X1653Y1689D01*
Y1725D01*
X1696Y1718D02*
X1693Y1723D01*
X1686Y1725D01*
X1681D01*
X1674Y1723D01*
X1670Y1715D01*
X1667Y1704D01*
Y1692D01*
X1670Y1682D01*
X1674Y1677D01*
X1681Y1675D01*
X1684D01*
X1691Y1677D01*
X1696Y1682D01*
X1698Y1689D01*
Y1692D01*
X1696Y1699D01*
X1691Y1704D01*
X1684Y1706D01*
X1681D01*
X1674Y1704D01*
X1670Y1699D01*
X1667Y1692D01*
X3533Y816D02*
X3569D01*
X3576Y818D01*
X3581Y823D01*
X3583Y830D01*
Y835D01*
X3581Y842D01*
X3576Y847D01*
X3569Y849D01*
X3533D01*
Y875D02*
X3535Y868D01*
X3540Y866D01*
X3545D01*
X3550Y868D01*
X3552Y873D01*
X3554Y882D01*
X3557Y889D01*
X3562Y894D01*
X3566Y896D01*
X3573D01*
X3578Y894D01*
X3581Y892D01*
X3583Y885D01*
Y875D01*
X3581Y868D01*
X3578Y866D01*
X3573Y863D01*
X3566D01*
X3562Y866D01*
X3557Y870D01*
X3554Y877D01*
X3552Y887D01*
X3550Y892D01*
X3545Y894D01*
X3540D01*
X3535Y892D01*
X3533Y885D01*
Y875D01*
X4165Y715D02*
Y679D01*
X4167Y672D01*
X4172Y667D01*
X4179Y665D01*
X4184D01*
X4191Y667D01*
X4196Y672D01*
X4198Y679D01*
Y715D01*
X4212Y705D02*
X4217Y708D01*
X4224Y715D01*
Y665D01*
X4263Y715D02*
X4256Y713D01*
X4251Y705D01*
X4249Y694D01*
Y686D01*
X4251Y675D01*
X4256Y667D01*
X4263Y665D01*
X4268D01*
X4275Y667D01*
X4280Y675D01*
X4282Y686D01*
Y694D01*
X4280Y705D01*
X4275Y713D01*
X4268Y715D01*
X4263D01*
X2865Y1833D02*
Y1797D01*
X2867Y1790D01*
X2872Y1785D01*
X2879Y1783D01*
X2884D01*
X2891Y1785D01*
X2896Y1790D01*
X2898Y1797D01*
Y1833D01*
X2945D02*
X2922Y1783D01*
X2912Y1833D02*
X2945D01*
X6216Y1383D02*
Y1347D01*
X6218Y1340D01*
X6223Y1335D01*
X6230Y1333D01*
X6235D01*
X6242Y1335D01*
X6246Y1340D01*
X6249Y1347D01*
Y1383D01*
X6263Y1373D02*
X6267Y1376D01*
X6275Y1383D01*
Y1333D01*
X6304Y1383D02*
X6330D01*
X6316Y1364D01*
X6323D01*
X6328Y1361D01*
X6330Y1359D01*
X6333Y1352D01*
Y1347D01*
X6330Y1340D01*
X6326Y1335D01*
X6318Y1333D01*
X6311D01*
X6304Y1335D01*
X6302Y1337D01*
X6299Y1342D01*
X1058Y2094D02*
Y2058D01*
X1060Y2051D01*
X1065Y2046D01*
X1072Y2044D01*
X1077D01*
X1084Y2046D01*
X1089Y2051D01*
X1091Y2058D01*
Y2094D01*
X1110D02*
X1136D01*
X1122Y2074D01*
X1129D01*
X1134Y2072D01*
X1136Y2070D01*
X1139Y2063D01*
Y2058D01*
X1136Y2051D01*
X1131Y2046D01*
X1124Y2044D01*
X1117D01*
X1110Y2046D01*
X1108Y2048D01*
X1105Y2053D01*
X362Y846D02*
Y810D01*
X364Y803D01*
X369Y798D01*
X376Y796D01*
X381D01*
X388Y798D01*
X393Y803D01*
X395Y810D01*
Y846D01*
X409Y836D02*
X414Y839D01*
X421Y846D01*
Y796D01*
X720Y230D02*
Y180D01*
Y230D02*
X741D01*
X749Y228D01*
X751Y225D01*
X753Y220D01*
Y216D01*
X751Y211D01*
X749Y209D01*
X741Y206D01*
X720D01*
X737D02*
X753Y180D01*
X793Y223D02*
X791Y228D01*
X784Y230D01*
X779D01*
X772Y228D01*
X767Y220D01*
X765Y209D01*
Y197D01*
X767Y187D01*
X772Y182D01*
X779Y180D01*
X781D01*
X788Y182D01*
X793Y187D01*
X795Y194D01*
Y197D01*
X793Y204D01*
X788Y209D01*
X781Y211D01*
X779D01*
X772Y209D01*
X767Y204D01*
X765Y197D01*
X4005Y645D02*
Y595D01*
Y645D02*
X4026D01*
X4034Y643D01*
X4036Y640D01*
X4038Y635D01*
Y631D01*
X4036Y626D01*
X4034Y624D01*
X4026Y621D01*
X4005D01*
X4022D02*
X4038Y595D01*
X4052Y633D02*
Y635D01*
X4054Y640D01*
X4057Y643D01*
X4061Y645D01*
X4071D01*
X4076Y643D01*
X4078Y640D01*
X4080Y635D01*
Y631D01*
X4078Y626D01*
X4073Y619D01*
X4050Y595D01*
X4083D01*
X4106Y645D02*
X4099Y643D01*
X4096Y638D01*
Y633D01*
X4099Y628D01*
X4104Y626D01*
X4113Y624D01*
X4120Y621D01*
X4125Y616D01*
X4127Y612D01*
Y605D01*
X4125Y600D01*
X4123Y597D01*
X4115Y595D01*
X4106D01*
X4099Y597D01*
X4096Y600D01*
X4094Y605D01*
Y612D01*
X4096Y616D01*
X4101Y621D01*
X4108Y624D01*
X4118Y626D01*
X4123Y628D01*
X4125Y633D01*
Y638D01*
X4123Y643D01*
X4115Y645D01*
X4106D01*
X6044Y1466D02*
Y1416D01*
Y1466D02*
X6065D01*
X6073Y1464D01*
X6075Y1461D01*
X6077Y1456D01*
Y1452D01*
X6075Y1447D01*
X6073Y1445D01*
X6065Y1442D01*
X6044D01*
X6061D02*
X6077Y1416D01*
X6117Y1466D02*
X6093D01*
X6091Y1445D01*
X6093Y1447D01*
X6100Y1449D01*
X6108D01*
X6115Y1447D01*
X6119Y1442D01*
X6122Y1435D01*
Y1430D01*
X6119Y1423D01*
X6115Y1418D01*
X6108Y1416D01*
X6100D01*
X6093Y1418D01*
X6091Y1421D01*
X6089Y1426D01*
X6162Y1466D02*
X6138D01*
X6135Y1445D01*
X6138Y1447D01*
X6145Y1449D01*
X6152D01*
X6159Y1447D01*
X6164Y1442D01*
X6166Y1435D01*
Y1430D01*
X6164Y1423D01*
X6159Y1418D01*
X6152Y1416D01*
X6145D01*
X6138Y1418D01*
X6135Y1421D01*
X6133Y1426D01*
X4005Y570D02*
Y520D01*
Y570D02*
X4026D01*
X4034Y568D01*
X4036Y565D01*
X4038Y560D01*
Y556D01*
X4036Y551D01*
X4034Y549D01*
X4026Y546D01*
X4005D01*
X4022D02*
X4038Y520D01*
X4052Y558D02*
Y560D01*
X4054Y565D01*
X4057Y568D01*
X4061Y570D01*
X4071D01*
X4076Y568D01*
X4078Y565D01*
X4080Y560D01*
Y556D01*
X4078Y551D01*
X4073Y544D01*
X4050Y520D01*
X4083D01*
X4127Y570D02*
X4104Y520D01*
X4094Y570D02*
X4127D01*
X4245Y200D02*
Y150D01*
Y200D02*
X4266D01*
X4274Y198D01*
X4276Y195D01*
X4278Y190D01*
Y186D01*
X4276Y181D01*
X4274Y179D01*
X4266Y176D01*
X4245D01*
X4262D02*
X4278Y150D01*
X4294Y200D02*
X4320D01*
X4306Y181D01*
X4313D01*
X4318Y179D01*
X4320Y176D01*
X4323Y169D01*
Y164D01*
X4320Y157D01*
X4316Y152D01*
X4309Y150D01*
X4301D01*
X4294Y152D01*
X4292Y155D01*
X4290Y160D01*
X4363Y200D02*
X4339D01*
X4336Y179D01*
X4339Y181D01*
X4346Y183D01*
X4353D01*
X4360Y181D01*
X4365Y176D01*
X4367Y169D01*
Y164D01*
X4365Y157D01*
X4360Y152D01*
X4353Y150D01*
X4346D01*
X4339Y152D01*
X4336Y155D01*
X4334Y160D01*
X4705Y285D02*
X4755D01*
X4705D02*
Y306D01*
X4707Y314D01*
X4710Y316D01*
X4715Y318D01*
X4719D01*
X4724Y316D01*
X4726Y314D01*
X4729Y306D01*
Y285D01*
Y302D02*
X4755Y318D01*
X4705Y363D02*
X4755Y339D01*
X4705Y330D02*
Y363D01*
Y407D02*
X4755Y384D01*
X4705Y374D02*
Y407D01*
X6050Y474D02*
Y424D01*
Y474D02*
X6071D01*
X6079Y472D01*
X6081Y469D01*
X6083Y464D01*
Y460D01*
X6081Y455D01*
X6079Y453D01*
X6071Y450D01*
X6050D01*
X6067D02*
X6083Y424D01*
X6128Y474D02*
X6104Y424D01*
X6095Y474D02*
X6128D01*
X6170Y457D02*
X6168Y450D01*
X6163Y445D01*
X6156Y443D01*
X6153D01*
X6146Y445D01*
X6141Y450D01*
X6139Y457D01*
Y460D01*
X6141Y467D01*
X6146Y472D01*
X6153Y474D01*
X6156D01*
X6163Y472D01*
X6168Y467D01*
X6170Y457D01*
Y445D01*
X6168Y434D01*
X6163Y426D01*
X6156Y424D01*
X6151D01*
X6144Y426D01*
X6141Y431D01*
X4765Y2050D02*
X4815D01*
X4765D02*
Y2071D01*
X4767Y2079D01*
X4770Y2081D01*
X4775Y2083D01*
X4779D01*
X4784Y2081D01*
X4786Y2079D01*
X4789Y2071D01*
Y2050D01*
Y2067D02*
X4815Y2083D01*
X4765Y2128D02*
X4815Y2104D01*
X4765Y2095D02*
Y2128D01*
Y2153D02*
X4767Y2146D01*
X4775Y2141D01*
X4786Y2139D01*
X4794D01*
X4805Y2141D01*
X4813Y2146D01*
X4815Y2153D01*
Y2158D01*
X4813Y2165D01*
X4805Y2170D01*
X4794Y2172D01*
X4786D01*
X4775Y2170D01*
X4767Y2165D01*
X4765Y2158D01*
Y2153D01*
X4642Y1401D02*
X4692D01*
X4642D02*
Y1422D01*
X4644Y1429D01*
X4646Y1432D01*
X4651Y1434D01*
X4656D01*
X4661Y1432D01*
X4663Y1429D01*
X4665Y1422D01*
Y1401D01*
Y1417D02*
X4692Y1434D01*
X4642Y1479D02*
X4692Y1455D01*
X4642Y1445D02*
Y1479D01*
X4651Y1490D02*
X4649Y1495D01*
X4642Y1502D01*
X4692D01*
X2810Y470D02*
Y420D01*
Y470D02*
X2831D01*
X2839Y468D01*
X2841Y465D01*
X2843Y460D01*
Y456D01*
X2841Y451D01*
X2839Y449D01*
X2831Y446D01*
X2810D01*
X2827D02*
X2843Y420D01*
X2888Y470D02*
X2864Y420D01*
X2855Y470D02*
X2888D01*
X2928D02*
X2904D01*
X2901Y449D01*
X2904Y451D01*
X2911Y453D01*
X2918D01*
X2925Y451D01*
X2930Y446D01*
X2932Y439D01*
Y434D01*
X2930Y427D01*
X2925Y422D01*
X2918Y420D01*
X2911D01*
X2904Y422D01*
X2901Y425D01*
X2899Y430D01*
X2811Y536D02*
Y486D01*
Y536D02*
X2832D01*
X2840Y534D01*
X2842Y531D01*
X2844Y526D01*
Y522D01*
X2842Y517D01*
X2840Y515D01*
X2832Y512D01*
X2811D01*
X2828D02*
X2844Y486D01*
X2889Y536D02*
X2865Y486D01*
X2856Y536D02*
X2889D01*
X2924D02*
X2900Y503D01*
X2936D01*
X2924Y536D02*
Y486D01*
X6045Y1830D02*
Y1780D01*
Y1830D02*
X6066D01*
X6074Y1828D01*
X6076Y1825D01*
X6078Y1820D01*
Y1816D01*
X6076Y1811D01*
X6074Y1809D01*
X6066Y1806D01*
X6045D01*
X6062D02*
X6078Y1780D01*
X6123Y1830D02*
X6099Y1780D01*
X6090Y1830D02*
X6123D01*
X6163Y1823D02*
X6160Y1828D01*
X6153Y1830D01*
X6148D01*
X6141Y1828D01*
X6136Y1820D01*
X6134Y1809D01*
Y1797D01*
X6136Y1787D01*
X6141Y1782D01*
X6148Y1780D01*
X6151D01*
X6158Y1782D01*
X6163Y1787D01*
X6165Y1794D01*
Y1797D01*
X6163Y1804D01*
X6158Y1809D01*
X6151Y1811D01*
X6148D01*
X6141Y1809D01*
X6136Y1804D01*
X6134Y1797D01*
X6085Y845D02*
Y795D01*
Y845D02*
X6106D01*
X6114Y843D01*
X6116Y840D01*
X6118Y835D01*
Y831D01*
X6116Y826D01*
X6114Y824D01*
X6106Y821D01*
X6085D01*
X6102D02*
X6118Y795D01*
X6163Y845D02*
X6139Y795D01*
X6130Y845D02*
X6163D01*
X6186D02*
X6179Y843D01*
X6176Y838D01*
Y833D01*
X6179Y828D01*
X6184Y826D01*
X6193Y824D01*
X6200Y821D01*
X6205Y816D01*
X6207Y812D01*
Y805D01*
X6205Y800D01*
X6203Y797D01*
X6195Y795D01*
X6186D01*
X6179Y797D01*
X6176Y800D01*
X6174Y805D01*
Y812D01*
X6176Y816D01*
X6181Y821D01*
X6188Y824D01*
X6198Y826D01*
X6203Y828D01*
X6205Y833D01*
Y838D01*
X6203Y843D01*
X6195Y845D01*
X6186D01*
X2440Y240D02*
X2490D01*
X2440D02*
Y261D01*
X2442Y269D01*
X2445Y271D01*
X2450Y273D01*
X2454D01*
X2459Y271D01*
X2461Y269D01*
X2464Y261D01*
Y240D01*
Y257D02*
X2490Y273D01*
X2447Y313D02*
X2442Y311D01*
X2440Y304D01*
Y299D01*
X2442Y292D01*
X2450Y287D01*
X2461Y285D01*
X2473D01*
X2483Y287D01*
X2488Y292D01*
X2490Y299D01*
Y301D01*
X2488Y308D01*
X2483Y313D01*
X2476Y315D01*
X2473D01*
X2466Y313D01*
X2461Y308D01*
X2459Y301D01*
Y299D01*
X2461Y292D01*
X2466Y287D01*
X2473Y285D01*
X2457Y357D02*
X2464Y355D01*
X2469Y350D01*
X2471Y343D01*
Y341D01*
X2469Y334D01*
X2464Y329D01*
X2457Y326D01*
X2454D01*
X2447Y329D01*
X2442Y334D01*
X2440Y341D01*
Y343D01*
X2442Y350D01*
X2447Y355D01*
X2457Y357D01*
X2469D01*
X2480Y355D01*
X2488Y350D01*
X2490Y343D01*
Y338D01*
X2488Y331D01*
X2483Y329D01*
X748Y705D02*
Y655D01*
Y705D02*
X769D01*
X777Y703D01*
X779Y700D01*
X781Y695D01*
Y691D01*
X779Y686D01*
X777Y684D01*
X769Y681D01*
X748D01*
X765D02*
X781Y655D01*
X821Y698D02*
X819Y703D01*
X812Y705D01*
X807D01*
X800Y703D01*
X795Y695D01*
X793Y684D01*
Y672D01*
X795Y662D01*
X800Y657D01*
X807Y655D01*
X809D01*
X816Y657D01*
X821Y662D01*
X823Y669D01*
Y672D01*
X821Y679D01*
X816Y684D01*
X809Y686D01*
X807D01*
X800Y684D01*
X795Y679D01*
X793Y672D01*
X846Y705D02*
X839Y703D01*
X837Y698D01*
Y693D01*
X839Y688D01*
X844Y686D01*
X853Y684D01*
X861Y681D01*
X865Y676D01*
X868Y672D01*
Y665D01*
X865Y660D01*
X863Y657D01*
X856Y655D01*
X846D01*
X839Y657D01*
X837Y660D01*
X834Y665D01*
Y672D01*
X837Y676D01*
X842Y681D01*
X849Y684D01*
X858Y686D01*
X863Y688D01*
X865Y693D01*
Y698D01*
X863Y703D01*
X856Y705D01*
X846D01*
X3775Y280D02*
X3825D01*
X3775D02*
Y301D01*
X3777Y309D01*
X3780Y311D01*
X3785Y313D01*
X3789D01*
X3794Y311D01*
X3796Y309D01*
X3799Y301D01*
Y280D01*
Y297D02*
X3825Y313D01*
X3775Y358D02*
X3825Y334D01*
X3775Y325D02*
Y358D01*
Y374D02*
Y400D01*
X3794Y386D01*
Y393D01*
X3796Y398D01*
X3799Y400D01*
X3806Y402D01*
X3811D01*
X3818Y400D01*
X3823Y395D01*
X3825Y388D01*
Y381D01*
X3823Y374D01*
X3820Y371D01*
X3815Y369D01*
X4564Y1390D02*
X4614D01*
X4564D02*
Y1411D01*
X4566Y1419D01*
X4569Y1421D01*
X4574Y1423D01*
X4578D01*
X4583Y1421D01*
X4585Y1419D01*
X4588Y1411D01*
Y1390D01*
Y1407D02*
X4614Y1423D01*
X4564Y1468D02*
X4614Y1444D01*
X4564Y1435D02*
Y1468D01*
X4576Y1481D02*
X4574D01*
X4569Y1484D01*
X4566Y1486D01*
X4564Y1491D01*
Y1500D01*
X4566Y1505D01*
X4569Y1508D01*
X4574Y1510D01*
X4578D01*
X4583Y1508D01*
X4590Y1503D01*
X4614Y1479D01*
Y1512D01*
X5451Y1834D02*
Y1784D01*
Y1834D02*
X5472D01*
X5480Y1832D01*
X5482Y1829D01*
X5484Y1824D01*
Y1820D01*
X5482Y1815D01*
X5480Y1813D01*
X5472Y1810D01*
X5451D01*
X5468D02*
X5484Y1784D01*
X5524Y1834D02*
X5500D01*
X5498Y1813D01*
X5500Y1815D01*
X5507Y1817D01*
X5515D01*
X5522Y1815D01*
X5526Y1810D01*
X5529Y1803D01*
Y1798D01*
X5526Y1791D01*
X5522Y1786D01*
X5515Y1784D01*
X5507D01*
X5500Y1786D01*
X5498Y1789D01*
X5496Y1794D01*
X5552Y1834D02*
X5545Y1832D01*
X5542Y1827D01*
Y1822D01*
X5545Y1817D01*
X5550Y1815D01*
X5559Y1813D01*
X5566Y1810D01*
X5571Y1805D01*
X5573Y1801D01*
Y1794D01*
X5571Y1789D01*
X5569Y1786D01*
X5561Y1784D01*
X5552D01*
X5545Y1786D01*
X5542Y1789D01*
X5540Y1794D01*
Y1801D01*
X5542Y1805D01*
X5547Y1810D01*
X5554Y1813D01*
X5564Y1815D01*
X5569Y1817D01*
X5571Y1822D01*
Y1827D01*
X5569Y1832D01*
X5561Y1834D01*
X5552D01*
X5452Y844D02*
Y794D01*
Y844D02*
X5473D01*
X5481Y842D01*
X5483Y839D01*
X5485Y834D01*
Y830D01*
X5483Y825D01*
X5481Y823D01*
X5473Y820D01*
X5452D01*
X5469D02*
X5485Y794D01*
X5525Y844D02*
X5501D01*
X5499Y823D01*
X5501Y825D01*
X5508Y827D01*
X5516D01*
X5523Y825D01*
X5527Y820D01*
X5530Y813D01*
Y808D01*
X5527Y801D01*
X5523Y796D01*
X5516Y794D01*
X5508D01*
X5501Y796D01*
X5499Y799D01*
X5497Y804D01*
X5574Y844D02*
X5551Y794D01*
X5541Y844D02*
X5574D01*
X5040Y1110D02*
X5090D01*
X5040D02*
Y1131D01*
X5042Y1139D01*
X5045Y1141D01*
X5050Y1143D01*
X5054D01*
X5059Y1141D01*
X5061Y1139D01*
X5064Y1131D01*
Y1110D01*
Y1127D02*
X5090Y1143D01*
X5047Y1183D02*
X5042Y1181D01*
X5040Y1174D01*
Y1169D01*
X5042Y1162D01*
X5050Y1157D01*
X5061Y1155D01*
X5073D01*
X5083Y1157D01*
X5088Y1162D01*
X5090Y1169D01*
Y1171D01*
X5088Y1178D01*
X5083Y1183D01*
X5076Y1185D01*
X5073D01*
X5066Y1183D01*
X5061Y1178D01*
X5059Y1171D01*
Y1169D01*
X5061Y1162D01*
X5066Y1157D01*
X5073Y1155D01*
X5040Y1225D02*
Y1201D01*
X5061Y1199D01*
X5059Y1201D01*
X5057Y1208D01*
Y1215D01*
X5059Y1223D01*
X5064Y1227D01*
X5071Y1230D01*
X5076D01*
X5083Y1227D01*
X5088Y1223D01*
X5090Y1215D01*
Y1208D01*
X5088Y1201D01*
X5085Y1199D01*
X5080Y1196D01*
X5445Y1470D02*
Y1420D01*
Y1470D02*
X5466D01*
X5474Y1468D01*
X5476Y1465D01*
X5478Y1460D01*
Y1456D01*
X5476Y1451D01*
X5474Y1449D01*
X5466Y1446D01*
X5445D01*
X5462D02*
X5478Y1420D01*
X5518Y1470D02*
X5494D01*
X5492Y1449D01*
X5494Y1451D01*
X5501Y1453D01*
X5509D01*
X5516Y1451D01*
X5520Y1446D01*
X5523Y1439D01*
Y1434D01*
X5520Y1427D01*
X5516Y1422D01*
X5509Y1420D01*
X5501D01*
X5494Y1422D01*
X5492Y1425D01*
X5490Y1430D01*
X5563Y1463D02*
X5560Y1468D01*
X5553Y1470D01*
X5548D01*
X5541Y1468D01*
X5536Y1460D01*
X5534Y1449D01*
Y1437D01*
X5536Y1427D01*
X5541Y1422D01*
X5548Y1420D01*
X5551D01*
X5558Y1422D01*
X5563Y1427D01*
X5565Y1434D01*
Y1437D01*
X5563Y1444D01*
X5558Y1449D01*
X5551Y1451D01*
X5548D01*
X5541Y1449D01*
X5536Y1444D01*
X5534Y1437D01*
X5442Y397D02*
Y347D01*
Y397D02*
X5463D01*
X5471Y395D01*
X5473Y392D01*
X5475Y387D01*
Y383D01*
X5473Y378D01*
X5471Y376D01*
X5463Y373D01*
X5442D01*
X5459D02*
X5475Y347D01*
X5515Y390D02*
X5513Y395D01*
X5506Y397D01*
X5501D01*
X5494Y395D01*
X5489Y387D01*
X5487Y376D01*
Y364D01*
X5489Y354D01*
X5494Y349D01*
X5501Y347D01*
X5503D01*
X5510Y349D01*
X5515Y354D01*
X5517Y361D01*
Y364D01*
X5515Y371D01*
X5510Y376D01*
X5503Y378D01*
X5501D01*
X5494Y376D01*
X5489Y371D01*
X5487Y364D01*
X5543Y397D02*
X5536Y395D01*
X5531Y387D01*
X5528Y376D01*
Y368D01*
X5531Y357D01*
X5536Y349D01*
X5543Y347D01*
X5547D01*
X5555Y349D01*
X5559Y357D01*
X5562Y368D01*
Y376D01*
X5559Y387D01*
X5555Y395D01*
X5547Y397D01*
X5543D01*
X5321Y1785D02*
X5371D01*
X5321D02*
Y1806D01*
X5323Y1814D01*
X5326Y1816D01*
X5331Y1818D01*
X5335D01*
X5340Y1816D01*
X5342Y1814D01*
X5345Y1806D01*
Y1785D01*
Y1802D02*
X5371Y1818D01*
X5328Y1858D02*
X5323Y1856D01*
X5321Y1849D01*
Y1844D01*
X5323Y1837D01*
X5331Y1832D01*
X5342Y1830D01*
X5354D01*
X5364Y1832D01*
X5369Y1837D01*
X5371Y1844D01*
Y1846D01*
X5369Y1853D01*
X5364Y1858D01*
X5357Y1860D01*
X5354D01*
X5347Y1858D01*
X5342Y1853D01*
X5340Y1846D01*
Y1844D01*
X5342Y1837D01*
X5347Y1832D01*
X5354Y1830D01*
X5321Y1876D02*
Y1902D01*
X5340Y1888D01*
Y1895D01*
X5342Y1900D01*
X5345Y1902D01*
X5352Y1905D01*
X5357D01*
X5364Y1902D01*
X5369Y1898D01*
X5371Y1890D01*
Y1883D01*
X5369Y1876D01*
X5366Y1874D01*
X5361Y1871D01*
X2810Y320D02*
Y270D01*
Y320D02*
X2831D01*
X2839Y318D01*
X2841Y315D01*
X2843Y310D01*
Y306D01*
X2841Y301D01*
X2839Y299D01*
X2831Y296D01*
X2810D01*
X2827D02*
X2843Y270D01*
X2883Y313D02*
X2881Y318D01*
X2874Y320D01*
X2869D01*
X2862Y318D01*
X2857Y310D01*
X2855Y299D01*
Y287D01*
X2857Y277D01*
X2862Y272D01*
X2869Y270D01*
X2871D01*
X2878Y272D01*
X2883Y277D01*
X2885Y284D01*
Y287D01*
X2883Y294D01*
X2878Y299D01*
X2871Y301D01*
X2869D01*
X2862Y299D01*
X2857Y294D01*
X2855Y287D01*
X2925Y313D02*
X2923Y318D01*
X2915Y320D01*
X2911D01*
X2904Y318D01*
X2899Y310D01*
X2896Y299D01*
Y287D01*
X2899Y277D01*
X2904Y272D01*
X2911Y270D01*
X2913D01*
X2920Y272D01*
X2925Y277D01*
X2927Y284D01*
Y287D01*
X2925Y294D01*
X2920Y299D01*
X2913Y301D01*
X2911D01*
X2904Y299D01*
X2899Y294D01*
X2896Y287D01*
X5115Y1110D02*
X5165D01*
X5115D02*
Y1131D01*
X5117Y1139D01*
X5120Y1141D01*
X5125Y1143D01*
X5129D01*
X5134Y1141D01*
X5136Y1139D01*
X5139Y1131D01*
Y1110D01*
Y1127D02*
X5165Y1143D01*
X5122Y1183D02*
X5117Y1181D01*
X5115Y1174D01*
Y1169D01*
X5117Y1162D01*
X5125Y1157D01*
X5136Y1155D01*
X5148D01*
X5158Y1157D01*
X5163Y1162D01*
X5165Y1169D01*
Y1171D01*
X5163Y1178D01*
X5158Y1183D01*
X5151Y1185D01*
X5148D01*
X5141Y1183D01*
X5136Y1178D01*
X5134Y1171D01*
Y1169D01*
X5136Y1162D01*
X5141Y1157D01*
X5148Y1155D01*
X5115Y1230D02*
X5165Y1206D01*
X5115Y1196D02*
Y1230D01*
X3380Y2025D02*
X3430D01*
X3380D02*
Y2046D01*
X3382Y2054D01*
X3385Y2056D01*
X3390Y2058D01*
X3394D01*
X3399Y2056D01*
X3401Y2054D01*
X3404Y2046D01*
Y2025D01*
Y2042D02*
X3430Y2058D01*
X3392Y2072D02*
X3390D01*
X3385Y2074D01*
X3382Y2077D01*
X3380Y2081D01*
Y2091D01*
X3382Y2096D01*
X3385Y2098D01*
X3390Y2100D01*
X3394D01*
X3399Y2098D01*
X3406Y2093D01*
X3430Y2070D01*
Y2103D01*
X3380Y2138D02*
X3413Y2114D01*
Y2150D01*
X3380Y2138D02*
X3430D01*
X3455Y2025D02*
X3505D01*
X3455D02*
Y2046D01*
X3457Y2054D01*
X3460Y2056D01*
X3465Y2058D01*
X3469D01*
X3474Y2056D01*
X3476Y2054D01*
X3479Y2046D01*
Y2025D01*
Y2042D02*
X3505Y2058D01*
X3467Y2072D02*
X3465D01*
X3460Y2074D01*
X3457Y2077D01*
X3455Y2081D01*
Y2091D01*
X3457Y2096D01*
X3460Y2098D01*
X3465Y2100D01*
X3469D01*
X3474Y2098D01*
X3481Y2093D01*
X3505Y2070D01*
Y2103D01*
X3455Y2143D02*
Y2119D01*
X3476Y2116D01*
X3474Y2119D01*
X3472Y2126D01*
Y2133D01*
X3474Y2140D01*
X3479Y2145D01*
X3486Y2147D01*
X3491D01*
X3498Y2145D01*
X3503Y2140D01*
X3505Y2133D01*
Y2126D01*
X3503Y2119D01*
X3500Y2116D01*
X3495Y2114D01*
X1651Y1536D02*
Y1486D01*
Y1536D02*
X1672D01*
X1680Y1534D01*
X1682Y1531D01*
X1684Y1526D01*
Y1522D01*
X1682Y1517D01*
X1680Y1515D01*
X1672Y1512D01*
X1651D01*
X1668D02*
X1684Y1486D01*
X1696Y1526D02*
X1700Y1529D01*
X1707Y1536D01*
Y1486D01*
X1761Y1529D02*
X1758Y1534D01*
X1751Y1536D01*
X1746D01*
X1739Y1534D01*
X1735Y1526D01*
X1732Y1515D01*
Y1503D01*
X1735Y1493D01*
X1739Y1488D01*
X1746Y1486D01*
X1749D01*
X1756Y1488D01*
X1761Y1493D01*
X1763Y1500D01*
Y1503D01*
X1761Y1510D01*
X1756Y1515D01*
X1749Y1517D01*
X1746D01*
X1739Y1515D01*
X1735Y1510D01*
X1732Y1503D01*
X3836Y1100D02*
X3886D01*
X3836D02*
Y1121D01*
X3838Y1129D01*
X3841Y1131D01*
X3846Y1133D01*
X3850D01*
X3855Y1131D01*
X3857Y1129D01*
X3860Y1121D01*
Y1100D01*
Y1117D02*
X3886Y1133D01*
X3848Y1147D02*
X3846D01*
X3841Y1149D01*
X3838Y1152D01*
X3836Y1156D01*
Y1166D01*
X3838Y1171D01*
X3841Y1173D01*
X3846Y1175D01*
X3850D01*
X3855Y1173D01*
X3862Y1168D01*
X3886Y1145D01*
Y1178D01*
X3843Y1218D02*
X3838Y1215D01*
X3836Y1208D01*
Y1203D01*
X3838Y1196D01*
X3846Y1191D01*
X3857Y1189D01*
X3869D01*
X3879Y1191D01*
X3884Y1196D01*
X3886Y1203D01*
Y1206D01*
X3884Y1213D01*
X3879Y1218D01*
X3872Y1220D01*
X3869D01*
X3862Y1218D01*
X3857Y1213D01*
X3855Y1206D01*
Y1203D01*
X3857Y1196D01*
X3862Y1191D01*
X3869Y1189D01*
X3470Y1111D02*
X3520D01*
X3470D02*
Y1132D01*
X3472Y1140D01*
X3475Y1142D01*
X3480Y1144D01*
X3484D01*
X3489Y1142D01*
X3491Y1140D01*
X3494Y1132D01*
Y1111D01*
Y1128D02*
X3520Y1144D01*
X3482Y1158D02*
X3480D01*
X3475Y1160D01*
X3472Y1163D01*
X3470Y1167D01*
Y1177D01*
X3472Y1182D01*
X3475Y1184D01*
X3480Y1186D01*
X3484D01*
X3489Y1184D01*
X3496Y1179D01*
X3520Y1156D01*
Y1189D01*
X3482Y1202D02*
X3480D01*
X3475Y1205D01*
X3472Y1207D01*
X3470Y1212D01*
Y1221D01*
X3472Y1226D01*
X3475Y1229D01*
X3480Y1231D01*
X3484D01*
X3489Y1229D01*
X3496Y1224D01*
X3520Y1200D01*
Y1233D01*
X2793Y957D02*
Y907D01*
Y957D02*
X2814D01*
X2822Y955D01*
X2824Y952D01*
X2826Y947D01*
Y943D01*
X2824Y938D01*
X2822Y936D01*
X2814Y933D01*
X2793D01*
X2810D02*
X2826Y907D01*
X2840Y945D02*
Y947D01*
X2842Y952D01*
X2845Y955D01*
X2849Y957D01*
X2859D01*
X2864Y955D01*
X2866Y952D01*
X2868Y947D01*
Y943D01*
X2866Y938D01*
X2861Y931D01*
X2838Y907D01*
X2871D01*
X2896Y957D02*
X2889Y955D01*
X2884Y947D01*
X2882Y936D01*
Y928D01*
X2884Y917D01*
X2889Y909D01*
X2896Y907D01*
X2901D01*
X2908Y909D01*
X2913Y917D01*
X2915Y928D01*
Y936D01*
X2913Y947D01*
X2908Y955D01*
X2901Y957D01*
X2896D01*
X4002Y778D02*
Y728D01*
Y778D02*
X4023D01*
X4031Y776D01*
X4033Y773D01*
X4035Y768D01*
Y764D01*
X4033Y759D01*
X4031Y757D01*
X4023Y754D01*
X4002D01*
X4019D02*
X4035Y728D01*
X4051Y778D02*
X4077D01*
X4063Y759D01*
X4070D01*
X4075Y757D01*
X4077Y754D01*
X4080Y747D01*
Y742D01*
X4077Y735D01*
X4073Y730D01*
X4066Y728D01*
X4058D01*
X4051Y730D01*
X4049Y733D01*
X4047Y738D01*
X4105Y778D02*
X4098Y776D01*
X4093Y768D01*
X4091Y757D01*
Y749D01*
X4093Y738D01*
X4098Y730D01*
X4105Y728D01*
X4110D01*
X4117Y730D01*
X4122Y738D01*
X4124Y749D01*
Y757D01*
X4122Y768D01*
X4117Y776D01*
X4110Y778D01*
X4105D01*
X4935Y860D02*
X4985D01*
X4935D02*
Y881D01*
X4937Y889D01*
X4940Y891D01*
X4945Y893D01*
X4949D01*
X4954Y891D01*
X4956Y889D01*
X4959Y881D01*
Y860D01*
Y877D02*
X4985Y893D01*
X4935Y928D02*
X4968Y905D01*
Y940D01*
X4935Y928D02*
X4985D01*
X4935Y978D02*
Y954D01*
X4956Y951D01*
X4954Y954D01*
X4952Y961D01*
Y968D01*
X4954Y975D01*
X4959Y980D01*
X4966Y982D01*
X4971D01*
X4978Y980D01*
X4983Y975D01*
X4985Y968D01*
Y961D01*
X4983Y954D01*
X4980Y951D01*
X4975Y949D01*
X4860Y860D02*
X4910D01*
X4860D02*
Y881D01*
X4862Y889D01*
X4865Y891D01*
X4870Y893D01*
X4874D01*
X4879Y891D01*
X4881Y889D01*
X4884Y881D01*
Y860D01*
Y877D02*
X4910Y893D01*
X4860Y928D02*
X4893Y905D01*
Y940D01*
X4860Y928D02*
X4910D01*
X4870Y949D02*
X4867Y954D01*
X4860Y961D01*
X4910D01*
X4005Y855D02*
Y805D01*
Y855D02*
X4026D01*
X4034Y853D01*
X4036Y850D01*
X4038Y845D01*
Y841D01*
X4036Y836D01*
X4034Y834D01*
X4026Y831D01*
X4005D01*
X4022D02*
X4038Y805D01*
X4052Y843D02*
Y845D01*
X4054Y850D01*
X4057Y853D01*
X4061Y855D01*
X4071D01*
X4076Y853D01*
X4078Y850D01*
X4080Y845D01*
Y841D01*
X4078Y836D01*
X4073Y829D01*
X4050Y805D01*
X4083D01*
X4125Y838D02*
X4123Y831D01*
X4118Y826D01*
X4111Y824D01*
X4108D01*
X4101Y826D01*
X4096Y831D01*
X4094Y838D01*
Y841D01*
X4096Y848D01*
X4101Y853D01*
X4108Y855D01*
X4111D01*
X4118Y853D01*
X4123Y848D01*
X4125Y838D01*
Y826D01*
X4123Y815D01*
X4118Y807D01*
X4111Y805D01*
X4106D01*
X4099Y807D01*
X4096Y812D01*
X4618Y1187D02*
X4668D01*
X4618D02*
Y1208D01*
X4620Y1216D01*
X4623Y1218D01*
X4628Y1220D01*
X4632D01*
X4637Y1218D01*
X4639Y1216D01*
X4642Y1208D01*
Y1187D01*
Y1204D02*
X4668Y1220D01*
X4618Y1260D02*
Y1236D01*
X4639Y1234D01*
X4637Y1236D01*
X4635Y1243D01*
Y1251D01*
X4637Y1258D01*
X4642Y1262D01*
X4649Y1265D01*
X4654D01*
X4661Y1262D01*
X4666Y1258D01*
X4668Y1251D01*
Y1243D01*
X4666Y1236D01*
X4663Y1234D01*
X4658Y1232D01*
X4618Y1290D02*
X4620Y1283D01*
X4628Y1278D01*
X4639Y1276D01*
X4647D01*
X4658Y1278D01*
X4666Y1283D01*
X4668Y1290D01*
Y1295D01*
X4666Y1302D01*
X4658Y1307D01*
X4647Y1309D01*
X4639D01*
X4628Y1307D01*
X4620Y1302D01*
X4618Y1295D01*
Y1290D01*
X4535Y1185D02*
X4585D01*
X4535D02*
Y1206D01*
X4537Y1214D01*
X4540Y1216D01*
X4545Y1218D01*
X4549D01*
X4554Y1216D01*
X4556Y1214D01*
X4559Y1206D01*
Y1185D01*
Y1202D02*
X4585Y1218D01*
X4535Y1253D02*
X4568Y1230D01*
Y1265D01*
X4535Y1253D02*
X4585D01*
X4535Y1298D02*
X4568Y1274D01*
Y1310D01*
X4535Y1298D02*
X4585D01*
X5010Y860D02*
X5060D01*
X5010D02*
Y881D01*
X5012Y889D01*
X5015Y891D01*
X5020Y893D01*
X5024D01*
X5029Y891D01*
X5031Y889D01*
X5034Y881D01*
Y860D01*
Y877D02*
X5060Y893D01*
X5010Y933D02*
Y909D01*
X5031Y907D01*
X5029Y909D01*
X5027Y916D01*
Y924D01*
X5029Y931D01*
X5034Y935D01*
X5041Y938D01*
X5046D01*
X5053Y935D01*
X5058Y931D01*
X5060Y924D01*
Y916D01*
X5058Y909D01*
X5055Y907D01*
X5050Y905D01*
X5020Y949D02*
X5017Y954D01*
X5010Y961D01*
X5060D01*
X4785Y860D02*
X4835D01*
X4785D02*
Y881D01*
X4787Y889D01*
X4790Y891D01*
X4795Y893D01*
X4799D01*
X4804Y891D01*
X4806Y889D01*
X4809Y881D01*
Y860D01*
Y877D02*
X4835Y893D01*
X4785Y909D02*
Y935D01*
X4804Y921D01*
Y928D01*
X4806Y933D01*
X4809Y935D01*
X4816Y938D01*
X4821D01*
X4828Y935D01*
X4833Y931D01*
X4835Y924D01*
Y916D01*
X4833Y909D01*
X4830Y907D01*
X4825Y905D01*
X4785Y961D02*
X4787Y954D01*
X4792Y951D01*
X4797D01*
X4802Y954D01*
X4804Y959D01*
X4806Y968D01*
X4809Y975D01*
X4814Y980D01*
X4818Y982D01*
X4825D01*
X4830Y980D01*
X4833Y978D01*
X4835Y970D01*
Y961D01*
X4833Y954D01*
X4830Y951D01*
X4825Y949D01*
X4818D01*
X4814Y951D01*
X4809Y956D01*
X4806Y963D01*
X4804Y973D01*
X4802Y978D01*
X4797Y980D01*
X4792D01*
X4787Y978D01*
X4785Y970D01*
Y961D01*
X2734Y2025D02*
X2784D01*
X2734D02*
Y2047D01*
X2736Y2054D01*
X2739Y2056D01*
X2744Y2059D01*
X2748D01*
X2753Y2056D01*
X2755Y2054D01*
X2758Y2047D01*
Y2025D01*
Y2042D02*
X2784Y2059D01*
X2744Y2070D02*
X2741Y2075D01*
X2734Y2082D01*
X2784D01*
X2734Y2140D02*
X2784Y2116D01*
X2734Y2106D02*
Y2140D01*
X2803Y2024D02*
X2853D01*
X2803D02*
Y2046D01*
X2805Y2053D01*
X2808Y2055D01*
X2813Y2058D01*
X2817D01*
X2822Y2055D01*
X2824Y2053D01*
X2827Y2046D01*
Y2024D01*
Y2041D02*
X2853Y2058D01*
X2813Y2069D02*
X2810Y2074D01*
X2803Y2081D01*
X2853D01*
X2803Y2117D02*
X2805Y2110D01*
X2810Y2108D01*
X2815D01*
X2820Y2110D01*
X2822Y2115D01*
X2824Y2124D01*
X2827Y2132D01*
X2832Y2136D01*
X2836Y2139D01*
X2843D01*
X2848Y2136D01*
X2851Y2134D01*
X2853Y2127D01*
Y2117D01*
X2851Y2110D01*
X2848Y2108D01*
X2843Y2105D01*
X2836D01*
X2832Y2108D01*
X2827Y2113D01*
X2824Y2120D01*
X2822Y2129D01*
X2820Y2134D01*
X2815Y2136D01*
X2810D01*
X2805Y2134D01*
X2803Y2127D01*
Y2117D01*
X3171Y2037D02*
X3221D01*
X3171D02*
Y2058D01*
X3174Y2065D01*
X3176Y2068D01*
X3181Y2070D01*
X3186D01*
X3190Y2068D01*
X3193Y2065D01*
X3195Y2058D01*
Y2037D01*
Y2053D02*
X3221Y2070D01*
X3183Y2084D02*
X3181D01*
X3176Y2086D01*
X3174Y2088D01*
X3171Y2093D01*
Y2103D01*
X3174Y2107D01*
X3176Y2110D01*
X3181Y2112D01*
X3186D01*
X3190Y2110D01*
X3198Y2105D01*
X3221Y2081D01*
Y2115D01*
X3181Y2126D02*
X3179Y2131D01*
X3171Y2138D01*
X3221D01*
X2967Y2026D02*
X3017D01*
X2967D02*
Y2047D01*
X2969Y2054D01*
X2972Y2057D01*
X2977Y2059D01*
X2981D01*
X2986Y2057D01*
X2988Y2054D01*
X2991Y2047D01*
Y2026D01*
Y2042D02*
X3017Y2059D01*
X2977Y2070D02*
X2974Y2075D01*
X2967Y2082D01*
X3017D01*
X2984Y2138D02*
X2991Y2135D01*
X2996Y2131D01*
X2998Y2124D01*
Y2121D01*
X2996Y2114D01*
X2991Y2109D01*
X2984Y2107D01*
X2981D01*
X2974Y2109D01*
X2969Y2114D01*
X2967Y2121D01*
Y2124D01*
X2969Y2131D01*
X2974Y2135D01*
X2984Y2138D01*
X2996D01*
X3007Y2135D01*
X3015Y2131D01*
X3017Y2124D01*
Y2119D01*
X3015Y2112D01*
X3010Y2109D01*
X7615Y1875D02*
X7665D01*
X7615D02*
Y1896D01*
X7617Y1904D01*
X7620Y1906D01*
X7625Y1908D01*
X7629D01*
X7634Y1906D01*
X7636Y1904D01*
X7639Y1896D01*
Y1875D01*
Y1892D02*
X7665Y1908D01*
X7615Y1931D02*
X7617Y1924D01*
X7622Y1922D01*
X7627D01*
X7632Y1924D01*
X7634Y1929D01*
X7636Y1939D01*
X7639Y1946D01*
X7644Y1950D01*
X7648Y1953D01*
X7655D01*
X7660Y1950D01*
X7663Y1948D01*
X7665Y1941D01*
Y1931D01*
X7663Y1924D01*
X7660Y1922D01*
X7655Y1920D01*
X7648D01*
X7644Y1922D01*
X7639Y1927D01*
X7636Y1934D01*
X7634Y1943D01*
X7632Y1948D01*
X7627Y1950D01*
X7622D01*
X7617Y1948D01*
X7615Y1941D01*
Y1931D01*
X7622Y1993D02*
X7617Y1990D01*
X7615Y1983D01*
Y1978D01*
X7617Y1971D01*
X7625Y1966D01*
X7636Y1964D01*
X7648D01*
X7658Y1966D01*
X7663Y1971D01*
X7665Y1978D01*
Y1981D01*
X7663Y1988D01*
X7658Y1993D01*
X7651Y1995D01*
X7648D01*
X7641Y1993D01*
X7636Y1988D01*
X7634Y1981D01*
Y1978D01*
X7636Y1971D01*
X7641Y1966D01*
X7648Y1964D01*
X7375Y1870D02*
X7425D01*
X7375D02*
Y1891D01*
X7377Y1899D01*
X7380Y1901D01*
X7385Y1903D01*
X7389D01*
X7394Y1901D01*
X7396Y1899D01*
X7399Y1891D01*
Y1870D01*
Y1887D02*
X7425Y1903D01*
X7375Y1926D02*
X7377Y1919D01*
X7382Y1917D01*
X7387D01*
X7392Y1919D01*
X7394Y1924D01*
X7396Y1934D01*
X7399Y1941D01*
X7404Y1945D01*
X7408Y1948D01*
X7415D01*
X7420Y1945D01*
X7423Y1943D01*
X7425Y1936D01*
Y1926D01*
X7423Y1919D01*
X7420Y1917D01*
X7415Y1915D01*
X7408D01*
X7404Y1917D01*
X7399Y1922D01*
X7396Y1929D01*
X7394Y1938D01*
X7392Y1943D01*
X7387Y1945D01*
X7382D01*
X7377Y1943D01*
X7375Y1936D01*
Y1926D01*
Y1988D02*
Y1964D01*
X7396Y1961D01*
X7394Y1964D01*
X7392Y1971D01*
Y1978D01*
X7394Y1985D01*
X7399Y1990D01*
X7406Y1992D01*
X7411D01*
X7418Y1990D01*
X7423Y1985D01*
X7425Y1978D01*
Y1971D01*
X7423Y1964D01*
X7420Y1961D01*
X7415Y1959D01*
X7633Y218D02*
X7683D01*
X7633D02*
Y239D01*
X7636Y246D01*
X7638Y248D01*
X7643Y251D01*
X7648D01*
X7652Y248D01*
X7655Y246D01*
X7657Y239D01*
Y218D01*
Y234D02*
X7683Y251D01*
X7633Y274D02*
X7636Y267D01*
X7641Y264D01*
X7645D01*
X7650Y267D01*
X7652Y272D01*
X7655Y281D01*
X7657Y288D01*
X7662Y293D01*
X7667Y295D01*
X7674D01*
X7679Y293D01*
X7681Y291D01*
X7683Y283D01*
Y274D01*
X7681Y267D01*
X7679Y264D01*
X7674Y262D01*
X7667D01*
X7662Y264D01*
X7657Y269D01*
X7655Y276D01*
X7652Y286D01*
X7650Y291D01*
X7645Y293D01*
X7641D01*
X7636Y291D01*
X7633Y283D01*
Y274D01*
Y340D02*
X7683Y316D01*
X7633Y307D02*
Y340D01*
X7880Y1865D02*
X7930D01*
X7880D02*
Y1886D01*
X7882Y1894D01*
X7885Y1896D01*
X7890Y1898D01*
X7894D01*
X7899Y1896D01*
X7901Y1894D01*
X7904Y1886D01*
Y1865D01*
Y1882D02*
X7930Y1898D01*
X7880Y1921D02*
X7882Y1914D01*
X7887Y1912D01*
X7892D01*
X7897Y1914D01*
X7899Y1919D01*
X7901Y1929D01*
X7904Y1936D01*
X7909Y1940D01*
X7913Y1943D01*
X7920D01*
X7925Y1940D01*
X7928Y1938D01*
X7930Y1931D01*
Y1921D01*
X7928Y1914D01*
X7925Y1912D01*
X7920Y1910D01*
X7913D01*
X7909Y1912D01*
X7904Y1917D01*
X7901Y1924D01*
X7899Y1933D01*
X7897Y1938D01*
X7892Y1940D01*
X7887D01*
X7882Y1938D01*
X7880Y1931D01*
Y1921D01*
Y1966D02*
X7882Y1959D01*
X7887Y1956D01*
X7892D01*
X7897Y1959D01*
X7899Y1964D01*
X7901Y1973D01*
X7904Y1980D01*
X7909Y1985D01*
X7913Y1987D01*
X7920D01*
X7925Y1985D01*
X7928Y1983D01*
X7930Y1975D01*
Y1966D01*
X7928Y1959D01*
X7925Y1956D01*
X7920Y1954D01*
X7913D01*
X7909Y1956D01*
X7904Y1961D01*
X7901Y1968D01*
X7899Y1978D01*
X7897Y1983D01*
X7892Y1985D01*
X7887D01*
X7882Y1983D01*
X7880Y1975D01*
Y1966D01*
X6795Y220D02*
X6845D01*
X6795D02*
Y241D01*
X6797Y249D01*
X6800Y251D01*
X6805Y253D01*
X6809D01*
X6814Y251D01*
X6816Y249D01*
X6819Y241D01*
Y220D01*
Y237D02*
X6845Y253D01*
X6795Y276D02*
X6797Y269D01*
X6802Y267D01*
X6807D01*
X6812Y269D01*
X6814Y274D01*
X6816Y284D01*
X6819Y291D01*
X6824Y295D01*
X6828Y298D01*
X6835D01*
X6840Y295D01*
X6843Y293D01*
X6845Y286D01*
Y276D01*
X6843Y269D01*
X6840Y267D01*
X6835Y265D01*
X6828D01*
X6824Y267D01*
X6819Y272D01*
X6816Y279D01*
X6814Y288D01*
X6812Y293D01*
X6807Y295D01*
X6802D01*
X6797Y293D01*
X6795Y286D01*
Y276D01*
X6805Y309D02*
X6802Y314D01*
X6795Y321D01*
X6845D01*
X6792Y1871D02*
X6842D01*
X6792D02*
Y1892D01*
X6794Y1899D01*
X6797Y1902D01*
X6802Y1904D01*
X6806D01*
X6811Y1902D01*
X6813Y1899D01*
X6816Y1892D01*
Y1871D01*
Y1887D02*
X6842Y1904D01*
X6792Y1927D02*
X6794Y1920D01*
X6799Y1918D01*
X6804D01*
X6809Y1920D01*
X6811Y1925D01*
X6813Y1934D01*
X6816Y1941D01*
X6821Y1946D01*
X6825Y1949D01*
X6832D01*
X6837Y1946D01*
X6840Y1944D01*
X6842Y1937D01*
Y1927D01*
X6840Y1920D01*
X6837Y1918D01*
X6832Y1915D01*
X6825D01*
X6821Y1918D01*
X6816Y1922D01*
X6813Y1930D01*
X6811Y1939D01*
X6809Y1944D01*
X6804Y1946D01*
X6799D01*
X6794Y1944D01*
X6792Y1937D01*
Y1927D01*
Y1974D02*
X6794Y1967D01*
X6802Y1962D01*
X6813Y1960D01*
X6821D01*
X6832Y1962D01*
X6840Y1967D01*
X6842Y1974D01*
Y1979D01*
X6840Y1986D01*
X6832Y1991D01*
X6821Y1993D01*
X6813D01*
X6802Y1991D01*
X6794Y1986D01*
X6792Y1979D01*
Y1974D01*
X7115Y220D02*
X7165D01*
X7115D02*
Y241D01*
X7117Y249D01*
X7120Y251D01*
X7125Y253D01*
X7129D01*
X7134Y251D01*
X7136Y249D01*
X7139Y241D01*
Y220D01*
Y237D02*
X7165Y253D01*
X7115Y276D02*
X7117Y269D01*
X7122Y267D01*
X7127D01*
X7132Y269D01*
X7134Y274D01*
X7136Y284D01*
X7139Y291D01*
X7144Y295D01*
X7148Y298D01*
X7155D01*
X7160Y295D01*
X7163Y293D01*
X7165Y286D01*
Y276D01*
X7163Y269D01*
X7160Y267D01*
X7155Y265D01*
X7148D01*
X7144Y267D01*
X7139Y272D01*
X7136Y279D01*
X7134Y288D01*
X7132Y293D01*
X7127Y295D01*
X7122D01*
X7117Y293D01*
X7115Y286D01*
Y276D01*
X7127Y311D02*
X7125D01*
X7120Y314D01*
X7117Y316D01*
X7115Y321D01*
Y330D01*
X7117Y335D01*
X7120Y338D01*
X7125Y340D01*
X7129D01*
X7134Y338D01*
X7141Y333D01*
X7165Y309D01*
Y342D01*
X7115Y1875D02*
X7165D01*
X7115D02*
Y1896D01*
X7117Y1904D01*
X7120Y1906D01*
X7125Y1908D01*
X7129D01*
X7134Y1906D01*
X7136Y1904D01*
X7139Y1896D01*
Y1875D01*
Y1892D02*
X7165Y1908D01*
X7115Y1931D02*
X7117Y1924D01*
X7122Y1922D01*
X7127D01*
X7132Y1924D01*
X7134Y1929D01*
X7136Y1939D01*
X7139Y1946D01*
X7144Y1950D01*
X7148Y1953D01*
X7155D01*
X7160Y1950D01*
X7163Y1948D01*
X7165Y1941D01*
Y1931D01*
X7163Y1924D01*
X7160Y1922D01*
X7155Y1920D01*
X7148D01*
X7144Y1922D01*
X7139Y1927D01*
X7136Y1934D01*
X7134Y1943D01*
X7132Y1948D01*
X7127Y1950D01*
X7122D01*
X7117Y1948D01*
X7115Y1941D01*
Y1931D01*
Y1969D02*
Y1995D01*
X7134Y1981D01*
Y1988D01*
X7136Y1993D01*
X7139Y1995D01*
X7146Y1997D01*
X7151D01*
X7158Y1995D01*
X7163Y1990D01*
X7165Y1983D01*
Y1976D01*
X7163Y1969D01*
X7160Y1966D01*
X7155Y1964D01*
X7250Y220D02*
X7300D01*
X7250D02*
Y241D01*
X7252Y249D01*
X7255Y251D01*
X7260Y253D01*
X7264D01*
X7269Y251D01*
X7271Y249D01*
X7274Y241D01*
Y220D01*
Y237D02*
X7300Y253D01*
X7250Y276D02*
X7252Y269D01*
X7257Y267D01*
X7262D01*
X7267Y269D01*
X7269Y274D01*
X7271Y284D01*
X7274Y291D01*
X7279Y295D01*
X7283Y298D01*
X7290D01*
X7295Y295D01*
X7298Y293D01*
X7300Y286D01*
Y276D01*
X7298Y269D01*
X7295Y267D01*
X7290Y265D01*
X7283D01*
X7279Y267D01*
X7274Y272D01*
X7271Y279D01*
X7269Y288D01*
X7267Y293D01*
X7262Y295D01*
X7257D01*
X7252Y293D01*
X7250Y286D01*
Y276D01*
Y333D02*
X7283Y309D01*
Y345D01*
X7250Y333D02*
X7300D01*
X447Y1282D02*
X497D01*
X447D02*
Y1303D01*
X449Y1311D01*
X452Y1313D01*
X457Y1315D01*
X461D01*
X466Y1313D01*
X468Y1311D01*
X471Y1303D01*
Y1282D01*
Y1299D02*
X497Y1315D01*
X459Y1329D02*
X457D01*
X452Y1331D01*
X449Y1334D01*
X447Y1338D01*
Y1348D01*
X449Y1353D01*
X452Y1355D01*
X457Y1357D01*
X461D01*
X466Y1355D01*
X473Y1350D01*
X497Y1327D01*
Y1360D01*
X1555Y815D02*
Y765D01*
Y815D02*
X1576D01*
X1584Y813D01*
X1586Y810D01*
X1588Y805D01*
Y801D01*
X1586Y796D01*
X1584Y794D01*
X1576Y791D01*
X1555D01*
X1572D02*
X1588Y765D01*
X1600Y805D02*
X1604Y808D01*
X1611Y815D01*
Y765D01*
X1639Y803D02*
Y805D01*
X1641Y810D01*
X1643Y813D01*
X1648Y815D01*
X1658D01*
X1662Y813D01*
X1665Y810D01*
X1667Y805D01*
Y801D01*
X1665Y796D01*
X1660Y789D01*
X1636Y765D01*
X1669D01*
X1557Y914D02*
Y864D01*
Y914D02*
X1578D01*
X1586Y912D01*
X1588Y909D01*
X1590Y904D01*
Y900D01*
X1588Y895D01*
X1586Y893D01*
X1578Y890D01*
X1557D01*
X1574D02*
X1590Y864D01*
X1602Y904D02*
X1606Y907D01*
X1613Y914D01*
Y864D01*
X1638Y904D02*
X1643Y907D01*
X1650Y914D01*
Y864D01*
X1551Y1015D02*
Y965D01*
Y1015D02*
X1572D01*
X1580Y1013D01*
X1582Y1010D01*
X1584Y1005D01*
Y1001D01*
X1582Y996D01*
X1580Y994D01*
X1572Y991D01*
X1551D01*
X1568D02*
X1584Y965D01*
X1596Y1005D02*
X1600Y1008D01*
X1607Y1015D01*
Y965D01*
X1646Y1015D02*
X1639Y1013D01*
X1635Y1005D01*
X1632Y994D01*
Y986D01*
X1635Y975D01*
X1639Y967D01*
X1646Y965D01*
X1651D01*
X1658Y967D01*
X1663Y975D01*
X1665Y986D01*
Y994D01*
X1663Y1005D01*
X1658Y1013D01*
X1651Y1015D01*
X1646D01*
X355Y2075D02*
Y2025D01*
Y2075D02*
X376D01*
X384Y2073D01*
X386Y2070D01*
X388Y2065D01*
Y2061D01*
X386Y2056D01*
X384Y2054D01*
X376Y2051D01*
X355D01*
X372D02*
X388Y2025D01*
X400Y2065D02*
X404Y2068D01*
X411Y2075D01*
Y2025D01*
X538Y230D02*
X534Y228D01*
X529Y223D01*
X526Y218D01*
X524Y211D01*
Y199D01*
X526Y192D01*
X529Y187D01*
X534Y182D01*
X538Y180D01*
X548D01*
X553Y182D01*
X557Y187D01*
X560Y192D01*
X562Y199D01*
Y211D01*
X560Y218D01*
X557Y223D01*
X553Y228D01*
X548Y230D01*
X538D01*
X545Y190D02*
X560Y175D01*
X574Y220D02*
X579Y223D01*
X586Y230D01*
Y180D01*
X3629Y2068D02*
X3625Y2066D01*
X3620Y2061D01*
X3617Y2056D01*
X3615Y2049D01*
Y2037D01*
X3617Y2030D01*
X3620Y2025D01*
X3625Y2020D01*
X3629Y2018D01*
X3639D01*
X3644Y2020D01*
X3648Y2025D01*
X3651Y2030D01*
X3653Y2037D01*
Y2049D01*
X3651Y2056D01*
X3648Y2061D01*
X3644Y2066D01*
X3639Y2068D01*
X3629D01*
X3636Y2028D02*
X3651Y2013D01*
X3670Y2068D02*
X3696D01*
X3681Y2049D01*
X3689D01*
X3693Y2047D01*
X3696Y2044D01*
X3698Y2037D01*
Y2032D01*
X3696Y2025D01*
X3691Y2020D01*
X3684Y2018D01*
X3677D01*
X3670Y2020D01*
X3667Y2023D01*
X3665Y2028D01*
X4724Y1240D02*
X4720Y1238D01*
X4715Y1233D01*
X4712Y1228D01*
X4710Y1221D01*
Y1209D01*
X4712Y1202D01*
X4715Y1197D01*
X4720Y1192D01*
X4724Y1190D01*
X4734D01*
X4739Y1192D01*
X4743Y1197D01*
X4746Y1202D01*
X4748Y1209D01*
Y1221D01*
X4746Y1228D01*
X4743Y1233D01*
X4739Y1238D01*
X4734Y1240D01*
X4724D01*
X4731Y1200D02*
X4746Y1185D01*
X4788Y1240D02*
X4765D01*
X4762Y1219D01*
X4765Y1221D01*
X4772Y1223D01*
X4779D01*
X4786Y1221D01*
X4791Y1216D01*
X4793Y1209D01*
Y1204D01*
X4791Y1197D01*
X4786Y1192D01*
X4779Y1190D01*
X4772D01*
X4765Y1192D01*
X4762Y1195D01*
X4760Y1200D01*
X4085Y1039D02*
X4087Y1035D01*
X4092Y1030D01*
X4097Y1027D01*
X4104Y1025D01*
X4116D01*
X4123Y1027D01*
X4128Y1030D01*
X4133Y1035D01*
X4135Y1039D01*
Y1049D01*
X4133Y1054D01*
X4128Y1058D01*
X4123Y1061D01*
X4116Y1063D01*
X4104D01*
X4097Y1061D01*
X4092Y1058D01*
X4087Y1054D01*
X4085Y1049D01*
Y1039D01*
X4125Y1046D02*
X4140Y1061D01*
X4085Y1099D02*
X4118Y1075D01*
Y1110D01*
X4085Y1099D02*
X4135D01*
X7054Y1318D02*
X7049Y1315D01*
X7044Y1311D01*
X7042Y1306D01*
X7039Y1299D01*
Y1287D01*
X7042Y1280D01*
X7044Y1275D01*
X7049Y1270D01*
X7054Y1268D01*
X7063D01*
X7068Y1270D01*
X7073Y1275D01*
X7075Y1280D01*
X7077Y1287D01*
Y1299D01*
X7075Y1306D01*
X7073Y1311D01*
X7068Y1315D01*
X7063Y1318D01*
X7054D01*
X7061Y1277D02*
X7075Y1263D01*
X7089Y1308D02*
X7094Y1311D01*
X7101Y1318D01*
Y1268D01*
X7140Y1318D02*
X7133Y1315D01*
X7128Y1308D01*
X7126Y1296D01*
Y1289D01*
X7128Y1277D01*
X7133Y1270D01*
X7140Y1268D01*
X7145D01*
X7152Y1270D01*
X7157Y1277D01*
X7159Y1289D01*
Y1296D01*
X7157Y1308D01*
X7152Y1315D01*
X7145Y1318D01*
X7140D01*
X7723Y973D02*
X7719Y971D01*
X7714Y966D01*
X7711Y961D01*
X7709Y954D01*
Y942D01*
X7711Y935D01*
X7714Y930D01*
X7719Y925D01*
X7723Y923D01*
X7733D01*
X7738Y925D01*
X7742Y930D01*
X7745Y935D01*
X7747Y942D01*
Y954D01*
X7745Y961D01*
X7742Y966D01*
X7738Y971D01*
X7733Y973D01*
X7723D01*
X7730Y933D02*
X7745Y918D01*
X7759Y963D02*
X7764Y966D01*
X7771Y973D01*
Y923D01*
X7800Y973D02*
X7826D01*
X7812Y954D01*
X7819D01*
X7824Y952D01*
X7826Y949D01*
X7829Y942D01*
Y937D01*
X7826Y930D01*
X7822Y925D01*
X7814Y923D01*
X7807D01*
X7800Y925D01*
X7798Y928D01*
X7795Y933D01*
X7739Y1331D02*
X7735Y1329D01*
X7730Y1324D01*
X7727Y1319D01*
X7725Y1312D01*
Y1300D01*
X7727Y1293D01*
X7730Y1288D01*
X7735Y1283D01*
X7739Y1281D01*
X7749D01*
X7754Y1283D01*
X7758Y1288D01*
X7761Y1293D01*
X7763Y1300D01*
Y1312D01*
X7761Y1319D01*
X7758Y1324D01*
X7754Y1329D01*
X7749Y1331D01*
X7739D01*
X7746Y1291D02*
X7761Y1276D01*
X7775Y1321D02*
X7780Y1324D01*
X7787Y1331D01*
Y1281D01*
X7814Y1319D02*
Y1321D01*
X7816Y1326D01*
X7819Y1329D01*
X7823Y1331D01*
X7833D01*
X7838Y1329D01*
X7840Y1326D01*
X7842Y1321D01*
Y1317D01*
X7840Y1312D01*
X7835Y1305D01*
X7811Y1281D01*
X7845D01*
X6631Y955D02*
X6627Y953D01*
X6622Y948D01*
X6619Y943D01*
X6617Y936D01*
Y924D01*
X6619Y917D01*
X6622Y912D01*
X6627Y907D01*
X6631Y905D01*
X6641D01*
X6646Y907D01*
X6650Y912D01*
X6653Y917D01*
X6655Y924D01*
Y936D01*
X6653Y943D01*
X6650Y948D01*
X6646Y953D01*
X6641Y955D01*
X6631D01*
X6638Y915D02*
X6653Y900D01*
X6700Y955D02*
X6676Y905D01*
X6667Y955D02*
X6700D01*
X6264Y1525D02*
X6260Y1523D01*
X6255Y1518D01*
X6252Y1513D01*
X6250Y1506D01*
Y1494D01*
X6252Y1487D01*
X6255Y1482D01*
X6260Y1477D01*
X6264Y1475D01*
X6274D01*
X6279Y1477D01*
X6283Y1482D01*
X6286Y1487D01*
X6288Y1494D01*
Y1506D01*
X6286Y1513D01*
X6283Y1518D01*
X6279Y1523D01*
X6274Y1525D01*
X6264D01*
X6271Y1485D02*
X6286Y1470D01*
X6328Y1518D02*
X6326Y1523D01*
X6319Y1525D01*
X6314D01*
X6307Y1523D01*
X6302Y1515D01*
X6300Y1504D01*
Y1492D01*
X6302Y1482D01*
X6307Y1477D01*
X6314Y1475D01*
X6316D01*
X6324Y1477D01*
X6328Y1482D01*
X6331Y1489D01*
Y1492D01*
X6328Y1499D01*
X6324Y1504D01*
X6316Y1506D01*
X6314D01*
X6307Y1504D01*
X6302Y1499D01*
X6300Y1492D01*
X6987Y961D02*
X6983Y959D01*
X6978Y954D01*
X6975Y949D01*
X6973Y942D01*
Y930D01*
X6975Y923D01*
X6978Y918D01*
X6983Y913D01*
X6987Y911D01*
X6997D01*
X7002Y913D01*
X7006Y918D01*
X7009Y923D01*
X7011Y930D01*
Y942D01*
X7009Y949D01*
X7006Y954D01*
X7002Y959D01*
X6997Y961D01*
X6987D01*
X6994Y921D02*
X7009Y906D01*
X7054Y944D02*
X7051Y937D01*
X7047Y932D01*
X7039Y930D01*
X7037D01*
X7030Y932D01*
X7025Y937D01*
X7023Y944D01*
Y947D01*
X7025Y954D01*
X7030Y959D01*
X7037Y961D01*
X7039D01*
X7047Y959D01*
X7051Y954D01*
X7054Y944D01*
Y932D01*
X7051Y921D01*
X7047Y913D01*
X7039Y911D01*
X7035D01*
X7028Y913D01*
X7025Y918D01*
X6789Y1314D02*
X6785Y1311D01*
X6780Y1307D01*
X6777Y1302D01*
X6775Y1295D01*
Y1283D01*
X6777Y1276D01*
X6780Y1271D01*
X6785Y1266D01*
X6789Y1264D01*
X6799D01*
X6804Y1266D01*
X6808Y1271D01*
X6811Y1276D01*
X6813Y1283D01*
Y1295D01*
X6811Y1302D01*
X6808Y1307D01*
X6804Y1311D01*
X6799Y1314D01*
X6789D01*
X6796Y1273D02*
X6811Y1259D01*
X6837Y1314D02*
X6830Y1311D01*
X6827Y1307D01*
Y1302D01*
X6830Y1297D01*
X6834Y1295D01*
X6844Y1292D01*
X6851Y1290D01*
X6856Y1285D01*
X6858Y1280D01*
Y1273D01*
X6856Y1269D01*
X6853Y1266D01*
X6846Y1264D01*
X6837D01*
X6830Y1266D01*
X6827Y1269D01*
X6825Y1273D01*
Y1280D01*
X6827Y1285D01*
X6832Y1290D01*
X6839Y1292D01*
X6849Y1295D01*
X6853Y1297D01*
X6856Y1302D01*
Y1307D01*
X6853Y1311D01*
X6846Y1314D01*
X6837D01*
X7361Y973D02*
X7357Y971D01*
X7352Y966D01*
X7349Y961D01*
X7347Y954D01*
Y942D01*
X7349Y935D01*
X7352Y930D01*
X7357Y925D01*
X7361Y923D01*
X7371D01*
X7376Y925D01*
X7380Y930D01*
X7383Y935D01*
X7385Y942D01*
Y954D01*
X7383Y961D01*
X7380Y966D01*
X7376Y971D01*
X7371Y973D01*
X7361D01*
X7368Y933D02*
X7383Y918D01*
X7397Y963D02*
X7402Y966D01*
X7409Y973D01*
Y923D01*
X7433Y963D02*
X7438Y966D01*
X7445Y973D01*
Y923D01*
X1685Y1149D02*
X1687Y1145D01*
X1692Y1140D01*
X1697Y1137D01*
X1704Y1135D01*
X1716D01*
X1723Y1137D01*
X1728Y1140D01*
X1733Y1145D01*
X1735Y1149D01*
Y1159D01*
X1733Y1164D01*
X1728Y1168D01*
X1723Y1171D01*
X1716Y1173D01*
X1704D01*
X1697Y1171D01*
X1692Y1168D01*
X1687Y1164D01*
X1685Y1159D01*
Y1149D01*
X1725Y1156D02*
X1740Y1171D01*
X1697Y1187D02*
X1695D01*
X1690Y1190D01*
X1687Y1192D01*
X1685Y1197D01*
Y1206D01*
X1687Y1211D01*
X1690Y1213D01*
X1695Y1216D01*
X1699D01*
X1704Y1213D01*
X1711Y1209D01*
X1735Y1185D01*
Y1218D01*
X2985Y538D02*
X3035D01*
Y567D01*
X2995Y572D02*
X2992Y577D01*
X2985Y584D01*
X3035D01*
X1849Y715D02*
Y677D01*
X1846Y670D01*
X1844Y667D01*
X1839Y665D01*
X1835D01*
X1830Y667D01*
X1827Y670D01*
X1825Y677D01*
Y682D01*
X1885Y715D02*
X1862Y682D01*
X1897D01*
X1885Y715D02*
Y665D01*
X93Y975D02*
Y937D01*
X91Y929D01*
X89Y927D01*
X84Y925D01*
X79D01*
X74Y927D01*
X72Y929D01*
X70Y937D01*
Y941D01*
X111Y975D02*
X137D01*
X123Y956D01*
X130D01*
X135Y953D01*
X137Y951D01*
X140Y944D01*
Y939D01*
X137Y932D01*
X132Y927D01*
X125Y925D01*
X118D01*
X111Y927D01*
X109Y929D01*
X106Y934D01*
X120Y2048D02*
Y2009D01*
X118Y2002D01*
X115Y2000D01*
X111Y1998D01*
X106D01*
X101Y2000D01*
X99Y2002D01*
X96Y2009D01*
Y2014D01*
X133Y2038D02*
X138Y2040D01*
X145Y2048D01*
Y1998D01*
X8105Y1937D02*
Y1899D01*
X8102Y1892D01*
X8100Y1889D01*
X8095Y1887D01*
X8091D01*
X8086Y1889D01*
X8083Y1892D01*
X8081Y1899D01*
Y1904D01*
X8146Y1937D02*
X8122D01*
X8120Y1916D01*
X8122Y1918D01*
X8130Y1920D01*
X8137D01*
X8144Y1918D01*
X8149Y1913D01*
X8151Y1906D01*
Y1901D01*
X8149Y1894D01*
X8144Y1889D01*
X8137Y1887D01*
X8130D01*
X8122Y1889D01*
X8120Y1892D01*
X8118Y1897D01*
X4375Y265D02*
X4425D01*
X4375D02*
Y282D01*
X4377Y289D01*
X4382Y294D01*
X4387Y296D01*
X4394Y298D01*
X4406D01*
X4413Y296D01*
X4418Y294D01*
X4423Y289D01*
X4425Y282D01*
Y265D01*
X4375Y343D02*
X4425Y319D01*
X4375Y310D02*
Y343D01*
X4730Y785D02*
Y735D01*
Y785D02*
X4747D01*
X4754Y783D01*
X4759Y778D01*
X4761Y773D01*
X4763Y766D01*
Y754D01*
X4761Y747D01*
X4759Y742D01*
X4754Y737D01*
X4747Y735D01*
X4730D01*
X4786Y785D02*
X4779Y783D01*
X4777Y778D01*
Y773D01*
X4779Y768D01*
X4784Y766D01*
X4794Y764D01*
X4801Y761D01*
X4805Y756D01*
X4808Y752D01*
Y745D01*
X4805Y740D01*
X4803Y737D01*
X4796Y735D01*
X4786D01*
X4779Y737D01*
X4777Y740D01*
X4775Y745D01*
Y752D01*
X4777Y756D01*
X4782Y761D01*
X4789Y764D01*
X4798Y766D01*
X4803Y768D01*
X4805Y773D01*
Y778D01*
X4803Y783D01*
X4796Y785D01*
X4786D01*
X6187Y1562D02*
X6237D01*
X6187D02*
Y1579D01*
X6189Y1586D01*
X6194Y1591D01*
X6199Y1593D01*
X6206Y1595D01*
X6218D01*
X6225Y1593D01*
X6230Y1591D01*
X6235Y1586D01*
X6237Y1579D01*
Y1562D01*
X6197Y1607D02*
X6194Y1611D01*
X6187Y1618D01*
X6237D01*
X6197Y1643D02*
X6194Y1648D01*
X6187Y1655D01*
X6237D01*
X6200Y580D02*
Y530D01*
Y580D02*
X6217D01*
X6224Y578D01*
X6229Y573D01*
X6231Y568D01*
X6233Y561D01*
Y549D01*
X6231Y542D01*
X6229Y537D01*
X6224Y532D01*
X6217Y530D01*
X6200D01*
X6245Y570D02*
X6249Y573D01*
X6256Y580D01*
Y530D01*
X6284Y568D02*
Y570D01*
X6286Y575D01*
X6288Y578D01*
X6293Y580D01*
X6303D01*
X6307Y578D01*
X6310Y575D01*
X6312Y570D01*
Y566D01*
X6310Y561D01*
X6305Y554D01*
X6281Y530D01*
X6314D01*
X5370Y1590D02*
X5420D01*
X5370D02*
Y1607D01*
X5372Y1614D01*
X5377Y1619D01*
X5382Y1621D01*
X5389Y1623D01*
X5401D01*
X5408Y1621D01*
X5413Y1619D01*
X5418Y1614D01*
X5420Y1607D01*
Y1590D01*
X5387Y1665D02*
X5394Y1663D01*
X5399Y1658D01*
X5401Y1651D01*
Y1649D01*
X5399Y1642D01*
X5394Y1637D01*
X5387Y1635D01*
X5384D01*
X5377Y1637D01*
X5372Y1642D01*
X5370Y1649D01*
Y1651D01*
X5372Y1658D01*
X5377Y1663D01*
X5387Y1665D01*
X5399D01*
X5410Y1663D01*
X5418Y1658D01*
X5420Y1651D01*
Y1646D01*
X5418Y1639D01*
X5413Y1637D01*
X5443Y468D02*
Y418D01*
Y468D02*
X5460D01*
X5467Y466D01*
X5472Y461D01*
X5474Y456D01*
X5476Y449D01*
Y437D01*
X5474Y430D01*
X5472Y425D01*
X5467Y420D01*
X5460Y418D01*
X5443D01*
X5488Y458D02*
X5492Y461D01*
X5499Y468D01*
Y418D01*
X5538Y468D02*
X5531Y466D01*
X5527Y458D01*
X5524Y447D01*
Y439D01*
X5527Y428D01*
X5531Y420D01*
X5538Y418D01*
X5543D01*
X5550Y420D01*
X5555Y428D01*
X5557Y439D01*
Y447D01*
X5555Y458D01*
X5550Y466D01*
X5543Y468D01*
X5538D01*
X290Y225D02*
X340D01*
X290D02*
Y242D01*
X292Y249D01*
X297Y254D01*
X302Y256D01*
X309Y258D01*
X321D01*
X328Y256D01*
X333Y254D01*
X338Y249D01*
X340Y242D01*
Y225D01*
X300Y270D02*
X297Y274D01*
X290Y281D01*
X340D01*
X3407Y1679D02*
Y1629D01*
Y1679D02*
X3424D01*
X3431Y1677D01*
X3436Y1672D01*
X3438Y1667D01*
X3440Y1660D01*
Y1648D01*
X3438Y1641D01*
X3436Y1636D01*
X3431Y1631D01*
X3424Y1629D01*
X3407D01*
X3480Y1672D02*
X3478Y1677D01*
X3471Y1679D01*
X3466D01*
X3459Y1677D01*
X3454Y1669D01*
X3452Y1658D01*
Y1646D01*
X3454Y1636D01*
X3459Y1631D01*
X3466Y1629D01*
X3468D01*
X3475Y1631D01*
X3480Y1636D01*
X3482Y1643D01*
Y1646D01*
X3480Y1653D01*
X3475Y1658D01*
X3468Y1660D01*
X3466D01*
X3459Y1658D01*
X3454Y1653D01*
X3452Y1646D01*
X3428Y836D02*
X3478D01*
X3428D02*
Y853D01*
X3430Y860D01*
X3435Y865D01*
X3440Y867D01*
X3447Y869D01*
X3459D01*
X3466Y867D01*
X3471Y865D01*
X3476Y860D01*
X3478Y853D01*
Y836D01*
X3428Y909D02*
Y885D01*
X3449Y883D01*
X3447Y885D01*
X3445Y892D01*
Y900D01*
X3447Y907D01*
X3452Y911D01*
X3459Y914D01*
X3464D01*
X3471Y911D01*
X3476Y907D01*
X3478Y900D01*
Y892D01*
X3476Y885D01*
X3473Y883D01*
X3468Y881D01*
X1990Y1394D02*
X1987Y1399D01*
X1983Y1404D01*
X1978Y1406D01*
X1968D01*
X1964Y1404D01*
X1959Y1399D01*
X1956Y1394D01*
X1954Y1387D01*
Y1375D01*
X1956Y1368D01*
X1959Y1363D01*
X1964Y1358D01*
X1968Y1356D01*
X1978D01*
X1983Y1358D01*
X1987Y1363D01*
X1990Y1368D01*
X2004Y1396D02*
X2009Y1399D01*
X2016Y1406D01*
Y1356D01*
X2043Y1394D02*
Y1396D01*
X2045Y1401D01*
X2048Y1404D01*
X2052Y1406D01*
X2062D01*
X2067Y1404D01*
X2069Y1401D01*
X2071Y1396D01*
Y1392D01*
X2069Y1387D01*
X2064Y1380D01*
X2040Y1356D01*
X2074D01*
X2021Y1706D02*
X2018Y1711D01*
X2014Y1716D01*
X2009Y1718D01*
X1999D01*
X1995Y1716D01*
X1990Y1711D01*
X1987Y1706D01*
X1985Y1699D01*
Y1687D01*
X1987Y1680D01*
X1990Y1675D01*
X1995Y1670D01*
X1999Y1668D01*
X2009D01*
X2014Y1670D01*
X2018Y1675D01*
X2021Y1680D01*
X2047Y1718D02*
X2040Y1716D01*
X2037Y1711D01*
Y1706D01*
X2040Y1701D01*
X2044Y1699D01*
X2054Y1697D01*
X2061Y1694D01*
X2066Y1689D01*
X2068Y1685D01*
Y1678D01*
X2066Y1673D01*
X2063Y1670D01*
X2056Y1668D01*
X2047D01*
X2040Y1670D01*
X2037Y1673D01*
X2035Y1678D01*
Y1685D01*
X2037Y1689D01*
X2042Y1694D01*
X2049Y1697D01*
X2059Y1699D01*
X2063Y1701D01*
X2066Y1706D01*
Y1711D01*
X2063Y1716D01*
X2056Y1718D01*
X2047D01*
X2002Y1463D02*
X1999Y1468D01*
X1995Y1473D01*
X1990Y1475D01*
X1980D01*
X1976Y1473D01*
X1971Y1468D01*
X1968Y1463D01*
X1966Y1456D01*
Y1444D01*
X1968Y1437D01*
X1971Y1432D01*
X1976Y1427D01*
X1980Y1425D01*
X1990D01*
X1995Y1427D01*
X1999Y1432D01*
X2002Y1437D01*
X2016Y1465D02*
X2021Y1468D01*
X2028Y1475D01*
Y1425D01*
X2052Y1465D02*
X2057Y1468D01*
X2064Y1475D01*
Y1425D01*
X2019Y1791D02*
X2016Y1796D01*
X2012Y1801D01*
X2007Y1803D01*
X1997D01*
X1993Y1801D01*
X1988Y1796D01*
X1985Y1791D01*
X1983Y1784D01*
Y1772D01*
X1985Y1765D01*
X1988Y1760D01*
X1993Y1755D01*
X1997Y1753D01*
X2007D01*
X2012Y1755D01*
X2016Y1760D01*
X2019Y1765D01*
X2066Y1803D02*
X2042Y1753D01*
X2033Y1803D02*
X2066D01*
X5697Y1301D02*
X5692Y1298D01*
X5687Y1294D01*
X5685Y1289D01*
Y1279D01*
X5687Y1275D01*
X5692Y1270D01*
X5697Y1267D01*
X5704Y1265D01*
X5716D01*
X5723Y1267D01*
X5728Y1270D01*
X5733Y1275D01*
X5735Y1279D01*
Y1289D01*
X5733Y1294D01*
X5728Y1298D01*
X5723Y1301D01*
X5697Y1317D02*
X5695D01*
X5690Y1320D01*
X5687Y1322D01*
X5685Y1327D01*
Y1336D01*
X5687Y1341D01*
X5690Y1343D01*
X5695Y1346D01*
X5699D01*
X5704Y1343D01*
X5711Y1339D01*
X5735Y1315D01*
Y1348D01*
X5702Y1390D02*
X5709Y1388D01*
X5714Y1383D01*
X5716Y1376D01*
Y1374D01*
X5714Y1366D01*
X5709Y1362D01*
X5702Y1359D01*
X5699D01*
X5692Y1362D01*
X5687Y1366D01*
X5685Y1374D01*
Y1376D01*
X5687Y1383D01*
X5692Y1388D01*
X5702Y1390D01*
X5714D01*
X5725Y1388D01*
X5733Y1383D01*
X5735Y1376D01*
Y1371D01*
X5733Y1364D01*
X5728Y1362D01*
X1987Y1534D02*
X1984Y1539D01*
X1980Y1544D01*
X1975Y1546D01*
X1965D01*
X1961Y1544D01*
X1956Y1539D01*
X1953Y1534D01*
X1951Y1527D01*
Y1515D01*
X1953Y1508D01*
X1956Y1503D01*
X1961Y1498D01*
X1965Y1496D01*
X1975D01*
X1980Y1498D01*
X1984Y1503D01*
X1987Y1508D01*
X2001Y1536D02*
X2006Y1539D01*
X2013Y1546D01*
Y1496D01*
X2052Y1546D02*
X2045Y1544D01*
X2040Y1536D01*
X2037Y1525D01*
Y1517D01*
X2040Y1506D01*
X2045Y1498D01*
X2052Y1496D01*
X2056D01*
X2064Y1498D01*
X2068Y1506D01*
X2071Y1517D01*
Y1525D01*
X2068Y1536D01*
X2064Y1544D01*
X2056Y1546D01*
X2052D01*
X2310Y2056D02*
X2305Y2053D01*
X2300Y2049D01*
X2298Y2044D01*
Y2034D01*
X2300Y2030D01*
X2305Y2025D01*
X2310Y2022D01*
X2317Y2020D01*
X2329D01*
X2336Y2022D01*
X2341Y2025D01*
X2346Y2030D01*
X2348Y2034D01*
Y2044D01*
X2346Y2049D01*
X2341Y2053D01*
X2336Y2056D01*
X2308Y2070D02*
X2305Y2075D01*
X2298Y2082D01*
X2348D01*
X2298Y2130D02*
X2331Y2106D01*
Y2142D01*
X2298Y2130D02*
X2348D01*
X5877Y311D02*
X5872Y308D01*
X5867Y304D01*
X5865Y299D01*
Y289D01*
X5867Y285D01*
X5872Y280D01*
X5877Y277D01*
X5884Y275D01*
X5896D01*
X5903Y277D01*
X5908Y280D01*
X5913Y285D01*
X5915Y289D01*
Y299D01*
X5913Y304D01*
X5908Y308D01*
X5903Y311D01*
X5865Y330D02*
Y356D01*
X5884Y341D01*
Y349D01*
X5886Y353D01*
X5889Y356D01*
X5896Y358D01*
X5901D01*
X5908Y356D01*
X5913Y351D01*
X5915Y344D01*
Y337D01*
X5913Y330D01*
X5910Y327D01*
X5905Y325D01*
X5865Y384D02*
X5867Y376D01*
X5875Y372D01*
X5886Y369D01*
X5894D01*
X5905Y372D01*
X5913Y376D01*
X5915Y384D01*
Y388D01*
X5913Y395D01*
X5905Y400D01*
X5894Y403D01*
X5886D01*
X5875Y400D01*
X5867Y395D01*
X5865Y388D01*
Y384D01*
X4552Y306D02*
X4547Y303D01*
X4542Y299D01*
X4540Y294D01*
Y284D01*
X4542Y280D01*
X4547Y275D01*
X4552Y272D01*
X4559Y270D01*
X4571D01*
X4578Y272D01*
X4583Y275D01*
X4588Y280D01*
X4590Y284D01*
Y294D01*
X4588Y299D01*
X4583Y303D01*
X4578Y306D01*
X4552Y322D02*
X4550D01*
X4545Y325D01*
X4542Y327D01*
X4540Y332D01*
Y341D01*
X4542Y346D01*
X4545Y348D01*
X4550Y351D01*
X4554D01*
X4559Y348D01*
X4566Y344D01*
X4590Y320D01*
Y353D01*
X4540Y376D02*
X4542Y369D01*
X4547Y367D01*
X4552D01*
X4557Y369D01*
X4559Y374D01*
X4561Y383D01*
X4564Y390D01*
X4569Y395D01*
X4573Y398D01*
X4580D01*
X4585Y395D01*
X4588Y393D01*
X4590Y386D01*
Y376D01*
X4588Y369D01*
X4585Y367D01*
X4580Y364D01*
X4573D01*
X4569Y367D01*
X4564Y371D01*
X4561Y379D01*
X4559Y388D01*
X4557Y393D01*
X4552Y395D01*
X4547D01*
X4542Y393D01*
X4540Y386D01*
Y376D01*
X2020Y1611D02*
X2017Y1616D01*
X2013Y1621D01*
X2008Y1623D01*
X1998D01*
X1994Y1621D01*
X1989Y1616D01*
X1986Y1611D01*
X1984Y1604D01*
Y1592D01*
X1986Y1585D01*
X1989Y1580D01*
X1994Y1575D01*
X1998Y1573D01*
X2008D01*
X2013Y1575D01*
X2017Y1580D01*
X2020Y1585D01*
X2065Y1606D02*
X2062Y1599D01*
X2058Y1594D01*
X2050Y1592D01*
X2048D01*
X2041Y1594D01*
X2036Y1599D01*
X2034Y1606D01*
Y1609D01*
X2036Y1616D01*
X2041Y1621D01*
X2048Y1623D01*
X2050D01*
X2058Y1621D01*
X2062Y1616D01*
X2065Y1606D01*
Y1594D01*
X2062Y1583D01*
X2058Y1575D01*
X2050Y1573D01*
X2046D01*
X2039Y1575D01*
X2036Y1580D01*
X2382Y2050D02*
X2377Y2047D01*
X2372Y2043D01*
X2370Y2038D01*
Y2028D01*
X2372Y2024D01*
X2377Y2019D01*
X2382Y2016D01*
X2389Y2014D01*
X2401D01*
X2408Y2016D01*
X2413Y2019D01*
X2418Y2024D01*
X2420Y2028D01*
Y2038D01*
X2418Y2043D01*
X2413Y2047D01*
X2408Y2050D01*
X2380Y2064D02*
X2377Y2069D01*
X2370Y2076D01*
X2420D01*
X2370Y2129D02*
Y2105D01*
X2391Y2103D01*
X2389Y2105D01*
X2387Y2112D01*
Y2119D01*
X2389Y2127D01*
X2394Y2131D01*
X2401Y2134D01*
X2406D01*
X2413Y2131D01*
X2418Y2127D01*
X2420Y2119D01*
Y2112D01*
X2418Y2105D01*
X2415Y2103D01*
X2410Y2100D01*
X3759Y2036D02*
X3754Y2033D01*
X3749Y2029D01*
X3747Y2024D01*
Y2014D01*
X3749Y2010D01*
X3754Y2005D01*
X3759Y2002D01*
X3766Y2000D01*
X3778D01*
X3785Y2002D01*
X3790Y2005D01*
X3795Y2010D01*
X3797Y2014D01*
Y2024D01*
X3795Y2029D01*
X3790Y2033D01*
X3785Y2036D01*
X3759Y2052D02*
X3757D01*
X3752Y2055D01*
X3749Y2057D01*
X3747Y2062D01*
Y2071D01*
X3749Y2076D01*
X3752Y2078D01*
X3757Y2081D01*
X3761D01*
X3766Y2078D01*
X3773Y2074D01*
X3797Y2050D01*
Y2083D01*
X3754Y2123D02*
X3749Y2120D01*
X3747Y2113D01*
Y2109D01*
X3749Y2101D01*
X3757Y2097D01*
X3768Y2094D01*
X3780D01*
X3790Y2097D01*
X3795Y2101D01*
X3797Y2109D01*
Y2111D01*
X3795Y2118D01*
X3790Y2123D01*
X3783Y2125D01*
X3780D01*
X3773Y2123D01*
X3768Y2118D01*
X3766Y2111D01*
Y2109D01*
X3768Y2101D01*
X3773Y2097D01*
X3780Y2094D01*
X1716Y1445D02*
X1713Y1450D01*
X1709Y1455D01*
X1704Y1457D01*
X1694D01*
X1690Y1455D01*
X1685Y1450D01*
X1682Y1445D01*
X1680Y1438D01*
Y1426D01*
X1682Y1419D01*
X1685Y1414D01*
X1690Y1409D01*
X1694Y1407D01*
X1704D01*
X1709Y1409D01*
X1713Y1414D01*
X1716Y1419D01*
X1754Y1457D02*
X1730Y1424D01*
X1765D01*
X1754Y1457D02*
Y1407D01*
X1795Y2034D02*
X1792Y2039D01*
X1788Y2044D01*
X1783Y2046D01*
X1773D01*
X1769Y2044D01*
X1764Y2039D01*
X1761Y2034D01*
X1759Y2027D01*
Y2015D01*
X1761Y2008D01*
X1764Y2003D01*
X1769Y1998D01*
X1773Y1996D01*
X1783D01*
X1788Y1998D01*
X1792Y2003D01*
X1795Y2008D01*
X1837Y2046D02*
X1814D01*
X1811Y2025D01*
X1814Y2027D01*
X1821Y2029D01*
X1828D01*
X1835Y2027D01*
X1840Y2022D01*
X1842Y2015D01*
Y2010D01*
X1840Y2003D01*
X1835Y1998D01*
X1828Y1996D01*
X1821D01*
X1814Y1998D01*
X1811Y2001D01*
X1809Y2006D01*
X1993Y1142D02*
X1990Y1147D01*
X1986Y1152D01*
X1981Y1154D01*
X1971D01*
X1967Y1152D01*
X1962Y1147D01*
X1959Y1142D01*
X1957Y1135D01*
Y1123D01*
X1959Y1116D01*
X1962Y1111D01*
X1967Y1106D01*
X1971Y1104D01*
X1981D01*
X1986Y1106D01*
X1990Y1111D01*
X1993Y1116D01*
X2035Y1147D02*
X2033Y1152D01*
X2026Y1154D01*
X2021D01*
X2014Y1152D01*
X2009Y1144D01*
X2007Y1133D01*
Y1121D01*
X2009Y1111D01*
X2014Y1106D01*
X2021Y1104D01*
X2023D01*
X2031Y1106D01*
X2035Y1111D01*
X2038Y1118D01*
Y1121D01*
X2035Y1128D01*
X2031Y1133D01*
X2023Y1135D01*
X2021D01*
X2014Y1133D01*
X2009Y1128D01*
X2007Y1121D01*
X3991Y1154D02*
X3986Y1151D01*
X3981Y1147D01*
X3979Y1142D01*
Y1132D01*
X3981Y1128D01*
X3986Y1123D01*
X3991Y1120D01*
X3998Y1118D01*
X4010D01*
X4017Y1120D01*
X4022Y1123D01*
X4027Y1128D01*
X4029Y1132D01*
Y1142D01*
X4027Y1147D01*
X4022Y1151D01*
X4017Y1154D01*
X3991Y1170D02*
X3989D01*
X3984Y1173D01*
X3981Y1175D01*
X3979Y1180D01*
Y1189D01*
X3981Y1194D01*
X3984Y1196D01*
X3989Y1199D01*
X3993D01*
X3998Y1196D01*
X4005Y1192D01*
X4029Y1168D01*
Y1201D01*
X3979Y1236D02*
X4012Y1212D01*
Y1248D01*
X3979Y1236D02*
X4029D01*
X3283Y259D02*
X3280Y264D01*
X3276Y268D01*
X3271Y271D01*
X3261D01*
X3257Y268D01*
X3252Y264D01*
X3249Y259D01*
X3247Y252D01*
Y240D01*
X3249Y233D01*
X3252Y228D01*
X3257Y223D01*
X3261Y221D01*
X3271D01*
X3276Y223D01*
X3280Y228D01*
X3283Y233D01*
X3299Y259D02*
Y261D01*
X3302Y266D01*
X3304Y268D01*
X3309Y271D01*
X3318D01*
X3323Y268D01*
X3325Y266D01*
X3328Y261D01*
Y256D01*
X3325Y252D01*
X3321Y245D01*
X3297Y221D01*
X3330D01*
X3341Y261D02*
X3346Y264D01*
X3353Y271D01*
Y221D01*
X3907Y779D02*
X3902Y776D01*
X3897Y772D01*
X3895Y767D01*
Y757D01*
X3897Y753D01*
X3902Y748D01*
X3907Y745D01*
X3914Y743D01*
X3926D01*
X3933Y745D01*
X3938Y748D01*
X3943Y753D01*
X3945Y757D01*
Y767D01*
X3943Y772D01*
X3938Y776D01*
X3933Y779D01*
X3907Y795D02*
X3905D01*
X3900Y798D01*
X3897Y800D01*
X3895Y805D01*
Y814D01*
X3897Y819D01*
X3900Y821D01*
X3905Y824D01*
X3909D01*
X3914Y821D01*
X3921Y817D01*
X3945Y793D01*
Y826D01*
X3895Y866D02*
Y842D01*
X3916Y840D01*
X3914Y842D01*
X3912Y849D01*
Y856D01*
X3914Y863D01*
X3919Y868D01*
X3926Y871D01*
X3931D01*
X3938Y868D01*
X3943Y863D01*
X3945Y856D01*
Y849D01*
X3943Y842D01*
X3940Y840D01*
X3935Y837D01*
X2857Y692D02*
X2852Y689D01*
X2847Y685D01*
X2845Y680D01*
Y670D01*
X2847Y666D01*
X2852Y661D01*
X2857Y658D01*
X2864Y656D01*
X2876D01*
X2883Y658D01*
X2888Y661D01*
X2893Y666D01*
X2895Y670D01*
Y680D01*
X2893Y685D01*
X2888Y689D01*
X2883Y692D01*
X2855Y706D02*
X2852Y711D01*
X2845Y718D01*
X2895D01*
X2862Y773D02*
X2869Y771D01*
X2874Y766D01*
X2876Y759D01*
Y757D01*
X2874Y750D01*
X2869Y745D01*
X2862Y742D01*
X2859D01*
X2852Y745D01*
X2847Y750D01*
X2845Y757D01*
Y759D01*
X2847Y766D01*
X2852Y771D01*
X2862Y773D01*
X2874D01*
X2885Y771D01*
X2893Y766D01*
X2895Y759D01*
Y754D01*
X2893Y747D01*
X2888Y745D01*
X4311Y1115D02*
X4306Y1112D01*
X4301Y1108D01*
X4299Y1103D01*
Y1093D01*
X4301Y1089D01*
X4306Y1084D01*
X4311Y1081D01*
X4318Y1079D01*
X4330D01*
X4337Y1081D01*
X4342Y1084D01*
X4347Y1089D01*
X4349Y1093D01*
Y1103D01*
X4347Y1108D01*
X4342Y1112D01*
X4337Y1115D01*
X4311Y1131D02*
X4309D01*
X4304Y1134D01*
X4301Y1136D01*
X4299Y1141D01*
Y1150D01*
X4301Y1155D01*
X4304Y1157D01*
X4309Y1160D01*
X4313D01*
X4318Y1157D01*
X4325Y1153D01*
X4349Y1129D01*
Y1162D01*
X4299Y1207D02*
X4349Y1183D01*
X4299Y1173D02*
Y1207D01*
X1444Y2061D02*
Y2011D01*
Y2061D02*
X1465D01*
X1473Y2059D01*
X1475Y2056D01*
X1477Y2051D01*
Y2047D01*
X1475Y2042D01*
X1473Y2040D01*
X1465Y2037D01*
X1444D01*
X1461D02*
X1477Y2011D01*
X1500Y2061D02*
X1493Y2059D01*
X1491Y2054D01*
Y2049D01*
X1493Y2044D01*
X1498Y2042D01*
X1508Y2040D01*
X1515Y2037D01*
X1519Y2032D01*
X1522Y2028D01*
Y2021D01*
X1519Y2016D01*
X1517Y2013D01*
X1510Y2011D01*
X1500D01*
X1493Y2013D01*
X1491Y2016D01*
X1489Y2021D01*
Y2028D01*
X1491Y2032D01*
X1496Y2037D01*
X1503Y2040D01*
X1512Y2042D01*
X1517Y2044D01*
X1519Y2049D01*
Y2054D01*
X1517Y2059D01*
X1510Y2061D01*
X1500D01*
X1526Y1509D02*
X1576D01*
X1526D02*
Y1530D01*
X1528Y1538D01*
X1531Y1540D01*
X1536Y1542D01*
X1540D01*
X1545Y1540D01*
X1547Y1538D01*
X1550Y1530D01*
Y1509D01*
Y1526D02*
X1576Y1542D01*
X1536Y1554D02*
X1533Y1558D01*
X1526Y1565D01*
X1576D01*
X1526Y1614D02*
X1559Y1590D01*
Y1626D01*
X1526Y1614D02*
X1576D01*
X1593Y1509D02*
X1643D01*
X1593D02*
Y1530D01*
X1595Y1538D01*
X1598Y1540D01*
X1603Y1542D01*
X1607D01*
X1612Y1540D01*
X1614Y1538D01*
X1617Y1530D01*
Y1509D01*
Y1526D02*
X1643Y1542D01*
X1603Y1554D02*
X1600Y1558D01*
X1593Y1565D01*
X1643D01*
X1593Y1619D02*
Y1595D01*
X1614Y1593D01*
X1612Y1595D01*
X1610Y1602D01*
Y1609D01*
X1612Y1616D01*
X1617Y1621D01*
X1624Y1623D01*
X1629D01*
X1636Y1621D01*
X1641Y1616D01*
X1643Y1609D01*
Y1602D01*
X1641Y1595D01*
X1638Y1593D01*
X1633Y1590D01*
X1437Y1512D02*
X1487D01*
X1437D02*
Y1533D01*
X1439Y1541D01*
X1442Y1543D01*
X1447Y1545D01*
X1451D01*
X1456Y1543D01*
X1458Y1541D01*
X1461Y1533D01*
Y1512D01*
Y1529D02*
X1487Y1545D01*
X1454Y1587D02*
X1461Y1585D01*
X1466Y1580D01*
X1468Y1573D01*
Y1571D01*
X1466Y1564D01*
X1461Y1559D01*
X1454Y1557D01*
X1451D01*
X1444Y1559D01*
X1439Y1564D01*
X1437Y1571D01*
Y1573D01*
X1439Y1580D01*
X1444Y1585D01*
X1454Y1587D01*
X1466D01*
X1477Y1585D01*
X1485Y1580D01*
X1487Y1573D01*
Y1568D01*
X1485Y1561D01*
X1480Y1559D01*
X1367Y1193D02*
X1362Y1190D01*
X1357Y1186D01*
X1355Y1181D01*
Y1171D01*
X1357Y1167D01*
X1362Y1162D01*
X1367Y1159D01*
X1374Y1157D01*
X1386D01*
X1393Y1159D01*
X1398Y1162D01*
X1403Y1167D01*
X1405Y1171D01*
Y1181D01*
X1403Y1186D01*
X1398Y1190D01*
X1393Y1193D01*
X1355Y1212D02*
Y1238D01*
X1374Y1223D01*
Y1231D01*
X1376Y1235D01*
X1379Y1238D01*
X1386Y1240D01*
X1391D01*
X1398Y1238D01*
X1403Y1233D01*
X1405Y1226D01*
Y1219D01*
X1403Y1212D01*
X1400Y1209D01*
X1395Y1207D01*
X571Y1448D02*
Y1398D01*
Y1448D02*
X592D01*
X600Y1446D01*
X602Y1443D01*
X604Y1438D01*
Y1434D01*
X602Y1429D01*
X600Y1427D01*
X592Y1424D01*
X571D01*
X588D02*
X604Y1398D01*
X644Y1448D02*
X620D01*
X618Y1427D01*
X620Y1429D01*
X627Y1431D01*
X635D01*
X642Y1429D01*
X646Y1424D01*
X649Y1417D01*
Y1412D01*
X646Y1405D01*
X642Y1400D01*
X635Y1398D01*
X627D01*
X620Y1400D01*
X618Y1403D01*
X616Y1408D01*
X3443Y948D02*
X3493D01*
X3443D02*
Y969D01*
X3445Y977D01*
X3448Y979D01*
X3453Y981D01*
X3457D01*
X3462Y979D01*
X3464Y977D01*
X3467Y969D01*
Y948D01*
Y965D02*
X3493Y981D01*
X3455Y995D02*
X3453D01*
X3448Y997D01*
X3445Y1000D01*
X3443Y1004D01*
Y1014D01*
X3445Y1019D01*
X3448Y1021D01*
X3453Y1023D01*
X3457D01*
X3462Y1021D01*
X3469Y1016D01*
X3493Y993D01*
Y1026D01*
X3443Y1042D02*
Y1068D01*
X3462Y1054D01*
Y1061D01*
X3464Y1066D01*
X3467Y1068D01*
X3474Y1070D01*
X3479D01*
X3486Y1068D01*
X3491Y1063D01*
X3493Y1056D01*
Y1049D01*
X3491Y1042D01*
X3488Y1039D01*
X3483Y1037D01*
X3637Y251D02*
X3632Y248D01*
X3627Y244D01*
X3625Y239D01*
Y229D01*
X3627Y225D01*
X3632Y220D01*
X3637Y217D01*
X3644Y215D01*
X3656D01*
X3663Y217D01*
X3668Y220D01*
X3673Y225D01*
X3675Y229D01*
Y239D01*
X3673Y244D01*
X3668Y248D01*
X3663Y251D01*
X3637Y267D02*
X3635D01*
X3630Y270D01*
X3627Y272D01*
X3625Y277D01*
Y286D01*
X3627Y291D01*
X3630Y293D01*
X3635Y296D01*
X3639D01*
X3644Y293D01*
X3651Y289D01*
X3675Y265D01*
Y298D01*
X3637Y312D02*
X3635D01*
X3630Y314D01*
X3627Y316D01*
X3625Y321D01*
Y331D01*
X3627Y335D01*
X3630Y338D01*
X3635Y340D01*
X3639D01*
X3644Y338D01*
X3651Y333D01*
X3675Y309D01*
Y343D01*
X4476Y1517D02*
X4526D01*
X4476D02*
Y1538D01*
X4479Y1545D01*
X4481Y1548D01*
X4486Y1550D01*
X4491D01*
X4495Y1548D01*
X4498Y1545D01*
X4500Y1538D01*
Y1517D01*
Y1533D02*
X4526Y1550D01*
X4476Y1566D02*
Y1592D01*
X4495Y1578D01*
Y1585D01*
X4498Y1590D01*
X4500Y1592D01*
X4507Y1595D01*
X4512D01*
X4519Y1592D01*
X4524Y1587D01*
X4526Y1580D01*
Y1573D01*
X4524Y1566D01*
X4522Y1564D01*
X4517Y1561D01*
X4476Y1630D02*
X4510Y1606D01*
Y1641D01*
X4476Y1630D02*
X4526D01*
X4371Y1522D02*
X4421D01*
X4371D02*
Y1543D01*
X4374Y1550D01*
X4376Y1553D01*
X4381Y1555D01*
X4386D01*
X4390Y1553D01*
X4393Y1550D01*
X4395Y1543D01*
Y1522D01*
Y1538D02*
X4421Y1555D01*
X4371Y1571D02*
Y1597D01*
X4390Y1583D01*
Y1590D01*
X4393Y1595D01*
X4395Y1597D01*
X4402Y1600D01*
X4407D01*
X4414Y1597D01*
X4419Y1592D01*
X4421Y1585D01*
Y1578D01*
X4419Y1571D01*
X4417Y1569D01*
X4412Y1566D01*
X4371Y1644D02*
X4421Y1620D01*
X4371Y1611D02*
Y1644D01*
X4261Y1527D02*
X4311D01*
X4261D02*
Y1548D01*
X4264Y1555D01*
X4266Y1558D01*
X4271Y1560D01*
X4276D01*
X4280Y1558D01*
X4283Y1555D01*
X4285Y1548D01*
Y1527D01*
Y1543D02*
X4311Y1560D01*
X4261Y1595D02*
X4295Y1571D01*
Y1607D01*
X4261Y1595D02*
X4311D01*
X4261Y1630D02*
X4264Y1623D01*
X4271Y1618D01*
X4283Y1616D01*
X4290D01*
X4302Y1618D01*
X4309Y1623D01*
X4311Y1630D01*
Y1635D01*
X4309Y1642D01*
X4302Y1647D01*
X4290Y1649D01*
X4283D01*
X4271Y1647D01*
X4264Y1642D01*
X4261Y1635D01*
Y1630D01*
X4475Y2020D02*
X4525D01*
X4475D02*
Y2041D01*
X4477Y2049D01*
X4480Y2051D01*
X4485Y2053D01*
X4489D01*
X4494Y2051D01*
X4496Y2049D01*
X4499Y2041D01*
Y2020D01*
Y2037D02*
X4525Y2053D01*
X4475Y2069D02*
Y2095D01*
X4494Y2081D01*
Y2088D01*
X4496Y2093D01*
X4499Y2095D01*
X4506Y2098D01*
X4511D01*
X4518Y2095D01*
X4523Y2091D01*
X4525Y2084D01*
Y2076D01*
X4523Y2069D01*
X4520Y2067D01*
X4515Y2065D01*
X4475Y2114D02*
Y2140D01*
X4494Y2126D01*
Y2133D01*
X4496Y2138D01*
X4499Y2140D01*
X4506Y2142D01*
X4511D01*
X4518Y2140D01*
X4523Y2135D01*
X4525Y2128D01*
Y2121D01*
X4523Y2114D01*
X4520Y2111D01*
X4515Y2109D01*
X4375Y2020D02*
X4425D01*
X4375D02*
Y2041D01*
X4377Y2049D01*
X4380Y2051D01*
X4385Y2053D01*
X4389D01*
X4394Y2051D01*
X4396Y2049D01*
X4399Y2041D01*
Y2020D01*
Y2037D02*
X4425Y2053D01*
X4375Y2069D02*
Y2095D01*
X4394Y2081D01*
Y2088D01*
X4396Y2093D01*
X4399Y2095D01*
X4406Y2098D01*
X4411D01*
X4418Y2095D01*
X4423Y2091D01*
X4425Y2084D01*
Y2076D01*
X4423Y2069D01*
X4420Y2067D01*
X4415Y2065D01*
X4382Y2138D02*
X4377Y2135D01*
X4375Y2128D01*
Y2123D01*
X4377Y2116D01*
X4385Y2111D01*
X4396Y2109D01*
X4408D01*
X4418Y2111D01*
X4423Y2116D01*
X4425Y2123D01*
Y2126D01*
X4423Y2133D01*
X4418Y2138D01*
X4411Y2140D01*
X4408D01*
X4401Y2138D01*
X4396Y2133D01*
X4394Y2126D01*
Y2123D01*
X4396Y2116D01*
X4401Y2111D01*
X4408Y2109D01*
X4270Y2025D02*
X4320D01*
X4270D02*
Y2046D01*
X4272Y2054D01*
X4275Y2056D01*
X4280Y2058D01*
X4284D01*
X4289Y2056D01*
X4291Y2054D01*
X4294Y2046D01*
Y2025D01*
Y2042D02*
X4320Y2058D01*
X4270Y2074D02*
Y2100D01*
X4289Y2086D01*
Y2093D01*
X4291Y2098D01*
X4294Y2100D01*
X4301Y2103D01*
X4306D01*
X4313Y2100D01*
X4318Y2096D01*
X4320Y2089D01*
Y2081D01*
X4318Y2074D01*
X4315Y2072D01*
X4310Y2070D01*
X4287Y2145D02*
X4294Y2143D01*
X4299Y2138D01*
X4301Y2131D01*
Y2128D01*
X4299Y2121D01*
X4294Y2116D01*
X4287Y2114D01*
X4284D01*
X4277Y2116D01*
X4272Y2121D01*
X4270Y2128D01*
Y2131D01*
X4272Y2138D01*
X4277Y2143D01*
X4287Y2145D01*
X4299D01*
X4310Y2143D01*
X4318Y2138D01*
X4320Y2131D01*
Y2126D01*
X4318Y2119D01*
X4313Y2116D01*
X4155Y1525D02*
X4205D01*
X4155D02*
Y1546D01*
X4157Y1554D01*
X4160Y1556D01*
X4165Y1558D01*
X4169D01*
X4174Y1556D01*
X4176Y1554D01*
X4179Y1546D01*
Y1525D01*
Y1542D02*
X4205Y1558D01*
X4155Y1593D02*
X4188Y1570D01*
Y1605D01*
X4155Y1593D02*
X4205D01*
X4155Y1619D02*
Y1645D01*
X4174Y1631D01*
Y1638D01*
X4176Y1643D01*
X4179Y1645D01*
X4186Y1647D01*
X4191D01*
X4198Y1645D01*
X4203Y1640D01*
X4205Y1633D01*
Y1626D01*
X4203Y1619D01*
X4200Y1616D01*
X4195Y1614D01*
X4061Y1522D02*
X4111D01*
X4061D02*
Y1543D01*
X4064Y1550D01*
X4066Y1553D01*
X4071Y1555D01*
X4076D01*
X4080Y1553D01*
X4083Y1550D01*
X4085Y1543D01*
Y1522D01*
Y1538D02*
X4111Y1555D01*
X4061Y1590D02*
X4095Y1566D01*
Y1602D01*
X4061Y1590D02*
X4111D01*
X4078Y1642D02*
X4085Y1639D01*
X4090Y1635D01*
X4092Y1627D01*
Y1625D01*
X4090Y1618D01*
X4085Y1613D01*
X4078Y1611D01*
X4076D01*
X4069Y1613D01*
X4064Y1618D01*
X4061Y1625D01*
Y1627D01*
X4064Y1635D01*
X4069Y1639D01*
X4078Y1642D01*
X4090D01*
X4102Y1639D01*
X4109Y1635D01*
X4111Y1627D01*
Y1623D01*
X4109Y1616D01*
X4104Y1613D01*
X3950Y1520D02*
X4000D01*
X3950D02*
Y1541D01*
X3952Y1549D01*
X3955Y1551D01*
X3960Y1553D01*
X3964D01*
X3969Y1551D01*
X3971Y1549D01*
X3974Y1541D01*
Y1520D01*
Y1537D02*
X4000Y1553D01*
X3950Y1593D02*
Y1569D01*
X3971Y1567D01*
X3969Y1569D01*
X3967Y1576D01*
Y1584D01*
X3969Y1591D01*
X3974Y1595D01*
X3981Y1598D01*
X3986D01*
X3993Y1595D01*
X3998Y1591D01*
X4000Y1584D01*
Y1576D01*
X3998Y1569D01*
X3995Y1567D01*
X3990Y1565D01*
X3950Y1614D02*
Y1640D01*
X3969Y1626D01*
Y1633D01*
X3971Y1638D01*
X3974Y1640D01*
X3981Y1642D01*
X3986D01*
X3993Y1640D01*
X3998Y1635D01*
X4000Y1628D01*
Y1621D01*
X3998Y1614D01*
X3995Y1611D01*
X3990Y1609D01*
X4165Y2025D02*
X4215D01*
X4165D02*
Y2046D01*
X4167Y2054D01*
X4170Y2056D01*
X4175Y2058D01*
X4179D01*
X4184Y2056D01*
X4186Y2054D01*
X4189Y2046D01*
Y2025D01*
Y2042D02*
X4215Y2058D01*
X4165Y2093D02*
X4198Y2070D01*
Y2105D01*
X4165Y2093D02*
X4215D01*
X4177Y2116D02*
X4175D01*
X4170Y2119D01*
X4167Y2121D01*
X4165Y2126D01*
Y2135D01*
X4167Y2140D01*
X4170Y2143D01*
X4175Y2145D01*
X4179D01*
X4184Y2143D01*
X4191Y2138D01*
X4215Y2114D01*
Y2147D01*
X4060Y2020D02*
X4110D01*
X4060D02*
Y2041D01*
X4062Y2049D01*
X4065Y2051D01*
X4070Y2053D01*
X4074D01*
X4079Y2051D01*
X4081Y2049D01*
X4084Y2041D01*
Y2020D01*
Y2037D02*
X4110Y2053D01*
X4060Y2088D02*
X4093Y2065D01*
Y2100D01*
X4060Y2088D02*
X4110D01*
X4060Y2121D02*
X4062Y2114D01*
X4067Y2111D01*
X4072D01*
X4077Y2114D01*
X4079Y2119D01*
X4081Y2128D01*
X4084Y2135D01*
X4089Y2140D01*
X4093Y2142D01*
X4100D01*
X4105Y2140D01*
X4108Y2138D01*
X4110Y2130D01*
Y2121D01*
X4108Y2114D01*
X4105Y2111D01*
X4100Y2109D01*
X4093D01*
X4089Y2111D01*
X4084Y2116D01*
X4081Y2123D01*
X4079Y2133D01*
X4077Y2138D01*
X4072Y2140D01*
X4067D01*
X4062Y2138D01*
X4060Y2130D01*
Y2121D01*
X3950Y2020D02*
X4000D01*
X3950D02*
Y2041D01*
X3952Y2049D01*
X3955Y2051D01*
X3960Y2053D01*
X3964D01*
X3969Y2051D01*
X3971Y2049D01*
X3974Y2041D01*
Y2020D01*
Y2037D02*
X4000Y2053D01*
X3950Y2093D02*
Y2069D01*
X3971Y2067D01*
X3969Y2069D01*
X3967Y2076D01*
Y2084D01*
X3969Y2091D01*
X3974Y2095D01*
X3981Y2098D01*
X3986D01*
X3993Y2095D01*
X3998Y2091D01*
X4000Y2084D01*
Y2076D01*
X3998Y2069D01*
X3995Y2067D01*
X3990Y2065D01*
X3962Y2111D02*
X3960D01*
X3955Y2114D01*
X3952Y2116D01*
X3950Y2121D01*
Y2130D01*
X3952Y2135D01*
X3955Y2138D01*
X3960Y2140D01*
X3964D01*
X3969Y2138D01*
X3976Y2133D01*
X4000Y2109D01*
Y2142D01*
X2672Y2069D02*
X2667Y2067D01*
X2662Y2062D01*
X2660Y2057D01*
Y2048D01*
X2662Y2043D01*
X2667Y2038D01*
X2672Y2036D01*
X2679Y2033D01*
X2691D01*
X2698Y2036D01*
X2703Y2038D01*
X2708Y2043D01*
X2710Y2048D01*
Y2057D01*
X2708Y2062D01*
X2703Y2067D01*
X2698Y2069D01*
X2670Y2083D02*
X2667Y2088D01*
X2660Y2095D01*
X2710D01*
X2660Y2132D02*
X2662Y2124D01*
X2667Y2122D01*
X2672D01*
X2677Y2124D01*
X2679Y2129D01*
X2681Y2139D01*
X2684Y2146D01*
X2689Y2151D01*
X2693Y2153D01*
X2700D01*
X2705Y2151D01*
X2708Y2148D01*
X2710Y2141D01*
Y2132D01*
X2708Y2124D01*
X2705Y2122D01*
X2700Y2120D01*
X2693D01*
X2689Y2122D01*
X2684Y2127D01*
X2681Y2134D01*
X2679Y2143D01*
X2677Y2148D01*
X2672Y2151D01*
X2667D01*
X2662Y2148D01*
X2660Y2141D01*
Y2132D01*
X2538Y2057D02*
X2533Y2054D01*
X2528Y2050D01*
X2526Y2045D01*
Y2035D01*
X2528Y2031D01*
X2533Y2026D01*
X2538Y2023D01*
X2545Y2021D01*
X2557D01*
X2564Y2023D01*
X2569Y2026D01*
X2574Y2031D01*
X2576Y2035D01*
Y2045D01*
X2574Y2050D01*
X2569Y2054D01*
X2564Y2057D01*
X2536Y2071D02*
X2533Y2076D01*
X2526Y2083D01*
X2576D01*
X2526Y2141D02*
X2576Y2117D01*
X2526Y2107D02*
Y2141D01*
X1983Y1320D02*
X1980Y1325D01*
X1976Y1330D01*
X1971Y1332D01*
X1961D01*
X1957Y1330D01*
X1952Y1325D01*
X1949Y1320D01*
X1947Y1313D01*
Y1301D01*
X1949Y1294D01*
X1952Y1289D01*
X1957Y1284D01*
X1961Y1282D01*
X1971D01*
X1976Y1284D01*
X1980Y1289D01*
X1983Y1294D01*
X1997Y1322D02*
X2002Y1325D01*
X2009Y1332D01*
Y1282D01*
X2038Y1332D02*
X2064D01*
X2050Y1313D01*
X2057D01*
X2062Y1311D01*
X2064Y1308D01*
X2067Y1301D01*
Y1296D01*
X2064Y1289D01*
X2060Y1284D01*
X2052Y1282D01*
X2045D01*
X2038Y1284D01*
X2036Y1287D01*
X2033Y1292D01*
X1498Y242D02*
X1548D01*
X1498D02*
Y263D01*
X1500Y271D01*
X1503Y273D01*
X1508Y275D01*
X1512D01*
X1517Y273D01*
X1519Y271D01*
X1522Y263D01*
Y242D01*
Y259D02*
X1548Y275D01*
X1508Y287D02*
X1505Y291D01*
X1498Y298D01*
X1548D01*
X1498Y328D02*
Y354D01*
X1517Y340D01*
Y347D01*
X1519Y352D01*
X1522Y354D01*
X1529Y356D01*
X1534D01*
X1541Y354D01*
X1546Y349D01*
X1548Y342D01*
Y335D01*
X1546Y328D01*
X1543Y326D01*
X1538Y323D01*
X3876Y1522D02*
X3926D01*
X3876D02*
Y1544D01*
X3879Y1551D01*
X3881Y1553D01*
X3886Y1556D01*
X3891D01*
X3895Y1553D01*
X3898Y1551D01*
X3900Y1544D01*
Y1522D01*
Y1539D02*
X3926Y1556D01*
X3876Y1572D02*
Y1598D01*
X3895Y1583D01*
Y1591D01*
X3898Y1595D01*
X3900Y1598D01*
X3907Y1600D01*
X3912D01*
X3919Y1598D01*
X3924Y1593D01*
X3926Y1586D01*
Y1579D01*
X3924Y1572D01*
X3922Y1569D01*
X3917Y1567D01*
X3888Y1614D02*
X3886D01*
X3881Y1616D01*
X3879Y1618D01*
X3876Y1623D01*
Y1633D01*
X3879Y1638D01*
X3881Y1640D01*
X3886Y1642D01*
X3891D01*
X3895Y1640D01*
X3903Y1635D01*
X3926Y1611D01*
Y1645D01*
X3869Y2020D02*
X3919D01*
X3869D02*
Y2041D01*
X3871Y2049D01*
X3874Y2051D01*
X3879Y2053D01*
X3883D01*
X3888Y2051D01*
X3890Y2049D01*
X3893Y2041D01*
Y2020D01*
Y2037D02*
X3919Y2053D01*
X3869Y2069D02*
Y2095D01*
X3888Y2081D01*
Y2088D01*
X3890Y2093D01*
X3893Y2095D01*
X3900Y2098D01*
X3905D01*
X3912Y2095D01*
X3917Y2091D01*
X3919Y2084D01*
Y2076D01*
X3917Y2069D01*
X3914Y2067D01*
X3909Y2065D01*
X3879Y2109D02*
X3876Y2114D01*
X3869Y2121D01*
X3919D01*
X2454Y2056D02*
X2449Y2053D01*
X2444Y2049D01*
X2442Y2044D01*
Y2034D01*
X2444Y2030D01*
X2449Y2025D01*
X2454Y2022D01*
X2461Y2020D01*
X2473D01*
X2480Y2022D01*
X2485Y2025D01*
X2490Y2030D01*
X2492Y2034D01*
Y2044D01*
X2490Y2049D01*
X2485Y2053D01*
X2480Y2056D01*
X2452Y2070D02*
X2449Y2075D01*
X2442Y2082D01*
X2492D01*
X2449Y2135D02*
X2444Y2133D01*
X2442Y2125D01*
Y2121D01*
X2444Y2114D01*
X2452Y2109D01*
X2463Y2106D01*
X2475D01*
X2485Y2109D01*
X2490Y2114D01*
X2492Y2121D01*
Y2123D01*
X2490Y2130D01*
X2485Y2135D01*
X2478Y2137D01*
X2475D01*
X2468Y2135D01*
X2463Y2130D01*
X2461Y2123D01*
Y2121D01*
X2463Y2114D01*
X2468Y2109D01*
X2475Y2106D01*
X5080Y860D02*
X5130D01*
X5080D02*
Y881D01*
X5082Y889D01*
X5085Y891D01*
X5090Y893D01*
X5094D01*
X5099Y891D01*
X5101Y889D01*
X5104Y881D01*
Y860D01*
Y877D02*
X5130Y893D01*
X5080Y933D02*
Y909D01*
X5101Y907D01*
X5099Y909D01*
X5097Y916D01*
Y924D01*
X5099Y931D01*
X5104Y935D01*
X5111Y938D01*
X5116D01*
X5123Y935D01*
X5128Y931D01*
X5130Y924D01*
Y916D01*
X5128Y909D01*
X5125Y907D01*
X5120Y905D01*
X5080Y973D02*
X5113Y949D01*
Y985D01*
X5080Y973D02*
X5130D01*
X7417Y1342D02*
X7412Y1340D01*
X7407Y1335D01*
X7405Y1330D01*
X7403Y1323D01*
Y1311D01*
X7405Y1304D01*
X7407Y1299D01*
X7412Y1295D01*
X7417Y1292D01*
X7426D01*
X7431Y1295D01*
X7436Y1299D01*
X7438Y1304D01*
X7441Y1311D01*
Y1323D01*
X7438Y1330D01*
X7436Y1335D01*
X7431Y1340D01*
X7426Y1342D01*
X7417D01*
X7424Y1302D02*
X7438Y1288D01*
X7452Y1333D02*
X7457Y1335D01*
X7464Y1342D01*
Y1292D01*
X7513Y1342D02*
X7489Y1309D01*
X7525D01*
X7513Y1342D02*
Y1292D01*
X1311Y546D02*
X1361D01*
X1311D02*
Y567D01*
X1313Y575D01*
X1316Y577D01*
X1321Y579D01*
X1325D01*
X1330Y577D01*
X1332Y575D01*
X1335Y567D01*
Y546D01*
Y563D02*
X1361Y579D01*
X1328Y621D02*
X1335Y619D01*
X1340Y614D01*
X1342Y607D01*
Y605D01*
X1340Y598D01*
X1335Y593D01*
X1328Y591D01*
X1325D01*
X1318Y593D01*
X1313Y598D01*
X1311Y605D01*
Y607D01*
X1313Y614D01*
X1318Y619D01*
X1328Y621D01*
X1340D01*
X1351Y619D01*
X1359Y614D01*
X1361Y607D01*
Y602D01*
X1359Y595D01*
X1354Y593D01*
X1318Y664D02*
X1313Y661D01*
X1311Y654D01*
Y649D01*
X1313Y642D01*
X1321Y637D01*
X1332Y635D01*
X1344D01*
X1354Y637D01*
X1359Y642D01*
X1361Y649D01*
Y652D01*
X1359Y659D01*
X1354Y664D01*
X1347Y666D01*
X1344D01*
X1337Y664D01*
X1332Y659D01*
X1330Y652D01*
Y649D01*
X1332Y642D01*
X1337Y637D01*
X1344Y635D01*
X2811Y396D02*
Y346D01*
Y396D02*
X2832D01*
X2840Y394D01*
X2842Y391D01*
X2844Y386D01*
Y382D01*
X2842Y377D01*
X2840Y375D01*
X2832Y372D01*
X2811D01*
X2828D02*
X2844Y346D01*
X2886Y379D02*
X2884Y372D01*
X2879Y367D01*
X2872Y365D01*
X2870D01*
X2863Y367D01*
X2858Y372D01*
X2856Y379D01*
Y382D01*
X2858Y389D01*
X2863Y394D01*
X2870Y396D01*
X2872D01*
X2879Y394D01*
X2884Y389D01*
X2886Y379D01*
Y367D01*
X2884Y356D01*
X2879Y348D01*
X2872Y346D01*
X2867D01*
X2860Y348D01*
X2858Y353D01*
X2933Y396D02*
X2910Y346D01*
X2900Y396D02*
X2933D01*
X4655Y2015D02*
X4705D01*
X4655D02*
Y2036D01*
X4657Y2044D01*
X4660Y2046D01*
X4665Y2048D01*
X4669D01*
X4674Y2046D01*
X4676Y2044D01*
X4679Y2036D01*
Y2015D01*
Y2032D02*
X4705Y2048D01*
X4672Y2090D02*
X4679Y2088D01*
X4684Y2083D01*
X4686Y2076D01*
Y2074D01*
X4684Y2067D01*
X4679Y2062D01*
X4672Y2060D01*
X4669D01*
X4662Y2062D01*
X4657Y2067D01*
X4655Y2074D01*
Y2076D01*
X4657Y2083D01*
X4662Y2088D01*
X4672Y2090D01*
X4684D01*
X4695Y2088D01*
X4703Y2083D01*
X4705Y2076D01*
Y2071D01*
X4703Y2064D01*
X4698Y2062D01*
X4655Y2116D02*
X4657Y2109D01*
X4662Y2106D01*
X4667D01*
X4672Y2109D01*
X4674Y2114D01*
X4676Y2123D01*
X4679Y2130D01*
X4684Y2135D01*
X4688Y2137D01*
X4695D01*
X4700Y2135D01*
X4703Y2133D01*
X4705Y2125D01*
Y2116D01*
X4703Y2109D01*
X4700Y2106D01*
X4695Y2104D01*
X4688D01*
X4684Y2106D01*
X4679Y2111D01*
X4676Y2118D01*
X4674Y2128D01*
X4672Y2133D01*
X4667Y2135D01*
X4662D01*
X4657Y2133D01*
X4655Y2125D01*
Y2116D01*
X5372Y741D02*
X5367Y738D01*
X5362Y734D01*
X5360Y729D01*
Y719D01*
X5362Y715D01*
X5367Y710D01*
X5372Y707D01*
X5379Y705D01*
X5391D01*
X5398Y707D01*
X5403Y710D01*
X5408Y715D01*
X5410Y719D01*
Y729D01*
X5408Y734D01*
X5403Y738D01*
X5398Y741D01*
X5360Y779D02*
X5393Y755D01*
Y790D01*
X5360Y779D02*
X5410D01*
X5360Y833D02*
X5410Y809D01*
X5360Y799D02*
Y833D01*
X5132Y611D02*
X5127Y608D01*
X5122Y604D01*
X5120Y599D01*
Y589D01*
X5122Y585D01*
X5127Y580D01*
X5132Y577D01*
X5139Y575D01*
X5151D01*
X5158Y577D01*
X5163Y580D01*
X5168Y585D01*
X5170Y589D01*
Y599D01*
X5168Y604D01*
X5163Y608D01*
X5158Y611D01*
X5120Y649D02*
X5153Y625D01*
Y660D01*
X5120Y649D02*
X5170D01*
X5137Y700D02*
X5144Y698D01*
X5149Y693D01*
X5151Y686D01*
Y684D01*
X5149Y676D01*
X5144Y672D01*
X5137Y669D01*
X5134D01*
X5127Y672D01*
X5122Y676D01*
X5120Y684D01*
Y686D01*
X5122Y693D01*
X5127Y698D01*
X5137Y700D01*
X5149D01*
X5160Y698D01*
X5168Y693D01*
X5170Y686D01*
Y681D01*
X5168Y674D01*
X5163Y672D01*
X5202Y1146D02*
X5197Y1143D01*
X5192Y1139D01*
X5190Y1134D01*
Y1124D01*
X5192Y1120D01*
X5197Y1115D01*
X5202Y1112D01*
X5209Y1110D01*
X5221D01*
X5228Y1112D01*
X5233Y1115D01*
X5238Y1120D01*
X5240Y1124D01*
Y1134D01*
X5238Y1139D01*
X5233Y1143D01*
X5228Y1146D01*
X5190Y1188D02*
Y1165D01*
X5211Y1162D01*
X5209Y1165D01*
X5207Y1172D01*
Y1179D01*
X5209Y1186D01*
X5214Y1191D01*
X5221Y1193D01*
X5226D01*
X5233Y1191D01*
X5238Y1186D01*
X5240Y1179D01*
Y1172D01*
X5238Y1165D01*
X5235Y1162D01*
X5230Y1160D01*
X5202Y1207D02*
X5200D01*
X5195Y1209D01*
X5192Y1211D01*
X5190Y1216D01*
Y1226D01*
X5192Y1230D01*
X5195Y1233D01*
X5200Y1235D01*
X5204D01*
X5209Y1233D01*
X5216Y1228D01*
X5240Y1204D01*
Y1238D01*
X5241Y1796D02*
X5236Y1793D01*
X5231Y1789D01*
X5229Y1784D01*
Y1774D01*
X5231Y1770D01*
X5236Y1765D01*
X5241Y1762D01*
X5248Y1760D01*
X5260D01*
X5267Y1762D01*
X5272Y1765D01*
X5277Y1770D01*
X5279Y1774D01*
Y1784D01*
X5277Y1789D01*
X5272Y1793D01*
X5267Y1796D01*
X5229Y1838D02*
Y1815D01*
X5250Y1812D01*
X5248Y1815D01*
X5246Y1822D01*
Y1829D01*
X5248Y1836D01*
X5253Y1841D01*
X5260Y1843D01*
X5265D01*
X5272Y1841D01*
X5277Y1836D01*
X5279Y1829D01*
Y1822D01*
X5277Y1815D01*
X5274Y1812D01*
X5269Y1810D01*
X5229Y1859D02*
Y1885D01*
X5248Y1871D01*
Y1878D01*
X5250Y1883D01*
X5253Y1885D01*
X5260Y1888D01*
X5265D01*
X5272Y1885D01*
X5277Y1880D01*
X5279Y1873D01*
Y1866D01*
X5277Y1859D01*
X5274Y1857D01*
X5269Y1854D01*
X4797Y1527D02*
X4794Y1532D01*
X4790Y1537D01*
X4785Y1539D01*
X4775D01*
X4771Y1537D01*
X4766Y1532D01*
X4763Y1527D01*
X4761Y1520D01*
Y1508D01*
X4763Y1501D01*
X4766Y1496D01*
X4771Y1491D01*
X4775Y1489D01*
X4785D01*
X4790Y1491D01*
X4794Y1496D01*
X4797Y1501D01*
X4839Y1539D02*
X4816D01*
X4813Y1518D01*
X4816Y1520D01*
X4823Y1522D01*
X4830D01*
X4837Y1520D01*
X4842Y1515D01*
X4844Y1508D01*
Y1503D01*
X4842Y1496D01*
X4837Y1491D01*
X4830Y1489D01*
X4823D01*
X4816Y1491D01*
X4813Y1494D01*
X4811Y1499D01*
X4884Y1539D02*
X4860D01*
X4858Y1518D01*
X4860Y1520D01*
X4867Y1522D01*
X4874D01*
X4881Y1520D01*
X4886Y1515D01*
X4889Y1508D01*
Y1503D01*
X4886Y1496D01*
X4881Y1491D01*
X4874Y1489D01*
X4867D01*
X4860Y1491D01*
X4858Y1494D01*
X4855Y1499D01*
X3543Y2054D02*
X3538Y2051D01*
X3533Y2047D01*
X3531Y2042D01*
Y2032D01*
X3533Y2028D01*
X3538Y2023D01*
X3543Y2020D01*
X3550Y2018D01*
X3562D01*
X3569Y2020D01*
X3574Y2023D01*
X3579Y2028D01*
X3581Y2032D01*
Y2042D01*
X3579Y2047D01*
X3574Y2051D01*
X3569Y2054D01*
X3531Y2096D02*
Y2073D01*
X3552Y2070D01*
X3550Y2073D01*
X3548Y2080D01*
Y2087D01*
X3550Y2094D01*
X3555Y2099D01*
X3562Y2101D01*
X3567D01*
X3574Y2099D01*
X3579Y2094D01*
X3581Y2087D01*
Y2080D01*
X3579Y2073D01*
X3576Y2070D01*
X3571Y2068D01*
X3531Y2146D02*
X3581Y2122D01*
X3531Y2112D02*
Y2146D01*
X2519Y313D02*
Y263D01*
Y313D02*
X2536D01*
X2543Y311D01*
X2548Y306D01*
X2550Y301D01*
X2552Y294D01*
Y282D01*
X2550Y275D01*
X2548Y270D01*
X2543Y265D01*
X2536Y263D01*
X2519D01*
X2566Y301D02*
Y303D01*
X2568Y308D01*
X2571Y311D01*
X2575Y313D01*
X2585D01*
X2590Y311D01*
X2592Y308D01*
X2594Y303D01*
Y299D01*
X2592Y294D01*
X2587Y287D01*
X2564Y263D01*
X2597D01*
X2613Y313D02*
X2639D01*
X2625Y294D01*
X2632D01*
X2637Y292D01*
X2639Y289D01*
X2641Y282D01*
Y277D01*
X2639Y270D01*
X2634Y265D01*
X2627Y263D01*
X2620D01*
X2613Y265D01*
X2610Y268D01*
X2608Y273D01*
X5026Y233D02*
X5022Y231D01*
X5017Y226D01*
X5014Y221D01*
X5012Y214D01*
Y202D01*
X5014Y195D01*
X5017Y190D01*
X5022Y185D01*
X5026Y183D01*
X5036D01*
X5041Y185D01*
X5045Y190D01*
X5048Y195D01*
X5050Y202D01*
Y214D01*
X5048Y221D01*
X5045Y226D01*
X5041Y231D01*
X5036Y233D01*
X5026D01*
X5033Y193D02*
X5048Y178D01*
X5062Y223D02*
X5067Y226D01*
X5074Y233D01*
Y183D01*
X5110Y233D02*
X5103Y231D01*
X5101Y226D01*
Y221D01*
X5103Y216D01*
X5108Y214D01*
X5117Y212D01*
X5125Y209D01*
X5129Y204D01*
X5132Y200D01*
Y193D01*
X5129Y188D01*
X5127Y185D01*
X5120Y183D01*
X5110D01*
X5103Y185D01*
X5101Y188D01*
X5098Y193D01*
Y200D01*
X5101Y204D01*
X5106Y209D01*
X5113Y212D01*
X5122Y214D01*
X5127Y216D01*
X5129Y221D01*
Y226D01*
X5127Y231D01*
X5120Y233D01*
X5110D01*
X4802Y234D02*
X4798Y232D01*
X4793Y227D01*
X4790Y222D01*
X4788Y215D01*
Y203D01*
X4790Y196D01*
X4793Y191D01*
X4798Y186D01*
X4802Y184D01*
X4812D01*
X4817Y186D01*
X4821Y191D01*
X4824Y196D01*
X4826Y203D01*
Y215D01*
X4824Y222D01*
X4821Y227D01*
X4817Y232D01*
X4812Y234D01*
X4802D01*
X4809Y194D02*
X4824Y179D01*
X4838Y224D02*
X4843Y227D01*
X4850Y234D01*
Y184D01*
X4905Y217D02*
X4903Y210D01*
X4898Y205D01*
X4891Y203D01*
X4889D01*
X4882Y205D01*
X4877Y210D01*
X4874Y217D01*
Y220D01*
X4877Y227D01*
X4882Y232D01*
X4889Y234D01*
X4891D01*
X4898Y232D01*
X4903Y227D01*
X4905Y217D01*
Y205D01*
X4903Y194D01*
X4898Y186D01*
X4891Y184D01*
X4886D01*
X4879Y186D01*
X4877Y191D01*
X5295Y1454D02*
X5291Y1452D01*
X5286Y1447D01*
X5283Y1442D01*
X5281Y1435D01*
Y1423D01*
X5283Y1416D01*
X5286Y1411D01*
X5291Y1406D01*
X5295Y1404D01*
X5305D01*
X5310Y1406D01*
X5314Y1411D01*
X5317Y1416D01*
X5319Y1423D01*
Y1435D01*
X5317Y1442D01*
X5314Y1447D01*
X5310Y1452D01*
X5305Y1454D01*
X5295D01*
X5302Y1414D02*
X5317Y1399D01*
X5333Y1442D02*
Y1444D01*
X5336Y1449D01*
X5338Y1452D01*
X5343Y1454D01*
X5352D01*
X5357Y1452D01*
X5359Y1449D01*
X5362Y1444D01*
Y1440D01*
X5359Y1435D01*
X5355Y1428D01*
X5331Y1404D01*
X5364D01*
X5390Y1454D02*
X5382Y1452D01*
X5378Y1444D01*
X5375Y1433D01*
Y1425D01*
X5378Y1414D01*
X5382Y1406D01*
X5390Y1404D01*
X5394D01*
X5401Y1406D01*
X5406Y1414D01*
X5409Y1425D01*
Y1433D01*
X5406Y1444D01*
X5401Y1452D01*
X5394Y1454D01*
X5390D01*
X5200Y472D02*
Y436D01*
X5202Y429D01*
X5207Y424D01*
X5214Y422D01*
X5219D01*
X5226Y424D01*
X5231Y429D01*
X5233Y436D01*
Y472D01*
X5247Y462D02*
X5252Y465D01*
X5259Y472D01*
Y422D01*
X5312Y472D02*
X5289D01*
X5286Y451D01*
X5289Y453D01*
X5296Y455D01*
X5303D01*
X5310Y453D01*
X5315Y448D01*
X5317Y441D01*
Y436D01*
X5315Y429D01*
X5310Y424D01*
X5303Y422D01*
X5296D01*
X5289Y424D01*
X5286Y427D01*
X5284Y432D01*
X4907Y465D02*
Y429D01*
X4909Y422D01*
X4914Y417D01*
X4921Y415D01*
X4926D01*
X4933Y417D01*
X4938Y422D01*
X4940Y429D01*
Y465D01*
X4954Y455D02*
X4959Y458D01*
X4966Y465D01*
Y415D01*
X5019Y458D02*
X5017Y463D01*
X5010Y465D01*
X5005D01*
X4998Y463D01*
X4993Y455D01*
X4991Y444D01*
Y432D01*
X4993Y422D01*
X4998Y417D01*
X5005Y415D01*
X5007D01*
X5015Y417D01*
X5019Y422D01*
X5022Y429D01*
Y432D01*
X5019Y439D01*
X5015Y444D01*
X5007Y446D01*
X5005D01*
X4998Y444D01*
X4993Y439D01*
X4991Y432D01*
X4980Y1534D02*
X5016D01*
X5023Y1536D01*
X5028Y1541D01*
X5030Y1548D01*
Y1553D01*
X5028Y1560D01*
X5023Y1565D01*
X5016Y1567D01*
X4980D01*
X4990Y1581D02*
X4987Y1586D01*
X4980Y1593D01*
X5030D01*
X4980Y1651D02*
X5030Y1627D01*
X4980Y1618D02*
Y1651D01*
X4574Y1690D02*
X4610D01*
X4617Y1692D01*
X4622Y1697D01*
X4624Y1704D01*
Y1709D01*
X4622Y1716D01*
X4617Y1721D01*
X4610Y1723D01*
X4574D01*
X4586Y1740D02*
X4584D01*
X4579Y1742D01*
X4576Y1744D01*
X4574Y1749D01*
Y1759D01*
X4576Y1763D01*
X4579Y1766D01*
X4584Y1768D01*
X4588D01*
X4593Y1766D01*
X4600Y1761D01*
X4624Y1737D01*
Y1770D01*
X4574Y1796D02*
X4576Y1789D01*
X4584Y1784D01*
X4595Y1782D01*
X4603D01*
X4614Y1784D01*
X4622Y1789D01*
X4624Y1796D01*
Y1801D01*
X4622Y1808D01*
X4614Y1813D01*
X4603Y1815D01*
X4595D01*
X4584Y1813D01*
X4576Y1808D01*
X4574Y1801D01*
Y1796D01*
X5029Y1847D02*
X5024Y1844D01*
X5019Y1840D01*
X5017Y1835D01*
Y1825D01*
X5019Y1821D01*
X5024Y1816D01*
X5029Y1813D01*
X5036Y1811D01*
X5048D01*
X5055Y1813D01*
X5060Y1816D01*
X5065Y1821D01*
X5067Y1825D01*
Y1835D01*
X5065Y1840D01*
X5060Y1844D01*
X5055Y1847D01*
X5017Y1889D02*
Y1866D01*
X5038Y1863D01*
X5036Y1866D01*
X5034Y1873D01*
Y1880D01*
X5036Y1887D01*
X5041Y1892D01*
X5048Y1894D01*
X5053D01*
X5060Y1892D01*
X5065Y1887D01*
X5067Y1880D01*
Y1873D01*
X5065Y1866D01*
X5062Y1863D01*
X5057Y1861D01*
X5024Y1934D02*
X5019Y1931D01*
X5017Y1924D01*
Y1920D01*
X5019Y1912D01*
X5027Y1908D01*
X5038Y1905D01*
X5050D01*
X5060Y1908D01*
X5065Y1912D01*
X5067Y1920D01*
Y1922D01*
X5065Y1929D01*
X5060Y1934D01*
X5053Y1936D01*
X5050D01*
X5043Y1934D01*
X5038Y1929D01*
X5036Y1922D01*
Y1920D01*
X5038Y1912D01*
X5043Y1908D01*
X5050Y1905D01*
X1051Y481D02*
Y445D01*
X1053Y438D01*
X1058Y433D01*
X1065Y431D01*
X1070D01*
X1077Y433D01*
X1082Y438D01*
X1084Y445D01*
Y481D01*
X1098Y471D02*
X1103Y474D01*
X1110Y481D01*
Y431D01*
X1166Y464D02*
X1163Y457D01*
X1159Y452D01*
X1151Y450D01*
X1149D01*
X1142Y452D01*
X1137Y457D01*
X1135Y464D01*
Y467D01*
X1137Y474D01*
X1142Y479D01*
X1149Y481D01*
X1151D01*
X1159Y479D01*
X1163Y474D01*
X1166Y464D01*
Y452D01*
X1163Y441D01*
X1159Y433D01*
X1151Y431D01*
X1147D01*
X1140Y433D01*
X1137Y438D01*
X2189Y315D02*
Y265D01*
Y315D02*
X2206D01*
X2213Y313D01*
X2218Y308D01*
X2220Y303D01*
X2222Y296D01*
Y284D01*
X2220Y277D01*
X2218Y272D01*
X2213Y267D01*
X2206Y265D01*
X2189D01*
X2236Y303D02*
Y305D01*
X2238Y310D01*
X2241Y313D01*
X2245Y315D01*
X2255D01*
X2260Y313D01*
X2262Y310D01*
X2264Y305D01*
Y301D01*
X2262Y296D01*
X2257Y289D01*
X2234Y265D01*
X2267D01*
X2311Y315D02*
X2288Y265D01*
X2278Y315D02*
X2311D01*
X2363Y233D02*
X2413D01*
X2363D02*
Y254D01*
X2365Y262D01*
X2368Y264D01*
X2373Y266D01*
X2377D01*
X2382Y264D01*
X2384Y262D01*
X2387Y254D01*
Y233D01*
Y250D02*
X2413Y266D01*
X2363Y301D02*
X2396Y278D01*
Y313D01*
X2363Y301D02*
X2413D01*
X2363Y355D02*
X2413Y332D01*
X2363Y322D02*
Y355D01*
X6745Y1137D02*
Y1099D01*
X6742Y1092D01*
X6740Y1089D01*
X6735Y1087D01*
X6731D01*
X6726Y1089D01*
X6723Y1092D01*
X6721Y1099D01*
Y1104D01*
X6786Y1130D02*
X6784Y1135D01*
X6777Y1137D01*
X6772D01*
X6765Y1135D01*
X6760Y1127D01*
X6758Y1116D01*
Y1104D01*
X6760Y1094D01*
X6765Y1089D01*
X6772Y1087D01*
X6774D01*
X6781Y1089D01*
X6786Y1094D01*
X6789Y1101D01*
Y1104D01*
X6786Y1111D01*
X6781Y1116D01*
X6774Y1118D01*
X6772D01*
X6765Y1116D01*
X6760Y1111D01*
X6758Y1104D01*
D47*
X8790Y255D02*
Y1948D01*
X8335D02*
X8790D01*
X8335Y255D02*
X8790D01*
X8335D02*
Y1948D01*
X-198Y1125D02*
Y1977D01*
X173Y1125D02*
Y1205D01*
X-198Y1125D02*
X173D01*
X-198Y1977D02*
X169D01*
Y1897D02*
Y1977D01*
X-198Y278D02*
Y894D01*
X173Y278D02*
Y358D01*
X-198Y278D02*
X173D01*
X-198Y894D02*
X169D01*
Y815D02*
Y894D01*
X3054Y855D02*
X3350D01*
Y536D02*
Y855D01*
X3054Y536D02*
X3350D01*
X3054D02*
Y855D01*
X6390Y133D02*
X6384Y128D01*
X6379Y119D01*
X6373Y108D01*
X6370Y93D01*
Y82D01*
X6373Y68D01*
X6379Y56D01*
X6384Y48D01*
X6390Y42D01*
X6384Y128D02*
X6379Y116D01*
X6376Y108D01*
X6373Y93D01*
Y82D01*
X6376Y68D01*
X6379Y59D01*
X6384Y48D01*
X6444Y108D02*
X6441Y113D01*
X6436Y119D01*
X6430Y122D01*
X6419D01*
X6413Y119D01*
X6407Y113D01*
X6404Y108D01*
X6402Y99D01*
Y85D01*
X6404Y76D01*
X6407Y71D01*
X6413Y65D01*
X6419Y62D01*
X6430D01*
X6436Y65D01*
X6441Y71D01*
X6444Y76D01*
X6461Y133D02*
X6467Y128D01*
X6473Y119D01*
X6478Y108D01*
X6481Y93D01*
Y82D01*
X6478Y68D01*
X6473Y56D01*
X6467Y48D01*
X6461Y42D01*
X6467Y128D02*
X6473Y116D01*
X6475Y108D01*
X6478Y93D01*
Y82D01*
X6475Y68D01*
X6473Y59D01*
X6467Y48D01*
X6499Y108D02*
Y111D01*
X6501Y116D01*
X6504Y119D01*
X6510Y122D01*
X6521D01*
X6527Y119D01*
X6530Y116D01*
X6533Y111D01*
Y105D01*
X6530Y99D01*
X6524Y91D01*
X6496Y62D01*
X6536D01*
X6566Y122D02*
X6558Y119D01*
X6552Y111D01*
X6549Y96D01*
Y88D01*
X6552Y73D01*
X6558Y65D01*
X6566Y62D01*
X6572D01*
X6581Y65D01*
X6586Y73D01*
X6589Y88D01*
Y96D01*
X6586Y111D01*
X6581Y119D01*
X6572Y122D01*
X6566D01*
X6620D02*
X6611Y119D01*
X6605Y111D01*
X6603Y96D01*
Y88D01*
X6605Y73D01*
X6611Y65D01*
X6620Y62D01*
X6625D01*
X6634Y65D01*
X6640Y73D01*
X6643Y88D01*
Y96D01*
X6640Y111D01*
X6634Y119D01*
X6625Y122D01*
X6620D01*
X6696D02*
X6667Y62D01*
X6656Y122D02*
X6696D01*
X6715Y65D02*
X6712Y62D01*
X6709Y65D01*
X6712Y68D01*
X6715Y65D01*
Y59D01*
X6712Y53D01*
X6709Y51D01*
X6821Y62D02*
X6798Y122D01*
X6775Y62D01*
X6784Y82D02*
X6813D01*
X6835Y122D02*
Y62D01*
X6869D01*
X6876Y122D02*
Y62D01*
X6910D01*
X6964Y122D02*
Y62D01*
Y122D02*
X6990D01*
X6998Y119D01*
X7001Y116D01*
X7004Y111D01*
Y105D01*
X7001Y99D01*
X6998Y96D01*
X6990Y93D01*
X6964D01*
X6984D02*
X7004Y62D01*
X7017Y122D02*
Y62D01*
X7073Y108D02*
X7070Y113D01*
X7064Y119D01*
X7059Y122D01*
X7047D01*
X7041Y119D01*
X7036Y113D01*
X7033Y108D01*
X7030Y99D01*
Y85D01*
X7033Y76D01*
X7036Y71D01*
X7041Y65D01*
X7047Y62D01*
X7059D01*
X7064Y65D01*
X7070Y71D01*
X7073Y76D01*
Y85D01*
X7059D02*
X7073D01*
X7086Y122D02*
Y62D01*
X7126Y122D02*
Y62D01*
X7086Y93D02*
X7126D01*
X7163Y122D02*
Y62D01*
X7143Y122D02*
X7183D01*
X7230Y113D02*
X7224Y119D01*
X7216Y122D01*
X7204D01*
X7196Y119D01*
X7190Y113D01*
Y108D01*
X7193Y102D01*
X7196Y99D01*
X7202Y96D01*
X7219Y91D01*
X7224Y88D01*
X7227Y85D01*
X7230Y79D01*
Y71D01*
X7224Y65D01*
X7216Y62D01*
X7204D01*
X7196Y65D01*
X7190Y71D01*
X7291Y122D02*
Y62D01*
Y122D02*
X7316D01*
X7325Y119D01*
X7328Y116D01*
X7331Y111D01*
Y105D01*
X7328Y99D01*
X7325Y96D01*
X7316Y93D01*
X7291D01*
X7311D02*
X7331Y62D01*
X7381Y122D02*
X7344D01*
Y62D01*
X7381D01*
X7344Y93D02*
X7367D01*
X7431Y113D02*
X7426Y119D01*
X7417Y122D01*
X7406D01*
X7397Y119D01*
X7391Y113D01*
Y108D01*
X7394Y102D01*
X7397Y99D01*
X7403Y96D01*
X7420Y91D01*
X7426Y88D01*
X7428Y85D01*
X7431Y79D01*
Y71D01*
X7426Y65D01*
X7417Y62D01*
X7406D01*
X7397Y65D01*
X7391Y71D01*
X7482Y122D02*
X7445D01*
Y62D01*
X7482D01*
X7445Y93D02*
X7468D01*
X7492Y122D02*
Y62D01*
Y122D02*
X7518D01*
X7526Y119D01*
X7529Y116D01*
X7532Y111D01*
Y105D01*
X7529Y99D01*
X7526Y96D01*
X7518Y93D01*
X7492D01*
X7512D02*
X7532Y62D01*
X7545Y122D02*
X7568Y62D01*
X7591Y122D02*
X7568Y62D01*
X7636Y122D02*
X7599D01*
Y62D01*
X7636D01*
X7599Y93D02*
X7622D01*
X7646Y122D02*
Y62D01*
Y122D02*
X7666D01*
X7674Y119D01*
X7680Y113D01*
X7683Y108D01*
X7686Y99D01*
Y85D01*
X7683Y76D01*
X7680Y71D01*
X7674Y65D01*
X7666Y62D01*
X7646D01*
X638Y2244D02*
Y2157D01*
X609Y2244D02*
X667D01*
X731D02*
X677D01*
Y2157D01*
X731D01*
X677Y2202D02*
X710D01*
X803Y2231D02*
X795Y2239D01*
X782Y2244D01*
X766D01*
X753Y2239D01*
X745Y2231D01*
Y2223D01*
X749Y2215D01*
X753Y2211D01*
X762Y2206D01*
X786Y2198D01*
X795Y2194D01*
X799Y2190D01*
X803Y2182D01*
Y2169D01*
X795Y2161D01*
X782Y2157D01*
X766D01*
X753Y2161D01*
X745Y2169D01*
X822Y2244D02*
Y2157D01*
X872D01*
X947D02*
X914Y2244D01*
X881Y2157D01*
X894Y2186D02*
X935D01*
X1035Y2244D02*
Y2157D01*
Y2244D02*
X1068Y2157D01*
X1101Y2244D02*
X1068Y2157D01*
X1101Y2244D02*
Y2157D01*
X1151Y2244D02*
X1143Y2239D01*
X1134Y2231D01*
X1130Y2223D01*
X1126Y2211D01*
Y2190D01*
X1130Y2178D01*
X1134Y2169D01*
X1143Y2161D01*
X1151Y2157D01*
X1167D01*
X1176Y2161D01*
X1184Y2169D01*
X1188Y2178D01*
X1192Y2190D01*
Y2211D01*
X1188Y2223D01*
X1184Y2231D01*
X1176Y2239D01*
X1167Y2244D01*
X1151D01*
X1241D02*
Y2157D01*
X1212Y2244D02*
X1270D01*
X1305D02*
X1297Y2239D01*
X1289Y2231D01*
X1284Y2223D01*
X1280Y2211D01*
Y2190D01*
X1284Y2178D01*
X1289Y2169D01*
X1297Y2161D01*
X1305Y2157D01*
X1322D01*
X1330Y2161D01*
X1338Y2169D01*
X1342Y2178D01*
X1346Y2190D01*
Y2211D01*
X1342Y2223D01*
X1338Y2231D01*
X1330Y2239D01*
X1322Y2244D01*
X1305D01*
X1367D02*
Y2157D01*
Y2244D02*
X1404D01*
X1416Y2239D01*
X1420Y2235D01*
X1424Y2227D01*
Y2219D01*
X1420Y2211D01*
X1416Y2206D01*
X1404Y2202D01*
X1367D01*
X1395D02*
X1424Y2157D01*
X1501Y2231D02*
X1493Y2239D01*
X1481Y2244D01*
X1464D01*
X1452Y2239D01*
X1444Y2231D01*
Y2223D01*
X1448Y2215D01*
X1452Y2211D01*
X1460Y2206D01*
X1485Y2198D01*
X1493Y2194D01*
X1497Y2190D01*
X1501Y2182D01*
Y2169D01*
X1493Y2161D01*
X1481Y2157D01*
X1464D01*
X1452Y2161D01*
X1444Y2169D01*
X1529Y2161D02*
X1525Y2157D01*
X1521Y2161D01*
X1525Y2165D01*
X1529Y2161D01*
Y2153D01*
X1525Y2145D01*
X1521Y2141D01*
X1616Y2244D02*
Y2157D01*
X1634Y2244D02*
Y2157D01*
Y2244D02*
X1692Y2157D01*
Y2244D02*
Y2157D01*
X1778Y2223D02*
X1774Y2231D01*
X1765Y2239D01*
X1757Y2244D01*
X1741D01*
X1732Y2239D01*
X1724Y2231D01*
X1720Y2223D01*
X1716Y2211D01*
Y2190D01*
X1720Y2178D01*
X1724Y2169D01*
X1732Y2161D01*
X1741Y2157D01*
X1757D01*
X1765Y2161D01*
X1774Y2169D01*
X1778Y2178D01*
X1806Y2165D02*
X1802Y2161D01*
X1806Y2157D01*
X1810Y2161D01*
X1806Y2165D01*
X3390Y1490D02*
Y1430D01*
Y1490D02*
X3416D01*
X3424Y1487D01*
X3427Y1484D01*
X3430Y1479D01*
Y1473D01*
X3427Y1467D01*
X3424Y1464D01*
X3416Y1461D01*
X3390D02*
X3416D01*
X3424Y1459D01*
X3427Y1456D01*
X3430Y1450D01*
Y1441D01*
X3427Y1436D01*
X3424Y1433D01*
X3416Y1430D01*
X3390D01*
X3489D02*
X3466Y1490D01*
X3443Y1430D01*
X3452Y1450D02*
X3481D01*
X3523Y1490D02*
Y1430D01*
X3503Y1490D02*
X3543D01*
X3570D02*
Y1430D01*
X3550Y1490D02*
X3590D01*
X3635D02*
X3597D01*
Y1430D01*
X3635D01*
X3597Y1461D02*
X3620D01*
X3645Y1490D02*
Y1430D01*
Y1490D02*
X3670D01*
X3679Y1487D01*
X3682Y1484D01*
X3685Y1479D01*
Y1473D01*
X3682Y1467D01*
X3679Y1464D01*
X3670Y1461D01*
X3645D01*
X3665D02*
X3685Y1430D01*
X3698Y1490D02*
X3721Y1461D01*
Y1430D01*
X3744Y1490D02*
X3721Y1461D01*
X3798Y1490D02*
Y1430D01*
Y1490D02*
X3821Y1430D01*
X3844Y1490D02*
X3821Y1430D01*
X3844Y1490D02*
Y1430D01*
X3878Y1490D02*
X3873Y1487D01*
X3867Y1481D01*
X3864Y1476D01*
X3861Y1467D01*
Y1453D01*
X3864Y1444D01*
X3867Y1439D01*
X3873Y1433D01*
X3878Y1430D01*
X3890D01*
X3896Y1433D01*
X3901Y1439D01*
X3904Y1444D01*
X3907Y1453D01*
Y1467D01*
X3904Y1476D01*
X3901Y1481D01*
X3896Y1487D01*
X3890Y1490D01*
X3878D01*
X3921D02*
Y1430D01*
Y1490D02*
X3961Y1430D01*
Y1490D02*
Y1430D01*
X3978Y1490D02*
Y1430D01*
X4010Y1490D02*
Y1430D01*
X3990Y1490D02*
X4030D01*
X4054D02*
X4049Y1487D01*
X4043Y1481D01*
X4040Y1476D01*
X4037Y1467D01*
Y1453D01*
X4040Y1444D01*
X4043Y1439D01*
X4049Y1433D01*
X4054Y1430D01*
X4066D01*
X4072Y1433D01*
X4077Y1439D01*
X4080Y1444D01*
X4083Y1453D01*
Y1467D01*
X4080Y1476D01*
X4077Y1481D01*
X4072Y1487D01*
X4066Y1490D01*
X4054D01*
X4097D02*
Y1430D01*
Y1490D02*
X4123D01*
X4131Y1487D01*
X4134Y1484D01*
X4137Y1479D01*
Y1473D01*
X4134Y1467D01*
X4131Y1464D01*
X4123Y1461D01*
X4097D01*
X4117D02*
X4137Y1430D01*
X4198Y1490D02*
Y1430D01*
Y1490D02*
X4223D01*
X4232Y1487D01*
X4235Y1484D01*
X4238Y1479D01*
Y1473D01*
X4235Y1467D01*
X4232Y1464D01*
X4223Y1461D01*
X4198D02*
X4223D01*
X4232Y1459D01*
X4235Y1456D01*
X4238Y1450D01*
Y1441D01*
X4235Y1436D01*
X4232Y1433D01*
X4223Y1430D01*
X4198D01*
X4268Y1490D02*
X4262Y1487D01*
X4257Y1481D01*
X4254Y1476D01*
X4251Y1467D01*
Y1453D01*
X4254Y1444D01*
X4257Y1439D01*
X4262Y1433D01*
X4268Y1430D01*
X4280D01*
X4285Y1433D01*
X4291Y1439D01*
X4294Y1444D01*
X4297Y1453D01*
Y1467D01*
X4294Y1476D01*
X4291Y1481D01*
X4285Y1487D01*
X4280Y1490D01*
X4268D01*
X4356Y1430D02*
X4334Y1490D01*
X4311Y1430D01*
X4319Y1450D02*
X4348D01*
X4370Y1490D02*
Y1430D01*
Y1490D02*
X4396D01*
X4405Y1487D01*
X4407Y1484D01*
X4410Y1479D01*
Y1473D01*
X4407Y1467D01*
X4405Y1464D01*
X4396Y1461D01*
X4370D01*
X4390D02*
X4410Y1430D01*
X4424Y1490D02*
Y1430D01*
Y1490D02*
X4444D01*
X4452Y1487D01*
X4458Y1481D01*
X4461Y1476D01*
X4464Y1467D01*
Y1453D01*
X4461Y1444D01*
X4458Y1439D01*
X4452Y1433D01*
X4444Y1430D01*
X4424D01*
X-140Y-264D02*
Y-334D01*
X-163Y-264D02*
X-116D01*
X-91Y-288D02*
X-98Y-291D01*
X-105Y-298D01*
X-108Y-308D01*
Y-314D01*
X-105Y-324D01*
X-98Y-331D01*
X-91Y-334D01*
X-81D01*
X-75Y-331D01*
X-68Y-324D01*
X-65Y-314D01*
Y-308D01*
X-68Y-298D01*
X-75Y-291D01*
X-81Y-288D01*
X-91D01*
X-49D02*
Y-358D01*
Y-298D02*
X-43Y-291D01*
X-36Y-288D01*
X-26D01*
X-19Y-291D01*
X-13Y-298D01*
X-9Y-308D01*
Y-314D01*
X-13Y-324D01*
X-19Y-331D01*
X-26Y-334D01*
X-36D01*
X-43Y-331D01*
X-49Y-324D01*
X107Y-274D02*
X101Y-268D01*
X91Y-264D01*
X77D01*
X67Y-268D01*
X61Y-274D01*
Y-281D01*
X64Y-288D01*
X67Y-291D01*
X74Y-294D01*
X94Y-301D01*
X101Y-304D01*
X104Y-308D01*
X107Y-314D01*
Y-324D01*
X101Y-331D01*
X91Y-334D01*
X77D01*
X67Y-331D01*
X61Y-324D01*
X130Y-264D02*
X133Y-268D01*
X136Y-264D01*
X133Y-261D01*
X130Y-264D01*
X133Y-288D02*
Y-334D01*
X149Y-264D02*
Y-334D01*
X163Y-264D02*
Y-334D01*
X197Y-288D02*
X163Y-321D01*
X177Y-308D02*
X200Y-334D01*
X248Y-298D02*
X244Y-291D01*
X234Y-288D01*
X224D01*
X214Y-291D01*
X211Y-298D01*
X214Y-304D01*
X221Y-308D01*
X238Y-311D01*
X244Y-314D01*
X248Y-321D01*
Y-324D01*
X244Y-331D01*
X234Y-334D01*
X224D01*
X214Y-331D01*
X211Y-324D01*
X302Y-298D02*
X296Y-291D01*
X289Y-288D01*
X279D01*
X272Y-291D01*
X266Y-298D01*
X262Y-308D01*
Y-314D01*
X266Y-324D01*
X272Y-331D01*
X279Y-334D01*
X289D01*
X296Y-331D01*
X302Y-324D01*
X317Y-288D02*
Y-334D01*
Y-308D02*
X321Y-298D01*
X327Y-291D01*
X334Y-288D01*
X344D01*
X350Y-308D02*
X390D01*
Y-301D01*
X387Y-294D01*
X384Y-291D01*
X377Y-288D01*
X367D01*
X360Y-291D01*
X354Y-298D01*
X350Y-308D01*
Y-314D01*
X354Y-324D01*
X360Y-331D01*
X367Y-334D01*
X377D01*
X384Y-331D01*
X390Y-324D01*
X405Y-308D02*
X445D01*
Y-301D01*
X442Y-294D01*
X439Y-291D01*
X432Y-288D01*
X422D01*
X415Y-291D01*
X409Y-298D01*
X405Y-308D01*
Y-314D01*
X409Y-324D01*
X415Y-331D01*
X422Y-334D01*
X432D01*
X439Y-331D01*
X445Y-324D01*
X460Y-288D02*
Y-334D01*
Y-301D02*
X470Y-291D01*
X477Y-288D01*
X487D01*
X494Y-291D01*
X497Y-301D01*
Y-334D01*
X3410Y1299D02*
X3387Y1359D01*
X3364Y1299D01*
X3373Y1319D02*
X3401D01*
X3464Y1350D02*
X3458Y1356D01*
X3449Y1359D01*
X3438D01*
X3429Y1356D01*
X3424Y1350D01*
Y1345D01*
X3427Y1339D01*
X3429Y1336D01*
X3435Y1333D01*
X3452Y1328D01*
X3458Y1325D01*
X3461Y1322D01*
X3464Y1316D01*
Y1308D01*
X3458Y1302D01*
X3449Y1299D01*
X3438D01*
X3429Y1302D01*
X3424Y1308D01*
X3517Y1350D02*
X3511Y1356D01*
X3503Y1359D01*
X3491D01*
X3483Y1356D01*
X3477Y1350D01*
Y1345D01*
X3480Y1339D01*
X3483Y1336D01*
X3489Y1333D01*
X3506Y1328D01*
X3511Y1325D01*
X3514Y1322D01*
X3517Y1316D01*
Y1308D01*
X3511Y1302D01*
X3503Y1299D01*
X3491D01*
X3483Y1302D01*
X3477Y1308D01*
X3531Y1359D02*
X3553Y1330D01*
Y1299D01*
X3576Y1359D02*
X3553Y1330D01*
X3587Y1339D02*
X3584Y1336D01*
X3587Y1333D01*
X3590Y1336D01*
X3587Y1339D01*
Y1305D02*
X3584Y1302D01*
X3587Y1299D01*
X3590Y1302D01*
X3587Y1305D01*
X1600Y121D02*
X1594Y127D01*
X1586Y130D01*
X1574D01*
X1566Y127D01*
X1560Y121D01*
Y116D01*
X1563Y110D01*
X1566Y107D01*
X1571Y104D01*
X1589Y99D01*
X1594Y96D01*
X1597Y93D01*
X1600Y87D01*
Y79D01*
X1594Y73D01*
X1586Y70D01*
X1574D01*
X1566Y73D01*
X1560Y79D01*
X1613Y61D02*
X1653Y130D01*
X1657D02*
Y70D01*
Y130D02*
X1697Y70D01*
Y130D02*
Y70D01*
X1726Y520D02*
X1703Y580D01*
X1680Y520D01*
X1689Y540D02*
X1717D01*
X1780Y571D02*
X1774Y577D01*
X1765Y580D01*
X1754D01*
X1745Y577D01*
X1740Y571D01*
Y566D01*
X1743Y560D01*
X1745Y557D01*
X1751Y554D01*
X1768Y549D01*
X1774Y546D01*
X1777Y543D01*
X1780Y537D01*
Y529D01*
X1774Y523D01*
X1765Y520D01*
X1754D01*
X1745Y523D01*
X1740Y529D01*
X1833Y571D02*
X1827Y577D01*
X1819Y580D01*
X1807D01*
X1799Y577D01*
X1793Y571D01*
Y566D01*
X1796Y560D01*
X1799Y557D01*
X1805Y554D01*
X1822Y549D01*
X1827Y546D01*
X1830Y543D01*
X1833Y537D01*
Y529D01*
X1827Y523D01*
X1819Y520D01*
X1807D01*
X1799Y523D01*
X1793Y529D01*
X1847Y580D02*
X1869Y551D01*
Y520D01*
X1892Y580D02*
X1869Y551D01*
X1947Y580D02*
Y520D01*
Y580D02*
X1973D01*
X1981Y577D01*
X1984Y574D01*
X1987Y569D01*
Y563D01*
X1984Y557D01*
X1981Y554D01*
X1973Y551D01*
X1947D01*
X1967D02*
X1987Y520D01*
X2038Y580D02*
X2001D01*
Y520D01*
X2038D01*
X2001Y551D02*
X2023D01*
X2048Y580D02*
X2070Y520D01*
X2093Y580D02*
X2070Y520D01*
D49*
X2010Y620D02*
G03*
X2010Y620I-10J0D01*
G01*
D52*
X-200Y2224D02*
X-100Y2324D01*
X-200Y-21D02*
X-100Y-121D01*
X8180D02*
X8280Y-21D01*
X8180Y2324D02*
X8280Y2224D01*
X8280D01*
Y2074D02*
Y2224D01*
Y-21D02*
Y129D01*
X-100Y-121D02*
X8180D01*
X-100Y2324D02*
X8180D01*
X-200Y-21D02*
Y2224D01*
D53*
X8280Y2074D02*
X8792D01*
X8280Y129D02*
X8792D01*
Y2074D01*
D77*
X7064Y1338D02*
G03*
X7064Y1338I-5J0D01*
G01*
X660Y828D02*
G03*
X660Y828I-5J0D01*
G01*
X965Y1140D02*
G03*
X965Y1140I-5J0D01*
G01*
X1263Y220D02*
G03*
X1263Y220I-5J0D01*
G01*
X7492Y902D02*
G03*
X7492Y902I-5J0D01*
G01*
X7112D02*
G03*
X7112Y902I-5J0D01*
G01*
X6409Y1338D02*
G03*
X6409Y1338I-5J0D01*
G01*
X6792Y902D02*
G03*
X6792Y902I-5J0D01*
G01*
X7701Y1338D02*
G03*
X7701Y1338I-5J0D01*
G01*
X7882Y902D02*
G03*
X7882Y902I-5J0D01*
G01*
X6739Y1338D02*
G03*
X6739Y1338I-5J0D01*
G01*
X5039Y749D02*
G03*
X5039Y749I-5J0D01*
G01*
X5329D02*
G03*
X5329Y749I-5J0D01*
G01*
X3104Y1834D02*
G03*
X3104Y1834I-5J0D01*
G01*
X5621Y1521D02*
G03*
X5621Y1521I-5J0D01*
G01*
X6958Y1039D02*
G03*
X6958Y1039I-5J0D01*
G01*
X1001Y663D02*
G03*
X1001Y663I-2J0D01*
G01*
X4794Y1805D02*
G03*
X4794Y1805I-5J0D01*
G01*
X5056Y1480D02*
G03*
X5056Y1480I-5J0D01*
G01*
X7379Y1338D02*
G03*
X7379Y1338I-5J0D01*
G01*
X3576Y1757D02*
G03*
X3576Y1757I-5J0D01*
G01*
X964Y2015D02*
G03*
X964Y2015I-5J0D01*
G01*
X6250Y1304D02*
G03*
X6250Y1304I-5J0D01*
G01*
X2868Y1753D02*
G03*
X2868Y1753I-5J0D01*
G01*
X4307Y552D02*
G03*
X4307Y552I-5J0D01*
G01*
X3595Y741D02*
G03*
X3595Y741I-5J0D01*
G01*
X1736Y1593D02*
G03*
X1736Y1593I-5J0D01*
G01*
X5626Y531D02*
G03*
X5626Y531I-5J0D01*
G01*
X3299Y1834D02*
G03*
X3299Y1834I-5J0D01*
G01*
X1265Y1230D02*
G03*
X1265Y1230I-5J0D01*
G01*
D78*
X645Y740D02*
G03*
X645Y711I0J-14D01*
G01*
X3659Y1747D02*
G03*
X3688Y1747I14J0D01*
G01*
X6333Y1293D02*
G03*
X6361Y1293I14J0D01*
G01*
X4313Y640D02*
G03*
X4313Y668I0J14D01*
G01*
X3607Y830D02*
G03*
X3607Y871I0J20D01*
G01*
X1742Y1681D02*
G03*
X1742Y1709I0J14D01*
G01*
X501Y298D02*
Y325D01*
Y298D02*
X533D01*
X588D02*
X619D01*
Y325D01*
X7526Y493D02*
Y520D01*
Y493D02*
X7558D01*
X7613D02*
X7644D01*
Y520D01*
X7758Y1174D02*
X7785D01*
X7758Y1142D02*
Y1174D01*
Y1056D02*
Y1087D01*
Y1056D02*
X7785D01*
X5416Y285D02*
Y316D01*
X5353Y285D02*
Y316D01*
X2169Y1935D02*
X2201D01*
X2239D02*
X2271D01*
X2730Y355D02*
Y386D01*
Y425D02*
Y456D01*
X2730Y494D02*
Y525D01*
Y284D02*
Y315D01*
X2445Y435D02*
X2476D01*
X2553Y346D02*
X2580D01*
X2553D02*
Y377D01*
Y432D02*
Y464D01*
X2580D01*
X4580Y1585D02*
X4611D01*
X4665Y1935D02*
X4696D01*
X4649Y1585D02*
X4680D01*
X4821Y1920D02*
Y1951D01*
X4758Y1920D02*
Y1951D01*
X4239Y925D02*
X4271D01*
X4200Y464D02*
Y496D01*
X7018Y1588D02*
X7282D01*
X7282Y1460D02*
Y1588D01*
X7018Y1460D02*
X7282D01*
X7018Y1460D02*
Y1588D01*
X449Y682D02*
X645D01*
X449Y769D02*
X645D01*
X449Y682D02*
Y769D01*
X645Y682D02*
Y711D01*
Y740D02*
Y769D01*
X3447Y298D02*
Y463D01*
X3207D02*
X3447D01*
X3207Y298D02*
X3447D01*
X982Y1165D02*
X1238D01*
Y715D02*
Y1165D01*
X982Y715D02*
X1238D01*
X982D02*
Y1165D01*
X979Y221D02*
X1235D01*
X979D02*
Y411D01*
X1235D01*
Y221D02*
Y411D01*
X7529Y652D02*
Y780D01*
X7265Y780D02*
X7529D01*
X7265Y652D02*
Y780D01*
X7265Y652D02*
X7529D01*
X7149D02*
Y780D01*
X6885Y780D02*
X7149D01*
X6885Y652D02*
Y780D01*
X6885Y652D02*
X7149D01*
X6363Y1460D02*
Y1588D01*
X6363Y1460D02*
X6627D01*
X6627D02*
Y1588D01*
X6363D02*
X6627D01*
X6829Y652D02*
Y780D01*
X6565Y780D02*
X6829D01*
X6565Y652D02*
Y780D01*
X6565Y652D02*
X6829D01*
X7655Y1588D02*
X7919D01*
X7919Y1460D02*
Y1588D01*
X7655Y1460D02*
X7919D01*
X7655Y1460D02*
Y1588D01*
Y652D02*
X7919D01*
X7655D02*
Y780D01*
X7655D02*
X7919D01*
X7919Y652D02*
Y780D01*
X6948Y1718D02*
Y1801D01*
Y1911D02*
Y1994D01*
X7086Y1718D02*
Y1801D01*
Y1911D02*
Y1994D01*
X6948Y1718D02*
X7086D01*
X6948Y1994D02*
X7086D01*
X6948Y218D02*
X7086D01*
X6948Y494D02*
X7086D01*
X6948Y218D02*
Y301D01*
Y411D02*
Y494D01*
X7086Y218D02*
Y301D01*
Y411D02*
Y494D01*
X6628Y1718D02*
Y1801D01*
Y1911D02*
Y1994D01*
X6766Y1718D02*
Y1801D01*
Y1911D02*
Y1994D01*
X6628Y1718D02*
X6766D01*
X6628Y1994D02*
X6766D01*
X6628Y218D02*
X6766D01*
X6628Y494D02*
X6766D01*
X6628Y218D02*
Y301D01*
Y411D02*
Y494D01*
X6766Y218D02*
Y301D01*
Y411D02*
Y494D01*
X7718Y1708D02*
Y1791D01*
Y1901D02*
Y1984D01*
X7856Y1708D02*
Y1791D01*
Y1901D02*
Y1984D01*
X7718Y1708D02*
X7856D01*
X7718Y1984D02*
X7856D01*
X7718Y218D02*
X7856D01*
X7718Y494D02*
X7856D01*
X7718Y218D02*
Y301D01*
Y411D02*
Y494D01*
X7856Y218D02*
Y301D01*
Y411D02*
Y494D01*
X7216Y1716D02*
Y1799D01*
Y1909D02*
Y1992D01*
X7354Y1716D02*
Y1799D01*
Y1909D02*
Y1992D01*
X7216Y1716D02*
X7354D01*
X7216Y1992D02*
X7354D01*
X7594Y1909D02*
Y1992D01*
Y1716D02*
Y1799D01*
X7456Y1909D02*
Y1992D01*
Y1716D02*
Y1799D01*
Y1992D02*
X7594D01*
X7456Y1716D02*
X7594D01*
X6693Y1588D02*
X6957D01*
X6957Y1460D02*
Y1588D01*
X6693Y1460D02*
X6957D01*
X6693Y1460D02*
Y1588D01*
X5286Y1634D02*
Y1666D01*
X5224Y1634D02*
Y1666D01*
X5204Y1315D02*
X5236D01*
X5068Y634D02*
X5100D01*
X4904Y698D02*
X5026D01*
X4904Y572D02*
Y698D01*
Y572D02*
X5026D01*
Y698D01*
X4796Y320D02*
Y347D01*
X4828D01*
X4883D02*
X4914D01*
Y320D02*
Y347D01*
X5011Y320D02*
Y347D01*
X5043D01*
X5098D02*
X5129D01*
Y320D02*
Y347D01*
X5368Y631D02*
X5400D01*
X5194Y698D02*
X5316D01*
X5194Y572D02*
Y698D01*
Y572D02*
X5316D01*
Y698D01*
X2145Y1764D02*
Y1796D01*
Y1674D02*
Y1706D01*
Y1579D02*
Y1611D01*
Y1504D02*
Y1536D01*
Y1434D02*
Y1466D01*
Y1364D02*
Y1396D01*
Y1294D02*
Y1326D01*
X2309Y1935D02*
X2341D01*
X2379D02*
X2411D01*
X2451Y1936D02*
X2483D01*
X2541D02*
X2573D01*
X2669Y1935D02*
X2701D01*
X3754Y1930D02*
X3786D01*
X4511Y926D02*
X4542D01*
X6100Y1499D02*
Y1530D01*
X5505Y1500D02*
Y1531D01*
Y735D02*
Y766D01*
Y1725D02*
Y1756D01*
Y505D02*
Y536D01*
X5329Y1705D02*
X5360D01*
X5065Y1315D02*
X5096D01*
X5135D02*
X5166D01*
X815Y604D02*
Y635D01*
X6100Y1724D02*
Y1755D01*
X4734Y490D02*
X4765D01*
X6105Y734D02*
Y765D01*
Y504D02*
Y535D01*
X3100Y1914D02*
Y1926D01*
X3050Y1914D02*
Y1926D01*
X5627Y1590D02*
Y1661D01*
X5973D01*
Y1590D02*
Y1661D01*
X5627Y1590D02*
X5973D01*
X5394Y1325D02*
Y1352D01*
X5362D02*
X5394D01*
X5276D02*
X5307D01*
X5276Y1325D02*
Y1352D01*
X2740Y1925D02*
X2771D01*
X5478Y576D02*
X5505D01*
X5478D02*
Y607D01*
Y662D02*
Y694D01*
X5505D01*
X5468Y1566D02*
X5495D01*
X5468D02*
Y1597D01*
Y1652D02*
Y1684D01*
X5495D01*
X6105Y694D02*
X6132D01*
Y663D02*
Y694D01*
Y576D02*
Y608D01*
X6105Y576D02*
X6132D01*
X6100Y1684D02*
X6127D01*
Y1653D02*
Y1684D01*
Y1566D02*
Y1598D01*
X6100Y1566D02*
X6127D01*
X4785Y709D02*
X4812D01*
Y678D02*
Y709D01*
Y591D02*
Y623D01*
X4785Y591D02*
X4812D01*
X4315Y424D02*
X4342D01*
Y393D02*
Y424D01*
Y306D02*
Y338D01*
X4315Y306D02*
X4342D01*
X1659Y1143D02*
Y1170D01*
X1628Y1143D02*
X1659D01*
X1541D02*
X1573D01*
X1541D02*
Y1170D01*
X4103Y881D02*
X4130D01*
X4103D02*
Y912D01*
Y967D02*
Y999D01*
X4130D01*
X4696Y1100D02*
Y1127D01*
X4727D01*
X4782D02*
X4814D01*
Y1100D02*
Y1127D01*
X3600Y1914D02*
Y1942D01*
X3632D01*
X3687D02*
X3718D01*
Y1914D02*
Y1942D01*
X4135Y424D02*
X4162D01*
Y393D02*
Y424D01*
Y306D02*
Y338D01*
X4135Y306D02*
X4162D01*
X3006Y380D02*
Y407D01*
X3037D01*
X3092D02*
X3124D01*
Y380D02*
Y407D01*
X1808Y1191D02*
X1835D01*
X1808D02*
Y1222D01*
Y1277D02*
Y1309D01*
X1835D01*
X1808Y941D02*
X1835D01*
X1808D02*
Y972D01*
Y1027D02*
Y1059D01*
X1835D01*
X1514Y428D02*
Y455D01*
X1483Y428D02*
X1514D01*
X1396D02*
X1428D01*
X1396D02*
Y455D01*
X3329Y993D02*
Y1020D01*
X3298Y993D02*
X3329D01*
X3211D02*
X3243D01*
X3211D02*
Y1020D01*
X2960Y1114D02*
X2987D01*
Y1083D02*
Y1114D01*
Y996D02*
Y1028D01*
X2960Y996D02*
X2987D01*
X6431Y1910D02*
Y1937D01*
X6462D01*
X6517D02*
X6549D01*
Y1910D02*
Y1937D01*
X1389Y605D02*
X1420D01*
X4701Y926D02*
X4733D01*
X3884Y1930D02*
X3916D01*
X3884Y1751D02*
X3916D01*
X1431Y298D02*
X1463D01*
X3959Y1930D02*
X3991D01*
X4064D02*
X4096D01*
X4169Y1935D02*
X4201D01*
X3959Y1750D02*
X3991D01*
X4064D02*
X4096D01*
X4169Y1755D02*
X4201D01*
X4274Y1935D02*
X4306D01*
X4379Y1930D02*
X4411D01*
X4484D02*
X4516D01*
X4274Y1755D02*
X4306D01*
X4379Y1750D02*
X4411D01*
X4484D02*
X4516D01*
X3396Y1006D02*
X3428D01*
X735Y1414D02*
Y1446D01*
X1446Y1431D02*
X1478D01*
X1626D02*
X1658D01*
X1536D02*
X1568D01*
X1475Y1954D02*
Y1986D01*
X385Y1963D02*
Y1994D01*
X1477Y975D02*
Y1006D01*
Y875D02*
Y906D01*
Y775D02*
Y806D01*
X381Y1316D02*
X413D01*
X2975Y1929D02*
X3006D01*
X3179Y1930D02*
X3211D01*
X2809Y1925D02*
X2841D01*
X4311Y926D02*
X4343D01*
X4611D02*
X4643D01*
X4511Y1106D02*
X4543D01*
X4611Y1106D02*
X4643D01*
X4200Y809D02*
Y841D01*
X4411Y926D02*
X4443D01*
X4200Y739D02*
Y771D01*
X2992Y920D02*
Y951D01*
X3396Y1176D02*
X3428D01*
X3786Y1156D02*
X3818D01*
X1834Y1472D02*
Y1504D01*
X3459Y1930D02*
X3491D01*
X3389D02*
X3421D01*
X4200Y534D02*
Y566D01*
Y604D02*
Y636D01*
X760Y269D02*
Y301D01*
Y349D02*
Y381D01*
X735Y1329D02*
Y1361D01*
X770Y974D02*
Y1006D01*
X1479Y605D02*
X1511D01*
X6260Y619D02*
Y651D01*
X3206Y1182D02*
X3238D01*
X3296Y1182D02*
X3328D01*
X1496Y1169D02*
Y1201D01*
X1434Y1169D02*
Y1201D01*
X4448Y1110D02*
Y1141D01*
X4386Y1110D02*
Y1141D01*
X2993Y720D02*
Y751D01*
X2931Y720D02*
Y751D01*
X3953Y970D02*
Y1001D01*
X3891Y970D02*
Y1001D01*
X1834Y1156D02*
X1866D01*
X1834Y1094D02*
X1866D01*
X1818Y1907D02*
X1849D01*
X1818Y1970D02*
X1849D01*
X1838Y1410D02*
X1869D01*
X1838Y1347D02*
X1869D01*
X4454Y359D02*
Y391D01*
X4516Y359D02*
Y391D01*
X3081Y1095D02*
Y1127D01*
X3143Y1095D02*
Y1127D01*
X3906Y1186D02*
X3938D01*
X3714Y1155D02*
X3746D01*
X5831Y1359D02*
Y1391D01*
X5769Y1359D02*
Y1391D01*
X5836Y359D02*
Y391D01*
X5774Y359D02*
Y391D01*
X4306Y229D02*
Y260D01*
X6860Y1177D02*
X6970D01*
X6860Y1057D02*
Y1177D01*
Y1057D02*
X6940D01*
X7380Y1177D02*
X7460D01*
Y1057D02*
Y1177D01*
X7350Y1057D02*
X7460D01*
X2374Y435D02*
X2405D01*
X2233Y346D02*
X2260D01*
X2233D02*
Y377D01*
Y432D02*
Y464D01*
X2260D01*
X1059Y499D02*
Y641D01*
X1161D01*
Y499D02*
Y641D01*
X1059Y499D02*
X1161D01*
X4862Y1768D02*
Y1831D01*
X4988Y1768D02*
Y1831D01*
X4663Y1760D02*
X4777D01*
X4663Y1754D02*
X4777D01*
X4663Y1748D02*
X4777D01*
X4663Y1742D02*
X4777D01*
Y1736D02*
Y1764D01*
X4663Y1736D02*
X4777D01*
X4663D02*
Y1764D01*
X4777D01*
X5059Y1531D02*
Y1657D01*
X5181D01*
Y1531D02*
Y1657D01*
X5059Y1531D02*
X5181D01*
X3529Y1930D02*
X3561D01*
X4799Y1636D02*
X4831D01*
X4799Y1574D02*
X4831D01*
X7333Y1460D02*
Y1588D01*
X7333Y1460D02*
X7597D01*
X7597D02*
Y1588D01*
X7333D02*
X7597D01*
X3569Y366D02*
Y606D01*
X3735Y366D02*
Y606D01*
X3569Y366D02*
X3735D01*
X3513Y703D02*
Y799D01*
X3391Y703D02*
Y799D01*
Y506D02*
Y608D01*
X3513Y506D02*
Y608D01*
X3409Y817D02*
X3495D01*
X3391Y799D02*
X3409Y817D01*
X3495D02*
X3513Y799D01*
X3391Y506D02*
X3513D01*
X3630Y1747D02*
X3659D01*
X3688D02*
X3717D01*
X3630Y1550D02*
X3717D01*
X3630D02*
Y1747D01*
X3717Y1550D02*
Y1747D01*
X382Y521D02*
X448D01*
X364Y503D02*
X382Y521D01*
X448D02*
X466Y503D01*
X364Y221D02*
Y328D01*
X466Y221D02*
Y328D01*
X364Y221D02*
X466D01*
X364Y402D02*
Y503D01*
X466Y402D02*
Y503D01*
X1950Y750D02*
X2750D01*
X1950Y650D02*
Y750D01*
Y650D02*
X2750D01*
Y750D01*
X7328Y218D02*
X7466D01*
X7328Y494D02*
X7466D01*
X7328Y218D02*
Y301D01*
Y411D02*
Y494D01*
X7466Y218D02*
Y301D01*
Y411D02*
Y494D01*
X3832Y489D02*
Y520D01*
X3769Y489D02*
Y520D01*
X982Y1825D02*
Y2015D01*
Y1825D02*
X1238D01*
Y2015D01*
X982D02*
X1238D01*
X6304Y1293D02*
X6333D01*
X6361D02*
X6390D01*
X6304Y899D02*
X6390D01*
X6304D02*
Y1293D01*
X6390Y899D02*
Y1293D01*
X2422Y1241D02*
Y1697D01*
X2851Y1697D02*
X2879Y1670D01*
X2422Y1697D02*
X2851Y1697D01*
X2422Y1241D02*
X2879D01*
X2879Y1670D02*
X2879Y1241D01*
X4313Y611D02*
Y640D01*
Y668D02*
Y697D01*
X4658Y611D02*
Y697D01*
X4313Y611D02*
X4658D01*
X4313Y697D02*
X4658D01*
X3607Y920D02*
X3807D01*
X3607Y782D02*
X3807D01*
Y920D01*
X3607Y871D02*
Y920D01*
Y782D02*
Y830D01*
X1742Y1652D02*
Y1681D01*
Y1709D02*
Y1738D01*
X1938Y1652D02*
Y1738D01*
X1742Y1652D02*
X1938D01*
X1742Y1738D02*
X1938D01*
X5632Y600D02*
Y671D01*
X5978D01*
Y600D02*
Y671D01*
X5632Y600D02*
X5978D01*
X2281Y877D02*
X2733D01*
X2281D02*
Y917D01*
Y1074D02*
X2733D01*
Y877D02*
Y917D01*
Y1035D02*
Y1074D01*
X2281Y1035D02*
Y1074D01*
X2704Y877D02*
Y917D01*
Y1035D02*
Y1074D01*
X3295Y1914D02*
Y1926D01*
X3245Y1914D02*
Y1926D01*
X1238Y1205D02*
Y1655D01*
X982D02*
X1238D01*
X982Y1205D02*
Y1655D01*
Y1205D02*
X1238D01*
D79*
X1032Y1102D02*
G03*
X1032Y1102I-12J0D01*
G01*
X1189Y266D02*
G03*
X1189Y266I-12J0D01*
G01*
X4999Y659D02*
G03*
X4999Y659I-12J0D01*
G01*
X5289D02*
G03*
X5289Y659I-12J0D01*
G01*
X5110Y1570D02*
G03*
X5110Y1570I-12J0D01*
G01*
X1052Y1970D02*
G03*
X1052Y1970I-12J0D01*
G01*
X1212Y1268D02*
G03*
X1212Y1268I-12J0D01*
G01*
D80*
X5658Y1615D02*
G03*
X5658Y1615I-6J0D01*
G01*
X5663Y625D02*
G03*
X5663Y625I-6J0D01*
G01*
D81*
X8235Y1901D02*
G03*
X8235Y1901I-10J0D01*
G01*
X172Y1078D02*
G03*
X172Y1078I-10J0D01*
G01*
X172Y231D02*
G03*
X172Y231I-10J0D01*
G01*
D82*
X2745Y97D02*
D03*
D83*
X1870Y375D02*
D03*
D84*
X4061Y1328D02*
D03*
M02*
