%FSLAX23Y23*%
%MOIN*%
G70*
G01*
G75*
G04 Layer_Color=32896*
%ADD10O,0.024X0.059*%
%ADD11O,0.018X0.067*%
%ADD12O,0.059X0.024*%
%ADD13R,0.071X0.051*%
%ADD14R,0.039X0.039*%
%ADD15R,0.039X0.035*%
%ADD16R,0.039X0.039*%
%ADD17R,0.080X0.050*%
%ADD18R,0.134X0.085*%
%ADD19R,0.041X0.085*%
%ADD20R,0.041X0.085*%
%ADD21R,0.106X0.071*%
%ADD22R,0.035X0.039*%
%ADD23O,0.024X0.087*%
%ADD24R,0.051X0.071*%
%ADD25R,0.047X0.047*%
%ADD26R,0.075X0.134*%
%ADD27O,0.024X0.087*%
%ADD28C,0.040*%
%ADD29R,0.016X0.049*%
%ADD30R,0.071X0.079*%
%ADD31R,0.079X0.031*%
%ADD32R,0.134X0.063*%
%ADD33R,0.026X0.041*%
%ADD34R,0.134X0.075*%
%ADD35R,0.091X0.091*%
%ADD36O,0.087X0.024*%
%ADD37O,0.087X0.024*%
%ADD38R,0.071X0.094*%
%ADD39R,0.084X0.052*%
%ADD40O,0.011X0.067*%
%ADD41O,0.067X0.011*%
%ADD42R,0.141X0.116*%
%ADD43O,0.012X0.047*%
%ADD44R,0.177X0.059*%
%ADD45C,0.008*%
%ADD46C,0.012*%
%ADD47C,0.010*%
%ADD48C,0.025*%
%ADD49C,0.020*%
%ADD50C,0.015*%
%ADD51C,0.012*%
%ADD52C,0.004*%
%ADD53C,0.004*%
%ADD54C,0.118*%
%ADD55C,0.125*%
%ADD56C,0.035*%
%ADD57C,0.118*%
%ADD58C,0.065*%
%ADD59R,0.065X0.065*%
%ADD60R,0.065X0.065*%
%ADD61C,0.039*%
%ADD62C,0.040*%
%ADD63C,0.158*%
%ADD64C,0.168*%
%ADD65C,0.056*%
%ADD66C,0.079*%
%ADD67C,0.079*%
%ADD68C,0.058*%
%ADD69C,0.060*%
%ADD70R,0.071X0.063*%
%ADD71R,0.063X0.071*%
%ADD72R,0.013X0.028*%
%ADD73R,0.018X0.040*%
%ADD74R,0.028X0.039*%
%ADD75C,0.039*%
%ADD76C,0.039*%
%ADD77C,0.010*%
%ADD78C,0.008*%
%ADD79C,0.024*%
%ADD80C,0.012*%
%ADD81C,0.020*%
%ADD82R,2.010X0.213*%
%ADD83R,0.560X0.250*%
%ADD84R,0.920X0.150*%
%ADD85C,0.008*%
D45*
X4895Y880D02*
Y960D01*
X5035Y880D02*
Y960D01*
X5185Y880D02*
Y960D01*
X5325Y880D02*
Y960D01*
X5035Y435D02*
Y515D01*
X4895Y435D02*
Y515D01*
X5191Y1830D02*
Y1910D01*
X5051Y1830D02*
Y1910D01*
X3530Y1230D02*
X3480D01*
X3530D02*
Y1251D01*
X3528Y1259D01*
X3525Y1261D01*
X3520Y1263D01*
X3516D01*
X3511Y1261D01*
X3509Y1259D01*
X3506Y1251D01*
Y1230D01*
Y1247D02*
X3480Y1263D01*
X3513Y1305D02*
X3506Y1303D01*
X3501Y1298D01*
X3499Y1291D01*
Y1289D01*
X3501Y1282D01*
X3506Y1277D01*
X3513Y1275D01*
X3516D01*
X3523Y1277D01*
X3528Y1282D01*
X3530Y1289D01*
Y1291D01*
X3528Y1298D01*
X3523Y1303D01*
X3513Y1305D01*
X3501D01*
X3490Y1303D01*
X3482Y1298D01*
X3480Y1291D01*
Y1286D01*
X3482Y1279D01*
X3487Y1277D01*
X3518Y1321D02*
X3520D01*
X3525Y1324D01*
X3528Y1326D01*
X3530Y1331D01*
Y1340D01*
X3528Y1345D01*
X3525Y1348D01*
X3520Y1350D01*
X3516D01*
X3511Y1348D01*
X3504Y1343D01*
X3480Y1319D01*
Y1352D01*
X3615Y1230D02*
X3565D01*
X3615D02*
Y1251D01*
X3613Y1259D01*
X3610Y1261D01*
X3605Y1263D01*
X3601D01*
X3596Y1261D01*
X3594Y1259D01*
X3591Y1251D01*
Y1230D01*
Y1247D02*
X3565Y1263D01*
X3598Y1305D02*
X3591Y1303D01*
X3586Y1298D01*
X3584Y1291D01*
Y1289D01*
X3586Y1282D01*
X3591Y1277D01*
X3598Y1275D01*
X3601D01*
X3608Y1277D01*
X3613Y1282D01*
X3615Y1289D01*
Y1291D01*
X3613Y1298D01*
X3608Y1303D01*
X3598Y1305D01*
X3586D01*
X3575Y1303D01*
X3567Y1298D01*
X3565Y1291D01*
Y1286D01*
X3567Y1279D01*
X3572Y1277D01*
X3615Y1324D02*
Y1350D01*
X3596Y1336D01*
Y1343D01*
X3594Y1348D01*
X3591Y1350D01*
X3584Y1352D01*
X3579D01*
X3572Y1350D01*
X3567Y1345D01*
X3565Y1338D01*
Y1331D01*
X3567Y1324D01*
X3570Y1321D01*
X3575Y1319D01*
X3672Y1310D02*
X3677Y1307D01*
X3682Y1303D01*
X3684Y1298D01*
Y1288D01*
X3682Y1284D01*
X3677Y1279D01*
X3672Y1276D01*
X3665Y1274D01*
X3653D01*
X3646Y1276D01*
X3641Y1279D01*
X3636Y1284D01*
X3634Y1288D01*
Y1298D01*
X3636Y1303D01*
X3641Y1307D01*
X3646Y1310D01*
X3684Y1348D02*
X3651Y1324D01*
Y1359D01*
X3684Y1348D02*
X3634D01*
X3684Y1397D02*
Y1373D01*
X3663Y1371D01*
X3665Y1373D01*
X3667Y1380D01*
Y1387D01*
X3665Y1394D01*
X3660Y1399D01*
X3653Y1402D01*
X3648D01*
X3641Y1399D01*
X3636Y1394D01*
X3634Y1387D01*
Y1380D01*
X3636Y1373D01*
X3639Y1371D01*
X3644Y1368D01*
X7610Y485D02*
X7560D01*
X7610D02*
Y516D01*
X7586Y485D02*
Y504D01*
X7600Y522D02*
X7603Y526D01*
X7610Y534D01*
X7560D01*
X7600Y558D02*
X7603Y563D01*
X7610Y570D01*
X7560D01*
X7305Y1978D02*
X7255D01*
X7305D02*
Y2009D01*
X7281Y1978D02*
Y1997D01*
X7295Y2015D02*
X7298Y2019D01*
X7305Y2027D01*
X7255D01*
X7305Y2066D02*
X7303Y2058D01*
X7295Y2054D01*
X7284Y2051D01*
X7276D01*
X7265Y2054D01*
X7257Y2058D01*
X7255Y2066D01*
Y2070D01*
X7257Y2078D01*
X7265Y2082D01*
X7276Y2085D01*
X7284D01*
X7295Y2082D01*
X7303Y2078D01*
X7305Y2070D01*
Y2066D01*
X7810Y485D02*
X7760D01*
X7810D02*
Y516D01*
X7786Y485D02*
Y504D01*
X7793Y553D02*
X7786Y550D01*
X7781Y545D01*
X7779Y538D01*
Y536D01*
X7781Y529D01*
X7786Y524D01*
X7793Y522D01*
X7796D01*
X7803Y524D01*
X7808Y529D01*
X7810Y536D01*
Y538D01*
X7808Y545D01*
X7803Y550D01*
X7793Y553D01*
X7781D01*
X7770Y550D01*
X7762Y545D01*
X7760Y538D01*
Y534D01*
X7762Y526D01*
X7767Y524D01*
X7807Y1981D02*
X7757D01*
X7807D02*
Y2012D01*
X7783Y1981D02*
Y2000D01*
X7807Y2030D02*
X7805Y2022D01*
X7800Y2020D01*
X7795D01*
X7790Y2022D01*
X7788Y2027D01*
X7786Y2037D01*
X7783Y2044D01*
X7778Y2049D01*
X7774Y2051D01*
X7767D01*
X7762Y2049D01*
X7759Y2046D01*
X7757Y2039D01*
Y2030D01*
X7759Y2022D01*
X7762Y2020D01*
X7767Y2018D01*
X7774D01*
X7778Y2020D01*
X7783Y2025D01*
X7786Y2032D01*
X7788Y2041D01*
X7790Y2046D01*
X7795Y2049D01*
X7800D01*
X7805Y2046D01*
X7807Y2039D01*
Y2030D01*
X7230Y485D02*
X7180D01*
X7230D02*
Y516D01*
X7206Y485D02*
Y504D01*
X7230Y555D02*
X7180Y531D01*
X7230Y522D02*
Y555D01*
X6725Y480D02*
X6675D01*
X6725D02*
Y511D01*
X6701Y480D02*
Y499D01*
X6718Y545D02*
X6723Y543D01*
X6725Y536D01*
Y531D01*
X6723Y524D01*
X6715Y519D01*
X6704Y517D01*
X6692D01*
X6682Y519D01*
X6677Y524D01*
X6675Y531D01*
Y533D01*
X6677Y540D01*
X6682Y545D01*
X6689Y548D01*
X6692D01*
X6699Y545D01*
X6704Y540D01*
X6706Y533D01*
Y531D01*
X6704Y524D01*
X6699Y519D01*
X6692Y517D01*
X6721Y1978D02*
X6671D01*
X6721D02*
Y2009D01*
X6697Y1978D02*
Y1997D01*
X6721Y2043D02*
Y2019D01*
X6700Y2017D01*
X6702Y2019D01*
X6704Y2027D01*
Y2034D01*
X6702Y2041D01*
X6697Y2046D01*
X6690Y2048D01*
X6685D01*
X6678Y2046D01*
X6673Y2041D01*
X6671Y2034D01*
Y2027D01*
X6673Y2019D01*
X6676Y2017D01*
X6681Y2015D01*
X7050Y480D02*
X7000D01*
X7050D02*
Y511D01*
X7026Y480D02*
Y499D01*
X7050Y540D02*
X7017Y517D01*
Y552D01*
X7050Y540D02*
X7000D01*
X7041Y1978D02*
X6991D01*
X7041D02*
Y2009D01*
X7017Y1978D02*
Y1997D01*
X7041Y2019D02*
Y2046D01*
X7022Y2031D01*
Y2038D01*
X7020Y2043D01*
X7017Y2046D01*
X7010Y2048D01*
X7005D01*
X6998Y2046D01*
X6993Y2041D01*
X6991Y2034D01*
Y2027D01*
X6993Y2019D01*
X6996Y2017D01*
X7001Y2015D01*
X7415Y485D02*
X7365D01*
X7415D02*
Y516D01*
X7391Y485D02*
Y504D01*
X7403Y524D02*
X7405D01*
X7410Y526D01*
X7413Y529D01*
X7415Y534D01*
Y543D01*
X7413Y548D01*
X7410Y550D01*
X7405Y553D01*
X7401D01*
X7396Y550D01*
X7389Y545D01*
X7365Y522D01*
Y555D01*
X7629Y1980D02*
X7579D01*
X7629D02*
Y2011D01*
X7605Y1980D02*
Y1999D01*
X7619Y2017D02*
X7622Y2021D01*
X7629Y2029D01*
X7579D01*
X7510Y1760D02*
Y1710D01*
Y1760D02*
X7493D01*
X7486Y1758D01*
X7481Y1753D01*
X7479Y1748D01*
X7477Y1741D01*
Y1729D01*
X7479Y1722D01*
X7481Y1717D01*
X7486Y1712D01*
X7493Y1710D01*
X7510D01*
X7463Y1748D02*
Y1750D01*
X7461Y1755D01*
X7458Y1758D01*
X7454Y1760D01*
X7444D01*
X7439Y1758D01*
X7437Y1755D01*
X7435Y1750D01*
Y1746D01*
X7437Y1741D01*
X7442Y1734D01*
X7465Y1710D01*
X7432D01*
X7419Y1748D02*
Y1750D01*
X7416Y1755D01*
X7414Y1758D01*
X7409Y1760D01*
X7400D01*
X7395Y1758D01*
X7392Y1755D01*
X7390Y1750D01*
Y1746D01*
X7392Y1741D01*
X7397Y1734D01*
X7421Y1710D01*
X7388D01*
X7401Y1406D02*
Y1356D01*
Y1406D02*
X7384D01*
X7377Y1404D01*
X7372Y1399D01*
X7370Y1394D01*
X7368Y1387D01*
Y1375D01*
X7370Y1368D01*
X7372Y1363D01*
X7377Y1358D01*
X7384Y1356D01*
X7401D01*
X7354Y1394D02*
Y1396D01*
X7352Y1401D01*
X7349Y1404D01*
X7345Y1406D01*
X7335D01*
X7330Y1404D01*
X7328Y1401D01*
X7326Y1396D01*
Y1392D01*
X7328Y1387D01*
X7333Y1380D01*
X7356Y1356D01*
X7323D01*
X7312Y1396D02*
X7307Y1399D01*
X7300Y1406D01*
Y1356D01*
X6700Y670D02*
Y620D01*
Y670D02*
X6683D01*
X6676Y668D01*
X6671Y663D01*
X6669Y658D01*
X6667Y651D01*
Y639D01*
X6669Y632D01*
X6671Y627D01*
X6676Y622D01*
X6683Y620D01*
X6700D01*
X6655Y660D02*
X6651Y663D01*
X6644Y670D01*
Y620D01*
X6590Y663D02*
X6593Y668D01*
X6600Y670D01*
X6605D01*
X6612Y668D01*
X6616Y660D01*
X6619Y649D01*
Y637D01*
X6616Y627D01*
X6612Y622D01*
X6605Y620D01*
X6602D01*
X6595Y622D01*
X6590Y627D01*
X6588Y634D01*
Y637D01*
X6590Y644D01*
X6595Y649D01*
X6602Y651D01*
X6605D01*
X6612Y649D01*
X6616Y644D01*
X6619Y637D01*
X7128Y639D02*
Y589D01*
Y639D02*
X7111D01*
X7104Y637D01*
X7099Y632D01*
X7097Y627D01*
X7095Y620D01*
Y608D01*
X7097Y601D01*
X7099Y596D01*
X7104Y591D01*
X7111Y589D01*
X7128D01*
X7083Y629D02*
X7079Y632D01*
X7072Y639D01*
Y589D01*
X7018Y639D02*
X7042D01*
X7044Y618D01*
X7042Y620D01*
X7035Y622D01*
X7028D01*
X7021Y620D01*
X7016Y615D01*
X7014Y608D01*
Y603D01*
X7016Y596D01*
X7021Y591D01*
X7028Y589D01*
X7035D01*
X7042Y591D01*
X7044Y594D01*
X7047Y599D01*
X2378Y1786D02*
X2383Y1783D01*
X2388Y1779D01*
X2390Y1774D01*
Y1764D01*
X2388Y1760D01*
X2383Y1755D01*
X2378Y1752D01*
X2371Y1750D01*
X2359D01*
X2352Y1752D01*
X2347Y1755D01*
X2342Y1760D01*
X2340Y1764D01*
Y1774D01*
X2342Y1779D01*
X2347Y1783D01*
X2352Y1786D01*
X2390Y1805D02*
Y1831D01*
X2371Y1816D01*
Y1824D01*
X2369Y1828D01*
X2366Y1831D01*
X2359Y1833D01*
X2354D01*
X2347Y1831D01*
X2342Y1826D01*
X2340Y1819D01*
Y1812D01*
X2342Y1805D01*
X2345Y1802D01*
X2350Y1800D01*
X2390Y1878D02*
X2340Y1854D01*
X2390Y1844D02*
Y1878D01*
X2734Y1518D02*
X2737Y1523D01*
X2741Y1528D01*
X2746Y1530D01*
X2756D01*
X2760Y1528D01*
X2765Y1523D01*
X2768Y1518D01*
X2770Y1511D01*
Y1499D01*
X2768Y1492D01*
X2765Y1487D01*
X2760Y1482D01*
X2756Y1480D01*
X2746D01*
X2741Y1482D01*
X2737Y1487D01*
X2734Y1492D01*
X2696Y1530D02*
X2720Y1497D01*
X2685D01*
X2696Y1530D02*
Y1480D01*
X2671Y1530D02*
X2645D01*
X2659Y1511D01*
X2652D01*
X2647Y1509D01*
X2645Y1506D01*
X2642Y1499D01*
Y1494D01*
X2645Y1487D01*
X2650Y1482D01*
X2657Y1480D01*
X2664D01*
X2671Y1482D01*
X2673Y1485D01*
X2676Y1490D01*
X2099Y1858D02*
X2102Y1863D01*
X2106Y1868D01*
X2111Y1870D01*
X2121D01*
X2125Y1868D01*
X2130Y1863D01*
X2133Y1858D01*
X2135Y1851D01*
Y1839D01*
X2133Y1832D01*
X2130Y1827D01*
X2125Y1822D01*
X2121Y1820D01*
X2111D01*
X2106Y1822D01*
X2102Y1827D01*
X2099Y1832D01*
X2080Y1870D02*
X2054D01*
X2069Y1851D01*
X2061D01*
X2057Y1849D01*
X2054Y1846D01*
X2052Y1839D01*
Y1834D01*
X2054Y1827D01*
X2059Y1822D01*
X2066Y1820D01*
X2073D01*
X2080Y1822D01*
X2083Y1825D01*
X2085Y1830D01*
X2036Y1870D02*
X2010D01*
X2024Y1851D01*
X2017D01*
X2012Y1849D01*
X2010Y1846D01*
X2007Y1839D01*
Y1834D01*
X2010Y1827D01*
X2015Y1822D01*
X2022Y1820D01*
X2029D01*
X2036Y1822D01*
X2038Y1825D01*
X2041Y1830D01*
X2039Y1701D02*
X2042Y1706D01*
X2046Y1711D01*
X2051Y1713D01*
X2061D01*
X2065Y1711D01*
X2070Y1706D01*
X2073Y1701D01*
X2075Y1694D01*
Y1682D01*
X2073Y1675D01*
X2070Y1670D01*
X2065Y1665D01*
X2061Y1663D01*
X2051D01*
X2046Y1665D01*
X2042Y1670D01*
X2039Y1675D01*
X2020Y1713D02*
X1994D01*
X2009Y1694D01*
X2001D01*
X1997Y1692D01*
X1994Y1689D01*
X1992Y1682D01*
Y1677D01*
X1994Y1670D01*
X1999Y1665D01*
X2006Y1663D01*
X2013D01*
X2020Y1665D01*
X2023Y1668D01*
X2025Y1673D01*
X1957Y1713D02*
X1981Y1680D01*
X1945D01*
X1957Y1713D02*
Y1663D01*
X8761Y697D02*
Y647D01*
Y697D02*
X8739D01*
X8732Y694D01*
X8730Y692D01*
X8728Y687D01*
Y682D01*
X8730Y678D01*
X8732Y675D01*
X8739Y673D01*
X8761D01*
X8744D02*
X8728Y647D01*
X8716Y687D02*
X8712Y690D01*
X8704Y697D01*
Y647D01*
X8651Y690D02*
X8653Y694D01*
X8661Y697D01*
X8665D01*
X8673Y694D01*
X8677Y687D01*
X8680Y675D01*
Y663D01*
X8677Y654D01*
X8673Y649D01*
X8665Y647D01*
X8663D01*
X8656Y649D01*
X8651Y654D01*
X8649Y661D01*
Y663D01*
X8651Y670D01*
X8656Y675D01*
X8663Y678D01*
X8665D01*
X8673Y675D01*
X8677Y670D01*
X8680Y663D01*
X8607Y680D02*
X8609Y673D01*
X8614Y668D01*
X8621Y666D01*
X8623D01*
X8631Y668D01*
X8635Y673D01*
X8638Y680D01*
Y682D01*
X8635Y690D01*
X8631Y694D01*
X8623Y697D01*
X8621D01*
X8614Y694D01*
X8609Y690D01*
X8607Y680D01*
Y668D01*
X8609Y656D01*
X8614Y649D01*
X8621Y647D01*
X8626D01*
X8633Y649D01*
X8635Y654D01*
X8761Y836D02*
Y786D01*
Y836D02*
X8739D01*
X8732Y834D01*
X8730Y832D01*
X8728Y827D01*
Y822D01*
X8730Y817D01*
X8732Y815D01*
X8739Y813D01*
X8761D01*
X8744D02*
X8728Y786D01*
X8716Y827D02*
X8712Y829D01*
X8704Y836D01*
Y786D01*
X8651Y829D02*
X8653Y834D01*
X8661Y836D01*
X8665D01*
X8673Y834D01*
X8677Y827D01*
X8680Y815D01*
Y803D01*
X8677Y794D01*
X8673Y789D01*
X8665Y786D01*
X8663D01*
X8656Y789D01*
X8651Y794D01*
X8649Y801D01*
Y803D01*
X8651Y810D01*
X8656Y815D01*
X8663Y817D01*
X8665D01*
X8673Y815D01*
X8677Y810D01*
X8680Y803D01*
X8626Y836D02*
X8633Y834D01*
X8635Y829D01*
Y825D01*
X8633Y820D01*
X8628Y817D01*
X8619Y815D01*
X8612Y813D01*
X8607Y808D01*
X8604Y803D01*
Y796D01*
X8607Y791D01*
X8609Y789D01*
X8616Y786D01*
X8626D01*
X8633Y789D01*
X8635Y791D01*
X8638Y796D01*
Y803D01*
X8635Y808D01*
X8631Y813D01*
X8623Y815D01*
X8614Y817D01*
X8609Y820D01*
X8607Y825D01*
Y829D01*
X8609Y834D01*
X8616Y836D01*
X8626D01*
X8761Y968D02*
Y918D01*
Y968D02*
X8739D01*
X8732Y966D01*
X8730Y964D01*
X8728Y959D01*
Y954D01*
X8730Y949D01*
X8732Y947D01*
X8739Y944D01*
X8761D01*
X8744D02*
X8728Y918D01*
X8716Y959D02*
X8712Y961D01*
X8704Y968D01*
Y918D01*
X8651Y961D02*
X8653Y966D01*
X8661Y968D01*
X8665D01*
X8673Y966D01*
X8677Y959D01*
X8680Y947D01*
Y935D01*
X8677Y925D01*
X8673Y921D01*
X8665Y918D01*
X8663D01*
X8656Y921D01*
X8651Y925D01*
X8649Y933D01*
Y935D01*
X8651Y942D01*
X8656Y947D01*
X8663Y949D01*
X8665D01*
X8673Y947D01*
X8677Y942D01*
X8680Y935D01*
X8604Y968D02*
X8628Y918D01*
X8638Y968D02*
X8604D01*
X8761Y1162D02*
Y1112D01*
Y1162D02*
X8739D01*
X8732Y1160D01*
X8730Y1157D01*
X8728Y1153D01*
Y1148D01*
X8730Y1143D01*
X8732Y1141D01*
X8739Y1138D01*
X8761D01*
X8744D02*
X8728Y1112D01*
X8716Y1153D02*
X8712Y1155D01*
X8704Y1162D01*
Y1112D01*
X8651Y1155D02*
X8653Y1160D01*
X8661Y1162D01*
X8665D01*
X8673Y1160D01*
X8677Y1153D01*
X8680Y1141D01*
Y1129D01*
X8677Y1119D01*
X8673Y1115D01*
X8665Y1112D01*
X8663D01*
X8656Y1115D01*
X8651Y1119D01*
X8649Y1126D01*
Y1129D01*
X8651Y1136D01*
X8656Y1141D01*
X8663Y1143D01*
X8665D01*
X8673Y1141D01*
X8677Y1136D01*
X8680Y1129D01*
X8609Y1155D02*
X8612Y1160D01*
X8619Y1162D01*
X8623D01*
X8631Y1160D01*
X8635Y1153D01*
X8638Y1141D01*
Y1129D01*
X8635Y1119D01*
X8631Y1115D01*
X8623Y1112D01*
X8621D01*
X8614Y1115D01*
X8609Y1119D01*
X8607Y1126D01*
Y1129D01*
X8609Y1136D01*
X8614Y1141D01*
X8621Y1143D01*
X8623D01*
X8631Y1141D01*
X8635Y1136D01*
X8638Y1129D01*
X8767Y1302D02*
Y1252D01*
Y1302D02*
X8745D01*
X8738Y1300D01*
X8736Y1297D01*
X8733Y1292D01*
Y1288D01*
X8736Y1283D01*
X8738Y1281D01*
X8745Y1278D01*
X8767D01*
X8750D02*
X8733Y1252D01*
X8722Y1292D02*
X8717Y1295D01*
X8710Y1302D01*
Y1252D01*
X8657Y1295D02*
X8659Y1300D01*
X8667Y1302D01*
X8671D01*
X8678Y1300D01*
X8683Y1292D01*
X8686Y1281D01*
Y1269D01*
X8683Y1259D01*
X8678Y1254D01*
X8671Y1252D01*
X8669D01*
X8662Y1254D01*
X8657Y1259D01*
X8655Y1266D01*
Y1269D01*
X8657Y1276D01*
X8662Y1281D01*
X8669Y1283D01*
X8671D01*
X8678Y1281D01*
X8683Y1276D01*
X8686Y1269D01*
X8615Y1302D02*
X8639D01*
X8641Y1281D01*
X8639Y1283D01*
X8632Y1285D01*
X8625D01*
X8617Y1283D01*
X8613Y1278D01*
X8610Y1271D01*
Y1266D01*
X8613Y1259D01*
X8617Y1254D01*
X8625Y1252D01*
X8632D01*
X8639Y1254D01*
X8641Y1257D01*
X8644Y1261D01*
X8761Y1440D02*
Y1390D01*
Y1440D02*
X8739D01*
X8732Y1437D01*
X8730Y1435D01*
X8728Y1430D01*
Y1425D01*
X8730Y1421D01*
X8732Y1418D01*
X8739Y1416D01*
X8761D01*
X8744D02*
X8728Y1390D01*
X8716Y1430D02*
X8712Y1433D01*
X8704Y1440D01*
Y1390D01*
X8651Y1433D02*
X8653Y1437D01*
X8661Y1440D01*
X8665D01*
X8673Y1437D01*
X8677Y1430D01*
X8680Y1418D01*
Y1406D01*
X8677Y1397D01*
X8673Y1392D01*
X8665Y1390D01*
X8663D01*
X8656Y1392D01*
X8651Y1397D01*
X8649Y1404D01*
Y1406D01*
X8651Y1414D01*
X8656Y1418D01*
X8663Y1421D01*
X8665D01*
X8673Y1418D01*
X8677Y1414D01*
X8680Y1406D01*
X8614Y1440D02*
X8638Y1406D01*
X8602D01*
X8614Y1440D02*
Y1390D01*
X2790Y1000D02*
Y950D01*
Y1000D02*
X2769D01*
X2761Y998D01*
X2759Y995D01*
X2757Y990D01*
Y986D01*
X2759Y981D01*
X2761Y979D01*
X2769Y976D01*
X2790D01*
X2773D02*
X2757Y950D01*
X2715Y983D02*
X2717Y976D01*
X2722Y971D01*
X2729Y969D01*
X2731D01*
X2738Y971D01*
X2743Y976D01*
X2745Y983D01*
Y986D01*
X2743Y993D01*
X2738Y998D01*
X2731Y1000D01*
X2729D01*
X2722Y998D01*
X2717Y993D01*
X2715Y983D01*
Y971D01*
X2717Y960D01*
X2722Y952D01*
X2729Y950D01*
X2734D01*
X2741Y952D01*
X2743Y957D01*
X2701Y990D02*
X2696Y993D01*
X2689Y1000D01*
Y950D01*
X7423Y899D02*
X7373D01*
X7423D02*
Y920D01*
X7421Y928D01*
X7418Y930D01*
X7413Y932D01*
X7409D01*
X7404Y930D01*
X7402Y928D01*
X7399Y920D01*
Y899D01*
Y916D02*
X7373Y932D01*
X7413Y944D02*
X7416Y948D01*
X7423Y955D01*
X7373D01*
X7423Y1009D02*
Y985D01*
X7402Y983D01*
X7404Y985D01*
X7406Y992D01*
Y999D01*
X7404Y1006D01*
X7399Y1011D01*
X7392Y1013D01*
X7387D01*
X7380Y1011D01*
X7375Y1006D01*
X7373Y999D01*
Y992D01*
X7375Y985D01*
X7378Y983D01*
X7383Y980D01*
X7423Y1039D02*
X7421Y1032D01*
X7413Y1027D01*
X7402Y1025D01*
X7394D01*
X7383Y1027D01*
X7375Y1032D01*
X7373Y1039D01*
Y1044D01*
X7375Y1051D01*
X7383Y1056D01*
X7394Y1058D01*
X7402D01*
X7413Y1056D01*
X7421Y1051D01*
X7423Y1044D01*
Y1039D01*
X6847Y1203D02*
X6797D01*
X6847D02*
Y1224D01*
X6845Y1232D01*
X6842Y1234D01*
X6837Y1236D01*
X6833D01*
X6828Y1234D01*
X6826Y1232D01*
X6823Y1224D01*
Y1203D01*
Y1220D02*
X6797Y1236D01*
X6837Y1248D02*
X6840Y1252D01*
X6847Y1259D01*
X6797D01*
X6847Y1289D02*
Y1315D01*
X6828Y1301D01*
Y1308D01*
X6826Y1313D01*
X6823Y1315D01*
X6816Y1317D01*
X6811D01*
X6804Y1315D01*
X6799Y1310D01*
X6797Y1303D01*
Y1296D01*
X6799Y1289D01*
X6802Y1287D01*
X6807Y1284D01*
X6830Y1360D02*
X6823Y1357D01*
X6818Y1352D01*
X6816Y1345D01*
Y1343D01*
X6818Y1336D01*
X6823Y1331D01*
X6830Y1329D01*
X6833D01*
X6840Y1331D01*
X6845Y1336D01*
X6847Y1343D01*
Y1345D01*
X6845Y1352D01*
X6840Y1357D01*
X6830Y1360D01*
X6818D01*
X6807Y1357D01*
X6799Y1352D01*
X6797Y1345D01*
Y1341D01*
X6799Y1333D01*
X6804Y1331D01*
X7041Y874D02*
X6991D01*
X7041D02*
Y895D01*
X7039Y903D01*
X7036Y905D01*
X7031Y907D01*
X7027D01*
X7022Y905D01*
X7020Y903D01*
X7017Y895D01*
Y874D01*
Y891D02*
X6991Y907D01*
X7031Y919D02*
X7034Y923D01*
X7041Y930D01*
X6991D01*
X7041Y979D02*
X7008Y955D01*
Y991D01*
X7041Y979D02*
X6991D01*
X7031Y1000D02*
X7034Y1004D01*
X7041Y1012D01*
X6991D01*
X6524Y1504D02*
X6474D01*
X6524D02*
Y1525D01*
X6522Y1533D01*
X6519Y1535D01*
X6514Y1537D01*
X6510D01*
X6505Y1535D01*
X6503Y1533D01*
X6500Y1525D01*
Y1504D01*
Y1521D02*
X6474Y1537D01*
X6514Y1549D02*
X6517Y1553D01*
X6524Y1560D01*
X6474D01*
X6524Y1590D02*
Y1616D01*
X6505Y1602D01*
Y1609D01*
X6503Y1614D01*
X6500Y1616D01*
X6493Y1618D01*
X6488D01*
X6481Y1616D01*
X6476Y1611D01*
X6474Y1604D01*
Y1597D01*
X6476Y1590D01*
X6479Y1588D01*
X6484Y1585D01*
X6524Y1653D02*
X6491Y1630D01*
Y1665D01*
X6524Y1653D02*
X6474D01*
X6725Y885D02*
X6675D01*
X6725D02*
Y906D01*
X6723Y914D01*
X6720Y916D01*
X6715Y918D01*
X6711D01*
X6706Y916D01*
X6704Y914D01*
X6701Y906D01*
Y885D01*
Y902D02*
X6675Y918D01*
X6715Y930D02*
X6718Y934D01*
X6725Y941D01*
X6675D01*
X6725Y971D02*
Y997D01*
X6706Y983D01*
Y990D01*
X6704Y995D01*
X6701Y997D01*
X6694Y999D01*
X6689D01*
X6682Y997D01*
X6677Y992D01*
X6675Y985D01*
Y978D01*
X6677Y971D01*
X6680Y969D01*
X6685Y966D01*
X6725Y1039D02*
Y1015D01*
X6704Y1013D01*
X6706Y1015D01*
X6708Y1023D01*
Y1030D01*
X6706Y1037D01*
X6701Y1042D01*
X6694Y1044D01*
X6689D01*
X6682Y1042D01*
X6677Y1037D01*
X6675Y1030D01*
Y1023D01*
X6677Y1015D01*
X6680Y1013D01*
X6685Y1011D01*
X7739Y1327D02*
X7689D01*
X7739D02*
Y1348D01*
X7737Y1356D01*
X7734Y1358D01*
X7730Y1360D01*
X7725D01*
X7720Y1358D01*
X7718Y1356D01*
X7715Y1348D01*
Y1327D01*
Y1344D02*
X7689Y1360D01*
X7730Y1372D02*
X7732Y1376D01*
X7739Y1383D01*
X7689D01*
X7739Y1437D02*
Y1413D01*
X7718Y1411D01*
X7720Y1413D01*
X7723Y1420D01*
Y1427D01*
X7720Y1434D01*
X7715Y1439D01*
X7708Y1441D01*
X7704D01*
X7696Y1439D01*
X7692Y1434D01*
X7689Y1427D01*
Y1420D01*
X7692Y1413D01*
X7694Y1411D01*
X7699Y1408D01*
X7723Y1484D02*
X7715Y1481D01*
X7711Y1476D01*
X7708Y1469D01*
Y1467D01*
X7711Y1460D01*
X7715Y1455D01*
X7723Y1453D01*
X7725D01*
X7732Y1455D01*
X7737Y1460D01*
X7739Y1467D01*
Y1469D01*
X7737Y1476D01*
X7732Y1481D01*
X7723Y1484D01*
X7711D01*
X7699Y1481D01*
X7692Y1476D01*
X7689Y1469D01*
Y1465D01*
X7692Y1457D01*
X7696Y1455D01*
X7809Y882D02*
X7759D01*
X7809D02*
Y903D01*
X7807Y911D01*
X7804Y913D01*
X7800Y915D01*
X7795D01*
X7790Y913D01*
X7788Y911D01*
X7785Y903D01*
Y882D01*
Y899D02*
X7759Y915D01*
X7800Y927D02*
X7802Y931D01*
X7809Y938D01*
X7759D01*
X7802Y992D02*
X7807Y989D01*
X7809Y982D01*
Y977D01*
X7807Y970D01*
X7800Y966D01*
X7788Y963D01*
X7776D01*
X7766Y966D01*
X7762Y970D01*
X7759Y977D01*
Y980D01*
X7762Y987D01*
X7766Y992D01*
X7774Y994D01*
X7776D01*
X7783Y992D01*
X7788Y987D01*
X7790Y980D01*
Y977D01*
X7788Y970D01*
X7783Y966D01*
X7776Y963D01*
X7809Y1019D02*
X7807Y1012D01*
X7800Y1007D01*
X7788Y1005D01*
X7781D01*
X7769Y1007D01*
X7762Y1012D01*
X7759Y1019D01*
Y1024D01*
X7762Y1031D01*
X7769Y1036D01*
X7781Y1038D01*
X7788D01*
X7800Y1036D01*
X7807Y1031D01*
X7809Y1024D01*
Y1019D01*
X7115Y1292D02*
X7065D01*
X7115D02*
Y1313D01*
X7113Y1321D01*
X7110Y1323D01*
X7105Y1325D01*
X7101D01*
X7096Y1323D01*
X7094Y1321D01*
X7091Y1313D01*
Y1292D01*
Y1309D02*
X7065Y1325D01*
X7105Y1337D02*
X7108Y1341D01*
X7115Y1348D01*
X7065D01*
X7115Y1402D02*
Y1378D01*
X7094Y1376D01*
X7096Y1378D01*
X7098Y1385D01*
Y1392D01*
X7096Y1399D01*
X7091Y1404D01*
X7084Y1406D01*
X7079D01*
X7072Y1404D01*
X7067Y1399D01*
X7065Y1392D01*
Y1385D01*
X7067Y1378D01*
X7070Y1376D01*
X7075Y1373D01*
X7115Y1441D02*
X7082Y1418D01*
Y1453D01*
X7115Y1441D02*
X7065D01*
X2589Y1158D02*
X2592Y1163D01*
X2596Y1168D01*
X2601Y1170D01*
X2611D01*
X2615Y1168D01*
X2620Y1163D01*
X2623Y1158D01*
X2625Y1151D01*
Y1139D01*
X2623Y1132D01*
X2620Y1127D01*
X2615Y1122D01*
X2611Y1120D01*
X2601D01*
X2596Y1122D01*
X2592Y1127D01*
X2589Y1132D01*
X2551Y1170D02*
X2575Y1137D01*
X2540D01*
X2551Y1170D02*
Y1120D01*
X2531Y1160D02*
X2526Y1163D01*
X2519Y1170D01*
Y1120D01*
X2974Y1423D02*
X2977Y1428D01*
X2981Y1433D01*
X2986Y1435D01*
X2996D01*
X3000Y1433D01*
X3005Y1428D01*
X3008Y1423D01*
X3010Y1416D01*
Y1404D01*
X3008Y1397D01*
X3005Y1392D01*
X3000Y1387D01*
X2996Y1385D01*
X2986D01*
X2981Y1387D01*
X2977Y1392D01*
X2974Y1397D01*
X2936Y1435D02*
X2960Y1402D01*
X2925D01*
X2936Y1435D02*
Y1385D01*
X2892Y1435D02*
X2916Y1402D01*
X2880D01*
X2892Y1435D02*
Y1385D01*
X2323Y1446D02*
X2328Y1443D01*
X2333Y1439D01*
X2335Y1434D01*
Y1424D01*
X2333Y1420D01*
X2328Y1415D01*
X2323Y1412D01*
X2316Y1410D01*
X2304D01*
X2297Y1412D01*
X2292Y1415D01*
X2287Y1420D01*
X2285Y1424D01*
Y1434D01*
X2287Y1439D01*
X2292Y1443D01*
X2297Y1446D01*
X2335Y1465D02*
Y1491D01*
X2316Y1476D01*
Y1484D01*
X2314Y1488D01*
X2311Y1491D01*
X2304Y1493D01*
X2299D01*
X2292Y1491D01*
X2287Y1486D01*
X2285Y1479D01*
Y1472D01*
X2287Y1465D01*
X2290Y1462D01*
X2295Y1460D01*
X2335Y1516D02*
X2333Y1509D01*
X2328Y1507D01*
X2323D01*
X2318Y1509D01*
X2316Y1514D01*
X2314Y1523D01*
X2311Y1530D01*
X2306Y1535D01*
X2302Y1538D01*
X2295D01*
X2290Y1535D01*
X2287Y1533D01*
X2285Y1526D01*
Y1516D01*
X2287Y1509D01*
X2290Y1507D01*
X2295Y1504D01*
X2302D01*
X2306Y1507D01*
X2311Y1511D01*
X2314Y1519D01*
X2316Y1528D01*
X2318Y1533D01*
X2323Y1535D01*
X2328D01*
X2333Y1533D01*
X2335Y1526D01*
Y1516D01*
X2509Y1783D02*
X2512Y1788D01*
X2516Y1793D01*
X2521Y1795D01*
X2531D01*
X2535Y1793D01*
X2540Y1788D01*
X2543Y1783D01*
X2545Y1776D01*
Y1764D01*
X2543Y1757D01*
X2540Y1752D01*
X2535Y1747D01*
X2531Y1745D01*
X2521D01*
X2516Y1747D01*
X2512Y1752D01*
X2509Y1757D01*
X2471Y1795D02*
X2495Y1762D01*
X2460D01*
X2471Y1795D02*
Y1745D01*
X2436Y1795D02*
X2444Y1793D01*
X2448Y1785D01*
X2451Y1774D01*
Y1766D01*
X2448Y1755D01*
X2444Y1747D01*
X2436Y1745D01*
X2432D01*
X2425Y1747D01*
X2420Y1755D01*
X2417Y1766D01*
Y1774D01*
X2420Y1785D01*
X2425Y1793D01*
X2432Y1795D01*
X2436D01*
X2643Y851D02*
X2646Y856D01*
X2650Y861D01*
X2655Y863D01*
X2665D01*
X2669Y861D01*
X2674Y856D01*
X2677Y851D01*
X2679Y844D01*
Y832D01*
X2677Y825D01*
X2674Y820D01*
X2669Y815D01*
X2665Y813D01*
X2655D01*
X2650Y815D01*
X2646Y820D01*
X2643Y825D01*
X2605Y863D02*
X2629Y830D01*
X2594D01*
X2605Y863D02*
Y813D01*
X2582Y851D02*
Y853D01*
X2580Y858D01*
X2578Y861D01*
X2573Y863D01*
X2563D01*
X2559Y861D01*
X2556Y858D01*
X2554Y853D01*
Y849D01*
X2556Y844D01*
X2561Y837D01*
X2585Y813D01*
X2551D01*
X2298Y988D02*
X2301Y993D01*
X2305Y998D01*
X2310Y1000D01*
X2320D01*
X2324Y998D01*
X2329Y993D01*
X2332Y988D01*
X2334Y981D01*
Y969D01*
X2332Y962D01*
X2329Y957D01*
X2324Y952D01*
X2320Y950D01*
X2310D01*
X2305Y952D01*
X2301Y957D01*
X2298Y962D01*
X2279Y1000D02*
X2253D01*
X2268Y981D01*
X2260D01*
X2256Y979D01*
X2253Y976D01*
X2251Y969D01*
Y964D01*
X2253Y957D01*
X2258Y952D01*
X2265Y950D01*
X2272D01*
X2279Y952D01*
X2282Y955D01*
X2284Y960D01*
X2209Y983D02*
X2211Y976D01*
X2216Y971D01*
X2223Y969D01*
X2225D01*
X2233Y971D01*
X2237Y976D01*
X2240Y983D01*
Y986D01*
X2237Y993D01*
X2233Y998D01*
X2225Y1000D01*
X2223D01*
X2216Y998D01*
X2211Y993D01*
X2209Y983D01*
Y971D01*
X2211Y960D01*
X2216Y952D01*
X2223Y950D01*
X2228D01*
X2235Y952D01*
X2237Y957D01*
X983Y542D02*
Y507D01*
X981Y500D01*
X976Y495D01*
X969Y493D01*
X964D01*
X957Y495D01*
X952Y500D01*
X950Y507D01*
Y542D01*
X936Y533D02*
X931Y535D01*
X924Y542D01*
Y493D01*
X876Y542D02*
X900Y509D01*
X864D01*
X876Y542D02*
Y493D01*
X848Y296D02*
X853Y293D01*
X858Y289D01*
X860Y284D01*
Y274D01*
X858Y270D01*
X853Y265D01*
X848Y262D01*
X841Y260D01*
X829D01*
X822Y262D01*
X817Y265D01*
X812Y270D01*
X810Y274D01*
Y284D01*
X812Y289D01*
X817Y293D01*
X822Y296D01*
X860Y315D02*
Y341D01*
X841Y326D01*
Y334D01*
X839Y338D01*
X836Y341D01*
X829Y343D01*
X824D01*
X817Y341D01*
X812Y336D01*
X810Y329D01*
Y322D01*
X812Y315D01*
X815Y312D01*
X820Y310D01*
X848Y357D02*
X850D01*
X855Y359D01*
X858Y361D01*
X860Y366D01*
Y376D01*
X858Y380D01*
X855Y383D01*
X850Y385D01*
X846D01*
X841Y383D01*
X834Y378D01*
X810Y354D01*
Y388D01*
X781Y805D02*
X784Y810D01*
X788Y815D01*
X793Y817D01*
X803D01*
X807Y815D01*
X812Y810D01*
X815Y805D01*
X817Y798D01*
Y786D01*
X815Y779D01*
X812Y774D01*
X807Y769D01*
X803Y767D01*
X793D01*
X788Y769D01*
X784Y774D01*
X781Y779D01*
X762Y817D02*
X736D01*
X751Y798D01*
X743D01*
X739Y796D01*
X736Y793D01*
X734Y786D01*
Y781D01*
X736Y774D01*
X741Y769D01*
X748Y767D01*
X755D01*
X762Y769D01*
X765Y772D01*
X767Y777D01*
X723Y807D02*
X718Y810D01*
X711Y817D01*
Y767D01*
X7263Y1504D02*
X7213D01*
X7263D02*
Y1525D01*
X7261Y1533D01*
X7258Y1535D01*
X7253Y1537D01*
X7249D01*
X7244Y1535D01*
X7242Y1533D01*
X7239Y1525D01*
Y1504D01*
Y1521D02*
X7213Y1537D01*
X7253Y1549D02*
X7256Y1553D01*
X7263Y1560D01*
X7213D01*
X7263Y1614D02*
Y1590D01*
X7242Y1588D01*
X7244Y1590D01*
X7246Y1597D01*
Y1604D01*
X7244Y1611D01*
X7239Y1616D01*
X7232Y1618D01*
X7227D01*
X7220Y1616D01*
X7215Y1611D01*
X7213Y1604D01*
Y1597D01*
X7215Y1590D01*
X7218Y1588D01*
X7223Y1585D01*
X7263Y1634D02*
Y1661D01*
X7244Y1646D01*
Y1653D01*
X7242Y1658D01*
X7239Y1661D01*
X7232Y1663D01*
X7227D01*
X7220Y1661D01*
X7215Y1656D01*
X7213Y1649D01*
Y1642D01*
X7215Y1634D01*
X7218Y1632D01*
X7223Y1630D01*
X7714Y592D02*
X7664D01*
X7714D02*
Y613D01*
X7712Y621D01*
X7709Y623D01*
X7705Y625D01*
X7700D01*
X7695Y623D01*
X7693Y621D01*
X7690Y613D01*
Y592D01*
Y609D02*
X7664Y625D01*
X7705Y637D02*
X7707Y641D01*
X7714Y648D01*
X7664D01*
X7707Y702D02*
X7712Y699D01*
X7714Y692D01*
Y687D01*
X7712Y680D01*
X7705Y676D01*
X7693Y673D01*
X7681D01*
X7671Y676D01*
X7667Y680D01*
X7664Y687D01*
Y690D01*
X7667Y697D01*
X7671Y702D01*
X7679Y704D01*
X7681D01*
X7688Y702D01*
X7693Y697D01*
X7695Y690D01*
Y687D01*
X7693Y680D01*
X7688Y676D01*
X7681Y673D01*
X7705Y715D02*
X7707Y720D01*
X7714Y727D01*
X7664D01*
X7959Y1357D02*
X7909D01*
X7959D02*
Y1378D01*
X7957Y1386D01*
X7954Y1388D01*
X7950Y1390D01*
X7945D01*
X7940Y1388D01*
X7938Y1386D01*
X7935Y1378D01*
Y1357D01*
Y1374D02*
X7909Y1390D01*
X7950Y1402D02*
X7952Y1406D01*
X7959Y1413D01*
X7909D01*
X7959Y1467D02*
Y1443D01*
X7938Y1441D01*
X7940Y1443D01*
X7943Y1450D01*
Y1457D01*
X7940Y1464D01*
X7935Y1469D01*
X7928Y1471D01*
X7924D01*
X7916Y1469D01*
X7912Y1464D01*
X7909Y1457D01*
Y1450D01*
X7912Y1443D01*
X7914Y1441D01*
X7919Y1438D01*
X7959Y1495D02*
X7957Y1487D01*
X7952Y1485D01*
X7947D01*
X7943Y1487D01*
X7940Y1492D01*
X7938Y1502D01*
X7935Y1509D01*
X7931Y1514D01*
X7926Y1516D01*
X7919D01*
X7914Y1514D01*
X7912Y1511D01*
X7909Y1504D01*
Y1495D01*
X7912Y1487D01*
X7914Y1485D01*
X7919Y1483D01*
X7926D01*
X7931Y1485D01*
X7935Y1490D01*
X7938Y1497D01*
X7940Y1506D01*
X7943Y1511D01*
X7947Y1514D01*
X7952D01*
X7957Y1511D01*
X7959Y1504D01*
Y1495D01*
X6635Y885D02*
X6585D01*
X6635D02*
Y906D01*
X6633Y914D01*
X6630Y916D01*
X6625Y918D01*
X6621D01*
X6616Y916D01*
X6614Y914D01*
X6611Y906D01*
Y885D01*
Y902D02*
X6585Y918D01*
X6625Y930D02*
X6628Y934D01*
X6635Y941D01*
X6585D01*
X6635Y971D02*
Y997D01*
X6616Y983D01*
Y990D01*
X6614Y995D01*
X6611Y997D01*
X6604Y999D01*
X6599D01*
X6592Y997D01*
X6587Y992D01*
X6585Y985D01*
Y978D01*
X6587Y971D01*
X6590Y969D01*
X6595Y966D01*
X6628Y1039D02*
X6633Y1037D01*
X6635Y1030D01*
Y1025D01*
X6633Y1018D01*
X6625Y1013D01*
X6614Y1011D01*
X6602D01*
X6592Y1013D01*
X6587Y1018D01*
X6585Y1025D01*
Y1027D01*
X6587Y1034D01*
X6592Y1039D01*
X6599Y1042D01*
X6602D01*
X6609Y1039D01*
X6614Y1034D01*
X6616Y1027D01*
Y1025D01*
X6614Y1018D01*
X6609Y1013D01*
X6602Y1011D01*
X6667Y1418D02*
X6617D01*
X6667D02*
Y1439D01*
X6665Y1447D01*
X6662Y1449D01*
X6657Y1451D01*
X6653D01*
X6648Y1449D01*
X6646Y1447D01*
X6643Y1439D01*
Y1418D01*
Y1435D02*
X6617Y1451D01*
X6657Y1463D02*
X6660Y1467D01*
X6667Y1474D01*
X6617D01*
X6667Y1504D02*
Y1530D01*
X6648Y1516D01*
Y1523D01*
X6646Y1528D01*
X6643Y1530D01*
X6636Y1532D01*
X6631D01*
X6624Y1530D01*
X6619Y1525D01*
X6617Y1518D01*
Y1511D01*
X6619Y1504D01*
X6622Y1502D01*
X6627Y1499D01*
X6667Y1548D02*
Y1575D01*
X6648Y1560D01*
Y1567D01*
X6646Y1572D01*
X6643Y1575D01*
X6636Y1577D01*
X6631D01*
X6624Y1575D01*
X6619Y1570D01*
X6617Y1563D01*
Y1556D01*
X6619Y1548D01*
X6622Y1546D01*
X6627Y1544D01*
X6885Y760D02*
X6835D01*
X6885D02*
Y781D01*
X6883Y789D01*
X6880Y791D01*
X6875Y793D01*
X6871D01*
X6866Y791D01*
X6864Y789D01*
X6861Y781D01*
Y760D01*
Y777D02*
X6835Y793D01*
X6875Y805D02*
X6878Y809D01*
X6885Y816D01*
X6835D01*
X6885Y865D02*
X6852Y841D01*
Y877D01*
X6885Y865D02*
X6835D01*
X6873Y888D02*
X6875D01*
X6880Y890D01*
X6883Y893D01*
X6885Y898D01*
Y907D01*
X6883Y912D01*
X6880Y914D01*
X6875Y917D01*
X6871D01*
X6866Y914D01*
X6859Y909D01*
X6835Y886D01*
Y919D01*
X7001Y1385D02*
X6951D01*
X7001D02*
Y1406D01*
X6999Y1414D01*
X6996Y1416D01*
X6992Y1418D01*
X6987D01*
X6982Y1416D01*
X6980Y1414D01*
X6977Y1406D01*
Y1385D01*
Y1402D02*
X6951Y1418D01*
X6992Y1430D02*
X6994Y1434D01*
X7001Y1441D01*
X6951D01*
X7001Y1471D02*
Y1497D01*
X6982Y1483D01*
Y1490D01*
X6980Y1495D01*
X6977Y1497D01*
X6970Y1499D01*
X6966D01*
X6958Y1497D01*
X6954Y1492D01*
X6951Y1485D01*
Y1478D01*
X6954Y1471D01*
X6956Y1469D01*
X6961Y1466D01*
X7001Y1523D02*
X6999Y1515D01*
X6994Y1513D01*
X6989D01*
X6985Y1515D01*
X6982Y1520D01*
X6980Y1530D01*
X6977Y1537D01*
X6973Y1542D01*
X6968Y1544D01*
X6961D01*
X6956Y1542D01*
X6954Y1539D01*
X6951Y1532D01*
Y1523D01*
X6954Y1515D01*
X6956Y1513D01*
X6961Y1511D01*
X6968D01*
X6973Y1513D01*
X6977Y1518D01*
X6980Y1525D01*
X6982Y1534D01*
X6985Y1539D01*
X6989Y1542D01*
X6994D01*
X6999Y1539D01*
X7001Y1532D01*
Y1523D01*
X7332Y944D02*
X7282D01*
X7332D02*
Y965D01*
X7330Y973D01*
X7327Y975D01*
X7322Y977D01*
X7318D01*
X7313Y975D01*
X7311Y973D01*
X7308Y965D01*
Y944D01*
Y961D02*
X7282Y977D01*
X7322Y989D02*
X7325Y993D01*
X7332Y1000D01*
X7282D01*
X7332Y1054D02*
Y1030D01*
X7311Y1028D01*
X7313Y1030D01*
X7315Y1037D01*
Y1044D01*
X7313Y1051D01*
X7308Y1056D01*
X7301Y1058D01*
X7296D01*
X7289Y1056D01*
X7284Y1051D01*
X7282Y1044D01*
Y1037D01*
X7284Y1030D01*
X7287Y1028D01*
X7292Y1025D01*
X7322Y1070D02*
X7325Y1074D01*
X7332Y1082D01*
X7282D01*
X590Y600D02*
X540D01*
X590D02*
Y621D01*
X588Y629D01*
X585Y631D01*
X580Y633D01*
X576D01*
X571Y631D01*
X569Y629D01*
X566Y621D01*
Y600D01*
Y617D02*
X540Y633D01*
X590Y656D02*
X588Y649D01*
X583Y647D01*
X578D01*
X573Y649D01*
X571Y654D01*
X569Y664D01*
X566Y671D01*
X561Y675D01*
X557Y678D01*
X550D01*
X545Y675D01*
X542Y673D01*
X540Y666D01*
Y656D01*
X542Y649D01*
X545Y647D01*
X550Y645D01*
X557D01*
X561Y647D01*
X566Y652D01*
X569Y659D01*
X571Y668D01*
X573Y673D01*
X578Y675D01*
X583D01*
X588Y673D01*
X590Y666D01*
Y656D01*
X573Y720D02*
X566Y718D01*
X561Y713D01*
X559Y706D01*
Y703D01*
X561Y696D01*
X566Y691D01*
X573Y689D01*
X576D01*
X583Y691D01*
X588Y696D01*
X590Y703D01*
Y706D01*
X588Y713D01*
X583Y718D01*
X573Y720D01*
X561D01*
X550Y718D01*
X542Y713D01*
X540Y706D01*
Y701D01*
X542Y694D01*
X547Y691D01*
X460Y220D02*
X410D01*
X460D02*
Y241D01*
X458Y249D01*
X455Y251D01*
X450Y253D01*
X446D01*
X441Y251D01*
X439Y249D01*
X436Y241D01*
Y220D01*
Y237D02*
X410Y253D01*
X443Y295D02*
X436Y293D01*
X431Y288D01*
X429Y281D01*
Y279D01*
X431Y272D01*
X436Y267D01*
X443Y265D01*
X446D01*
X453Y267D01*
X458Y272D01*
X460Y279D01*
Y281D01*
X458Y288D01*
X453Y293D01*
X443Y295D01*
X431D01*
X420Y293D01*
X412Y288D01*
X410Y281D01*
Y276D01*
X412Y269D01*
X417Y267D01*
X460Y323D02*
X458Y316D01*
X450Y311D01*
X439Y309D01*
X431D01*
X420Y311D01*
X412Y316D01*
X410Y323D01*
Y328D01*
X412Y335D01*
X420Y340D01*
X431Y342D01*
X439D01*
X450Y340D01*
X458Y335D01*
X460Y328D01*
Y323D01*
X7255Y941D02*
X7205D01*
X7255D02*
Y962D01*
X7253Y970D01*
X7250Y972D01*
X7245Y974D01*
X7241D01*
X7236Y972D01*
X7234Y970D01*
X7231Y962D01*
Y941D01*
Y958D02*
X7205Y974D01*
X7245Y986D02*
X7248Y990D01*
X7255Y997D01*
X7205D01*
X7255Y1046D02*
X7222Y1022D01*
Y1058D01*
X7255Y1046D02*
X7205D01*
X7255Y1079D02*
X7253Y1071D01*
X7248Y1069D01*
X7243D01*
X7238Y1071D01*
X7236Y1076D01*
X7234Y1086D01*
X7231Y1093D01*
X7226Y1098D01*
X7222Y1100D01*
X7215D01*
X7210Y1098D01*
X7207Y1095D01*
X7205Y1088D01*
Y1079D01*
X7207Y1071D01*
X7210Y1069D01*
X7215Y1067D01*
X7222D01*
X7226Y1069D01*
X7231Y1074D01*
X7234Y1081D01*
X7236Y1090D01*
X7238Y1095D01*
X7243Y1098D01*
X7248D01*
X7253Y1095D01*
X7255Y1088D01*
Y1079D01*
X7641Y1320D02*
X7591D01*
X7641D02*
Y1341D01*
X7639Y1349D01*
X7636Y1351D01*
X7632Y1353D01*
X7627D01*
X7622Y1351D01*
X7620Y1349D01*
X7617Y1341D01*
Y1320D01*
Y1337D02*
X7591Y1353D01*
X7632Y1365D02*
X7634Y1369D01*
X7641Y1376D01*
X7591D01*
X7641Y1425D02*
X7608Y1401D01*
Y1437D01*
X7641Y1425D02*
X7591D01*
X7641Y1479D02*
X7591Y1455D01*
X7641Y1446D02*
Y1479D01*
X7175Y920D02*
X7125D01*
X7175D02*
Y941D01*
X7173Y949D01*
X7170Y951D01*
X7165Y953D01*
X7161D01*
X7156Y951D01*
X7154Y949D01*
X7151Y941D01*
Y920D01*
Y937D02*
X7125Y953D01*
X7165Y965D02*
X7168Y969D01*
X7175Y976D01*
X7125D01*
X7175Y1025D02*
X7142Y1001D01*
Y1037D01*
X7175Y1025D02*
X7125D01*
X7175Y1074D02*
Y1050D01*
X7154Y1048D01*
X7156Y1050D01*
X7158Y1058D01*
Y1065D01*
X7156Y1072D01*
X7151Y1077D01*
X7144Y1079D01*
X7139D01*
X7132Y1077D01*
X7127Y1072D01*
X7125Y1065D01*
Y1058D01*
X7127Y1050D01*
X7130Y1048D01*
X7135Y1046D01*
X7490Y1205D02*
X7440D01*
X7490D02*
Y1226D01*
X7488Y1234D01*
X7485Y1236D01*
X7480Y1238D01*
X7476D01*
X7471Y1236D01*
X7469Y1234D01*
X7466Y1226D01*
Y1205D01*
Y1222D02*
X7440Y1238D01*
X7480Y1250D02*
X7483Y1254D01*
X7490Y1261D01*
X7440D01*
X7490Y1310D02*
X7457Y1286D01*
Y1322D01*
X7490Y1310D02*
X7440D01*
X7490Y1354D02*
X7457Y1331D01*
Y1366D01*
X7490Y1354D02*
X7440D01*
X7471Y646D02*
X7475Y644D01*
X7480Y639D01*
X7483Y634D01*
X7485Y627D01*
Y615D01*
X7483Y608D01*
X7480Y603D01*
X7475Y598D01*
X7471Y596D01*
X7461D01*
X7456Y598D01*
X7452Y603D01*
X7449Y608D01*
X7447Y615D01*
Y627D01*
X7449Y634D01*
X7452Y639D01*
X7456Y644D01*
X7461Y646D01*
X7471D01*
X7464Y606D02*
X7449Y591D01*
X7435Y636D02*
X7430Y639D01*
X7423Y646D01*
Y596D01*
X7370Y646D02*
X7394D01*
X7396Y625D01*
X7394Y627D01*
X7387Y629D01*
X7380D01*
X7372Y627D01*
X7368Y622D01*
X7365Y615D01*
Y610D01*
X7368Y603D01*
X7372Y598D01*
X7380Y596D01*
X7387D01*
X7394Y598D01*
X7396Y601D01*
X7399Y606D01*
X584Y843D02*
X587Y848D01*
X591Y853D01*
X596Y855D01*
X606D01*
X610Y853D01*
X615Y848D01*
X618Y843D01*
X620Y836D01*
Y824D01*
X618Y817D01*
X615Y812D01*
X610Y807D01*
X606Y805D01*
X596D01*
X591Y807D01*
X587Y812D01*
X584Y817D01*
X570Y845D02*
X565Y848D01*
X558Y855D01*
Y805D01*
X914Y1378D02*
X917Y1383D01*
X921Y1388D01*
X926Y1390D01*
X936D01*
X940Y1388D01*
X945Y1383D01*
X948Y1378D01*
X950Y1371D01*
Y1359D01*
X948Y1352D01*
X945Y1347D01*
X940Y1342D01*
X936Y1340D01*
X926D01*
X921Y1342D01*
X917Y1347D01*
X914Y1352D01*
X898Y1378D02*
Y1380D01*
X895Y1385D01*
X893Y1388D01*
X888Y1390D01*
X879D01*
X874Y1388D01*
X872Y1385D01*
X869Y1380D01*
Y1376D01*
X872Y1371D01*
X876Y1364D01*
X900Y1340D01*
X867D01*
X1348Y1301D02*
X1353Y1298D01*
X1358Y1294D01*
X1360Y1289D01*
Y1279D01*
X1358Y1275D01*
X1353Y1270D01*
X1348Y1267D01*
X1341Y1265D01*
X1329D01*
X1322Y1267D01*
X1317Y1270D01*
X1312Y1275D01*
X1310Y1279D01*
Y1289D01*
X1312Y1294D01*
X1317Y1298D01*
X1322Y1301D01*
X1360Y1343D02*
Y1320D01*
X1339Y1317D01*
X1341Y1320D01*
X1343Y1327D01*
Y1334D01*
X1341Y1341D01*
X1336Y1346D01*
X1329Y1348D01*
X1324D01*
X1317Y1346D01*
X1312Y1341D01*
X1310Y1334D01*
Y1327D01*
X1312Y1320D01*
X1315Y1317D01*
X1320Y1315D01*
X1360Y1383D02*
X1327Y1359D01*
Y1395D01*
X1360Y1383D02*
X1310D01*
X6140Y465D02*
Y415D01*
Y465D02*
X6119D01*
X6111Y463D01*
X6109Y460D01*
X6107Y455D01*
Y451D01*
X6109Y446D01*
X6111Y444D01*
X6119Y441D01*
X6140D01*
X6123D02*
X6107Y415D01*
X6095Y465D02*
Y415D01*
Y465D02*
X6062Y415D01*
Y465D02*
Y415D01*
X6048Y455D02*
X6044Y458D01*
X6036Y465D01*
Y415D01*
X6155Y845D02*
Y795D01*
Y845D02*
X6134D01*
X6126Y843D01*
X6124Y840D01*
X6122Y835D01*
Y831D01*
X6124Y826D01*
X6126Y824D01*
X6134Y821D01*
X6155D01*
X6138D02*
X6122Y795D01*
X6110Y845D02*
Y795D01*
Y845D02*
X6077Y795D01*
Y845D02*
Y795D01*
X6061Y833D02*
Y835D01*
X6059Y840D01*
X6056Y843D01*
X6051Y845D01*
X6042D01*
X6037Y843D01*
X6035Y840D01*
X6032Y835D01*
Y831D01*
X6035Y826D01*
X6040Y819D01*
X6063Y795D01*
X6030D01*
X5570Y1475D02*
Y1425D01*
Y1475D02*
X5549D01*
X5541Y1473D01*
X5539Y1470D01*
X5537Y1465D01*
Y1461D01*
X5539Y1456D01*
X5541Y1454D01*
X5549Y1451D01*
X5570D01*
X5553D02*
X5537Y1425D01*
X5525Y1475D02*
Y1425D01*
Y1475D02*
X5492Y1425D01*
Y1475D02*
Y1425D01*
X5474Y1475D02*
X5447D01*
X5462Y1456D01*
X5455D01*
X5450Y1454D01*
X5447Y1451D01*
X5445Y1444D01*
Y1439D01*
X5447Y1432D01*
X5452Y1427D01*
X5459Y1425D01*
X5466D01*
X5474Y1427D01*
X5476Y1430D01*
X5478Y1435D01*
X5570Y1935D02*
Y1885D01*
Y1935D02*
X5549D01*
X5541Y1933D01*
X5539Y1930D01*
X5537Y1925D01*
Y1921D01*
X5539Y1916D01*
X5541Y1914D01*
X5549Y1911D01*
X5570D01*
X5553D02*
X5537Y1885D01*
X5525Y1935D02*
Y1885D01*
Y1935D02*
X5492Y1885D01*
Y1935D02*
Y1885D01*
X5455Y1935D02*
X5478Y1902D01*
X5443D01*
X5455Y1935D02*
Y1885D01*
X4258Y474D02*
Y424D01*
Y474D02*
X4237D01*
X4229Y472D01*
X4227Y469D01*
X4225Y464D01*
Y460D01*
X4227Y455D01*
X4229Y453D01*
X4237Y450D01*
X4258D01*
X4241D02*
X4225Y424D01*
X4213Y474D02*
Y424D01*
Y474D02*
X4180Y424D01*
Y474D02*
Y424D01*
X4138Y474D02*
X4162D01*
X4164Y453D01*
X4162Y455D01*
X4154Y457D01*
X4147D01*
X4140Y455D01*
X4135Y450D01*
X4133Y443D01*
Y438D01*
X4135Y431D01*
X4140Y426D01*
X4147Y424D01*
X4154D01*
X4162Y426D01*
X4164Y429D01*
X4166Y434D01*
X1185Y1055D02*
Y1019D01*
X1183Y1012D01*
X1178Y1007D01*
X1171Y1005D01*
X1166D01*
X1159Y1007D01*
X1154Y1012D01*
X1152Y1019D01*
Y1055D01*
X1138Y1045D02*
X1133Y1048D01*
X1126Y1055D01*
Y1005D01*
X1089Y1055D02*
X1096Y1053D01*
X1099Y1048D01*
Y1043D01*
X1096Y1038D01*
X1092Y1036D01*
X1082Y1034D01*
X1075Y1031D01*
X1070Y1026D01*
X1068Y1022D01*
Y1015D01*
X1070Y1010D01*
X1073Y1007D01*
X1080Y1005D01*
X1089D01*
X1096Y1007D01*
X1099Y1010D01*
X1101Y1015D01*
Y1022D01*
X1099Y1026D01*
X1094Y1031D01*
X1087Y1034D01*
X1077Y1036D01*
X1073Y1038D01*
X1070Y1043D01*
Y1048D01*
X1073Y1053D01*
X1080Y1055D01*
X1089D01*
X4910Y224D02*
Y174D01*
Y224D02*
X4889D01*
X4881Y222D01*
X4879Y219D01*
X4877Y214D01*
Y210D01*
X4879Y205D01*
X4881Y203D01*
X4889Y200D01*
X4910D01*
X4893D02*
X4877Y174D01*
X4837Y217D02*
X4839Y222D01*
X4846Y224D01*
X4851D01*
X4858Y222D01*
X4863Y214D01*
X4865Y203D01*
Y191D01*
X4863Y181D01*
X4858Y176D01*
X4851Y174D01*
X4849D01*
X4842Y176D01*
X4837Y181D01*
X4835Y188D01*
Y191D01*
X4837Y198D01*
X4842Y203D01*
X4849Y205D01*
X4851D01*
X4858Y203D01*
X4863Y198D01*
X4865Y191D01*
X4821Y212D02*
Y214D01*
X4819Y219D01*
X4816Y222D01*
X4812Y224D01*
X4802D01*
X4797Y222D01*
X4795Y219D01*
X4793Y214D01*
Y210D01*
X4795Y205D01*
X4800Y198D01*
X4824Y174D01*
X4790D01*
X5128Y224D02*
Y174D01*
Y224D02*
X5107D01*
X5099Y222D01*
X5097Y219D01*
X5095Y214D01*
Y210D01*
X5097Y205D01*
X5099Y203D01*
X5107Y200D01*
X5128D01*
X5111D02*
X5095Y174D01*
X5055Y217D02*
X5057Y222D01*
X5064Y224D01*
X5069D01*
X5076Y222D01*
X5081Y214D01*
X5083Y203D01*
Y191D01*
X5081Y181D01*
X5076Y176D01*
X5069Y174D01*
X5067D01*
X5060Y176D01*
X5055Y181D01*
X5053Y188D01*
Y191D01*
X5055Y198D01*
X5060Y203D01*
X5067Y205D01*
X5069D01*
X5076Y203D01*
X5081Y198D01*
X5083Y191D01*
X5042Y214D02*
X5037Y217D01*
X5030Y224D01*
Y174D01*
X5063Y1451D02*
X5068Y1448D01*
X5073Y1444D01*
X5075Y1439D01*
Y1429D01*
X5073Y1425D01*
X5068Y1420D01*
X5063Y1417D01*
X5056Y1415D01*
X5044D01*
X5037Y1417D01*
X5032Y1420D01*
X5027Y1425D01*
X5025Y1429D01*
Y1439D01*
X5027Y1444D01*
X5032Y1448D01*
X5037Y1451D01*
X5075Y1493D02*
Y1470D01*
X5054Y1467D01*
X5056Y1470D01*
X5058Y1477D01*
Y1484D01*
X5056Y1491D01*
X5051Y1496D01*
X5044Y1498D01*
X5039D01*
X5032Y1496D01*
X5027Y1491D01*
X5025Y1484D01*
Y1477D01*
X5027Y1470D01*
X5030Y1467D01*
X5035Y1465D01*
X5065Y1509D02*
X5068Y1514D01*
X5075Y1521D01*
X5025D01*
X7990Y1970D02*
X7940D01*
X7990D02*
Y1991D01*
X7988Y1999D01*
X7985Y2001D01*
X7980Y2003D01*
X7976D01*
X7971Y2001D01*
X7969Y1999D01*
X7966Y1991D01*
Y1970D01*
Y1987D02*
X7940Y2003D01*
X7980Y2015D02*
X7983Y2019D01*
X7990Y2026D01*
X7940D01*
X7983Y2080D02*
X7988Y2077D01*
X7990Y2070D01*
Y2065D01*
X7988Y2058D01*
X7980Y2054D01*
X7969Y2051D01*
X7957D01*
X7947Y2054D01*
X7942Y2058D01*
X7940Y2065D01*
Y2068D01*
X7942Y2075D01*
X7947Y2080D01*
X7954Y2082D01*
X7957D01*
X7964Y2080D01*
X7969Y2075D01*
X7971Y2068D01*
Y2065D01*
X7969Y2058D01*
X7964Y2054D01*
X7957Y2051D01*
X7990Y2098D02*
Y2124D01*
X7971Y2110D01*
Y2117D01*
X7969Y2122D01*
X7966Y2124D01*
X7959Y2126D01*
X7954D01*
X7947Y2124D01*
X7942Y2119D01*
X7940Y2112D01*
Y2105D01*
X7942Y2098D01*
X7945Y2095D01*
X7950Y2093D01*
X5416Y781D02*
X5418Y786D01*
X5423Y790D01*
X5428Y793D01*
X5437D01*
X5442Y790D01*
X5447Y786D01*
X5449Y781D01*
X5451Y774D01*
Y762D01*
X5449Y755D01*
X5447Y750D01*
X5442Y745D01*
X5437Y743D01*
X5428D01*
X5423Y745D01*
X5418Y750D01*
X5416Y755D01*
X5402Y793D02*
Y743D01*
Y793D02*
X5368Y743D01*
Y793D02*
Y743D01*
X5354Y783D02*
X5350Y786D01*
X5343Y793D01*
Y743D01*
X5104Y683D02*
X5107Y688D01*
X5111Y693D01*
X5116Y695D01*
X5126D01*
X5130Y693D01*
X5135Y688D01*
X5138Y683D01*
X5140Y676D01*
Y664D01*
X5138Y657D01*
X5135Y652D01*
X5130Y647D01*
X5126Y645D01*
X5116D01*
X5111Y647D01*
X5107Y652D01*
X5104Y657D01*
X5090Y695D02*
Y645D01*
Y695D02*
X5057Y645D01*
Y695D02*
Y645D01*
X5041Y683D02*
Y685D01*
X5038Y690D01*
X5036Y693D01*
X5031Y695D01*
X5022D01*
X5017Y693D01*
X5015Y690D01*
X5012Y685D01*
Y681D01*
X5015Y676D01*
X5019Y669D01*
X5043Y645D01*
X5010D01*
X5304Y1688D02*
X5307Y1693D01*
X5311Y1698D01*
X5316Y1700D01*
X5326D01*
X5330Y1698D01*
X5335Y1693D01*
X5338Y1688D01*
X5340Y1681D01*
Y1669D01*
X5338Y1662D01*
X5335Y1657D01*
X5330Y1652D01*
X5326Y1650D01*
X5316D01*
X5311Y1652D01*
X5307Y1657D01*
X5304Y1662D01*
X5290Y1700D02*
Y1650D01*
Y1700D02*
X5257Y1650D01*
Y1700D02*
Y1650D01*
X5238Y1700D02*
X5212D01*
X5226Y1681D01*
X5219D01*
X5215Y1679D01*
X5212Y1676D01*
X5210Y1669D01*
Y1664D01*
X5212Y1657D01*
X5217Y1652D01*
X5224Y1650D01*
X5231D01*
X5238Y1652D01*
X5241Y1655D01*
X5243Y1660D01*
X4155Y1705D02*
X4105D01*
X4155D02*
Y1722D01*
X4153Y1729D01*
X4148Y1734D01*
X4143Y1736D01*
X4136Y1738D01*
X4124D01*
X4117Y1736D01*
X4112Y1734D01*
X4107Y1729D01*
X4105Y1722D01*
Y1705D01*
X4143Y1752D02*
X4145D01*
X4150Y1754D01*
X4153Y1757D01*
X4155Y1761D01*
Y1771D01*
X4153Y1776D01*
X4150Y1778D01*
X4145Y1780D01*
X4141D01*
X4136Y1778D01*
X4129Y1773D01*
X4105Y1750D01*
Y1783D01*
X4155Y1818D02*
X4122Y1794D01*
Y1830D01*
X4155Y1818D02*
X4105D01*
X4370Y1705D02*
X4320D01*
X4370D02*
Y1722D01*
X4368Y1729D01*
X4363Y1734D01*
X4358Y1736D01*
X4351Y1738D01*
X4339D01*
X4332Y1736D01*
X4327Y1734D01*
X4322Y1729D01*
X4320Y1722D01*
Y1705D01*
X4358Y1752D02*
X4360D01*
X4365Y1754D01*
X4368Y1757D01*
X4370Y1761D01*
Y1771D01*
X4368Y1776D01*
X4365Y1778D01*
X4360Y1780D01*
X4356D01*
X4351Y1778D01*
X4344Y1773D01*
X4320Y1750D01*
Y1783D01*
X4370Y1823D02*
Y1799D01*
X4349Y1796D01*
X4351Y1799D01*
X4353Y1806D01*
Y1813D01*
X4351Y1820D01*
X4346Y1825D01*
X4339Y1827D01*
X4334D01*
X4327Y1825D01*
X4322Y1820D01*
X4320Y1813D01*
Y1806D01*
X4322Y1799D01*
X4325Y1796D01*
X4330Y1794D01*
X4580Y1705D02*
X4530D01*
X4580D02*
Y1722D01*
X4578Y1729D01*
X4573Y1734D01*
X4568Y1736D01*
X4561Y1738D01*
X4549D01*
X4542Y1736D01*
X4537Y1734D01*
X4532Y1729D01*
X4530Y1722D01*
Y1705D01*
X4568Y1752D02*
X4570D01*
X4575Y1754D01*
X4578Y1757D01*
X4580Y1761D01*
Y1771D01*
X4578Y1776D01*
X4575Y1778D01*
X4570Y1780D01*
X4566D01*
X4561Y1778D01*
X4554Y1773D01*
X4530Y1750D01*
Y1783D01*
X4573Y1823D02*
X4578Y1820D01*
X4580Y1813D01*
Y1808D01*
X4578Y1801D01*
X4570Y1796D01*
X4559Y1794D01*
X4547D01*
X4537Y1796D01*
X4532Y1801D01*
X4530Y1808D01*
Y1811D01*
X4532Y1818D01*
X4537Y1823D01*
X4544Y1825D01*
X4547D01*
X4554Y1823D01*
X4559Y1818D01*
X4561Y1811D01*
Y1808D01*
X4559Y1801D01*
X4554Y1796D01*
X4547Y1794D01*
X5325Y1095D02*
Y1045D01*
Y1095D02*
X5304D01*
X5296Y1093D01*
X5294Y1090D01*
X5292Y1085D01*
Y1081D01*
X5294Y1076D01*
X5296Y1074D01*
X5304Y1071D01*
X5325D01*
X5308D02*
X5292Y1045D01*
X5280Y1095D02*
Y1045D01*
Y1095D02*
X5247Y1045D01*
Y1095D02*
Y1045D01*
X5205Y1088D02*
X5207Y1093D01*
X5214Y1095D01*
X5219D01*
X5226Y1093D01*
X5231Y1085D01*
X5233Y1074D01*
Y1062D01*
X5231Y1052D01*
X5226Y1047D01*
X5219Y1045D01*
X5217D01*
X5210Y1047D01*
X5205Y1052D01*
X5202Y1059D01*
Y1062D01*
X5205Y1069D01*
X5210Y1074D01*
X5217Y1076D01*
X5219D01*
X5226Y1074D01*
X5231Y1069D01*
X5233Y1062D01*
X5190Y485D02*
Y435D01*
Y485D02*
X5169D01*
X5161Y483D01*
X5159Y480D01*
X5157Y475D01*
Y471D01*
X5159Y466D01*
X5161Y464D01*
X5169Y461D01*
X5190D01*
X5173D02*
X5157Y435D01*
X5145Y485D02*
Y435D01*
Y485D02*
X5112Y435D01*
Y485D02*
Y435D01*
X5065Y485D02*
X5089Y435D01*
X5098Y485D02*
X5065D01*
X5105Y860D02*
X5055D01*
X5105D02*
Y881D01*
X5103Y889D01*
X5100Y891D01*
X5095Y893D01*
X5091D01*
X5086Y891D01*
X5084Y889D01*
X5081Y881D01*
Y860D01*
Y877D02*
X5055Y893D01*
X5105Y905D02*
X5055D01*
X5105D02*
X5055Y938D01*
X5105D02*
X5055D01*
X5105Y964D02*
X5103Y956D01*
X5098Y954D01*
X5093D01*
X5088Y956D01*
X5086Y961D01*
X5084Y971D01*
X5081Y978D01*
X5076Y983D01*
X5072Y985D01*
X5065D01*
X5060Y983D01*
X5057Y980D01*
X5055Y973D01*
Y964D01*
X5057Y956D01*
X5060Y954D01*
X5065Y952D01*
X5072D01*
X5076Y954D01*
X5081Y959D01*
X5084Y966D01*
X5086Y975D01*
X5088Y980D01*
X5093Y983D01*
X5098D01*
X5103Y980D01*
X5105Y973D01*
Y964D01*
X5025Y1885D02*
Y1835D01*
Y1885D02*
X5004D01*
X4996Y1883D01*
X4994Y1880D01*
X4992Y1875D01*
Y1871D01*
X4994Y1866D01*
X4996Y1864D01*
X5004Y1861D01*
X5025D01*
X5008D02*
X4992Y1835D01*
X4980Y1885D02*
Y1835D01*
Y1885D02*
X4947Y1835D01*
Y1885D02*
Y1835D01*
X4902Y1868D02*
X4905Y1861D01*
X4910Y1856D01*
X4917Y1854D01*
X4919D01*
X4926Y1856D01*
X4931Y1861D01*
X4933Y1868D01*
Y1871D01*
X4931Y1878D01*
X4926Y1883D01*
X4919Y1885D01*
X4917D01*
X4910Y1883D01*
X4905Y1878D01*
X4902Y1868D01*
Y1856D01*
X4905Y1845D01*
X4910Y1837D01*
X4917Y1835D01*
X4921D01*
X4929Y1837D01*
X4931Y1842D01*
X7610Y895D02*
X7560D01*
X7610D02*
Y912D01*
X7608Y919D01*
X7603Y924D01*
X7598Y926D01*
X7591Y928D01*
X7579D01*
X7572Y926D01*
X7567Y924D01*
X7562Y919D01*
X7560Y912D01*
Y895D01*
X7598Y942D02*
X7600D01*
X7605Y944D01*
X7608Y947D01*
X7610Y951D01*
Y961D01*
X7608Y966D01*
X7605Y968D01*
X7600Y970D01*
X7596D01*
X7591Y968D01*
X7584Y963D01*
X7560Y940D01*
Y973D01*
X7610Y998D02*
X7608Y991D01*
X7600Y986D01*
X7589Y984D01*
X7581D01*
X7570Y986D01*
X7562Y991D01*
X7560Y998D01*
Y1003D01*
X7562Y1010D01*
X7570Y1015D01*
X7581Y1017D01*
X7589D01*
X7600Y1015D01*
X7608Y1010D01*
X7610Y1003D01*
Y998D01*
X6590Y255D02*
Y205D01*
Y255D02*
X6573D01*
X6566Y253D01*
X6561Y248D01*
X6559Y243D01*
X6557Y236D01*
Y224D01*
X6559Y217D01*
X6561Y212D01*
X6566Y207D01*
X6573Y205D01*
X6590D01*
X6545Y245D02*
X6541Y248D01*
X6534Y255D01*
Y205D01*
X6497Y255D02*
X6504Y253D01*
X6506Y248D01*
Y243D01*
X6504Y238D01*
X6499Y236D01*
X6490Y234D01*
X6483Y231D01*
X6478Y226D01*
X6476Y222D01*
Y215D01*
X6478Y210D01*
X6480Y207D01*
X6487Y205D01*
X6497D01*
X6504Y207D01*
X6506Y210D01*
X6509Y215D01*
Y222D01*
X6506Y226D01*
X6502Y231D01*
X6495Y234D01*
X6485Y236D01*
X6480Y238D01*
X6478Y243D01*
Y248D01*
X6480Y253D01*
X6487Y255D01*
X6497D01*
D47*
X730Y538D02*
X844D01*
X730Y494D02*
Y538D01*
Y494D02*
X844D01*
Y538D01*
X-163Y-274D02*
Y-334D01*
Y-274D02*
X-137D01*
X-129Y-277D01*
X-126Y-280D01*
X-123Y-286D01*
Y-291D01*
X-126Y-297D01*
X-129Y-300D01*
X-137Y-303D01*
X-163D02*
X-137D01*
X-129Y-306D01*
X-126Y-309D01*
X-123Y-314D01*
Y-323D01*
X-126Y-329D01*
X-129Y-331D01*
X-137Y-334D01*
X-163D01*
X-95Y-294D02*
X-101Y-297D01*
X-107Y-303D01*
X-110Y-311D01*
Y-317D01*
X-107Y-326D01*
X-101Y-331D01*
X-95Y-334D01*
X-87D01*
X-81Y-331D01*
X-75Y-326D01*
X-72Y-317D01*
Y-311D01*
X-75Y-303D01*
X-81Y-297D01*
X-87Y-294D01*
X-95D01*
X-51Y-274D02*
Y-323D01*
X-48Y-331D01*
X-42Y-334D01*
X-36D01*
X-59Y-294D02*
X-39D01*
X-19Y-274D02*
Y-323D01*
X-16Y-331D01*
X-11Y-334D01*
X-5D01*
X-28Y-294D02*
X-8D01*
X18D02*
X12Y-297D01*
X6Y-303D01*
X4Y-311D01*
Y-317D01*
X6Y-326D01*
X12Y-331D01*
X18Y-334D01*
X26D01*
X32Y-331D01*
X38Y-326D01*
X41Y-317D01*
Y-311D01*
X38Y-303D01*
X32Y-297D01*
X26Y-294D01*
X18D01*
X54D02*
Y-334D01*
Y-306D02*
X62Y-297D01*
X68Y-294D01*
X77D01*
X82Y-297D01*
X85Y-306D01*
Y-334D01*
Y-306D02*
X94Y-297D01*
X100Y-294D01*
X108D01*
X114Y-297D01*
X117Y-306D01*
Y-334D01*
X223Y-283D02*
X217Y-277D01*
X208Y-274D01*
X197D01*
X188Y-277D01*
X183Y-283D01*
Y-289D01*
X185Y-294D01*
X188Y-297D01*
X194Y-300D01*
X211Y-306D01*
X217Y-309D01*
X220Y-311D01*
X223Y-317D01*
Y-326D01*
X217Y-331D01*
X208Y-334D01*
X197D01*
X188Y-331D01*
X183Y-326D01*
X242Y-274D02*
X245Y-277D01*
X247Y-274D01*
X245Y-271D01*
X242Y-274D01*
X245Y-294D02*
Y-334D01*
X258Y-274D02*
Y-334D01*
X271Y-274D02*
Y-334D01*
X299Y-294D02*
X271Y-323D01*
X282Y-311D02*
X302Y-334D01*
X343Y-303D02*
X340Y-297D01*
X331Y-294D01*
X323D01*
X314Y-297D01*
X311Y-303D01*
X314Y-309D01*
X320Y-311D01*
X334Y-314D01*
X340Y-317D01*
X343Y-323D01*
Y-326D01*
X340Y-331D01*
X331Y-334D01*
X323D01*
X314Y-331D01*
X311Y-326D01*
X390Y-303D02*
X384Y-297D01*
X378Y-294D01*
X370D01*
X364Y-297D01*
X358Y-303D01*
X355Y-311D01*
Y-317D01*
X358Y-326D01*
X364Y-331D01*
X370Y-334D01*
X378D01*
X384Y-331D01*
X390Y-326D01*
X403Y-294D02*
Y-334D01*
Y-311D02*
X405Y-303D01*
X411Y-297D01*
X417Y-294D01*
X425D01*
X431Y-311D02*
X465D01*
Y-306D01*
X462Y-300D01*
X459Y-297D01*
X454Y-294D01*
X445D01*
X439Y-297D01*
X434Y-303D01*
X431Y-311D01*
Y-317D01*
X434Y-326D01*
X439Y-331D01*
X445Y-334D01*
X454D01*
X459Y-331D01*
X465Y-326D01*
X478Y-311D02*
X512D01*
Y-306D01*
X509Y-300D01*
X507Y-297D01*
X501Y-294D01*
X492D01*
X487Y-297D01*
X481Y-303D01*
X478Y-311D01*
Y-317D01*
X481Y-326D01*
X487Y-331D01*
X492Y-334D01*
X501D01*
X507Y-331D01*
X512Y-326D01*
X525Y-294D02*
Y-334D01*
Y-306D02*
X534Y-297D01*
X539Y-294D01*
X548D01*
X554Y-297D01*
X557Y-306D01*
Y-334D01*
D52*
X-200Y2224D02*
X-100Y2324D01*
X-200Y-21D02*
X-100Y-121D01*
X8180D02*
X8280Y-21D01*
X8180Y2324D02*
X8280Y2224D01*
X8280D01*
Y2074D02*
Y2224D01*
Y-21D02*
Y129D01*
X-100Y-121D02*
X8180D01*
X-100Y2324D02*
X8180D01*
X-200Y-21D02*
Y2224D01*
D53*
X8280Y2074D02*
X8792D01*
X8280Y129D02*
X8792D01*
Y2074D01*
D77*
X5597Y1537D02*
G03*
X5597Y1537I-5J0D01*
G01*
X5597Y1920D02*
G03*
X5597Y1920I-5J0D01*
G01*
X5602Y925D02*
G03*
X5602Y925I-5J0D01*
G01*
Y550D02*
G03*
X5602Y550I-5J0D01*
G01*
X1010Y1076D02*
G03*
X1010Y1076I-5J0D01*
G01*
X4282Y560D02*
G03*
X4282Y560I-5J0D01*
G01*
D78*
X7644Y778D02*
Y805D01*
X7612Y778D02*
X7644D01*
X7526D02*
X7557D01*
X7526D02*
Y805D01*
X6579Y308D02*
Y335D01*
X6547Y308D02*
X6579D01*
X6461D02*
X6492D01*
X6461D02*
Y335D01*
X5103Y1480D02*
X5135D01*
X4854Y252D02*
Y283D01*
X5074Y251D02*
Y282D01*
X8368Y1278D02*
Y1380D01*
X8573Y1278D02*
Y1380D01*
X8368Y1278D02*
X8443D01*
X8498D02*
X8573D01*
X8368Y1380D02*
X8443D01*
X8498D02*
X8573D01*
X8498Y1250D02*
X8573D01*
X8368D02*
X8443D01*
X8498Y1148D02*
X8573D01*
X8368D02*
X8443D01*
X8573D02*
Y1250D01*
X8368Y1148D02*
Y1250D01*
Y938D02*
Y1040D01*
X8573Y938D02*
Y1040D01*
X8368Y938D02*
X8443D01*
X8498D02*
X8573D01*
X8368Y1040D02*
X8443D01*
X8498D02*
X8573D01*
X8498Y910D02*
X8573D01*
X8368D02*
X8443D01*
X8498Y808D02*
X8573D01*
X8368D02*
X8443D01*
X8573D02*
Y910D01*
X8368Y808D02*
Y910D01*
Y678D02*
Y780D01*
X8573Y678D02*
Y780D01*
X8368Y678D02*
X8443D01*
X8498D02*
X8573D01*
X8368Y780D02*
X8443D01*
X8498D02*
X8573D01*
X7534Y251D02*
X7636D01*
X7534Y456D02*
X7636D01*
Y251D02*
Y326D01*
Y381D02*
Y456D01*
X7534Y251D02*
Y326D01*
Y381D02*
Y456D01*
X7734Y251D02*
X7836D01*
X7734Y456D02*
X7836D01*
Y251D02*
Y326D01*
Y381D02*
Y456D01*
X7734Y251D02*
Y326D01*
Y381D02*
Y456D01*
X7345Y254D02*
X7447D01*
X7345Y459D02*
X7447D01*
Y254D02*
Y329D01*
Y384D02*
Y459D01*
X7345Y254D02*
Y329D01*
Y384D02*
Y459D01*
X7156Y254D02*
X7258D01*
X7156Y459D02*
X7258D01*
Y254D02*
Y329D01*
Y384D02*
Y459D01*
X7156Y254D02*
Y329D01*
Y384D02*
Y459D01*
X6964Y254D02*
X7066D01*
X6964Y459D02*
X7066D01*
Y254D02*
Y329D01*
Y384D02*
Y459D01*
X6964Y254D02*
Y329D01*
Y384D02*
Y459D01*
X6646Y254D02*
X6748D01*
X6646Y459D02*
X6748D01*
Y254D02*
Y329D01*
Y384D02*
Y459D01*
X6646Y254D02*
Y329D01*
Y384D02*
Y459D01*
X7556Y1948D02*
X7658D01*
X7556Y1743D02*
X7658D01*
X7556Y1873D02*
Y1948D01*
Y1743D02*
Y1818D01*
X7658Y1873D02*
Y1948D01*
Y1743D02*
Y1818D01*
X7736Y1948D02*
X7838D01*
X7736Y1743D02*
X7838D01*
X7736Y1873D02*
Y1948D01*
Y1743D02*
Y1818D01*
X7838Y1873D02*
Y1948D01*
Y1743D02*
Y1818D01*
X7234Y1948D02*
X7336D01*
X7234Y1743D02*
X7336D01*
X7234Y1873D02*
Y1948D01*
Y1743D02*
Y1818D01*
X7336Y1873D02*
Y1948D01*
Y1743D02*
Y1818D01*
X6966Y1948D02*
X7068D01*
X6966Y1743D02*
X7068D01*
X6966Y1873D02*
Y1948D01*
Y1743D02*
Y1818D01*
X7068Y1873D02*
Y1948D01*
Y1743D02*
Y1818D01*
X6646Y1948D02*
X6748D01*
X6646Y1743D02*
X6748D01*
X6646Y1873D02*
Y1948D01*
Y1743D02*
Y1818D01*
X6748Y1873D02*
Y1948D01*
Y1743D02*
Y1818D01*
X2150Y1764D02*
Y1796D01*
Y1689D02*
Y1721D01*
X8368Y1408D02*
Y1510D01*
X8573Y1408D02*
Y1510D01*
X8368Y1408D02*
X8443D01*
X8498D02*
X8573D01*
X8368Y1510D02*
X8443D01*
X8498D02*
X8573D01*
X7216Y618D02*
Y645D01*
Y618D02*
X7247D01*
X7302D02*
X7334D01*
Y645D01*
X6984Y620D02*
Y647D01*
X6953D02*
X6984D01*
X6866D02*
X6898D01*
X6866Y620D02*
Y647D01*
X6716Y593D02*
Y620D01*
Y593D02*
X6747D01*
X6802D02*
X6834D01*
Y620D01*
X7409Y1490D02*
Y1517D01*
X7378D02*
X7409D01*
X7291D02*
X7323D01*
X7291Y1490D02*
Y1517D01*
X7401Y1818D02*
Y1845D01*
Y1818D02*
X7432D01*
X7487D02*
X7519D01*
Y1845D01*
X1314Y1185D02*
X1346D01*
X7449Y1435D02*
X7481D01*
X7149Y830D02*
X7181D01*
X7539Y1435D02*
X7571D01*
X7219Y830D02*
X7251D01*
X609Y630D02*
X641D01*
X7294Y830D02*
X7326D01*
X6899Y1435D02*
X6931D01*
X6909Y805D02*
X6941D01*
X6569Y1435D02*
X6601D01*
X6589Y805D02*
X6621D01*
X7859Y1435D02*
X7891D01*
X7684Y805D02*
X7716D01*
X7224Y1435D02*
X7256D01*
X7134D02*
X7166D01*
X7769Y805D02*
X7801D01*
X7769Y1435D02*
X7801D01*
X6681Y805D02*
X6713D01*
X6479Y1435D02*
X6511D01*
X6999Y805D02*
X7031D01*
X6809Y1435D02*
X6841D01*
X7379Y830D02*
X7411D01*
X2610Y959D02*
Y991D01*
X834Y1254D02*
X866D01*
X834Y1316D02*
X866D01*
X421Y794D02*
X453D01*
X421Y857D02*
X453D01*
X741Y654D02*
X773D01*
X741Y717D02*
X773D01*
X778Y280D02*
Y311D01*
X716Y280D02*
Y311D01*
X2674Y1451D02*
X2706D01*
X2674Y1389D02*
X2706D01*
X2398Y1630D02*
Y1661D01*
X2336Y1630D02*
Y1661D01*
X2415Y959D02*
Y991D01*
X2610Y889D02*
Y921D01*
X2625Y1749D02*
Y1781D01*
X2351Y1446D02*
X2383D01*
X2945Y1454D02*
Y1486D01*
X2570Y1184D02*
Y1216D01*
X5603Y1397D02*
Y1468D01*
Y1397D02*
X5997D01*
Y1468D01*
X5603D02*
X5997D01*
X5603Y1780D02*
Y1851D01*
Y1780D02*
X5997D01*
Y1851D01*
X5603D02*
X5997D01*
X5608Y785D02*
Y856D01*
Y785D02*
X6002D01*
Y856D01*
X5608D02*
X6002D01*
X5608Y410D02*
Y481D01*
Y410D02*
X6002D01*
Y481D01*
X5608D02*
X6002D01*
X3644Y1155D02*
X3676D01*
X3574D02*
X3606D01*
X3504Y1155D02*
X3536D01*
X4391Y1765D02*
Y1792D01*
X4423D01*
X4478D02*
X4509D01*
Y1765D02*
Y1792D01*
X4181Y1765D02*
Y1792D01*
X4213D01*
X4268D02*
X4299D01*
Y1765D02*
Y1792D01*
X3966Y1765D02*
Y1792D01*
X3998D01*
X4053D02*
X4084D01*
Y1765D02*
Y1792D01*
X7919Y1867D02*
Y1941D01*
Y1737D02*
Y1811D01*
X8022Y1867D02*
Y1941D01*
Y1737D02*
Y1811D01*
X7919Y1941D02*
X8022D01*
X7919Y1737D02*
X8022D01*
X1074Y1086D02*
X1145D01*
Y1283D01*
X1074D02*
X1145D01*
X1074Y1086D02*
Y1283D01*
X4288Y491D02*
X4682D01*
Y420D02*
Y491D01*
X4288Y420D02*
X4682D01*
X4288D02*
Y491D01*
X362Y630D02*
X528D01*
X362Y370D02*
X528D01*
X362Y543D02*
Y630D01*
Y370D02*
Y457D01*
X528Y543D02*
Y630D01*
Y370D02*
Y457D01*
D80*
X5635Y1442D02*
G03*
X5635Y1442I-6J0D01*
G01*
X5635Y1825D02*
G03*
X5635Y1825I-6J0D01*
G01*
X5640Y830D02*
G03*
X5640Y830I-6J0D01*
G01*
Y455D02*
G03*
X5640Y455I-6J0D01*
G01*
X1106Y1112D02*
G03*
X1106Y1112I-6J0D01*
G01*
X4320Y465D02*
G03*
X4320Y465I-6J0D01*
G01*
D85*
X4902Y730D02*
Y779D01*
X5028Y730D02*
Y779D01*
X5192Y730D02*
Y779D01*
X5318Y730D02*
Y779D01*
X5183Y1700D02*
Y1749D01*
X5057Y1700D02*
Y1749D01*
M02*
