%FSLAX23Y23*%
%MOIN*%
G70*
G01*
G75*
G04 Layer_Physical_Order=2*
G04 Layer_Color=32768*
%ADD10O,0.024X0.059*%
%ADD11O,0.018X0.067*%
%ADD12O,0.059X0.024*%
%ADD13R,0.071X0.051*%
%ADD14R,0.039X0.039*%
%ADD15R,0.039X0.035*%
%ADD16R,0.039X0.039*%
%ADD17R,0.080X0.050*%
%ADD18R,0.134X0.085*%
%ADD19R,0.041X0.085*%
%ADD20R,0.041X0.085*%
%ADD21R,0.106X0.071*%
%ADD22R,0.035X0.039*%
%ADD23O,0.024X0.087*%
%ADD24R,0.051X0.071*%
%ADD25R,0.047X0.047*%
%ADD26R,0.075X0.134*%
%ADD27O,0.024X0.087*%
%ADD28C,0.040*%
%ADD29R,0.016X0.049*%
%ADD30R,0.071X0.079*%
%ADD31R,0.079X0.031*%
%ADD32R,0.134X0.063*%
%ADD33R,0.026X0.041*%
%ADD34R,0.134X0.075*%
%ADD35R,0.091X0.091*%
%ADD36O,0.087X0.024*%
%ADD37O,0.087X0.024*%
%ADD38R,0.071X0.094*%
%ADD39R,0.084X0.052*%
%ADD40O,0.011X0.067*%
%ADD41O,0.067X0.011*%
%ADD42R,0.141X0.116*%
%ADD43O,0.012X0.047*%
%ADD44R,0.177X0.059*%
%ADD45C,0.008*%
%ADD46C,0.012*%
%ADD47C,0.010*%
%ADD48C,0.025*%
%ADD49C,0.020*%
%ADD50C,0.015*%
%ADD51C,0.012*%
%ADD52C,0.004*%
%ADD53C,0.004*%
%ADD54C,0.118*%
%ADD55C,0.125*%
%ADD56C,0.035*%
%ADD57C,0.118*%
%ADD58C,0.065*%
%ADD59R,0.065X0.065*%
%ADD60R,0.065X0.065*%
%ADD61C,0.039*%
%ADD62C,0.040*%
%ADD63C,0.158*%
%ADD64C,0.168*%
%ADD65C,0.056*%
%ADD66C,0.079*%
%ADD67C,0.079*%
%ADD68C,0.058*%
%ADD69C,0.060*%
G36*
X1245Y1495D02*
X1230Y1480D01*
Y1345D01*
X1160D01*
Y1040D01*
X1245D01*
Y-115D01*
X975Y-110D01*
Y1040D01*
X1055D01*
Y1345D01*
X975D01*
Y1620D01*
X805D01*
X650Y1470D01*
Y965D01*
X-190D01*
Y1625D01*
X-186Y2225D01*
X-97Y2321D01*
X1246Y2322D01*
X1245Y1495D01*
D02*
G37*
D47*
X-120Y-289D02*
X-123Y-283D01*
X-129Y-277D01*
X-134Y-274D01*
X-146D01*
X-152Y-277D01*
X-157Y-283D01*
X-160Y-289D01*
X-163Y-297D01*
Y-311D01*
X-160Y-320D01*
X-157Y-326D01*
X-152Y-331D01*
X-146Y-334D01*
X-134D01*
X-129Y-331D01*
X-123Y-326D01*
X-120Y-320D01*
Y-311D01*
X-134D02*
X-120D01*
X-106Y-294D02*
Y-334D01*
Y-311D02*
X-104Y-303D01*
X-98Y-297D01*
X-92Y-294D01*
X-84D01*
X-64D02*
X-70Y-297D01*
X-75Y-303D01*
X-78Y-311D01*
Y-317D01*
X-75Y-326D01*
X-70Y-331D01*
X-64Y-334D01*
X-55D01*
X-50Y-331D01*
X-44Y-326D01*
X-41Y-317D01*
Y-311D01*
X-44Y-303D01*
X-50Y-297D01*
X-55Y-294D01*
X-64D01*
X-28D02*
Y-323D01*
X-25Y-331D01*
X-19Y-334D01*
X-11D01*
X-5Y-331D01*
X4Y-323D01*
Y-294D02*
Y-334D01*
X19Y-294D02*
Y-334D01*
Y-306D02*
X28Y-297D01*
X34Y-294D01*
X42D01*
X48Y-297D01*
X51Y-306D01*
Y-334D01*
X101Y-274D02*
Y-334D01*
Y-303D02*
X95Y-297D01*
X89Y-294D01*
X81D01*
X75Y-297D01*
X69Y-303D01*
X66Y-311D01*
Y-317D01*
X69Y-326D01*
X75Y-331D01*
X81Y-334D01*
X89D01*
X95Y-331D01*
X101Y-326D01*
X164Y-306D02*
X189D01*
X198Y-303D01*
X201Y-300D01*
X204Y-294D01*
Y-286D01*
X201Y-280D01*
X198Y-277D01*
X189Y-274D01*
X164D01*
Y-334D01*
X217Y-274D02*
Y-334D01*
X264Y-294D02*
Y-334D01*
Y-303D02*
X258Y-297D01*
X253Y-294D01*
X244D01*
X238Y-297D01*
X233Y-303D01*
X230Y-311D01*
Y-317D01*
X233Y-326D01*
X238Y-331D01*
X244Y-334D01*
X253D01*
X258Y-331D01*
X264Y-326D01*
X280Y-294D02*
Y-334D01*
Y-306D02*
X289Y-297D01*
X294Y-294D01*
X303D01*
X309Y-297D01*
X311Y-306D01*
Y-334D01*
X327Y-311D02*
X361D01*
Y-306D01*
X359Y-300D01*
X356Y-297D01*
X350Y-294D01*
X341D01*
X336Y-297D01*
X330Y-303D01*
X327Y-311D01*
Y-317D01*
X330Y-326D01*
X336Y-331D01*
X341Y-334D01*
X350D01*
X356Y-331D01*
X361Y-326D01*
X441Y-263D02*
X436Y-269D01*
X430Y-277D01*
X424Y-289D01*
X421Y-303D01*
Y-314D01*
X424Y-329D01*
X430Y-340D01*
X436Y-349D01*
X441Y-354D01*
X436Y-269D02*
X430Y-280D01*
X427Y-289D01*
X424Y-303D01*
Y-314D01*
X427Y-329D01*
X430Y-337D01*
X436Y-349D01*
X453Y-274D02*
Y-334D01*
X487D01*
X528Y-294D02*
Y-334D01*
Y-303D02*
X522Y-297D01*
X517Y-294D01*
X508D01*
X502Y-297D01*
X497Y-303D01*
X494Y-311D01*
Y-317D01*
X497Y-326D01*
X502Y-331D01*
X508Y-334D01*
X517D01*
X522Y-331D01*
X528Y-326D01*
X547Y-294D02*
X564Y-334D01*
X581Y-294D02*
X564Y-334D01*
X558Y-346D01*
X553Y-351D01*
X547Y-354D01*
X544D01*
X591Y-311D02*
X625D01*
Y-306D01*
X623Y-300D01*
X620Y-297D01*
X614Y-294D01*
X605D01*
X600Y-297D01*
X594Y-303D01*
X591Y-311D01*
Y-317D01*
X594Y-326D01*
X600Y-331D01*
X605Y-334D01*
X614D01*
X620Y-331D01*
X625Y-326D01*
X638Y-294D02*
Y-334D01*
Y-311D02*
X641Y-303D01*
X647Y-297D01*
X653Y-294D01*
X661D01*
X719Y-274D02*
X751D01*
X734Y-297D01*
X742D01*
X748Y-300D01*
X751Y-303D01*
X754Y-311D01*
Y-317D01*
X751Y-326D01*
X745Y-331D01*
X737Y-334D01*
X728D01*
X719Y-331D01*
X717Y-329D01*
X714Y-323D01*
X767Y-263D02*
X773Y-269D01*
X779Y-277D01*
X784Y-289D01*
X787Y-303D01*
Y-314D01*
X784Y-329D01*
X779Y-340D01*
X773Y-349D01*
X767Y-354D01*
X773Y-269D02*
X779Y-280D01*
X781Y-289D01*
X784Y-303D01*
Y-314D01*
X781Y-329D01*
X779Y-337D01*
X773Y-349D01*
D49*
X980Y1030D02*
X1065D01*
X990D02*
X1065D01*
X975Y1025D02*
X980Y1030D01*
X975Y1345D02*
X1065D01*
X975D02*
Y1435D01*
Y1620D01*
Y-121D02*
Y1025D01*
X1065Y1030D02*
Y1345D01*
X975Y1620D02*
X980Y1625D01*
X805D02*
X980D01*
X650Y1470D02*
X805Y1625D01*
X650Y965D02*
Y1470D01*
X-200Y965D02*
X650D01*
D52*
X-200Y2224D02*
X-100Y2324D01*
X-200Y-21D02*
X-100Y-121D01*
X8180D02*
X8280Y-21D01*
X8180Y2324D02*
X8280Y2224D01*
X8280D01*
Y2074D02*
Y2224D01*
Y-21D02*
Y129D01*
X-100Y-121D02*
X8180D01*
X-100Y2324D02*
X8180D01*
X-200Y-21D02*
Y2224D01*
D53*
X8280Y2074D02*
X8792D01*
X8280Y129D02*
X8792D01*
Y2074D01*
D62*
X-100Y-121D02*
X8180D01*
X8280Y-21D01*
Y129D01*
X8792D01*
Y2074D01*
X8280D02*
X8792D01*
X8280D02*
Y2224D01*
X8280D02*
X8280D01*
X8180Y2324D02*
X8280Y2224D01*
X-100Y2324D02*
X8180D01*
X-200Y2224D02*
X-100Y2324D01*
X-200Y-21D02*
Y2224D01*
Y-21D02*
X-100Y-121D01*
D63*
X-19Y981D02*
D03*
X8560Y537D02*
D03*
Y1666D02*
D03*
X-19Y1763D02*
D03*
Y1341D02*
D03*
X-19Y495D02*
D03*
Y680D02*
D03*
D64*
X8100Y229D02*
D03*
X0Y2202D02*
D03*
Y0D02*
D03*
D65*
X570Y485D02*
D03*
X660D02*
D03*
X1995Y1920D02*
D03*
X3530Y960D02*
D03*
X3650Y1050D02*
D03*
X3790Y675D02*
D03*
X3100Y1275D02*
D03*
X3020D02*
D03*
X2925Y1200D02*
D03*
X2835Y840D02*
D03*
X2115Y1095D02*
D03*
Y1020D02*
D03*
X3055Y1640D02*
D03*
X3130D02*
D03*
X2910Y1730D02*
D03*
X2115Y945D02*
D03*
X3000Y1725D02*
D03*
X2115Y870D02*
D03*
X3860Y1565D02*
D03*
X4165Y245D02*
D03*
X4695Y760D02*
D03*
D66*
X8106Y452D02*
D03*
Y570D02*
D03*
Y688D02*
D03*
Y806D02*
D03*
Y924D02*
D03*
Y1042D02*
D03*
Y1160D02*
D03*
Y1278D02*
D03*
Y1396D02*
D03*
Y1515D02*
D03*
Y1633D02*
D03*
Y1751D02*
D03*
X8224Y452D02*
D03*
Y570D02*
D03*
Y688D02*
D03*
Y806D02*
D03*
Y924D02*
D03*
Y1042D02*
D03*
Y1160D02*
D03*
Y1278D02*
D03*
Y1396D02*
D03*
Y1515D02*
D03*
Y1633D02*
D03*
Y1751D02*
D03*
X151Y1375D02*
D03*
Y1493D02*
D03*
Y1611D02*
D03*
X151Y1257D02*
D03*
X151Y1729D02*
D03*
Y1847D02*
D03*
X269Y1257D02*
D03*
X269Y1373D02*
D03*
X269Y1847D02*
D03*
X269Y1729D02*
D03*
Y1611D02*
D03*
Y1493D02*
D03*
X151Y646D02*
D03*
Y765D02*
D03*
X269Y528D02*
D03*
Y646D02*
D03*
Y765D02*
D03*
X2000Y700D02*
D03*
X2100D02*
D03*
X2300D02*
D03*
X2400D02*
D03*
X2500D02*
D03*
X2600D02*
D03*
X2700D02*
D03*
D67*
X151Y528D02*
D03*
D68*
X5302Y662D02*
D03*
X7139Y1789D02*
D03*
X6838Y535D02*
D03*
X7728Y1217D02*
D03*
X7623Y1201D02*
D03*
X7450Y1195D02*
D03*
X7490Y1055D02*
D03*
X7550Y1240D02*
D03*
X7540Y1030D02*
D03*
X7500Y1220D02*
D03*
X7585Y710D02*
D03*
X7877Y1325D02*
D03*
X8085Y1894D02*
D03*
X7695Y914D02*
D03*
X7306Y916D02*
D03*
X7397Y678D02*
D03*
X6585Y1326D02*
D03*
X6495D02*
D03*
X7241Y1325D02*
D03*
X4025Y1855D02*
D03*
X4240D02*
D03*
X4450D02*
D03*
X6040Y1865D02*
D03*
X5505Y1855D02*
D03*
X6100Y1825D02*
D03*
X6040Y1795D02*
D03*
X6050Y865D02*
D03*
Y805D02*
D03*
X5500Y910D02*
D03*
Y805D02*
D03*
X4635Y1700D02*
D03*
X800Y1045D02*
D03*
X905Y700D02*
D03*
X4385Y835D02*
D03*
X4105Y620D02*
D03*
X835Y1870D02*
D03*
X4170Y865D02*
D03*
X4745Y575D02*
D03*
X5535Y235D02*
D03*
X1735Y1000D02*
D03*
X3610Y1970D02*
D03*
X4815Y1805D02*
D03*
X5105Y800D02*
D03*
X5350Y825D02*
D03*
X2825Y1833D02*
D03*
X5630Y993D02*
D03*
X4843Y1448D02*
D03*
X4793Y1485D02*
D03*
X2836Y1310D02*
D03*
X3000Y1620D02*
D03*
X3921Y1562D02*
D03*
X4389Y245D02*
D03*
X2856Y441D02*
D03*
X4019Y492D02*
D03*
X2697Y250D02*
D03*
X5303Y238D02*
D03*
X5334Y1425D02*
D03*
X4796Y855D02*
D03*
X3244Y1550D02*
D03*
X4779Y739D02*
D03*
X5386Y426D02*
D03*
X5385Y544D02*
D03*
X3193Y1529D02*
D03*
X4436Y1495D02*
D03*
X4639Y1799D02*
D03*
X5029Y1349D02*
D03*
X5036Y1570D02*
D03*
X5269Y1767D02*
D03*
X4955Y1268D02*
D03*
X4758Y1541D02*
D03*
X2870Y1471D02*
D03*
X2027Y2018D02*
D03*
X1447Y1908D02*
D03*
X1402Y1870D02*
D03*
X5264Y307D02*
D03*
X6010Y1590D02*
D03*
X6015Y595D02*
D03*
Y673D02*
D03*
X4982Y1029D02*
D03*
X5931Y995D02*
D03*
X5829Y994D02*
D03*
X5383Y714D02*
D03*
X5384Y993D02*
D03*
X5875Y441D02*
D03*
X4862Y1961D02*
D03*
X6129Y1459D02*
D03*
X6339Y636D02*
D03*
X6181Y750D02*
D03*
X6182Y519D02*
D03*
X2802Y1113D02*
D03*
X1930Y960D02*
D03*
X1730Y1378D02*
D03*
X3135Y1960D02*
D03*
X4425Y440D02*
D03*
X4635Y630D02*
D03*
X4535D02*
D03*
X3694Y689D02*
D03*
X3660Y1244D02*
D03*
X4727Y1948D02*
D03*
X5457Y432D02*
D03*
X5122Y1571D02*
D03*
X4094Y458D02*
D03*
X2805Y300D02*
D03*
X2460Y510D02*
D03*
X2258Y1591D02*
D03*
X1975Y1750D02*
D03*
X1390Y1155D02*
D03*
X1275Y1215D02*
D03*
Y1155D02*
D03*
X1387Y991D02*
D03*
X1565Y1270D02*
D03*
X1462Y1346D02*
D03*
X1550Y1970D02*
D03*
X5925Y1975D02*
D03*
X5255Y1531D02*
D03*
X5955Y620D02*
D03*
X5855D02*
D03*
X5755D02*
D03*
X5655D02*
D03*
X5955Y805D02*
D03*
X5855Y805D02*
D03*
X5755Y805D02*
D03*
X5655D02*
D03*
X715Y620D02*
D03*
X810Y755D02*
D03*
X905Y1220D02*
D03*
X3330Y1960D02*
D03*
X7373Y1326D02*
D03*
X500Y1979D02*
D03*
X7300Y200D02*
D03*
X7490Y408D02*
D03*
X7197Y606D02*
D03*
X6079Y1313D02*
D03*
X7150Y1529D02*
D03*
X7787Y1533D02*
D03*
X6951Y1660D02*
D03*
X6661Y1389D02*
D03*
X6087Y1221D02*
D03*
X6167Y1272D02*
D03*
X4077Y801D02*
D03*
X7016Y710D02*
D03*
X6572Y596D02*
D03*
X6648Y1646D02*
D03*
X4692Y1140D02*
D03*
X4772Y941D02*
D03*
X7059Y1478D02*
D03*
X7787Y679D02*
D03*
X4342Y1076D02*
D03*
X3860Y1123D02*
D03*
X3977Y1221D02*
D03*
X3195Y1808D02*
D03*
X2987Y1826D02*
D03*
X3857Y936D02*
D03*
X3307Y816D02*
D03*
X5555Y1817D02*
D03*
X6010Y1660D02*
D03*
X6087Y1021D02*
D03*
X6167Y1071D02*
D03*
X6087Y1121D02*
D03*
X6167Y1172D02*
D03*
X665Y285D02*
D03*
X835Y1345D02*
D03*
X442Y936D02*
D03*
X3660Y2015D02*
D03*
X3475Y2020D02*
D03*
X1938Y1488D02*
D03*
X1443Y726D02*
D03*
X1566Y990D02*
D03*
X1575Y575D02*
D03*
X1387Y265D02*
D03*
X1645Y1345D02*
D03*
X6600Y412D02*
D03*
X7112Y356D02*
D03*
X6795Y270D02*
D03*
X6912Y281D02*
D03*
X7205Y236D02*
D03*
X7490Y269D02*
D03*
X7887Y271D02*
D03*
X7410Y1965D02*
D03*
X7882Y1931D02*
D03*
X6902Y1951D02*
D03*
X6582Y1946D02*
D03*
X6405Y1485D02*
D03*
X6734Y1478D02*
D03*
X7697D02*
D03*
X7877Y760D02*
D03*
X7487Y759D02*
D03*
X6552Y841D02*
D03*
X7108Y759D02*
D03*
X6787D02*
D03*
X4627Y1011D02*
D03*
X4427D02*
D03*
X4327D02*
D03*
X4577Y1141D02*
D03*
X4222Y245D02*
D03*
X3757Y631D02*
D03*
X3162Y256D02*
D03*
X3072D02*
D03*
X2972Y476D02*
D03*
X3157D02*
D03*
X2972Y256D02*
D03*
X2962Y616D02*
D03*
X3067Y476D02*
D03*
X2437Y1406D02*
D03*
X2587Y1654D02*
D03*
X3900Y1666D02*
D03*
X4500Y1665D02*
D03*
X4395D02*
D03*
X4290Y1670D02*
D03*
X4185D02*
D03*
X4080Y1665D02*
D03*
X3975D02*
D03*
X6517Y1171D02*
D03*
X6377Y1221D02*
D03*
Y1121D02*
D03*
Y1021D02*
D03*
X6378Y922D02*
D03*
X6517Y1271D02*
D03*
X6926Y911D02*
D03*
X7682Y1902D02*
D03*
X4025Y1910D02*
D03*
X4135D02*
D03*
X4240D02*
D03*
X4345D02*
D03*
X4450D02*
D03*
X4555D02*
D03*
X2255Y1852D02*
D03*
X2257Y1721D02*
D03*
Y1786D02*
D03*
X2632Y1051D02*
D03*
X1462Y1511D02*
D03*
X625Y535D02*
D03*
X4717Y836D02*
D03*
X2638Y1834D02*
D03*
X2606Y1893D02*
D03*
X2562Y1846D02*
D03*
X2755Y2005D02*
D03*
X2825Y2005D02*
D03*
X2553Y1688D02*
D03*
X1965Y1815D02*
D03*
X3115Y1530D02*
D03*
X2822Y1256D02*
D03*
X1640Y1515D02*
D03*
X4030Y940D02*
D03*
X2060Y1260D02*
D03*
X2522Y1541D02*
D03*
X1890Y2010D02*
D03*
X3404Y1800D02*
D03*
X1767Y791D02*
D03*
X2474Y1631D02*
D03*
X2500Y1590D02*
D03*
X637Y916D02*
D03*
X835Y1430D02*
D03*
X700Y1275D02*
D03*
X517Y916D02*
D03*
X2965Y1152D02*
D03*
X3361Y1151D02*
D03*
X3116Y965D02*
D03*
X3004Y1199D02*
D03*
X4536Y836D02*
D03*
X4607Y836D02*
D03*
X3900Y1841D02*
D03*
X825Y225D02*
D03*
X7464Y1546D02*
D03*
X1517Y336D02*
D03*
X2600Y1254D02*
D03*
X3800Y390D02*
D03*
X5625Y1985D02*
D03*
X5750Y1795D02*
D03*
X5850D02*
D03*
X5950D02*
D03*
X5750Y1605D02*
D03*
X5650D02*
D03*
X5850D02*
D03*
X5950D02*
D03*
X5650Y1795D02*
D03*
X6361Y1275D02*
D03*
X6485Y1804D02*
D03*
X6587Y1793D02*
D03*
X740Y945D02*
D03*
X940Y1160D02*
D03*
X700D02*
D03*
X830Y890D02*
D03*
X1015Y1065D02*
D03*
X5060Y745D02*
D03*
X4885Y727D02*
D03*
X4934Y346D02*
D03*
X4993Y344D02*
D03*
X5106Y404D02*
D03*
X4819Y402D02*
D03*
X4770Y270D02*
D03*
X5152D02*
D03*
X5235Y667D02*
D03*
X5028Y1291D02*
D03*
X4918Y1007D02*
D03*
X5630Y235D02*
D03*
X5590Y1585D02*
D03*
X5400Y1625D02*
D03*
X5150Y1958D02*
D03*
X5206Y1910D02*
D03*
X5825Y1985D02*
D03*
X5088Y1960D02*
D03*
X5725Y1992D02*
D03*
X5680Y455D02*
D03*
X4611Y273D02*
D03*
X5597Y671D02*
D03*
X5708Y834D02*
D03*
X5584Y875D02*
D03*
X5025Y1062D02*
D03*
X5840D02*
D03*
X5343Y955D02*
D03*
X6220Y1979D02*
D03*
X2109Y1195D02*
D03*
X2275Y1231D02*
D03*
X2334D02*
D03*
X1973Y1210D02*
D03*
Y1279D02*
D03*
X2222Y1380D02*
D03*
X6084Y257D02*
D03*
X5105Y545D02*
D03*
X5227Y272D02*
D03*
X5537Y329D02*
D03*
X6271Y1759D02*
D03*
Y1361D02*
D03*
X5860Y1251D02*
D03*
X5449Y1385D02*
D03*
X4749Y412D02*
D03*
X4635Y438D02*
D03*
X5731Y275D02*
D03*
X5288Y1027D02*
D03*
X5497D02*
D03*
X5472Y324D02*
D03*
X5345Y1897D02*
D03*
X6270D02*
D03*
X6366Y1846D02*
D03*
X6166Y921D02*
D03*
X6194Y1846D02*
D03*
X1814Y1713D02*
D03*
X2185Y1852D02*
D03*
X2777Y1633D02*
D03*
X2522Y1472D02*
D03*
X4969Y1976D02*
D03*
X4926Y1941D02*
D03*
X2595Y1505D02*
D03*
X5346Y1795D02*
D03*
X2185Y784D02*
D03*
X2800Y1419D02*
D03*
X7310Y1583D02*
D03*
X6146Y1676D02*
D03*
X6370D02*
D03*
X1894Y198D02*
D03*
X6215Y250D02*
D03*
X1942Y220D02*
D03*
X6164Y268D02*
D03*
X4288Y758D02*
D03*
X5268Y586D02*
D03*
X5271Y828D02*
D03*
X4885Y588D02*
D03*
X4953Y585D02*
D03*
X4950Y672D02*
D03*
X4949Y831D02*
D03*
X5025Y1755D02*
D03*
X5185Y1598D02*
D03*
X5118Y1633D02*
D03*
X5055D02*
D03*
X5050Y514D02*
D03*
X4856Y498D02*
D03*
X6295Y1980D02*
D03*
X2737Y1256D02*
D03*
X2823Y370D02*
D03*
X2219Y1231D02*
D03*
X2604Y568D02*
D03*
X2748Y1327D02*
D03*
X2150Y406D02*
D03*
X1650Y635D02*
D03*
X1369Y493D02*
D03*
X1355Y571D02*
D03*
X2696Y568D02*
D03*
X2390Y531D02*
D03*
X6275Y250D02*
D03*
X6861Y405D02*
D03*
X6915Y1323D02*
D03*
X7506Y986D02*
D03*
X3412Y916D02*
D03*
X2749Y1695D02*
D03*
X2663Y1687D02*
D03*
X2700Y906D02*
D03*
X1959Y1126D02*
D03*
X2493Y1069D02*
D03*
X2284Y1387D02*
D03*
X2490Y1394D02*
D03*
X2535Y1376D02*
D03*
X2584Y1356D02*
D03*
D69*
X6165Y970D02*
D03*
X2745Y1826D02*
D03*
X2383Y919D02*
D03*
M02*
