*
*
G04 PADS Layout (Build Number 2006.45.1) generated Gerber (RS-274-X) file*
G04 PC Version=2.1*
*
%IN "09-000040-00_AD.pcb"*%
*
%MOIN*%
*
%FSLAX25Y25*%
*
*
*
*
G04 PC Standard Apertures*
*
*
G04 Thermal Relief Aperture macro.*
%AMTER*
1,1,$1,0,0*
1,0,$1-$2,0,0*
21,0,$3,$4,0,0,45*
21,0,$3,$4,0,0,135*
%
*
*
G04 Annular Aperture macro.*
%AMANN*
1,1,$1,0,0*
1,0,$2,0,0*
%
*
*
G04 Odd Aperture macro.*
%AMODD*
1,1,$1,0,0*
1,0,$1-0.005,0,0*
%
*
*
G04 PC Custom Aperture Macros*
*
*
*
*
*
*
G04 PC Aperture Table*
*
%ADD010C,0.01575*%
%ADD011C,0.00984*%
%ADD012C,0.01969*%
%ADD013C,0.00787*%
%ADD014C,0.00394*%
%ADD016C,0.01181*%
%ADD017C,0.02362*%
%ADD018R,0.05118X0.05118*%
%ADD019R,0.09449X0.09449*%
%ADD020R,0.03937X0.03937*%
%ADD021R,0.04724X0.04724*%
%ADD027R,0.01181X0.01181*%
%ADD028R,0.01969X0.01969*%
%ADD029R,0.08268X0.08268*%
%ADD030C,0.00197*%
%ADD033R,0.03543X0.03543*%
%ADD034R,0.01378X0.01378*%
%ADD037R,0.09843X0.09843*%
%ADD038R,0.07087X0.07087*%
%ADD054C,0.02559*%
%ADD063C,0.004*%
%ADD069R,0.03346X0.03346*%
%ADD072C,0.01575*%
%ADD077C,0.00039*%
*
*
*
*
G04 PC Custom Flashes*
G04 Layer Name 09-000040-00_AD.pcb - flashes*
%LPD*%
*
*
G04 PC Circuitry*
G04 Layer Name 09-000040-00_AD.pcb - circuitry*
%LPD*%
*
G54D10*
G01X1849213Y1156791D02*
X1845669D01*
X1849213Y1159350D02*
X1845669D01*
X1849213Y1161909D02*
X1845669D01*
X1849213Y1164469D02*
X1845669D01*
X1832283D02*
X1828740D01*
X1832283Y1161909D02*
X1828740D01*
X1832283Y1159350D02*
X1828740D01*
X1832283Y1156791D02*
X1828740D01*
X1626969Y1162992D02*
Y1157874D01*
X1624409Y1162992D02*
Y1157874D01*
X1621850Y1162992D02*
Y1157874D01*
X1619291Y1162992D02*
Y1157874D01*
X1616732Y1162992D02*
Y1157874D01*
X1614173Y1162992D02*
Y1157874D01*
X1611614Y1162992D02*
Y1157874D01*
Y1140551D02*
Y1135433D01*
X1614173Y1140551D02*
Y1135433D01*
X1616732Y1140551D02*
Y1135433D01*
X1619291Y1140551D02*
Y1135433D01*
X1621850Y1140551D02*
Y1135433D01*
X1624409Y1140551D02*
Y1135433D01*
X1626969Y1140551D02*
Y1135433D01*
X1749606Y1133268D02*
X1754724D01*
X1749606Y1130709D02*
X1754724D01*
X1749606Y1128150D02*
X1754724D01*
X1749606Y1125591D02*
X1754724D01*
X1749606Y1123031D02*
X1754724D01*
X1749606Y1120472D02*
X1754724D01*
X1749606Y1117913D02*
X1754724D01*
X1772047D02*
X1777165D01*
X1772047Y1120472D02*
X1777165D01*
X1772047Y1123031D02*
X1777165D01*
X1772047Y1125591D02*
X1777165D01*
X1772047Y1128150D02*
X1777165D01*
X1772047Y1130709D02*
X1777165D01*
X1772047Y1133268D02*
X1777165D01*
X1767394Y897736D02*
X1766321Y897244D01*
X1765605Y895768*
X1765247Y893307*
Y891831*
X1765605Y889370*
X1766321Y887894*
X1767394Y887402*
X1768110*
X1769184Y887894*
X1769900Y889370*
X1770258Y891831*
Y893307*
X1769900Y895768*
X1769184Y897244*
X1768110Y897736*
X1767394*
X1778132Y894291D02*
X1777774Y892815D01*
X1777058Y891831*
X1775984Y891339*
X1775626*
X1774553Y891831*
X1773837Y892815*
X1773479Y894291*
Y894783*
X1773837Y896260*
X1774553Y897244*
X1775626Y897736*
X1775984*
X1777058Y897244*
X1777774Y896260*
X1778132Y894291*
Y891831*
X1777774Y889370*
X1777058Y887894*
X1775984Y887402*
X1775268*
X1774195Y887894*
X1773837Y888878*
X1781353Y891831D02*
X1787795D01*
X1793164Y897736D02*
X1792090Y897244D01*
X1791374Y895768*
X1791016Y893307*
Y891831*
X1791374Y889370*
X1792090Y887894*
X1793164Y887402*
X1793880*
X1794953Y887894*
X1795669Y889370*
X1796027Y891831*
Y893307*
X1795669Y895768*
X1794953Y897244*
X1793880Y897736*
X1793164*
X1801396D02*
X1800322Y897244D01*
X1799606Y895768*
X1799248Y893307*
Y891831*
X1799606Y889370*
X1800322Y887894*
X1801396Y887402*
X1802112*
X1803185Y887894*
X1803901Y889370*
X1804259Y891831*
Y893307*
X1803901Y895768*
X1803185Y897244*
X1802112Y897736*
X1801396*
X1809628D02*
X1808554Y897244D01*
X1807838Y895768*
X1807480Y893307*
Y891831*
X1807838Y889370*
X1808554Y887894*
X1809628Y887402*
X1810344*
X1811417Y887894*
X1812133Y889370*
X1812491Y891831*
Y893307*
X1812133Y895768*
X1811417Y897244*
X1810344Y897736*
X1809628*
X1817860D02*
X1816786Y897244D01*
X1816070Y895768*
X1815712Y893307*
Y891831*
X1816070Y889370*
X1816786Y887894*
X1817860Y887402*
X1818576*
X1819649Y887894*
X1820365Y889370*
X1820723Y891831*
Y893307*
X1820365Y895768*
X1819649Y897244*
X1818576Y897736*
X1817860*
X1827523D02*
X1823944Y890846D01*
X1829313*
X1827523Y897736D02*
Y887402D01*
X1834681Y897736D02*
X1833608Y897244D01*
X1832892Y895768*
X1832534Y893307*
Y891831*
X1832892Y889370*
X1833608Y887894*
X1834681Y887402*
X1835397*
X1836471Y887894*
X1837187Y889370*
X1837545Y891831*
Y893307*
X1837187Y895768*
X1836471Y897244*
X1835397Y897736*
X1834681*
X1552613Y952608D02*
X1555476Y942274D01*
X1558339Y952608D02*
X1555476Y942274D01*
X1561560Y952608D02*
Y942274D01*
Y952608D02*
X1566213D01*
X1561560Y947687D02*
X1564424D01*
X1561560Y942274D02*
X1566213D01*
X1569435Y952608D02*
Y942274D01*
X1574445Y952608D02*
Y942274D01*
X1569435Y947687D02*
X1574445D01*
X1577666Y952608D02*
Y942274D01*
X1586256Y950148D02*
X1585898Y951132D01*
X1585183Y952116*
X1584467Y952608*
X1583035*
X1582319Y952116*
X1581603Y951132*
X1581246Y950148*
X1580888Y948671*
Y946211*
X1581246Y944734*
X1581603Y943750*
X1582319Y942766*
X1583035Y942274*
X1584467*
X1585183Y942766*
X1585898Y943750*
X1586256Y944734*
X1589477Y952608D02*
Y942274D01*
X1593772*
X1596994Y952608D02*
Y942274D01*
Y952608D02*
X1601646D01*
X1596994Y947687D02*
X1599857D01*
X1596994Y942274D02*
X1601646D01*
X1613099Y952608D02*
Y942274D01*
Y952608D02*
X1615605D01*
X1616679Y952116*
X1617394Y951132*
X1617752Y950148*
X1618110Y948671*
Y946211*
X1617752Y944734*
X1617394Y943750*
X1616679Y942766*
X1615605Y942274*
X1613099*
X1621331Y952608D02*
Y942274D01*
X1629563Y951132D02*
X1628848Y952116D01*
X1627774Y952608*
X1626342*
X1625268Y952116*
X1624553Y951132*
Y950148*
X1624911Y949163*
X1625268Y948671*
X1625984Y948179*
X1628132Y947195*
X1628848Y946703*
X1629205Y946211*
X1629563Y945226*
Y943750*
X1628848Y942766*
X1627774Y942274*
X1626342*
X1625268Y942766*
X1624553Y943750*
X1632785Y952608D02*
Y942274D01*
Y952608D02*
X1636006D01*
X1637079Y952116*
X1637437Y951624*
X1637795Y950640*
Y949163*
X1637437Y948179*
X1637079Y947687*
X1636006Y947195*
X1632785*
X1641016Y952608D02*
Y942274D01*
X1645311*
X1651396Y952608D02*
X1648533Y942274D01*
X1651396Y952608D02*
X1654259Y942274D01*
X1649606Y945719D02*
X1653185D01*
X1657480Y952608D02*
X1660344Y947687D01*
Y942274*
X1663207Y952608D02*
X1660344Y947687D01*
X1679671Y951132D02*
X1678955Y952116D01*
X1677881Y952608*
X1676450*
X1675376Y952116*
X1674660Y951132*
Y950148*
X1675018Y949163*
X1675376Y948671*
X1676092Y948179*
X1678239Y947195*
X1678955Y946703*
X1679313Y946211*
X1679671Y945226*
Y943750*
X1678955Y942766*
X1677881Y942274*
X1676450*
X1675376Y942766*
X1674660Y943750*
X1682892Y952608D02*
X1685755Y947687D01*
Y942274*
X1688618Y952608D02*
X1685755Y947687D01*
X1696850Y951132D02*
X1696135Y952116D01*
X1695061Y952608*
X1693629*
X1692555Y952116*
X1691840Y951132*
Y950148*
X1692198Y949163*
X1692555Y948671*
X1693271Y948179*
X1695419Y947195*
X1696135Y946703*
X1696492Y946211*
X1696850Y945226*
Y943750*
X1696135Y942766*
X1695061Y942274*
X1693629*
X1692555Y942766*
X1691840Y943750*
X1702577Y952608D02*
Y942274D01*
X1700072Y952608D02*
X1705082D01*
X1708304D02*
Y942274D01*
Y952608D02*
X1712956D01*
X1708304Y947687D02*
X1711167D01*
X1708304Y942274D02*
X1712956D01*
X1716178Y952608D02*
Y942274D01*
Y952608D02*
X1719041Y942274D01*
X1721904Y952608D02*
X1719041Y942274D01*
X1721904Y952608D02*
Y942274D01*
X1738726Y950148D02*
X1738368Y951132D01*
X1737652Y952116*
X1736936Y952608*
X1735505*
X1734789Y952116*
X1734073Y951132*
X1733715Y950148*
X1733357Y948671*
Y946211*
X1733715Y944734*
X1734073Y943750*
X1734789Y942766*
X1735505Y942274*
X1736936*
X1737652Y942766*
X1738368Y943750*
X1738726Y944734*
X1744094Y952608D02*
X1743379Y952116D01*
X1742663Y951132*
X1742305Y950148*
X1741947Y948671*
Y946211*
X1742305Y944734*
X1742663Y943750*
X1743379Y942766*
X1744094Y942274*
X1745526*
X1746242Y942766*
X1746958Y943750*
X1747316Y944734*
X1747674Y946211*
Y948671*
X1747316Y950148*
X1746958Y951132*
X1746242Y952116*
X1745526Y952608*
X1744094*
X1750895D02*
Y942274D01*
Y952608D02*
X1755906Y942274D01*
Y952608D02*
Y942274D01*
X1761632Y952608D02*
Y942274D01*
X1759127Y952608D02*
X1764137D01*
X1767359D02*
Y942274D01*
Y952608D02*
X1770580D01*
X1771654Y952116*
X1772011Y951624*
X1772369Y950640*
Y949656*
X1772011Y948671*
X1771654Y948179*
X1770580Y947687*
X1767359*
X1769864D02*
X1772369Y942274D01*
X1777738Y952608D02*
X1777022Y952116D01*
X1776306Y951132*
X1775948Y950148*
X1775591Y948671*
Y946211*
X1775948Y944734*
X1776306Y943750*
X1777022Y942766*
X1777738Y942274*
X1779170*
X1779885Y942766*
X1780601Y943750*
X1780959Y944734*
X1781317Y946211*
Y948671*
X1780959Y950148*
X1780601Y951132*
X1779885Y952116*
X1779170Y952608*
X1777738*
X1784538D02*
Y942274D01*
X1788833*
X1792054Y952608D02*
Y942274D01*
X1796349*
X1799571Y952608D02*
Y942274D01*
Y952608D02*
X1804223D01*
X1799571Y947687D02*
X1802434D01*
X1799571Y942274D02*
X1804223D01*
X1807445Y952608D02*
Y942274D01*
Y952608D02*
X1810666D01*
X1811739Y952116*
X1812097Y951624*
X1812455Y950640*
Y949656*
X1812097Y948671*
X1811739Y948179*
X1810666Y947687*
X1807445*
X1809950D02*
X1812455Y942274D01*
X1823908Y952608D02*
Y942274D01*
Y952608D02*
X1827130D01*
X1828203Y952116*
X1828561Y951624*
X1828919Y950640*
Y949656*
X1828561Y948671*
X1828203Y948179*
X1827130Y947687*
X1823908D02*
X1827130D01*
X1828203Y947195*
X1828561Y946703*
X1828919Y945719*
Y944242*
X1828561Y943258*
X1828203Y942766*
X1827130Y942274*
X1823908*
X1834288Y952608D02*
X1833572Y952116D01*
X1832856Y951132*
X1832498Y950148*
X1832140Y948671*
Y946211*
X1832498Y944734*
X1832856Y943750*
X1833572Y942766*
X1834288Y942274*
X1835719*
X1836435Y942766*
X1837151Y943750*
X1837509Y944734*
X1837867Y946211*
Y948671*
X1837509Y950148*
X1837151Y951132*
X1836435Y952116*
X1835719Y952608*
X1834288*
X1843951D02*
X1841088Y942274D01*
X1843951Y952608D02*
X1846815Y942274D01*
X1842162Y945719D02*
X1845741D01*
X1850036Y952608D02*
Y942274D01*
Y952608D02*
X1853257D01*
X1854331Y952116*
X1854689Y951624*
X1855047Y950640*
Y949656*
X1854689Y948671*
X1854331Y948179*
X1853257Y947687*
X1850036*
X1852541D02*
X1855047Y942274D01*
X1858268Y952608D02*
Y942274D01*
Y952608D02*
X1860773D01*
X1861847Y952116*
X1862563Y951132*
X1862921Y950148*
X1863278Y948671*
Y946211*
X1862921Y944734*
X1862563Y943750*
X1861847Y942766*
X1860773Y942274*
X1858268*
X1843307Y897736D02*
Y887402D01*
Y897736D02*
X1846528D01*
X1847602Y897244*
X1847960Y896752*
X1848318Y895768*
Y894291*
X1847960Y893307*
X1847602Y892815*
X1846528Y892323*
X1843307*
X1854044Y897736D02*
Y887402D01*
X1851539Y897736D02*
X1856550D01*
X1860129Y888386D02*
X1859771Y887894D01*
X1860129Y887402*
X1860487Y887894*
X1860129Y888386*
X1863708Y897736D02*
Y887402D01*
Y897736D02*
X1866929D01*
X1868003Y897244*
X1868361Y896752*
X1868719Y895768*
Y894291*
X1868361Y893307*
X1868003Y892815*
X1866929Y892323*
X1863708*
X1871940Y897736D02*
Y887402D01*
X1876951Y897736D02*
Y887402D01*
X1871940Y892815D02*
X1876951D01*
X1882319Y897736D02*
X1881603Y897244D01*
X1880888Y896260*
X1880530Y895276*
X1880172Y893799*
Y891339*
X1880530Y889862*
X1880888Y888878*
X1881603Y887894*
X1882319Y887402*
X1883751*
X1884467Y887894*
X1885183Y888878*
X1885540Y889862*
X1885898Y891339*
Y893799*
X1885540Y895276*
X1885183Y896260*
X1884467Y897244*
X1883751Y897736*
X1882319*
X1532283D02*
Y887402D01*
Y897736D02*
X1535505D01*
X1536578Y897244*
X1536936Y896752*
X1537294Y895768*
Y894291*
X1536936Y893307*
X1536578Y892815*
X1535505Y892323*
X1532283*
X1543379Y897736D02*
X1540515Y887402D01*
X1543379Y897736D02*
X1546242Y887402D01*
X1541589Y890846D02*
X1545168D01*
X1554474Y896260D02*
X1553758Y897244D01*
X1552684Y897736*
X1551253*
X1550179Y897244*
X1549463Y896260*
Y895276*
X1549821Y894291*
X1550179Y893799*
X1550895Y893307*
X1553042Y892323*
X1553758Y891831*
X1554116Y891339*
X1554474Y890354*
Y888878*
X1553758Y887894*
X1552684Y887402*
X1551253*
X1550179Y887894*
X1549463Y888878*
X1560200Y897736D02*
Y887402D01*
X1557695Y897736D02*
X1562706D01*
X1565927D02*
Y887402D01*
Y897736D02*
X1570580D01*
X1565927Y892815D02*
X1568790D01*
X1565927Y887402D02*
X1570580D01*
X1582033Y897736D02*
Y887402D01*
Y897736D02*
X1584896Y887402D01*
X1587759Y897736D02*
X1584896Y887402D01*
X1587759Y897736D02*
Y887402D01*
X1593844Y897736D02*
X1590981Y887402D01*
X1593844Y897736D02*
X1596707Y887402D01*
X1592054Y890846D02*
X1595633D01*
X1604939Y896260D02*
X1604223Y897244D01*
X1603150Y897736*
X1601718*
X1600644Y897244*
X1599928Y896260*
Y895276*
X1600286Y894291*
X1600644Y893799*
X1601360Y893307*
X1603508Y892323*
X1604223Y891831*
X1604581Y891339*
X1604939Y890354*
Y888878*
X1604223Y887894*
X1603150Y887402*
X1601718*
X1600644Y887894*
X1599928Y888878*
X1608160Y897736D02*
Y887402D01*
X1613171Y897736D02*
X1608160Y890846D01*
X1609950Y893307D02*
X1613171Y887402D01*
X1627130Y899705D02*
X1626414Y898720D01*
X1625698Y897244*
X1624982Y895276*
X1624624Y892815*
Y890846*
X1624982Y888386*
X1625698Y886417*
X1626414Y884941*
X1627130Y883957*
X1632856Y897736D02*
Y887402D01*
X1630351Y897736D02*
X1635361D01*
X1640730D02*
X1640014Y897244D01*
X1639298Y896260*
X1638941Y895276*
X1638583Y893799*
Y891339*
X1638941Y889862*
X1639298Y888878*
X1640014Y887894*
X1640730Y887402*
X1642162*
X1642878Y887894*
X1643593Y888878*
X1643951Y889862*
X1644309Y891339*
Y893799*
X1643951Y895276*
X1643593Y896260*
X1642878Y897244*
X1642162Y897736*
X1640730*
X1647530D02*
Y887402D01*
Y897736D02*
X1650752D01*
X1651825Y897244*
X1652183Y896752*
X1652541Y895768*
Y894291*
X1652183Y893307*
X1651825Y892815*
X1650752Y892323*
X1647530*
X1669005Y896260D02*
X1668289Y897244D01*
X1667215Y897736*
X1665784*
X1664710Y897244*
X1663994Y896260*
Y895276*
X1664352Y894291*
X1664710Y893799*
X1665426Y893307*
X1667573Y892323*
X1668289Y891831*
X1668647Y891339*
X1669005Y890354*
Y888878*
X1668289Y887894*
X1667215Y887402*
X1665784*
X1664710Y887894*
X1663994Y888878*
X1672226Y897736D02*
Y887402D01*
X1675447Y897736D02*
Y887402D01*
Y897736D02*
X1677953D01*
X1679026Y897244*
X1679742Y896260*
X1680100Y895276*
X1680458Y893799*
Y891339*
X1680100Y889862*
X1679742Y888878*
X1679026Y887894*
X1677953Y887402*
X1675447*
X1683679Y897736D02*
Y887402D01*
Y897736D02*
X1688332D01*
X1683679Y892815D02*
X1686543D01*
X1683679Y887402D02*
X1688332D01*
X1691553Y899705D02*
X1692269Y898720D01*
X1692985Y897244*
X1693701Y895276*
X1694059Y892815*
Y890846*
X1693701Y888386*
X1692985Y886417*
X1692269Y884941*
X1691553Y883957*
G54D11*
X1799409Y1232677D02*
Y1227559D01*
X1797441Y1232677D02*
Y1227559D01*
X1795472Y1232677D02*
Y1227559D01*
X1793504Y1232677D02*
Y1227559D01*
X1791535Y1232677D02*
Y1227559D01*
X1789567Y1232677D02*
Y1227559D01*
X1787598Y1232677D02*
Y1227559D01*
X1785630Y1232677D02*
Y1227559D01*
X1783661Y1232677D02*
Y1227559D01*
X1781693Y1232677D02*
Y1227559D01*
X1779724Y1232677D02*
Y1227559D01*
X1777756Y1232677D02*
Y1227559D01*
X1775787Y1232677D02*
Y1227559D01*
X1773819Y1232677D02*
Y1227559D01*
X1771850Y1232677D02*
Y1227559D01*
X1769882Y1232677D02*
Y1227559D01*
X1767913Y1232677D02*
Y1227559D01*
X1765945Y1232677D02*
Y1227559D01*
X1763976Y1232677D02*
Y1227559D01*
X1762008Y1232677D02*
Y1227559D01*
X1760039Y1232677D02*
Y1227559D01*
X1758071Y1232677D02*
Y1227559D01*
X1756102Y1232677D02*
Y1227559D01*
X1754134Y1232677D02*
Y1227559D01*
X1752165Y1232677D02*
Y1227559D01*
X1750197Y1232677D02*
Y1227559D01*
X1748228Y1232677D02*
Y1227559D01*
X1746260Y1232677D02*
Y1227559D01*
Y1155906D02*
Y1150787D01*
X1748228Y1155906D02*
Y1150787D01*
X1750197Y1155906D02*
Y1150787D01*
X1752165Y1155906D02*
Y1150787D01*
X1754134Y1155906D02*
Y1150787D01*
X1756102Y1155906D02*
Y1150787D01*
X1758071Y1155906D02*
Y1150787D01*
X1760039Y1155906D02*
Y1150787D01*
X1762008Y1155906D02*
Y1150787D01*
X1763976Y1155906D02*
Y1150787D01*
X1765945Y1155906D02*
Y1150787D01*
X1767913Y1155906D02*
Y1150787D01*
X1769882Y1155906D02*
Y1150787D01*
X1771850Y1155906D02*
Y1150787D01*
X1773819Y1155906D02*
Y1150787D01*
X1775787Y1155906D02*
Y1150787D01*
X1777756Y1155906D02*
Y1150787D01*
X1779724Y1155906D02*
Y1150787D01*
X1781693Y1155906D02*
Y1150787D01*
X1783661Y1155906D02*
Y1150787D01*
X1785630Y1155906D02*
Y1150787D01*
X1787598Y1155906D02*
Y1150787D01*
X1789567Y1155906D02*
Y1150787D01*
X1791535Y1155906D02*
Y1150787D01*
X1793504Y1155906D02*
Y1150787D01*
X1795472Y1155906D02*
Y1150787D01*
X1797441Y1155906D02*
Y1150787D01*
X1799409Y1155906D02*
Y1150787D01*
X1750006Y1072230D02*
X1754337D01*
X1750006Y1070261D02*
X1754337D01*
X1750006Y1068293D02*
X1754337D01*
X1750006Y1066324D02*
X1754337D01*
X1750006Y1064356D02*
X1754337D01*
X1766935D02*
X1771266D01*
X1766935Y1066324D02*
X1771266D01*
X1766935Y1068293D02*
X1771266D01*
X1766935Y1070261D02*
X1771266D01*
X1766935Y1072230D02*
X1771266D01*
X1776606Y1072330D02*
X1780937D01*
X1776606Y1070361D02*
X1780937D01*
X1776606Y1068393D02*
X1780937D01*
X1776606Y1066424D02*
X1780937D01*
X1776606Y1064456D02*
X1780937D01*
X1793535D02*
X1797866D01*
X1793535Y1066424D02*
X1797866D01*
X1793535Y1068393D02*
X1797866D01*
X1793535Y1070361D02*
X1797866D01*
X1793535Y1072330D02*
X1797866D01*
X1524409Y912205D02*
G75*
G03X1528346Y908268I3937J-0D01*
G01X1689764*
G03X1693701Y912205I-0J3937*
G01Y927953*
G03X1689764Y931890I-3937J-0*
G01X1528346*
G03X1524409Y927953I0J-3937*
G01Y912205*
X1697638D02*
G03X1701575Y908268I3937J-0D01*
G01X1737008*
G03X1740945Y912205I-0J3937*
G01Y927953*
G03X1737008Y931890I-3937J-0*
G01X1701575*
G03X1697638Y927953I-0J-3937*
G01Y912205*
X1524409Y884646D02*
G03X1528346Y880709I3937J-0D01*
G01X1737008*
G03X1740945Y884646I-0J3937*
G01Y900394*
G03X1737008Y904331I-3937J-0*
G01X1528346*
G03X1524409Y900394I0J-3937*
G01Y884646*
X1744882D02*
G03X1748819Y880709I3937J-0D01*
G01X1890551*
G03X1894488Y884646I0J3937*
G01Y900394*
G03X1890551Y904331I-3937J-0*
G01X1748819*
G03X1744882Y900394I-0J-3937*
G01Y884646*
Y912205D02*
G03X1748819Y908268I3937J-0D01*
G01X1890551*
G03X1894488Y912205I0J3937*
G01Y927953*
G03X1890551Y931890I-3937J-0*
G01X1748819*
G03X1744882Y927953I-0J-3937*
G01Y912205*
X1524409Y939764D02*
G03X1528346Y935827I3937J-0D01*
G01X1890551*
G03X1894488Y939764I0J3937*
G01Y955512*
G03X1890551Y959449I-3937J-0*
G01X1528346*
G03X1524409Y955512I0J-3937*
G01Y939764*
G54D12*
X1640846Y1315354D02*
X1644980D01*
X1640846Y1312205D02*
X1644980D01*
X1640846Y1309055D02*
X1644980D01*
X1640846Y1305906D02*
X1644980D01*
X1640846Y1302756D02*
X1644980D01*
X1640846Y1299606D02*
X1644980D01*
X1640846Y1296457D02*
X1644980D01*
X1640846Y1293307D02*
X1644980D01*
X1640846Y1290157D02*
X1644980D01*
X1640846Y1287008D02*
X1644980D01*
X1640846Y1283858D02*
X1644980D01*
X1640846Y1280709D02*
X1644980D01*
X1640846Y1277559D02*
X1644980D01*
X1640846Y1274409D02*
X1644980D01*
X1640846Y1271260D02*
X1644980D01*
X1640846Y1268110D02*
X1644980D01*
X1640846Y1264961D02*
X1644980D01*
X1640846Y1261811D02*
X1644980D01*
X1640846Y1258661D02*
X1644980D01*
X1640846Y1255512D02*
X1644980D01*
X1640846Y1252362D02*
X1644980D01*
X1640846Y1249213D02*
X1644980D01*
X1684941D02*
X1689075D01*
X1684941Y1252362D02*
X1689075D01*
X1684941Y1255512D02*
X1689075D01*
X1684941Y1258661D02*
X1689075D01*
X1684941Y1261811D02*
X1689075D01*
X1684941Y1264961D02*
X1689075D01*
X1684941Y1268110D02*
X1689075D01*
X1684941Y1271260D02*
X1689075D01*
X1684941Y1274409D02*
X1689075D01*
X1684941Y1277559D02*
X1689075D01*
X1684941Y1280709D02*
X1689075D01*
X1684941Y1283858D02*
X1689075D01*
X1684941Y1287008D02*
X1689075D01*
X1684941Y1290157D02*
X1689075D01*
X1684941Y1293307D02*
X1689075D01*
X1684941Y1296457D02*
X1689075D01*
X1684941Y1299606D02*
X1689075D01*
X1684941Y1302756D02*
X1689075D01*
X1684941Y1305906D02*
X1689075D01*
X1684941Y1309055D02*
X1689075D01*
X1684941Y1312205D02*
X1689075D01*
X1684941Y1315354D02*
X1689075D01*
X1708563D02*
X1712697D01*
X1708563Y1312205D02*
X1712697D01*
X1708563Y1309055D02*
X1712697D01*
X1708563Y1305906D02*
X1712697D01*
X1708563Y1302756D02*
X1712697D01*
X1708563Y1299606D02*
X1712697D01*
X1708563Y1296457D02*
X1712697D01*
X1708563Y1293307D02*
X1712697D01*
X1708563Y1290157D02*
X1712697D01*
X1708563Y1287008D02*
X1712697D01*
X1708563Y1283858D02*
X1712697D01*
X1708563Y1280709D02*
X1712697D01*
X1708563Y1277559D02*
X1712697D01*
X1708563Y1274409D02*
X1712697D01*
X1708563Y1271260D02*
X1712697D01*
X1708563Y1268110D02*
X1712697D01*
X1708563Y1264961D02*
X1712697D01*
X1708563Y1261811D02*
X1712697D01*
X1708563Y1258661D02*
X1712697D01*
X1708563Y1255512D02*
X1712697D01*
X1708563Y1252362D02*
X1712697D01*
X1708563Y1249213D02*
X1712697D01*
X1752657D02*
X1756791D01*
X1752657Y1252362D02*
X1756791D01*
X1752657Y1255512D02*
X1756791D01*
X1752657Y1258661D02*
X1756791D01*
X1752657Y1261811D02*
X1756791D01*
X1752657Y1264961D02*
X1756791D01*
X1752657Y1268110D02*
X1756791D01*
X1752657Y1271260D02*
X1756791D01*
X1752657Y1274409D02*
X1756791D01*
X1752657Y1277559D02*
X1756791D01*
X1752657Y1280709D02*
X1756791D01*
X1752657Y1283858D02*
X1756791D01*
X1752657Y1287008D02*
X1756791D01*
X1752657Y1290157D02*
X1756791D01*
X1752657Y1293307D02*
X1756791D01*
X1752657Y1296457D02*
X1756791D01*
X1752657Y1299606D02*
X1756791D01*
X1752657Y1302756D02*
X1756791D01*
X1752657Y1305906D02*
X1756791D01*
X1752657Y1309055D02*
X1756791D01*
X1752657Y1312205D02*
X1756791D01*
X1752657Y1315354D02*
X1756791D01*
X1520472Y884646D02*
G03X1528346Y876772I7874J-0D01*
G01X1890551*
G03X1898425Y884646I0J7874*
G01Y955512*
G03X1890551Y963386I-7874J-0*
G01X1528346*
G03X1520472Y955512I0J-7874*
G01Y884646*
G54D13*
X1601969Y1088583D02*
X1605118D01*
Y1091732*
X1610630*
Y1083071*
X1601969*
Y1088583*
Y1083465D02*
X1610630D01*
X1601969Y1084252D02*
X1610630D01*
X1601969Y1085039D02*
X1610630D01*
X1601969Y1085827D02*
X1610630D01*
X1601969Y1086614D02*
X1610630D01*
X1601969Y1087402D02*
X1610630D01*
X1601969Y1088189D02*
X1610630D01*
X1605118Y1088976D02*
X1610630D01*
X1605118Y1089764D02*
X1610630D01*
X1605118Y1090551D02*
X1610630D01*
X1605118Y1091339D02*
X1610630D01*
X1601969Y1083071D02*
Y1088583D01*
X1602756Y1083071D02*
Y1088583D01*
X1603543Y1083071D02*
Y1088583D01*
X1604331Y1083071D02*
Y1088583D01*
X1605118Y1083071D02*
Y1088583D01*
X1605906Y1083071D02*
Y1091732D01*
X1606693Y1083071D02*
Y1091732D01*
X1607480Y1083071D02*
Y1091732D01*
X1608268Y1083071D02*
Y1091732D01*
X1609055Y1083071D02*
Y1091732D01*
X1609843Y1083071D02*
Y1091732D01*
X1610630Y1083071D02*
Y1091732D01*
X1723622Y1088583D02*
X1720472D01*
Y1091732*
X1714961*
Y1083071*
X1723622*
Y1088583*
X1714961Y1083465D02*
X1723622D01*
X1714961Y1084252D02*
X1723622D01*
X1714961Y1085039D02*
X1723622D01*
X1714961Y1085827D02*
X1723622D01*
X1714961Y1086614D02*
X1723622D01*
X1714961Y1087402D02*
X1723622D01*
X1714961Y1088189D02*
X1723622D01*
X1714961Y1088976D02*
X1720472D01*
X1714961Y1089764D02*
X1720472D01*
X1714961Y1090551D02*
X1720472D01*
X1714961Y1091339D02*
X1720472D01*
X1715354Y1083071D02*
Y1091732D01*
X1716142Y1083071D02*
Y1091732D01*
X1716929Y1083071D02*
Y1091732D01*
X1717717Y1083071D02*
Y1091732D01*
X1718504Y1083071D02*
Y1091732D01*
X1719291Y1083071D02*
Y1091732D01*
X1720079Y1083071D02*
Y1091732D01*
X1720866Y1083071D02*
Y1088583D01*
X1721654Y1083071D02*
Y1088583D01*
X1722441Y1083071D02*
Y1088583D01*
X1723228Y1083071D02*
Y1088583D01*
X1751503Y900394D02*
X1751324Y900886D01*
X1750966Y901378*
X1750608Y901624*
X1749893*
X1749535Y901378*
X1749177Y900886*
X1748998Y900394*
X1748819Y899656*
Y898425*
X1748998Y897687*
X1749177Y897195*
X1749535Y896703*
X1749893Y896457*
X1750608*
X1750966Y896703*
X1751324Y897195*
X1751503Y897687*
Y898425*
X1750608D02*
X1751503D01*
X1753114Y901624D02*
Y896457D01*
Y901624D02*
X1755440D01*
X1753114Y899163D02*
X1754545D01*
X1753114Y896457D02*
X1755440D01*
X1757051Y901624D02*
Y896457D01*
Y901624D02*
X1758661D01*
X1759198Y901378*
X1759377Y901132*
X1759556Y900640*
Y900148*
X1759377Y899656*
X1759198Y899409*
X1758661Y899163*
X1757051*
X1758304D02*
X1759556Y896457D01*
X1761167Y901624D02*
Y896457D01*
Y901624D02*
X1762777D01*
X1763314Y901378*
X1763493Y901132*
X1763672Y900640*
Y900148*
X1763493Y899656*
X1763314Y899409*
X1762777Y899163*
X1761167D02*
X1762777D01*
X1763314Y898917*
X1763493Y898671*
X1763672Y898179*
Y897441*
X1763493Y896949*
X1763314Y896703*
X1762777Y896457*
X1761167*
X1765283Y901624D02*
Y896457D01*
Y901624D02*
X1767609D01*
X1765283Y899163D02*
X1766714D01*
X1765283Y896457D02*
X1767609D01*
X1769220Y901624D02*
Y896457D01*
Y901624D02*
X1770830D01*
X1771367Y901378*
X1771546Y901132*
X1771725Y900640*
Y900148*
X1771546Y899656*
X1771367Y899409*
X1770830Y899163*
X1769220*
X1770472D02*
X1771725Y896457D01*
X1773515Y899902D02*
X1773336Y899656D01*
X1773515Y899409*
X1773694Y899656*
X1773515Y899902*
Y896949D02*
X1773336Y896703D01*
X1773515Y896457*
X1773694Y896703*
X1773515Y896949*
X1748819Y929183D02*
Y924016D01*
Y929183D02*
X1750072D01*
X1750608Y928937*
X1750966Y928445*
X1751145Y927953*
X1751324Y927215*
Y925984*
X1751145Y925246*
X1750966Y924754*
X1750608Y924262*
X1750072Y924016*
X1748819*
X1754366Y929183D02*
X1752935Y924016D01*
X1754366Y929183D02*
X1755798Y924016D01*
X1753472Y925738D02*
X1755261D01*
X1758661Y929183D02*
Y924016D01*
X1757409Y929183D02*
X1759914D01*
X1761525D02*
Y924016D01*
Y929183D02*
X1763851D01*
X1761525Y926722D02*
X1762956D01*
X1761525Y924016D02*
X1763851D01*
X1765641Y927461D02*
X1765462Y927215D01*
X1765641Y926969*
X1765820Y927215*
X1765641Y927461*
Y924508D02*
X1765462Y924262D01*
X1765641Y924016*
X1765820Y924262*
X1765641Y924508*
X1701575Y929183D02*
Y924016D01*
Y929183D02*
X1703185D01*
X1703722Y928937*
X1703901Y928691*
X1704080Y928199*
Y927707*
X1703901Y927215*
X1703722Y926969*
X1703185Y926722*
X1701575*
X1702827D02*
X1704080Y924016D01*
X1705691Y929183D02*
Y924016D01*
Y929183D02*
X1708017D01*
X1705691Y926722D02*
X1707122D01*
X1705691Y924016D02*
X1708017D01*
X1709628Y929183D02*
X1711059Y924016D01*
X1712491Y929183D02*
X1711059Y924016D01*
X1714281Y927461D02*
X1714102Y927215D01*
X1714281Y926969*
X1714460Y927215*
X1714281Y927461*
Y924508D02*
X1714102Y924262D01*
X1714281Y924016*
X1714460Y924262*
X1714281Y924508*
X1528346Y929183D02*
Y924016D01*
Y929183D02*
X1529957D01*
X1530494Y928937*
X1530673Y928691*
X1530852Y928199*
Y927461*
X1530673Y926969*
X1530494Y926722*
X1529957Y926476*
X1528346*
X1533894Y929183D02*
X1532462Y924016D01*
X1533894Y929183D02*
X1535326Y924016D01*
X1532999Y925738D02*
X1534789D01*
X1536936Y929183D02*
Y924016D01*
Y929183D02*
X1538547D01*
X1539084Y928937*
X1539263Y928691*
X1539442Y928199*
Y927707*
X1539263Y927215*
X1539084Y926969*
X1538547Y926722*
X1536936*
X1538189D02*
X1539442Y924016D01*
X1542305Y929183D02*
Y924016D01*
X1541052Y929183D02*
X1543558D01*
X1549284D02*
Y924016D01*
Y929183D02*
X1551790Y924016D01*
Y929183D02*
Y924016D01*
X1554474Y929183D02*
X1554116Y928937D01*
X1553758Y928445*
X1553579Y927953*
X1553400Y927215*
Y925984*
X1553579Y925246*
X1553758Y924754*
X1554116Y924262*
X1554474Y924016*
X1555190*
X1555548Y924262*
X1555906Y924754*
X1556084Y925246*
X1556263Y925984*
Y927215*
X1556084Y927953*
X1555906Y928445*
X1555548Y928937*
X1555190Y929183*
X1554474*
X1558053Y924508D02*
X1557874Y924262D01*
X1558053Y924016*
X1558232Y924262*
X1558053Y924508*
X1560021Y927461D02*
X1559843Y927215D01*
X1560021Y926969*
X1560200Y927215*
X1560021Y927461*
Y924508D02*
X1559843Y924262D01*
X1560021Y924016*
X1560200Y924262*
X1560021Y924508*
X1493307Y875591D02*
G03X1493307I-3937J0D01*
G01X1497244D02*
G03X1497244I-7874J0D01*
G01X1493307Y1324409D02*
G03X1493307I-3937J0D01*
G01X1497244D02*
G03X1497244I-7874J0D01*
G01X1914567Y875591D02*
G03X1914567I-3937J0D01*
G01X1918504D02*
G03X1918504I-7874J0D01*
G54D14*
G01X1477559D02*
X1501181D01*
X1489370Y863780D02*
Y887402D01*
X1477559Y1324409D02*
X1501181D01*
X1489370Y1312598D02*
Y1336220D01*
X1898819Y875591D02*
X1922441D01*
X1910630Y863780D02*
Y887402D01*
X1481102Y876772D02*
X1481142D01*
X1481102D02*
X1481299D01*
G54D16*
X1725098Y1153346D02*
X1719390D01*
X1725098Y1155315D02*
X1719390D01*
X1725098Y1157283D02*
X1719390D01*
X1725098Y1159252D02*
X1719390D01*
X1725098Y1161220D02*
X1719390D01*
X1725098Y1163189D02*
X1719390D01*
X1725098Y1165157D02*
X1719390D01*
X1725098Y1167126D02*
X1719390D01*
X1725098Y1169094D02*
X1719390D01*
X1725098Y1171063D02*
X1719390D01*
X1725098Y1173031D02*
X1719390D01*
X1725098Y1175000D02*
X1719390D01*
X1725098Y1176969D02*
X1719390D01*
X1725098Y1178937D02*
X1719390D01*
X1725098Y1180906D02*
X1719390D01*
X1725098Y1182874D02*
X1719390D01*
X1725098Y1184843D02*
X1719390D01*
X1725098Y1186811D02*
X1719390D01*
X1725098Y1188780D02*
X1719390D01*
X1725098Y1190748D02*
X1719390D01*
X1725098Y1192717D02*
X1719390D01*
X1725098Y1194685D02*
X1719390D01*
X1725098Y1196654D02*
X1719390D01*
X1725098Y1198622D02*
X1719390D01*
X1725098Y1200591D02*
X1719390D01*
X1725098Y1202559D02*
X1719390D01*
X1725098Y1204528D02*
X1719390D01*
X1725098Y1206496D02*
X1719390D01*
X1725098Y1208465D02*
X1719390D01*
X1725098Y1210433D02*
X1719390D01*
X1725098Y1212402D02*
X1719390D01*
X1725098Y1214370D02*
X1719390D01*
X1725098Y1216339D02*
X1719390D01*
X1725098Y1218307D02*
X1719390D01*
X1725098Y1220276D02*
X1719390D01*
X1725098Y1222244D02*
X1719390D01*
X1714764Y1232579D02*
Y1226870D01*
X1712795Y1232579D02*
Y1226870D01*
X1710827Y1232579D02*
Y1226870D01*
X1708858Y1232579D02*
Y1226870D01*
X1706890Y1232579D02*
Y1226870D01*
X1704921Y1232579D02*
Y1226870D01*
X1702953Y1232579D02*
Y1226870D01*
X1700984Y1232579D02*
Y1226870D01*
X1699016Y1232579D02*
Y1226870D01*
X1697047Y1232579D02*
Y1226870D01*
X1695079Y1232579D02*
Y1226870D01*
X1693110Y1232579D02*
Y1226870D01*
X1691142Y1232579D02*
Y1226870D01*
X1689173Y1232579D02*
Y1226870D01*
X1687205Y1232579D02*
Y1226870D01*
X1685236Y1232579D02*
Y1226870D01*
X1683268Y1232579D02*
Y1226870D01*
X1681299Y1232579D02*
Y1226870D01*
X1679331Y1232579D02*
Y1226870D01*
X1677362Y1232579D02*
Y1226870D01*
X1675394Y1232579D02*
Y1226870D01*
X1673425Y1232579D02*
Y1226870D01*
X1671457Y1232579D02*
Y1226870D01*
X1669488Y1232579D02*
Y1226870D01*
X1667520Y1232579D02*
Y1226870D01*
X1665551Y1232579D02*
Y1226870D01*
X1663583Y1232579D02*
Y1226870D01*
X1661614Y1232579D02*
Y1226870D01*
X1659646Y1232579D02*
Y1226870D01*
X1657677Y1232579D02*
Y1226870D01*
X1655709Y1232579D02*
Y1226870D01*
X1653740Y1232579D02*
Y1226870D01*
X1651772Y1232579D02*
Y1226870D01*
X1649803Y1232579D02*
Y1226870D01*
X1647835Y1232579D02*
Y1226870D01*
X1645866Y1232579D02*
Y1226870D01*
X1641240Y1222244D02*
X1635531D01*
X1641240Y1220276D02*
X1635531D01*
X1641240Y1218307D02*
X1635531D01*
X1641240Y1216339D02*
X1635531D01*
X1641240Y1214370D02*
X1635531D01*
X1641240Y1212402D02*
X1635531D01*
X1641240Y1210433D02*
X1635531D01*
X1641240Y1208465D02*
X1635531D01*
X1641240Y1206496D02*
X1635531D01*
X1641240Y1204528D02*
X1635531D01*
X1641240Y1202559D02*
X1635531D01*
X1641240Y1200591D02*
X1635531D01*
X1641240Y1198622D02*
X1635531D01*
X1641240Y1196654D02*
X1635531D01*
X1641240Y1194685D02*
X1635531D01*
X1641240Y1192717D02*
X1635531D01*
X1641240Y1190748D02*
X1635531D01*
X1641240Y1188780D02*
X1635531D01*
X1641240Y1186811D02*
X1635531D01*
X1641240Y1184843D02*
X1635531D01*
X1641240Y1182874D02*
X1635531D01*
X1641240Y1180906D02*
X1635531D01*
X1641240Y1178937D02*
X1635531D01*
X1641240Y1176969D02*
X1635531D01*
X1641240Y1175000D02*
X1635531D01*
X1641240Y1173031D02*
X1635531D01*
X1641240Y1171063D02*
X1635531D01*
X1641240Y1169094D02*
X1635531D01*
X1641240Y1167126D02*
X1635531D01*
X1641240Y1165157D02*
X1635531D01*
X1641240Y1163189D02*
X1635531D01*
X1641240Y1161220D02*
X1635531D01*
X1641240Y1159252D02*
X1635531D01*
X1641240Y1157283D02*
X1635531D01*
X1641240Y1155315D02*
X1635531D01*
X1641240Y1153346D02*
X1635531D01*
X1645866Y1148720D02*
Y1143012D01*
X1647835Y1148720D02*
Y1143012D01*
X1649803Y1148720D02*
Y1143012D01*
X1651772Y1148720D02*
Y1143012D01*
X1653740Y1148720D02*
Y1143012D01*
X1655709Y1148720D02*
Y1143012D01*
X1657677Y1148720D02*
Y1143012D01*
X1659646Y1148720D02*
Y1143012D01*
X1661614Y1148720D02*
Y1143012D01*
X1663583Y1148720D02*
Y1143012D01*
X1665551Y1148720D02*
Y1143012D01*
X1667520Y1148720D02*
Y1143012D01*
X1669488Y1148720D02*
Y1143012D01*
X1671457Y1148720D02*
Y1143012D01*
X1673425Y1148720D02*
Y1143012D01*
X1675394Y1148720D02*
Y1143012D01*
X1677362Y1148720D02*
Y1143012D01*
X1679331Y1148720D02*
Y1143012D01*
X1681299Y1148720D02*
Y1143012D01*
X1683268Y1148720D02*
Y1143012D01*
X1685236Y1148720D02*
Y1143012D01*
X1687205Y1148720D02*
Y1143012D01*
X1689173Y1148720D02*
Y1143012D01*
X1691142Y1148720D02*
Y1143012D01*
X1693110Y1148720D02*
Y1143012D01*
X1695079Y1148720D02*
Y1143012D01*
X1697047Y1148720D02*
Y1143012D01*
X1699016Y1148720D02*
Y1143012D01*
X1700984Y1148720D02*
Y1143012D01*
X1702953Y1148720D02*
Y1143012D01*
X1704921Y1148720D02*
Y1143012D01*
X1706890Y1148720D02*
Y1143012D01*
X1708858Y1148720D02*
Y1143012D01*
X1710827Y1148720D02*
Y1143012D01*
X1712795Y1148720D02*
Y1143012D01*
X1714764Y1148720D02*
Y1143012D01*
G54D17*
X1748425Y1106713D02*
X1754724D01*
X1748425Y1101713D02*
X1754724D01*
X1748425Y1096713D02*
X1754724D01*
X1748425Y1091713D02*
X1754724D01*
X1767323D02*
X1773622D01*
X1767323Y1096713D02*
X1773622D01*
X1767323Y1101713D02*
X1773622D01*
X1767323Y1106713D02*
X1773622D01*
X1872047Y1155315D02*
X1869685D01*
X1872047Y1159055D02*
X1869685D01*
X1872047Y1162795D02*
X1869685D01*
X1862598D02*
X1860236D01*
X1862598Y1159055D02*
X1860236D01*
X1862598Y1155315D02*
X1860236D01*
X1782677Y1133091D02*
X1788976D01*
X1782677Y1128091D02*
X1788976D01*
X1782677Y1123091D02*
X1788976D01*
X1782677Y1118091D02*
X1788976D01*
X1801575D02*
X1807874D01*
X1801575Y1123091D02*
X1807874D01*
X1801575Y1128091D02*
X1807874D01*
X1801575Y1133091D02*
X1807874D01*
G54D18*
X1836024Y1172244D02*
Y1174213D01*
X1847441Y1172244D02*
Y1174213D01*
X1871850D02*
Y1172244D01*
X1860433Y1174213D02*
Y1172244D01*
X1852165Y1227756D02*
X1860433D01*
X1852165Y1206890D02*
X1860433D01*
X1820276Y1213189D02*
Y1221457D01*
X1841142Y1213189D02*
Y1221457D01*
G54D19*
X1819291Y1103937D02*
X1820472D01*
X1843307D02*
X1844488D01*
X1857480Y1139370D02*
X1858661D01*
X1881496D02*
X1882677D01*
X1844488Y1139961D02*
Y1137205D01*
X1817717Y1139961D02*
Y1137205D01*
X1844488Y1193504D02*
Y1190748D01*
X1817717Y1193504D02*
Y1190748D01*
X1856693D02*
Y1193504D01*
X1883465Y1190748D02*
Y1193504D01*
G54D20*
X1635039Y1294488D03*
Y1288189D03*
Y1270079D03*
Y1276378D03*
X1698819Y1294488D03*
Y1288189D03*
Y1270079D03*
Y1276378D03*
X1766535Y1294488D03*
Y1288189D03*
Y1270079D03*
Y1276378D03*
X1814961Y1162205D03*
X1821260D03*
X1736987Y1137593D03*
X1743286D03*
X1656299Y1108268D03*
Y1114567D03*
X1606102Y1252559D02*
Y1260433D01*
Y1278150D02*
Y1286024D01*
X1588386Y1252559D02*
Y1260433D01*
Y1278150D02*
Y1286024D01*
X1624606Y1202362D02*
X1626575D01*
X1624606Y1212598D02*
X1626575D01*
X1736887Y1131793D03*
X1743186D03*
X1743286Y1125593D03*
X1736987D03*
X1781286Y1139693D03*
X1774987D03*
X1802536Y1066343D03*
Y1072643D03*
X1782236Y1097843D03*
Y1091543D03*
G54D21*
X1576370Y1195276D03*
X1568102D03*
X1576370Y1204331D03*
X1568102D03*
X1576370Y1213386D03*
X1568102D03*
X1826575Y1120079D03*
X1834843D03*
X1884449Y1123622D03*
X1876181D03*
X1576370Y1177165D03*
X1568102D03*
X1576370Y1186221D03*
X1568102D03*
X1879724Y1246850D02*
Y1239764D01*
X1869882Y1246850D02*
Y1239764D01*
Y1218504D02*
Y1211417D01*
X1879724Y1218504D02*
Y1211417D01*
G54D27*
X1711024Y1096260D02*
Y1099803D01*
X1709055Y1096260D02*
Y1099803D01*
X1707087Y1096260D02*
Y1099803D01*
X1705118Y1096260D02*
Y1099803D01*
X1703150Y1096260D02*
Y1099803D01*
X1701181Y1096260D02*
Y1099803D01*
X1699213Y1096260D02*
Y1099803D01*
X1697244Y1096260D02*
Y1099803D01*
X1695276Y1096260D02*
Y1099803D01*
X1693307Y1096260D02*
Y1099803D01*
X1691339Y1096260D02*
Y1099803D01*
X1689370Y1096260D02*
Y1099803D01*
X1687402Y1096260D02*
Y1099803D01*
X1685433Y1096260D02*
Y1099803D01*
X1683465Y1096260D02*
Y1099803D01*
X1681496Y1096260D02*
Y1099803D01*
X1679528Y1096260D02*
Y1099803D01*
X1677559Y1096260D02*
Y1099803D01*
X1675591Y1096260D02*
Y1099803D01*
X1673622Y1096260D02*
Y1099803D01*
X1671654Y1096260D02*
Y1099803D01*
X1669685Y1096260D02*
Y1099803D01*
X1667717Y1096260D02*
Y1099803D01*
X1665748Y1096260D02*
Y1099803D01*
X1663780Y1096260D02*
Y1099803D01*
X1661811Y1096260D02*
Y1099803D01*
X1659843Y1096260D02*
Y1099803D01*
X1657874Y1096260D02*
Y1099803D01*
X1655906Y1096260D02*
Y1099803D01*
X1653937Y1096260D02*
Y1099803D01*
X1651969Y1096260D02*
Y1099803D01*
X1650000Y1096260D02*
Y1099803D01*
X1648031Y1096260D02*
Y1099803D01*
X1646063Y1096260D02*
Y1099803D01*
X1644094Y1096260D02*
Y1099803D01*
X1642126Y1096260D02*
Y1099803D01*
X1640157Y1096260D02*
Y1099803D01*
X1638189Y1096260D02*
Y1099803D01*
X1636220Y1096260D02*
Y1099803D01*
X1634252Y1096260D02*
Y1099803D01*
X1632283Y1096260D02*
Y1099803D01*
X1630315Y1096260D02*
Y1099803D01*
X1628346Y1096260D02*
Y1099803D01*
X1626378Y1096260D02*
Y1099803D01*
X1624409Y1096260D02*
Y1099803D01*
X1622441Y1096260D02*
Y1099803D01*
X1620472Y1096260D02*
Y1099803D01*
X1618504Y1096260D02*
Y1099803D01*
X1616535Y1096260D02*
Y1099803D01*
X1614567Y1096260D02*
Y1099803D01*
G54D28*
X1587402Y1112165D02*
Y1121220D01*
X1583465Y1112165D02*
Y1121220D01*
X1579528Y1112165D02*
Y1121220D01*
X1575591Y1112165D02*
Y1121220D01*
G54D29*
X1564996Y1104315D02*
Y1107071D01*
X1599795Y1104323D02*
Y1107079D01*
G54D30*
X1694858Y1105734D02*
X1700565Y1111441D01*
X1695693Y1116313*
X1689986Y1110606*
X1694858Y1105734*
X1694687Y1105906D02*
X1695029D01*
X1694490Y1106102D02*
X1695226D01*
X1694293Y1106299D02*
X1695423D01*
X1694096Y1106496D02*
X1695620D01*
X1693899Y1106693D02*
X1695817D01*
X1693702Y1106890D02*
X1696014D01*
X1693506Y1107087D02*
X1696210D01*
X1693309Y1107283D02*
X1696407D01*
X1693112Y1107480D02*
X1696604D01*
X1692915Y1107677D02*
X1696801D01*
X1692718Y1107874D02*
X1696998D01*
X1692521Y1108071D02*
X1697195D01*
X1692325Y1108268D02*
X1697391D01*
X1692128Y1108465D02*
X1697588D01*
X1691931Y1108661D02*
X1697785D01*
X1691734Y1108858D02*
X1697982D01*
X1691537Y1109055D02*
X1698179D01*
X1691340Y1109252D02*
X1698376D01*
X1691143Y1109449D02*
X1698573D01*
X1690947Y1109646D02*
X1698769D01*
X1690750Y1109843D02*
X1698966D01*
X1690553Y1110039D02*
X1699163D01*
X1690356Y1110236D02*
X1699360D01*
X1690159Y1110433D02*
X1699557D01*
X1690010Y1110630D02*
X1699754D01*
X1690207Y1110827D02*
X1699951D01*
X1690404Y1111024D02*
X1700147D01*
X1690601Y1111220D02*
X1700344D01*
X1690797Y1111417D02*
X1700541D01*
X1690994Y1111614D02*
X1700392D01*
X1691191Y1111811D02*
X1700195D01*
X1691388Y1112008D02*
X1699998D01*
X1691585Y1112205D02*
X1699801D01*
X1691782Y1112402D02*
X1699605D01*
X1691979Y1112598D02*
X1699408D01*
X1692175Y1112795D02*
X1699211D01*
X1692372Y1112992D02*
X1699014D01*
X1692569Y1113189D02*
X1698817D01*
X1692766Y1113386D02*
X1698620D01*
X1692963Y1113583D02*
X1698423D01*
X1693160Y1113780D02*
X1698227D01*
X1693357Y1113976D02*
X1698030D01*
X1693553Y1114173D02*
X1697833D01*
X1693750Y1114370D02*
X1697636D01*
X1693947Y1114567D02*
X1697439D01*
X1694144Y1114764D02*
X1697242D01*
X1694341Y1114961D02*
X1697046D01*
X1694538Y1115157D02*
X1696849D01*
X1694735Y1115354D02*
X1696652D01*
X1694931Y1115551D02*
X1696455D01*
X1695128Y1115748D02*
X1696258D01*
X1695325Y1115945D02*
X1696061D01*
X1695522Y1116142D02*
X1695864D01*
X1690157Y1110435D02*
Y1110777D01*
X1690354Y1110238D02*
Y1110974D01*
X1690551Y1110041D02*
Y1111171D01*
X1690748Y1109844D02*
Y1111368D01*
X1690945Y1109647D02*
Y1111565D01*
X1691142Y1109451D02*
Y1111762D01*
X1691339Y1109254D02*
Y1111958D01*
X1691535Y1109057D02*
Y1112155D01*
X1691732Y1108860D02*
Y1112352D01*
X1691929Y1108663D02*
Y1112549D01*
X1692126Y1108466D02*
Y1112746D01*
X1692323Y1108269D02*
Y1112943D01*
X1692520Y1108073D02*
Y1113140D01*
X1692717Y1107876D02*
Y1113336D01*
X1692913Y1107679D02*
Y1113533D01*
X1693110Y1107482D02*
Y1113730D01*
X1693307Y1107285D02*
Y1113927D01*
X1693504Y1107088D02*
Y1114124D01*
X1693701Y1106891D02*
Y1114321D01*
X1693898Y1106695D02*
Y1114517D01*
X1694094Y1106498D02*
Y1114714D01*
X1694291Y1106301D02*
Y1114911D01*
X1694488Y1106104D02*
Y1115108D01*
X1694685Y1105907D02*
Y1115305D01*
X1694882Y1105758D02*
Y1115502D01*
X1695079Y1105955D02*
Y1115699D01*
X1695276Y1106152D02*
Y1115895D01*
X1695472Y1106349D02*
Y1116092D01*
X1695669Y1106546D02*
Y1116289D01*
X1695866Y1106742D02*
Y1116140D01*
X1696063Y1106939D02*
Y1115943D01*
X1696260Y1107136D02*
Y1115746D01*
X1696457Y1107333D02*
Y1115549D01*
X1696654Y1107530D02*
Y1115353D01*
X1696850Y1107727D02*
Y1115156D01*
X1697047Y1107923D02*
Y1114959D01*
X1697244Y1108120D02*
Y1114762D01*
X1697441Y1108317D02*
Y1114565D01*
X1697638Y1108514D02*
Y1114368D01*
X1697835Y1108711D02*
Y1114172D01*
X1698031Y1108908D02*
Y1113975D01*
X1698228Y1109105D02*
Y1113778D01*
X1698425Y1109301D02*
Y1113581D01*
X1698622Y1109498D02*
Y1113384D01*
X1698819Y1109695D02*
Y1113187D01*
X1699016Y1109892D02*
Y1112990D01*
X1699213Y1110089D02*
Y1112794D01*
X1699409Y1110286D02*
Y1112597D01*
X1699606Y1110483D02*
Y1112400D01*
X1699803Y1110679D02*
Y1112203D01*
X1700000Y1110876D02*
Y1112006D01*
X1700197Y1111073D02*
Y1111809D01*
X1700394Y1111270D02*
Y1111612D01*
X1679110Y1121482D02*
X1684817Y1127189D01*
X1679945Y1132061*
X1674238Y1126354*
X1679110Y1121482*
X1678939Y1121654D02*
X1679281D01*
X1678742Y1121850D02*
X1679478D01*
X1678545Y1122047D02*
X1679675D01*
X1678348Y1122244D02*
X1679872D01*
X1678151Y1122441D02*
X1680069D01*
X1677954Y1122638D02*
X1680265D01*
X1677758Y1122835D02*
X1680462D01*
X1677561Y1123031D02*
X1680659D01*
X1677364Y1123228D02*
X1680856D01*
X1677167Y1123425D02*
X1681053D01*
X1676970Y1123622D02*
X1681250D01*
X1676773Y1123819D02*
X1681447D01*
X1676576Y1124016D02*
X1681643D01*
X1676380Y1124213D02*
X1681840D01*
X1676183Y1124409D02*
X1682037D01*
X1675986Y1124606D02*
X1682234D01*
X1675789Y1124803D02*
X1682431D01*
X1675592Y1125000D02*
X1682628D01*
X1675395Y1125197D02*
X1682825D01*
X1675199Y1125394D02*
X1683021D01*
X1675002Y1125591D02*
X1683218D01*
X1674805Y1125787D02*
X1683415D01*
X1674608Y1125984D02*
X1683612D01*
X1674411Y1126181D02*
X1683809D01*
X1674262Y1126378D02*
X1684006D01*
X1674459Y1126575D02*
X1684203D01*
X1674656Y1126772D02*
X1684399D01*
X1674853Y1126969D02*
X1684596D01*
X1675049Y1127165D02*
X1684793D01*
X1675246Y1127362D02*
X1684644D01*
X1675443Y1127559D02*
X1684447D01*
X1675640Y1127756D02*
X1684250D01*
X1675837Y1127953D02*
X1684053D01*
X1676034Y1128150D02*
X1683857D01*
X1676231Y1128346D02*
X1683660D01*
X1676427Y1128543D02*
X1683463D01*
X1676624Y1128740D02*
X1683266D01*
X1676821Y1128937D02*
X1683069D01*
X1677018Y1129134D02*
X1682872D01*
X1677215Y1129331D02*
X1682675D01*
X1677412Y1129528D02*
X1682479D01*
X1677609Y1129724D02*
X1682282D01*
X1677805Y1129921D02*
X1682085D01*
X1678002Y1130118D02*
X1681888D01*
X1678199Y1130315D02*
X1681691D01*
X1678396Y1130512D02*
X1681494D01*
X1678593Y1130709D02*
X1681298D01*
X1678790Y1130906D02*
X1681101D01*
X1678986Y1131102D02*
X1680904D01*
X1679183Y1131299D02*
X1680707D01*
X1679380Y1131496D02*
X1680510D01*
X1679577Y1131693D02*
X1680313D01*
X1679774Y1131890D02*
X1680116D01*
X1674409Y1126183D02*
Y1126525D01*
X1674606Y1125986D02*
Y1126722D01*
X1674803Y1125789D02*
Y1126919D01*
X1675000Y1125592D02*
Y1127116D01*
X1675197Y1125395D02*
Y1127313D01*
X1675394Y1125199D02*
Y1127510D01*
X1675591Y1125002D02*
Y1127706D01*
X1675787Y1124805D02*
Y1127903D01*
X1675984Y1124608D02*
Y1128100D01*
X1676181Y1124411D02*
Y1128297D01*
X1676378Y1124214D02*
Y1128494D01*
X1676575Y1124017D02*
Y1128691D01*
X1676772Y1123821D02*
Y1128888D01*
X1676969Y1123624D02*
Y1129084D01*
X1677165Y1123427D02*
Y1129281D01*
X1677362Y1123230D02*
Y1129478D01*
X1677559Y1123033D02*
Y1129675D01*
X1677756Y1122836D02*
Y1129872D01*
X1677953Y1122639D02*
Y1130069D01*
X1678150Y1122443D02*
Y1130266D01*
X1678346Y1122246D02*
Y1130462D01*
X1678543Y1122049D02*
Y1130659D01*
X1678740Y1121852D02*
Y1130856D01*
X1678937Y1121655D02*
Y1131053D01*
X1679134Y1121506D02*
Y1131250D01*
X1679331Y1121703D02*
Y1131447D01*
X1679528Y1121900D02*
Y1131643D01*
X1679724Y1122097D02*
Y1131840D01*
X1679921Y1122294D02*
Y1132037D01*
X1680118Y1122490D02*
Y1131888D01*
X1680315Y1122687D02*
Y1131691D01*
X1680512Y1122884D02*
Y1131494D01*
X1680709Y1123081D02*
Y1131298D01*
X1680906Y1123278D02*
Y1131101D01*
X1681102Y1123475D02*
Y1130904D01*
X1681299Y1123672D02*
Y1130707D01*
X1681496Y1123868D02*
Y1130510D01*
X1681693Y1124065D02*
Y1130313D01*
X1681890Y1124262D02*
Y1130116D01*
X1682087Y1124459D02*
Y1129920D01*
X1682283Y1124656D02*
Y1129723D01*
X1682480Y1124853D02*
Y1129526D01*
X1682677Y1125049D02*
Y1129329D01*
X1682874Y1125246D02*
Y1129132D01*
X1683071Y1125443D02*
Y1128935D01*
X1683268Y1125640D02*
Y1128738D01*
X1683465Y1125837D02*
Y1128542D01*
X1683661Y1126034D02*
Y1128345D01*
X1683858Y1126231D02*
Y1128148D01*
X1684055Y1126427D02*
Y1127951D01*
X1684252Y1126624D02*
Y1127754D01*
X1684449Y1126821D02*
Y1127557D01*
X1684646Y1127018D02*
Y1127361D01*
X1723204Y1105734D02*
X1728911Y1111441D01*
X1724040Y1116313*
X1718333Y1110606*
X1723204Y1105734*
X1723033Y1105906D02*
X1723376D01*
X1722836Y1106102D02*
X1723573D01*
X1722639Y1106299D02*
X1723769D01*
X1722443Y1106496D02*
X1723966D01*
X1722246Y1106693D02*
X1724163D01*
X1722049Y1106890D02*
X1724360D01*
X1721852Y1107087D02*
X1724557D01*
X1721655Y1107283D02*
X1724754D01*
X1721458Y1107480D02*
X1724951D01*
X1721262Y1107677D02*
X1725147D01*
X1721065Y1107874D02*
X1725344D01*
X1720868Y1108071D02*
X1725541D01*
X1720671Y1108268D02*
X1725738D01*
X1720474Y1108465D02*
X1725935D01*
X1720277Y1108661D02*
X1726132D01*
X1720080Y1108858D02*
X1726328D01*
X1719884Y1109055D02*
X1726525D01*
X1719687Y1109252D02*
X1726722D01*
X1719490Y1109449D02*
X1726919D01*
X1719293Y1109646D02*
X1727116D01*
X1719096Y1109843D02*
X1727313D01*
X1718899Y1110039D02*
X1727510D01*
X1718702Y1110236D02*
X1727706D01*
X1718506Y1110433D02*
X1727903D01*
X1718357Y1110630D02*
X1728100D01*
X1718553Y1110827D02*
X1728297D01*
X1718750Y1111024D02*
X1728494D01*
X1718947Y1111220D02*
X1728691D01*
X1719144Y1111417D02*
X1728888D01*
X1719341Y1111614D02*
X1728738D01*
X1719538Y1111811D02*
X1728542D01*
X1719735Y1112008D02*
X1728345D01*
X1719931Y1112205D02*
X1728148D01*
X1720128Y1112402D02*
X1727951D01*
X1720325Y1112598D02*
X1727754D01*
X1720522Y1112795D02*
X1727557D01*
X1720719Y1112992D02*
X1727361D01*
X1720916Y1113189D02*
X1727164D01*
X1721112Y1113386D02*
X1726967D01*
X1721309Y1113583D02*
X1726770D01*
X1721506Y1113780D02*
X1726573D01*
X1721703Y1113976D02*
X1726376D01*
X1721900Y1114173D02*
X1726179D01*
X1722097Y1114370D02*
X1725983D01*
X1722294Y1114567D02*
X1725786D01*
X1722490Y1114764D02*
X1725589D01*
X1722687Y1114961D02*
X1725392D01*
X1722884Y1115157D02*
X1725195D01*
X1723081Y1115354D02*
X1724998D01*
X1723278Y1115551D02*
X1724801D01*
X1723475Y1115748D02*
X1724605D01*
X1723672Y1115945D02*
X1724408D01*
X1723868Y1116142D02*
X1724211D01*
X1718504Y1110435D02*
Y1110777D01*
X1718701Y1110238D02*
Y1110974D01*
X1718898Y1110041D02*
Y1111171D01*
X1719094Y1109844D02*
Y1111368D01*
X1719291Y1109647D02*
Y1111565D01*
X1719488Y1109451D02*
Y1111762D01*
X1719685Y1109254D02*
Y1111958D01*
X1719882Y1109057D02*
Y1112155D01*
X1720079Y1108860D02*
Y1112352D01*
X1720276Y1108663D02*
Y1112549D01*
X1720472Y1108466D02*
Y1112746D01*
X1720669Y1108269D02*
Y1112943D01*
X1720866Y1108073D02*
Y1113140D01*
X1721063Y1107876D02*
Y1113336D01*
X1721260Y1107679D02*
Y1113533D01*
X1721457Y1107482D02*
Y1113730D01*
X1721654Y1107285D02*
Y1113927D01*
X1721850Y1107088D02*
Y1114124D01*
X1722047Y1106891D02*
Y1114321D01*
X1722244Y1106695D02*
Y1114517D01*
X1722441Y1106498D02*
Y1114714D01*
X1722638Y1106301D02*
Y1114911D01*
X1722835Y1106104D02*
Y1115108D01*
X1723031Y1105907D02*
Y1115305D01*
X1723228Y1105758D02*
Y1115502D01*
X1723425Y1105955D02*
Y1115699D01*
X1723622Y1106152D02*
Y1115895D01*
X1723819Y1106349D02*
Y1116092D01*
X1724016Y1106546D02*
Y1116289D01*
X1724213Y1106742D02*
Y1116140D01*
X1724409Y1106939D02*
Y1115943D01*
X1724606Y1107136D02*
Y1115746D01*
X1724803Y1107333D02*
Y1115549D01*
X1725000Y1107530D02*
Y1115353D01*
X1725197Y1107727D02*
Y1115156D01*
X1725394Y1107923D02*
Y1114959D01*
X1725591Y1108120D02*
Y1114762D01*
X1725787Y1108317D02*
Y1114565D01*
X1725984Y1108514D02*
Y1114368D01*
X1726181Y1108711D02*
Y1114172D01*
X1726378Y1108908D02*
Y1113975D01*
X1726575Y1109105D02*
Y1113778D01*
X1726772Y1109301D02*
Y1113581D01*
X1726969Y1109498D02*
Y1113384D01*
X1727165Y1109695D02*
Y1113187D01*
X1727362Y1109892D02*
Y1112990D01*
X1727559Y1110089D02*
Y1112794D01*
X1727756Y1110286D02*
Y1112597D01*
X1727953Y1110483D02*
Y1112400D01*
X1728150Y1110679D02*
Y1112203D01*
X1728346Y1110876D02*
Y1112006D01*
X1728543Y1111073D02*
Y1111809D01*
X1728740Y1111270D02*
Y1111612D01*
X1707456Y1121482D02*
X1713163Y1127189D01*
X1708292Y1132061*
X1702585Y1126354*
X1707456Y1121482*
X1707285Y1121654D02*
X1707628D01*
X1707088Y1121850D02*
X1707825D01*
X1706891Y1122047D02*
X1708021D01*
X1706695Y1122244D02*
X1708218D01*
X1706498Y1122441D02*
X1708415D01*
X1706301Y1122638D02*
X1708612D01*
X1706104Y1122835D02*
X1708809D01*
X1705907Y1123031D02*
X1709006D01*
X1705710Y1123228D02*
X1709203D01*
X1705514Y1123425D02*
X1709399D01*
X1705317Y1123622D02*
X1709596D01*
X1705120Y1123819D02*
X1709793D01*
X1704923Y1124016D02*
X1709990D01*
X1704726Y1124213D02*
X1710187D01*
X1704529Y1124409D02*
X1710384D01*
X1704332Y1124606D02*
X1710580D01*
X1704136Y1124803D02*
X1710777D01*
X1703939Y1125000D02*
X1710974D01*
X1703742Y1125197D02*
X1711171D01*
X1703545Y1125394D02*
X1711368D01*
X1703348Y1125591D02*
X1711565D01*
X1703151Y1125787D02*
X1711762D01*
X1702954Y1125984D02*
X1711958D01*
X1702758Y1126181D02*
X1712155D01*
X1702609Y1126378D02*
X1712352D01*
X1702805Y1126575D02*
X1712549D01*
X1703002Y1126772D02*
X1712746D01*
X1703199Y1126969D02*
X1712943D01*
X1703396Y1127165D02*
X1713140D01*
X1703593Y1127362D02*
X1712990D01*
X1703790Y1127559D02*
X1712794D01*
X1703986Y1127756D02*
X1712597D01*
X1704183Y1127953D02*
X1712400D01*
X1704380Y1128150D02*
X1712203D01*
X1704577Y1128346D02*
X1712006D01*
X1704774Y1128543D02*
X1711809D01*
X1704971Y1128740D02*
X1711612D01*
X1705168Y1128937D02*
X1711416D01*
X1705364Y1129134D02*
X1711219D01*
X1705561Y1129331D02*
X1711022D01*
X1705758Y1129528D02*
X1710825D01*
X1705955Y1129724D02*
X1710628D01*
X1706152Y1129921D02*
X1710431D01*
X1706349Y1130118D02*
X1710235D01*
X1706546Y1130315D02*
X1710038D01*
X1706742Y1130512D02*
X1709841D01*
X1706939Y1130709D02*
X1709644D01*
X1707136Y1130906D02*
X1709447D01*
X1707333Y1131102D02*
X1709250D01*
X1707530Y1131299D02*
X1709053D01*
X1707727Y1131496D02*
X1708857D01*
X1707923Y1131693D02*
X1708660D01*
X1708120Y1131890D02*
X1708463D01*
X1702756Y1126183D02*
Y1126525D01*
X1702953Y1125986D02*
Y1126722D01*
X1703150Y1125789D02*
Y1126919D01*
X1703346Y1125592D02*
Y1127116D01*
X1703543Y1125395D02*
Y1127313D01*
X1703740Y1125199D02*
Y1127510D01*
X1703937Y1125002D02*
Y1127706D01*
X1704134Y1124805D02*
Y1127903D01*
X1704331Y1124608D02*
Y1128100D01*
X1704528Y1124411D02*
Y1128297D01*
X1704724Y1124214D02*
Y1128494D01*
X1704921Y1124017D02*
Y1128691D01*
X1705118Y1123821D02*
Y1128888D01*
X1705315Y1123624D02*
Y1129084D01*
X1705512Y1123427D02*
Y1129281D01*
X1705709Y1123230D02*
Y1129478D01*
X1705906Y1123033D02*
Y1129675D01*
X1706102Y1122836D02*
Y1129872D01*
X1706299Y1122639D02*
Y1130069D01*
X1706496Y1122443D02*
Y1130266D01*
X1706693Y1122246D02*
Y1130462D01*
X1706890Y1122049D02*
Y1130659D01*
X1707087Y1121852D02*
Y1130856D01*
X1707283Y1121655D02*
Y1131053D01*
X1707480Y1121506D02*
Y1131250D01*
X1707677Y1121703D02*
Y1131447D01*
X1707874Y1121900D02*
Y1131643D01*
X1708071Y1122097D02*
Y1131840D01*
X1708268Y1122294D02*
Y1132037D01*
X1708465Y1122490D02*
Y1131888D01*
X1708661Y1122687D02*
Y1131691D01*
X1708858Y1122884D02*
Y1131494D01*
X1709055Y1123081D02*
Y1131298D01*
X1709252Y1123278D02*
Y1131101D01*
X1709449Y1123475D02*
Y1130904D01*
X1709646Y1123672D02*
Y1130707D01*
X1709843Y1123868D02*
Y1130510D01*
X1710039Y1124065D02*
Y1130313D01*
X1710236Y1124262D02*
Y1130116D01*
X1710433Y1124459D02*
Y1129920D01*
X1710630Y1124656D02*
Y1129723D01*
X1710827Y1124853D02*
Y1129526D01*
X1711024Y1125049D02*
Y1129329D01*
X1711220Y1125246D02*
Y1129132D01*
X1711417Y1125443D02*
Y1128935D01*
X1711614Y1125640D02*
Y1128738D01*
X1711811Y1125837D02*
Y1128542D01*
X1712008Y1126034D02*
Y1128345D01*
X1712205Y1126231D02*
Y1128148D01*
X1712402Y1126427D02*
Y1127951D01*
X1712598Y1126624D02*
Y1127754D01*
X1712795Y1126821D02*
Y1127557D01*
X1712992Y1127018D02*
Y1127361D01*
X1651352Y1126354D02*
X1645645Y1132061D01*
X1640774Y1127189*
X1646481Y1121482*
X1651352Y1126354*
X1646309Y1121654D02*
X1646652D01*
X1646112Y1121850D02*
X1646849D01*
X1645916Y1122047D02*
X1647046D01*
X1645719Y1122244D02*
X1647242D01*
X1645522Y1122441D02*
X1647439D01*
X1645325Y1122638D02*
X1647636D01*
X1645128Y1122835D02*
X1647833D01*
X1644931Y1123031D02*
X1648030D01*
X1644734Y1123228D02*
X1648227D01*
X1644538Y1123425D02*
X1648423D01*
X1644341Y1123622D02*
X1648620D01*
X1644144Y1123819D02*
X1648817D01*
X1643947Y1124016D02*
X1649014D01*
X1643750Y1124213D02*
X1649211D01*
X1643553Y1124409D02*
X1649408D01*
X1643357Y1124606D02*
X1649605D01*
X1643160Y1124803D02*
X1649801D01*
X1642963Y1125000D02*
X1649998D01*
X1642766Y1125197D02*
X1650195D01*
X1642569Y1125394D02*
X1650392D01*
X1642372Y1125591D02*
X1650589D01*
X1642175Y1125787D02*
X1650786D01*
X1641979Y1125984D02*
X1650983D01*
X1641782Y1126181D02*
X1651179D01*
X1641585Y1126378D02*
X1651328D01*
X1641388Y1126575D02*
X1651132D01*
X1641191Y1126772D02*
X1650935D01*
X1640994Y1126969D02*
X1650738D01*
X1640797Y1127165D02*
X1650541D01*
X1640947Y1127362D02*
X1650344D01*
X1641143Y1127559D02*
X1650147D01*
X1641340Y1127756D02*
X1649951D01*
X1641537Y1127953D02*
X1649754D01*
X1641734Y1128150D02*
X1649557D01*
X1641931Y1128346D02*
X1649360D01*
X1642128Y1128543D02*
X1649163D01*
X1642325Y1128740D02*
X1648966D01*
X1642521Y1128937D02*
X1648769D01*
X1642718Y1129134D02*
X1648573D01*
X1642915Y1129331D02*
X1648376D01*
X1643112Y1129528D02*
X1648179D01*
X1643309Y1129724D02*
X1647982D01*
X1643506Y1129921D02*
X1647785D01*
X1643702Y1130118D02*
X1647588D01*
X1643899Y1130315D02*
X1647391D01*
X1644096Y1130512D02*
X1647195D01*
X1644293Y1130709D02*
X1646998D01*
X1644490Y1130906D02*
X1646801D01*
X1644687Y1131102D02*
X1646604D01*
X1644884Y1131299D02*
X1646407D01*
X1645080Y1131496D02*
X1646210D01*
X1645277Y1131693D02*
X1646014D01*
X1645474Y1131890D02*
X1645817D01*
X1640945Y1127018D02*
Y1127361D01*
X1641142Y1126821D02*
Y1127557D01*
X1641339Y1126624D02*
Y1127754D01*
X1641535Y1126427D02*
Y1127951D01*
X1641732Y1126231D02*
Y1128148D01*
X1641929Y1126034D02*
Y1128345D01*
X1642126Y1125837D02*
Y1128542D01*
X1642323Y1125640D02*
Y1128738D01*
X1642520Y1125443D02*
Y1128935D01*
X1642717Y1125246D02*
Y1129132D01*
X1642913Y1125049D02*
Y1129329D01*
X1643110Y1124853D02*
Y1129526D01*
X1643307Y1124656D02*
Y1129723D01*
X1643504Y1124459D02*
Y1129920D01*
X1643701Y1124262D02*
Y1130116D01*
X1643898Y1124065D02*
Y1130313D01*
X1644094Y1123868D02*
Y1130510D01*
X1644291Y1123672D02*
Y1130707D01*
X1644488Y1123475D02*
Y1130904D01*
X1644685Y1123278D02*
Y1131101D01*
X1644882Y1123081D02*
Y1131298D01*
X1645079Y1122884D02*
Y1131494D01*
X1645276Y1122687D02*
Y1131691D01*
X1645472Y1122490D02*
Y1131888D01*
X1645669Y1122294D02*
Y1132037D01*
X1645866Y1122097D02*
Y1131840D01*
X1646063Y1121900D02*
Y1131643D01*
X1646260Y1121703D02*
Y1131447D01*
X1646457Y1121506D02*
Y1131250D01*
X1646654Y1121655D02*
Y1131053D01*
X1646850Y1121852D02*
Y1130856D01*
X1647047Y1122049D02*
Y1130659D01*
X1647244Y1122246D02*
Y1130462D01*
X1647441Y1122443D02*
Y1130265D01*
X1647638Y1122639D02*
Y1130069D01*
X1647835Y1122836D02*
Y1129872D01*
X1648031Y1123033D02*
Y1129675D01*
X1648228Y1123230D02*
Y1129478D01*
X1648425Y1123427D02*
Y1129281D01*
X1648622Y1123624D02*
Y1129084D01*
X1648819Y1123821D02*
Y1128888D01*
X1649016Y1124017D02*
Y1128691D01*
X1649213Y1124214D02*
Y1128494D01*
X1649409Y1124411D02*
Y1128297D01*
X1649606Y1124608D02*
Y1128100D01*
X1649803Y1124805D02*
Y1127903D01*
X1650000Y1125002D02*
Y1127706D01*
X1650197Y1125199D02*
Y1127510D01*
X1650394Y1125395D02*
Y1127313D01*
X1650591Y1125592D02*
Y1127116D01*
X1650787Y1125789D02*
Y1126919D01*
X1650984Y1125986D02*
Y1126722D01*
X1651181Y1126183D02*
Y1126525D01*
X1635604Y1110606D02*
X1629897Y1116313D01*
X1625026Y1111441*
X1630733Y1105734*
X1635604Y1110606*
X1630561Y1105906D02*
X1630904D01*
X1630364Y1106102D02*
X1631101D01*
X1630168Y1106299D02*
X1631298D01*
X1629971Y1106496D02*
X1631494D01*
X1629774Y1106693D02*
X1631691D01*
X1629577Y1106890D02*
X1631888D01*
X1629380Y1107087D02*
X1632085D01*
X1629183Y1107283D02*
X1632282D01*
X1628986Y1107480D02*
X1632479D01*
X1628790Y1107677D02*
X1632675D01*
X1628593Y1107874D02*
X1632872D01*
X1628396Y1108071D02*
X1633069D01*
X1628199Y1108268D02*
X1633266D01*
X1628002Y1108465D02*
X1633463D01*
X1627805Y1108661D02*
X1633660D01*
X1627609Y1108858D02*
X1633857D01*
X1627412Y1109055D02*
X1634053D01*
X1627215Y1109252D02*
X1634250D01*
X1627018Y1109449D02*
X1634447D01*
X1626821Y1109646D02*
X1634644D01*
X1626624Y1109843D02*
X1634841D01*
X1626427Y1110039D02*
X1635038D01*
X1626231Y1110236D02*
X1635235D01*
X1626034Y1110433D02*
X1635431D01*
X1625837Y1110630D02*
X1635580D01*
X1625640Y1110827D02*
X1635384D01*
X1625443Y1111024D02*
X1635187D01*
X1625246Y1111220D02*
X1634990D01*
X1625049Y1111417D02*
X1634793D01*
X1625199Y1111614D02*
X1634596D01*
X1625395Y1111811D02*
X1634399D01*
X1625592Y1112008D02*
X1634203D01*
X1625789Y1112205D02*
X1634006D01*
X1625986Y1112402D02*
X1633809D01*
X1626183Y1112598D02*
X1633612D01*
X1626380Y1112795D02*
X1633415D01*
X1626577Y1112992D02*
X1633218D01*
X1626773Y1113189D02*
X1633021D01*
X1626970Y1113386D02*
X1632825D01*
X1627167Y1113583D02*
X1632628D01*
X1627364Y1113780D02*
X1632431D01*
X1627561Y1113976D02*
X1632234D01*
X1627758Y1114173D02*
X1632037D01*
X1627954Y1114370D02*
X1631840D01*
X1628151Y1114567D02*
X1631643D01*
X1628348Y1114764D02*
X1631447D01*
X1628545Y1114961D02*
X1631250D01*
X1628742Y1115157D02*
X1631053D01*
X1628939Y1115354D02*
X1630856D01*
X1629136Y1115551D02*
X1630659D01*
X1629332Y1115748D02*
X1630462D01*
X1629529Y1115945D02*
X1630265D01*
X1629726Y1116142D02*
X1630069D01*
X1625197Y1111270D02*
Y1111612D01*
X1625394Y1111073D02*
Y1111809D01*
X1625591Y1110876D02*
Y1112006D01*
X1625787Y1110679D02*
Y1112203D01*
X1625984Y1110483D02*
Y1112400D01*
X1626181Y1110286D02*
Y1112597D01*
X1626378Y1110089D02*
Y1112794D01*
X1626575Y1109892D02*
Y1112990D01*
X1626772Y1109695D02*
Y1113187D01*
X1626969Y1109498D02*
Y1113384D01*
X1627165Y1109301D02*
Y1113581D01*
X1627362Y1109105D02*
Y1113778D01*
X1627559Y1108908D02*
Y1113975D01*
X1627756Y1108711D02*
Y1114172D01*
X1627953Y1108514D02*
Y1114368D01*
X1628150Y1108317D02*
Y1114565D01*
X1628346Y1108120D02*
Y1114762D01*
X1628543Y1107923D02*
Y1114959D01*
X1628740Y1107727D02*
Y1115156D01*
X1628937Y1107530D02*
Y1115353D01*
X1629134Y1107333D02*
Y1115549D01*
X1629331Y1107136D02*
Y1115746D01*
X1629528Y1106939D02*
Y1115943D01*
X1629724Y1106742D02*
Y1116140D01*
X1629921Y1106546D02*
Y1116289D01*
X1630118Y1106349D02*
Y1116092D01*
X1630315Y1106152D02*
Y1115895D01*
X1630512Y1105955D02*
Y1115699D01*
X1630709Y1105758D02*
Y1115502D01*
X1630906Y1105907D02*
Y1115305D01*
X1631102Y1106104D02*
Y1115108D01*
X1631299Y1106301D02*
Y1114911D01*
X1631496Y1106498D02*
Y1114714D01*
X1631693Y1106695D02*
Y1114517D01*
X1631890Y1106891D02*
Y1114321D01*
X1632087Y1107088D02*
Y1114124D01*
X1632283Y1107285D02*
Y1113927D01*
X1632480Y1107482D02*
Y1113730D01*
X1632677Y1107679D02*
Y1113533D01*
X1632874Y1107876D02*
Y1113336D01*
X1633071Y1108073D02*
Y1113140D01*
X1633268Y1108269D02*
Y1112943D01*
X1633465Y1108466D02*
Y1112746D01*
X1633661Y1108663D02*
Y1112549D01*
X1633858Y1108860D02*
Y1112352D01*
X1634055Y1109057D02*
Y1112155D01*
X1634252Y1109254D02*
Y1111958D01*
X1634449Y1109451D02*
Y1111762D01*
X1634646Y1109647D02*
Y1111565D01*
X1634843Y1109844D02*
Y1111368D01*
X1635039Y1110041D02*
Y1111171D01*
X1635236Y1110238D02*
Y1110974D01*
X1635433Y1110435D02*
Y1110777D01*
G54D33*
X1867933Y1115846D02*
X1867539D01*
X1867933Y1122539D02*
X1867539D01*
X1821457Y1168701D02*
Y1168307D01*
X1814764Y1168701D02*
Y1168307D01*
Y1174606D02*
Y1175000D01*
X1821457Y1174606D02*
Y1175000D01*
X1635236Y1237598D02*
Y1237992D01*
X1641929Y1237598D02*
Y1237992D01*
X1881693Y1162795D02*
X1882087D01*
X1881693Y1156102D02*
X1882087D01*
X1621063Y1108071D02*
X1620669D01*
X1621063Y1114764D02*
X1620669D01*
X1849409Y1120276D02*
Y1119882D01*
X1842717Y1120276D02*
Y1119882D01*
X1882087Y1168701D02*
X1881693D01*
X1882087Y1175394D02*
X1881693D01*
X1743483Y1120490D02*
Y1120096D01*
X1736790Y1120490D02*
Y1120096D01*
Y1114796D02*
Y1115190D01*
X1743483Y1114796D02*
Y1115190D01*
X1859039Y1122539D02*
X1859433D01*
X1859039Y1115846D02*
X1859433D01*
G54D34*
X1665748Y1128839D02*
Y1127067D01*
X1663189Y1128839D02*
Y1127067D01*
X1660630Y1128839D02*
Y1127067D01*
X1658071Y1128839D02*
Y1127067D01*
X1655512Y1128839D02*
Y1127067D01*
Y1122539D02*
Y1120768D01*
X1658071Y1122539D02*
Y1120768D01*
X1660630Y1122539D02*
Y1120768D01*
X1663189Y1122539D02*
Y1120768D01*
X1665748Y1122539D02*
Y1120768D01*
X1595571Y1235039D02*
X1597343D01*
X1595571Y1232480D02*
X1597343D01*
X1595571Y1229921D02*
X1597343D01*
X1595571Y1227362D02*
X1597343D01*
X1595571Y1224803D02*
X1597343D01*
X1601870D02*
X1603642D01*
X1601870Y1227362D02*
X1603642D01*
X1601870Y1229921D02*
X1603642D01*
X1601870Y1232480D02*
X1603642D01*
X1601870Y1235039D02*
X1603642D01*
G54D37*
X1597244Y1205709D02*
Y1209252D01*
G54D38*
X1626772Y1192717D03*
X1589764D03*
Y1178937D03*
X1626772D03*
G54D54*
X1597835Y1300492D02*
Y1303839D01*
X1605315Y1300492D02*
Y1303839D01*
X1601575Y1309547D02*
Y1312894D01*
G54D63*
X1560236Y1072441D02*
X1736220D01*
Y1056693*
X1893701*
Y1322441*
X1560236*
Y1072441*
G54D69*
X1804689Y1111199D02*
Y1086987D01*
X1798783Y1111199D02*
Y1086987D01*
G54D72*
X1578203Y925049D02*
X1577130Y924557D01*
X1576414Y923081*
X1576056Y920620*
Y919144*
X1576414Y916683*
X1577130Y915207*
X1578203Y914715*
X1578919*
X1579993Y915207*
X1580709Y916683*
X1581067Y919144*
Y920620*
X1580709Y923081*
X1579993Y924557*
X1578919Y925049*
X1578203*
X1588941Y921604D02*
X1588583Y920128D01*
X1587867Y919144*
X1586793Y918652*
X1586435*
X1585361Y919144*
X1584646Y920128*
X1584288Y921604*
Y922096*
X1584646Y923573*
X1585361Y924557*
X1586435Y925049*
X1586793*
X1587867Y924557*
X1588583Y923573*
X1588941Y921604*
Y919144*
X1588583Y916683*
X1587867Y915207*
X1586793Y914715*
X1586077*
X1585004Y915207*
X1584646Y916191*
X1592162Y919144D02*
X1598604D01*
X1603973Y925049D02*
X1602899Y924557D01*
X1602183Y923081*
X1601825Y920620*
Y919144*
X1602183Y916683*
X1602899Y915207*
X1603973Y914715*
X1604689*
X1605762Y915207*
X1606478Y916683*
X1606836Y919144*
Y920620*
X1606478Y923081*
X1605762Y924557*
X1604689Y925049*
X1603973*
X1612205D02*
X1611131Y924557D01*
X1610415Y923081*
X1610057Y920620*
Y919144*
X1610415Y916683*
X1611131Y915207*
X1612205Y914715*
X1612920*
X1613994Y915207*
X1614710Y916683*
X1615068Y919144*
Y920620*
X1614710Y923081*
X1613994Y924557*
X1612920Y925049*
X1612205*
X1620437D02*
X1619363Y924557D01*
X1618647Y923081*
X1618289Y920620*
Y919144*
X1618647Y916683*
X1619363Y915207*
X1620437Y914715*
X1621152*
X1622226Y915207*
X1622942Y916683*
X1623300Y919144*
Y920620*
X1622942Y923081*
X1622226Y924557*
X1621152Y925049*
X1620437*
X1628668D02*
X1627595Y924557D01*
X1626879Y923081*
X1626521Y920620*
Y919144*
X1626879Y916683*
X1627595Y915207*
X1628668Y914715*
X1629384*
X1630458Y915207*
X1631174Y916683*
X1631532Y919144*
Y920620*
X1631174Y923081*
X1630458Y924557*
X1629384Y925049*
X1628668*
X1638332D02*
X1634753Y918159D01*
X1640122*
X1638332Y925049D02*
Y914715D01*
X1645490Y925049D02*
X1644416Y924557D01*
X1643701Y923081*
X1643343Y920620*
Y919144*
X1643701Y916683*
X1644416Y915207*
X1645490Y914715*
X1646206*
X1647280Y915207*
X1647996Y916683*
X1648353Y919144*
Y920620*
X1647996Y923081*
X1647280Y924557*
X1646206Y925049*
X1645490*
X1651575Y919144D02*
X1658017D01*
X1663386Y925049D02*
X1662312Y924557D01*
X1661596Y923081*
X1661238Y920620*
Y919144*
X1661596Y916683*
X1662312Y915207*
X1663386Y914715*
X1664101*
X1665175Y915207*
X1665891Y916683*
X1666249Y919144*
Y920620*
X1665891Y923081*
X1665175Y924557*
X1664101Y925049*
X1663386*
X1671618D02*
X1670544Y924557D01*
X1669828Y923081*
X1669470Y920620*
Y919144*
X1669828Y916683*
X1670544Y915207*
X1671618Y914715*
X1672333*
X1673407Y915207*
X1674123Y916683*
X1674481Y919144*
Y920620*
X1674123Y923081*
X1673407Y924557*
X1672333Y925049*
X1671618*
X1793951D02*
X1792878Y924557D01*
X1792162Y923081*
X1791804Y920620*
Y919144*
X1792162Y916683*
X1792878Y915207*
X1793951Y914715*
X1794667*
X1795741Y915207*
X1796457Y916683*
X1796815Y919144*
Y920620*
X1796457Y923081*
X1795741Y924557*
X1794667Y925049*
X1793951*
X1801825D02*
X1800752Y924557D01*
X1800394Y923573*
Y922589*
X1800752Y921604*
X1801467Y921112*
X1802899Y920620*
X1803973Y920128*
X1804689Y919144*
X1805046Y918159*
Y916683*
X1804689Y915699*
X1804331Y915207*
X1803257Y914715*
X1801825*
X1800752Y915207*
X1800394Y915699*
X1800036Y916683*
Y918159*
X1800394Y919144*
X1801109Y920128*
X1802183Y920620*
X1803615Y921112*
X1804331Y921604*
X1804689Y922589*
Y923573*
X1804331Y924557*
X1803257Y925049*
X1801825*
X1808268Y919144D02*
X1814710D01*
X1820794Y925049D02*
X1817931Y914715D01*
X1820794Y925049D02*
X1823658Y914715D01*
X1819005Y918159D02*
X1822584D01*
X1826879Y925049D02*
Y917667D01*
X1827237Y916191*
X1827953Y915207*
X1829026Y914715*
X1829742*
X1830816Y915207*
X1831532Y916191*
X1831890Y917667*
Y925049*
X1840479Y922589D02*
X1840122Y923573D01*
X1839406Y924557*
X1838690Y925049*
X1837258*
X1836542Y924557*
X1835827Y923573*
X1835469Y922589*
X1835111Y921112*
Y918652*
X1835469Y917175*
X1835827Y916191*
X1836542Y915207*
X1837258Y914715*
X1838690*
X1839406Y915207*
X1840122Y916191*
X1840479Y917175*
Y918652*
X1838690D02*
X1840479D01*
X1843701Y919144D02*
X1850143D01*
X1855512Y925049D02*
X1854438Y924557D01*
X1853722Y923081*
X1853364Y920620*
Y919144*
X1853722Y916683*
X1854438Y915207*
X1855512Y914715*
X1856227*
X1857301Y915207*
X1858017Y916683*
X1858375Y919144*
Y920620*
X1858017Y923081*
X1857301Y924557*
X1856227Y925049*
X1855512*
X1866607D02*
X1863028Y914715D01*
X1861596Y925049D02*
X1866607D01*
X1722727D02*
X1719864Y914715D01*
X1722727Y925049D02*
X1725590Y914715D01*
X1720938Y918159D02*
X1724517D01*
X1728812Y925049D02*
Y914715D01*
Y925049D02*
X1731317D01*
X1732391Y924557*
X1733107Y923573*
X1733464Y922589*
X1733822Y921112*
Y918652*
X1733464Y917175*
X1733107Y916191*
X1732391Y915207*
X1731317Y914715*
X1728812*
G54D77*
X1841909Y1157697D02*
X1836043D01*
Y1163563*
X1841909*
Y1157697*
X1836043Y1157717D02*
X1841909D01*
X1836043Y1157756D02*
X1841909D01*
X1836043Y1157795D02*
X1841909D01*
X1836043Y1157835D02*
X1841909D01*
X1836043Y1157874D02*
X1841909D01*
X1836043Y1157913D02*
X1841909D01*
X1836043Y1157953D02*
X1841909D01*
X1836043Y1157992D02*
X1841909D01*
X1836043Y1158031D02*
X1841909D01*
X1836043Y1158071D02*
X1841909D01*
X1836043Y1158110D02*
X1841909D01*
X1836043Y1158150D02*
X1841909D01*
X1836043Y1158189D02*
X1841909D01*
X1836043Y1158228D02*
X1841909D01*
X1836043Y1158268D02*
X1841909D01*
X1836043Y1158307D02*
X1841909D01*
X1836043Y1158346D02*
X1841909D01*
X1836043Y1158386D02*
X1841909D01*
X1836043Y1158425D02*
X1841909D01*
X1836043Y1158465D02*
X1841909D01*
X1836043Y1158504D02*
X1841909D01*
X1836043Y1158543D02*
X1841909D01*
X1836043Y1158583D02*
X1841909D01*
X1836043Y1158622D02*
X1841909D01*
X1836043Y1158661D02*
X1841909D01*
X1836043Y1158701D02*
X1841909D01*
X1836043Y1158740D02*
X1841909D01*
X1836043Y1158780D02*
X1841909D01*
X1836043Y1158819D02*
X1841909D01*
X1836043Y1158858D02*
X1841909D01*
X1836043Y1158898D02*
X1841909D01*
X1836043Y1158937D02*
X1841909D01*
X1836043Y1158976D02*
X1841909D01*
X1836043Y1159016D02*
X1841909D01*
X1836043Y1159055D02*
X1841909D01*
X1836043Y1159094D02*
X1841909D01*
X1836043Y1159134D02*
X1841909D01*
X1836043Y1159173D02*
X1841909D01*
X1836043Y1159213D02*
X1841909D01*
X1836043Y1159252D02*
X1841909D01*
X1836043Y1159291D02*
X1841909D01*
X1836043Y1159331D02*
X1841909D01*
X1836043Y1159370D02*
X1841909D01*
X1836043Y1159409D02*
X1841909D01*
X1836043Y1159449D02*
X1841909D01*
X1836043Y1159488D02*
X1841909D01*
X1836043Y1159528D02*
X1841909D01*
X1836043Y1159567D02*
X1841909D01*
X1836043Y1159606D02*
X1841909D01*
X1836043Y1159646D02*
X1841909D01*
X1836043Y1159685D02*
X1841909D01*
X1836043Y1159724D02*
X1841909D01*
X1836043Y1159764D02*
X1841909D01*
X1836043Y1159803D02*
X1841909D01*
X1836043Y1159843D02*
X1841909D01*
X1836043Y1159882D02*
X1841909D01*
X1836043Y1159921D02*
X1841909D01*
X1836043Y1159961D02*
X1841909D01*
X1836043Y1160000D02*
X1841909D01*
X1836043Y1160039D02*
X1841909D01*
X1836043Y1160079D02*
X1841909D01*
X1836043Y1160118D02*
X1841909D01*
X1836043Y1160157D02*
X1841909D01*
X1836043Y1160197D02*
X1841909D01*
X1836043Y1160236D02*
X1841909D01*
X1836043Y1160276D02*
X1841909D01*
X1836043Y1160315D02*
X1841909D01*
X1836043Y1160354D02*
X1841909D01*
X1836043Y1160394D02*
X1841909D01*
X1836043Y1160433D02*
X1841909D01*
X1836043Y1160472D02*
X1841909D01*
X1836043Y1160512D02*
X1841909D01*
X1836043Y1160551D02*
X1841909D01*
X1836043Y1160591D02*
X1841909D01*
X1836043Y1160630D02*
X1841909D01*
X1836043Y1160669D02*
X1841909D01*
X1836043Y1160709D02*
X1841909D01*
X1836043Y1160748D02*
X1841909D01*
X1836043Y1160787D02*
X1841909D01*
X1836043Y1160827D02*
X1841909D01*
X1836043Y1160866D02*
X1841909D01*
X1836043Y1160906D02*
X1841909D01*
X1836043Y1160945D02*
X1841909D01*
X1836043Y1160984D02*
X1841909D01*
X1836043Y1161024D02*
X1841909D01*
X1836043Y1161063D02*
X1841909D01*
X1836043Y1161102D02*
X1841909D01*
X1836043Y1161142D02*
X1841909D01*
X1836043Y1161181D02*
X1841909D01*
X1836043Y1161220D02*
X1841909D01*
X1836043Y1161260D02*
X1841909D01*
X1836043Y1161299D02*
X1841909D01*
X1836043Y1161339D02*
X1841909D01*
X1836043Y1161378D02*
X1841909D01*
X1836043Y1161417D02*
X1841909D01*
X1836043Y1161457D02*
X1841909D01*
X1836043Y1161496D02*
X1841909D01*
X1836043Y1161535D02*
X1841909D01*
X1836043Y1161575D02*
X1841909D01*
X1836043Y1161614D02*
X1841909D01*
X1836043Y1161654D02*
X1841909D01*
X1836043Y1161693D02*
X1841909D01*
X1836043Y1161732D02*
X1841909D01*
X1836043Y1161772D02*
X1841909D01*
X1836043Y1161811D02*
X1841909D01*
X1836043Y1161850D02*
X1841909D01*
X1836043Y1161890D02*
X1841909D01*
X1836043Y1161929D02*
X1841909D01*
X1836043Y1161969D02*
X1841909D01*
X1836043Y1162008D02*
X1841909D01*
X1836043Y1162047D02*
X1841909D01*
X1836043Y1162087D02*
X1841909D01*
X1836043Y1162126D02*
X1841909D01*
X1836043Y1162165D02*
X1841909D01*
X1836043Y1162205D02*
X1841909D01*
X1836043Y1162244D02*
X1841909D01*
X1836043Y1162283D02*
X1841909D01*
X1836043Y1162323D02*
X1841909D01*
X1836043Y1162362D02*
X1841909D01*
X1836043Y1162402D02*
X1841909D01*
X1836043Y1162441D02*
X1841909D01*
X1836043Y1162480D02*
X1841909D01*
X1836043Y1162520D02*
X1841909D01*
X1836043Y1162559D02*
X1841909D01*
X1836043Y1162598D02*
X1841909D01*
X1836043Y1162638D02*
X1841909D01*
X1836043Y1162677D02*
X1841909D01*
X1836043Y1162717D02*
X1841909D01*
X1836043Y1162756D02*
X1841909D01*
X1836043Y1162795D02*
X1841909D01*
X1836043Y1162835D02*
X1841909D01*
X1836043Y1162874D02*
X1841909D01*
X1836043Y1162913D02*
X1841909D01*
X1836043Y1162953D02*
X1841909D01*
X1836043Y1162992D02*
X1841909D01*
X1836043Y1163031D02*
X1841909D01*
X1836043Y1163071D02*
X1841909D01*
X1836043Y1163110D02*
X1841909D01*
X1836043Y1163150D02*
X1841909D01*
X1836043Y1163189D02*
X1841909D01*
X1836043Y1163228D02*
X1841909D01*
X1836043Y1163268D02*
X1841909D01*
X1836043Y1163307D02*
X1841909D01*
X1836043Y1163346D02*
X1841909D01*
X1836043Y1163386D02*
X1841909D01*
X1836043Y1163425D02*
X1841909D01*
X1836043Y1163465D02*
X1841909D01*
X1836043Y1163504D02*
X1841909D01*
X1836043Y1163543D02*
X1841909D01*
X1836063Y1157697D02*
Y1163563D01*
X1836102Y1157697D02*
Y1163563D01*
X1836142Y1157697D02*
Y1163563D01*
X1836181Y1157697D02*
Y1163563D01*
X1836220Y1157697D02*
Y1163563D01*
X1836260Y1157697D02*
Y1163563D01*
X1836299Y1157697D02*
Y1163563D01*
X1836339Y1157697D02*
Y1163563D01*
X1836378Y1157697D02*
Y1163563D01*
X1836417Y1157697D02*
Y1163563D01*
X1836457Y1157697D02*
Y1163563D01*
X1836496Y1157697D02*
Y1163563D01*
X1836535Y1157697D02*
Y1163563D01*
X1836575Y1157697D02*
Y1163563D01*
X1836614Y1157697D02*
Y1163563D01*
X1836654Y1157697D02*
Y1163563D01*
X1836693Y1157697D02*
Y1163563D01*
X1836732Y1157697D02*
Y1163563D01*
X1836772Y1157697D02*
Y1163563D01*
X1836811Y1157697D02*
Y1163563D01*
X1836850Y1157697D02*
Y1163563D01*
X1836890Y1157697D02*
Y1163563D01*
X1836929Y1157697D02*
Y1163563D01*
X1836969Y1157697D02*
Y1163563D01*
X1837008Y1157697D02*
Y1163563D01*
X1837047Y1157697D02*
Y1163563D01*
X1837087Y1157697D02*
Y1163563D01*
X1837126Y1157697D02*
Y1163563D01*
X1837165Y1157697D02*
Y1163563D01*
X1837205Y1157697D02*
Y1163563D01*
X1837244Y1157697D02*
Y1163563D01*
X1837283Y1157697D02*
Y1163563D01*
X1837323Y1157697D02*
Y1163563D01*
X1837362Y1157697D02*
Y1163563D01*
X1837402Y1157697D02*
Y1163563D01*
X1837441Y1157697D02*
Y1163563D01*
X1837480Y1157697D02*
Y1163563D01*
X1837520Y1157697D02*
Y1163563D01*
X1837559Y1157697D02*
Y1163563D01*
X1837598Y1157697D02*
Y1163563D01*
X1837638Y1157697D02*
Y1163563D01*
X1837677Y1157697D02*
Y1163563D01*
X1837717Y1157697D02*
Y1163563D01*
X1837756Y1157697D02*
Y1163563D01*
X1837795Y1157697D02*
Y1163563D01*
X1837835Y1157697D02*
Y1163563D01*
X1837874Y1157697D02*
Y1163563D01*
X1837913Y1157697D02*
Y1163563D01*
X1837953Y1157697D02*
Y1163563D01*
X1837992Y1157697D02*
Y1163563D01*
X1838031Y1157697D02*
Y1163563D01*
X1838071Y1157697D02*
Y1163563D01*
X1838110Y1157697D02*
Y1163563D01*
X1838150Y1157697D02*
Y1163563D01*
X1838189Y1157697D02*
Y1163563D01*
X1838228Y1157697D02*
Y1163563D01*
X1838268Y1157697D02*
Y1163563D01*
X1838307Y1157697D02*
Y1163563D01*
X1838346Y1157697D02*
Y1163563D01*
X1838386Y1157697D02*
Y1163563D01*
X1838425Y1157697D02*
Y1163563D01*
X1838465Y1157697D02*
Y1163563D01*
X1838504Y1157697D02*
Y1163563D01*
X1838543Y1157697D02*
Y1163563D01*
X1838583Y1157697D02*
Y1163563D01*
X1838622Y1157697D02*
Y1163563D01*
X1838661Y1157697D02*
Y1163563D01*
X1838701Y1157697D02*
Y1163563D01*
X1838740Y1157697D02*
Y1163563D01*
X1838780Y1157697D02*
Y1163563D01*
X1838819Y1157697D02*
Y1163563D01*
X1838858Y1157697D02*
Y1163563D01*
X1838898Y1157697D02*
Y1163563D01*
X1838937Y1157697D02*
Y1163563D01*
X1838976Y1157697D02*
Y1163563D01*
X1839016Y1157697D02*
Y1163563D01*
X1839055Y1157697D02*
Y1163563D01*
X1839094Y1157697D02*
Y1163563D01*
X1839134Y1157697D02*
Y1163563D01*
X1839173Y1157697D02*
Y1163563D01*
X1839213Y1157697D02*
Y1163563D01*
X1839252Y1157697D02*
Y1163563D01*
X1839291Y1157697D02*
Y1163563D01*
X1839331Y1157697D02*
Y1163563D01*
X1839370Y1157697D02*
Y1163563D01*
X1839409Y1157697D02*
Y1163563D01*
X1839449Y1157697D02*
Y1163563D01*
X1839488Y1157697D02*
Y1163563D01*
X1839528Y1157697D02*
Y1163563D01*
X1839567Y1157697D02*
Y1163563D01*
X1839606Y1157697D02*
Y1163563D01*
X1839646Y1157697D02*
Y1163563D01*
X1839685Y1157697D02*
Y1163563D01*
X1839724Y1157697D02*
Y1163563D01*
X1839764Y1157697D02*
Y1163563D01*
X1839803Y1157697D02*
Y1163563D01*
X1839843Y1157697D02*
Y1163563D01*
X1839882Y1157697D02*
Y1163563D01*
X1839921Y1157697D02*
Y1163563D01*
X1839961Y1157697D02*
Y1163563D01*
X1840000Y1157697D02*
Y1163563D01*
X1840039Y1157697D02*
Y1163563D01*
X1840079Y1157697D02*
Y1163563D01*
X1840118Y1157697D02*
Y1163563D01*
X1840157Y1157697D02*
Y1163563D01*
X1840197Y1157697D02*
Y1163563D01*
X1840236Y1157697D02*
Y1163563D01*
X1840276Y1157697D02*
Y1163563D01*
X1840315Y1157697D02*
Y1163563D01*
X1840354Y1157697D02*
Y1163563D01*
X1840394Y1157697D02*
Y1163563D01*
X1840433Y1157697D02*
Y1163563D01*
X1840472Y1157697D02*
Y1163563D01*
X1840512Y1157697D02*
Y1163563D01*
X1840551Y1157697D02*
Y1163563D01*
X1840591Y1157697D02*
Y1163563D01*
X1840630Y1157697D02*
Y1163563D01*
X1840669Y1157697D02*
Y1163563D01*
X1840709Y1157697D02*
Y1163563D01*
X1840748Y1157697D02*
Y1163563D01*
X1840787Y1157697D02*
Y1163563D01*
X1840827Y1157697D02*
Y1163563D01*
X1840866Y1157697D02*
Y1163563D01*
X1840906Y1157697D02*
Y1163563D01*
X1840945Y1157697D02*
Y1163563D01*
X1840984Y1157697D02*
Y1163563D01*
X1841024Y1157697D02*
Y1163563D01*
X1841063Y1157697D02*
Y1163563D01*
X1841102Y1157697D02*
Y1163563D01*
X1841142Y1157697D02*
Y1163563D01*
X1841181Y1157697D02*
Y1163563D01*
X1841220Y1157697D02*
Y1163563D01*
X1841260Y1157697D02*
Y1163563D01*
X1841299Y1157697D02*
Y1163563D01*
X1841339Y1157697D02*
Y1163563D01*
X1841378Y1157697D02*
Y1163563D01*
X1841417Y1157697D02*
Y1163563D01*
X1841457Y1157697D02*
Y1163563D01*
X1841496Y1157697D02*
Y1163563D01*
X1841535Y1157697D02*
Y1163563D01*
X1841575Y1157697D02*
Y1163563D01*
X1841614Y1157697D02*
Y1163563D01*
X1841654Y1157697D02*
Y1163563D01*
X1841693Y1157697D02*
Y1163563D01*
X1841732Y1157697D02*
Y1163563D01*
X1841772Y1157697D02*
Y1163563D01*
X1841811Y1157697D02*
Y1163563D01*
X1841850Y1157697D02*
Y1163563D01*
X1841890Y1157697D02*
Y1163563D01*
G74*
X0Y0D02*
M02*
