*
*
G04 PADS Layout (Build Number 2006.45.1) generated Gerber (RS-274-X) file*
G04 PC Version=2.1*
*
%IN "09-000040-00_AD.pcb"*%
*
%MOIN*%
*
%FSLAX25Y25*%
*
*
*
*
G04 PC Standard Apertures*
*
*
G04 Thermal Relief Aperture macro.*
%AMTER*
1,1,$1,0,0*
1,0,$1-$2,0,0*
21,0,$3,$4,0,0,45*
21,0,$3,$4,0,0,135*
%
*
*
G04 Annular Aperture macro.*
%AMANN*
1,1,$1,0,0*
1,0,$2,0,0*
%
*
*
G04 Odd Aperture macro.*
%AMODD*
1,1,$1,0,0*
1,0,$1-0.005,0,0*
%
*
*
G04 PC Custom Aperture Macros*
*
*
*
*
*
*
G04 PC Aperture Table*
*
%ADD010C,0.01575*%
%ADD011C,0.00984*%
%ADD012C,0.01969*%
%ADD013C,0.00787*%
%ADD014C,0.00394*%
%ADD016C,0.01181*%
%ADD017C,0.02362*%
%ADD018R,0.05118X0.05118*%
%ADD019R,0.09449X0.09449*%
%ADD020R,0.03937X0.03937*%
%ADD030C,0.00197*%
%ADD033R,0.03543X0.03543*%
%ADD054C,0.02559*%
%ADD055R,0.05906X0.05906*%
%ADD056R,0.05512X0.05512*%
%ADD063C,0.004*%
%ADD072C,0.01575*%
*
*
*
*
G04 PC Custom Flashes*
G04 Layer Name 09-000040-00_AD.pcb - flashes*
%LPD*%
*
*
G04 PC Circuitry*
G04 Layer Name 09-000040-00_AD.pcb - circuitry*
%LPD*%
*
G54D10*
G01X1774803Y1216437D02*
X1769685D01*
X1774803Y1213878D02*
X1769685D01*
X1774803Y1211319D02*
X1769685D01*
X1774803Y1208760D02*
X1769685D01*
X1774803Y1206201D02*
X1769685D01*
X1774803Y1203642D02*
X1769685D01*
X1774803Y1201083D02*
X1769685D01*
X1774803Y1198524D02*
X1769685D01*
X1752362D02*
X1747244D01*
X1752362Y1201083D02*
X1747244D01*
X1752362Y1203642D02*
X1747244D01*
X1752362Y1206201D02*
X1747244D01*
X1752362Y1208760D02*
X1747244D01*
X1752362Y1211319D02*
X1747244D01*
X1752362Y1213878D02*
X1747244D01*
X1752362Y1216437D02*
X1747244D01*
X1767394Y897736D02*
X1766321Y897244D01*
X1765605Y895768*
X1765247Y893307*
Y891831*
X1765605Y889370*
X1766321Y887894*
X1767394Y887402*
X1768110*
X1769184Y887894*
X1769900Y889370*
X1770258Y891831*
Y893307*
X1769900Y895768*
X1769184Y897244*
X1768110Y897736*
X1767394*
X1778132Y894291D02*
X1777774Y892815D01*
X1777058Y891831*
X1775984Y891339*
X1775626*
X1774553Y891831*
X1773837Y892815*
X1773479Y894291*
Y894783*
X1773837Y896260*
X1774553Y897244*
X1775626Y897736*
X1775984*
X1777058Y897244*
X1777774Y896260*
X1778132Y894291*
Y891831*
X1777774Y889370*
X1777058Y887894*
X1775984Y887402*
X1775268*
X1774195Y887894*
X1773837Y888878*
X1781353Y891831D02*
X1787795D01*
X1793164Y897736D02*
X1792090Y897244D01*
X1791374Y895768*
X1791016Y893307*
Y891831*
X1791374Y889370*
X1792090Y887894*
X1793164Y887402*
X1793880*
X1794953Y887894*
X1795669Y889370*
X1796027Y891831*
Y893307*
X1795669Y895768*
X1794953Y897244*
X1793880Y897736*
X1793164*
X1801396D02*
X1800322Y897244D01*
X1799606Y895768*
X1799248Y893307*
Y891831*
X1799606Y889370*
X1800322Y887894*
X1801396Y887402*
X1802112*
X1803185Y887894*
X1803901Y889370*
X1804259Y891831*
Y893307*
X1803901Y895768*
X1803185Y897244*
X1802112Y897736*
X1801396*
X1809628D02*
X1808554Y897244D01*
X1807838Y895768*
X1807480Y893307*
Y891831*
X1807838Y889370*
X1808554Y887894*
X1809628Y887402*
X1810344*
X1811417Y887894*
X1812133Y889370*
X1812491Y891831*
Y893307*
X1812133Y895768*
X1811417Y897244*
X1810344Y897736*
X1809628*
X1817860D02*
X1816786Y897244D01*
X1816070Y895768*
X1815712Y893307*
Y891831*
X1816070Y889370*
X1816786Y887894*
X1817860Y887402*
X1818576*
X1819649Y887894*
X1820365Y889370*
X1820723Y891831*
Y893307*
X1820365Y895768*
X1819649Y897244*
X1818576Y897736*
X1817860*
X1827523D02*
X1823944Y890846D01*
X1829313*
X1827523Y897736D02*
Y887402D01*
X1834681Y897736D02*
X1833608Y897244D01*
X1832892Y895768*
X1832534Y893307*
Y891831*
X1832892Y889370*
X1833608Y887894*
X1834681Y887402*
X1835397*
X1836471Y887894*
X1837187Y889370*
X1837545Y891831*
Y893307*
X1837187Y895768*
X1836471Y897244*
X1835397Y897736*
X1834681*
X1552613Y952608D02*
X1555476Y942274D01*
X1558339Y952608D02*
X1555476Y942274D01*
X1561560Y952608D02*
Y942274D01*
Y952608D02*
X1566213D01*
X1561560Y947687D02*
X1564424D01*
X1561560Y942274D02*
X1566213D01*
X1569435Y952608D02*
Y942274D01*
X1574445Y952608D02*
Y942274D01*
X1569435Y947687D02*
X1574445D01*
X1577666Y952608D02*
Y942274D01*
X1586256Y950148D02*
X1585898Y951132D01*
X1585183Y952116*
X1584467Y952608*
X1583035*
X1582319Y952116*
X1581603Y951132*
X1581246Y950148*
X1580888Y948671*
Y946211*
X1581246Y944734*
X1581603Y943750*
X1582319Y942766*
X1583035Y942274*
X1584467*
X1585183Y942766*
X1585898Y943750*
X1586256Y944734*
X1589477Y952608D02*
Y942274D01*
X1593772*
X1596994Y952608D02*
Y942274D01*
Y952608D02*
X1601646D01*
X1596994Y947687D02*
X1599857D01*
X1596994Y942274D02*
X1601646D01*
X1613099Y952608D02*
Y942274D01*
Y952608D02*
X1615605D01*
X1616679Y952116*
X1617394Y951132*
X1617752Y950148*
X1618110Y948671*
Y946211*
X1617752Y944734*
X1617394Y943750*
X1616679Y942766*
X1615605Y942274*
X1613099*
X1621331Y952608D02*
Y942274D01*
X1629563Y951132D02*
X1628848Y952116D01*
X1627774Y952608*
X1626342*
X1625268Y952116*
X1624553Y951132*
Y950148*
X1624911Y949163*
X1625268Y948671*
X1625984Y948179*
X1628132Y947195*
X1628848Y946703*
X1629205Y946211*
X1629563Y945226*
Y943750*
X1628848Y942766*
X1627774Y942274*
X1626342*
X1625268Y942766*
X1624553Y943750*
X1632785Y952608D02*
Y942274D01*
Y952608D02*
X1636006D01*
X1637079Y952116*
X1637437Y951624*
X1637795Y950640*
Y949163*
X1637437Y948179*
X1637079Y947687*
X1636006Y947195*
X1632785*
X1641016Y952608D02*
Y942274D01*
X1645311*
X1651396Y952608D02*
X1648533Y942274D01*
X1651396Y952608D02*
X1654259Y942274D01*
X1649606Y945719D02*
X1653185D01*
X1657480Y952608D02*
X1660344Y947687D01*
Y942274*
X1663207Y952608D02*
X1660344Y947687D01*
X1679671Y951132D02*
X1678955Y952116D01*
X1677881Y952608*
X1676450*
X1675376Y952116*
X1674660Y951132*
Y950148*
X1675018Y949163*
X1675376Y948671*
X1676092Y948179*
X1678239Y947195*
X1678955Y946703*
X1679313Y946211*
X1679671Y945226*
Y943750*
X1678955Y942766*
X1677881Y942274*
X1676450*
X1675376Y942766*
X1674660Y943750*
X1682892Y952608D02*
X1685755Y947687D01*
Y942274*
X1688618Y952608D02*
X1685755Y947687D01*
X1696850Y951132D02*
X1696135Y952116D01*
X1695061Y952608*
X1693629*
X1692555Y952116*
X1691840Y951132*
Y950148*
X1692198Y949163*
X1692555Y948671*
X1693271Y948179*
X1695419Y947195*
X1696135Y946703*
X1696492Y946211*
X1696850Y945226*
Y943750*
X1696135Y942766*
X1695061Y942274*
X1693629*
X1692555Y942766*
X1691840Y943750*
X1702577Y952608D02*
Y942274D01*
X1700072Y952608D02*
X1705082D01*
X1708304D02*
Y942274D01*
Y952608D02*
X1712956D01*
X1708304Y947687D02*
X1711167D01*
X1708304Y942274D02*
X1712956D01*
X1716178Y952608D02*
Y942274D01*
Y952608D02*
X1719041Y942274D01*
X1721904Y952608D02*
X1719041Y942274D01*
X1721904Y952608D02*
Y942274D01*
X1738726Y950148D02*
X1738368Y951132D01*
X1737652Y952116*
X1736936Y952608*
X1735505*
X1734789Y952116*
X1734073Y951132*
X1733715Y950148*
X1733357Y948671*
Y946211*
X1733715Y944734*
X1734073Y943750*
X1734789Y942766*
X1735505Y942274*
X1736936*
X1737652Y942766*
X1738368Y943750*
X1738726Y944734*
X1744094Y952608D02*
X1743379Y952116D01*
X1742663Y951132*
X1742305Y950148*
X1741947Y948671*
Y946211*
X1742305Y944734*
X1742663Y943750*
X1743379Y942766*
X1744094Y942274*
X1745526*
X1746242Y942766*
X1746958Y943750*
X1747316Y944734*
X1747674Y946211*
Y948671*
X1747316Y950148*
X1746958Y951132*
X1746242Y952116*
X1745526Y952608*
X1744094*
X1750895D02*
Y942274D01*
Y952608D02*
X1755906Y942274D01*
Y952608D02*
Y942274D01*
X1761632Y952608D02*
Y942274D01*
X1759127Y952608D02*
X1764137D01*
X1767359D02*
Y942274D01*
Y952608D02*
X1770580D01*
X1771654Y952116*
X1772011Y951624*
X1772369Y950640*
Y949656*
X1772011Y948671*
X1771654Y948179*
X1770580Y947687*
X1767359*
X1769864D02*
X1772369Y942274D01*
X1777738Y952608D02*
X1777022Y952116D01*
X1776306Y951132*
X1775948Y950148*
X1775591Y948671*
Y946211*
X1775948Y944734*
X1776306Y943750*
X1777022Y942766*
X1777738Y942274*
X1779170*
X1779885Y942766*
X1780601Y943750*
X1780959Y944734*
X1781317Y946211*
Y948671*
X1780959Y950148*
X1780601Y951132*
X1779885Y952116*
X1779170Y952608*
X1777738*
X1784538D02*
Y942274D01*
X1788833*
X1792054Y952608D02*
Y942274D01*
X1796349*
X1799571Y952608D02*
Y942274D01*
Y952608D02*
X1804223D01*
X1799571Y947687D02*
X1802434D01*
X1799571Y942274D02*
X1804223D01*
X1807445Y952608D02*
Y942274D01*
Y952608D02*
X1810666D01*
X1811739Y952116*
X1812097Y951624*
X1812455Y950640*
Y949656*
X1812097Y948671*
X1811739Y948179*
X1810666Y947687*
X1807445*
X1809950D02*
X1812455Y942274D01*
X1823908Y952608D02*
Y942274D01*
Y952608D02*
X1827130D01*
X1828203Y952116*
X1828561Y951624*
X1828919Y950640*
Y949656*
X1828561Y948671*
X1828203Y948179*
X1827130Y947687*
X1823908D02*
X1827130D01*
X1828203Y947195*
X1828561Y946703*
X1828919Y945719*
Y944242*
X1828561Y943258*
X1828203Y942766*
X1827130Y942274*
X1823908*
X1834288Y952608D02*
X1833572Y952116D01*
X1832856Y951132*
X1832498Y950148*
X1832140Y948671*
Y946211*
X1832498Y944734*
X1832856Y943750*
X1833572Y942766*
X1834288Y942274*
X1835719*
X1836435Y942766*
X1837151Y943750*
X1837509Y944734*
X1837867Y946211*
Y948671*
X1837509Y950148*
X1837151Y951132*
X1836435Y952116*
X1835719Y952608*
X1834288*
X1843951D02*
X1841088Y942274D01*
X1843951Y952608D02*
X1846815Y942274D01*
X1842162Y945719D02*
X1845741D01*
X1850036Y952608D02*
Y942274D01*
Y952608D02*
X1853257D01*
X1854331Y952116*
X1854689Y951624*
X1855047Y950640*
Y949656*
X1854689Y948671*
X1854331Y948179*
X1853257Y947687*
X1850036*
X1852541D02*
X1855047Y942274D01*
X1858268Y952608D02*
Y942274D01*
Y952608D02*
X1860773D01*
X1861847Y952116*
X1862563Y951132*
X1862921Y950148*
X1863278Y948671*
Y946211*
X1862921Y944734*
X1862563Y943750*
X1861847Y942766*
X1860773Y942274*
X1858268*
X1843307Y897736D02*
Y887402D01*
Y897736D02*
X1846528D01*
X1847602Y897244*
X1847960Y896752*
X1848318Y895768*
Y894291*
X1847960Y893307*
X1847602Y892815*
X1846528Y892323*
X1843307*
X1851539Y897736D02*
Y887402D01*
Y897736D02*
X1854760D01*
X1855834Y897244*
X1856192Y896752*
X1856550Y895768*
Y894783*
X1856192Y893799*
X1855834Y893307*
X1854760Y892815*
X1851539D02*
X1854760D01*
X1855834Y892323*
X1856192Y891831*
X1856550Y890846*
Y889370*
X1856192Y888386*
X1855834Y887894*
X1854760Y887402*
X1851539*
X1860129Y888386D02*
X1859771Y887894D01*
X1860129Y887402*
X1860487Y887894*
X1860129Y888386*
X1863708Y897736D02*
Y887402D01*
Y897736D02*
X1866929D01*
X1868003Y897244*
X1868361Y896752*
X1868719Y895768*
Y894291*
X1868361Y893307*
X1868003Y892815*
X1866929Y892323*
X1863708*
X1871940Y897736D02*
Y887402D01*
X1876951Y897736D02*
Y887402D01*
X1871940Y892815D02*
X1876951D01*
X1882319Y897736D02*
X1881603Y897244D01*
X1880888Y896260*
X1880530Y895276*
X1880172Y893799*
Y891339*
X1880530Y889862*
X1880888Y888878*
X1881603Y887894*
X1882319Y887402*
X1883751*
X1884467Y887894*
X1885183Y888878*
X1885540Y889862*
X1885898Y891339*
Y893799*
X1885540Y895276*
X1885183Y896260*
X1884467Y897244*
X1883751Y897736*
X1882319*
X1532283D02*
Y887402D01*
Y897736D02*
X1535505D01*
X1536578Y897244*
X1536936Y896752*
X1537294Y895768*
Y894291*
X1536936Y893307*
X1536578Y892815*
X1535505Y892323*
X1532283*
X1543379Y897736D02*
X1540515Y887402D01*
X1543379Y897736D02*
X1546242Y887402D01*
X1541589Y890846D02*
X1545168D01*
X1554474Y896260D02*
X1553758Y897244D01*
X1552684Y897736*
X1551253*
X1550179Y897244*
X1549463Y896260*
Y895276*
X1549821Y894291*
X1550179Y893799*
X1550895Y893307*
X1553042Y892323*
X1553758Y891831*
X1554116Y891339*
X1554474Y890354*
Y888878*
X1553758Y887894*
X1552684Y887402*
X1551253*
X1550179Y887894*
X1549463Y888878*
X1560200Y897736D02*
Y887402D01*
X1557695Y897736D02*
X1562706D01*
X1565927D02*
Y887402D01*
Y897736D02*
X1570580D01*
X1565927Y892815D02*
X1568790D01*
X1565927Y887402D02*
X1570580D01*
X1582033Y897736D02*
Y887402D01*
Y897736D02*
X1584896Y887402D01*
X1587759Y897736D02*
X1584896Y887402D01*
X1587759Y897736D02*
Y887402D01*
X1593844Y897736D02*
X1590981Y887402D01*
X1593844Y897736D02*
X1596707Y887402D01*
X1592054Y890846D02*
X1595633D01*
X1604939Y896260D02*
X1604223Y897244D01*
X1603150Y897736*
X1601718*
X1600644Y897244*
X1599928Y896260*
Y895276*
X1600286Y894291*
X1600644Y893799*
X1601360Y893307*
X1603508Y892323*
X1604223Y891831*
X1604581Y891339*
X1604939Y890354*
Y888878*
X1604223Y887894*
X1603150Y887402*
X1601718*
X1600644Y887894*
X1599928Y888878*
X1608160Y897736D02*
Y887402D01*
X1613171Y897736D02*
X1608160Y890846D01*
X1609950Y893307D02*
X1613171Y887402D01*
X1627130Y899705D02*
X1626414Y898720D01*
X1625698Y897244*
X1624982Y895276*
X1624624Y892815*
Y890846*
X1624982Y888386*
X1625698Y886417*
X1626414Y884941*
X1627130Y883957*
X1630351Y897736D02*
Y887402D01*
Y897736D02*
X1633572D01*
X1634646Y897244*
X1635004Y896752*
X1635361Y895768*
Y894783*
X1635004Y893799*
X1634646Y893307*
X1633572Y892815*
X1630351D02*
X1633572D01*
X1634646Y892323*
X1635004Y891831*
X1635361Y890846*
Y889370*
X1635004Y888386*
X1634646Y887894*
X1633572Y887402*
X1630351*
X1640730Y897736D02*
X1640014Y897244D01*
X1639298Y896260*
X1638941Y895276*
X1638583Y893799*
Y891339*
X1638941Y889862*
X1639298Y888878*
X1640014Y887894*
X1640730Y887402*
X1642162*
X1642878Y887894*
X1643593Y888878*
X1643951Y889862*
X1644309Y891339*
Y893799*
X1643951Y895276*
X1643593Y896260*
X1642878Y897244*
X1642162Y897736*
X1640730*
X1650036D02*
Y887402D01*
X1647530Y897736D02*
X1652541D01*
X1658268D02*
Y887402D01*
X1655762Y897736D02*
X1660773D01*
X1666142D02*
X1665426Y897244D01*
X1664710Y896260*
X1664352Y895276*
X1663994Y893799*
Y891339*
X1664352Y889862*
X1664710Y888878*
X1665426Y887894*
X1666142Y887402*
X1667573*
X1668289Y887894*
X1669005Y888878*
X1669363Y889862*
X1669721Y891339*
Y893799*
X1669363Y895276*
X1669005Y896260*
X1668289Y897244*
X1667573Y897736*
X1666142*
X1672942D02*
Y887402D01*
Y897736D02*
X1675805Y887402D01*
X1678669Y897736D02*
X1675805Y887402D01*
X1678669Y897736D02*
Y887402D01*
X1695132Y896260D02*
X1694417Y897244D01*
X1693343Y897736*
X1691911*
X1690838Y897244*
X1690122Y896260*
Y895276*
X1690480Y894291*
X1690838Y893799*
X1691553Y893307*
X1693701Y892323*
X1694417Y891831*
X1694775Y891339*
X1695132Y890354*
Y888878*
X1694417Y887894*
X1693343Y887402*
X1691911*
X1690838Y887894*
X1690122Y888878*
X1698354Y897736D02*
Y887402D01*
X1701575Y897736D02*
Y887402D01*
Y897736D02*
X1704080D01*
X1705154Y897244*
X1705870Y896260*
X1706228Y895276*
X1706586Y893799*
Y891339*
X1706228Y889862*
X1705870Y888878*
X1705154Y887894*
X1704080Y887402*
X1701575*
X1709807Y897736D02*
Y887402D01*
Y897736D02*
X1714460D01*
X1709807Y892815D02*
X1712670D01*
X1709807Y887402D02*
X1714460D01*
X1717681Y899705D02*
X1718397Y898720D01*
X1719112Y897244*
X1719828Y895276*
X1720186Y892815*
Y890846*
X1719828Y888386*
X1719112Y886417*
X1718397Y884941*
X1717681Y883957*
G54D11*
X1695276Y1104724D02*
Y1109055D01*
X1693307Y1104724D02*
Y1109055D01*
X1691339Y1104724D02*
Y1109055D01*
X1689370Y1104724D02*
Y1109055D01*
X1687402Y1104724D02*
Y1109055D01*
Y1121654D02*
Y1125984D01*
X1689370Y1121654D02*
Y1125984D01*
X1691339Y1121654D02*
Y1125984D01*
X1693307Y1121654D02*
Y1125984D01*
X1695276Y1121654D02*
Y1125984D01*
X1524409Y912205D02*
G75*
G03X1528346Y908268I3937J-0D01*
G01X1689764*
G03X1693701Y912205I-0J3937*
G01Y927953*
G03X1689764Y931890I-3937J-0*
G01X1528346*
G03X1524409Y927953I0J-3937*
G01Y912205*
X1697638D02*
G03X1701575Y908268I3937J-0D01*
G01X1737008*
G03X1740945Y912205I-0J3937*
G01Y927953*
G03X1737008Y931890I-3937J-0*
G01X1701575*
G03X1697638Y927953I-0J-3937*
G01Y912205*
X1524409Y884646D02*
G03X1528346Y880709I3937J-0D01*
G01X1737008*
G03X1740945Y884646I-0J3937*
G01Y900394*
G03X1737008Y904331I-3937J-0*
G01X1528346*
G03X1524409Y900394I0J-3937*
G01Y884646*
X1744882D02*
G03X1748819Y880709I3937J-0D01*
G01X1890551*
G03X1894488Y884646I0J3937*
G01Y900394*
G03X1890551Y904331I-3937J-0*
G01X1748819*
G03X1744882Y900394I-0J-3937*
G01Y884646*
Y912205D02*
G03X1748819Y908268I3937J-0D01*
G01X1890551*
G03X1894488Y912205I0J3937*
G01Y927953*
G03X1890551Y931890I-3937J-0*
G01X1748819*
G03X1744882Y927953I-0J-3937*
G01Y912205*
X1524409Y939764D02*
G03X1528346Y935827I3937J-0D01*
G01X1890551*
G03X1894488Y939764I0J3937*
G01Y955512*
G03X1890551Y959449I-3937J-0*
G01X1528346*
G03X1524409Y955512I0J-3937*
G01Y939764*
G54D12*
X1689075Y1315354D02*
X1684941D01*
X1689075Y1312205D02*
X1684941D01*
X1689075Y1309055D02*
X1684941D01*
X1689075Y1305906D02*
X1684941D01*
X1689075Y1302756D02*
X1684941D01*
X1689075Y1299606D02*
X1684941D01*
X1689075Y1296457D02*
X1684941D01*
X1689075Y1293307D02*
X1684941D01*
X1689075Y1290157D02*
X1684941D01*
X1689075Y1287008D02*
X1684941D01*
X1689075Y1283858D02*
X1684941D01*
X1689075Y1280709D02*
X1684941D01*
X1689075Y1277559D02*
X1684941D01*
X1689075Y1274409D02*
X1684941D01*
X1689075Y1271260D02*
X1684941D01*
X1689075Y1268110D02*
X1684941D01*
X1689075Y1264961D02*
X1684941D01*
X1689075Y1261811D02*
X1684941D01*
X1689075Y1258661D02*
X1684941D01*
X1689075Y1255512D02*
X1684941D01*
X1689075Y1252362D02*
X1684941D01*
X1689075Y1249213D02*
X1684941D01*
X1644980D02*
X1640846D01*
X1644980Y1252362D02*
X1640846D01*
X1644980Y1255512D02*
X1640846D01*
X1644980Y1258661D02*
X1640846D01*
X1644980Y1261811D02*
X1640846D01*
X1644980Y1264961D02*
X1640846D01*
X1644980Y1268110D02*
X1640846D01*
X1644980Y1271260D02*
X1640846D01*
X1644980Y1274409D02*
X1640846D01*
X1644980Y1277559D02*
X1640846D01*
X1644980Y1280709D02*
X1640846D01*
X1644980Y1283858D02*
X1640846D01*
X1644980Y1287008D02*
X1640846D01*
X1644980Y1290157D02*
X1640846D01*
X1644980Y1293307D02*
X1640846D01*
X1644980Y1296457D02*
X1640846D01*
X1644980Y1299606D02*
X1640846D01*
X1644980Y1302756D02*
X1640846D01*
X1644980Y1305906D02*
X1640846D01*
X1644980Y1309055D02*
X1640846D01*
X1644980Y1312205D02*
X1640846D01*
X1644980Y1315354D02*
X1640846D01*
X1756791D02*
X1752657D01*
X1756791Y1312205D02*
X1752657D01*
X1756791Y1309055D02*
X1752657D01*
X1756791Y1305906D02*
X1752657D01*
X1756791Y1302756D02*
X1752657D01*
X1756791Y1299606D02*
X1752657D01*
X1756791Y1296457D02*
X1752657D01*
X1756791Y1293307D02*
X1752657D01*
X1756791Y1290157D02*
X1752657D01*
X1756791Y1287008D02*
X1752657D01*
X1756791Y1283858D02*
X1752657D01*
X1756791Y1280709D02*
X1752657D01*
X1756791Y1277559D02*
X1752657D01*
X1756791Y1274409D02*
X1752657D01*
X1756791Y1271260D02*
X1752657D01*
X1756791Y1268110D02*
X1752657D01*
X1756791Y1264961D02*
X1752657D01*
X1756791Y1261811D02*
X1752657D01*
X1756791Y1258661D02*
X1752657D01*
X1756791Y1255512D02*
X1752657D01*
X1756791Y1252362D02*
X1752657D01*
X1756791Y1249213D02*
X1752657D01*
X1712697D02*
X1708563D01*
X1712697Y1252362D02*
X1708563D01*
X1712697Y1255512D02*
X1708563D01*
X1712697Y1258661D02*
X1708563D01*
X1712697Y1261811D02*
X1708563D01*
X1712697Y1264961D02*
X1708563D01*
X1712697Y1268110D02*
X1708563D01*
X1712697Y1271260D02*
X1708563D01*
X1712697Y1274409D02*
X1708563D01*
X1712697Y1277559D02*
X1708563D01*
X1712697Y1280709D02*
X1708563D01*
X1712697Y1283858D02*
X1708563D01*
X1712697Y1287008D02*
X1708563D01*
X1712697Y1290157D02*
X1708563D01*
X1712697Y1293307D02*
X1708563D01*
X1712697Y1296457D02*
X1708563D01*
X1712697Y1299606D02*
X1708563D01*
X1712697Y1302756D02*
X1708563D01*
X1712697Y1305906D02*
X1708563D01*
X1712697Y1309055D02*
X1708563D01*
X1712697Y1312205D02*
X1708563D01*
X1712697Y1315354D02*
X1708563D01*
X1520472Y884646D02*
G03X1528346Y876772I7874J-0D01*
G01X1890551*
G03X1898425Y884646I0J7874*
G01Y955512*
G03X1890551Y963386I-7874J-0*
G01X1528346*
G03X1520472Y955512I0J-7874*
G01Y884646*
G54D13*
X1751503Y900394D02*
X1751324Y900886D01*
X1750966Y901378*
X1750608Y901624*
X1749893*
X1749535Y901378*
X1749177Y900886*
X1748998Y900394*
X1748819Y899656*
Y898425*
X1748998Y897687*
X1749177Y897195*
X1749535Y896703*
X1749893Y896457*
X1750608*
X1750966Y896703*
X1751324Y897195*
X1751503Y897687*
Y898425*
X1750608D02*
X1751503D01*
X1753114Y901624D02*
Y896457D01*
Y901624D02*
X1755440D01*
X1753114Y899163D02*
X1754545D01*
X1753114Y896457D02*
X1755440D01*
X1757051Y901624D02*
Y896457D01*
Y901624D02*
X1758661D01*
X1759198Y901378*
X1759377Y901132*
X1759556Y900640*
Y900148*
X1759377Y899656*
X1759198Y899409*
X1758661Y899163*
X1757051*
X1758304D02*
X1759556Y896457D01*
X1761167Y901624D02*
Y896457D01*
Y901624D02*
X1762777D01*
X1763314Y901378*
X1763493Y901132*
X1763672Y900640*
Y900148*
X1763493Y899656*
X1763314Y899409*
X1762777Y899163*
X1761167D02*
X1762777D01*
X1763314Y898917*
X1763493Y898671*
X1763672Y898179*
Y897441*
X1763493Y896949*
X1763314Y896703*
X1762777Y896457*
X1761167*
X1765283Y901624D02*
Y896457D01*
Y901624D02*
X1767609D01*
X1765283Y899163D02*
X1766714D01*
X1765283Y896457D02*
X1767609D01*
X1769220Y901624D02*
Y896457D01*
Y901624D02*
X1770830D01*
X1771367Y901378*
X1771546Y901132*
X1771725Y900640*
Y900148*
X1771546Y899656*
X1771367Y899409*
X1770830Y899163*
X1769220*
X1770472D02*
X1771725Y896457D01*
X1773515Y899902D02*
X1773336Y899656D01*
X1773515Y899409*
X1773694Y899656*
X1773515Y899902*
Y896949D02*
X1773336Y896703D01*
X1773515Y896457*
X1773694Y896703*
X1773515Y896949*
X1748819Y929183D02*
Y924016D01*
Y929183D02*
X1750072D01*
X1750608Y928937*
X1750966Y928445*
X1751145Y927953*
X1751324Y927215*
Y925984*
X1751145Y925246*
X1750966Y924754*
X1750608Y924262*
X1750072Y924016*
X1748819*
X1754366Y929183D02*
X1752935Y924016D01*
X1754366Y929183D02*
X1755798Y924016D01*
X1753472Y925738D02*
X1755261D01*
X1758661Y929183D02*
Y924016D01*
X1757409Y929183D02*
X1759914D01*
X1761525D02*
Y924016D01*
Y929183D02*
X1763851D01*
X1761525Y926722D02*
X1762956D01*
X1761525Y924016D02*
X1763851D01*
X1765641Y927461D02*
X1765462Y927215D01*
X1765641Y926969*
X1765820Y927215*
X1765641Y927461*
Y924508D02*
X1765462Y924262D01*
X1765641Y924016*
X1765820Y924262*
X1765641Y924508*
X1701575Y929183D02*
Y924016D01*
Y929183D02*
X1703185D01*
X1703722Y928937*
X1703901Y928691*
X1704080Y928199*
Y927707*
X1703901Y927215*
X1703722Y926969*
X1703185Y926722*
X1701575*
X1702827D02*
X1704080Y924016D01*
X1705691Y929183D02*
Y924016D01*
Y929183D02*
X1708017D01*
X1705691Y926722D02*
X1707122D01*
X1705691Y924016D02*
X1708017D01*
X1709628Y929183D02*
X1711059Y924016D01*
X1712491Y929183D02*
X1711059Y924016D01*
X1714281Y927461D02*
X1714102Y927215D01*
X1714281Y926969*
X1714460Y927215*
X1714281Y927461*
Y924508D02*
X1714102Y924262D01*
X1714281Y924016*
X1714460Y924262*
X1714281Y924508*
X1528346Y929183D02*
Y924016D01*
Y929183D02*
X1529957D01*
X1530494Y928937*
X1530673Y928691*
X1530852Y928199*
Y927461*
X1530673Y926969*
X1530494Y926722*
X1529957Y926476*
X1528346*
X1533894Y929183D02*
X1532462Y924016D01*
X1533894Y929183D02*
X1535326Y924016D01*
X1532999Y925738D02*
X1534789D01*
X1536936Y929183D02*
Y924016D01*
Y929183D02*
X1538547D01*
X1539084Y928937*
X1539263Y928691*
X1539442Y928199*
Y927707*
X1539263Y927215*
X1539084Y926969*
X1538547Y926722*
X1536936*
X1538189D02*
X1539442Y924016D01*
X1542305Y929183D02*
Y924016D01*
X1541052Y929183D02*
X1543558D01*
X1549284D02*
Y924016D01*
Y929183D02*
X1551790Y924016D01*
Y929183D02*
Y924016D01*
X1554474Y929183D02*
X1554116Y928937D01*
X1553758Y928445*
X1553579Y927953*
X1553400Y927215*
Y925984*
X1553579Y925246*
X1553758Y924754*
X1554116Y924262*
X1554474Y924016*
X1555190*
X1555548Y924262*
X1555906Y924754*
X1556084Y925246*
X1556263Y925984*
Y927215*
X1556084Y927953*
X1555906Y928445*
X1555548Y928937*
X1555190Y929183*
X1554474*
X1558053Y924508D02*
X1557874Y924262D01*
X1558053Y924016*
X1558232Y924262*
X1558053Y924508*
X1560021Y927461D02*
X1559843Y927215D01*
X1560021Y926969*
X1560200Y927215*
X1560021Y927461*
Y924508D02*
X1559843Y924262D01*
X1560021Y924016*
X1560200Y924262*
X1560021Y924508*
X1493307Y875591D02*
G03X1493307I-3937J0D01*
G01X1497244D02*
G03X1497244I-7874J0D01*
G01X1493307Y1324409D02*
G03X1493307I-3937J0D01*
G01X1497244D02*
G03X1497244I-7874J0D01*
G01X1914567Y875591D02*
G03X1914567I-3937J0D01*
G01X1918504D02*
G03X1918504I-7874J0D01*
G54D14*
G01X1477559D02*
X1501181D01*
X1489370Y863780D02*
Y887402D01*
X1477559Y1324409D02*
X1501181D01*
X1489370Y1312598D02*
Y1336220D01*
X1898819Y875591D02*
X1922441D01*
X1910630Y863780D02*
Y887402D01*
X1481102Y876772D02*
X1481142D01*
X1481102D02*
X1481299D01*
G54D16*
X1662008Y1166437D02*
Y1164665D01*
X1665945Y1166437D02*
Y1164665D01*
X1663976Y1160138D02*
Y1158366D01*
G54D17*
X1882697Y1213386D02*
Y1219685D01*
X1877697Y1213386D02*
Y1219685D01*
X1872697Y1213386D02*
Y1219685D01*
X1867697Y1213386D02*
Y1219685D01*
Y1232283D02*
Y1238583D01*
X1872697Y1232283D02*
Y1238583D01*
X1877697Y1232283D02*
Y1238583D01*
X1882697Y1232283D02*
Y1238583D01*
X1626772Y1119094D02*
X1629134D01*
X1626772Y1122835D02*
X1629134D01*
X1626772Y1126575D02*
X1629134D01*
X1636220D02*
X1638583D01*
X1636220Y1122835D02*
X1638583D01*
X1636220Y1119094D02*
X1638583D01*
X1589236Y1109194D02*
Y1115494D01*
X1584236Y1109194D02*
Y1115494D01*
X1579236Y1109194D02*
Y1115494D01*
X1574236Y1109194D02*
Y1115494D01*
Y1128092D02*
Y1134391D01*
X1579236Y1128092D02*
Y1134391D01*
X1584236Y1128092D02*
Y1134391D01*
X1589236Y1128092D02*
Y1134391D01*
G54D18*
X1600984Y1236220D02*
X1599016D01*
X1600984Y1224803D02*
X1599016D01*
X1817913Y1139961D02*
X1815945D01*
X1817913Y1128543D02*
X1815945D01*
X1885236Y1139961D02*
X1883268D01*
X1885236Y1128543D02*
X1883268D01*
X1662795Y1081299D02*
Y1079331D01*
X1674213Y1081299D02*
Y1079331D01*
X1734055Y1081102D02*
X1736024D01*
X1734055Y1092520D02*
X1736024D01*
X1702245Y1131209D02*
Y1133177D01*
X1690828Y1131209D02*
Y1133177D01*
X1687992Y1169094D02*
X1686024D01*
X1687992Y1157677D02*
X1686024D01*
X1636220Y1145472D02*
X1634252D01*
X1636220Y1134055D02*
X1634252D01*
X1641142Y1081299D02*
Y1079331D01*
X1652559Y1081299D02*
Y1079331D01*
X1651378Y1210039D02*
X1653346D01*
X1651378Y1221457D02*
X1653346D01*
X1784449Y1311614D02*
Y1313583D01*
X1773031Y1311614D02*
Y1313583D01*
X1610220Y1164902D02*
X1608252D01*
X1610220Y1153484D02*
X1608252D01*
X1672244Y1200591D02*
X1674213D01*
X1672244Y1212008D02*
X1674213D01*
X1797441Y1126969D02*
X1799409D01*
X1797441Y1138386D02*
X1799409D01*
G54D19*
X1597244Y1256693D02*
Y1257874D01*
Y1280709D02*
Y1281890D01*
X1657874Y1174803D02*
Y1175984D01*
Y1198819D02*
Y1200000D01*
X1857480Y1192126D02*
X1858661D01*
X1881496D02*
X1882677D01*
X1843701D02*
X1842520D01*
X1819685D02*
X1818504D01*
G54D20*
X1825197Y1259449D03*
X1831496D03*
X1847638D03*
X1841339D03*
X1619291Y1217717D03*
X1625591D03*
X1601087Y1210693D03*
X1607386D03*
X1601087Y1203693D03*
X1607386D03*
X1607087Y1189280D03*
X1613386D03*
X1607087Y1182193D03*
X1613386D03*
X1777165Y1229724D03*
X1783465D03*
X1774016Y1158661D03*
Y1152362D03*
X1762205Y1158661D03*
Y1152362D03*
X1742323Y1209252D03*
Y1215551D03*
X1720866Y1081102D03*
Y1087402D03*
X1708268Y1081102D03*
Y1087402D03*
X1714567Y1081102D03*
Y1087402D03*
X1695669Y1081102D03*
Y1087402D03*
X1689370Y1081102D03*
Y1087402D03*
X1727165Y1081102D03*
Y1087402D03*
X1572047Y1096124D03*
Y1102424D03*
X1578346Y1096124D03*
Y1102424D03*
X1584646Y1096124D03*
Y1102424D03*
X1590945Y1096124D03*
Y1102424D03*
X1878937Y1206693D03*
X1872638D03*
X1806693Y1132677D03*
Y1126378D03*
X1705906Y1157283D03*
X1712205D03*
X1637008Y1218504D03*
X1643307D03*
X1847244Y1162598D03*
Y1156299D03*
X1705906Y1184843D03*
X1712205D03*
X1637008Y1212205D03*
X1643307D03*
X1711417Y1209843D03*
Y1216142D03*
X1704921Y1209843D03*
Y1216142D03*
X1643307Y1202756D03*
X1637008D03*
X1821260Y1155906D03*
X1814961D03*
X1681299Y1213386D03*
Y1219685D03*
X1651575Y1150787D03*
Y1144488D03*
X1660630Y1224803D03*
Y1231102D03*
X1679134Y1150787D03*
Y1144488D03*
X1857480Y1156299D03*
Y1162598D03*
X1694882Y1150787D03*
Y1144488D03*
X1712205Y1196457D03*
X1705906D03*
X1605118Y1307480D03*
Y1301181D03*
X1753543Y1116535D03*
X1759843D03*
X1619291Y1143701D03*
Y1137402D03*
X1679528Y1108661D03*
X1673228D03*
X1631693Y1154724D03*
Y1161024D03*
X1690945Y1175984D03*
X1684646D03*
X1711417Y1118504D03*
X1705118D03*
X1730118Y1125984D03*
X1723819D03*
X1621260Y1105118D03*
Y1111417D03*
X1650000Y1159252D03*
Y1165551D03*
X1635039Y1294488D03*
Y1288189D03*
Y1270079D03*
Y1276378D03*
X1698819Y1294488D03*
Y1288189D03*
Y1270079D03*
Y1276378D03*
X1766535Y1294488D03*
Y1288189D03*
Y1270079D03*
Y1276378D03*
X1783858Y1132677D03*
Y1126378D03*
X1766929Y1129921D03*
X1773228D03*
Y1114135D03*
X1766929D03*
X1832283Y1237008D03*
Y1243307D03*
X1737065Y1120268D03*
X1743365D03*
X1743186Y1115093D03*
X1736887D03*
X1785736Y1120343D03*
Y1114043D03*
X1753487Y1073493D03*
X1759786D03*
X1750986Y1061693D03*
X1744687D03*
G54D30*
X1838805Y1146874D02*
X1844512Y1141167D01*
X1849384Y1146039*
X1843677Y1151746*
X1838805Y1146874*
X1844341Y1141339D02*
X1844683D01*
X1844144Y1141535D02*
X1844880D01*
X1843947Y1141732D02*
X1845077D01*
X1843750Y1141929D02*
X1845274D01*
X1843553Y1142126D02*
X1845471D01*
X1843357Y1142323D02*
X1845668D01*
X1843160Y1142520D02*
X1845864D01*
X1842963Y1142717D02*
X1846061D01*
X1842766Y1142913D02*
X1846258D01*
X1842569Y1143110D02*
X1846455D01*
X1842372Y1143307D02*
X1846652D01*
X1842175Y1143504D02*
X1846849D01*
X1841979Y1143701D02*
X1847046D01*
X1841782Y1143898D02*
X1847242D01*
X1841585Y1144094D02*
X1847439D01*
X1841388Y1144291D02*
X1847636D01*
X1841191Y1144488D02*
X1847833D01*
X1840994Y1144685D02*
X1848030D01*
X1840797Y1144882D02*
X1848227D01*
X1840601Y1145079D02*
X1848423D01*
X1840404Y1145276D02*
X1848620D01*
X1840207Y1145472D02*
X1848817D01*
X1840010Y1145669D02*
X1849014D01*
X1839813Y1145866D02*
X1849211D01*
X1839616Y1146063D02*
X1849360D01*
X1839420Y1146260D02*
X1849163D01*
X1839223Y1146457D02*
X1848966D01*
X1839026Y1146654D02*
X1848769D01*
X1838829Y1146850D02*
X1848573D01*
X1838978Y1147047D02*
X1848376D01*
X1839175Y1147244D02*
X1848179D01*
X1839372Y1147441D02*
X1847982D01*
X1839569Y1147638D02*
X1847785D01*
X1839765Y1147835D02*
X1847588D01*
X1839962Y1148031D02*
X1847391D01*
X1840159Y1148228D02*
X1847195D01*
X1840356Y1148425D02*
X1846998D01*
X1840553Y1148622D02*
X1846801D01*
X1840750Y1148819D02*
X1846604D01*
X1840947Y1149016D02*
X1846407D01*
X1841143Y1149213D02*
X1846210D01*
X1841340Y1149409D02*
X1846014D01*
X1841537Y1149606D02*
X1845817D01*
X1841734Y1149803D02*
X1845620D01*
X1841931Y1150000D02*
X1845423D01*
X1842128Y1150197D02*
X1845226D01*
X1842325Y1150394D02*
X1845029D01*
X1842521Y1150591D02*
X1844832D01*
X1842718Y1150787D02*
X1844636D01*
X1842915Y1150984D02*
X1844439D01*
X1843112Y1151181D02*
X1844242D01*
X1843309Y1151378D02*
X1844045D01*
X1843506Y1151575D02*
X1843848D01*
X1838976Y1146703D02*
Y1147046D01*
X1839173Y1146506D02*
Y1147242D01*
X1839370Y1146309D02*
Y1147439D01*
X1839567Y1146112D02*
Y1147636D01*
X1839764Y1145916D02*
Y1147833D01*
X1839961Y1145719D02*
Y1148030D01*
X1840157Y1145522D02*
Y1148227D01*
X1840354Y1145325D02*
Y1148424D01*
X1840551Y1145128D02*
Y1148620D01*
X1840748Y1144931D02*
Y1148817D01*
X1840945Y1144735D02*
Y1149014D01*
X1841142Y1144538D02*
Y1149211D01*
X1841339Y1144341D02*
Y1149408D01*
X1841535Y1144144D02*
Y1149605D01*
X1841732Y1143947D02*
Y1149801D01*
X1841929Y1143750D02*
Y1149998D01*
X1842126Y1143553D02*
Y1150195D01*
X1842323Y1143357D02*
Y1150392D01*
X1842520Y1143160D02*
Y1150589D01*
X1842717Y1142963D02*
Y1150786D01*
X1842913Y1142766D02*
Y1150983D01*
X1843110Y1142569D02*
Y1151179D01*
X1843307Y1142372D02*
Y1151376D01*
X1843504Y1142175D02*
Y1151573D01*
X1843701Y1141979D02*
Y1151722D01*
X1843898Y1141782D02*
Y1151525D01*
X1844094Y1141585D02*
Y1151328D01*
X1844291Y1141388D02*
Y1151132D01*
X1844488Y1141191D02*
Y1150935D01*
X1844685Y1141340D02*
Y1150738D01*
X1844882Y1141537D02*
Y1150541D01*
X1845079Y1141734D02*
Y1150344D01*
X1845276Y1141931D02*
Y1150147D01*
X1845472Y1142128D02*
Y1149951D01*
X1845669Y1142325D02*
Y1149754D01*
X1845866Y1142521D02*
Y1149557D01*
X1846063Y1142718D02*
Y1149360D01*
X1846260Y1142915D02*
Y1149163D01*
X1846457Y1143112D02*
Y1148966D01*
X1846654Y1143309D02*
Y1148769D01*
X1846850Y1143506D02*
Y1148573D01*
X1847047Y1143702D02*
Y1148376D01*
X1847244Y1143899D02*
Y1148179D01*
X1847441Y1144096D02*
Y1147982D01*
X1847638Y1144293D02*
Y1147785D01*
X1847835Y1144490D02*
Y1147588D01*
X1848031Y1144687D02*
Y1147391D01*
X1848228Y1144884D02*
Y1147195D01*
X1848425Y1145080D02*
Y1146998D01*
X1848622Y1145277D02*
Y1146801D01*
X1848819Y1145474D02*
Y1146604D01*
X1849016Y1145671D02*
Y1146407D01*
X1849213Y1145868D02*
Y1146210D01*
X1823057Y1131126D02*
X1828764Y1125419D01*
X1833636Y1130291*
X1827929Y1135998*
X1823057Y1131126*
X1828593Y1125591D02*
X1828935D01*
X1828396Y1125787D02*
X1829132D01*
X1828199Y1125984D02*
X1829329D01*
X1828002Y1126181D02*
X1829526D01*
X1827805Y1126378D02*
X1829723D01*
X1827609Y1126575D02*
X1829920D01*
X1827412Y1126772D02*
X1830116D01*
X1827215Y1126969D02*
X1830313D01*
X1827018Y1127165D02*
X1830510D01*
X1826821Y1127362D02*
X1830707D01*
X1826624Y1127559D02*
X1830904D01*
X1826427Y1127756D02*
X1831101D01*
X1826231Y1127953D02*
X1831298D01*
X1826034Y1128150D02*
X1831494D01*
X1825837Y1128346D02*
X1831691D01*
X1825640Y1128543D02*
X1831888D01*
X1825443Y1128740D02*
X1832085D01*
X1825246Y1128937D02*
X1832282D01*
X1825049Y1129134D02*
X1832479D01*
X1824853Y1129331D02*
X1832675D01*
X1824656Y1129528D02*
X1832872D01*
X1824459Y1129724D02*
X1833069D01*
X1824262Y1129921D02*
X1833266D01*
X1824065Y1130118D02*
X1833463D01*
X1823868Y1130315D02*
X1833612D01*
X1823672Y1130512D02*
X1833415D01*
X1823475Y1130709D02*
X1833218D01*
X1823278Y1130906D02*
X1833021D01*
X1823081Y1131102D02*
X1832825D01*
X1823230Y1131299D02*
X1832628D01*
X1823427Y1131496D02*
X1832431D01*
X1823624Y1131693D02*
X1832234D01*
X1823821Y1131890D02*
X1832037D01*
X1824017Y1132087D02*
X1831840D01*
X1824214Y1132283D02*
X1831643D01*
X1824411Y1132480D02*
X1831447D01*
X1824608Y1132677D02*
X1831250D01*
X1824805Y1132874D02*
X1831053D01*
X1825002Y1133071D02*
X1830856D01*
X1825199Y1133268D02*
X1830659D01*
X1825395Y1133465D02*
X1830462D01*
X1825592Y1133661D02*
X1830265D01*
X1825789Y1133858D02*
X1830069D01*
X1825986Y1134055D02*
X1829872D01*
X1826183Y1134252D02*
X1829675D01*
X1826380Y1134449D02*
X1829478D01*
X1826577Y1134646D02*
X1829281D01*
X1826773Y1134843D02*
X1829084D01*
X1826970Y1135039D02*
X1828888D01*
X1827167Y1135236D02*
X1828691D01*
X1827364Y1135433D02*
X1828494D01*
X1827561Y1135630D02*
X1828297D01*
X1827758Y1135827D02*
X1828100D01*
X1823228Y1130955D02*
Y1131298D01*
X1823425Y1130758D02*
Y1131494D01*
X1823622Y1130561D02*
Y1131691D01*
X1823819Y1130364D02*
Y1131888D01*
X1824016Y1130168D02*
Y1132085D01*
X1824213Y1129971D02*
Y1132282D01*
X1824409Y1129774D02*
Y1132479D01*
X1824606Y1129577D02*
Y1132675D01*
X1824803Y1129380D02*
Y1132872D01*
X1825000Y1129183D02*
Y1133069D01*
X1825197Y1128986D02*
Y1133266D01*
X1825394Y1128790D02*
Y1133463D01*
X1825591Y1128593D02*
Y1133660D01*
X1825787Y1128396D02*
Y1133857D01*
X1825984Y1128199D02*
Y1134053D01*
X1826181Y1128002D02*
Y1134250D01*
X1826378Y1127805D02*
Y1134447D01*
X1826575Y1127609D02*
Y1134644D01*
X1826772Y1127412D02*
Y1134841D01*
X1826969Y1127215D02*
Y1135038D01*
X1827165Y1127018D02*
Y1135235D01*
X1827362Y1126821D02*
Y1135431D01*
X1827559Y1126624D02*
Y1135628D01*
X1827756Y1126427D02*
Y1135825D01*
X1827953Y1126231D02*
Y1135974D01*
X1828150Y1126034D02*
Y1135777D01*
X1828346Y1125837D02*
Y1135580D01*
X1828543Y1125640D02*
Y1135384D01*
X1828740Y1125443D02*
Y1135187D01*
X1828937Y1125592D02*
Y1134990D01*
X1829134Y1125789D02*
Y1134793D01*
X1829331Y1125986D02*
Y1134596D01*
X1829528Y1126183D02*
Y1134399D01*
X1829724Y1126380D02*
Y1134203D01*
X1829921Y1126577D02*
Y1134006D01*
X1830118Y1126773D02*
Y1133809D01*
X1830315Y1126970D02*
Y1133612D01*
X1830512Y1127167D02*
Y1133415D01*
X1830709Y1127364D02*
Y1133218D01*
X1830906Y1127561D02*
Y1133021D01*
X1831102Y1127758D02*
Y1132825D01*
X1831299Y1127954D02*
Y1132628D01*
X1831496Y1128151D02*
Y1132431D01*
X1831693Y1128348D02*
Y1132234D01*
X1831890Y1128545D02*
Y1132037D01*
X1832087Y1128742D02*
Y1131840D01*
X1832283Y1128939D02*
Y1131643D01*
X1832480Y1129136D02*
Y1131447D01*
X1832677Y1129332D02*
Y1131250D01*
X1832874Y1129529D02*
Y1131053D01*
X1833071Y1129726D02*
Y1130856D01*
X1833268Y1129923D02*
Y1130659D01*
X1833465Y1130120D02*
Y1130462D01*
X1856669Y1141167D02*
X1862376Y1146874D01*
X1857504Y1151746*
X1851797Y1146039*
X1856669Y1141167*
X1856498Y1141339D02*
X1856840D01*
X1856301Y1141535D02*
X1857037D01*
X1856104Y1141732D02*
X1857234D01*
X1855907Y1141929D02*
X1857431D01*
X1855710Y1142126D02*
X1857628D01*
X1855514Y1142323D02*
X1857825D01*
X1855317Y1142520D02*
X1858021D01*
X1855120Y1142717D02*
X1858218D01*
X1854923Y1142913D02*
X1858415D01*
X1854726Y1143110D02*
X1858612D01*
X1854529Y1143307D02*
X1858809D01*
X1854332Y1143504D02*
X1859006D01*
X1854136Y1143701D02*
X1859203D01*
X1853939Y1143898D02*
X1859399D01*
X1853742Y1144094D02*
X1859596D01*
X1853545Y1144291D02*
X1859793D01*
X1853348Y1144488D02*
X1859990D01*
X1853151Y1144685D02*
X1860187D01*
X1852954Y1144882D02*
X1860384D01*
X1852758Y1145079D02*
X1860580D01*
X1852561Y1145276D02*
X1860777D01*
X1852364Y1145472D02*
X1860974D01*
X1852167Y1145669D02*
X1861171D01*
X1851970Y1145866D02*
X1861368D01*
X1851821Y1146063D02*
X1861565D01*
X1852018Y1146260D02*
X1861762D01*
X1852215Y1146457D02*
X1861958D01*
X1852412Y1146654D02*
X1862155D01*
X1852609Y1146850D02*
X1862352D01*
X1852805Y1147047D02*
X1862203D01*
X1853002Y1147244D02*
X1862006D01*
X1853199Y1147441D02*
X1861809D01*
X1853396Y1147638D02*
X1861612D01*
X1853593Y1147835D02*
X1861416D01*
X1853790Y1148031D02*
X1861219D01*
X1853986Y1148228D02*
X1861022D01*
X1854183Y1148425D02*
X1860825D01*
X1854380Y1148622D02*
X1860628D01*
X1854577Y1148819D02*
X1860431D01*
X1854774Y1149016D02*
X1860235D01*
X1854971Y1149213D02*
X1860038D01*
X1855168Y1149409D02*
X1859841D01*
X1855364Y1149606D02*
X1859644D01*
X1855561Y1149803D02*
X1859447D01*
X1855758Y1150000D02*
X1859250D01*
X1855955Y1150197D02*
X1859053D01*
X1856152Y1150394D02*
X1858857D01*
X1856349Y1150591D02*
X1858660D01*
X1856546Y1150787D02*
X1858463D01*
X1856742Y1150984D02*
X1858266D01*
X1856939Y1151181D02*
X1858069D01*
X1857136Y1151378D02*
X1857872D01*
X1857333Y1151575D02*
X1857675D01*
X1851969Y1145868D02*
Y1146210D01*
X1852165Y1145671D02*
Y1146407D01*
X1852362Y1145474D02*
Y1146604D01*
X1852559Y1145277D02*
Y1146801D01*
X1852756Y1145080D02*
Y1146998D01*
X1852953Y1144884D02*
Y1147195D01*
X1853150Y1144687D02*
Y1147391D01*
X1853346Y1144490D02*
Y1147588D01*
X1853543Y1144293D02*
Y1147785D01*
X1853740Y1144096D02*
Y1147982D01*
X1853937Y1143899D02*
Y1148179D01*
X1854134Y1143702D02*
Y1148376D01*
X1854331Y1143506D02*
Y1148573D01*
X1854528Y1143309D02*
Y1148769D01*
X1854724Y1143112D02*
Y1148966D01*
X1854921Y1142915D02*
Y1149163D01*
X1855118Y1142718D02*
Y1149360D01*
X1855315Y1142521D02*
Y1149557D01*
X1855512Y1142325D02*
Y1149754D01*
X1855709Y1142128D02*
Y1149951D01*
X1855906Y1141931D02*
Y1150147D01*
X1856102Y1141734D02*
Y1150344D01*
X1856299Y1141537D02*
Y1150541D01*
X1856496Y1141340D02*
Y1150738D01*
X1856693Y1141191D02*
Y1150935D01*
X1856890Y1141388D02*
Y1151132D01*
X1857087Y1141585D02*
Y1151328D01*
X1857283Y1141782D02*
Y1151525D01*
X1857480Y1141979D02*
Y1151722D01*
X1857677Y1142175D02*
Y1151573D01*
X1857874Y1142372D02*
Y1151376D01*
X1858071Y1142569D02*
Y1151179D01*
X1858268Y1142766D02*
Y1150983D01*
X1858465Y1142963D02*
Y1150786D01*
X1858661Y1143160D02*
Y1150589D01*
X1858858Y1143357D02*
Y1150392D01*
X1859055Y1143553D02*
Y1150195D01*
X1859252Y1143750D02*
Y1149998D01*
X1859449Y1143947D02*
Y1149801D01*
X1859646Y1144144D02*
Y1149605D01*
X1859843Y1144341D02*
Y1149408D01*
X1860039Y1144538D02*
Y1149211D01*
X1860236Y1144735D02*
Y1149014D01*
X1860433Y1144931D02*
Y1148817D01*
X1860630Y1145128D02*
Y1148620D01*
X1860827Y1145325D02*
Y1148423D01*
X1861024Y1145522D02*
Y1148227D01*
X1861220Y1145719D02*
Y1148030D01*
X1861417Y1145916D02*
Y1147833D01*
X1861614Y1146112D02*
Y1147636D01*
X1861811Y1146309D02*
Y1147439D01*
X1862008Y1146506D02*
Y1147242D01*
X1862205Y1146703D02*
Y1147046D01*
X1872417Y1125419D02*
X1878124Y1131126D01*
X1873252Y1135998*
X1867545Y1130291*
X1872417Y1125419*
X1872246Y1125591D02*
X1872588D01*
X1872049Y1125787D02*
X1872785D01*
X1871852Y1125984D02*
X1872982D01*
X1871655Y1126181D02*
X1873179D01*
X1871458Y1126378D02*
X1873376D01*
X1871262Y1126575D02*
X1873573D01*
X1871065Y1126772D02*
X1873769D01*
X1870868Y1126969D02*
X1873966D01*
X1870671Y1127165D02*
X1874163D01*
X1870474Y1127362D02*
X1874360D01*
X1870277Y1127559D02*
X1874557D01*
X1870080Y1127756D02*
X1874754D01*
X1869884Y1127953D02*
X1874951D01*
X1869687Y1128150D02*
X1875147D01*
X1869490Y1128346D02*
X1875344D01*
X1869293Y1128543D02*
X1875541D01*
X1869096Y1128740D02*
X1875738D01*
X1868899Y1128937D02*
X1875935D01*
X1868702Y1129134D02*
X1876132D01*
X1868506Y1129331D02*
X1876328D01*
X1868309Y1129528D02*
X1876525D01*
X1868112Y1129724D02*
X1876722D01*
X1867915Y1129921D02*
X1876919D01*
X1867718Y1130118D02*
X1877116D01*
X1867569Y1130315D02*
X1877313D01*
X1867766Y1130512D02*
X1877510D01*
X1867963Y1130709D02*
X1877706D01*
X1868160Y1130906D02*
X1877903D01*
X1868357Y1131102D02*
X1878100D01*
X1868553Y1131299D02*
X1877951D01*
X1868750Y1131496D02*
X1877754D01*
X1868947Y1131693D02*
X1877557D01*
X1869144Y1131890D02*
X1877361D01*
X1869341Y1132087D02*
X1877164D01*
X1869538Y1132283D02*
X1876967D01*
X1869735Y1132480D02*
X1876770D01*
X1869931Y1132677D02*
X1876573D01*
X1870128Y1132874D02*
X1876376D01*
X1870325Y1133071D02*
X1876179D01*
X1870522Y1133268D02*
X1875983D01*
X1870719Y1133465D02*
X1875786D01*
X1870916Y1133661D02*
X1875589D01*
X1871112Y1133858D02*
X1875392D01*
X1871309Y1134055D02*
X1875195D01*
X1871506Y1134252D02*
X1874998D01*
X1871703Y1134449D02*
X1874801D01*
X1871900Y1134646D02*
X1874605D01*
X1872097Y1134843D02*
X1874408D01*
X1872294Y1135039D02*
X1874211D01*
X1872490Y1135236D02*
X1874014D01*
X1872687Y1135433D02*
X1873817D01*
X1872884Y1135630D02*
X1873620D01*
X1873081Y1135827D02*
X1873423D01*
X1867717Y1130120D02*
Y1130462D01*
X1867913Y1129923D02*
Y1130659D01*
X1868110Y1129726D02*
Y1130856D01*
X1868307Y1129529D02*
Y1131053D01*
X1868504Y1129332D02*
Y1131250D01*
X1868701Y1129136D02*
Y1131447D01*
X1868898Y1128939D02*
Y1131643D01*
X1869094Y1128742D02*
Y1131840D01*
X1869291Y1128545D02*
Y1132037D01*
X1869488Y1128348D02*
Y1132234D01*
X1869685Y1128151D02*
Y1132431D01*
X1869882Y1127954D02*
Y1132628D01*
X1870079Y1127758D02*
Y1132825D01*
X1870276Y1127561D02*
Y1133021D01*
X1870472Y1127364D02*
Y1133218D01*
X1870669Y1127167D02*
Y1133415D01*
X1870866Y1126970D02*
Y1133612D01*
X1871063Y1126773D02*
Y1133809D01*
X1871260Y1126577D02*
Y1134006D01*
X1871457Y1126380D02*
Y1134203D01*
X1871654Y1126183D02*
Y1134399D01*
X1871850Y1125986D02*
Y1134596D01*
X1872047Y1125789D02*
Y1134793D01*
X1872244Y1125592D02*
Y1134990D01*
X1872441Y1125443D02*
Y1135187D01*
X1872638Y1125640D02*
Y1135384D01*
X1872835Y1125837D02*
Y1135580D01*
X1873031Y1126034D02*
Y1135777D01*
X1873228Y1126231D02*
Y1135974D01*
X1873425Y1126427D02*
Y1135825D01*
X1873622Y1126624D02*
Y1135628D01*
X1873819Y1126821D02*
Y1135431D01*
X1874016Y1127018D02*
Y1135235D01*
X1874213Y1127215D02*
Y1135038D01*
X1874409Y1127412D02*
Y1134841D01*
X1874606Y1127609D02*
Y1134644D01*
X1874803Y1127805D02*
Y1134447D01*
X1875000Y1128002D02*
Y1134250D01*
X1875197Y1128199D02*
Y1134053D01*
X1875394Y1128396D02*
Y1133857D01*
X1875591Y1128593D02*
Y1133660D01*
X1875787Y1128790D02*
Y1133463D01*
X1875984Y1128986D02*
Y1133266D01*
X1876181Y1129183D02*
Y1133069D01*
X1876378Y1129380D02*
Y1132872D01*
X1876575Y1129577D02*
Y1132675D01*
X1876772Y1129774D02*
Y1132479D01*
X1876969Y1129971D02*
Y1132282D01*
X1877165Y1130168D02*
Y1132085D01*
X1877362Y1130364D02*
Y1131888D01*
X1877559Y1130561D02*
Y1131691D01*
X1877756Y1130758D02*
Y1131494D01*
X1877953Y1130955D02*
Y1131298D01*
G54D33*
X1568307Y1195472D02*
Y1195079D01*
X1575000Y1195472D02*
Y1195079D01*
X1568307Y1204528D02*
Y1204134D01*
X1575000Y1204528D02*
Y1204134D01*
X1751772Y1152165D02*
X1752165D01*
X1751772Y1158858D02*
X1752165D01*
X1745866Y1152165D02*
X1746260D01*
X1745866Y1158858D02*
X1746260D01*
X1798031Y1229921D02*
Y1229528D01*
X1804724Y1229921D02*
Y1229528D01*
X1757874Y1193307D02*
Y1192913D01*
X1764567Y1193307D02*
Y1192913D01*
X1747047Y1094685D02*
Y1094291D01*
X1753740Y1094685D02*
Y1094291D01*
X1682874Y1080906D02*
X1683268D01*
X1682874Y1087598D02*
X1683268D01*
X1702165D02*
X1701772D01*
X1702165Y1080906D02*
X1701772D01*
X1753740Y1100591D02*
Y1100984D01*
X1747047Y1100591D02*
Y1100984D01*
Y1107677D02*
Y1107283D01*
X1753740Y1107677D02*
Y1107283D01*
Y1081693D02*
Y1082087D01*
X1747047Y1081693D02*
Y1082087D01*
X1753740Y1087992D02*
Y1088386D01*
X1747047Y1087992D02*
Y1088386D01*
X1770472Y1080906D02*
Y1081299D01*
X1763780Y1080906D02*
Y1081299D01*
X1779539Y1113846D02*
X1779933D01*
X1779539Y1120539D02*
X1779933D01*
X1875984Y1244685D02*
Y1244291D01*
X1882677Y1244685D02*
Y1244291D01*
X1821457Y1174606D02*
Y1175000D01*
X1814764Y1174606D02*
Y1175000D01*
Y1168701D02*
Y1168307D01*
X1821457Y1168701D02*
Y1168307D01*
X1636811Y1196654D02*
Y1196260D01*
X1643504Y1196654D02*
Y1196260D01*
X1821457Y1162008D02*
Y1162402D01*
X1814764Y1162008D02*
Y1162402D01*
X1753346Y1130118D02*
Y1129724D01*
X1760039Y1130118D02*
Y1129724D01*
X1625394Y1137205D02*
X1625787D01*
X1625394Y1143898D02*
X1625787D01*
X1613189D02*
X1612795D01*
X1613189Y1137205D02*
X1612795D01*
X1679724Y1102165D02*
Y1102559D01*
X1673031Y1102165D02*
Y1102559D01*
X1679724Y1114764D02*
Y1115157D01*
X1673031Y1114764D02*
Y1115157D01*
X1704921Y1125000D02*
Y1124606D01*
X1711614Y1125000D02*
Y1124606D01*
Y1112008D02*
Y1112402D01*
X1704921Y1112008D02*
Y1112402D01*
X1656299Y1159055D02*
X1656693D01*
X1656299Y1165748D02*
X1656693D01*
X1678543Y1175787D02*
Y1176181D01*
X1671850Y1175787D02*
Y1176181D01*
X1656890Y1126575D02*
X1656496D01*
X1656890Y1119882D02*
X1656496D01*
X1650591Y1126575D02*
X1650197D01*
X1650591Y1119882D02*
X1650197D01*
X1643898D02*
X1644291D01*
X1643898Y1126575D02*
X1644291D01*
X1613933Y1210539D02*
X1613539D01*
X1613933Y1203846D02*
X1613539D01*
X1619933Y1189039D02*
X1619539D01*
X1619933Y1182346D02*
X1619539D01*
X1790748Y1132874D02*
X1790354D01*
X1790748Y1126181D02*
X1790354D01*
X1791929Y1118307D02*
Y1117913D01*
X1798622Y1118307D02*
Y1117913D01*
X1575000Y1176969D02*
Y1177362D01*
X1568307Y1176969D02*
Y1177362D01*
X1575000Y1186024D02*
Y1186417D01*
X1568307Y1186024D02*
Y1186417D01*
X1604483Y1139788D02*
X1604876D01*
X1604483Y1146481D02*
X1604876D01*
X1736690Y1137790D02*
Y1137396D01*
X1743383Y1137790D02*
Y1137396D01*
X1568307Y1213583D02*
Y1213189D01*
X1575000Y1213583D02*
Y1213189D01*
X1671850Y1182874D02*
Y1182480D01*
X1678543Y1182874D02*
Y1182480D01*
X1760039Y1123031D02*
Y1123425D01*
X1753346Y1123031D02*
Y1123425D01*
X1760590Y1138290D02*
Y1137896D01*
X1767283Y1138290D02*
Y1137896D01*
X1773425Y1120631D02*
Y1121025D01*
X1766732Y1120631D02*
Y1121025D01*
X1773939Y1067246D02*
X1774333D01*
X1773939Y1073939D02*
X1774333D01*
X1780639Y1070346D02*
X1781033D01*
X1780639Y1077039D02*
X1781033D01*
X1777290Y1108190D02*
Y1107796D01*
X1783983Y1108190D02*
Y1107796D01*
X1625539Y1182346D02*
X1625933D01*
X1625539Y1189039D02*
X1625933D01*
X1619539Y1203846D02*
X1619933D01*
X1619539Y1210539D02*
X1619933D01*
G54D54*
X1832874Y1169193D02*
Y1165846D01*
X1840354Y1169193D02*
Y1165846D01*
X1836614Y1160138D02*
Y1156791D01*
X1871457Y1157972D02*
Y1161319D01*
X1863976Y1157972D02*
Y1161319D01*
X1867717Y1167028D02*
Y1170374D01*
X1667815Y1121457D02*
X1671161D01*
X1667815Y1128937D02*
X1671161D01*
X1676870Y1125197D02*
X1680217D01*
X1719390Y1112205D02*
X1722736D01*
X1719390Y1119685D02*
X1722736D01*
X1728445Y1115945D02*
X1731791D01*
X1644193Y1104921D02*
X1647539D01*
X1644193Y1112402D02*
X1647539D01*
X1653248Y1108661D02*
X1656594D01*
X1617913Y1161713D02*
Y1158366D01*
X1625394Y1161713D02*
Y1158366D01*
X1621654Y1152657D02*
Y1149311D01*
X1671457Y1168799D02*
Y1165453D01*
X1678937Y1168799D02*
Y1165453D01*
X1675197Y1159744D02*
Y1156398D01*
X1626870Y1104921D02*
X1630217D01*
X1626870Y1112402D02*
X1630217D01*
X1635925Y1108661D02*
X1639272D01*
X1719390Y1132480D02*
X1722736D01*
X1719390Y1139961D02*
X1722736D01*
X1728445Y1136220D02*
X1731791D01*
X1886024Y1157972D02*
Y1161319D01*
X1878543Y1157972D02*
Y1161319D01*
X1882283Y1167028D02*
Y1170374D01*
X1614665Y1129528D02*
X1611319D01*
X1614665Y1122047D02*
X1611319D01*
X1605610Y1125787D02*
X1602264D01*
G54D55*
X1606693Y1113583D02*
Y1109252D01*
Y1097047D02*
Y1092717D01*
G54D56*
X1840551Y1233268D02*
Y1228150D01*
X1858661Y1233268D02*
Y1228150D01*
X1840551Y1246260D02*
Y1241142D01*
X1858661Y1246260D02*
Y1241142D01*
G54D63*
X1560236Y1072441D02*
X1736220D01*
Y1056693*
X1893701*
Y1322441*
X1560236*
Y1072441*
G54D72*
X1578203Y925049D02*
X1577130Y924557D01*
X1576414Y923081*
X1576056Y920620*
Y919144*
X1576414Y916683*
X1577130Y915207*
X1578203Y914715*
X1578919*
X1579993Y915207*
X1580709Y916683*
X1581067Y919144*
Y920620*
X1580709Y923081*
X1579993Y924557*
X1578919Y925049*
X1578203*
X1588941Y921604D02*
X1588583Y920128D01*
X1587867Y919144*
X1586793Y918652*
X1586435*
X1585361Y919144*
X1584646Y920128*
X1584288Y921604*
Y922096*
X1584646Y923573*
X1585361Y924557*
X1586435Y925049*
X1586793*
X1587867Y924557*
X1588583Y923573*
X1588941Y921604*
Y919144*
X1588583Y916683*
X1587867Y915207*
X1586793Y914715*
X1586077*
X1585004Y915207*
X1584646Y916191*
X1592162Y919144D02*
X1598604D01*
X1603973Y925049D02*
X1602899Y924557D01*
X1602183Y923081*
X1601825Y920620*
Y919144*
X1602183Y916683*
X1602899Y915207*
X1603973Y914715*
X1604689*
X1605762Y915207*
X1606478Y916683*
X1606836Y919144*
Y920620*
X1606478Y923081*
X1605762Y924557*
X1604689Y925049*
X1603973*
X1612205D02*
X1611131Y924557D01*
X1610415Y923081*
X1610057Y920620*
Y919144*
X1610415Y916683*
X1611131Y915207*
X1612205Y914715*
X1612920*
X1613994Y915207*
X1614710Y916683*
X1615068Y919144*
Y920620*
X1614710Y923081*
X1613994Y924557*
X1612920Y925049*
X1612205*
X1620437D02*
X1619363Y924557D01*
X1618647Y923081*
X1618289Y920620*
Y919144*
X1618647Y916683*
X1619363Y915207*
X1620437Y914715*
X1621152*
X1622226Y915207*
X1622942Y916683*
X1623300Y919144*
Y920620*
X1622942Y923081*
X1622226Y924557*
X1621152Y925049*
X1620437*
X1628668D02*
X1627595Y924557D01*
X1626879Y923081*
X1626521Y920620*
Y919144*
X1626879Y916683*
X1627595Y915207*
X1628668Y914715*
X1629384*
X1630458Y915207*
X1631174Y916683*
X1631532Y919144*
Y920620*
X1631174Y923081*
X1630458Y924557*
X1629384Y925049*
X1628668*
X1638332D02*
X1634753Y918159D01*
X1640122*
X1638332Y925049D02*
Y914715D01*
X1645490Y925049D02*
X1644416Y924557D01*
X1643701Y923081*
X1643343Y920620*
Y919144*
X1643701Y916683*
X1644416Y915207*
X1645490Y914715*
X1646206*
X1647280Y915207*
X1647996Y916683*
X1648353Y919144*
Y920620*
X1647996Y923081*
X1647280Y924557*
X1646206Y925049*
X1645490*
X1651575Y919144D02*
X1658017D01*
X1663386Y925049D02*
X1662312Y924557D01*
X1661596Y923081*
X1661238Y920620*
Y919144*
X1661596Y916683*
X1662312Y915207*
X1663386Y914715*
X1664101*
X1665175Y915207*
X1665891Y916683*
X1666249Y919144*
Y920620*
X1665891Y923081*
X1665175Y924557*
X1664101Y925049*
X1663386*
X1671618D02*
X1670544Y924557D01*
X1669828Y923081*
X1669470Y920620*
Y919144*
X1669828Y916683*
X1670544Y915207*
X1671618Y914715*
X1672333*
X1673407Y915207*
X1674123Y916683*
X1674481Y919144*
Y920620*
X1674123Y923081*
X1673407Y924557*
X1672333Y925049*
X1671618*
X1793951D02*
X1792878Y924557D01*
X1792162Y923081*
X1791804Y920620*
Y919144*
X1792162Y916683*
X1792878Y915207*
X1793951Y914715*
X1794667*
X1795741Y915207*
X1796457Y916683*
X1796815Y919144*
Y920620*
X1796457Y923081*
X1795741Y924557*
X1794667Y925049*
X1793951*
X1801825D02*
X1800752Y924557D01*
X1800394Y923573*
Y922589*
X1800752Y921604*
X1801467Y921112*
X1802899Y920620*
X1803973Y920128*
X1804689Y919144*
X1805046Y918159*
Y916683*
X1804689Y915699*
X1804331Y915207*
X1803257Y914715*
X1801825*
X1800752Y915207*
X1800394Y915699*
X1800036Y916683*
Y918159*
X1800394Y919144*
X1801109Y920128*
X1802183Y920620*
X1803615Y921112*
X1804331Y921604*
X1804689Y922589*
Y923573*
X1804331Y924557*
X1803257Y925049*
X1801825*
X1808268Y919144D02*
X1814710D01*
X1820794Y925049D02*
X1817931Y914715D01*
X1820794Y925049D02*
X1823658Y914715D01*
X1819005Y918159D02*
X1822584D01*
X1826879Y925049D02*
Y917667D01*
X1827237Y916191*
X1827953Y915207*
X1829026Y914715*
X1829742*
X1830816Y915207*
X1831532Y916191*
X1831890Y917667*
Y925049*
X1840479Y922589D02*
X1840122Y923573D01*
X1839406Y924557*
X1838690Y925049*
X1837258*
X1836542Y924557*
X1835827Y923573*
X1835469Y922589*
X1835111Y921112*
Y918652*
X1835469Y917175*
X1835827Y916191*
X1836542Y915207*
X1837258Y914715*
X1838690*
X1839406Y915207*
X1840122Y916191*
X1840479Y917175*
Y918652*
X1838690D02*
X1840479D01*
X1843701Y919144D02*
X1850143D01*
X1855512Y925049D02*
X1854438Y924557D01*
X1853722Y923081*
X1853364Y920620*
Y919144*
X1853722Y916683*
X1854438Y915207*
X1855512Y914715*
X1856227*
X1857301Y915207*
X1858017Y916683*
X1858375Y919144*
Y920620*
X1858017Y923081*
X1857301Y924557*
X1856227Y925049*
X1855512*
X1866607D02*
X1863028Y914715D01*
X1861596Y925049D02*
X1866607D01*
X1722727D02*
X1719864Y914715D01*
X1722727Y925049D02*
X1725590Y914715D01*
X1720938Y918159D02*
X1724517D01*
X1728812Y925049D02*
Y914715D01*
Y925049D02*
X1731317D01*
X1732391Y924557*
X1733107Y923573*
X1733464Y922589*
X1733822Y921112*
Y918652*
X1733464Y917175*
X1733107Y916191*
X1732391Y915207*
X1731317Y914715*
X1728812*
G74*
X0Y0D02*
M02*
