G04 CAM350 V9.5.2 (Build 226) Date:  Wed Nov 19 13:46:36 2008 *
G04 Database: (Untitled) *
G04 Layer 15: 09-000040-00ST_ *
%FSLAX35Y35*%
%MOIN*%
%SFA1.000B1.000*%

%MIA0B0*%
%IPPOS*%
%ADD10C,0.01575*%
%ADD11C,0.00984*%
%ADD12C,0.01969*%
%ADD13C,0.00787*%
%ADD14C,0.00394*%
%ADD16C,0.01181*%
%ADD17C,0.02362*%
%ADD72C,0.01575*%
%ADD42C,0.00500*%
%ADD57C,0.00800*%
%ADD58C,0.01500*%
%ADD59C,0.00200*%
%ADD60C,0.00600*%
%ADD63C,0.00400*%
%LN09-000040-00ST_*%
%LPD*%
G54D10*
X1207158Y841043D02*
G01X1206084Y840551D01*
X1205369Y839075*
X1205011Y836614*
Y835138*
X1205369Y832677*
X1206084Y831201*
X1207158Y830709*
X1207874*
X1208948Y831201*
X1209664Y832677*
X1210021Y835138*
Y836614*
X1209664Y839075*
X1208948Y840551*
X1207874Y841043*
X1207158*
X1217895Y837598D02*
G01X1217538Y836122D01*
X1216822Y835138*
X1215748Y834646*
X1215390*
X1214316Y835138*
X1213601Y836122*
X1213243Y837598*
Y838091*
X1213601Y839567*
X1214316Y840551*
X1215390Y841043*
X1215748*
X1216822Y840551*
X1217538Y839567*
X1217895Y837598*
Y835138*
X1217538Y832677*
X1216822Y831201*
X1215748Y830709*
X1215032*
X1213958Y831201*
X1213601Y832185*
X1221117Y835138D02*
G01X1227559D01*
X1232928Y841043D02*
G01X1231854Y840551D01*
X1231138Y839075*
X1230780Y836614*
Y835138*
X1231138Y832677*
X1231854Y831201*
X1232928Y830709*
X1233644*
X1234717Y831201*
X1235433Y832677*
X1235791Y835138*
Y836614*
X1235433Y839075*
X1234717Y840551*
X1233644Y841043*
X1232928*
X1241160D02*
G01X1240086Y840551D01*
X1239370Y839075*
X1239012Y836614*
Y835138*
X1239370Y832677*
X1240086Y831201*
X1241160Y830709*
X1241875*
X1242949Y831201*
X1243665Y832677*
X1244023Y835138*
Y836614*
X1243665Y839075*
X1242949Y840551*
X1241875Y841043*
X1241160*
X1249392D02*
G01X1248318Y840551D01*
X1247602Y839075*
X1247244Y836614*
Y835138*
X1247602Y832677*
X1248318Y831201*
X1249392Y830709*
X1250107*
X1251181Y831201*
X1251897Y832677*
X1252255Y835138*
Y836614*
X1251897Y839075*
X1251181Y840551*
X1250107Y841043*
X1249392*
X1257623D02*
G01X1256550Y840551D01*
X1255834Y839075*
X1255476Y836614*
Y835138*
X1255834Y832677*
X1256550Y831201*
X1257623Y830709*
X1258339*
X1259413Y831201*
X1260129Y832677*
X1260487Y835138*
Y836614*
X1260129Y839075*
X1259413Y840551*
X1258339Y841043*
X1257623*
X1267287D02*
G01X1263708Y834154D01*
X1269077*
X1267287Y841043D02*
G01Y830709D01*
X1274445Y841043D02*
G01X1273372Y840551D01*
X1272656Y839075*
X1272298Y836614*
Y835138*
X1272656Y832677*
X1273372Y831201*
X1274445Y830709*
X1275161*
X1276235Y831201*
X1276951Y832677*
X1277309Y835138*
Y836614*
X1276951Y839075*
X1276235Y840551*
X1275161Y841043*
X1274445*
X992377Y895915D02*
G01X995240Y885581D01*
X998103Y895915D02*
G01X995240Y885581D01*
X1001324Y895915D02*
G01Y885581D01*
Y895915D02*
G01X1005977D01*
X1001324Y890994D02*
G01X1004188D01*
X1001324Y885581D02*
G01X1005977D01*
X1009198Y895915D02*
G01Y885581D01*
X1014209Y895915D02*
G01Y885581D01*
X1009198Y890994D02*
G01X1014209D01*
X1017430Y895915D02*
G01Y885581D01*
X1026020Y893455D02*
G01X1025662Y894439D01*
X1024946Y895423*
X1024230Y895915*
X1022799*
X1022083Y895423*
X1021367Y894439*
X1021009Y893455*
X1020651Y891978*
Y889518*
X1021009Y888041*
X1021367Y887057*
X1022083Y886073*
X1022799Y885581*
X1024230*
X1024946Y886073*
X1025662Y887057*
X1026020Y888041*
X1029241Y895915D02*
G01Y885581D01*
X1033536*
X1036757Y895915D02*
G01Y885581D01*
Y895915D02*
G01X1041410D01*
X1036757Y890994D02*
G01X1039621D01*
X1036757Y885581D02*
G01X1041410D01*
X1052863Y895915D02*
G01Y885581D01*
Y895915D02*
G01X1055369D01*
X1056442Y895423*
X1057158Y894439*
X1057516Y893455*
X1057874Y891978*
Y889518*
X1057516Y888041*
X1057158Y887057*
X1056442Y886073*
X1055369Y885581*
X1052863*
X1061095Y895915D02*
G01Y885581D01*
X1069327Y894439D02*
G01X1068611Y895423D01*
X1067538Y895915*
X1066106*
X1065032Y895423*
X1064316Y894439*
Y893455*
X1064674Y892470*
X1065032Y891978*
X1065748Y891486*
X1067895Y890502*
X1068611Y890010*
X1068969Y889518*
X1069327Y888533*
Y887057*
X1068611Y886073*
X1067538Y885581*
X1066106*
X1065032Y886073*
X1064316Y887057*
X1072548Y895915D02*
G01Y885581D01*
Y895915D02*
G01X1075770D01*
X1076843Y895423*
X1077201Y894931*
X1077559Y893947*
Y892470*
X1077201Y891486*
X1076843Y890994*
X1075770Y890502*
X1072548*
X1080780Y895915D02*
G01Y885581D01*
X1085075*
X1091160Y895915D02*
G01X1088296Y885581D01*
X1091160Y895915D02*
G01X1094023Y885581D01*
X1089370Y889026D02*
G01X1092949D01*
X1097244Y895915D02*
G01X1100107Y890994D01*
Y885581*
X1102971Y895915D02*
G01X1100107Y890994D01*
X1119435Y894439D02*
G01X1118719Y895423D01*
X1117645Y895915*
X1116213*
X1115140Y895423*
X1114424Y894439*
Y893455*
X1114782Y892470*
X1115140Y891978*
X1115855Y891486*
X1118003Y890502*
X1118719Y890010*
X1119077Y889518*
X1119435Y888533*
Y887057*
X1118719Y886073*
X1117645Y885581*
X1116213*
X1115140Y886073*
X1114424Y887057*
X1122656Y895915D02*
G01X1125519Y890994D01*
Y885581*
X1128382Y895915D02*
G01X1125519Y890994D01*
X1136614Y894439D02*
G01X1135898Y895423D01*
X1134825Y895915*
X1133393*
X1132319Y895423*
X1131603Y894439*
Y893455*
X1131961Y892470*
X1132319Y891978*
X1133035Y891486*
X1135183Y890502*
X1135898Y890010*
X1136256Y889518*
X1136614Y888533*
Y887057*
X1135898Y886073*
X1134825Y885581*
X1133393*
X1132319Y886073*
X1131603Y887057*
X1142341Y895915D02*
G01Y885581D01*
X1139835Y895915D02*
G01X1144846D01*
X1148067D02*
G01Y885581D01*
Y895915D02*
G01X1152720D01*
X1148067Y890994D02*
G01X1150931D01*
X1148067Y885581D02*
G01X1152720D01*
X1155941Y895915D02*
G01Y885581D01*
Y895915D02*
G01X1158805Y885581D01*
X1161668Y895915D02*
G01X1158805Y885581D01*
X1161668Y895915D02*
G01Y885581D01*
X1178490Y893455D02*
G01X1178132Y894439D01*
X1177416Y895423*
X1176700Y895915*
X1175268*
X1174553Y895423*
X1173837Y894439*
X1173479Y893455*
X1173121Y891978*
Y889518*
X1173479Y888041*
X1173837Y887057*
X1174553Y886073*
X1175268Y885581*
X1176700*
X1177416Y886073*
X1178132Y887057*
X1178490Y888041*
X1183858Y895915D02*
G01X1183142Y895423D01*
X1182427Y894439*
X1182069Y893455*
X1181711Y891978*
Y889518*
X1182069Y888041*
X1182427Y887057*
X1183142Y886073*
X1183858Y885581*
X1185290*
X1186006Y886073*
X1186722Y887057*
X1187079Y888041*
X1187437Y889518*
Y891978*
X1187079Y893455*
X1186722Y894439*
X1186006Y895423*
X1185290Y895915*
X1183858*
X1190659D02*
G01Y885581D01*
Y895915D02*
G01X1195669Y885581D01*
Y895915D02*
G01Y885581D01*
X1201396Y895915D02*
G01Y885581D01*
X1198890Y895915D02*
G01X1203901D01*
X1207122D02*
G01Y885581D01*
Y895915D02*
G01X1210344D01*
X1211417Y895423*
X1211775Y894931*
X1212133Y893947*
Y892963*
X1211775Y891978*
X1211417Y891486*
X1210344Y890994*
X1207122*
X1209628D02*
G01X1212133Y885581D01*
X1217502Y895915D02*
G01X1216786Y895423D01*
X1216070Y894439*
X1215712Y893455*
X1215354Y891978*
Y889518*
X1215712Y888041*
X1216070Y887057*
X1216786Y886073*
X1217502Y885581*
X1218933*
X1219649Y886073*
X1220365Y887057*
X1220723Y888041*
X1221081Y889518*
Y891978*
X1220723Y893455*
X1220365Y894439*
X1219649Y895423*
X1218933Y895915*
X1217502*
X1224302D02*
G01Y885581D01*
X1228597*
X1231818Y895915D02*
G01Y885581D01*
X1236113*
X1239334Y895915D02*
G01Y885581D01*
Y895915D02*
G01X1243987D01*
X1239334Y890994D02*
G01X1242198D01*
X1239334Y885581D02*
G01X1243987D01*
X1247208Y895915D02*
G01Y885581D01*
Y895915D02*
G01X1250429D01*
X1251503Y895423*
X1251861Y894931*
X1252219Y893947*
Y892963*
X1251861Y891978*
X1251503Y891486*
X1250429Y890994*
X1247208*
X1249714D02*
G01X1252219Y885581D01*
X1263672Y895915D02*
G01Y885581D01*
Y895915D02*
G01X1266893D01*
X1267967Y895423*
X1268325Y894931*
X1268683Y893947*
Y892963*
X1268325Y891978*
X1267967Y891486*
X1266893Y890994*
X1263672D02*
G01X1266893D01*
X1267967Y890502*
X1268325Y890010*
X1268683Y889026*
Y887549*
X1268325Y886565*
X1267967Y886073*
X1266893Y885581*
X1263672*
X1274052Y895915D02*
G01X1273336Y895423D01*
X1272620Y894439*
X1272262Y893455*
X1271904Y891978*
Y889518*
X1272262Y888041*
X1272620Y887057*
X1273336Y886073*
X1274052Y885581*
X1275483*
X1276199Y886073*
X1276915Y887057*
X1277273Y888041*
X1277631Y889518*
Y891978*
X1277273Y893455*
X1276915Y894439*
X1276199Y895423*
X1275483Y895915*
X1274052*
X1283715D02*
G01X1280852Y885581D01*
X1283715Y895915D02*
G01X1286578Y885581D01*
X1281926Y889026D02*
G01X1285505D01*
X1289800Y895915D02*
G01Y885581D01*
Y895915D02*
G01X1293021D01*
X1294094Y895423*
X1294452Y894931*
X1294810Y893947*
Y892963*
X1294452Y891978*
X1294094Y891486*
X1293021Y890994*
X1289800*
X1292305D02*
G01X1294810Y885581D01*
X1298031Y895915D02*
G01Y885581D01*
Y895915D02*
G01X1300537D01*
X1301611Y895423*
X1302326Y894439*
X1302684Y893455*
X1303042Y891978*
Y889518*
X1302684Y888041*
X1302326Y887057*
X1301611Y886073*
X1300537Y885581*
X1298031*
X1288082Y839567D02*
G01X1287366Y840551D01*
X1286292Y841043*
X1284860*
X1283787Y840551*
X1283071Y839567*
Y838583*
X1283429Y837598*
X1283787Y837106*
X1284503Y836614*
X1286650Y835630*
X1287366Y835138*
X1287724Y834646*
X1288082Y833661*
Y832185*
X1287366Y831201*
X1286292Y830709*
X1284860*
X1283787Y831201*
X1283071Y832185*
X1293808Y841043D02*
G01Y830709D01*
X1291303Y841043D02*
G01X1296314D01*
X1299893Y831693D02*
G01X1299535Y831201D01*
X1299893Y830709*
X1300251Y831201*
X1299893Y831693*
X1303472Y841043D02*
G01Y830709D01*
Y841043D02*
G01X1306693D01*
X1307767Y840551*
X1308125Y840059*
X1308482Y839075*
Y837598*
X1308125Y836614*
X1307767Y836122*
X1306693Y835630*
X1303472*
X1311704Y841043D02*
G01Y830709D01*
X1316714Y841043D02*
G01Y830709D01*
X1311704Y836122D02*
G01X1316714D01*
X1322083Y841043D02*
G01X1321367Y840551D01*
X1320651Y839567*
X1320293Y838583*
X1319936Y837106*
Y834646*
X1320293Y833169*
X1320651Y832185*
X1321367Y831201*
X1322083Y830709*
X1323515*
X1324230Y831201*
X1324946Y832185*
X1325304Y833169*
X1325662Y834646*
Y837106*
X1325304Y838583*
X1324946Y839567*
X1324230Y840551*
X1323515Y841043*
X1322083*
X977058Y839567D02*
G01X976342Y840551D01*
X975268Y841043*
X973837*
X972763Y840551*
X972047Y839567*
Y838583*
X972405Y837598*
X972763Y837106*
X973479Y836614*
X975626Y835630*
X976342Y835138*
X976700Y834646*
X977058Y833661*
Y832185*
X976342Y831201*
X975268Y830709*
X973837*
X972763Y831201*
X972047Y832185*
X980279Y841043D02*
G01Y830709D01*
X983500Y841043D02*
G01Y830709D01*
X987795*
X991016Y841043D02*
G01Y830709D01*
X996027Y841043D02*
G01X991016Y834154D01*
X992806Y836614D02*
G01X996027Y830709D01*
X1004259Y839567D02*
G01X1003543Y840551D01*
X1002470Y841043*
X1001038*
X999964Y840551*
X999248Y839567*
Y838583*
X999606Y837598*
X999964Y837106*
X1000680Y836614*
X1002827Y835630*
X1003543Y835138*
X1003901Y834646*
X1004259Y833661*
Y832185*
X1003543Y831201*
X1002470Y830709*
X1001038*
X999964Y831201*
X999248Y832185*
X1012849Y838583D02*
G01X1012491Y839567D01*
X1011775Y840551*
X1011059Y841043*
X1009628*
X1008912Y840551*
X1008196Y839567*
X1007838Y838583*
X1007480Y837106*
Y834646*
X1007838Y833169*
X1008196Y832185*
X1008912Y831201*
X1009628Y830709*
X1011059*
X1011775Y831201*
X1012491Y832185*
X1012849Y833169*
X1016070Y841043D02*
G01Y830709D01*
Y841043D02*
G01X1019291D01*
X1020365Y840551*
X1020723Y840059*
X1021081Y839075*
Y838091*
X1020723Y837106*
X1020365Y836614*
X1019291Y836122*
X1016070*
X1018576D02*
G01X1021081Y830709D01*
X1024302Y841043D02*
G01Y830709D01*
Y841043D02*
G01X1028955D01*
X1024302Y836122D02*
G01X1027165D01*
X1024302Y830709D02*
G01X1028955D01*
X1032176Y841043D02*
G01Y830709D01*
Y841043D02*
G01X1036829D01*
X1032176Y836122D02*
G01X1035039D01*
X1032176Y830709D02*
G01X1036829D01*
X1040050Y841043D02*
G01Y830709D01*
Y841043D02*
G01X1045061Y830709D01*
Y841043D02*
G01Y830709D01*
X1059019Y843012D02*
G01X1058304Y842028D01*
X1057588Y840551*
X1056872Y838583*
X1056514Y836122*
Y834154*
X1056872Y831693*
X1057588Y829724*
X1058304Y828248*
X1059019Y827264*
X1064746Y841043D02*
G01Y830709D01*
X1062241Y841043D02*
G01X1067251D01*
X1072620D02*
G01X1071904Y840551D01*
X1071188Y839567*
X1070830Y838583*
X1070472Y837106*
Y834646*
X1070830Y833169*
X1071188Y832185*
X1071904Y831201*
X1072620Y830709*
X1074052*
X1074767Y831201*
X1075483Y832185*
X1075841Y833169*
X1076199Y834646*
Y837106*
X1075841Y838583*
X1075483Y839567*
X1074767Y840551*
X1074052Y841043*
X1072620*
X1079420D02*
G01Y830709D01*
Y841043D02*
G01X1082641D01*
X1083715Y840551*
X1084073Y840059*
X1084431Y839075*
Y837598*
X1084073Y836614*
X1083715Y836122*
X1082641Y835630*
X1079420*
X1100895Y839567D02*
G01X1100179Y840551D01*
X1099105Y841043*
X1097674*
X1096600Y840551*
X1095884Y839567*
Y838583*
X1096242Y837598*
X1096600Y837106*
X1097316Y836614*
X1099463Y835630*
X1100179Y835138*
X1100537Y834646*
X1100895Y833661*
Y832185*
X1100179Y831201*
X1099105Y830709*
X1097674*
X1096600Y831201*
X1095884Y832185*
X1104116Y841043D02*
G01Y830709D01*
X1107337Y841043D02*
G01Y830709D01*
Y841043D02*
G01X1109843D01*
X1110916Y840551*
X1111632Y839567*
X1111990Y838583*
X1112348Y837106*
Y834646*
X1111990Y833169*
X1111632Y832185*
X1110916Y831201*
X1109843Y830709*
X1107337*
X1115569Y841043D02*
G01Y830709D01*
Y841043D02*
G01X1120222D01*
X1115569Y836122D02*
G01X1118432D01*
X1115569Y830709D02*
G01X1120222D01*
X1123443Y843012D02*
G01X1124159Y842028D01*
X1124875Y840551*
X1125591Y838583*
X1125948Y836122*
Y834154*
X1125591Y831693*
X1124875Y829724*
X1124159Y828248*
X1123443Y827264*
G54D11*
X1255020Y1054134D02*
G75*
G03X1255020Y1054134I-492D01*
X1293209Y1089567D02*
G03X1293209Y1089567I-492D01*
X1289469Y1073622D02*
G03X1289469Y1073622I-493D01*
Y1127165D02*
G03X1289469Y1127165I-493D01*
X1292224Y1143701D02*
G03X1292224Y1143701I-492D01*
X1022728Y1138583D02*
G03X1022728Y1138583I-492D01*
Y1147638D02*
G03X1022728Y1147638I-492D01*
Y1156693D02*
G03X1022728Y1156693I-492D01*
X1260728Y1063386D02*
G03X1260728Y1063386I-492D01*
X1330807Y1066929D02*
G03X1330807Y1066929I-492D01*
X1022728Y1120472D02*
G03X1022728Y1120472I-492D01*
Y1129528D02*
G03X1022728Y1129528I-492D01*
X1154429Y1043504D02*
G03X1154429Y1043504I-492D01*
X1139862Y1050000D02*
G03X1139862Y1050000I-492D01*
X1168209D02*
G03X1168209Y1050000I-492D01*
X1090650Y1074409D02*
G03X1090650Y1074409I-493D01*
X1034616Y1245276D02*
G03X1034616Y1245276I-246D01*
X1106004Y1074606D02*
G03X1106004Y1074606I-492D01*
X1162008Y1093898D02*
G03X1162008Y1093898I-246D01*
X1242077Y1174065D02*
G03X1242077Y1174065I-246D01*
X1082165Y1261811D02*
G03X1082165Y1261811I-246D01*
X1149882D02*
G03X1149882Y1261811I-246D01*
X1190551Y1053366D02*
G03X1190551Y1053366I-246D01*
X1287648Y1097441D02*
G03X1287648Y1097441I-246D01*
X1031201Y1060197D02*
G03X1031201Y1060197I-492D01*
X1069931Y1103986D02*
G03X1069931Y1103986I-246D01*
X1033366Y1178346D02*
G03X1033366Y1178346I-492D01*
X1311663Y1095669D02*
G03X1311663Y1095669I-246D01*
X1191929Y1079528D02*
G03X1191929Y1079528I-246D01*
X1191739Y1018194D02*
G03X1191739Y1018194I-246D01*
X1218339Y1018294D02*
G03X1218339Y1018294I-246D01*
X1224803Y1079744D02*
G03X1224803Y1079744I-246D01*
X964173Y855512D02*
G03X968110Y851575I3937D01*
Y851575D02*
G01X1129528D01*
Y851575D02*
G03X1133465Y855512J3937D01*
Y855512D02*
G01Y871260D01*
Y871260D02*
G03X1129528Y875197I-3937D01*
Y875197D02*
G01X968110D01*
Y875197D02*
G03X964173Y871260J-3937D01*
Y871260D02*
G01Y855512D01*
X1137402D02*
G03X1141339Y851575I3937D01*
Y851575D02*
G01X1176772D01*
Y851575D02*
G03X1180709Y855512J3937D01*
Y855512D02*
G01Y871260D01*
Y871260D02*
G03X1176772Y875197I-3937D01*
Y875197D02*
G01X1141339D01*
Y875197D02*
G03X1137402Y871260J-3937D01*
Y871260D02*
G01Y855512D01*
X964173Y827953D02*
G03X968110Y824016I3937D01*
Y824016D02*
G01X1176772D01*
Y824016D02*
G03X1180709Y827953J3937D01*
Y827953D02*
G01Y843701D01*
Y843701D02*
G03X1176772Y847638I-3937D01*
Y847638D02*
G01X968110D01*
Y847638D02*
G03X964173Y843701J-3937D01*
Y843701D02*
G01Y827953D01*
X1184646D02*
G03X1188583Y824016I3937D01*
Y824016D02*
G01X1330315D01*
Y824016D02*
G03X1334252Y827953J3937D01*
Y827953D02*
G01Y843701D01*
Y843701D02*
G03X1330315Y847638I-3937D01*
Y847638D02*
G01X1188583D01*
Y847638D02*
G03X1184646Y843701J-3937D01*
Y843701D02*
G01Y827953D01*
Y855512D02*
G03X1188583Y851575I3937D01*
Y851575D02*
G01X1330315D01*
Y851575D02*
G03X1334252Y855512J3937D01*
Y855512D02*
G01Y871260D01*
Y871260D02*
G03X1330315Y875197I-3937D01*
Y875197D02*
G01X1188583D01*
Y875197D02*
G03X1184646Y871260J-3937D01*
Y871260D02*
G01Y855512D01*
X964173Y883071D02*
G03X968110Y879134I3937D01*
Y879134D02*
G01X1330315D01*
Y879134D02*
G03X1334252Y883071J3937D01*
Y883071D02*
G01Y898819D01*
Y898819D02*
G03X1330315Y902756I-3937D01*
Y902756D02*
G01X968110D01*
Y902756D02*
G03X964173Y898819J-3937D01*
Y898819D02*
G01Y883071D01*
G54D12*
X960236Y827953D02*
G03X968110Y820079I7874D01*
Y820079D02*
G01X1330315D01*
Y820079D02*
G03X1338189Y827953J7874D01*
Y827953D02*
G01Y898819D01*
Y898819D02*
G03X1330315Y906693I-7874D01*
Y906693D02*
G01X968110D01*
Y906693D02*
G03X960236Y898819J-7874D01*
Y898819D02*
G01Y827953D01*
G54D13*
X1076378Y1234646D02*
G01X1073228D01*
Y1216535D02*
G01X1076378D01*
X1140157Y1234646D02*
G01X1137008D01*
Y1216535D02*
G01X1140157D01*
X1207874Y1234646D02*
G01X1204724D01*
Y1216535D02*
G01X1207874D01*
X1279921Y1119685D02*
G01X1283071D01*
X1279921Y1113386D02*
G01X1283071D01*
X1256693Y1053543D02*
G01Y1056299D01*
X1286614*
Y1053543*
X1256693Y1040945D02*
G01Y1038189D01*
X1286614*
Y1040945*
X1257874Y1107087D02*
G01Y1103937D01*
X1307480Y1113386D02*
G01X1304331D01*
X1307480Y1119685D02*
G01X1304331D01*
X1294882Y1088976D02*
G01Y1091732D01*
X1324803*
Y1088976*
X1294882Y1076378D02*
G01Y1073622D01*
X1324803*
Y1076378*
X1179900Y1082475D02*
G01Y1079325D01*
X1094488Y1054724D02*
G01X1097638D01*
X1286811Y1074213D02*
G01Y1070472D01*
X1254921*
Y1074213*
X1286811Y1089567D02*
G01Y1093307D01*
X1254921*
Y1089567*
X1286811Y1127756D02*
G01Y1124016D01*
X1254921*
Y1127756*
X1286811Y1143110D02*
G01Y1146850D01*
X1254921*
Y1143110*
X1293898D02*
G01Y1146850D01*
X1325787*
Y1143110*
X1293898Y1127756D02*
G01Y1124016D01*
X1325787*
Y1127756*
X1020071Y1134646D02*
G01Y1142520D01*
X1003929*
Y1134646*
X1020071*
Y1143701D02*
G01Y1151575D01*
X1003929*
Y1143701*
X1020071*
Y1152756D02*
G01Y1160630D01*
X1003929*
Y1152756*
X1020071*
X1262402Y1067323D02*
G01Y1059449D01*
X1278543*
Y1067323*
X1262402*
X1328150Y1062992D02*
G01Y1070866D01*
X1312008*
Y1062992*
X1328150*
X1020071Y1116535D02*
G01Y1124409D01*
X1003929*
Y1116535*
X1020071*
Y1125591D02*
G01Y1133465D01*
X1003929*
Y1125591*
X1020071*
X1052165Y1041339D02*
G01X1044685D01*
Y1037008*
X1152953Y1041339D02*
G01X1160433D01*
Y1037008*
X1044685Y1024409D02*
G01Y1016929D01*
X1042323*
Y1012992*
X1162795*
Y1016929*
X1160433*
Y1024409*
X1148819Y1015748D02*
G01X1152756D01*
X1150787Y1019685*
X1148819Y1015748*
X1137402Y1059843D02*
G01Y1072441D01*
X1124803*
X1116929Y1064567D02*
G01Y1057087D01*
X1122047Y1051969*
X1129528*
X1165748Y1059843D02*
G01Y1072441D01*
X1153150*
X1145276Y1064567D02*
G01Y1057087D01*
X1150394Y1051969*
X1157874*
X1080315Y1072441D02*
G01X1067717D01*
Y1059843*
X1075591Y1051969D02*
G01X1083071D01*
X1088189Y1057087*
Y1064567*
X1047047Y1250000D02*
G01X1035630D01*
X1047047*
X1305925Y1062500D02*
G01X1309075D01*
X1257874Y1110236D02*
G01Y1113386D01*
Y1119685D02*
G01Y1116535D01*
X1078346Y1182677D02*
G01Y1179528D01*
X1323228Y1102756D02*
G01X1320079D01*
X1059055Y1054724D02*
G01X1062205D01*
X1285827Y1061811D02*
G01Y1064961D01*
X1320079Y1115354D02*
G01X1323228D01*
X1106102Y1068110D02*
G01X1094685D01*
X1033071Y1224409D02*
G01X1040945D01*
X1033071Y1200787D02*
G01X1040945D01*
X1045866Y1212598D02*
G03X1045866Y1212598I-8858D01*
X1025197Y1208661D02*
G01Y1216535D01*
X1048819Y1208661D02*
G01Y1216535D01*
X1157087Y1168110D02*
G01X1083071D01*
Y1094094*
X1157087*
Y1168110*
X1178937Y1168898D02*
G01Y1101181D01*
X1246260*
Y1168898*
X1178937*
X1087205Y1189173D02*
G01X1122244D01*
Y1262008*
X1087205*
Y1189173*
X1154921D02*
G01X1189961D01*
Y1262008*
X1154921*
Y1189173*
X1197244Y1032677D02*
G01X1204331D01*
Y1052362*
X1197244*
Y1032677*
Y1051575D02*
G01X1198031Y1052362D01*
X1197244Y1050787D02*
G01X1198819Y1052362D01*
X1197244Y1050000D02*
G01X1199606Y1052362D01*
X1197244Y1049213D02*
G01X1200394Y1052362D01*
X1197244Y1048425D02*
G01X1201181Y1052362D01*
X1283071Y1097244D02*
G01X1274409D01*
X1283071Y1110630D02*
G01X1274409D01*
X1044882Y1155906D02*
G01X1057677D01*
Y1145669*
X1044882*
X1057677Y1152756D02*
G01X1060630D01*
X1057677Y1148819D02*
G01X1060630D01*
X1072441Y1137795D02*
G01Y1120472D01*
X1023622Y1137795D02*
G01Y1120472D01*
X1036220D02*
G01X1059843D01*
Y1137795D02*
G01X1036220D01*
X1010662Y1052520D02*
G01X1031858D01*
X1003543Y1041890D02*
G01Y1032441D01*
X1008662*
Y1030079*
X1001181*
Y1024961*
X1041339*
Y1030079*
X1033858*
Y1032441*
X1038977*
Y1041890*
X1049016Y1098819D02*
G01Y1086220D01*
X1069094*
Y1098819*
X1049016*
X1039370Y1178937D02*
G01Y1167520D01*
X1306693Y1108268D02*
G01X1305118D01*
Y1096457*
X1306693*
Y1108268*
X1179800Y1076675D02*
G01Y1073525D01*
X1179900Y1067325D02*
G01Y1070475D01*
Y1062025D02*
G01Y1065175D01*
Y1059875D02*
G01Y1056725D01*
X1297047Y1259055D02*
G01Y1233071D01*
X1301772*
X1301783Y1209449D02*
G03X1301762Y1233071I186J11811D01*
X1301772Y1209449D02*
G01X1297047D01*
Y1197835*
X1235433*
Y1209449*
X1230906*
X1230891Y1233071D02*
G03X1230911Y1209449I-207J-11811D01*
X1230906Y1233071D02*
G01X1235433D01*
Y1259055*
X1289764Y1155630D02*
G01Y1165630D01*
X1292913*
Y1165630D02*
G03X1299213Y1165630I3150D01*
Y1165630D02*
G01X1302362D01*
Y1155630*
X1289764*
X1275472Y1154331D02*
G01X1265472D01*
Y1157480*
Y1157480D02*
G03X1265472Y1163780J3150D01*
Y1163780D02*
G01Y1166929D01*
X1275472*
Y1154331*
X1196850Y1058858D02*
G01X1209449D01*
Y1078937*
X1196850*
Y1058858*
X1217900Y1081425D02*
G01Y1084575D01*
X1196069Y1005301D02*
G01X1204731D01*
Y1017899*
X1196069*
Y1005301*
Y1017112D02*
G01X1196857Y1017899D01*
X1196069Y1016324D02*
G01X1197644Y1017899D01*
X1196069Y1015537D02*
G01X1198431Y1017899D01*
X1196069Y1014750D02*
G01X1199219Y1017899D01*
X1196069Y1013962D02*
G01X1200006Y1017899D01*
X1222669Y1005401D02*
G01X1231331D01*
Y1017999*
X1222669*
Y1005401*
Y1017212D02*
G01X1223457Y1017999D01*
X1222669Y1016424D02*
G01X1224244Y1017999D01*
X1222669Y1015637D02*
G01X1225031Y1017999D01*
X1222669Y1014850D02*
G01X1225819Y1017999D01*
X1222669Y1014062D02*
G01X1226606Y1017999D01*
X1240725Y1012800D02*
G01X1243875D01*
X1231496Y1059055D02*
G01X1238583D01*
Y1078740*
X1231496*
Y1059055*
Y1077953D02*
G01X1232283Y1078740D01*
X1231496Y1077165D02*
G01X1233071Y1078740D01*
X1231496Y1076378D02*
G01X1233858Y1078740D01*
X1231496Y1075591D02*
G01X1234646Y1078740D01*
X1231496Y1074803D02*
G01X1235433Y1078740D01*
X1323425Y1187205D02*
G01X1325394D01*
Y1157677*
X1323425*
X1305709Y1187205D02*
G01X1303740D01*
Y1157677*
X1305709*
X1223575Y1038000D02*
G01X1220425D01*
X1300575Y1062500D02*
G01X1297425D01*
X1254721Y1016892D02*
G01X1254184Y1016645D01*
X1253826Y1015907*
X1253647Y1014677*
Y1013939*
X1253826Y1012708*
X1254184Y1011970*
X1254721Y1011724*
X1255079*
X1255616Y1011970*
X1255974Y1012708*
X1256153Y1013939*
Y1014677*
X1255974Y1015907*
X1255616Y1016645*
X1255079Y1016892*
X1254721*
X1260090Y1015169D02*
G01X1259911Y1014431D01*
X1259553Y1013939*
X1259016Y1013693*
X1258837*
X1258300Y1013939*
X1257942Y1014431*
X1257763Y1015169*
Y1015415*
X1257942Y1016153*
X1258300Y1016645*
X1258837Y1016892*
X1259016*
X1259553Y1016645*
X1259911Y1016153*
X1260090Y1015169*
Y1013939*
X1259911Y1012708*
X1259553Y1011970*
X1259016Y1011724*
X1258658*
X1258121Y1011970*
X1257942Y1012462*
X1261700Y1013939D02*
G01X1264922D01*
X1267606Y1016892D02*
G01X1267069Y1016645D01*
X1266711Y1015907*
X1266532Y1014677*
Y1013939*
X1266711Y1012708*
X1267069Y1011970*
X1267606Y1011724*
X1267964*
X1268501Y1011970*
X1268859Y1012708*
X1269038Y1013939*
Y1014677*
X1268859Y1015907*
X1268501Y1016645*
X1267964Y1016892*
X1267606*
X1271722D02*
G01X1271185Y1016645D01*
X1270827Y1015907*
X1270648Y1014677*
Y1013939*
X1270827Y1012708*
X1271185Y1011970*
X1271722Y1011724*
X1272080*
X1272617Y1011970*
X1272975Y1012708*
X1273153Y1013939*
Y1014677*
X1272975Y1015907*
X1272617Y1016645*
X1272080Y1016892*
X1271722*
X1275838D02*
G01X1275301Y1016645D01*
X1274943Y1015907*
X1274764Y1014677*
Y1013939*
X1274943Y1012708*
X1275301Y1011970*
X1275838Y1011724*
X1276196*
X1276733Y1011970*
X1277090Y1012708*
X1277269Y1013939*
Y1014677*
X1277090Y1015907*
X1276733Y1016645*
X1276196Y1016892*
X1275838*
X1279954D02*
G01X1279417Y1016645D01*
X1279059Y1015907*
X1278880Y1014677*
Y1013939*
X1279059Y1012708*
X1279417Y1011970*
X1279954Y1011724*
X1280312*
X1280849Y1011970*
X1281206Y1012708*
X1281385Y1013939*
Y1014677*
X1281206Y1015907*
X1280849Y1016645*
X1280312Y1016892*
X1279954*
X1284786D02*
G01X1282996Y1013447D01*
X1285680*
X1284786Y1016892D02*
G01Y1011724D01*
X1288365Y1016892D02*
G01X1287828Y1016645D01*
X1287470Y1015907*
X1287291Y1014677*
Y1013939*
X1287470Y1012708*
X1287828Y1011970*
X1288365Y1011724*
X1288723*
X1289259Y1011970*
X1289617Y1012708*
X1289796Y1013939*
Y1014677*
X1289617Y1015907*
X1289259Y1016645*
X1288723Y1016892*
X1288365*
X1291407Y1013939D02*
G01X1294628D01*
X1297312Y1016892D02*
G01X1296776Y1016645D01*
X1296418Y1015907*
X1296239Y1014677*
Y1013939*
X1296418Y1012708*
X1296776Y1011970*
X1297312Y1011724*
X1297670*
X1298207Y1011970*
X1298565Y1012708*
X1298744Y1013939*
Y1014677*
X1298565Y1015907*
X1298207Y1016645*
X1297670Y1016892*
X1297312*
X1300355Y1015907D02*
G01X1300713Y1016153D01*
X1301249Y1016892*
Y1011724*
X1248431Y1024092D02*
G01Y1018924D01*
X1247179Y1024092D02*
G01X1249684D01*
X1251295Y1020893D02*
G01X1253442D01*
Y1021385*
X1253263Y1021877*
X1253084Y1022123*
X1252726Y1022369*
X1252189*
X1251832Y1022123*
X1251474Y1021631*
X1251295Y1020893*
Y1020401*
X1251474Y1019662*
X1251832Y1019170*
X1252189Y1018924*
X1252726*
X1253084Y1019170*
X1253442Y1019662*
X1257021Y1021631D02*
G01X1256842Y1022123D01*
X1256305Y1022369*
X1255769*
X1255232Y1022123*
X1255053Y1021631*
X1255232Y1021139*
X1255590Y1020893*
X1256484Y1020647*
X1256842Y1020401*
X1257021Y1019908*
Y1019662*
X1256842Y1019170*
X1256305Y1018924*
X1255769*
X1255232Y1019170*
X1255053Y1019662*
X1258632Y1024092D02*
G01Y1018924D01*
X1262390Y1022369D02*
G01Y1018924D01*
Y1021631D02*
G01X1262032Y1022123D01*
X1261674Y1022369*
X1261137*
X1260779Y1022123*
X1260421Y1021631*
X1260242Y1020893*
Y1020401*
X1260421Y1019662*
X1260779Y1019170*
X1261137Y1018924*
X1261674*
X1262032Y1019170*
X1262390Y1019662*
X1268116Y1024092D02*
G01Y1018924D01*
Y1024092D02*
G01X1269548Y1018924D01*
X1270980Y1024092D02*
G01X1269548Y1018924D01*
X1270980Y1024092D02*
G01Y1018924D01*
X1273485Y1022369D02*
G01X1273127Y1022123D01*
X1272769Y1021631*
X1272590Y1020893*
Y1020401*
X1272769Y1019662*
X1273127Y1019170*
X1273485Y1018924*
X1274022*
X1274380Y1019170*
X1274738Y1019662*
X1274917Y1020401*
Y1020893*
X1274738Y1021631*
X1274380Y1022123*
X1274022Y1022369*
X1273485*
X1277064Y1024092D02*
G01Y1019908D01*
X1277243Y1019170*
X1277601Y1018924*
X1277959*
X1276527Y1022369D02*
G01X1277780D01*
X1280464D02*
G01X1280106Y1022123D01*
X1279749Y1021631*
X1279570Y1020893*
Y1020401*
X1279749Y1019662*
X1280106Y1019170*
X1280464Y1018924*
X1281001*
X1281359Y1019170*
X1281717Y1019662*
X1281896Y1020401*
Y1020893*
X1281717Y1021631*
X1281359Y1022123*
X1281001Y1022369*
X1280464*
X1283507D02*
G01Y1018924D01*
Y1020893D02*
G01X1283686Y1021631D01*
X1284043Y1022123*
X1284401Y1022369*
X1284938*
X1288517Y1021631D02*
G01X1288338Y1022123D01*
X1287802Y1022369*
X1287265*
X1286728Y1022123*
X1286549Y1021631*
X1286728Y1021139*
X1287086Y1020893*
X1287980Y1020647*
X1288338Y1020401*
X1288517Y1019908*
Y1019662*
X1288338Y1019170*
X1287802Y1018924*
X1287265*
X1286728Y1019170*
X1286549Y1019662*
X1290486Y1019170D02*
G01X1290307Y1018924D01*
X1290128Y1019170*
X1290307Y1019416*
X1290486Y1019170*
Y1018678*
X1290307Y1018186*
X1290128Y1017940*
X1296212Y1024092D02*
G01Y1018924D01*
X1297823Y1022369D02*
G01Y1018924D01*
Y1021385D02*
G01X1298360Y1022123D01*
X1298718Y1022369*
X1299255*
X1299613Y1022123*
X1299791Y1021385*
Y1018924*
X1303550Y1021631D02*
G01X1303192Y1022123D01*
X1302834Y1022369*
X1302297*
X1301939Y1022123*
X1301581Y1021631*
X1301402Y1020893*
Y1020401*
X1301581Y1019662*
X1301939Y1019170*
X1302297Y1018924*
X1302834*
X1303192Y1019170*
X1303550Y1019662*
X1305339Y1019416D02*
G01X1305160Y1019170D01*
X1305339Y1018924*
X1305518Y1019170*
X1305339Y1019416*
X1191267Y843701D02*
G01X1191088Y844193D01*
X1190730Y844685*
X1190372Y844931*
X1189656*
X1189298Y844685*
X1188941Y844193*
X1188762Y843701*
X1188583Y842963*
Y841732*
X1188762Y840994*
X1188941Y840502*
X1189298Y840010*
X1189656Y839764*
X1190372*
X1190730Y840010*
X1191088Y840502*
X1191267Y840994*
Y841732*
X1190372D02*
G01X1191267D01*
X1192878Y844931D02*
G01Y839764D01*
Y844931D02*
G01X1195204D01*
X1192878Y842470D02*
G01X1194309D01*
X1192878Y839764D02*
G01X1195204D01*
X1196815Y844931D02*
G01Y839764D01*
Y844931D02*
G01X1198425D01*
X1198962Y844685*
X1199141Y844439*
X1199320Y843947*
Y843455*
X1199141Y842963*
X1198962Y842717*
X1198425Y842470*
X1196815*
X1198067D02*
G01X1199320Y839764D01*
X1200931Y844931D02*
G01Y839764D01*
Y844931D02*
G01X1202541D01*
X1203078Y844685*
X1203257Y844439*
X1203436Y843947*
Y843455*
X1203257Y842963*
X1203078Y842717*
X1202541Y842470*
X1200931D02*
G01X1202541D01*
X1203078Y842224*
X1203257Y841978*
X1203436Y841486*
Y840748*
X1203257Y840256*
X1203078Y840010*
X1202541Y839764*
X1200931*
X1205047Y844931D02*
G01Y839764D01*
Y844931D02*
G01X1207373D01*
X1205047Y842470D02*
G01X1206478D01*
X1205047Y839764D02*
G01X1207373D01*
X1208984Y844931D02*
G01Y839764D01*
Y844931D02*
G01X1210594D01*
X1211131Y844685*
X1211310Y844439*
X1211489Y843947*
Y843455*
X1211310Y842963*
X1211131Y842717*
X1210594Y842470*
X1208984*
X1210236D02*
G01X1211489Y839764D01*
X1213278Y843209D02*
G01X1213099Y842963D01*
Y842963D02*
G01X1213278Y842717D01*
X1213457Y842963*
X1213278Y843209*
Y840256D02*
G01X1213099Y840010D01*
Y840010D02*
G01X1213278Y839764D01*
X1213457Y840010*
X1213278Y840256*
X1188583Y872490D02*
G01Y867323D01*
Y872490D02*
G01X1189835D01*
X1190372Y872244*
X1190730Y871752*
X1190909Y871260*
X1191088Y870522*
Y869291*
X1190909Y868553*
X1190730Y868061*
X1190372Y867569*
X1189835Y867323*
X1188583*
X1194130Y872490D02*
G01X1192699Y867323D01*
X1194130Y872490D02*
G01X1195562Y867323D01*
X1193236Y869045D02*
G01X1195025D01*
X1198425Y872490D02*
G01Y867323D01*
X1197173Y872490D02*
G01X1199678D01*
X1201288D02*
G01Y867323D01*
Y872490D02*
G01X1203615D01*
X1201288Y870030D02*
G01X1202720D01*
X1201288Y867323D02*
G01X1203615D01*
X1205404Y870768D02*
G01X1205225Y870522D01*
X1205404Y870276*
X1205583Y870522*
X1205404Y870768*
Y867815D02*
G01X1205225Y867569D01*
X1205404Y867323*
X1205583Y867569*
X1205404Y867815*
X1141339Y872490D02*
G01Y867323D01*
Y872490D02*
G01X1142949D01*
X1143486Y872244*
X1143665Y871998*
X1143844Y871506*
Y871014*
X1143665Y870522*
X1143486Y870276*
X1142949Y870030*
X1141339*
X1142591D02*
G01X1143844Y867323D01*
X1145455Y872490D02*
G01Y867323D01*
Y872490D02*
G01X1147781D01*
X1145455Y870030D02*
G01X1146886D01*
X1145455Y867323D02*
G01X1147781D01*
X1149392Y872490D02*
G01X1150823Y867323D01*
X1152255Y872490D02*
G01X1150823Y867323D01*
X1154044Y870768D02*
G01X1153865Y870522D01*
X1154044Y870276*
X1154223Y870522*
X1154044Y870768*
Y867815D02*
G01X1153865Y867569D01*
X1154044Y867323*
X1154223Y867569*
X1154044Y867815*
X968110Y872490D02*
G01Y867323D01*
Y872490D02*
G01X969721D01*
X970258Y872244*
X970437Y871998*
X970616Y871506*
Y870768*
X970437Y870276*
X970258Y870030*
X969721Y869783*
X968110*
X973658Y872490D02*
G01X972226Y867323D01*
X973658Y872490D02*
G01X975089Y867323D01*
X972763Y869045D02*
G01X974553D01*
X976700Y872490D02*
G01Y867323D01*
Y872490D02*
G01X978311D01*
X978848Y872244*
X979026Y871998*
X979205Y871506*
Y871014*
X979026Y870522*
X978848Y870276*
X978311Y870030*
X976700*
X977953D02*
G01X979205Y867323D01*
X982069Y872490D02*
G01Y867323D01*
X980816Y872490D02*
G01X983321D01*
X989048D02*
G01Y867323D01*
Y872490D02*
G01X991553Y867323D01*
Y872490D02*
G01Y867323D01*
X994238Y872490D02*
G01X993880Y872244D01*
X993522Y871752*
X993343Y871260*
X993164Y870522*
Y869291*
X993343Y868553*
X993522Y868061*
X993880Y867569*
X994238Y867323*
X994953*
X995311Y867569*
X995669Y868061*
X995848Y868553*
X996027Y869291*
Y870522*
X995848Y871260*
X995669Y871752*
X995311Y872244*
X994953Y872490*
X994238*
X997817Y867815D02*
G01X997638Y867569D01*
X997817Y867323*
X997996Y867569*
X997817Y867815*
X999785Y870768D02*
G01X999606Y870522D01*
X999785Y870276*
X999964Y870522*
X999785Y870768*
Y867815D02*
G01X999606Y867569D01*
X999785Y867323*
X999964Y867569*
X999785Y867815*
X933071Y818898D02*
G03X933071Y818898I-3937D01*
X937008D02*
G03X937008Y818898I-7874D01*
X933071Y1267717D02*
G03X933071Y1267717I-3937D01*
X937008D02*
G03X937008Y1267717I-7874D01*
X1354331Y818898D02*
G03X1354331Y818898I-3937D01*
X1358268D02*
G03X1358268Y818898I-7874D01*
G54D14*
X917323D02*
G01X940945D01*
X929134Y807087D02*
G01Y830709D01*
X917323Y1267717D02*
G01X940945D01*
X929134Y1255906D02*
G01Y1279528D01*
X1338583Y818898D02*
G01X1362205D01*
X1350394Y807087D02*
G01Y830709D01*
X920866Y820079D02*
G01X920906D01*
X920866D02*
G01X921063D01*
G54D16*
X1072047Y1139764D02*
G03X1072047Y1139764I-393D01*
X1324409Y1190551D02*
G03X1324409Y1190551I-393D01*
G54D17*
X1154331Y1098031D02*
G03X1154331Y1098031I-1181D01*
X1243504Y1164961D02*
G03X1243504Y1164961I-1181D01*
X1092323Y1258071D02*
G03X1092323Y1258071I-1181D01*
X1160039D02*
G03X1160039Y1258071I-1181D01*
X1066339Y1094882D02*
G03X1066339Y1094882I-1182D01*
X1201969Y1075000D02*
G03X1201969Y1075000I-1182D01*
G54D42*
X1073863Y1224375D02*
G01X1073550Y1224261D01*
X1073238Y1224034*
X1073081Y1223806*
Y1223352*
X1073238Y1223125*
X1073550Y1222897*
X1073863Y1222784*
X1074331Y1222670*
X1075113*
X1075581Y1222784*
X1075894Y1222897*
X1076206Y1223125*
X1076363Y1223352*
Y1223806*
X1076206Y1224034*
X1075894Y1224261*
X1075581Y1224375*
X1073706Y1225397D02*
G01X1073550Y1225625D01*
X1073081Y1225966*
X1076363*
X1073706Y1226988D02*
G01X1073550Y1227216D01*
X1073081Y1227556*
X1076363*
X1143154Y1232918D02*
G01X1142841Y1232805D01*
X1142529Y1232577*
X1142373Y1232350*
Y1231896*
X1142529Y1231668*
X1142841Y1231441*
X1143154Y1231327*
X1143623Y1231214*
X1144404*
X1144873Y1231327*
X1145185Y1231441*
X1145498Y1231668*
X1145654Y1231896*
Y1232350*
X1145498Y1232577*
X1145185Y1232805*
X1144873Y1232918*
X1142998Y1233941D02*
G01X1142841Y1234168D01*
X1142373Y1234509*
X1145654*
X1143154Y1235646D02*
G01X1142998D01*
X1142685Y1235759*
X1142529Y1235873*
X1142373Y1236100*
Y1236555*
X1142529Y1236782*
X1142685Y1236896*
X1142998Y1237009*
X1143310*
X1143623Y1236896*
X1144091Y1236668*
X1145654Y1235532*
Y1237123*
X1143154Y1215202D02*
G01X1142841Y1215088D01*
X1142529Y1214861*
X1142373Y1214634*
Y1214179*
X1142529Y1213952*
X1142841Y1213725*
X1143154Y1213611*
X1143623Y1213497*
X1144404*
X1144873Y1213611*
X1145185Y1213725*
X1145498Y1213952*
X1145654Y1214179*
Y1214634*
X1145498Y1214861*
X1145185Y1215088*
X1144873Y1215202*
X1142998Y1216225D02*
G01X1142841Y1216452D01*
X1142373Y1216793*
X1145654*
X1142373Y1218043D02*
G01Y1219293D01*
X1143623Y1218611*
Y1218952*
X1143779Y1219179*
X1143935Y1219293*
X1144404Y1219406*
X1144716*
X1145185Y1219293*
X1145498Y1219065*
Y1219065D02*
G01X1145654Y1218725D01*
Y1218384*
X1145498Y1218043*
X1145341Y1217929*
X1145029Y1217815*
X1211264Y1233255D02*
G01X1210952Y1233142D01*
X1210639Y1232914*
X1210483Y1232687*
Y1232233*
X1210639Y1232005*
X1210952Y1231778*
X1211264Y1231664*
X1211733Y1231551*
X1212514*
X1212983Y1231664*
X1213295Y1231778*
X1213608Y1232005*
X1213764Y1232233*
Y1232687*
X1213608Y1232914*
X1213295Y1233142*
X1212983Y1233255*
X1211108Y1234278D02*
G01X1210952Y1234505D01*
X1210483Y1234846*
X1213764*
X1210483Y1237005D02*
G01X1212670Y1235869D01*
Y1237573*
X1210483Y1237005D02*
G01X1213764D01*
X1211264Y1214751D02*
G01X1210952Y1214638D01*
X1210639Y1214410*
X1210483Y1214183*
Y1213729*
X1210639Y1213501*
X1210952Y1213274*
X1211264Y1213160*
X1211733Y1213047*
X1212514*
X1212983Y1213160*
X1213295Y1213274*
X1213608Y1213501*
X1213764Y1213729*
Y1214183*
X1213608Y1214410*
X1213295Y1214638*
X1212983Y1214751*
X1211108Y1215774D02*
G01X1210952Y1216001D01*
X1210483Y1216342*
X1213764*
X1210483Y1218842D02*
G01Y1217706D01*
X1211889Y1217592*
X1211733Y1217706*
X1211577Y1218047*
Y1218388*
X1211733Y1218729*
X1212045Y1218956*
X1212514Y1219070*
X1212827Y1218956*
X1213295Y1218842*
X1213608Y1218615*
X1213764Y1218274*
Y1217933*
X1213608Y1217592*
X1213452Y1217479*
X1213139Y1217365*
X1292367Y1114747D02*
G01X1292054Y1114634D01*
X1291742Y1114406*
X1291585Y1114179*
Y1113725*
X1291742Y1113497*
X1292054Y1113270*
X1292367Y1113156*
X1292835Y1113043*
X1293617*
X1294085Y1113156*
X1294398Y1113270*
X1294710Y1113497*
X1294867Y1113725*
Y1114179*
X1294710Y1114406*
X1294398Y1114634*
X1294085Y1114747*
X1291585Y1115997D02*
G01Y1117247D01*
X1292835Y1116565*
Y1116565D02*
G01Y1116906D01*
X1292992Y1117134*
X1293148Y1117247*
X1293617Y1117361*
X1293929*
X1294398Y1117247*
X1294710Y1117020*
X1294867Y1116679*
Y1116338*
X1294710Y1115997*
X1294554Y1115884*
X1294242Y1115770*
X1292679Y1119861D02*
G01X1293148Y1119747D01*
X1293460Y1119520*
X1293617Y1119179*
Y1119065*
Y1119065D02*
G01X1293460Y1118725D01*
X1293148Y1118497*
X1292679Y1118384*
X1292523*
X1292054Y1118497*
X1291742Y1118725*
X1291585Y1119065*
Y1119065D02*
G01Y1119179D01*
X1291742Y1119520*
X1292054Y1119747*
X1292679Y1119861*
X1293460*
X1294242Y1119747*
X1294710Y1119520*
X1294867Y1119179*
Y1118952*
X1294710Y1118611*
X1294398Y1118497*
X1281816Y1035847D02*
G01X1281702Y1036159D01*
X1281475Y1036472*
X1281248Y1036628*
X1280793*
X1280566Y1036472*
X1280339Y1036159*
X1280225Y1035847*
X1280111Y1035378*
Y1034597*
X1280225Y1034128*
X1280339Y1033816*
X1280566Y1033503*
X1280793Y1033347*
X1281248*
X1281475Y1033503*
X1281702Y1033816*
X1281816Y1034128*
X1283975Y1036628D02*
G01X1282839Y1034441D01*
X1284543*
X1283975Y1036628D02*
G01Y1033347D01*
X1285566Y1036003D02*
G01X1285793Y1036159D01*
X1286134Y1036628*
Y1033347*
X1255579Y1100744D02*
G01X1255465Y1101056D01*
X1255238Y1101369*
X1255010Y1101525*
X1254556*
X1254329Y1101369*
X1254101Y1101056*
X1253988Y1100744*
X1253874Y1100275*
Y1099494*
X1253988Y1099025*
X1254101Y1098712*
X1254329Y1098400*
X1254556Y1098244*
X1255010*
X1255238Y1098400*
X1255465Y1098712*
X1255579Y1099025*
X1257738Y1101525D02*
G01X1256601Y1099337D01*
X1258306*
X1257738Y1101525D02*
G01Y1098244D01*
X1260919Y1101525D02*
G01X1259783Y1098244D01*
X1259329Y1101525D02*
G01X1260919D01*
X1316185Y1115062D02*
G01X1315873Y1114948D01*
X1315560Y1114721*
X1315404Y1114494*
Y1114039*
X1315560Y1113812*
X1315873Y1113585*
X1316185Y1113471*
X1316654Y1113357*
X1317435*
X1317904Y1113471*
X1318217Y1113585*
X1318529Y1113812*
X1318685Y1114039*
Y1114494*
X1318529Y1114721*
X1318217Y1114948*
X1317904Y1115062*
X1315873Y1117448D02*
G01X1315560Y1117335D01*
X1315404Y1116994*
Y1116766*
X1315560Y1116425*
X1316029Y1116198*
X1316810Y1116085*
X1317592*
X1318217Y1116198*
X1318529Y1116425*
X1318685Y1116766*
Y1116880*
X1318529Y1117221*
X1318217Y1117448*
X1317748Y1117562*
X1317592*
X1317123Y1117448*
X1316810Y1117221*
X1316654Y1116880*
Y1116766*
X1316810Y1116425*
X1317123Y1116198*
X1317592Y1116085*
X1316029Y1118585D02*
G01X1315873Y1118812D01*
X1315404Y1119153*
X1318685*
X1292700Y1071019D02*
G01X1292586Y1071332D01*
X1292359Y1071644*
X1292132Y1071801*
X1291677*
X1291450Y1071644*
X1291223Y1071332*
X1291109Y1071019*
X1290996Y1070551*
Y1069769*
X1291109Y1069301*
X1291223Y1068988*
X1291450Y1068676*
X1291677Y1068519*
X1292132*
X1292359Y1068676*
X1292586Y1068988*
X1292700Y1069301*
X1295086Y1071332D02*
G01X1294973Y1071644D01*
X1294632Y1071801*
X1294405*
X1294064Y1071644*
X1293836Y1071176*
X1293723Y1070394*
Y1069613*
X1293836Y1068988*
X1294064Y1068676*
X1294405Y1068519*
X1294518*
X1294859Y1068676*
X1295086Y1068988*
X1295200Y1069457*
Y1069613*
X1295086Y1070082*
X1294859Y1070394*
X1294518Y1070551*
X1294405*
X1294064Y1070394*
X1293836Y1070082*
X1293723Y1069613*
X1296450Y1071801D02*
G01X1297700D01*
X1297018Y1070551*
X1297359*
X1297586Y1070394*
X1297700Y1070238*
X1297814Y1069769*
Y1069457*
X1297700Y1068988*
X1297473Y1068676*
X1297132Y1068519*
X1296791*
X1296450Y1068676*
X1296336Y1068832*
X1296223Y1069144*
X1167618Y1082547D02*
G01X1167505Y1082859D01*
X1167277Y1083172*
X1167050Y1083328*
X1166595*
X1166368Y1083172*
X1166141Y1082859*
X1166027Y1082547*
X1165914Y1082078*
Y1081297*
X1166027Y1080828*
X1166141Y1080516*
X1166368Y1080203*
X1166595Y1080047*
X1167050*
X1167277Y1080203*
X1167505Y1080516*
X1167618Y1080828*
X1170118Y1082234D02*
G01X1170005Y1081766D01*
X1169777Y1081453*
X1169436Y1081297*
X1169323*
X1168982Y1081453*
X1168755Y1081766*
X1168641Y1082234*
Y1082391*
X1168755Y1082859*
X1168982Y1083172*
X1169323Y1083328*
X1169436*
X1169777Y1083172*
X1170005Y1082859*
X1170118Y1082234*
Y1081453*
X1170005Y1080672*
X1169777Y1080203*
X1169436Y1080047*
X1169209*
X1168868Y1080203*
X1168755Y1080516*
X1171368Y1083328D02*
G01X1172618D01*
X1171936Y1082078*
X1172277*
X1172505Y1081922*
X1172618Y1081766*
X1172732Y1081297*
Y1080984*
X1172618Y1080516*
X1172391Y1080203*
X1172050Y1080047*
X1171709*
X1171368Y1080203*
X1171255Y1080359*
X1171141Y1080672*
X1101028Y1052683D02*
G01X1100715Y1052569D01*
X1100403Y1052342*
X1100247Y1052114*
Y1051660*
X1100403Y1051433*
X1100715Y1051205*
X1101028Y1051092*
X1101497Y1050978*
X1102278*
X1102747Y1051092*
X1103059Y1051205*
X1103372Y1051433*
X1103528Y1051660*
Y1052114*
X1103372Y1052342*
X1103059Y1052569*
X1102747Y1052683*
X1100247Y1054274D02*
G01X1100403Y1053933D01*
X1100715Y1053819*
X1101028*
X1101340Y1053933*
X1101497Y1054160*
X1101653Y1054614*
X1101809Y1054955*
X1102122Y1055183*
X1102434Y1055296*
X1102903*
X1103215Y1055183*
X1103372Y1055069*
X1103528Y1054728*
Y1054274*
X1103372Y1053933*
X1103215Y1053819*
X1102903Y1053705*
X1102434*
X1102122Y1053819*
X1101809Y1054046*
X1101653Y1054387*
X1101497Y1054842*
X1101340Y1055069*
X1101028Y1055183*
X1100715*
X1100403Y1055069*
X1100247Y1054728*
Y1054274*
Y1057910D02*
G01X1103528Y1056774D01*
X1100247Y1056319D02*
G01Y1057910D01*
X1247688Y1079901D02*
G01X1250969D01*
X1247688D02*
G01Y1080696D01*
X1247844Y1081037*
X1248156Y1081264*
X1248469Y1081378*
X1248938Y1081492*
X1249719*
X1250188Y1081378*
X1250500Y1081264*
X1250813Y1081037*
X1250969Y1080696*
Y1079901*
X1248469Y1082628D02*
G01X1248313D01*
X1248000Y1082742*
X1247844Y1082855*
X1247688Y1083083*
Y1083537*
X1247844Y1083764*
X1248000Y1083878*
X1248313Y1083992*
X1248625*
X1248938Y1083878*
X1249406Y1083651*
X1250969Y1082514*
Y1084105*
X1250050Y1122954D02*
G01X1253331D01*
X1250050D02*
G01Y1123750D01*
X1250206Y1124091*
X1250519Y1124318*
X1250831Y1124431*
X1251300Y1124545*
X1252081*
X1252550Y1124431*
X1252862Y1124318*
X1253175Y1124091*
X1253331Y1123750*
Y1122954*
X1250050Y1127045D02*
G01Y1125909D01*
X1251456Y1125795*
X1251300Y1125909*
X1251144Y1126250*
Y1126591*
X1251300Y1126931*
X1251612Y1127159*
X1252081Y1127272*
X1252394Y1127159*
X1252862Y1127045*
X1253175Y1126818*
X1253331Y1126477*
Y1126136*
X1253175Y1125795*
X1253019Y1125681*
X1252706Y1125568*
X1327412Y1143540D02*
G01X1330693D01*
X1327412D02*
G01Y1144336D01*
X1327568Y1144677*
X1327881Y1144904*
X1328193Y1145018*
X1328662Y1145131*
X1329443*
X1329912Y1145018*
X1330225Y1144904*
X1330537Y1144677*
X1330693Y1144336*
Y1143540*
X1327881Y1147518D02*
G01X1327568Y1147404D01*
X1327412Y1147063*
Y1146836*
X1327568Y1146495*
X1328037Y1146268*
X1328818Y1146154*
X1329600*
X1330225Y1146268*
X1330537Y1146495*
X1330693Y1146836*
Y1146949*
X1330537Y1147290*
X1330225Y1147518*
X1329756Y1147631*
X1329600*
X1329131Y1147518*
X1328818Y1147290*
X1328662Y1146949*
Y1146836*
X1328818Y1146495*
X1329131Y1146268*
X1329600Y1146154*
X1021617Y1144242D02*
G01Y1140961D01*
Y1144242D02*
G01X1022413D01*
X1022753Y1144086*
X1022981Y1143773*
X1023094Y1143461*
X1023208Y1142992*
Y1142211*
X1023094Y1141742*
X1022981Y1141429*
X1022753Y1141117*
X1022413Y1140961*
X1021617*
X1024231Y1143617D02*
G01X1024458Y1143773D01*
X1024799Y1144242*
Y1140961*
X1026049Y1144242D02*
G01X1027299D01*
X1026617Y1142992*
X1026958*
X1027185Y1142836*
X1027299Y1142679*
X1027413Y1142211*
Y1141898*
X1027299Y1141429*
X1027072Y1141117*
X1026731Y1140961*
X1026390*
X1026049Y1141117*
X1025935Y1141273*
X1025822Y1141586*
X1023923Y1149360D02*
G01Y1146079D01*
Y1149360D02*
G01X1024718D01*
X1025059Y1149204*
X1025286Y1148891*
X1025400Y1148579*
X1025513Y1148110*
Y1147329*
X1025400Y1146860*
X1025286Y1146547*
X1025059Y1146235*
X1024718Y1146079*
X1023923*
X1026536Y1148735D02*
G01X1026763Y1148891D01*
X1027104Y1149360*
Y1146079*
X1029263Y1149360D02*
G01X1028127Y1147172D01*
X1029832*
X1029263Y1149360D02*
G01Y1146079D01*
X1023923Y1158415D02*
G01Y1155134D01*
Y1158415D02*
G01X1024718D01*
X1025059Y1158259*
X1025286Y1157946*
X1025400Y1157634*
X1025513Y1157165*
Y1156384*
X1025400Y1155915*
X1025286Y1155602*
X1025059Y1155290*
X1024718Y1155134*
X1023923*
X1026536Y1157790D02*
G01X1026763Y1157946D01*
X1027104Y1158415*
Y1155134*
X1029604Y1158415D02*
G01X1028468D01*
X1028354Y1157009*
X1028468Y1157165*
X1028809Y1157321*
X1029150*
X1029491Y1157165*
X1029718Y1156852*
X1029832Y1156384*
X1029718Y1156071*
X1029604Y1155602*
X1029377Y1155290*
X1029036Y1155134*
X1028695*
X1028354Y1155290*
X1028241Y1155446*
X1028127Y1155759*
X1252194Y1068257D02*
G01Y1064976D01*
Y1068257D02*
G01X1252989D01*
X1253330Y1068101*
X1253557Y1067789*
X1253671Y1067476*
X1253785Y1067007*
Y1066226*
X1253671Y1065757*
X1253557Y1065445*
X1253330Y1065132*
X1252989Y1064976*
X1252194*
X1254807Y1067632D02*
G01X1255035Y1067789D01*
X1255375Y1068257*
Y1064976*
X1257762Y1067789D02*
G01X1257648Y1068101D01*
X1257307Y1068257*
X1257080*
X1256739Y1068101*
X1256512Y1067632*
X1256398Y1066851*
Y1066070*
X1256512Y1065445*
X1256739Y1065132*
X1257080Y1064976*
X1257194*
X1257535Y1065132*
X1257762Y1065445*
X1257875Y1065914*
Y1066070*
X1257762Y1066539*
X1257535Y1066851*
X1257194Y1067007*
X1257080*
X1256739Y1066851*
X1256512Y1066539*
X1256398Y1066070*
X1322225Y1061328D02*
G01Y1058047D01*
Y1061328D02*
G01X1323020D01*
X1323361Y1061172*
X1323589Y1060859*
X1323702Y1060547*
X1323816Y1060078*
Y1059297*
X1323702Y1058828*
X1323589Y1058516*
X1323361Y1058203*
X1323020Y1058047*
X1322225*
X1324839Y1060703D02*
G01X1325066Y1060859D01*
X1325407Y1061328*
Y1058047*
X1328020Y1061328D02*
G01X1326884Y1058047D01*
X1326430Y1061328D02*
G01X1328020D01*
X1003564Y1110777D02*
G01Y1107495D01*
Y1110777D02*
G01X1004359D01*
X1004700Y1110620*
X1004927Y1110308*
X1005041Y1109995*
X1005155Y1109527*
Y1108745*
X1005041Y1108277*
X1004927Y1107964*
X1004700Y1107652*
X1004359Y1107495*
X1003564*
X1006177Y1110152D02*
G01X1006405Y1110308D01*
X1006746Y1110777*
Y1107495*
X1009246Y1109683D02*
G01X1009132Y1109214D01*
X1008905Y1108902*
X1008564Y1108745*
X1008450*
X1008109Y1108902*
X1007882Y1109214*
X1007768Y1109683*
Y1109839*
X1007882Y1110308*
X1008109Y1110620*
X1008450Y1110777*
X1008564*
X1008905Y1110620*
X1009132Y1110308*
X1009246Y1109683*
Y1108902*
X1009132Y1108120*
X1008905Y1107652*
X1008564Y1107495*
X1008336*
X1007996Y1107652*
X1007882Y1107964*
X1003389Y1115502D02*
G01Y1112221D01*
Y1115502D02*
G01X1004185D01*
X1004526Y1115346*
X1004753Y1115033*
X1004867Y1114721*
X1004980Y1114252*
Y1113471*
X1004867Y1113002*
X1004753Y1112689*
X1004526Y1112377*
X1004185Y1112221*
X1003389*
X1006117Y1114721D02*
G01Y1114877D01*
X1006230Y1115189*
X1006344Y1115346*
X1006571Y1115502*
X1007026*
X1007253Y1115346*
X1007367Y1115189*
X1007480Y1114877*
Y1114564*
X1007367Y1114252*
X1007139Y1113783*
X1006003Y1112221*
X1007594*
X1009298Y1115502D02*
G01X1008957Y1115346D01*
X1008730Y1114877*
X1008617Y1114096*
Y1113627*
X1008730Y1112846*
X1008957Y1112377*
X1009298Y1112221*
X1009526*
X1009867Y1112377*
X1010094Y1112846*
X1010207Y1113627*
Y1114096*
X1010094Y1114877*
X1009867Y1115346*
X1009526Y1115502*
X1009298*
X1064532Y1163139D02*
G01Y1160639D01*
X1064418Y1160170*
X1064305Y1160014*
X1064078Y1159858*
X1063850*
X1063623Y1160014*
X1063509Y1160170*
X1063396Y1160639*
Y1160952*
X1065668Y1162358D02*
G01Y1162514D01*
X1065782Y1162827*
X1065896Y1162983*
X1066123Y1163139*
X1066578*
X1066805Y1162983*
X1066918Y1162827*
X1067032Y1162514*
Y1162202*
X1066918Y1161889*
X1066691Y1161420*
X1065555Y1159858*
X1067146*
X1157052Y1046604D02*
G01Y1044104D01*
X1156938Y1043635*
X1156825Y1043479*
X1156597Y1043322*
X1156370*
X1156143Y1043479*
X1156029Y1043635*
X1155915Y1044104*
Y1044416*
X1158302Y1046604D02*
G01X1159552D01*
X1158870Y1045354*
X1159211*
X1159438Y1045197*
X1159552Y1045041*
X1159665Y1044572*
Y1044260*
X1159552Y1043791*
X1159325Y1043479*
X1158984Y1043322*
X1158643*
X1158302Y1043479*
X1158188Y1043635*
X1158075Y1043947*
X1114463Y1053297D02*
G01Y1050015D01*
X1115827*
X1117077Y1053297D02*
G01X1118327D01*
X1117645Y1052047*
X1117986*
X1118213Y1051890*
X1118327Y1051734*
X1118441Y1051265*
Y1051265D02*
G01Y1050953D01*
Y1050953D02*
G01X1118327Y1050484D01*
X1118100Y1050172*
X1117759Y1050015*
X1117418*
X1117077Y1050172*
X1116963Y1050328*
X1116850Y1050640*
X1143147Y1053297D02*
G01Y1050015D01*
X1144510*
X1146669Y1053297D02*
G01X1145533Y1051109D01*
X1147237*
X1146669Y1053297D02*
G01Y1050015D01*
X1086651Y1053100D02*
G01Y1049819D01*
Y1049819D02*
G01X1088014D01*
X1090514Y1053100D02*
G01X1089378D01*
X1089264Y1051694*
X1089378Y1051850*
X1089719Y1052006*
X1090060*
X1090401Y1051850*
Y1051850D02*
G01X1090628Y1051537D01*
X1090741Y1051069*
X1090628Y1050756*
X1090514Y1050287*
X1090287Y1049975*
X1089946Y1049819*
X1089605*
X1089264Y1049975*
X1089151Y1050131*
Y1050131D02*
G01X1089037Y1050444D01*
X1038300Y1240698D02*
G01Y1238354D01*
X1038414Y1237886*
X1038641Y1237573*
X1038982Y1237417*
X1039210*
X1039550Y1237573*
X1039778Y1237886*
X1039891Y1238354*
Y1240698*
X1040914Y1240073D02*
G01X1041141Y1240229D01*
X1041482Y1240698*
Y1237417*
X1043641Y1240698D02*
G01X1042505Y1238511D01*
X1044210*
X1043641Y1240698D02*
G01Y1237417D01*
X1305772Y1048500D02*
G01X1309053D01*
X1305772D02*
G01Y1049523D01*
X1305928Y1049864*
X1306084Y1049977*
X1306397Y1050091*
X1306709*
X1307022Y1049977*
X1307178Y1049864*
X1307334Y1049523*
Y1048500*
Y1049295D02*
G01X1309053Y1050091D01*
X1305772Y1052591D02*
G01Y1051455D01*
X1307178Y1051341*
X1307022Y1051455*
X1306866Y1051795*
Y1052136*
X1307022Y1052477*
X1307334Y1052705*
X1307803Y1052818*
X1308116Y1052705*
X1308584Y1052591*
X1308897Y1052364*
X1309053Y1052023*
Y1051682*
X1308897Y1051341*
X1308741Y1051227*
X1308428Y1051114*
X1305772Y1055318D02*
G01Y1054182D01*
X1307178Y1054068*
X1307022Y1054182*
X1306866Y1054523*
Y1054864*
X1307022Y1055205*
X1307334Y1055432*
X1307803Y1055545*
X1308116Y1055432*
X1308584Y1055318*
X1308897Y1055091*
X1309053Y1054750*
Y1054409*
X1308897Y1054068*
X1308741Y1053955*
X1308428Y1053841*
X1265068Y1113533D02*
G01Y1110252D01*
Y1113533D02*
G01X1266091D01*
X1266432Y1113377*
X1266545Y1113220*
X1266659Y1112908*
Y1112595*
X1266545Y1112283*
X1266432Y1112127*
X1266091Y1111970*
X1265068*
X1265864D02*
G01X1266659Y1110252D01*
X1267795Y1112752D02*
G01Y1112908D01*
X1267909Y1113220*
X1268023Y1113377*
X1268250Y1113533*
X1268704*
X1268932Y1113377*
X1269045Y1113220*
X1269159Y1112908*
Y1112595*
X1269045Y1112283*
X1268818Y1111814*
X1267682Y1110252*
X1269273*
X1271659Y1113064D02*
G01X1271545Y1113377D01*
X1271204Y1113533*
X1270977*
X1270636Y1113377*
X1270409Y1112908*
X1270295Y1112127*
Y1111345*
X1270409Y1110720*
X1270636Y1110408*
X1270977Y1110252*
X1271091*
X1271432Y1110408*
X1271659Y1110720*
X1271773Y1111189*
Y1111345*
X1271659Y1111814*
X1271432Y1112127*
X1271091Y1112283*
X1270977*
X1270636Y1112127*
X1270409Y1111814*
X1270295Y1111345*
X1265011Y1119438D02*
G01Y1116157D01*
Y1119438D02*
G01X1266034D01*
X1266375Y1119282*
X1266489Y1119126*
X1266602Y1118813*
Y1118501*
X1266489Y1118188*
X1266375Y1118032*
X1266034Y1117876*
X1265011*
X1265807D02*
G01X1266602Y1116157D01*
X1267739Y1118657D02*
G01Y1118813D01*
X1267852Y1119126*
X1267966Y1119282*
X1268193Y1119438*
X1268648*
X1268875Y1119282*
X1268989Y1119126*
X1269102Y1118813*
Y1118501*
X1268989Y1118188*
X1268761Y1117720*
X1267625Y1116157*
X1269216*
X1270807Y1119438D02*
G01X1270466Y1119282D01*
X1270352Y1118970*
Y1118657*
X1270466Y1118345*
X1270693Y1118188*
X1271148Y1118032*
X1271489Y1117876*
X1271716Y1117563*
X1271829Y1117251*
Y1116782*
X1271716Y1116470*
X1271602Y1116313*
X1271261Y1116157*
X1270807*
X1270466Y1116313*
X1270352Y1116470*
X1270239Y1116782*
Y1117251*
X1270352Y1117563*
X1270579Y1117876*
X1270920Y1118032*
X1271375Y1118188*
X1271602Y1118345*
X1271716Y1118657*
Y1118970*
X1271602Y1119282*
X1271261Y1119438*
X1270807*
X1085877Y1182824D02*
G01Y1179543D01*
Y1182824D02*
G01X1086900D01*
X1087241Y1182668*
X1087355Y1182512*
X1087468Y1182199*
Y1181887*
X1087355Y1181574*
X1087241Y1181418*
X1086900Y1181262*
X1085877*
X1086673D02*
G01X1087468Y1179543D01*
X1088718Y1182824D02*
G01X1089968D01*
X1089287Y1181574*
X1089627*
X1089855Y1181418*
X1089968Y1181262*
X1090082Y1180793*
Y1180480*
X1089968Y1180012*
X1089741Y1179699*
X1089400Y1179543*
X1089059*
X1088718Y1179699*
X1088605Y1179855*
X1088491Y1180168*
X1091787Y1182824D02*
G01X1091446Y1182668D01*
X1091218Y1182199*
X1091105Y1181418*
Y1180949*
X1091218Y1180168*
X1091446Y1179699*
X1091787Y1179543*
X1092014*
X1092355Y1179699*
X1092582Y1180168*
X1092696Y1180949*
Y1181418*
X1092582Y1182199*
X1092355Y1182668*
X1092014Y1182824*
X1091787*
X1325837Y1099263D02*
G01X1329118D01*
X1325837D02*
G01Y1100286D01*
X1325993Y1100627*
X1326150Y1100741*
X1326462Y1100854*
X1326775*
X1327087Y1100741*
X1327243Y1100627*
X1327400Y1100286*
Y1099263*
Y1100059D02*
G01X1329118Y1100854D01*
X1325837Y1102104D02*
G01Y1103354D01*
X1327087Y1102672*
Y1103013*
X1327243Y1103241*
X1327400Y1103354*
X1327868Y1103468*
X1328181*
X1328650Y1103354*
X1328962Y1103127*
X1329118Y1102786*
Y1102445*
X1328962Y1102104*
X1328806Y1101991*
X1328493Y1101877*
X1326618Y1104604D02*
G01X1326462D01*
X1326150Y1104718*
X1325993Y1104831*
X1325837Y1105059*
Y1105513*
X1325993Y1105741*
X1326150Y1105854*
X1326462Y1105968*
X1326775*
X1327087Y1105854*
X1327556Y1105627*
X1329118Y1104491*
Y1106081*
X1053396Y1051118D02*
G01X1056678D01*
X1053396D02*
G01Y1052141D01*
X1053553Y1052482*
X1053709Y1052595*
X1054021Y1052709*
X1054334*
X1054646Y1052595*
X1054803Y1052482*
X1054959Y1052141*
Y1051118*
Y1051914D02*
G01X1056678Y1052709D01*
X1053396Y1054868D02*
G01X1055584Y1053732D01*
Y1055436*
X1053396Y1054868D02*
G01X1056678D01*
X1053396Y1057936D02*
G01Y1056800D01*
X1054803Y1056686*
X1054646Y1056800*
X1054490Y1057141*
Y1057482*
X1054646Y1057823*
X1054959Y1058050*
X1055428Y1058164*
X1055740Y1058050*
X1056209Y1057936*
X1056521Y1057709*
X1056678Y1057368*
Y1057027*
X1056521Y1056686*
X1056365Y1056573*
X1056053Y1056459*
X1282200Y1060628D02*
G01Y1057347D01*
Y1060628D02*
G01X1283223D01*
X1283564Y1060472*
X1283677Y1060316*
X1283791Y1060003*
Y1059691*
X1283677Y1059378*
X1283564Y1059222*
X1283223Y1059066*
X1282200*
X1282995D02*
G01X1283791Y1057347D01*
X1286291Y1060628D02*
G01X1285155D01*
X1285041Y1059222*
X1285155Y1059378*
X1285495Y1059534*
X1285836*
X1286177Y1059378*
X1286405Y1059066*
X1286518Y1058597*
X1286405Y1058284*
X1286291Y1057816*
X1286064Y1057503*
X1285723Y1057347*
X1285382*
X1285041Y1057503*
X1284927Y1057659*
X1284814Y1057972*
X1288677Y1060628D02*
G01X1287541Y1058441D01*
X1289245*
X1288677Y1060628D02*
G01Y1057347D01*
X1326231Y1111805D02*
G01X1329512D01*
X1326231D02*
G01Y1112828D01*
X1326387Y1113168*
X1326543Y1113282*
X1326856Y1113396*
X1327168*
X1327481Y1113282*
X1327637Y1113168*
X1327793Y1112828*
Y1111805*
Y1112600D02*
G01X1329512Y1113396D01*
X1326231Y1114646D02*
G01Y1115896D01*
X1327481Y1115214*
Y1115555*
X1327637Y1115782*
X1327793Y1115896*
X1328262Y1116009*
X1328575*
X1329043Y1115896*
X1329356Y1115668*
X1329512Y1115328*
Y1114987*
X1329356Y1114646*
X1329200Y1114532*
X1328887Y1114418*
X1326231Y1118168D02*
G01X1328418Y1117032D01*
Y1118737*
X1326231Y1118168D02*
G01X1329512D01*
X1096625Y1078100D02*
G01Y1074819D01*
Y1078100D02*
G01X1097648D01*
X1097989Y1077944*
X1098102Y1077787*
X1098216Y1077475*
Y1077162*
X1098102Y1076850*
X1097989Y1076694*
X1097648Y1076537*
X1096625*
X1097420D02*
G01X1098216Y1074819D01*
X1099239Y1078100D02*
G01Y1074819D01*
Y1078100D02*
G01X1100261D01*
X1100602Y1077944*
X1100716Y1077787*
X1100830Y1077475*
Y1077006*
X1100716Y1076694*
X1100602Y1076537*
X1100261Y1076381*
X1099239*
X1101852Y1077475D02*
G01X1102080Y1077631D01*
X1102420Y1078100*
Y1074819*
X1036531Y1229600D02*
G01X1036303Y1229912D01*
X1035962Y1230068*
X1035508*
X1035167Y1229912*
X1034940Y1229600*
Y1229287*
X1035053Y1228975*
X1035167Y1228818*
X1035394Y1228662*
X1036076Y1228350*
X1036303Y1228193*
X1036417Y1228037*
X1036531Y1227725*
Y1227256*
X1036303Y1226943*
X1035962Y1226787*
X1035508*
X1035167Y1226943*
X1034940Y1227256*
X1037553Y1229443D02*
G01X1037781Y1229600D01*
X1038122Y1230068*
Y1226787*
X1171444Y1171726D02*
G01X1171217Y1172038D01*
X1170876Y1172194*
X1170422*
X1170081Y1172038*
X1169853Y1171726*
Y1171413*
X1169967Y1171101*
X1170081Y1170944*
X1170308Y1170788*
X1170990Y1170476*
X1171217Y1170319*
X1171331Y1170163*
X1171444Y1169851*
Y1169382*
X1171217Y1169069*
X1170876Y1168913*
X1170422*
X1170081Y1169069*
X1169853Y1169382*
X1173262Y1172194D02*
G01Y1168913D01*
X1172467Y1172194D02*
G01X1174058D01*
X1175081Y1171569D02*
G01X1175308Y1171726D01*
X1175649Y1172194*
Y1168913*
X1171917Y1108340D02*
G01X1171690Y1108652D01*
X1171349Y1108808*
X1170894*
X1170554Y1108652*
X1170326Y1108340*
Y1108027*
X1170440Y1107715*
X1170554Y1107558*
X1170781Y1107402*
X1171463Y1107090*
X1171690Y1106933*
X1171804Y1106777*
X1171917Y1106465*
Y1105996*
X1171690Y1105683*
X1171349Y1105527*
X1170894*
X1170554Y1105683*
X1170326Y1105996*
X1173735Y1108808D02*
G01Y1105527D01*
X1172940Y1108808D02*
G01X1174531D01*
X1175667Y1108027D02*
G01Y1108183D01*
X1175781Y1108496*
X1175894Y1108652*
X1176122Y1108808*
X1176576*
X1176804Y1108652*
X1176917Y1108496*
X1177031Y1108183*
Y1107871*
X1176917Y1107558*
X1176690Y1107090*
X1175554Y1105527*
X1177144*
X1127232Y1186292D02*
G01X1127005Y1186605D01*
X1126664Y1186761*
X1126209*
X1125868Y1186605*
X1125641Y1186292*
Y1185980*
X1125755Y1185667*
X1125868Y1185511*
X1126096Y1185355*
X1126778Y1185042*
X1127005Y1184886*
X1127118Y1184730*
X1127232Y1184417*
Y1183949*
X1127005Y1183636*
X1126664Y1183480*
X1126209*
X1125868Y1183636*
X1125641Y1183949*
X1129050Y1186761D02*
G01Y1183480D01*
X1128255Y1186761D02*
G01X1129846D01*
X1132459D02*
G01X1131323Y1183480D01*
X1130868Y1186761D02*
G01X1132459D01*
X1171663Y1128025D02*
G01X1171436Y1128337D01*
X1171095Y1128493*
X1170641*
X1170300Y1128337*
X1170073Y1128025*
Y1127712*
X1170186Y1127400*
X1170300Y1127243*
X1170527Y1127087*
X1171209Y1126775*
X1171436Y1126618*
X1171550Y1126462*
X1171663Y1126150*
Y1125681*
X1171436Y1125368*
X1171095Y1125212*
X1170641*
X1170300Y1125368*
X1170073Y1125681*
X1173482Y1128493D02*
G01Y1125212D01*
X1172686Y1128493D02*
G01X1174277D01*
X1176436D02*
G01X1175300Y1126306D01*
X1177004*
X1176436Y1128493D02*
G01Y1125212D01*
X1099336Y1186292D02*
G01X1099109Y1186605D01*
X1098768Y1186761*
X1098313*
X1097973Y1186605*
X1097745Y1186292*
Y1185980*
X1097859Y1185667*
X1097973Y1185511*
X1098200Y1185355*
X1098882Y1185042*
X1099109Y1184886*
X1099223Y1184730*
X1099336Y1184417*
Y1183949*
X1099109Y1183636*
X1098768Y1183480*
X1098313*
X1097973Y1183636*
X1097745Y1183949*
X1101154Y1186761D02*
G01Y1183480D01*
X1100359Y1186761D02*
G01X1101950D01*
X1104450Y1185667D02*
G01X1104336Y1185199D01*
X1104109Y1184886*
X1103768Y1184730*
X1103654*
X1103313Y1184886*
X1103086Y1185199*
X1102973Y1185667*
Y1185824*
X1103086Y1186292*
X1103313Y1186605*
X1103654Y1186761*
X1103768*
X1104109Y1186605*
X1104336Y1186292*
X1104450Y1185667*
Y1184886*
X1104336Y1184105*
X1104109Y1183636*
X1103768Y1183480*
X1103541*
X1103200Y1183636*
X1103086Y1183949*
X1177289Y1086883D02*
G01X1177062Y1087195D01*
Y1087195D02*
G01X1176721Y1087352D01*
X1176266*
X1175925Y1087195*
Y1087195D02*
G01X1175698Y1086883D01*
Y1086570*
Y1086570D02*
G01X1175812Y1086258D01*
X1175925Y1086102*
X1176153Y1085945*
X1176834Y1085633*
X1177062Y1085477*
X1177175Y1085320*
X1177289Y1085008*
Y1084539*
X1177062Y1084227*
X1176721Y1084070*
X1176266*
X1175925Y1084227*
X1175698Y1084539*
X1179107Y1087352D02*
G01Y1084070D01*
X1178312Y1087352D02*
G01X1179903D01*
X1182289Y1086883D02*
G01X1182175Y1087195D01*
Y1087195D02*
G01X1181834Y1087352D01*
X1181607*
X1181266Y1087195*
Y1087195D02*
G01X1181039Y1086727D01*
X1180925Y1085945*
Y1085164*
X1181039Y1084539*
X1181266Y1084227*
X1181607Y1084070*
X1181721*
X1182062Y1084227*
X1182289Y1084539*
X1182403Y1085008*
Y1085164*
X1182289Y1085633*
X1182062Y1085945*
X1181721Y1086102*
X1181607*
X1181266Y1085945*
X1181039Y1085633*
X1180925Y1085164*
X1073295Y1187867D02*
G01X1073068Y1188180D01*
X1072727Y1188336*
X1072272*
X1071931Y1188180*
X1071704Y1187867*
Y1187555*
X1071818Y1187242*
X1071931Y1187086*
X1072159Y1186930*
X1072841Y1186617*
X1073068Y1186461*
X1073181Y1186305*
X1073295Y1185992*
Y1185523*
Y1185523D02*
G01X1073068Y1185211D01*
X1072727Y1185055*
X1072272*
X1071931Y1185211*
X1071704Y1185523*
X1075113Y1188336D02*
G01Y1185055D01*
X1074318Y1188336D02*
G01X1075909D01*
X1077159D02*
G01X1078409D01*
X1077727Y1187086*
X1078068*
X1078295Y1186930*
X1078409Y1186773*
Y1186773D02*
G01X1078522Y1186305D01*
Y1185992*
X1078409Y1185523*
Y1185523D02*
G01X1078181Y1185211D01*
X1077841Y1185055*
X1077500*
X1077159Y1185211*
X1077045Y1185367*
X1076931Y1185680*
X1073295Y1192592D02*
G01X1073068Y1192904D01*
X1072727Y1193060*
X1072272*
X1071931Y1192904*
X1071704Y1192592*
Y1192279*
X1071818Y1191967*
X1071931Y1191810*
X1072159Y1191654*
X1072841Y1191342*
X1073068Y1191185*
X1073181Y1191029*
X1073295Y1190717*
Y1190248*
X1073068Y1189935*
X1072727Y1189779*
X1072272*
X1071931Y1189935*
X1071704Y1190248*
X1075113Y1193060D02*
G01Y1189779D01*
X1074318Y1193060D02*
G01X1075909D01*
X1077500D02*
G01X1077159Y1192904D01*
X1077045Y1192592*
Y1192279*
X1077159Y1191967*
X1077386Y1191810*
X1077841Y1191654*
X1078181Y1191498*
X1078409Y1191185*
X1078522Y1190873*
Y1190404*
X1078409Y1190092*
X1078295Y1189935*
X1077954Y1189779*
X1077500*
X1077159Y1189935*
X1077045Y1190092*
X1076931Y1190404*
Y1190873*
X1077045Y1191185*
X1077272Y1191498*
X1077613Y1191654*
X1078068Y1191810*
X1078295Y1191967*
X1078409Y1192279*
Y1192592*
X1078295Y1192904*
X1077954Y1193060*
X1077500*
X1073238Y1263458D02*
G01X1073011Y1263770D01*
X1072670Y1263927*
X1072216*
X1071875Y1263770*
X1071647Y1263458*
Y1263145*
X1071761Y1262833*
X1071875Y1262677*
X1072102Y1262520*
X1072784Y1262208*
X1073011Y1262052*
X1073125Y1261895*
X1073238Y1261583*
Y1261114*
X1073011Y1260802*
X1072670Y1260645*
X1072216*
X1071875Y1260802*
X1071647Y1261114*
X1075056Y1263927D02*
G01Y1260645D01*
X1074261Y1263927D02*
G01X1075852D01*
X1078352D02*
G01X1077216D01*
X1077102Y1262520*
X1077216Y1262677*
X1077556Y1262833*
X1077897*
X1078238Y1262677*
X1078466Y1262364*
X1078579Y1261895*
X1078466Y1261583*
X1078352Y1261114*
X1078125Y1260802*
X1077784Y1260645*
X1077443*
X1077102Y1260802*
X1076988Y1260958*
X1076875Y1261270*
X1090216Y1082824D02*
G01Y1079543D01*
X1089421Y1082824D02*
G01X1091012D01*
X1092034D02*
G01Y1079543D01*
Y1082824D02*
G01X1093057D01*
X1093398Y1082668*
X1093512Y1082512*
X1093625Y1082199*
Y1081730*
X1093512Y1081418*
X1093398Y1081262*
X1093057Y1081105*
X1092034*
X1094762Y1082043D02*
G01Y1082199D01*
X1094875Y1082512*
X1094989Y1082668*
X1095216Y1082824*
X1095671*
X1095898Y1082668*
X1096012Y1082512*
X1096125Y1082199*
Y1081887*
X1096012Y1081574*
X1095784Y1081105*
X1094648Y1079543*
X1096239*
X1109114Y1083612D02*
G01Y1080330D01*
X1108318Y1083612D02*
G01X1109909D01*
X1110932D02*
G01Y1080330D01*
Y1083612D02*
G01X1111955D01*
X1112296Y1083455*
X1112409Y1083299*
X1112523Y1082987*
Y1082518*
X1112409Y1082205*
X1112296Y1082049*
X1111955Y1081893*
X1110932*
X1113773Y1083612D02*
G01X1115023D01*
X1114341Y1082362*
X1114682*
X1114909Y1082205*
X1115023Y1082049*
X1115137Y1081580*
Y1081268*
X1115023Y1080799*
X1114796Y1080487*
X1114455Y1080330*
X1114114*
X1113773Y1080487*
X1113659Y1080643*
X1113546Y1080955*
X1070325Y1146966D02*
G01X1073607D01*
X1070325Y1146170D02*
G01Y1147761D01*
Y1148784D02*
G01X1073607D01*
X1070325D02*
G01Y1149807D01*
X1070482Y1150148*
X1070638Y1150261*
X1070950Y1150375*
X1071419*
X1071732Y1150261*
X1071888Y1150148*
X1072044Y1149807*
Y1148784*
X1070794Y1152761D02*
G01X1070482Y1152648D01*
X1070325Y1152307*
Y1152080*
X1070482Y1151739*
X1070950Y1151511*
X1071732Y1151398*
X1072513*
X1073138Y1151511*
X1073450Y1151739*
X1073607Y1152080*
Y1152193*
X1073450Y1152534*
X1073138Y1152761*
X1072669Y1152875*
X1072513*
X1072044Y1152761*
X1071732Y1152534*
X1071575Y1152193*
Y1152080*
X1071732Y1151739*
X1072044Y1151511*
X1072513Y1151398*
X1247884Y1147303D02*
G01X1251166D01*
X1247884Y1146507D02*
G01Y1148098D01*
Y1149121D02*
G01X1251166D01*
X1247884D02*
G01Y1150144D01*
X1248041Y1150485*
X1248197Y1150598*
X1248509Y1150712*
X1248978*
X1249291Y1150598*
X1249447Y1150485*
X1249603Y1150144*
Y1149121*
X1247884Y1153326D02*
G01X1251166Y1152189D01*
X1247884Y1151735D02*
G01Y1153326D01*
X1173869Y1161533D02*
G01X1177150D01*
X1173869Y1160737D02*
G01Y1162328D01*
Y1163351D02*
G01X1177150D01*
X1173869D02*
G01Y1164374D01*
X1174025Y1164715*
X1174181Y1164828*
X1174494Y1164942*
X1174962*
X1175275Y1164828*
X1175431Y1164715*
X1175587Y1164374*
Y1163351*
X1174962Y1167442D02*
G01X1175431Y1167328D01*
X1175744Y1167101*
X1175900Y1166760*
Y1166646*
X1175744Y1166306*
X1175431Y1166078*
X1174962Y1165965*
X1174806*
X1174337Y1166078*
X1174025Y1166306*
X1173869Y1166646*
Y1166760*
X1174025Y1167101*
X1174337Y1167328*
X1174962Y1167442*
X1175744*
X1176525Y1167328*
X1176994Y1167101*
X1177150Y1166760*
Y1166533*
X1176994Y1166192*
X1176681Y1166078*
X1173672Y1134106D02*
G01X1176953D01*
X1173672Y1133310D02*
G01Y1134901D01*
Y1135924D02*
G01X1176953D01*
X1173672D02*
G01Y1136947D01*
X1173828Y1137288*
X1173984Y1137401*
X1174297Y1137515*
X1174766*
X1175078Y1137401*
X1175234Y1137288*
X1175391Y1136947*
Y1135924*
X1174297Y1138538D02*
G01X1174141Y1138765D01*
X1173672Y1139106*
X1176953*
X1173672Y1140810D02*
G01X1173828Y1140469D01*
X1174297Y1140242*
X1175078Y1140128*
X1175547*
X1176328Y1140242*
X1176797Y1140469*
X1176953Y1140810*
Y1141038*
X1176797Y1141378*
X1176328Y1141606*
X1175547Y1141719*
X1175078*
X1174297Y1141606*
X1173828Y1141378*
X1173672Y1141038*
Y1140810*
X1167176Y1134420D02*
G01X1170457D01*
X1167176Y1133625D02*
G01Y1135216D01*
Y1136238D02*
G01X1170457D01*
X1167176D02*
G01Y1137261D01*
X1167332Y1137602*
X1167488Y1137716*
X1167801Y1137829*
X1168270*
X1168582Y1137716*
X1168738Y1137602*
X1168895Y1137261*
Y1136238*
X1167801Y1138852D02*
G01X1167645Y1139079D01*
X1167176Y1139420*
X1170457*
X1167801Y1140443D02*
G01X1167645Y1140670D01*
X1167176Y1141011*
X1170457*
X1043160Y1109499D02*
G01X1046441D01*
X1043160Y1108704D02*
G01Y1110295D01*
Y1111318D02*
G01X1046441D01*
X1043160D02*
G01Y1112340D01*
X1043316Y1112681*
X1043473Y1112795*
X1043785Y1112909*
X1044254*
X1044566Y1112795*
X1044723Y1112681*
X1044879Y1112340*
Y1111318*
X1043785Y1113931D02*
G01X1043629Y1114159D01*
X1043160Y1114499*
X1046441*
X1043160Y1115749D02*
G01Y1116999D01*
X1044410Y1116318*
Y1116659*
X1044566Y1116886*
X1044723Y1116999*
X1045191Y1117113*
X1045504*
X1045973Y1116999*
X1046285Y1116772*
X1046441Y1116431*
Y1116090*
X1046285Y1115749*
X1046129Y1115636*
X1045816Y1115522*
X1047884Y1109443D02*
G01X1051166D01*
X1047884Y1108647D02*
G01Y1110238D01*
Y1111261D02*
G01X1051166D01*
X1047884D02*
G01Y1112284D01*
X1048041Y1112624*
X1048197Y1112738*
X1048509Y1112852*
X1048978*
X1049291Y1112738*
X1049447Y1112624*
X1049603Y1112284*
Y1111261*
X1048509Y1113874D02*
G01X1048353Y1114102D01*
X1047884Y1114443*
X1051166*
X1047884Y1116602D02*
G01X1050072Y1115465D01*
Y1117170*
X1047884Y1116602D02*
G01X1051166D01*
X1052609Y1109443D02*
G01X1055890D01*
X1052609Y1108647D02*
G01Y1110238D01*
Y1111261D02*
G01X1055890D01*
X1052609D02*
G01Y1112284D01*
X1052765Y1112624*
X1052921Y1112738*
X1053234Y1112852*
X1053703*
X1054015Y1112738*
X1054171Y1112624*
X1054328Y1112284*
Y1111261*
X1053234Y1113874D02*
G01X1053078Y1114102D01*
X1052609Y1114443*
X1055890*
X1052609Y1116943D02*
G01Y1115806D01*
X1054015Y1115693*
X1053859Y1115806*
X1053703Y1116147*
Y1116488*
X1053859Y1116829*
X1054171Y1117056*
X1054640Y1117170*
X1054953Y1117056*
X1055421Y1116943*
X1055734Y1116715*
X1055890Y1116374*
Y1116034*
X1055734Y1115693*
X1055578Y1115579*
X1055265Y1115465*
X1038436Y1109556D02*
G01X1041717D01*
X1038436Y1108761D02*
G01Y1110352D01*
Y1111374D02*
G01X1041717D01*
X1038436D02*
G01Y1112397D01*
X1038592Y1112738*
X1038748Y1112852*
X1039061Y1112965*
X1039529*
X1039842Y1112852*
X1039998Y1112738*
X1040154Y1112397*
Y1111374*
X1039061Y1113988D02*
G01X1038904Y1114215D01*
X1038436Y1114556*
X1041717*
X1038904Y1116943D02*
G01X1038592Y1116829D01*
X1038436Y1116488*
Y1116261*
X1038592Y1115920*
X1039061Y1115693*
X1039842Y1115579*
X1040623*
X1041248Y1115693*
X1041561Y1115920*
X1041717Y1116261*
Y1116374*
X1041561Y1116715*
X1041248Y1116943*
X1040779Y1117056*
X1040623*
X1040154Y1116943*
X1039842Y1116715*
X1039686Y1116374*
Y1116261*
X1039842Y1115920*
X1040154Y1115693*
X1040623Y1115579*
X1307785Y1197785D02*
G01Y1194504D01*
X1306989Y1197785D02*
G01X1308580D01*
X1309603D02*
G01Y1194504D01*
Y1197785D02*
G01X1310626D01*
X1310966Y1197629*
X1311080Y1197472*
X1311194Y1197160*
Y1196691*
X1311080Y1196379*
X1310966Y1196222*
X1310626Y1196066*
X1309603*
X1312216Y1197160D02*
G01X1312444Y1197316D01*
X1312785Y1197785*
Y1194504*
X1315285Y1196691D02*
G01X1315171Y1196222D01*
X1314944Y1195910*
X1314603Y1195754*
X1314489*
X1314148Y1195910*
X1313921Y1196222*
X1313807Y1196691*
Y1196847*
X1313921Y1197316*
X1314148Y1197629*
X1314489Y1197785*
X1314603*
X1314944Y1197629*
X1315171Y1197316*
X1315285Y1196691*
Y1195910*
X1315171Y1195129*
X1314944Y1194660*
X1314603Y1194504*
X1314376*
X1314035Y1194660*
X1313921Y1194972*
X1036014Y1100828D02*
G01Y1097547D01*
X1035218Y1100828D02*
G01X1036809D01*
X1037832D02*
G01Y1097547D01*
Y1100828D02*
G01X1038855D01*
X1039195Y1100672*
X1039309Y1100516*
X1039423Y1100203*
Y1099734*
X1039309Y1099422*
X1039195Y1099266*
X1038855Y1099109*
X1037832*
X1040559Y1100047D02*
G01Y1100203D01*
X1040673Y1100516*
X1040786Y1100672*
X1041014Y1100828*
X1041468*
X1041695Y1100672*
X1041809Y1100516*
X1041923Y1100203*
Y1099891*
X1041809Y1099578*
X1041582Y1099109*
X1040445Y1097547*
X1042036*
X1043059Y1100203D02*
G01X1043286Y1100359D01*
X1043627Y1100828*
Y1097547*
X1159743Y1091092D02*
G01Y1088748D01*
X1159856Y1088279*
X1160084Y1087967*
X1160425Y1087811*
X1160652*
X1160993Y1087967*
X1161220Y1088279*
X1161334Y1088748*
Y1091092*
X1162356Y1090467D02*
G01X1162584Y1090623D01*
X1162925Y1091092*
Y1087811*
X1178860Y1174950D02*
G01Y1172606D01*
X1178973Y1172138*
X1179201Y1171825*
X1179542Y1171669*
X1179769*
X1180110Y1171825*
X1180337Y1172138*
X1180451Y1172606*
Y1174950*
X1182610D02*
G01X1181473Y1172763D01*
X1183178*
X1182610Y1174950D02*
G01Y1171669D01*
X1124643Y1264320D02*
G01Y1261977D01*
Y1261977D02*
G01X1124756Y1261508D01*
X1124984Y1261195*
X1125324Y1261039*
X1125552*
X1125893Y1261195*
X1126120Y1261508*
X1126234Y1261977*
Y1261977D02*
G01Y1264320D01*
X1128620Y1263852D02*
G01X1128506Y1264164D01*
X1128165Y1264320*
X1127938*
X1127597Y1264164*
X1127370Y1263695*
X1127256Y1262914*
Y1262133*
X1127370Y1261508*
X1127597Y1261195*
X1127938Y1261039*
X1128052*
X1128393Y1261195*
X1128620Y1261508*
X1128734Y1261977*
Y1261977D02*
G01Y1262133D01*
X1128620Y1262602*
Y1262602D02*
G01X1128393Y1262914D01*
X1128052Y1263070*
X1127938*
X1127597Y1262914*
X1127370Y1262602*
Y1262602D02*
G01X1127256Y1262133D01*
X1142696Y1263927D02*
G01Y1261583D01*
X1142810Y1261114*
X1143037Y1260802*
X1143378Y1260645*
X1143605*
X1143946Y1260802*
X1144173Y1261114*
X1144287Y1261583*
Y1263927*
X1145878D02*
G01X1145537Y1263770D01*
X1145423Y1263458*
Y1263145*
X1145537Y1262833*
X1145764Y1262677*
X1146219Y1262520*
X1146560Y1262364*
X1146787Y1262052*
X1146901Y1261739*
Y1261270*
X1146787Y1260958*
X1146673Y1260802*
X1146332Y1260645*
X1145878*
X1145537Y1260802*
X1145423Y1260958*
X1145310Y1261270*
Y1261739*
X1145423Y1262052*
X1145651Y1262364*
X1145991Y1262520*
Y1262520D02*
G01X1146446Y1262677D01*
X1146673Y1262833*
X1146787Y1263145*
Y1263458*
X1146673Y1263770*
X1146332Y1263927*
X1145878*
X1187176Y1058612D02*
G01Y1056268D01*
X1187290Y1055799*
X1187517Y1055487*
X1187858Y1055330*
X1188085*
X1188426Y1055487*
X1188653Y1055799*
X1188767Y1056268*
Y1058612*
X1189790Y1057987D02*
G01X1190017Y1058143D01*
X1190358Y1058612*
Y1055330*
X1192063Y1058612D02*
G01X1191722Y1058455D01*
X1191494Y1057987*
X1191381Y1057205*
Y1056737*
X1191494Y1055955*
X1191722Y1055487*
X1192063Y1055330*
X1192290*
X1192631Y1055487*
X1192858Y1055955*
X1192972Y1056737*
Y1057205*
X1192858Y1057987*
X1192631Y1058455*
X1192290Y1058612*
X1192063*
X1291585Y1100365D02*
G01X1293929D01*
X1294398Y1100479*
X1294710Y1100706*
X1294867Y1101047*
Y1101274*
X1294710Y1101615*
X1294398Y1101842*
X1293929Y1101956*
X1291585*
X1292210Y1102979D02*
G01X1292054Y1103206D01*
X1291585Y1103547*
X1294867*
X1291585Y1104797D02*
G01Y1106047D01*
X1292835Y1105365*
Y1105706*
X1292992Y1105933*
X1293148Y1106047*
X1293617Y1106161*
X1293929*
X1294398Y1106047*
X1294710Y1105820*
X1294867Y1105479*
Y1105138*
X1294710Y1104797*
X1294554Y1104683*
X1294242Y1104570*
X1044472Y1162549D02*
G01X1045381Y1160986D01*
Y1159267*
X1046290Y1162549D02*
G01X1045381Y1160986D01*
X1047313Y1161924D02*
G01X1047540Y1162080D01*
X1047881Y1162549*
Y1159267*
X1045338Y1142273D02*
G01X1046247Y1140711D01*
Y1138992*
X1047156Y1142273D02*
G01X1046247Y1140711D01*
X1048293Y1141492D02*
G01Y1141648D01*
X1048406Y1141961*
X1048520Y1142117*
X1048747Y1142273*
X1049202*
X1049429Y1142117*
X1049543Y1141961*
X1049656Y1141648*
Y1141336*
X1049543Y1141023*
X1049316Y1140554*
X1048179Y1138992*
X1049770*
X1008176Y1062116D02*
G01Y1059616D01*
X1008063Y1059147*
X1007949Y1058991*
X1007722Y1058834*
X1007494*
X1007267Y1058991*
X1007154Y1059147*
X1007040Y1059616*
Y1059928*
X1010335Y1062116D02*
G01X1009199Y1059928D01*
X1010904*
X1010335Y1062116D02*
G01Y1058834D01*
X1055623Y1075738D02*
G01Y1073394D01*
X1055737Y1072925*
X1055964Y1072613*
X1056305Y1072456*
X1056532*
X1056873Y1072613*
X1057101Y1072925*
X1057214Y1073394*
Y1075738*
X1058237Y1075113D02*
G01X1058464Y1075269D01*
X1058805Y1075738*
Y1072456*
X1061305Y1075738D02*
G01X1060169D01*
X1060055Y1074331*
X1060169Y1074488*
X1060510Y1074644*
X1060851*
X1061191Y1074488*
X1061419Y1074175*
X1061532Y1073706*
X1061419Y1073394*
X1061305Y1072925*
X1061078Y1072613*
X1060737Y1072456*
X1060396*
X1060055Y1072613*
X1059941Y1072769*
X1059828Y1073081*
X1169144Y1161594D02*
G01X1172426D01*
X1169144Y1160798D02*
G01Y1162389D01*
Y1163412D02*
G01X1172426D01*
X1169144D02*
G01Y1164435D01*
X1169301Y1164776*
Y1164776D02*
G01X1169457Y1164889D01*
X1169769Y1165003*
X1170238*
X1170551Y1164889*
X1170707Y1164776*
Y1164776D02*
G01X1170863Y1164435D01*
Y1163412*
X1169769Y1166026D02*
G01X1169613Y1166253D01*
X1169144Y1166594*
X1172426*
X1074018Y1082430D02*
G01Y1079149D01*
X1073222Y1082430D02*
G01X1074813D01*
X1075836D02*
G01Y1079149D01*
Y1082430D02*
G01X1076859D01*
X1077199Y1082274*
X1077313Y1082118*
X1077427Y1081805*
Y1081337*
X1077313Y1081024*
X1077199Y1080868*
X1076859Y1080712*
X1075836*
X1079586Y1082430D02*
G01X1078449Y1080243D01*
X1080154*
X1079586Y1082430D02*
G01Y1079149D01*
X1035877Y1185186D02*
G01Y1181905D01*
Y1185186D02*
G01X1036900D01*
X1037241Y1185030*
X1037355Y1184874*
X1037468Y1184561*
Y1184249*
X1037355Y1183936*
X1037241Y1183780*
X1036900Y1183624*
X1035877*
X1036673D02*
G01X1037468Y1181905D01*
X1038491Y1185186D02*
G01Y1181905D01*
Y1185186D02*
G01X1039514D01*
X1039855Y1185030*
X1039968Y1184874*
X1040082Y1184561*
Y1184093*
X1039968Y1183780*
X1039855Y1183624*
X1039514Y1183468*
X1038491*
X1041218Y1184405D02*
G01Y1184561D01*
X1041332Y1184874*
X1041446Y1185030*
X1041673Y1185186*
X1042127*
X1042355Y1185030*
X1042468Y1184874*
X1042582Y1184561*
Y1184249*
X1042468Y1183936*
X1042241Y1183468*
X1041105Y1181905*
X1042696*
X1314617Y1099241D02*
G01X1316961D01*
X1317429Y1099355*
X1317742Y1099582*
X1317898Y1099923*
Y1100150*
X1317742Y1100491*
X1317429Y1100718*
X1316961Y1100832*
X1314617*
X1315242Y1101855D02*
G01X1315086Y1102082D01*
X1314617Y1102423*
X1317898*
X1315086Y1104809D02*
G01X1314773Y1104695D01*
X1314617Y1104355*
Y1104127*
X1314773Y1103786*
X1315242Y1103559*
X1316023Y1103445*
X1316804*
X1317429Y1103559*
X1317742Y1103786*
X1317898Y1104127*
Y1104241*
X1317742Y1104582*
X1317429Y1104809*
X1316961Y1104923*
X1316804*
X1316336Y1104809*
X1316023Y1104582*
X1315867Y1104241*
Y1104127*
X1316023Y1103786*
X1316336Y1103559*
X1316804Y1103445*
X1168075Y1077047D02*
G01X1167961Y1077359D01*
X1167734Y1077672*
X1167507Y1077828*
X1167052*
X1166825Y1077672*
X1166598Y1077359*
X1166484Y1077047*
X1166370Y1076578*
Y1075797*
X1166484Y1075328*
X1166598Y1075016*
X1166825Y1074703*
X1167052Y1074547*
X1167507*
X1167734Y1074703*
X1167961Y1075016*
X1168075Y1075328*
X1170575Y1076734D02*
G01X1170461Y1076266D01*
X1170234Y1075953*
X1169893Y1075797*
X1169780*
X1169439Y1075953*
X1169211Y1076266*
X1169098Y1076734*
Y1076891*
X1169211Y1077359*
X1169439Y1077672*
X1169780Y1077828*
X1169893*
X1170234Y1077672*
X1170461Y1077359*
X1170575Y1076734*
Y1075953*
X1170461Y1075172*
X1170234Y1074703*
X1169893Y1074547*
X1169666*
X1169325Y1074703*
X1169211Y1075016*
X1172961Y1077359D02*
G01X1172848Y1077672D01*
X1172507Y1077828*
X1172280*
X1171939Y1077672*
X1171711Y1077203*
X1171598Y1076422*
Y1075641*
X1171711Y1075016*
X1171939Y1074703*
X1172280Y1074547*
X1172393*
X1172734Y1074703*
X1172961Y1075016*
X1173075Y1075484*
Y1075641*
X1172961Y1076109*
X1172734Y1076422*
X1172393Y1076578*
X1172280*
X1171939Y1076422*
X1171711Y1076109*
X1171598Y1075641*
X1168275Y1070347D02*
G01X1168161Y1070659D01*
X1167934Y1070972*
X1167707Y1071128*
X1167252*
X1167025Y1070972*
X1166798Y1070659*
X1166684Y1070347*
X1166570Y1069878*
Y1069097*
X1166684Y1068628*
X1166798Y1068316*
X1167025Y1068003*
X1167252Y1067847*
X1167707*
X1167934Y1068003*
X1168161Y1068316*
X1168275Y1068628*
X1170775Y1070034D02*
G01X1170661Y1069566D01*
X1170434Y1069253*
X1170093Y1069097*
X1169980*
X1169639Y1069253*
X1169411Y1069566*
X1169298Y1070034*
Y1070191*
X1169411Y1070659*
X1169639Y1070972*
X1169980Y1071128*
X1170093*
X1170434Y1070972*
X1170661Y1070659*
X1170775Y1070034*
Y1069253*
X1170661Y1068472*
X1170434Y1068003*
X1170093Y1067847*
X1169866*
X1169525Y1068003*
X1169411Y1068316*
X1173275Y1070034D02*
G01X1173161Y1069566D01*
X1172934Y1069253*
X1172593Y1069097*
X1172480*
X1172139Y1069253*
X1171911Y1069566*
X1171798Y1070034*
Y1070191*
X1171911Y1070659*
X1172139Y1070972*
X1172480Y1071128*
X1172593*
X1172934Y1070972*
X1173161Y1070659*
X1173275Y1070034*
Y1069253*
X1173161Y1068472*
X1172934Y1068003*
X1172593Y1067847*
X1172366*
X1172025Y1068003*
X1171911Y1068316*
X1167133Y1065322D02*
G01Y1062041D01*
Y1065322D02*
G01X1168156D01*
X1168497Y1065166*
X1168610Y1065009*
X1168724Y1064697*
Y1064384*
X1168610Y1064072*
X1168497Y1063916*
X1168156Y1063759*
X1167133*
X1167928D02*
G01X1168724Y1062041D01*
X1169747Y1064697D02*
G01X1169974Y1064853D01*
X1170315Y1065322*
Y1062041*
X1172815Y1064228D02*
G01X1172701Y1063759D01*
X1172474Y1063447*
X1172133Y1063291*
X1172019*
X1171678Y1063447*
X1171451Y1063759*
X1171338Y1064228*
Y1064384*
X1171451Y1064853*
X1171678Y1065166*
X1172019Y1065322*
X1172133*
X1172474Y1065166*
X1172701Y1064853*
X1172815Y1064228*
Y1063447*
X1172701Y1062666*
X1172474Y1062197*
X1172133Y1062041*
X1171906*
X1171565Y1062197*
X1171451Y1062509*
X1166565Y1059825D02*
G01Y1056544D01*
Y1059825D02*
G01X1167588D01*
X1167928Y1059669*
X1168042Y1059512*
X1168156Y1059200*
Y1058887*
X1168042Y1058575*
X1167928Y1058419*
X1167588Y1058262*
X1166565*
X1167360D02*
G01X1168156Y1056544D01*
X1169406Y1059825D02*
G01X1170656D01*
X1169974Y1058575*
X1170315*
X1170542Y1058419*
X1170656Y1058262*
X1170769Y1057794*
Y1057481*
X1170656Y1057012*
X1170428Y1056700*
X1170088Y1056544*
X1169747*
X1169406Y1056700*
X1169292Y1056856*
X1169178Y1057169*
X1172019Y1059825D02*
G01X1173269D01*
X1172588Y1058575*
X1172928*
X1173156Y1058419*
X1173269Y1058262*
X1173383Y1057794*
Y1057481*
X1173269Y1057012*
X1173042Y1056700*
X1172701Y1056544*
X1172360*
X1172019Y1056700*
X1171906Y1056856*
X1171792Y1057169*
X1262681Y1195029D02*
G01Y1192529D01*
X1262568Y1192060*
X1262454Y1191904*
X1262227Y1191748*
X1261999*
X1261772Y1191904*
X1261659Y1192060*
X1261545Y1192529*
Y1192841*
X1263704Y1194404D02*
G01X1263931Y1194560D01*
X1264272Y1195029*
Y1191748*
X1010991Y1230128D02*
G01X1011559Y1226847D01*
X1012127Y1230128D02*
G01X1011559Y1226847D01*
X1012127Y1230128D02*
G01X1012695Y1226847D01*
X1013264Y1230128D02*
G01X1012695Y1226847D01*
X1014286Y1229503D02*
G01X1014514Y1229659D01*
X1014855Y1230128*
Y1226847*
X1293934Y1178887D02*
G01Y1175606D01*
Y1178887D02*
G01X1295411D01*
X1293934Y1177325D02*
G01X1294843D01*
X1296548Y1178106D02*
G01Y1178262D01*
X1296661Y1178575*
X1296775Y1178731*
X1297002Y1178887*
X1297457*
X1297684Y1178731*
X1297798Y1178575*
X1297911Y1178262*
Y1177950*
X1297798Y1177637*
X1297570Y1177168*
X1296434Y1175606*
X1298025*
X1261965Y1176328D02*
G01Y1173047D01*
Y1176328D02*
G01X1263442D01*
X1261965Y1174766D02*
G01X1262874D01*
X1264465Y1175703D02*
G01X1264692Y1175859D01*
X1265033Y1176328*
Y1173047*
X1251672Y1029627D02*
G01X1254172D01*
X1254641Y1029514*
X1254797Y1029400*
X1254953Y1029173*
Y1028945*
X1254797Y1028718*
X1254641Y1028605*
X1254172Y1028491*
X1253859*
X1251672Y1032127D02*
G01Y1030991D01*
X1253078Y1030877*
X1252922Y1030991*
X1252766Y1031332*
Y1031673*
X1252922Y1032014*
X1253234Y1032241*
X1253703Y1032355*
X1254016Y1032241*
X1254484Y1032127*
X1254797Y1031900*
X1254953Y1031559*
Y1031218*
X1254797Y1030877*
X1254641Y1030764*
X1254328Y1030650*
X1197882Y1084628D02*
G01Y1082284D01*
X1197995Y1081816*
X1198223Y1081503*
X1198564Y1081347*
X1198791*
X1199132Y1081503*
X1199359Y1081816*
X1199473Y1082284*
Y1084628*
X1200495Y1084003D02*
G01X1200723Y1084159D01*
X1201064Y1084628*
Y1081347*
X1203564Y1083534D02*
G01X1203450Y1083066D01*
X1203223Y1082753*
X1202882Y1082597*
X1202768*
X1202427Y1082753*
X1202200Y1083066*
X1202086Y1083534*
Y1083691*
X1202200Y1084159*
X1202427Y1084472*
X1202768Y1084628*
X1202882*
X1203223Y1084472*
X1203450Y1084159*
X1203564Y1083534*
Y1082753*
X1203450Y1081972*
X1203223Y1081503*
X1202882Y1081347*
X1202655*
X1202314Y1081503*
X1202200Y1081816*
X1217455Y1089347D02*
G01X1217341Y1089659D01*
X1217114Y1089972*
X1216886Y1090128*
X1216432*
X1216205Y1089972*
X1215977Y1089659*
X1215864Y1089347*
X1215750Y1088878*
Y1088097*
X1215864Y1087628*
X1215977Y1087316*
X1216205Y1087003*
X1216432Y1086847*
X1216886*
X1217114Y1087003*
X1217341Y1087316*
X1217455Y1087628*
X1218477Y1089503D02*
G01X1218705Y1089659D01*
X1219045Y1090128*
Y1086847*
X1221432Y1089659D02*
G01X1221318Y1089972D01*
X1220977Y1090128*
X1220750*
X1220409Y1089972*
X1220182Y1089503*
X1220068Y1088722*
Y1087941*
X1220182Y1087316*
X1220409Y1087003*
X1220750Y1086847*
X1220864*
X1221205Y1087003*
X1221432Y1087316*
X1221545Y1087784*
Y1087941*
X1221432Y1088409*
X1221205Y1088722*
X1220864Y1088878*
X1220750*
X1220409Y1088722*
X1220182Y1088409*
X1220068Y1087941*
X1198041Y1023728D02*
G01Y1021384D01*
X1198155Y1020916*
X1198382Y1020603*
X1198723Y1020447*
X1198950*
X1199291Y1020603*
X1199518Y1020916*
X1199632Y1021384*
Y1023728*
X1200768Y1022947D02*
G01Y1023103D01*
X1200882Y1023416*
X1200995Y1023572*
X1201223Y1023728*
X1201677*
X1201905Y1023572*
X1202018Y1023416*
X1202132Y1023103*
Y1022791*
X1202018Y1022478*
X1201791Y1022009*
X1200655Y1020447*
X1202245*
X1225341Y1023528D02*
G01Y1021184D01*
X1225455Y1020716*
X1225682Y1020403*
X1226023Y1020247*
X1226250*
X1226591Y1020403*
X1226818Y1020716*
X1226932Y1021184*
Y1023528*
X1228182D02*
G01X1229432D01*
X1228750Y1022278*
X1229091*
X1229318Y1022122*
X1229432Y1021966*
X1229545Y1021497*
Y1021184*
X1229432Y1020716*
X1229205Y1020403*
X1228864Y1020247*
X1228523*
X1228182Y1020403*
X1228068Y1020559*
X1227955Y1020872*
X1246153Y1006505D02*
G01X1245841Y1006391D01*
X1245528Y1006164*
X1245372Y1005936*
Y1005482*
X1245528Y1005255*
X1245841Y1005027*
X1246153Y1004914*
X1246622Y1004800*
X1247403*
X1247872Y1004914*
X1248184Y1005027*
X1248497Y1005255*
X1248653Y1005482*
Y1005936*
X1248497Y1006164*
X1248184Y1006391*
X1247872Y1006505*
X1245372Y1009005D02*
G01Y1007868D01*
X1246778Y1007755*
X1246622Y1007868*
X1246466Y1008209*
Y1008550*
X1246622Y1008891*
X1246934Y1009118*
X1247403Y1009232*
X1247716Y1009118*
X1248184Y1009005*
X1248497Y1008777*
X1248653Y1008436*
Y1008095*
X1248497Y1007755*
X1248341Y1007641*
X1248028Y1007527*
X1245372Y1011391D02*
G01X1247559Y1010255D01*
Y1011959*
X1245372Y1011391D02*
G01X1248653D01*
X1231114Y1084428D02*
G01Y1082084D01*
X1231227Y1081616*
X1231455Y1081303*
X1231795Y1081147*
X1232023*
X1232364Y1081303*
X1232591Y1081616*
X1232705Y1082084*
Y1084428*
X1233841Y1083647D02*
G01Y1083803D01*
X1233955Y1084116*
X1234068Y1084272*
X1234295Y1084428*
X1234750*
X1234977Y1084272*
X1235091Y1084116*
X1235205Y1083803*
Y1083491*
X1235091Y1083178*
X1234864Y1082709*
X1233727Y1081147*
X1235318*
X1237023Y1084428D02*
G01X1236682Y1084272D01*
X1236455Y1083803*
X1236341Y1083022*
Y1082553*
X1236455Y1081772*
X1236682Y1081303*
X1237023Y1081147*
X1237250*
X1237591Y1081303*
X1237818Y1081772*
X1237932Y1082553*
Y1083022*
X1237818Y1083803*
X1237591Y1084272*
X1237250Y1084428*
X1237023*
X1327412Y1169835D02*
G01X1330693D01*
Y1171199*
X1327881Y1173585D02*
G01X1327568Y1173471D01*
X1327412Y1173130*
Y1172903*
X1327568Y1172562*
X1328037Y1172335*
X1328818Y1172221*
X1329600*
X1330225Y1172335*
X1330537Y1172562*
X1330693Y1172903*
Y1173017*
X1330537Y1173358*
X1330225Y1173585*
X1329756Y1173699*
X1329600*
X1329131Y1173585*
X1328818Y1173358*
X1328662Y1173017*
Y1172903*
X1328818Y1172562*
X1329131Y1172335*
X1329600Y1172221*
X1221053Y1046718D02*
G01X1220741Y1046605D01*
X1220428Y1046377*
X1220272Y1046150*
Y1045695*
X1220428Y1045468*
X1220741Y1045241*
X1221053Y1045127*
X1221522Y1045014*
X1222303*
X1222772Y1045127*
X1223084Y1045241*
X1223397Y1045468*
X1223553Y1045695*
Y1046150*
X1223397Y1046377*
X1223084Y1046605*
X1222772Y1046718*
X1221366Y1049218D02*
G01X1221834Y1049105D01*
X1222147Y1048877*
X1222303Y1048536*
Y1048423*
X1222147Y1048082*
X1221834Y1047855*
X1221366Y1047741*
X1221209*
X1220741Y1047855*
X1220428Y1048082*
X1220272Y1048423*
Y1048536*
X1220428Y1048877*
X1220741Y1049105*
X1221366Y1049218*
X1222147*
X1222928Y1049105*
X1223397Y1048877*
X1223553Y1048536*
Y1048309*
X1223397Y1047968*
X1223084Y1047855*
X1220272Y1051377D02*
G01X1222459Y1050241D01*
Y1051945*
X1220272Y1051377D02*
G01X1223553D01*
X1298072Y1048227D02*
G01X1301353D01*
X1298072D02*
G01Y1049250D01*
X1298228Y1049591*
X1298384Y1049705*
X1298697Y1049818*
X1299009*
X1299322Y1049705*
X1299478Y1049591*
X1299634Y1049250*
Y1048227*
Y1049023D02*
G01X1301353Y1049818D01*
X1298072Y1052318D02*
G01Y1051182D01*
X1299478Y1051068*
X1299322Y1051182*
X1299166Y1051523*
Y1051864*
X1299322Y1052205*
X1299634Y1052432*
X1300103Y1052545*
X1300416Y1052432*
X1300884Y1052318*
X1301197Y1052091*
X1301353Y1051750*
Y1051409*
X1301197Y1051068*
X1301041Y1050955*
X1300728Y1050841*
X1299166Y1055045D02*
G01X1299634Y1054932D01*
X1299947Y1054705*
X1300103Y1054364*
Y1054250*
X1299947Y1053909*
X1299634Y1053682*
X1299166Y1053568*
X1299009*
X1298541Y1053682*
X1298228Y1053909*
X1298072Y1054250*
Y1054364*
X1298228Y1054705*
X1298541Y1054932*
X1299166Y1055045*
X1299947*
X1300728Y1054932*
X1301197Y1054705*
X1301353Y1054364*
Y1054136*
X1301197Y1053795*
X1300884Y1053682*
X1275138Y1175703D02*
G01X1275365Y1175859D01*
X1275706Y1176328*
Y1173047*
X1276842Y1173359D02*
G01X1276729Y1173203D01*
X1276842Y1173047*
X1276956Y1173203*
X1276842Y1173359*
X1277979Y1175703D02*
G01X1278206Y1175859D01*
X1278547Y1176328*
Y1173047*
X1280479Y1176328D02*
G01X1279570Y1173047D01*
X1280479Y1176328D02*
G01X1281388Y1173047D01*
X1279911Y1174141D02*
G01X1281047D01*
X1289506Y1173144D02*
G01X1289733Y1173300D01*
X1290074Y1173769*
Y1170488*
X1291779Y1173769D02*
G01X1291438Y1173613D01*
X1291211Y1173144*
X1291097Y1172363*
Y1171894*
X1291211Y1171113*
X1291438Y1170644*
X1291779Y1170488*
X1292006*
X1292347Y1170644*
X1292574Y1171113*
X1292688Y1171894*
Y1172363*
X1292574Y1173144*
X1292347Y1173613*
X1292006Y1173769*
X1291779*
X1294393D02*
G01X1294052Y1173613D01*
X1293824Y1173144*
X1293711Y1172363*
Y1171894*
X1293824Y1171113*
X1294052Y1170644*
X1294393Y1170488*
X1294620*
X1294961Y1170644*
X1295188Y1171113*
X1295302Y1171894*
Y1172363*
X1295188Y1173144*
X1294961Y1173613*
X1294620Y1173769*
X1294393*
X1296324Y1172675D02*
G01Y1170488D01*
Y1172050D02*
G01X1296665Y1172519D01*
X1296893Y1172675*
X1297233*
X1297461Y1172519*
X1297574Y1172050*
Y1170488*
Y1172050D02*
G01X1297915Y1172519D01*
X1298143Y1172675*
X1298483*
X1298711Y1172519*
X1298824Y1172050*
Y1170488*
X1300756Y1173769D02*
G01X1299847Y1170488D01*
X1300756Y1173769D02*
G01X1301665Y1170488D01*
X1300188Y1171582D02*
G01X1301324D01*
X1228641Y1030977D02*
G01X1228328Y1030750D01*
X1228172Y1030409*
Y1029955*
X1228328Y1029614*
X1228641Y1029386*
X1228953*
X1229266Y1029500*
X1229422Y1029614*
X1229578Y1029841*
X1229891Y1030523*
X1230047Y1030750*
X1230203Y1030864*
X1230516Y1030977*
X1230984*
X1231297Y1030750*
X1231453Y1030409*
Y1029955*
X1231297Y1029614*
X1230984Y1029386*
X1228172Y1032000D02*
G01X1231453D01*
X1228172D02*
G01Y1033023D01*
X1228328Y1033364*
X1228484Y1033477*
X1228797Y1033591*
X1229266*
X1229578Y1033477*
X1229734Y1033364*
X1229891Y1033023*
Y1032000*
X1228172Y1034614D02*
G01X1231453D01*
X1228172D02*
G01Y1036091D01*
X1229734Y1034614D02*
G01Y1035523D01*
X1231453Y1034614D02*
G01Y1036091D01*
X1228172Y1038023D02*
G01X1231453Y1037114D01*
X1228172Y1038023D02*
G01X1231453Y1038932D01*
X1230359Y1037455D02*
G01Y1038591D01*
X1228172Y1039955D02*
G01X1231453D01*
X1228172Y1041545D02*
G01X1230359Y1039955D01*
X1229578Y1040523D02*
G01X1231453Y1041545D01*
X1228172Y1042568D02*
G01X1231453D01*
X1228172D02*
G01Y1044045D01*
X1229734Y1042568D02*
G01Y1043477D01*
X1231453Y1042568D02*
G01Y1044045D01*
X1228172Y1045068D02*
G01X1231453D01*
X1228172D02*
G01Y1046091D01*
X1228328Y1046432*
X1228484Y1046545*
X1228797Y1046659*
X1229109*
X1229422Y1046545*
X1229578Y1046432*
X1229734Y1046091*
Y1045068*
Y1045864D02*
G01X1231453Y1046659D01*
G54D57*
X1070748Y1164291D02*
G01Y1264291D01*
X1050748*
Y1164291*
X1070748*
X1002874Y1225472D02*
G01Y1165472D01*
X1022874*
Y1225472*
X1002874*
X1247500Y1028500D02*
G01X1250000D01*
Y1048500*
X1247500*
X1235500D02*
G01X1233000D01*
Y1028500*
X1235500*
X1245500Y1025500D02*
G03X1245500Y1025500I-1000D01*
X1259094Y1007920D02*
G01X1258924Y1008389D01*
X1258583Y1008858*
X1258242Y1009092*
X1257560*
X1257219Y1008858*
X1256878Y1008389*
X1256708Y1007920*
X1256538Y1007217*
Y1007217D02*
G01Y1006045D01*
Y1006045D02*
G01X1256708Y1005342D01*
X1256878Y1004873*
X1257219Y1004405*
X1257560Y1004170*
X1258242*
X1258583Y1004405*
X1258924Y1004873*
X1259094Y1005342*
X1261481Y1007452D02*
G01X1261140Y1007217D01*
X1260799Y1006748*
X1260628Y1006045*
Y1005577*
X1260799Y1004873*
X1261140Y1004405*
X1261481Y1004170*
X1261992*
X1262333Y1004405*
X1262674Y1004873*
X1262844Y1005577*
Y1006045*
X1262674Y1006748*
X1262333Y1007217*
X1261992Y1007452*
X1261481*
X1264378D02*
G01Y1002530D01*
Y1006748D02*
G01X1264719Y1007217D01*
X1265060Y1007452*
X1265572*
X1265913Y1007217*
Y1007217D02*
G01X1266253Y1006748D01*
X1266424Y1006045*
Y1005577*
X1266253Y1004873*
X1265913Y1004405*
Y1004405D02*
G01X1265572Y1004170D01*
X1265060*
X1264719Y1004405*
X1264378Y1004873*
X1268128Y1007452D02*
G01X1269151Y1004170D01*
X1270174Y1007452D02*
G01X1269151Y1004170D01*
X1268810Y1003233*
X1268469Y1002764*
X1268128Y1002530*
X1267958*
X1271708Y1007452D02*
G01Y1004170D01*
Y1006045D02*
G01X1271878Y1006748D01*
X1272219Y1007217*
X1272560Y1007452*
X1273072*
X1274606Y1009092D02*
G01X1274776Y1008858D01*
X1274947Y1009092*
X1274776Y1009327*
X1274606Y1009092*
X1274776Y1007452D02*
G01Y1004170D01*
X1278526Y1007452D02*
G01Y1003702D01*
X1278356Y1002998*
X1278185Y1002764*
X1277844Y1002530*
X1277333*
X1276992Y1002764*
X1278526Y1006748D02*
G01X1278185Y1007217D01*
X1277844Y1007452*
X1277333*
X1276992Y1007217*
X1276651Y1006748*
X1276481Y1006045*
Y1005577*
X1276651Y1004873*
X1276992Y1004405*
X1277333Y1004170*
X1277844*
X1278185Y1004405*
X1278526Y1004873*
X1280060Y1009092D02*
G01Y1004170D01*
Y1006514D02*
G01X1280572Y1007217D01*
X1280913Y1007452*
Y1007452D02*
G01X1281424D01*
X1281765Y1007217*
X1281935Y1006514*
Y1004170*
X1283981Y1009092D02*
G01Y1005108D01*
X1284151Y1004405*
X1284492Y1004170*
X1284833*
X1283469Y1007452D02*
G01X1284663D01*
X1291481Y1010030D02*
G01X1291140Y1009561D01*
X1290799Y1008858*
X1290458Y1007920*
X1290288Y1006748*
Y1006748D02*
G01Y1005811D01*
Y1005811D02*
G01X1290458Y1004639D01*
X1290799Y1003702*
X1291140Y1002998*
X1291481Y1002530*
X1295572Y1007920D02*
G01X1295401Y1008389D01*
X1295060Y1008858*
X1294719Y1009092*
X1294038*
Y1009092D02*
G01X1293697Y1008858D01*
X1293356Y1008389*
X1293185Y1007920*
X1293015Y1007217*
Y1006045*
X1293185Y1005342*
X1293356Y1004873*
X1293697Y1004405*
X1294038Y1004170*
Y1004170D02*
G01X1294719D01*
X1295060Y1004405*
X1295401Y1004873*
X1295572Y1005342*
X1297106Y1010030D02*
G01X1297447Y1009561D01*
X1297788Y1008858*
Y1008858D02*
G01X1298128Y1007920D01*
X1298299Y1006748*
Y1005811*
X1298128Y1004639*
X1297788Y1003702*
Y1003702D02*
G01X1297447Y1002998D01*
X1297106Y1002530*
X1300003Y1007920D02*
G01Y1008155D01*
X1300174Y1008623*
X1300344Y1008858*
X1300685Y1009092*
X1301367*
X1301708Y1008858*
X1301878Y1008623*
X1302049Y1008155*
Y1007686*
X1301878Y1007217*
X1301538Y1006514*
Y1006514D02*
G01X1299833Y1004170D01*
X1302219*
X1304776Y1009092D02*
G01X1304265Y1008858D01*
X1303924Y1008155*
X1303753Y1006983*
Y1006280*
X1303924Y1005108*
X1304265Y1004405*
X1304776Y1004170*
X1305117*
X1305628Y1004405*
X1305969Y1005108*
X1306140Y1006280*
Y1006983*
X1305969Y1008155*
X1305628Y1008858*
X1305117Y1009092*
X1304776*
X1308697D02*
G01X1308185Y1008858D01*
X1307844Y1008155*
X1307674Y1006983*
Y1006280*
X1307844Y1005108*
X1308185Y1004405*
X1308697Y1004170*
X1309038*
Y1004170D02*
G01X1309549Y1004405D01*
X1309890Y1005108*
X1310060Y1006280*
Y1006983*
X1309890Y1008155*
X1309549Y1008858*
X1309038Y1009092*
Y1009092D02*
G01X1308697D01*
X1312447D02*
G01X1311935Y1008858D01*
X1311765Y1008389*
Y1007920*
X1311935Y1007452*
X1312276Y1007217*
X1312958Y1006983*
X1313469Y1006748*
X1313810Y1006280*
X1313981Y1005811*
Y1005108*
X1313810Y1004639*
X1313640Y1004405*
X1313128Y1004170*
X1312447*
X1311935Y1004405*
X1311765Y1004639*
X1311594Y1005108*
Y1005811*
X1311765Y1006280*
X1312106Y1006748*
X1312617Y1006983*
X1313299Y1007217*
X1313640Y1007452*
X1313810Y1007920*
Y1008389*
X1313640Y1008858*
X1313128Y1009092*
X1312447*
G54D58*
X1073748Y1169291D02*
G03X1073748Y1169291I-500D01*
X1000874Y1220472D02*
G03X1000874Y1220472I-500D01*
G54D59*
X1218318Y1210859D02*
G01X1218356D01*
X1217793D02*
G01X1218131D01*
X1217493D02*
G01X1217606D01*
X1217343D02*
G01X1217381D01*
X1217043D02*
G01X1217156D01*
X1216743D02*
G01X1216856D01*
X1216593D02*
G01X1216631D01*
X1216443D02*
G01X1216481D01*
X1216143D02*
G01X1216181D01*
X1215768D02*
G01X1216031D01*
X1218543Y1210784D02*
G01X1218656D01*
X1218318D02*
G01X1218431D01*
X1218093D02*
G01X1218206D01*
X1215468D02*
G01X1215581D01*
X1215168D02*
G01X1215206D01*
X1214868D02*
G01X1214981D01*
X1214643D02*
G01X1214681D01*
X1218618Y1210709D02*
G01X1218731D01*
X1214493D02*
G01X1214531D01*
X1219443Y1210634D02*
G01X1219556D01*
X1219293D02*
G01X1219331D01*
X1219143D02*
G01X1219181D01*
X1218918D02*
G01X1219031D01*
X1218768D02*
G01X1218806D01*
X1214418D02*
G01X1214456D01*
X1214193D02*
G01X1214231D01*
X1220193Y1210559D02*
G01X1220231D01*
X1219893D02*
G01X1220081D01*
X1219668D02*
G01X1219781D01*
X1213893D02*
G01X1213931D01*
X1220343Y1210484D02*
G01X1220606D01*
X1213668D02*
G01X1213781D01*
X1220718Y1210409D02*
G01X1220906D01*
X1213518D02*
G01X1213556D01*
X1213293D02*
G01X1213331D01*
X1221168Y1210334D02*
G01X1221206D01*
X1220943D02*
G01X1221056D01*
X1213218D02*
G01X1213256D01*
X1221618Y1210259D02*
G01X1221656D01*
X1221468D02*
G01X1221506D01*
X1221318D02*
G01X1221356D01*
X1212918D02*
G01X1213106D01*
X1221768Y1210184D02*
G01X1221806D01*
X1221618D02*
G01X1221656D01*
X1212768D02*
G01X1212881D01*
X1212618D02*
G01X1212656D01*
X1221918Y1210109D02*
G01X1221956D01*
X1212468D02*
G01X1212506D01*
X1222293Y1210034D02*
G01X1222331D01*
X1222143D02*
G01X1222181D01*
X1212318D02*
G01X1212356D01*
X1222818Y1209959D02*
G01X1222856D01*
X1222593D02*
G01X1222706D01*
X1222443D02*
G01X1222481D01*
X1212093D02*
G01X1212131D01*
X1222893Y1209884D02*
G01X1222931D01*
X1222968Y1209809D02*
G01X1223081D01*
X1211793D02*
G01X1211906D01*
X1223118Y1209734D02*
G01X1223306D01*
X1211493D02*
G01X1211681D01*
X1223343Y1209659D02*
G01X1223531D01*
X1223493Y1209584D02*
G01X1223756D01*
X1211343D02*
G01X1211381D01*
X1223718Y1209509D02*
G01X1223981D01*
X1211193D02*
G01X1211231D01*
X1223943Y1209434D02*
G01X1224131D01*
X1210968D02*
G01X1211006D01*
X1224093Y1209359D02*
G01X1224206D01*
X1210818D02*
G01X1210856D01*
X1224393Y1209284D02*
G01X1224431D01*
X1224243D02*
G01X1224281D01*
X1210593D02*
G01X1210781D01*
X1224393Y1209209D02*
G01X1224431D01*
X1210443D02*
G01X1210631D01*
X1210143Y1209134D02*
G01X1210481D01*
X1210068Y1209059D02*
G01X1210181D01*
X1209918Y1208984D02*
G01X1210031D01*
X1209768Y1208909D02*
G01X1209956D01*
X1225143Y1208834D02*
G01X1225181D01*
X1209693D02*
G01X1209806D01*
X1225293Y1208759D02*
G01X1225331D01*
X1209618D02*
G01X1209656D01*
X1225443Y1208684D02*
G01X1225481D01*
X1225593Y1208609D02*
G01X1225631D01*
X1209318D02*
G01X1209356D01*
X1225743Y1208534D02*
G01X1225781D01*
X1209168D02*
G01X1209206D01*
X1225818Y1208459D02*
G01X1225856D01*
X1209018D02*
G01X1209056D01*
X1225968Y1208384D02*
G01X1226006D01*
X1208943D02*
G01X1208981D01*
X1208793Y1208309D02*
G01X1208831D01*
X1226193Y1208234D02*
G01X1226231D01*
X1208568Y1208159D02*
G01X1208606D01*
X1226418Y1208084D02*
G01X1226456D01*
X1226568Y1208009D02*
G01X1226606D01*
X1208343D02*
G01X1208381D01*
X1226643Y1207934D02*
G01X1226681D01*
X1208268D02*
G01X1208306D01*
X1226718Y1207859D02*
G01X1226756D01*
X1226868Y1207784D02*
G01X1226906D01*
X1208043D02*
G01X1208081D01*
X1226943Y1207709D02*
G01X1226981D01*
X1227018Y1207634D02*
G01X1227056D01*
X1227168Y1207484D02*
G01X1227206D01*
X1207818D02*
G01X1207856D01*
X1227243Y1207409D02*
G01X1227281D01*
X1227393Y1207334D02*
G01X1227431D01*
X1227018D02*
G01X1227056D01*
X1207518D02*
G01X1207556D01*
X1227468Y1207259D02*
G01X1227506D01*
X1227018D02*
G01X1227056D01*
X1207443D02*
G01X1207481D01*
X1227618Y1207184D02*
G01X1227656D01*
X1227018D02*
G01X1227056D01*
X1207893D02*
G01X1207931D01*
X1227693Y1207109D02*
G01X1227731D01*
X1227018D02*
G01X1227056D01*
X1207893D02*
G01X1207931D01*
X1207218D02*
G01X1207256D01*
X1227018Y1207034D02*
G01X1227056D01*
X1223268D02*
G01X1225706D01*
X1220043D02*
G01X1220456D01*
X1216368D02*
G01X1218731D01*
X1212618D02*
G01X1215131D01*
X1208868D02*
G01X1211606D01*
X1207893D02*
G01X1207931D01*
X1227018Y1206959D02*
G01X1227056D01*
X1223343D02*
G01X1225706D01*
X1220043D02*
G01X1220456D01*
X1216368D02*
G01X1218656D01*
X1212693D02*
G01X1215056D01*
X1208943D02*
G01X1211531D01*
X1207818D02*
G01X1207931D01*
X1227993Y1206884D02*
G01X1228031D01*
X1227018D02*
G01X1227131D01*
X1223343D02*
G01X1225631D01*
X1220043D02*
G01X1220456D01*
X1216368D02*
G01X1218656D01*
X1212768D02*
G01X1214981D01*
X1208943D02*
G01X1211456D01*
X1207743D02*
G01X1207931D01*
X1207068D02*
G01X1207106D01*
X1227243Y1206809D02*
G01X1227281D01*
X1227018D02*
G01X1227131D01*
X1223418D02*
G01X1225556D01*
X1220043D02*
G01X1220456D01*
X1216368D02*
G01X1218581D01*
X1212843D02*
G01X1214906D01*
X1209018D02*
G01X1211456D01*
X1207668D02*
G01X1207931D01*
X1207068D02*
G01X1207106D01*
X1227993Y1206734D02*
G01X1228031D01*
X1227243D02*
G01X1227281D01*
X1227018D02*
G01X1227056D01*
X1223493D02*
G01X1225481D01*
X1220043D02*
G01X1220456D01*
X1216368D02*
G01X1218431D01*
X1212918D02*
G01X1214831D01*
X1209093D02*
G01X1211306D01*
X1207518D02*
G01X1207931D01*
X1207068D02*
G01X1207106D01*
X1227993Y1206659D02*
G01X1228031D01*
X1227318D02*
G01X1227431D01*
X1227018D02*
G01X1227131D01*
X1223718D02*
G01X1225331D01*
X1220043D02*
G01X1220456D01*
X1216368D02*
G01X1218281D01*
X1213068D02*
G01X1214681D01*
X1209243D02*
G01X1211156D01*
X1207443D02*
G01X1207931D01*
X1207068D02*
G01X1207106D01*
X1227993Y1206584D02*
G01X1228031D01*
X1227393D02*
G01X1227506D01*
X1226943D02*
G01X1227281D01*
X1220043D02*
G01X1220456D01*
X1216368D02*
G01X1216781D01*
X1209993D02*
G01X1210406D01*
X1207368D02*
G01X1207931D01*
X1207068D02*
G01X1207106D01*
X1227993Y1206509D02*
G01X1228031D01*
X1227543D02*
G01X1227581D01*
X1227243D02*
G01X1227356D01*
X1226943D02*
G01X1227056D01*
X1220043D02*
G01X1220456D01*
X1216368D02*
G01X1216781D01*
X1209993D02*
G01X1210406D01*
X1207293D02*
G01X1207931D01*
X1206993D02*
G01X1207106D01*
X1227393Y1206434D02*
G01X1227431D01*
X1226943D02*
G01X1227056D01*
X1220043D02*
G01X1220456D01*
X1216368D02*
G01X1216781D01*
X1209993D02*
G01X1210406D01*
X1207368D02*
G01X1208006D01*
X1206993D02*
G01X1207031D01*
X1227993Y1206359D02*
G01X1228031D01*
X1227543D02*
G01X1227581D01*
X1227093D02*
G01X1227206D01*
X1226943D02*
G01X1226981D01*
X1220043D02*
G01X1220456D01*
X1216368D02*
G01X1216781D01*
X1209993D02*
G01X1210406D01*
X1207368D02*
G01X1208006D01*
X1206993D02*
G01X1207031D01*
X1227918Y1206284D02*
G01X1228031D01*
X1227543D02*
G01X1227581D01*
X1226943D02*
G01X1227056D01*
X1223343D02*
G01X1225706D01*
X1220043D02*
G01X1220456D01*
X1216368D02*
G01X1218731D01*
X1212693D02*
G01X1215056D01*
X1209993D02*
G01X1210406D01*
X1207368D02*
G01X1208006D01*
X1206993D02*
G01X1207031D01*
X1227918Y1206209D02*
G01X1227956D01*
X1227393D02*
G01X1227431D01*
X1227168D02*
G01X1227206D01*
X1226943D02*
G01X1226981D01*
X1223343D02*
G01X1225706D01*
X1220043D02*
G01X1220456D01*
X1216368D02*
G01X1218731D01*
X1212693D02*
G01X1215056D01*
X1209993D02*
G01X1210406D01*
X1207368D02*
G01X1208006D01*
X1206993D02*
G01X1207031D01*
X1227918Y1206134D02*
G01X1227956D01*
X1226943D02*
G01X1226981D01*
X1223343D02*
G01X1225706D01*
X1220043D02*
G01X1220456D01*
X1216368D02*
G01X1218731D01*
X1212768D02*
G01X1214981D01*
X1209993D02*
G01X1210406D01*
X1207368D02*
G01X1208006D01*
X1206993D02*
G01X1207031D01*
X1227918Y1206059D02*
G01X1227956D01*
X1227168D02*
G01X1227206D01*
X1226943D02*
G01X1226981D01*
X1223343D02*
G01X1225706D01*
X1220043D02*
G01X1220456D01*
X1216368D02*
G01X1218731D01*
X1212843D02*
G01X1214906D01*
X1209993D02*
G01X1210406D01*
X1207368D02*
G01X1208006D01*
X1206993D02*
G01X1207031D01*
X1227918Y1205984D02*
G01X1227956D01*
X1227168D02*
G01X1227206D01*
X1226868D02*
G01X1226981D01*
X1223343D02*
G01X1225706D01*
X1220043D02*
G01X1220456D01*
X1216368D02*
G01X1218731D01*
X1212918D02*
G01X1214831D01*
X1209993D02*
G01X1210406D01*
X1207368D02*
G01X1208006D01*
X1206993D02*
G01X1207031D01*
X1227918Y1205909D02*
G01X1227956D01*
X1227468D02*
G01X1227506D01*
X1226868D02*
G01X1226981D01*
X1223343D02*
G01X1225706D01*
X1220043D02*
G01X1220456D01*
X1216443D02*
G01X1218731D01*
X1213068D02*
G01X1214681D01*
X1209993D02*
G01X1210406D01*
X1207368D02*
G01X1208081D01*
X1206993D02*
G01X1207031D01*
X1227918Y1205834D02*
G01X1227956D01*
X1227468D02*
G01X1227506D01*
X1226868D02*
G01X1226981D01*
X1225293D02*
G01X1225706D01*
X1223343D02*
G01X1223756D01*
X1220043D02*
G01X1220456D01*
X1218318D02*
G01X1218731D01*
X1209993D02*
G01X1210406D01*
X1207368D02*
G01X1208081D01*
X1206993D02*
G01X1207031D01*
X1227918Y1205759D02*
G01X1227956D01*
X1227468D02*
G01X1227506D01*
X1226868D02*
G01X1226906D01*
X1225293D02*
G01X1225706D01*
X1223343D02*
G01X1223756D01*
X1220043D02*
G01X1220456D01*
X1218318D02*
G01X1218731D01*
X1209993D02*
G01X1210406D01*
X1207368D02*
G01X1208081D01*
X1206993D02*
G01X1207031D01*
X1227918Y1205684D02*
G01X1227956D01*
X1227468D02*
G01X1227506D01*
X1226868D02*
G01X1226906D01*
X1225293D02*
G01X1225706D01*
X1223343D02*
G01X1223756D01*
X1220043D02*
G01X1220456D01*
X1218318D02*
G01X1218731D01*
X1209993D02*
G01X1210406D01*
X1207368D02*
G01X1208081D01*
X1206993D02*
G01X1207031D01*
X1227918Y1205609D02*
G01X1227956D01*
X1227468D02*
G01X1227506D01*
X1226868D02*
G01X1226906D01*
X1225293D02*
G01X1225706D01*
X1223343D02*
G01X1223756D01*
X1220043D02*
G01X1222331D01*
X1216818D02*
G01X1218731D01*
X1212693D02*
G01X1215056D01*
X1209993D02*
G01X1210406D01*
X1207443D02*
G01X1208081D01*
X1206993D02*
G01X1207031D01*
X1227918Y1205534D02*
G01X1227956D01*
X1227393D02*
G01X1227431D01*
X1227168D02*
G01X1227206D01*
X1226793D02*
G01X1226906D01*
X1225293D02*
G01X1225706D01*
X1223343D02*
G01X1223756D01*
X1220043D02*
G01X1222331D01*
X1216668D02*
G01X1218731D01*
X1212693D02*
G01X1215056D01*
X1209993D02*
G01X1210406D01*
X1207443D02*
G01X1208081D01*
X1206993D02*
G01X1207031D01*
X1227918Y1205459D02*
G01X1227956D01*
X1226793D02*
G01X1226906D01*
X1225293D02*
G01X1225706D01*
X1223343D02*
G01X1223756D01*
X1220043D02*
G01X1222331D01*
X1216593D02*
G01X1218731D01*
X1212693D02*
G01X1215056D01*
X1209993D02*
G01X1210406D01*
X1207443D02*
G01X1208081D01*
X1206993D02*
G01X1207106D01*
X1227843Y1205384D02*
G01X1227881D01*
X1226793D02*
G01X1226906D01*
X1225293D02*
G01X1225706D01*
X1223343D02*
G01X1223756D01*
X1220043D02*
G01X1222256D01*
X1216518D02*
G01X1218731D01*
X1212768D02*
G01X1214981D01*
X1209993D02*
G01X1210406D01*
X1207443D02*
G01X1208156D01*
X1207068D02*
G01X1207106D01*
X1226793Y1205309D02*
G01X1226906D01*
X1225293D02*
G01X1225706D01*
X1223343D02*
G01X1223756D01*
X1220043D02*
G01X1222181D01*
X1216443D02*
G01X1218731D01*
X1212843D02*
G01X1214906D01*
X1209993D02*
G01X1210406D01*
X1207443D02*
G01X1208156D01*
X1207068D02*
G01X1207106D01*
X1227843Y1205234D02*
G01X1227881D01*
X1226793D02*
G01X1226831D01*
X1225293D02*
G01X1225706D01*
X1223343D02*
G01X1223756D01*
X1220043D02*
G01X1222106D01*
X1216368D02*
G01X1218731D01*
X1212993D02*
G01X1214756D01*
X1209993D02*
G01X1210406D01*
X1207443D02*
G01X1208156D01*
X1207068D02*
G01X1207106D01*
X1227843Y1205159D02*
G01X1227881D01*
X1226793D02*
G01X1226831D01*
X1207443D02*
G01X1208156D01*
X1207068D02*
G01X1207106D01*
X1226718Y1205084D02*
G01X1226831D01*
X1207443D02*
G01X1208156D01*
X1207068D02*
G01X1207106D01*
X1226718Y1205009D02*
G01X1226831D01*
X1207443D02*
G01X1208156D01*
X1207068D02*
G01X1207106D01*
X1226718Y1204934D02*
G01X1226831D01*
X1207518D02*
G01X1208231D01*
X1207068D02*
G01X1207106D01*
X1226718Y1204859D02*
G01X1226831D01*
X1207518D02*
G01X1208231D01*
X1207068D02*
G01X1207106D01*
X1227768Y1204784D02*
G01X1227806D01*
X1226718D02*
G01X1226756D01*
X1207518D02*
G01X1208231D01*
X1207068D02*
G01X1207106D01*
X1227768Y1204709D02*
G01X1227806D01*
X1226643D02*
G01X1226756D01*
X1207518D02*
G01X1208231D01*
X1207068D02*
G01X1207181D01*
X1227768Y1204634D02*
G01X1227806D01*
X1226643D02*
G01X1226756D01*
X1207518D02*
G01X1208231D01*
X1207143D02*
G01X1207181D01*
X1226643Y1204559D02*
G01X1226756D01*
X1207518D02*
G01X1208306D01*
X1207143D02*
G01X1207181D01*
X1226643Y1204484D02*
G01X1226756D01*
X1207593D02*
G01X1208306D01*
X1207143D02*
G01X1207256D01*
X1226643Y1204409D02*
G01X1226681D01*
X1207593D02*
G01X1208306D01*
X1207218D02*
G01X1207256D01*
X1227693Y1204334D02*
G01X1227731D01*
X1226568D02*
G01X1226681D01*
X1207593D02*
G01X1208306D01*
X1207218D02*
G01X1207256D01*
X1227693Y1204259D02*
G01X1227731D01*
X1226568D02*
G01X1226681D01*
X1207593D02*
G01X1208306D01*
X1207218D02*
G01X1207256D01*
X1227693Y1204184D02*
G01X1227731D01*
X1226568D02*
G01X1226681D01*
X1207593D02*
G01X1208381D01*
X1207218D02*
G01X1207256D01*
X1227693Y1204109D02*
G01X1227731D01*
X1226568D02*
G01X1226681D01*
X1207593D02*
G01X1208381D01*
X1226568Y1204034D02*
G01X1226606D01*
X1216818D02*
G01X1218581D01*
X1207668D02*
G01X1208381D01*
X1227618Y1203959D02*
G01X1227656D01*
X1226493D02*
G01X1226606D01*
X1214793D02*
G01X1220231D01*
X1207668D02*
G01X1208381D01*
X1227618Y1203884D02*
G01X1227656D01*
X1226493D02*
G01X1226606D01*
X1213743D02*
G01X1221206D01*
X1207668D02*
G01X1208456D01*
X1227618Y1203809D02*
G01X1227656D01*
X1226493D02*
G01X1226606D01*
X1212993D02*
G01X1221881D01*
X1207668D02*
G01X1208456D01*
X1227618Y1203734D02*
G01X1227656D01*
X1226493D02*
G01X1226606D01*
X1212468D02*
G01X1222481D01*
X1207668D02*
G01X1208456D01*
X1207293D02*
G01X1207331D01*
X1226418Y1203659D02*
G01X1226531D01*
X1211943D02*
G01X1223006D01*
X1207743D02*
G01X1208456D01*
X1227543Y1203584D02*
G01X1227581D01*
X1226418D02*
G01X1226531D01*
X1211493D02*
G01X1223456D01*
X1207743D02*
G01X1208531D01*
X1227543Y1203509D02*
G01X1227581D01*
X1226418D02*
G01X1226531D01*
X1211118D02*
G01X1223831D01*
X1207743D02*
G01X1208531D01*
X1227543Y1203434D02*
G01X1227581D01*
X1226418D02*
G01X1226456D01*
X1210743D02*
G01X1224131D01*
X1207743D02*
G01X1208531D01*
X1207368D02*
G01X1207406D01*
X1227543Y1203359D02*
G01X1227581D01*
X1226343D02*
G01X1226456D01*
X1219218D02*
G01X1224431D01*
X1210518D02*
G01X1215656D01*
X1207743D02*
G01X1208531D01*
X1207368D02*
G01X1207406D01*
X1226343Y1203284D02*
G01X1226456D01*
X1220268D02*
G01X1224731D01*
X1210218D02*
G01X1214531D01*
X1207818D02*
G01X1208606D01*
X1227468Y1203209D02*
G01X1227506D01*
X1226343D02*
G01X1226456D01*
X1221093D02*
G01X1224956D01*
X1209993D02*
G01X1213781D01*
X1207818D02*
G01X1208606D01*
X1227468Y1203134D02*
G01X1227506D01*
X1226343D02*
G01X1226381D01*
X1221618D02*
G01X1225181D01*
X1209768D02*
G01X1213256D01*
X1207818D02*
G01X1208606D01*
X1207443D02*
G01X1207481D01*
X1227468Y1203059D02*
G01X1227506D01*
X1226268D02*
G01X1226381D01*
X1222143D02*
G01X1225256D01*
X1209693D02*
G01X1212731D01*
X1207818D02*
G01X1208606D01*
X1207443D02*
G01X1207481D01*
X1226268Y1202984D02*
G01X1226381D01*
X1222593D02*
G01X1225181D01*
X1209693D02*
G01X1212281D01*
X1207818D02*
G01X1208681D01*
X1207443D02*
G01X1207481D01*
X1226268Y1202909D02*
G01X1226381D01*
X1223043D02*
G01X1225181D01*
X1209768D02*
G01X1211906D01*
X1207893D02*
G01X1208681D01*
X1227393Y1202834D02*
G01X1227431D01*
X1226268D02*
G01X1226306D01*
X1223418D02*
G01X1225106D01*
X1209843D02*
G01X1211531D01*
X1207893D02*
G01X1208681D01*
X1207518D02*
G01X1207556D01*
X1227393Y1202759D02*
G01X1227431D01*
X1226193D02*
G01X1226306D01*
X1223718D02*
G01X1225031D01*
X1209918D02*
G01X1211231D01*
X1207893D02*
G01X1208681D01*
X1207518D02*
G01X1207556D01*
X1227393Y1202684D02*
G01X1227431D01*
X1226193D02*
G01X1226306D01*
X1224018D02*
G01X1224956D01*
X1209918D02*
G01X1210931D01*
X1207893D02*
G01X1208756D01*
X1207518D02*
G01X1207556D01*
X1226193Y1202609D02*
G01X1226306D01*
X1224318D02*
G01X1224956D01*
X1218318D02*
G01X1220531D01*
X1214568D02*
G01X1216631D01*
X1209993D02*
G01X1210556D01*
X1207893D02*
G01X1208756D01*
X1227318Y1202534D02*
G01X1227356D01*
X1226118D02*
G01X1226231D01*
X1224618D02*
G01X1224881D01*
X1218243D02*
G01X1221506D01*
X1213443D02*
G01X1216706D01*
X1210068D02*
G01X1210331D01*
X1207968D02*
G01X1208756D01*
X1227318Y1202459D02*
G01X1227356D01*
X1226118D02*
G01X1226231D01*
X1218168D02*
G01X1222181D01*
X1212768D02*
G01X1216781D01*
X1207968D02*
G01X1208831D01*
X1207593D02*
G01X1207631D01*
X1227318Y1202384D02*
G01X1227356D01*
X1226118D02*
G01X1226231D01*
X1218093D02*
G01X1222706D01*
X1212243D02*
G01X1216856D01*
X1207968D02*
G01X1208831D01*
X1207593D02*
G01X1207631D01*
X1226118Y1202309D02*
G01X1226156D01*
X1218018D02*
G01X1223156D01*
X1211868D02*
G01X1216931D01*
X1207968D02*
G01X1208831D01*
X1207593D02*
G01X1207631D01*
X1227243Y1202234D02*
G01X1227281D01*
X1226043D02*
G01X1226156D01*
X1217943D02*
G01X1223456D01*
X1211493D02*
G01X1216931D01*
X1208043D02*
G01X1208831D01*
X1227243Y1202159D02*
G01X1227281D01*
X1226043D02*
G01X1226156D01*
X1217868D02*
G01X1223756D01*
X1211193D02*
G01X1217006D01*
X1208043D02*
G01X1208906D01*
X1207668D02*
G01X1207706D01*
X1227243Y1202084D02*
G01X1227281D01*
X1226043D02*
G01X1226081D01*
X1217868D02*
G01X1224056D01*
X1210893D02*
G01X1217081D01*
X1208043D02*
G01X1208906D01*
X1207668D02*
G01X1207706D01*
X1225968Y1202009D02*
G01X1226081D01*
X1217793D02*
G01X1224281D01*
X1210668D02*
G01X1217156D01*
X1208043D02*
G01X1208906D01*
X1207668D02*
G01X1207706D01*
X1227168Y1201934D02*
G01X1227206D01*
X1225968D02*
G01X1226081D01*
X1217718D02*
G01X1224431D01*
X1210518D02*
G01X1217231D01*
X1208118D02*
G01X1208981D01*
X1227168Y1201859D02*
G01X1227206D01*
X1225968D02*
G01X1226081D01*
X1217643D02*
G01X1224431D01*
X1210518D02*
G01X1217306D01*
X1208118D02*
G01X1208981D01*
X1207743D02*
G01X1207781D01*
X1227168Y1201784D02*
G01X1227206D01*
X1225893D02*
G01X1226006D01*
X1217568D02*
G01X1224356D01*
X1210593D02*
G01X1217306D01*
X1208118D02*
G01X1208981D01*
X1207743D02*
G01X1207781D01*
X1225893Y1201709D02*
G01X1226006D01*
X1220868D02*
G01X1224281D01*
X1217493D02*
G01X1219856D01*
X1215093D02*
G01X1217381D01*
X1210668D02*
G01X1214006D01*
X1208193D02*
G01X1209056D01*
X1207743D02*
G01X1207781D01*
X1227093Y1201634D02*
G01X1227131D01*
X1225893D02*
G01X1225931D01*
X1221393D02*
G01X1224206D01*
X1215093D02*
G01X1219856D01*
X1210743D02*
G01X1213556D01*
X1208193D02*
G01X1209056D01*
X1227093Y1201559D02*
G01X1227131D01*
X1225818D02*
G01X1225931D01*
X1221618D02*
G01X1224131D01*
X1215093D02*
G01X1219856D01*
X1210818D02*
G01X1213256D01*
X1208943D02*
G01X1209056D01*
X1208193D02*
G01X1208831D01*
X1207818D02*
G01X1207856D01*
X1225818Y1201484D02*
G01X1225931D01*
X1221843D02*
G01X1223981D01*
X1215093D02*
G01X1219781D01*
X1210893D02*
G01X1213031D01*
X1208943D02*
G01X1209131D01*
X1208193D02*
G01X1208831D01*
X1207818D02*
G01X1207856D01*
X1225818Y1201409D02*
G01X1225931D01*
X1221993D02*
G01X1223906D01*
X1215168D02*
G01X1219781D01*
X1211043D02*
G01X1212881D01*
X1208943D02*
G01X1209131D01*
X1208268D02*
G01X1208756D01*
X1227018Y1201334D02*
G01X1227056D01*
X1225818D02*
G01X1225856D01*
X1222143D02*
G01X1223831D01*
X1215168D02*
G01X1219781D01*
X1211118D02*
G01X1212806D01*
X1209018D02*
G01X1209131D01*
X1208268D02*
G01X1208831D01*
X1207893D02*
G01X1207931D01*
X1227018Y1201259D02*
G01X1227056D01*
X1225743D02*
G01X1225856D01*
X1222218D02*
G01X1223681D01*
X1215168D02*
G01X1219781D01*
X1211268D02*
G01X1212656D01*
X1209018D02*
G01X1209206D01*
X1208268D02*
G01X1208831D01*
X1207893D02*
G01X1207931D01*
X1225743Y1201184D02*
G01X1225856D01*
X1222293D02*
G01X1223531D01*
X1215168D02*
G01X1219706D01*
X1211343D02*
G01X1212581D01*
X1209093D02*
G01X1209206D01*
X1208343D02*
G01X1208756D01*
X1207893D02*
G01X1207931D01*
X1225743Y1201109D02*
G01X1225781D01*
X1222368D02*
G01X1223456D01*
X1215243D02*
G01X1219706D01*
X1211493D02*
G01X1212581D01*
X1209093D02*
G01X1209206D01*
X1208343D02*
G01X1208606D01*
X1226943Y1201034D02*
G01X1226981D01*
X1225668D02*
G01X1225781D01*
X1222443D02*
G01X1223306D01*
X1215243D02*
G01X1219706D01*
X1211643D02*
G01X1212506D01*
X1209168D02*
G01X1209281D01*
X1208343D02*
G01X1208531D01*
X1207968D02*
G01X1208006D01*
X1225668Y1200959D02*
G01X1225781D01*
X1222443D02*
G01X1223156D01*
X1215243D02*
G01X1219706D01*
X1211793D02*
G01X1212431D01*
X1209168D02*
G01X1209281D01*
X1208418D02*
G01X1208531D01*
X1207968D02*
G01X1208006D01*
X1225593Y1200884D02*
G01X1225706D01*
X1222518D02*
G01X1223006D01*
X1215243D02*
G01X1219706D01*
X1211943D02*
G01X1212431D01*
X1209168D02*
G01X1209281D01*
X1208418D02*
G01X1208531D01*
X1226868Y1200809D02*
G01X1226906D01*
X1225593D02*
G01X1225706D01*
X1222518D02*
G01X1222781D01*
X1215243D02*
G01X1219631D01*
X1212168D02*
G01X1212431D01*
X1209243D02*
G01X1209356D01*
X1208418D02*
G01X1208531D01*
X1226868Y1200734D02*
G01X1226906D01*
X1225593D02*
G01X1225706D01*
X1222518D02*
G01X1222631D01*
X1215318D02*
G01X1219631D01*
X1212318D02*
G01X1212356D01*
X1209243D02*
G01X1209356D01*
X1208493D02*
G01X1208531D01*
X1208043D02*
G01X1208081D01*
X1225518Y1200659D02*
G01X1225631D01*
X1215318D02*
G01X1219631D01*
X1209243D02*
G01X1209356D01*
X1208493D02*
G01X1208531D01*
X1226793Y1200584D02*
G01X1226831D01*
X1225518D02*
G01X1225631D01*
X1215318D02*
G01X1219631D01*
X1209318D02*
G01X1209431D01*
X1208493D02*
G01X1208531D01*
X1226793Y1200509D02*
G01X1226831D01*
X1225518D02*
G01X1225631D01*
X1215318D02*
G01X1219556D01*
X1209318D02*
G01X1209431D01*
X1208118D02*
G01X1208156D01*
X1225443Y1200434D02*
G01X1225556D01*
X1215393D02*
G01X1219556D01*
X1209393D02*
G01X1209506D01*
X1208118D02*
G01X1208156D01*
X1226718Y1200359D02*
G01X1226756D01*
X1225443D02*
G01X1225556D01*
X1215393D02*
G01X1219556D01*
X1209393D02*
G01X1209506D01*
X1226718Y1200284D02*
G01X1226756D01*
X1225368D02*
G01X1225481D01*
X1215393D02*
G01X1219556D01*
X1209393D02*
G01X1209506D01*
X1208193D02*
G01X1208231D01*
X1226718Y1200209D02*
G01X1226756D01*
X1225368D02*
G01X1225481D01*
X1215393D02*
G01X1219556D01*
X1209468D02*
G01X1209581D01*
X1208193D02*
G01X1208231D01*
X1225368Y1200134D02*
G01X1225406D01*
X1215468D02*
G01X1219481D01*
X1209468D02*
G01X1209581D01*
X1226643Y1200059D02*
G01X1226681D01*
X1225293D02*
G01X1225406D01*
X1215468D02*
G01X1219481D01*
X1209468D02*
G01X1209581D01*
X1225293Y1199984D02*
G01X1225406D01*
X1215468D02*
G01X1219481D01*
X1209543D02*
G01X1209656D01*
X1208268D02*
G01X1208306D01*
X1225218Y1199909D02*
G01X1225331D01*
X1215468D02*
G01X1219481D01*
X1209543D02*
G01X1209656D01*
X1226568Y1199834D02*
G01X1226606D01*
X1225218D02*
G01X1225331D01*
X1215468D02*
G01X1219406D01*
X1209618D02*
G01X1209731D01*
X1208343D02*
G01X1208381D01*
X1225218Y1199759D02*
G01X1225331D01*
X1215543D02*
G01X1219406D01*
X1209618D02*
G01X1209731D01*
X1208343D02*
G01X1208381D01*
X1225143Y1199684D02*
G01X1225256D01*
X1215543D02*
G01X1219406D01*
X1209618D02*
G01X1209731D01*
X1226493Y1199609D02*
G01X1226531D01*
X1225143D02*
G01X1225256D01*
X1215543D02*
G01X1219406D01*
X1209693D02*
G01X1209806D01*
X1225068Y1199534D02*
G01X1225181D01*
X1215543D02*
G01X1219331D01*
X1209693D02*
G01X1209806D01*
X1225068Y1199459D02*
G01X1225181D01*
X1215618D02*
G01X1219331D01*
X1209768D02*
G01X1209881D01*
X1226418Y1199384D02*
G01X1226456D01*
X1225068D02*
G01X1225181D01*
X1215618D02*
G01X1219331D01*
X1209768D02*
G01X1209881D01*
X1208493D02*
G01X1208531D01*
X1224993Y1199309D02*
G01X1225106D01*
X1215618D02*
G01X1219331D01*
X1209843D02*
G01X1209956D01*
X1226343Y1199234D02*
G01X1226381D01*
X1224993D02*
G01X1225106D01*
X1215618D02*
G01X1219331D01*
X1209843D02*
G01X1209956D01*
X1226343Y1199159D02*
G01X1226381D01*
X1224918D02*
G01X1225031D01*
X1215618D02*
G01X1219256D01*
X1209843D02*
G01X1210031D01*
X1208568D02*
G01X1208606D01*
X1224918Y1199084D02*
G01X1225031D01*
X1215693D02*
G01X1219256D01*
X1209918D02*
G01X1210031D01*
X1226268Y1199009D02*
G01X1226306D01*
X1224843D02*
G01X1224956D01*
X1215693D02*
G01X1219256D01*
X1209918D02*
G01X1210031D01*
X1224843Y1198934D02*
G01X1224956D01*
X1215693D02*
G01X1219256D01*
X1209993D02*
G01X1210106D01*
X1208643D02*
G01X1208681D01*
X1224768Y1198859D02*
G01X1224956D01*
X1215693D02*
G01X1219256D01*
X1209993D02*
G01X1210106D01*
X1226193Y1198784D02*
G01X1226231D01*
X1224768D02*
G01X1224881D01*
X1215768D02*
G01X1219181D01*
X1210068D02*
G01X1210181D01*
X1208718D02*
G01X1208756D01*
X1224693Y1198709D02*
G01X1224881D01*
X1215768D02*
G01X1219181D01*
X1210068D02*
G01X1210181D01*
X1226118Y1198634D02*
G01X1226156D01*
X1224693D02*
G01X1224806D01*
X1215768D02*
G01X1219181D01*
X1210143D02*
G01X1210256D01*
X1226118Y1198559D02*
G01X1226156D01*
X1224618D02*
G01X1224806D01*
X1215768D02*
G01X1219181D01*
X1210143D02*
G01X1210256D01*
X1208793D02*
G01X1208831D01*
X1224618Y1198484D02*
G01X1224731D01*
X1215843D02*
G01X1219106D01*
X1210218D02*
G01X1210331D01*
X1226043Y1198409D02*
G01X1226081D01*
X1224618D02*
G01X1224731D01*
X1215843D02*
G01X1219106D01*
X1210218D02*
G01X1210331D01*
X1208868D02*
G01X1208906D01*
X1224543Y1198334D02*
G01X1224656D01*
X1215843D02*
G01X1219106D01*
X1210293D02*
G01X1210406D01*
X1225968Y1198259D02*
G01X1226006D01*
X1224543D02*
G01X1224656D01*
X1215843D02*
G01X1219106D01*
X1210293D02*
G01X1210406D01*
X1225968Y1198184D02*
G01X1226006D01*
X1224468D02*
G01X1224581D01*
X1215843D02*
G01X1219031D01*
X1210293D02*
G01X1210481D01*
X1208943D02*
G01X1208981D01*
X1224468Y1198109D02*
G01X1224581D01*
X1215918D02*
G01X1219031D01*
X1210368D02*
G01X1210481D01*
X1225893Y1198034D02*
G01X1225931D01*
X1224393D02*
G01X1224506D01*
X1215918D02*
G01X1219031D01*
X1210368D02*
G01X1210556D01*
X1209018D02*
G01X1209056D01*
X1224393Y1197959D02*
G01X1224506D01*
X1215918D02*
G01X1219031D01*
X1210443D02*
G01X1210556D01*
X1225818Y1197884D02*
G01X1225856D01*
X1224318D02*
G01X1224431D01*
X1215918D02*
G01X1219031D01*
X1210443D02*
G01X1210631D01*
X1225818Y1197809D02*
G01X1225856D01*
X1224318D02*
G01X1224431D01*
X1215918D02*
G01X1218956D01*
X1210518D02*
G01X1210631D01*
X1209093D02*
G01X1209131D01*
X1225743Y1197734D02*
G01X1225781D01*
X1224243D02*
G01X1224356D01*
X1215993D02*
G01X1218956D01*
X1210518D02*
G01X1210706D01*
X1224168Y1197659D02*
G01X1224356D01*
X1215993D02*
G01X1218956D01*
X1210593D02*
G01X1210706D01*
X1209168D02*
G01X1209206D01*
X1225668Y1197584D02*
G01X1225706D01*
X1224168D02*
G01X1224281D01*
X1215993D02*
G01X1218956D01*
X1210593D02*
G01X1210781D01*
X1225668Y1197509D02*
G01X1225706D01*
X1224093D02*
G01X1224281D01*
X1215993D02*
G01X1218881D01*
X1210668D02*
G01X1210781D01*
X1209243D02*
G01X1209281D01*
X1224093Y1197434D02*
G01X1224206D01*
X1216068D02*
G01X1218881D01*
X1210668D02*
G01X1210856D01*
X1225593Y1197359D02*
G01X1225631D01*
X1224018D02*
G01X1224206D01*
X1216068D02*
G01X1218881D01*
X1210743D02*
G01X1210856D01*
X1209318D02*
G01X1209356D01*
X1224018Y1197284D02*
G01X1224131D01*
X1216068D02*
G01X1218881D01*
X1210743D02*
G01X1210931D01*
X1225518Y1197209D02*
G01X1225556D01*
X1223943D02*
G01X1224131D01*
X1216068D02*
G01X1218881D01*
X1210818D02*
G01X1211006D01*
X1223943Y1197134D02*
G01X1224056D01*
X1216143D02*
G01X1218806D01*
X1210818D02*
G01X1211006D01*
X1209393D02*
G01X1209431D01*
X1225443Y1197059D02*
G01X1225481D01*
X1223868D02*
G01X1223981D01*
X1216143D02*
G01X1218806D01*
X1210893D02*
G01X1211081D01*
X1225443Y1196984D02*
G01X1225481D01*
X1223793D02*
G01X1223981D01*
X1216143D02*
G01X1218806D01*
X1210893D02*
G01X1211081D01*
X1209468D02*
G01X1209506D01*
X1225368Y1196909D02*
G01X1225406D01*
X1223793D02*
G01X1223906D01*
X1216143D02*
G01X1218806D01*
X1210968D02*
G01X1211156D01*
X1225368Y1196834D02*
G01X1225406D01*
X1223718D02*
G01X1223906D01*
X1216143D02*
G01X1218731D01*
X1211043D02*
G01X1211156D01*
X1209543D02*
G01X1209581D01*
X1225293Y1196759D02*
G01X1225331D01*
X1223718D02*
G01X1223831D01*
X1216218D02*
G01X1218731D01*
X1211043D02*
G01X1211231D01*
X1223643Y1196684D02*
G01X1223831D01*
X1216218D02*
G01X1218731D01*
X1211118D02*
G01X1211231D01*
X1209618D02*
G01X1209656D01*
X1223643Y1196609D02*
G01X1223756D01*
X1216218D02*
G01X1218731D01*
X1211118D02*
G01X1211306D01*
X1225218Y1196534D02*
G01X1225256D01*
X1223568D02*
G01X1223756D01*
X1216218D02*
G01X1218656D01*
X1211193D02*
G01X1211381D01*
X1209693D02*
G01X1209731D01*
X1223493Y1196459D02*
G01X1223681D01*
X1216218D02*
G01X1218656D01*
X1211193D02*
G01X1211381D01*
X1225143Y1196384D02*
G01X1225181D01*
X1223493D02*
G01X1223606D01*
X1216293D02*
G01X1218656D01*
X1211268D02*
G01X1211456D01*
X1209768D02*
G01X1209806D01*
X1223418Y1196309D02*
G01X1223606D01*
X1216293D02*
G01X1218656D01*
X1211268D02*
G01X1211531D01*
X1225068Y1196234D02*
G01X1225106D01*
X1223343D02*
G01X1223531D01*
X1216293D02*
G01X1218656D01*
X1211343D02*
G01X1211531D01*
X1209843D02*
G01X1209881D01*
X1224993Y1196159D02*
G01X1225031D01*
X1223343D02*
G01X1223531D01*
X1216293D02*
G01X1218581D01*
X1211343D02*
G01X1211606D01*
X1224993Y1196084D02*
G01X1225031D01*
X1223268D02*
G01X1223456D01*
X1216368D02*
G01X1218581D01*
X1211418D02*
G01X1211681D01*
X1209918D02*
G01X1209956D01*
X1223268Y1196009D02*
G01X1223381D01*
X1216368D02*
G01X1218581D01*
X1211493D02*
G01X1211681D01*
X1224918Y1195934D02*
G01X1224956D01*
X1223193D02*
G01X1223381D01*
X1216368D02*
G01X1218581D01*
X1211493D02*
G01X1211756D01*
X1209993D02*
G01X1210031D01*
X1223118Y1195859D02*
G01X1223306D01*
X1216368D02*
G01X1218581D01*
X1211568D02*
G01X1211831D01*
X1223118Y1195784D02*
G01X1223231D01*
X1216443D02*
G01X1218506D01*
X1211493D02*
G01X1211831D01*
X1210068D02*
G01X1210106D01*
X1224768Y1195709D02*
G01X1224806D01*
X1223043D02*
G01X1223231D01*
X1216443D02*
G01X1218506D01*
X1211493D02*
G01X1211906D01*
X1222968Y1195634D02*
G01X1223156D01*
X1216443D02*
G01X1218506D01*
X1211718D02*
G01X1211906D01*
X1211493D02*
G01X1211606D01*
X1210143D02*
G01X1210181D01*
X1224693Y1195559D02*
G01X1224731D01*
X1222893D02*
G01X1223081D01*
X1216443D02*
G01X1218506D01*
X1211643D02*
G01X1211981D01*
X1211343D02*
G01X1211531D01*
X1210218D02*
G01X1210256D01*
X1222893Y1195484D02*
G01X1223081D01*
X1216443D02*
G01X1218431D01*
X1211643D02*
G01X1212056D01*
X1211268D02*
G01X1211531D01*
X1224618Y1195409D02*
G01X1224656D01*
X1222818D02*
G01X1223006D01*
X1216518D02*
G01X1218431D01*
X1211268D02*
G01X1212131D01*
X1210293D02*
G01X1210331D01*
X1222743Y1195334D02*
G01X1222931D01*
X1216518D02*
G01X1218431D01*
X1211043D02*
G01X1212131D01*
X1210893D02*
G01X1210931D01*
X1210743D02*
G01X1210781D01*
X1224543Y1195259D02*
G01X1224581D01*
X1222743D02*
G01X1222931D01*
X1216518D02*
G01X1218431D01*
X1211118D02*
G01X1212206D01*
X1210968D02*
G01X1211006D01*
X1210818D02*
G01X1210856D01*
X1210368D02*
G01X1210406D01*
X1222668Y1195184D02*
G01X1222856D01*
X1216518D02*
G01X1218356D01*
X1211118D02*
G01X1212281D01*
X1210968D02*
G01X1211006D01*
X1210818D02*
G01X1210856D01*
X1224468Y1195109D02*
G01X1224506D01*
X1222593D02*
G01X1222781D01*
X1216593D02*
G01X1218356D01*
X1211043D02*
G01X1212281D01*
X1210893D02*
G01X1210931D01*
X1224393Y1195034D02*
G01X1224431D01*
X1222593D02*
G01X1222781D01*
X1216593D02*
G01X1218356D01*
X1210893D02*
G01X1212356D01*
X1222518Y1194959D02*
G01X1222706D01*
X1216593D02*
G01X1218356D01*
X1211118D02*
G01X1212431D01*
X1210968D02*
G01X1211006D01*
X1210518D02*
G01X1210556D01*
X1224318Y1194884D02*
G01X1224356D01*
X1222443D02*
G01X1222631D01*
X1216593D02*
G01X1218356D01*
X1211043D02*
G01X1212506D01*
X1210593D02*
G01X1210631D01*
X1222368Y1194809D02*
G01X1222631D01*
X1216593D02*
G01X1218281D01*
X1211043D02*
G01X1212506D01*
X1224243Y1194734D02*
G01X1224281D01*
X1222368D02*
G01X1222556D01*
X1216668D02*
G01X1218281D01*
X1211118D02*
G01X1212581D01*
X1210668D02*
G01X1210706D01*
X1224168Y1194659D02*
G01X1224206D01*
X1222293D02*
G01X1222481D01*
X1216668D02*
G01X1218281D01*
X1211343D02*
G01X1212656D01*
X1211118D02*
G01X1211231D01*
X1222218Y1194584D02*
G01X1222406D01*
X1216668D02*
G01X1218281D01*
X1211193D02*
G01X1212731D01*
X1210743D02*
G01X1210781D01*
X1224093Y1194509D02*
G01X1224131D01*
X1222143D02*
G01X1222331D01*
X1216668D02*
G01X1218206D01*
X1211268D02*
G01X1212731D01*
X1210818D02*
G01X1210856D01*
X1224018Y1194434D02*
G01X1224056D01*
X1222068D02*
G01X1222331D01*
X1216743D02*
G01X1218206D01*
X1211268D02*
G01X1212806D01*
X1224018Y1194359D02*
G01X1224056D01*
X1222068D02*
G01X1222256D01*
X1216743D02*
G01X1218206D01*
X1211343D02*
G01X1212881D01*
X1210893D02*
G01X1210931D01*
X1223943Y1194284D02*
G01X1223981D01*
X1222143D02*
G01X1222181D01*
X1221993D02*
G01X1222031D01*
X1216743D02*
G01X1218206D01*
X1211418D02*
G01X1212956D01*
X1223868Y1194209D02*
G01X1223906D01*
X1221918D02*
G01X1222106D01*
X1216743D02*
G01X1218206D01*
X1211418D02*
G01X1213031D01*
X1223868Y1194134D02*
G01X1223906D01*
X1221843D02*
G01X1222106D01*
X1216818D02*
G01X1218131D01*
X1211493D02*
G01X1213031D01*
X1211043D02*
G01X1211081D01*
X1223793Y1194059D02*
G01X1223831D01*
X1221918D02*
G01X1222031D01*
X1221768D02*
G01X1221806D01*
X1216818D02*
G01X1218131D01*
X1212768D02*
G01X1213106D01*
X1211568D02*
G01X1212656D01*
X1211118D02*
G01X1211156D01*
X1223718Y1193984D02*
G01X1223756D01*
X1221918D02*
G01X1221956D01*
X1221768D02*
G01X1221806D01*
X1216818D02*
G01X1218131D01*
X1212768D02*
G01X1213181D01*
X1211568D02*
G01X1212656D01*
X1223643Y1193909D02*
G01X1223756D01*
X1221843D02*
G01X1221881D01*
X1221693D02*
G01X1221731D01*
X1216818D02*
G01X1218131D01*
X1211943D02*
G01X1213256D01*
X1211643D02*
G01X1211831D01*
X1211193D02*
G01X1211231D01*
X1223643Y1193834D02*
G01X1223681D01*
X1221768D02*
G01X1221806D01*
X1221618D02*
G01X1221656D01*
X1216818D02*
G01X1218056D01*
X1211943D02*
G01X1213331D01*
X1211718D02*
G01X1211831D01*
X1211268D02*
G01X1211306D01*
X1223568Y1193759D02*
G01X1223606D01*
X1221543D02*
G01X1221806D01*
X1216893D02*
G01X1218056D01*
X1211718D02*
G01X1213406D01*
X1211268D02*
G01X1211306D01*
X1223493Y1193684D02*
G01X1223606D01*
X1223343D02*
G01X1223381D01*
X1221468D02*
G01X1221731D01*
X1216893D02*
G01X1218056D01*
X1213068D02*
G01X1213406D01*
X1211793D02*
G01X1212956D01*
X1211343D02*
G01X1211381D01*
X1223418Y1193609D02*
G01X1223531D01*
X1223268D02*
G01X1223306D01*
X1221393D02*
G01X1221656D01*
X1216893D02*
G01X1218056D01*
X1211868D02*
G01X1213481D01*
X1211418D02*
G01X1211456D01*
X1223268Y1193534D02*
G01X1223456D01*
X1221393D02*
G01X1221581D01*
X1216893D02*
G01X1218056D01*
X1212543D02*
G01X1213556D01*
X1212168D02*
G01X1212431D01*
X1211868D02*
G01X1212056D01*
X1211493D02*
G01X1211531D01*
X1223193Y1193459D02*
G01X1223381D01*
X1221318D02*
G01X1221506D01*
X1216893D02*
G01X1217981D01*
X1213368D02*
G01X1213631D01*
X1212243D02*
G01X1213256D01*
X1212093D02*
G01X1212131D01*
X1211943D02*
G01X1211981D01*
X1211493D02*
G01X1211531D01*
X1223118Y1193384D02*
G01X1223381D01*
X1221243D02*
G01X1221431D01*
X1216968D02*
G01X1217981D01*
X1212018D02*
G01X1213706D01*
X1211568D02*
G01X1211606D01*
X1223043Y1193309D02*
G01X1223306D01*
X1221168D02*
G01X1221356D01*
X1216968D02*
G01X1217981D01*
X1213443D02*
G01X1213781D01*
X1212093D02*
G01X1213256D01*
X1211643D02*
G01X1211681D01*
X1223043Y1193234D02*
G01X1223231D01*
X1221093D02*
G01X1221356D01*
X1216968D02*
G01X1217981D01*
X1213518D02*
G01X1213856D01*
X1213293D02*
G01X1213331D01*
X1212618D02*
G01X1213181D01*
X1212093D02*
G01X1212506D01*
X1211643D02*
G01X1211756D01*
X1222968Y1193159D02*
G01X1223231D01*
X1221018D02*
G01X1221281D01*
X1216968D02*
G01X1217906D01*
X1213443D02*
G01X1213931D01*
X1213293D02*
G01X1213331D01*
X1212168D02*
G01X1213181D01*
X1211718D02*
G01X1211756D01*
X1222893Y1193084D02*
G01X1223156D01*
X1220943D02*
G01X1221206D01*
X1217043D02*
G01X1217906D01*
X1213593D02*
G01X1214006D01*
X1213368D02*
G01X1213481D01*
X1212468D02*
G01X1213256D01*
X1212243D02*
G01X1212356D01*
X1211793D02*
G01X1211981D01*
X1222818Y1193009D02*
G01X1223081D01*
X1220868D02*
G01X1221131D01*
X1217043D02*
G01X1217906D01*
X1213743D02*
G01X1214081D01*
X1213518D02*
G01X1213556D01*
X1212243D02*
G01X1213406D01*
X1212018D02*
G01X1212056D01*
X1211868D02*
G01X1211906D01*
X1222818Y1192934D02*
G01X1223081D01*
X1220793D02*
G01X1221056D01*
X1217043D02*
G01X1217906D01*
X1213818D02*
G01X1214156D01*
X1213143D02*
G01X1213631D01*
X1212618D02*
G01X1212956D01*
X1212318D02*
G01X1212506D01*
X1211868D02*
G01X1212131D01*
X1222743Y1192859D02*
G01X1223006D01*
X1220718D02*
G01X1220981D01*
X1217043D02*
G01X1217906D01*
X1213893D02*
G01X1214231D01*
X1212918D02*
G01X1213631D01*
X1212393D02*
G01X1212806D01*
X1211943D02*
G01X1212206D01*
X1222668Y1192784D02*
G01X1222931D01*
X1220643D02*
G01X1220906D01*
X1217118D02*
G01X1217831D01*
X1213968D02*
G01X1214306D01*
X1213218D02*
G01X1213406D01*
X1212993D02*
G01X1213106D01*
X1212468D02*
G01X1212881D01*
X1212018D02*
G01X1212281D01*
X1222593Y1192709D02*
G01X1222856D01*
X1220568D02*
G01X1220831D01*
X1217118D02*
G01X1217831D01*
X1214043D02*
G01X1214306D01*
X1213893D02*
G01X1213931D01*
X1213068D02*
G01X1213331D01*
X1212768D02*
G01X1212881D01*
X1212543D02*
G01X1212581D01*
X1212018D02*
G01X1212281D01*
X1222518Y1192634D02*
G01X1222856D01*
X1220493D02*
G01X1220756D01*
X1217118D02*
G01X1217831D01*
X1214118D02*
G01X1214456D01*
X1213893D02*
G01X1213931D01*
X1212843D02*
G01X1213256D01*
X1212543D02*
G01X1212731D01*
X1212093D02*
G01X1212356D01*
X1222518Y1192559D02*
G01X1222781D01*
X1220418D02*
G01X1220681D01*
X1217118D02*
G01X1217831D01*
X1214043D02*
G01X1214531D01*
X1213818D02*
G01X1213856D01*
X1212918D02*
G01X1213181D01*
X1212618D02*
G01X1212731D01*
X1212168D02*
G01X1212431D01*
X1222443Y1192484D02*
G01X1222706D01*
X1220343D02*
G01X1220606D01*
X1217118D02*
G01X1217756D01*
X1214268D02*
G01X1214606D01*
X1214043D02*
G01X1214081D01*
X1213893D02*
G01X1213931D01*
X1213443D02*
G01X1213631D01*
X1212918D02*
G01X1213031D01*
X1212693D02*
G01X1212806D01*
X1212243D02*
G01X1212506D01*
X1222368Y1192409D02*
G01X1222631D01*
X1220268D02*
G01X1220531D01*
X1217193D02*
G01X1217756D01*
X1214268D02*
G01X1214681D01*
X1214043D02*
G01X1214081D01*
X1213818D02*
G01X1213856D01*
X1213368D02*
G01X1213631D01*
X1213143D02*
G01X1213181D01*
X1212918D02*
G01X1213031D01*
X1212768D02*
G01X1212806D01*
X1212243D02*
G01X1212581D01*
X1222293Y1192334D02*
G01X1222631D01*
X1220193D02*
G01X1220456D01*
X1217193D02*
G01X1217756D01*
X1214418D02*
G01X1214756D01*
X1213818D02*
G01X1214006D01*
X1212993D02*
G01X1213106D01*
X1212843D02*
G01X1212881D01*
X1212318D02*
G01X1212581D01*
X1222293Y1192259D02*
G01X1222556D01*
X1220118D02*
G01X1220381D01*
X1217193D02*
G01X1217756D01*
X1214493D02*
G01X1214831D01*
X1213818D02*
G01X1213931D01*
X1213068D02*
G01X1213181D01*
X1212843D02*
G01X1212956D01*
X1212393D02*
G01X1212656D01*
X1222218Y1192184D02*
G01X1222481D01*
X1220043D02*
G01X1220306D01*
X1217193D02*
G01X1217681D01*
X1214568D02*
G01X1214906D01*
X1213068D02*
G01X1213181D01*
X1212918D02*
G01X1212956D01*
X1212468D02*
G01X1212731D01*
X1222143Y1192109D02*
G01X1222406D01*
X1219968D02*
G01X1220231D01*
X1217268D02*
G01X1217681D01*
X1214643D02*
G01X1214981D01*
X1214493D02*
G01X1214531D01*
X1212993D02*
G01X1213106D01*
X1212543D02*
G01X1212806D01*
X1222068Y1192034D02*
G01X1222331D01*
X1219893D02*
G01X1220156D01*
X1217268D02*
G01X1217681D01*
X1214718D02*
G01X1215056D01*
X1213218D02*
G01X1213256D01*
X1213068D02*
G01X1213106D01*
X1212543D02*
G01X1212881D01*
X1221993Y1191959D02*
G01X1222256D01*
X1219818D02*
G01X1220081D01*
X1217268D02*
G01X1217681D01*
X1214793D02*
G01X1215131D01*
X1214643D02*
G01X1214681D01*
X1213143D02*
G01X1213331D01*
X1212618D02*
G01X1212956D01*
X1221918Y1191884D02*
G01X1222256D01*
X1219668D02*
G01X1220006D01*
X1217268D02*
G01X1217681D01*
X1214868D02*
G01X1215206D01*
X1214493D02*
G01X1214531D01*
X1213218D02*
G01X1213406D01*
X1212693D02*
G01X1212956D01*
X1221918Y1191809D02*
G01X1222181D01*
X1219593D02*
G01X1219931D01*
X1217268D02*
G01X1217606D01*
X1214943D02*
G01X1215281D01*
X1213218D02*
G01X1213406D01*
X1212768D02*
G01X1213031D01*
X1221843Y1191734D02*
G01X1222106D01*
X1219518D02*
G01X1219856D01*
X1217343D02*
G01X1217606D01*
X1215018D02*
G01X1215431D01*
X1213668D02*
G01X1213706D01*
X1213443D02*
G01X1213481D01*
X1212843D02*
G01X1213106D01*
X1221768Y1191659D02*
G01X1222031D01*
X1219443D02*
G01X1219781D01*
X1217343D02*
G01X1217606D01*
X1215093D02*
G01X1215506D01*
X1213593D02*
G01X1213631D01*
X1213368D02*
G01X1213406D01*
X1212918D02*
G01X1213181D01*
X1221693Y1191584D02*
G01X1221956D01*
X1219368D02*
G01X1219631D01*
X1217343D02*
G01X1217606D01*
X1215168D02*
G01X1215581D01*
X1213668D02*
G01X1213706D01*
X1213443D02*
G01X1213556D01*
X1212918D02*
G01X1213256D01*
X1221618Y1191509D02*
G01X1221881D01*
X1219293D02*
G01X1219556D01*
X1217343D02*
G01X1217531D01*
X1215318D02*
G01X1215656D01*
X1213518D02*
G01X1213556D01*
X1212993D02*
G01X1213331D01*
X1221543Y1191434D02*
G01X1221881D01*
X1219143D02*
G01X1219481D01*
X1217418D02*
G01X1217531D01*
X1215393D02*
G01X1215731D01*
X1213593D02*
G01X1213631D01*
X1213068D02*
G01X1213406D01*
X1221468Y1191359D02*
G01X1221806D01*
X1219068D02*
G01X1219406D01*
X1217418D02*
G01X1217531D01*
X1215468D02*
G01X1215881D01*
X1215243D02*
G01X1215281D01*
X1213668D02*
G01X1213781D01*
X1213143D02*
G01X1213481D01*
X1221393Y1191284D02*
G01X1221731D01*
X1218993D02*
G01X1219331D01*
X1217418D02*
G01X1217531D01*
X1215543D02*
G01X1215956D01*
X1213743D02*
G01X1213781D01*
X1213218D02*
G01X1213556D01*
X1221318Y1191209D02*
G01X1221656D01*
X1218843D02*
G01X1219181D01*
X1217418D02*
G01X1217531D01*
X1215693D02*
G01X1216031D01*
X1213293D02*
G01X1213556D01*
X1221243Y1191134D02*
G01X1221581D01*
X1218768D02*
G01X1219106D01*
X1217418D02*
G01X1217456D01*
X1215768D02*
G01X1216106D01*
X1214343D02*
G01X1214381D01*
X1213968D02*
G01X1214006D01*
X1213368D02*
G01X1213631D01*
X1221168Y1191059D02*
G01X1221506D01*
X1218693D02*
G01X1219031D01*
X1215843D02*
G01X1216256D01*
X1213443D02*
G01X1213706D01*
X1221168Y1190984D02*
G01X1221431D01*
X1218618D02*
G01X1218956D01*
X1215993D02*
G01X1216331D01*
X1213518D02*
G01X1213781D01*
X1221093Y1190909D02*
G01X1221356D01*
X1218468D02*
G01X1218881D01*
X1216068D02*
G01X1216406D01*
X1213593D02*
G01X1213856D01*
X1221018Y1190834D02*
G01X1221281D01*
X1218393D02*
G01X1218731D01*
X1216143D02*
G01X1216556D01*
X1213593D02*
G01X1213931D01*
X1220943Y1190759D02*
G01X1221206D01*
X1218318D02*
G01X1218656D01*
X1216218D02*
G01X1216631D01*
X1213668D02*
G01X1214006D01*
X1220793Y1190684D02*
G01X1221206D01*
X1218168D02*
G01X1218581D01*
X1216368D02*
G01X1216781D01*
X1213743D02*
G01X1214081D01*
X1220793Y1190609D02*
G01X1221056D01*
X1218093D02*
G01X1218431D01*
X1216443D02*
G01X1216856D01*
X1213818D02*
G01X1214156D01*
X1220718Y1190534D02*
G01X1220981D01*
X1217943D02*
G01X1218356D01*
X1216593D02*
G01X1216931D01*
X1213893D02*
G01X1214231D01*
X1220643Y1190459D02*
G01X1220906D01*
X1217868D02*
G01X1218281D01*
X1216668D02*
G01X1217081D01*
X1213968D02*
G01X1214306D01*
X1220493Y1190384D02*
G01X1220831D01*
X1217718D02*
G01X1218131D01*
X1216818D02*
G01X1217156D01*
X1214043D02*
G01X1214381D01*
X1220493Y1190309D02*
G01X1220756D01*
X1217643D02*
G01X1218056D01*
X1216893D02*
G01X1217306D01*
X1214118D02*
G01X1214456D01*
X1220343Y1190234D02*
G01X1220756D01*
X1217493D02*
G01X1217906D01*
X1216968D02*
G01X1217381D01*
X1214193D02*
G01X1214531D01*
X1220268Y1190159D02*
G01X1220606D01*
X1217118D02*
G01X1217831D01*
X1214268D02*
G01X1214606D01*
X1220193Y1190084D02*
G01X1220531D01*
X1217193D02*
G01X1217681D01*
X1214343D02*
G01X1214681D01*
X1220118Y1190009D02*
G01X1220456D01*
X1217343D02*
G01X1217606D01*
X1214418D02*
G01X1214756D01*
X1220043Y1189934D02*
G01X1220381D01*
X1217418D02*
G01X1217456D01*
X1214493D02*
G01X1214831D01*
X1219968Y1189859D02*
G01X1220306D01*
X1214643D02*
G01X1214981D01*
X1219893Y1189784D02*
G01X1220231D01*
X1214718D02*
G01X1215056D01*
X1219818Y1189709D02*
G01X1220156D01*
X1214793D02*
G01X1215131D01*
X1219743Y1189634D02*
G01X1220081D01*
X1214868D02*
G01X1215206D01*
X1219593Y1189559D02*
G01X1220006D01*
X1214943D02*
G01X1215281D01*
X1219518Y1189484D02*
G01X1219931D01*
X1215018D02*
G01X1215356D01*
X1219443Y1189409D02*
G01X1219856D01*
X1215093D02*
G01X1215506D01*
X1219368Y1189334D02*
G01X1219706D01*
X1215168D02*
G01X1215581D01*
X1219293Y1189259D02*
G01X1219631D01*
X1215318D02*
G01X1215656D01*
X1219143Y1189184D02*
G01X1219556D01*
X1215393D02*
G01X1215731D01*
X1219068Y1189109D02*
G01X1219481D01*
X1215468D02*
G01X1215881D01*
X1218993Y1189034D02*
G01X1219406D01*
X1215543D02*
G01X1215956D01*
X1218843Y1188959D02*
G01X1219256D01*
X1215618D02*
G01X1216031D01*
X1218768Y1188884D02*
G01X1219181D01*
X1215768D02*
G01X1216181D01*
X1218693Y1188809D02*
G01X1219106D01*
X1215843D02*
G01X1216256D01*
X1218543Y1188734D02*
G01X1219031D01*
X1215918D02*
G01X1216331D01*
X1218468Y1188659D02*
G01X1218881D01*
X1215993D02*
G01X1216481D01*
X1218393Y1188584D02*
G01X1218806D01*
X1216143D02*
G01X1216556D01*
X1218243Y1188509D02*
G01X1218731D01*
X1216218D02*
G01X1216631D01*
X1218168Y1188434D02*
G01X1218581D01*
X1216368D02*
G01X1216781D01*
X1218018Y1188359D02*
G01X1218506D01*
X1216443D02*
G01X1216856D01*
X1217943Y1188284D02*
G01X1218431D01*
X1216518D02*
G01X1217006D01*
X1217868Y1188209D02*
G01X1218281D01*
X1216668D02*
G01X1217081D01*
X1217718Y1188134D02*
G01X1218206D01*
X1216743D02*
G01X1217231D01*
X1217643Y1188059D02*
G01X1218056D01*
X1216818D02*
G01X1217306D01*
X1216968Y1187984D02*
G01X1217981D01*
X1217043Y1187909D02*
G01X1217831D01*
X1217193Y1187834D02*
G01X1217756D01*
X1217268Y1187759D02*
G01X1217606D01*
X1217418Y1187684D02*
G01X1217531D01*
X1237743Y1182659D02*
G01X1237856D01*
X1230843D02*
G01X1230956D01*
X1223718D02*
G01X1223906D01*
X1205943D02*
G01X1206131D01*
X1237368Y1182584D02*
G01X1238381D01*
X1230393D02*
G01X1231406D01*
X1223343D02*
G01X1224356D01*
X1205568D02*
G01X1206581D01*
X1237143Y1182509D02*
G01X1238531D01*
X1233468D02*
G01X1234931D01*
X1230243D02*
G01X1231631D01*
X1226118D02*
G01X1228856D01*
X1223118D02*
G01X1224581D01*
X1220493D02*
G01X1221056D01*
X1217793D02*
G01X1218281D01*
X1212618D02*
G01X1213106D01*
X1208343D02*
G01X1208831D01*
X1205418D02*
G01X1206806D01*
X1201593D02*
G01X1203506D01*
X1197693D02*
G01X1200431D01*
X1237068Y1182434D02*
G01X1238531D01*
X1233468D02*
G01X1235081D01*
X1230093D02*
G01X1231781D01*
X1226118D02*
G01X1228856D01*
X1223043D02*
G01X1224731D01*
X1220493D02*
G01X1221056D01*
X1217793D02*
G01X1218356D01*
X1212543D02*
G01X1213106D01*
X1208343D02*
G01X1208831D01*
X1205268D02*
G01X1206806D01*
X1201593D02*
G01X1203506D01*
X1197693D02*
G01X1200431D01*
X1236918Y1182359D02*
G01X1238531D01*
X1233468D02*
G01X1235231D01*
X1229943D02*
G01X1231856D01*
X1226118D02*
G01X1228856D01*
X1222893D02*
G01X1224806D01*
X1220493D02*
G01X1221056D01*
X1217793D02*
G01X1218356D01*
X1212543D02*
G01X1213181D01*
X1208343D02*
G01X1208831D01*
X1205193D02*
G01X1206731D01*
X1201593D02*
G01X1203506D01*
X1197693D02*
G01X1200431D01*
X1236918Y1182284D02*
G01X1238456D01*
X1233468D02*
G01X1235306D01*
X1229868D02*
G01X1232006D01*
X1226118D02*
G01X1228856D01*
X1222818D02*
G01X1224956D01*
X1220418D02*
G01X1221056D01*
X1217793D02*
G01X1218431D01*
X1212543D02*
G01X1213181D01*
X1208343D02*
G01X1208831D01*
X1205118D02*
G01X1206731D01*
X1201593D02*
G01X1203506D01*
X1197693D02*
G01X1200431D01*
X1238193Y1182209D02*
G01X1238456D01*
X1236843D02*
G01X1237481D01*
X1233468D02*
G01X1235381D01*
X1231293D02*
G01X1232081D01*
X1229793D02*
G01X1230581D01*
X1226118D02*
G01X1228856D01*
X1224243D02*
G01X1225031D01*
X1222743D02*
G01X1223456D01*
X1220418D02*
G01X1221056D01*
X1217793D02*
G01X1218431D01*
X1212468D02*
G01X1213181D01*
X1208343D02*
G01X1208831D01*
X1206393D02*
G01X1206656D01*
X1205043D02*
G01X1205756D01*
X1201593D02*
G01X1203506D01*
X1197693D02*
G01X1200431D01*
X1238343Y1182134D02*
G01X1238381D01*
X1236768D02*
G01X1237406D01*
X1234743D02*
G01X1235456D01*
X1233468D02*
G01X1233956D01*
X1231443D02*
G01X1232156D01*
X1229718D02*
G01X1230356D01*
X1227243D02*
G01X1227731D01*
X1224393D02*
G01X1225106D01*
X1222668D02*
G01X1223306D01*
X1220343D02*
G01X1221056D01*
X1217793D02*
G01X1218506D01*
X1212468D02*
G01X1213256D01*
X1208343D02*
G01X1208831D01*
X1206618D02*
G01X1206656D01*
X1205043D02*
G01X1205606D01*
X1201593D02*
G01X1202081D01*
X1198893D02*
G01X1199306D01*
X1236768Y1182059D02*
G01X1237256D01*
X1234893D02*
G01X1235456D01*
X1233468D02*
G01X1233956D01*
X1231593D02*
G01X1232231D01*
X1229643D02*
G01X1230281D01*
X1227243D02*
G01X1227731D01*
X1224543D02*
G01X1225181D01*
X1222593D02*
G01X1223231D01*
X1220343D02*
G01X1221056D01*
X1217793D02*
G01X1218506D01*
X1212393D02*
G01X1213256D01*
X1208343D02*
G01X1208831D01*
X1204968D02*
G01X1205531D01*
X1201593D02*
G01X1202081D01*
X1198893D02*
G01X1199306D01*
X1236693Y1181984D02*
G01X1237256D01*
X1234968D02*
G01X1235531D01*
X1233468D02*
G01X1233956D01*
X1231668D02*
G01X1232231D01*
X1229568D02*
G01X1230131D01*
X1227243D02*
G01X1227731D01*
X1224618D02*
G01X1225181D01*
X1222518D02*
G01X1223081D01*
X1220268D02*
G01X1221131D01*
X1217718D02*
G01X1218581D01*
X1212393D02*
G01X1213331D01*
X1208343D02*
G01X1208831D01*
X1204968D02*
G01X1205456D01*
X1201593D02*
G01X1202081D01*
X1198893D02*
G01X1199306D01*
X1236693Y1181909D02*
G01X1237181D01*
X1234968D02*
G01X1235531D01*
X1233468D02*
G01X1233956D01*
X1231743D02*
G01X1232306D01*
X1229568D02*
G01X1230056D01*
X1227243D02*
G01X1227731D01*
X1224693D02*
G01X1225256D01*
X1222443D02*
G01X1223006D01*
X1220268D02*
G01X1221131D01*
X1217718D02*
G01X1218581D01*
X1212393D02*
G01X1213331D01*
X1208343D02*
G01X1208831D01*
X1204968D02*
G01X1205456D01*
X1201593D02*
G01X1202081D01*
X1198893D02*
G01X1199306D01*
X1236693Y1181834D02*
G01X1237181D01*
X1235043D02*
G01X1235531D01*
X1233468D02*
G01X1233956D01*
X1231818D02*
G01X1232381D01*
X1229493D02*
G01X1230056D01*
X1227243D02*
G01X1227731D01*
X1224768D02*
G01X1225331D01*
X1222443D02*
G01X1222931D01*
X1220193D02*
G01X1221131D01*
X1217718D02*
G01X1218656D01*
X1212918D02*
G01X1213331D01*
X1212318D02*
G01X1212731D01*
X1208343D02*
G01X1208831D01*
X1204893D02*
G01X1205381D01*
X1201593D02*
G01X1202081D01*
X1198893D02*
G01X1199306D01*
X1236693Y1181759D02*
G01X1237181D01*
X1235043D02*
G01X1235531D01*
X1233468D02*
G01X1233956D01*
X1231893D02*
G01X1232381D01*
X1229418D02*
G01X1229981D01*
X1227243D02*
G01X1227731D01*
X1224768D02*
G01X1225331D01*
X1222368D02*
G01X1222931D01*
X1220193D02*
G01X1221131D01*
X1217718D02*
G01X1218656D01*
X1212918D02*
G01X1213406D01*
X1212318D02*
G01X1212731D01*
X1208343D02*
G01X1208831D01*
X1204893D02*
G01X1205381D01*
X1201593D02*
G01X1202081D01*
X1198893D02*
G01X1199306D01*
X1236693Y1181684D02*
G01X1237181D01*
X1235043D02*
G01X1235531D01*
X1233468D02*
G01X1233956D01*
X1231893D02*
G01X1232456D01*
X1229418D02*
G01X1229906D01*
X1227243D02*
G01X1227731D01*
X1224843D02*
G01X1225406D01*
X1222368D02*
G01X1222856D01*
X1220118D02*
G01X1221131D01*
X1218243D02*
G01X1218731D01*
X1217718D02*
G01X1218131D01*
X1212918D02*
G01X1213406D01*
X1212243D02*
G01X1212656D01*
X1208343D02*
G01X1208831D01*
X1204893D02*
G01X1205381D01*
X1201593D02*
G01X1202081D01*
X1198893D02*
G01X1199306D01*
X1236693Y1181609D02*
G01X1237181D01*
X1235043D02*
G01X1235531D01*
X1233468D02*
G01X1233956D01*
X1231968D02*
G01X1232456D01*
X1229343D02*
G01X1229906D01*
X1227243D02*
G01X1227731D01*
X1224918D02*
G01X1225406D01*
X1222293D02*
G01X1222781D01*
X1220718D02*
G01X1221131D01*
X1220118D02*
G01X1220531D01*
X1218243D02*
G01X1218731D01*
X1217718D02*
G01X1218131D01*
X1212993D02*
G01X1213406D01*
X1212243D02*
G01X1212656D01*
X1208343D02*
G01X1208831D01*
X1204893D02*
G01X1205456D01*
X1201593D02*
G01X1202081D01*
X1198893D02*
G01X1199306D01*
X1236693Y1181534D02*
G01X1237256D01*
X1235043D02*
G01X1235531D01*
X1233468D02*
G01X1233956D01*
X1231968D02*
G01X1232531D01*
X1229343D02*
G01X1229831D01*
X1227243D02*
G01X1227731D01*
X1224918D02*
G01X1225481D01*
X1222293D02*
G01X1222781D01*
X1220718D02*
G01X1221131D01*
X1220043D02*
G01X1220531D01*
X1218318D02*
G01X1218806D01*
X1217718D02*
G01X1218131D01*
X1212993D02*
G01X1213481D01*
X1212243D02*
G01X1212656D01*
X1208343D02*
G01X1208831D01*
X1204968D02*
G01X1205456D01*
X1201593D02*
G01X1202081D01*
X1198893D02*
G01X1199306D01*
X1236693Y1181459D02*
G01X1237256D01*
X1235043D02*
G01X1235531D01*
X1233468D02*
G01X1233956D01*
X1232043D02*
G01X1232531D01*
X1229343D02*
G01X1229831D01*
X1227243D02*
G01X1227731D01*
X1224993D02*
G01X1225481D01*
X1222293D02*
G01X1222781D01*
X1220718D02*
G01X1221131D01*
X1220043D02*
G01X1220531D01*
X1218318D02*
G01X1218806D01*
X1217718D02*
G01X1218131D01*
X1212993D02*
G01X1213481D01*
X1212168D02*
G01X1212581D01*
X1208343D02*
G01X1208831D01*
X1204968D02*
G01X1205531D01*
X1201593D02*
G01X1202081D01*
X1198893D02*
G01X1199306D01*
X1236768Y1181384D02*
G01X1237331D01*
X1235043D02*
G01X1235531D01*
X1233468D02*
G01X1233956D01*
X1232043D02*
G01X1232531D01*
X1229268D02*
G01X1229756D01*
X1227243D02*
G01X1227731D01*
X1224993D02*
G01X1225481D01*
X1222218D02*
G01X1222706D01*
X1220718D02*
G01X1221206D01*
X1220043D02*
G01X1220456D01*
X1218393D02*
G01X1218881D01*
X1217643D02*
G01X1218131D01*
X1213068D02*
G01X1213556D01*
X1212168D02*
G01X1212581D01*
X1208343D02*
G01X1208831D01*
X1204968D02*
G01X1205606D01*
X1201593D02*
G01X1202081D01*
X1198893D02*
G01X1199306D01*
X1236768Y1181309D02*
G01X1237406D01*
X1234968D02*
G01X1235531D01*
X1233468D02*
G01X1233956D01*
X1232043D02*
G01X1232606D01*
X1229268D02*
G01X1229756D01*
X1227243D02*
G01X1227731D01*
X1224993D02*
G01X1225481D01*
X1222218D02*
G01X1222706D01*
X1220718D02*
G01X1221206D01*
X1219968D02*
G01X1220456D01*
X1218393D02*
G01X1218881D01*
X1217643D02*
G01X1218131D01*
X1213068D02*
G01X1213556D01*
X1212093D02*
G01X1212581D01*
X1208343D02*
G01X1208831D01*
X1205043D02*
G01X1205681D01*
X1201593D02*
G01X1202081D01*
X1198893D02*
G01X1199306D01*
X1236843Y1181234D02*
G01X1237556D01*
X1234893D02*
G01X1235456D01*
X1233468D02*
G01X1233956D01*
X1232118D02*
G01X1232606D01*
X1229268D02*
G01X1229756D01*
X1227243D02*
G01X1227731D01*
X1225068D02*
G01X1225556D01*
X1222218D02*
G01X1222706D01*
X1220718D02*
G01X1221206D01*
X1219968D02*
G01X1220381D01*
X1218468D02*
G01X1218956D01*
X1217643D02*
G01X1218056D01*
X1213068D02*
G01X1213556D01*
X1212093D02*
G01X1212506D01*
X1208343D02*
G01X1208831D01*
X1205043D02*
G01X1205831D01*
X1201593D02*
G01X1202081D01*
X1198893D02*
G01X1199306D01*
X1236843Y1181159D02*
G01X1237706D01*
X1234818D02*
G01X1235456D01*
X1233468D02*
G01X1233956D01*
X1232118D02*
G01X1232606D01*
X1229268D02*
G01X1229756D01*
X1227243D02*
G01X1227731D01*
X1225068D02*
G01X1225556D01*
X1222218D02*
G01X1222631D01*
X1220718D02*
G01X1221206D01*
X1219893D02*
G01X1220381D01*
X1218468D02*
G01X1218956D01*
X1217643D02*
G01X1218056D01*
X1213143D02*
G01X1213631D01*
X1212018D02*
G01X1212506D01*
X1208343D02*
G01X1208831D01*
X1205118D02*
G01X1205981D01*
X1201593D02*
G01X1202081D01*
X1198893D02*
G01X1199306D01*
X1236918Y1181084D02*
G01X1237931D01*
X1234743D02*
G01X1235381D01*
X1233468D02*
G01X1233956D01*
X1232118D02*
G01X1232606D01*
X1229268D02*
G01X1229756D01*
X1227243D02*
G01X1227731D01*
X1225068D02*
G01X1225556D01*
X1222143D02*
G01X1222631D01*
X1220718D02*
G01X1221206D01*
X1219893D02*
G01X1220306D01*
X1218543D02*
G01X1219031D01*
X1217643D02*
G01X1218056D01*
X1213143D02*
G01X1213631D01*
X1212018D02*
G01X1212431D01*
X1208343D02*
G01X1208831D01*
X1205193D02*
G01X1206131D01*
X1201593D02*
G01X1203356D01*
X1198893D02*
G01X1199306D01*
X1236993Y1181009D02*
G01X1238081D01*
X1234443D02*
G01X1235306D01*
X1233468D02*
G01X1233956D01*
X1232118D02*
G01X1232606D01*
X1229268D02*
G01X1229681D01*
X1227243D02*
G01X1227731D01*
X1225068D02*
G01X1225556D01*
X1222143D02*
G01X1222631D01*
X1220718D02*
G01X1221206D01*
X1219818D02*
G01X1220306D01*
X1218543D02*
G01X1219031D01*
X1217643D02*
G01X1218056D01*
X1213218D02*
G01X1213706D01*
X1212018D02*
G01X1212431D01*
X1208343D02*
G01X1208831D01*
X1205268D02*
G01X1206281D01*
X1201593D02*
G01X1203356D01*
X1198893D02*
G01X1199306D01*
X1237143Y1180934D02*
G01X1238231D01*
X1234368D02*
G01X1235231D01*
X1233468D02*
G01X1233956D01*
X1232118D02*
G01X1232606D01*
X1229193D02*
G01X1229681D01*
X1227243D02*
G01X1227731D01*
X1225068D02*
G01X1225556D01*
X1222143D02*
G01X1222631D01*
X1220718D02*
G01X1221206D01*
X1219818D02*
G01X1220231D01*
X1218543D02*
G01X1219106D01*
X1217643D02*
G01X1218056D01*
X1213218D02*
G01X1213706D01*
X1211943D02*
G01X1212431D01*
X1208343D02*
G01X1208831D01*
X1205343D02*
G01X1206506D01*
X1201593D02*
G01X1203356D01*
X1198893D02*
G01X1199306D01*
X1237293Y1180859D02*
G01X1238381D01*
X1234293D02*
G01X1235156D01*
X1233468D02*
G01X1233956D01*
X1232118D02*
G01X1232606D01*
X1229193D02*
G01X1229681D01*
X1227243D02*
G01X1227731D01*
X1225068D02*
G01X1225556D01*
X1222143D02*
G01X1222631D01*
X1220793D02*
G01X1221206D01*
X1219743D02*
G01X1220231D01*
X1218618D02*
G01X1219106D01*
X1217643D02*
G01X1218056D01*
X1213218D02*
G01X1213706D01*
X1211943D02*
G01X1212356D01*
X1208343D02*
G01X1208831D01*
X1205493D02*
G01X1206581D01*
X1201593D02*
G01X1203356D01*
X1198893D02*
G01X1199306D01*
X1237443Y1180784D02*
G01X1238456D01*
X1234293D02*
G01X1235081D01*
X1233468D02*
G01X1233956D01*
X1232118D02*
G01X1232606D01*
X1229193D02*
G01X1229681D01*
X1227243D02*
G01X1227731D01*
X1225068D02*
G01X1225556D01*
X1222143D02*
G01X1222631D01*
X1220793D02*
G01X1221206D01*
X1219743D02*
G01X1220156D01*
X1218618D02*
G01X1219106D01*
X1217643D02*
G01X1218056D01*
X1213293D02*
G01X1213781D01*
X1211868D02*
G01X1212356D01*
X1208343D02*
G01X1208831D01*
X1205643D02*
G01X1206656D01*
X1201593D02*
G01X1203356D01*
X1198893D02*
G01X1199306D01*
X1237593Y1180709D02*
G01X1238531D01*
X1234218D02*
G01X1235081D01*
X1233468D02*
G01X1233956D01*
X1232118D02*
G01X1232606D01*
X1229268D02*
G01X1229681D01*
X1227243D02*
G01X1227731D01*
X1225068D02*
G01X1225556D01*
X1222143D02*
G01X1222631D01*
X1220793D02*
G01X1221281D01*
X1219668D02*
G01X1220156D01*
X1218693D02*
G01X1219181D01*
X1217568D02*
G01X1218056D01*
X1213293D02*
G01X1213781D01*
X1211868D02*
G01X1212281D01*
X1208343D02*
G01X1208831D01*
X1205793D02*
G01X1206731D01*
X1201593D02*
G01X1202081D01*
X1198893D02*
G01X1199306D01*
X1237743Y1180634D02*
G01X1238606D01*
X1234218D02*
G01X1235081D01*
X1233468D02*
G01X1233956D01*
X1232118D02*
G01X1232606D01*
X1229268D02*
G01X1229756D01*
X1227243D02*
G01X1227731D01*
X1225068D02*
G01X1225556D01*
X1222143D02*
G01X1222631D01*
X1220793D02*
G01X1221281D01*
X1219668D02*
G01X1220081D01*
X1218693D02*
G01X1219181D01*
X1217568D02*
G01X1218056D01*
X1213293D02*
G01X1213856D01*
X1211868D02*
G01X1212281D01*
X1208343D02*
G01X1208831D01*
X1206018D02*
G01X1206806D01*
X1201593D02*
G01X1202081D01*
X1198893D02*
G01X1199306D01*
X1237893Y1180559D02*
G01X1238681D01*
X1234593D02*
G01X1235156D01*
X1233468D02*
G01X1233956D01*
X1232118D02*
G01X1232606D01*
X1229268D02*
G01X1229756D01*
X1227243D02*
G01X1227731D01*
X1225068D02*
G01X1225556D01*
X1222218D02*
G01X1222631D01*
X1220793D02*
G01X1221281D01*
X1219668D02*
G01X1220081D01*
X1218768D02*
G01X1219256D01*
X1217568D02*
G01X1217981D01*
X1213368D02*
G01X1213856D01*
X1211793D02*
G01X1212281D01*
X1208343D02*
G01X1208831D01*
X1206168D02*
G01X1206881D01*
X1201593D02*
G01X1202081D01*
X1198893D02*
G01X1199306D01*
X1238043Y1180484D02*
G01X1238681D01*
X1234668D02*
G01X1235231D01*
X1233468D02*
G01X1233956D01*
X1232118D02*
G01X1232606D01*
X1229268D02*
G01X1229756D01*
X1227243D02*
G01X1227731D01*
X1224993D02*
G01X1225481D01*
X1222218D02*
G01X1222706D01*
X1220793D02*
G01X1221281D01*
X1219593D02*
G01X1220006D01*
X1218768D02*
G01X1219256D01*
X1217568D02*
G01X1217981D01*
X1212543D02*
G01X1213856D01*
X1211793D02*
G01X1212206D01*
X1208343D02*
G01X1208831D01*
X1206318D02*
G01X1206956D01*
X1201593D02*
G01X1202081D01*
X1198893D02*
G01X1199306D01*
X1238118Y1180409D02*
G01X1238756D01*
X1234668D02*
G01X1235231D01*
X1233468D02*
G01X1233956D01*
X1232043D02*
G01X1232531D01*
X1229268D02*
G01X1229756D01*
X1227243D02*
G01X1227731D01*
X1224993D02*
G01X1225481D01*
X1222218D02*
G01X1222706D01*
X1220793D02*
G01X1221281D01*
X1219593D02*
G01X1220006D01*
X1218843D02*
G01X1219331D01*
X1217568D02*
G01X1217981D01*
X1212468D02*
G01X1213931D01*
X1211718D02*
G01X1212206D01*
X1208343D02*
G01X1208831D01*
X1206393D02*
G01X1206956D01*
X1201593D02*
G01X1202081D01*
X1198893D02*
G01X1199306D01*
X1238193Y1180334D02*
G01X1238756D01*
X1234743D02*
G01X1235306D01*
X1233468D02*
G01X1233956D01*
X1232043D02*
G01X1232531D01*
X1229268D02*
G01X1229756D01*
X1227243D02*
G01X1227731D01*
X1224993D02*
G01X1225481D01*
X1222218D02*
G01X1222706D01*
X1220793D02*
G01X1221281D01*
X1219518D02*
G01X1219931D01*
X1218843D02*
G01X1219331D01*
X1217568D02*
G01X1217981D01*
X1212468D02*
G01X1213931D01*
X1211718D02*
G01X1212131D01*
X1208343D02*
G01X1208831D01*
X1206468D02*
G01X1206956D01*
X1201593D02*
G01X1202081D01*
X1198893D02*
G01X1199306D01*
X1238268Y1180259D02*
G01X1238756D01*
X1234818D02*
G01X1235381D01*
X1233468D02*
G01X1233956D01*
X1232043D02*
G01X1232531D01*
X1229343D02*
G01X1229831D01*
X1227243D02*
G01X1227731D01*
X1224993D02*
G01X1225481D01*
X1222218D02*
G01X1222781D01*
X1220793D02*
G01X1221281D01*
X1219518D02*
G01X1219931D01*
X1218918D02*
G01X1219406D01*
X1217568D02*
G01X1217981D01*
X1212468D02*
G01X1213931D01*
X1211718D02*
G01X1212131D01*
X1208343D02*
G01X1208831D01*
X1206468D02*
G01X1207031D01*
X1201593D02*
G01X1202081D01*
X1198893D02*
G01X1199306D01*
X1238268Y1180184D02*
G01X1238756D01*
X1234818D02*
G01X1235381D01*
X1233468D02*
G01X1233956D01*
X1231968D02*
G01X1232531D01*
X1229343D02*
G01X1229831D01*
X1227243D02*
G01X1227731D01*
X1224918D02*
G01X1225406D01*
X1222293D02*
G01X1222781D01*
X1220868D02*
G01X1221281D01*
X1218918D02*
G01X1219931D01*
X1217568D02*
G01X1217981D01*
X1212393D02*
G01X1214006D01*
X1211643D02*
G01X1212131D01*
X1208343D02*
G01X1208831D01*
X1206468D02*
G01X1207031D01*
X1201593D02*
G01X1202081D01*
X1198893D02*
G01X1199306D01*
X1238268Y1180109D02*
G01X1238756D01*
X1234893D02*
G01X1235456D01*
X1233468D02*
G01X1233956D01*
X1231968D02*
G01X1232456D01*
X1229343D02*
G01X1229906D01*
X1227243D02*
G01X1227731D01*
X1224918D02*
G01X1225406D01*
X1222293D02*
G01X1222781D01*
X1220868D02*
G01X1221281D01*
X1218993D02*
G01X1219856D01*
X1217568D02*
G01X1217981D01*
X1213518D02*
G01X1214006D01*
X1212468D02*
G01X1212506D01*
X1211643D02*
G01X1212056D01*
X1208343D02*
G01X1208831D01*
X1206543D02*
G01X1207031D01*
X1201593D02*
G01X1202081D01*
X1198893D02*
G01X1199306D01*
X1238268Y1180034D02*
G01X1238756D01*
X1234968D02*
G01X1235456D01*
X1233468D02*
G01X1233956D01*
X1231893D02*
G01X1232456D01*
X1229418D02*
G01X1229906D01*
X1227243D02*
G01X1227731D01*
X1224843D02*
G01X1225406D01*
X1222368D02*
G01X1222856D01*
X1220868D02*
G01X1221356D01*
X1218993D02*
G01X1219856D01*
X1217493D02*
G01X1217981D01*
X1213518D02*
G01X1214081D01*
X1211568D02*
G01X1212056D01*
X1208343D02*
G01X1208831D01*
X1206543D02*
G01X1207031D01*
X1201593D02*
G01X1202081D01*
X1198893D02*
G01X1199306D01*
X1238268Y1179959D02*
G01X1238756D01*
X1234968D02*
G01X1235531D01*
X1233468D02*
G01X1233956D01*
X1231893D02*
G01X1232381D01*
X1229418D02*
G01X1229981D01*
X1227243D02*
G01X1227731D01*
X1224768D02*
G01X1225331D01*
X1222368D02*
G01X1222931D01*
X1220868D02*
G01X1221356D01*
X1219068D02*
G01X1219781D01*
X1217493D02*
G01X1217981D01*
X1213593D02*
G01X1214081D01*
X1211568D02*
G01X1212056D01*
X1208343D02*
G01X1208831D01*
X1206543D02*
G01X1207031D01*
X1201593D02*
G01X1202081D01*
X1198893D02*
G01X1199306D01*
X1238268Y1179884D02*
G01X1238756D01*
X1235043D02*
G01X1235606D01*
X1233468D02*
G01X1233956D01*
X1231818D02*
G01X1232381D01*
X1229493D02*
G01X1230056D01*
X1227243D02*
G01X1227731D01*
X1224768D02*
G01X1225331D01*
X1222443D02*
G01X1222931D01*
X1220868D02*
G01X1221356D01*
X1219068D02*
G01X1219781D01*
X1217493D02*
G01X1217981D01*
X1213593D02*
G01X1214081D01*
X1211568D02*
G01X1211981D01*
X1208343D02*
G01X1208831D01*
X1206468D02*
G01X1207031D01*
X1201593D02*
G01X1202081D01*
X1198893D02*
G01X1199306D01*
X1238193Y1179809D02*
G01X1238756D01*
X1235043D02*
G01X1235606D01*
X1233468D02*
G01X1233956D01*
X1231743D02*
G01X1232306D01*
X1229493D02*
G01X1230056D01*
X1227243D02*
G01X1227731D01*
X1224693D02*
G01X1225256D01*
X1222443D02*
G01X1223006D01*
X1220868D02*
G01X1221356D01*
X1219068D02*
G01X1219706D01*
X1217493D02*
G01X1217906D01*
X1213593D02*
G01X1214156D01*
X1211493D02*
G01X1211981D01*
X1208343D02*
G01X1208831D01*
X1206468D02*
G01X1206956D01*
X1201593D02*
G01X1202081D01*
X1198893D02*
G01X1199306D01*
X1238193Y1179734D02*
G01X1238681D01*
X1235118D02*
G01X1235681D01*
X1233468D02*
G01X1233956D01*
X1231668D02*
G01X1232231D01*
X1229568D02*
G01X1230206D01*
X1227243D02*
G01X1227731D01*
X1224618D02*
G01X1225181D01*
X1222518D02*
G01X1223081D01*
X1220868D02*
G01X1221356D01*
X1219143D02*
G01X1219706D01*
X1217493D02*
G01X1217906D01*
X1213668D02*
G01X1214156D01*
X1211493D02*
G01X1211906D01*
X1208343D02*
G01X1208831D01*
X1206393D02*
G01X1206956D01*
X1201593D02*
G01X1202081D01*
X1198893D02*
G01X1199306D01*
X1238118Y1179659D02*
G01X1238681D01*
X1235193D02*
G01X1235756D01*
X1233468D02*
G01X1233956D01*
X1231593D02*
G01X1232231D01*
X1229643D02*
G01X1230281D01*
X1227243D02*
G01X1227731D01*
X1224543D02*
G01X1225106D01*
X1222593D02*
G01X1223231D01*
X1220868D02*
G01X1221356D01*
X1219143D02*
G01X1219631D01*
X1217493D02*
G01X1217906D01*
X1213668D02*
G01X1214231D01*
X1211418D02*
G01X1211906D01*
X1208343D02*
G01X1208831D01*
X1206318D02*
G01X1206956D01*
X1201593D02*
G01X1202081D01*
X1198893D02*
G01X1199306D01*
X1237968Y1179584D02*
G01X1238606D01*
X1236843D02*
G01X1236881D01*
X1235193D02*
G01X1235756D01*
X1233468D02*
G01X1233956D01*
X1231443D02*
G01X1232156D01*
X1229718D02*
G01X1230431D01*
X1227243D02*
G01X1227731D01*
X1224393D02*
G01X1225106D01*
X1222668D02*
G01X1223381D01*
X1220868D02*
G01X1221356D01*
X1219218D02*
G01X1219631D01*
X1217493D02*
G01X1217906D01*
X1213743D02*
G01X1214231D01*
X1211418D02*
G01X1211906D01*
X1208343D02*
G01X1208831D01*
X1206243D02*
G01X1206881D01*
X1205043D02*
G01X1205081D01*
X1201593D02*
G01X1202081D01*
X1198893D02*
G01X1199306D01*
X1237818Y1179509D02*
G01X1238606D01*
X1236768D02*
G01X1237031D01*
X1235268D02*
G01X1235831D01*
X1233468D02*
G01X1233956D01*
X1231218D02*
G01X1232081D01*
X1229793D02*
G01X1230581D01*
X1227243D02*
G01X1227731D01*
X1224168D02*
G01X1224956D01*
X1222743D02*
G01X1223531D01*
X1220943D02*
G01X1221356D01*
X1219218D02*
G01X1219556D01*
X1217493D02*
G01X1217906D01*
X1213743D02*
G01X1214231D01*
X1211343D02*
G01X1211831D01*
X1208343D02*
G01X1210481D01*
X1206093D02*
G01X1206806D01*
X1205043D02*
G01X1205306D01*
X1201593D02*
G01X1203581D01*
X1198893D02*
G01X1199306D01*
X1236768Y1179434D02*
G01X1238531D01*
X1235343D02*
G01X1235831D01*
X1233468D02*
G01X1233956D01*
X1229868D02*
G01X1231931D01*
X1227243D02*
G01X1227731D01*
X1222818D02*
G01X1224881D01*
X1220943D02*
G01X1221431D01*
X1219293D02*
G01X1219556D01*
X1217493D02*
G01X1217906D01*
X1213743D02*
G01X1214306D01*
X1211343D02*
G01X1211831D01*
X1208343D02*
G01X1210406D01*
X1204968D02*
G01X1206731D01*
X1201593D02*
G01X1203581D01*
X1198893D02*
G01X1199306D01*
X1236693Y1179359D02*
G01X1238456D01*
X1235343D02*
G01X1235906D01*
X1233468D02*
G01X1233956D01*
X1229943D02*
G01X1231856D01*
X1227243D02*
G01X1227731D01*
X1222893D02*
G01X1224806D01*
X1220943D02*
G01X1221431D01*
X1219293D02*
G01X1219481D01*
X1217418D02*
G01X1217906D01*
X1213818D02*
G01X1214306D01*
X1211343D02*
G01X1211756D01*
X1208343D02*
G01X1210406D01*
X1204968D02*
G01X1206656D01*
X1201593D02*
G01X1203581D01*
X1198893D02*
G01X1199306D01*
X1236693Y1179284D02*
G01X1238306D01*
X1235418D02*
G01X1235981D01*
X1233468D02*
G01X1233956D01*
X1230093D02*
G01X1231781D01*
X1227243D02*
G01X1227731D01*
X1223043D02*
G01X1224656D01*
X1220943D02*
G01X1221431D01*
X1219368D02*
G01X1219481D01*
X1217418D02*
G01X1217906D01*
X1213818D02*
G01X1214381D01*
X1211268D02*
G01X1211756D01*
X1208343D02*
G01X1210331D01*
X1204893D02*
G01X1206581D01*
X1201593D02*
G01X1203581D01*
X1198893D02*
G01X1199306D01*
X1236693Y1179209D02*
G01X1238231D01*
X1235418D02*
G01X1235981D01*
X1233468D02*
G01X1233956D01*
X1230243D02*
G01X1231556D01*
X1227243D02*
G01X1227731D01*
X1223193D02*
G01X1224506D01*
X1220943D02*
G01X1221431D01*
X1219368D02*
G01X1219406D01*
X1217418D02*
G01X1217906D01*
X1213893D02*
G01X1214381D01*
X1211268D02*
G01X1211756D01*
X1208343D02*
G01X1210331D01*
X1204893D02*
G01X1206431D01*
X1201593D02*
G01X1203581D01*
X1198893D02*
G01X1199306D01*
X1236918Y1179134D02*
G01X1238006D01*
X1230468D02*
G01X1231406D01*
X1223418D02*
G01X1224281D01*
X1205118D02*
G01X1206281D01*
G54D60*
X1022491Y1230638D02*
G01X1021400Y1226700D01*
X1022491Y1230638D02*
G01X1023582Y1226700D01*
X1021809Y1228013D02*
G01X1023173D01*
X1025600Y1171738D02*
G01Y1167800D01*
Y1171738D02*
G01X1027373D01*
X1025600Y1169863D02*
G01X1026691D01*
X1025300Y1182538D02*
G01Y1178600D01*
Y1182538D02*
G01X1027073D01*
X1025300Y1180663D02*
G01X1026391D01*
X1025300Y1178600D02*
G01X1027073D01*
X1025100Y1191038D02*
G01Y1187100D01*
Y1191038D02*
G01X1026055D01*
Y1191038D02*
G01X1026464Y1190850D01*
X1026736Y1190475*
X1026873Y1190100*
X1027009Y1189538*
Y1189538D02*
G01Y1188600D01*
X1026873Y1188038*
Y1188038D02*
G01X1026736Y1187663D01*
Y1187663D02*
G01X1026464Y1187288D01*
Y1187288D02*
G01X1026055Y1187100D01*
X1025100*
G54D63*
X1000000Y1015748D02*
G01X1175984D01*
Y1000000*
X1333465*
Y1265748*
X1000000*
Y1015748*
G54D72*
X1017967Y868356D02*
G01X1016893Y867864D01*
X1016178Y866388*
X1015820Y863927*
Y862451*
X1016178Y859990*
X1016893Y858514*
X1017967Y858022*
X1018683*
X1019757Y858514*
X1020472Y859990*
X1020830Y862451*
Y863927*
X1020472Y866388*
X1019757Y867864*
X1018683Y868356*
X1017967*
X1028704Y864911D02*
G01X1028346Y863435D01*
X1027631Y862451*
X1026557Y861959*
X1026199*
X1025125Y862451*
X1024409Y863435*
X1024052Y864911*
Y865404*
X1024409Y866880*
X1025125Y867864*
X1026199Y868356*
X1026557*
X1027631Y867864*
X1028346Y866880*
X1028704Y864911*
Y862451*
X1028346Y859990*
X1027631Y858514*
X1026557Y858022*
X1025841*
X1024767Y858514*
X1024409Y859498*
X1031926Y862451D02*
G01X1038368D01*
X1043737Y868356D02*
G01X1042663Y867864D01*
X1041947Y866388*
X1041589Y863927*
Y862451*
X1041947Y859990*
X1042663Y858514*
X1043737Y858022*
X1044452*
X1045526Y858514*
X1046242Y859990*
X1046600Y862451*
Y863927*
X1046242Y866388*
X1045526Y867864*
X1044452Y868356*
X1043737*
X1051968D02*
G01X1050895Y867864D01*
X1050179Y866388*
X1049821Y863927*
Y862451*
X1050179Y859990*
X1050895Y858514*
X1051968Y858022*
X1052684*
X1053758Y858514*
X1054474Y859990*
X1054832Y862451*
Y863927*
X1054474Y866388*
X1053758Y867864*
X1052684Y868356*
X1051968*
X1060200D02*
G01X1059127Y867864D01*
X1058411Y866388*
X1058053Y863927*
Y862451*
X1058411Y859990*
X1059127Y858514*
X1060200Y858022*
X1060916*
X1061990Y858514*
X1062706Y859990*
X1063064Y862451*
Y863927*
X1062706Y866388*
X1061990Y867864*
X1060916Y868356*
X1060200*
X1068432D02*
G01X1067359Y867864D01*
X1066643Y866388*
X1066285Y863927*
Y862451*
X1066643Y859990*
X1067359Y858514*
X1068432Y858022*
X1069148*
X1070222Y858514*
X1070938Y859990*
X1071296Y862451*
Y863927*
X1070938Y866388*
X1070222Y867864*
X1069148Y868356*
X1068432*
X1078096D02*
G01X1074517Y861467D01*
X1079885*
X1078096Y868356D02*
G01Y858022D01*
X1085254Y868356D02*
G01X1084180Y867864D01*
X1083464Y866388*
X1083107Y863927*
Y862451*
X1083464Y859990*
X1084180Y858514*
X1085254Y858022*
X1085970*
X1087044Y858514*
X1087759Y859990*
X1088117Y862451*
Y863927*
X1087759Y866388*
X1087044Y867864*
X1085970Y868356*
X1085254*
X1091338Y862451D02*
G01X1097781D01*
X1103149Y868356D02*
G01X1102076Y867864D01*
X1101360Y866388*
X1101002Y863927*
Y862451*
X1101360Y859990*
X1102076Y858514*
X1103149Y858022*
X1103865*
X1104939Y858514*
X1105655Y859990*
X1106013Y862451*
Y863927*
X1105655Y866388*
X1104939Y867864*
X1103865Y868356*
X1103149*
X1111381D02*
G01X1110308Y867864D01*
X1109592Y866388*
X1109234Y863927*
Y862451*
X1109592Y859990*
X1110308Y858514*
X1111381Y858022*
X1112097*
X1113171Y858514*
X1113887Y859990*
X1114245Y862451*
Y863927*
X1113887Y866388*
X1113171Y867864*
X1112097Y868356*
X1111381*
X1233178Y866388D02*
G01X1233894Y866880D01*
X1234968Y868356*
Y858022*
X1242842Y864911D02*
G01X1242484Y863435D01*
X1241768Y862451*
X1240694Y861959*
X1240336*
X1239263Y862451*
X1238547Y863435*
X1238189Y864911*
Y865404*
X1238547Y866880*
X1239263Y867864*
X1240336Y868356*
X1240694*
X1241768Y867864*
X1242484Y866880*
X1242842Y864911*
Y862451*
X1242484Y859990*
X1241768Y858514*
X1240694Y858022*
X1239978*
X1238905Y858514*
X1238547Y859498*
X1246063Y862451D02*
G01X1252505D01*
X1255726Y868356D02*
G01Y858022D01*
Y868356D02*
G01X1260737Y858022D01*
Y868356D02*
G01Y858022D01*
X1266106Y868356D02*
G01X1265390Y867864D01*
X1264674Y866880*
X1264316Y865896*
X1263958Y864419*
Y861959*
X1264316Y860482*
X1264674Y859498*
X1265390Y858514*
X1266106Y858022*
X1267537*
X1268253Y858514*
X1268969Y859498*
X1269327Y860482*
X1269685Y861959*
Y864419*
X1269327Y865896*
X1268969Y866880*
X1268253Y867864*
X1267537Y868356*
X1266106*
X1272906D02*
G01X1275769Y858022D01*
X1278633Y868356D02*
G01X1275769Y858022D01*
X1281854Y862451D02*
G01X1288296D01*
X1293665Y868356D02*
G01X1292591Y867864D01*
X1291875Y866388*
X1291517Y863927*
Y862451*
X1291875Y859990*
X1292591Y858514*
X1293665Y858022*
X1294381*
X1295454Y858514*
X1296170Y859990*
X1296528Y862451*
Y863927*
X1296170Y866388*
X1295454Y867864*
X1294381Y868356*
X1293665*
X1301539D02*
G01X1300465Y867864D01*
X1300107Y866880*
Y865896*
X1300465Y864911*
X1301181Y864419*
X1302613Y863927*
X1303686Y863435*
X1304402Y862451*
X1304760Y861467*
Y859990*
X1304402Y859006*
X1304044Y858514*
X1302970Y858022*
X1301539*
X1300465Y858514*
X1300107Y859006*
X1299749Y859990*
Y861467*
X1300107Y862451*
X1300823Y863435*
X1301897Y863927*
X1303328Y864419*
X1304044Y864911*
X1304402Y865896*
Y866880*
X1304044Y867864*
X1302970Y868356*
X1301539*
X1162670D02*
G01X1159807Y858022D01*
X1162670Y868356D02*
G01X1165533Y858022D01*
X1160880Y861467D02*
G01X1164459D01*
X1168754Y868356D02*
G01Y858022D01*
Y868356D02*
G01X1173407D01*
X1168754Y863435D02*
G01X1171618D01*
X1168754Y858022D02*
G01X1173407D01*
M02*
