%FSLAX23Y23*%
%MOIN*%
G70*
G01*
G75*
G04 Layer_Physical_Order=1*
G04 Layer_Color=255*
%ADD10O,0.024X0.059*%
%ADD11O,0.018X0.067*%
%ADD12O,0.059X0.024*%
%ADD13R,0.071X0.051*%
%ADD14R,0.039X0.039*%
%ADD15R,0.039X0.035*%
%ADD16R,0.039X0.039*%
%ADD17R,0.080X0.050*%
%ADD18R,0.134X0.085*%
%ADD19R,0.041X0.085*%
%ADD20R,0.041X0.085*%
%ADD21R,0.106X0.071*%
%ADD22R,0.035X0.039*%
%ADD23O,0.024X0.087*%
%ADD24R,0.051X0.071*%
%ADD25R,0.047X0.047*%
%ADD26R,0.075X0.134*%
%ADD27O,0.024X0.087*%
%ADD28C,0.040*%
%ADD29R,0.016X0.049*%
%ADD30R,0.071X0.079*%
%ADD31R,0.079X0.031*%
%ADD32R,0.134X0.063*%
%ADD33R,0.026X0.041*%
%ADD34R,0.134X0.075*%
%ADD35R,0.091X0.091*%
%ADD36O,0.087X0.024*%
%ADD37O,0.087X0.024*%
%ADD38R,0.071X0.094*%
%ADD39R,0.084X0.052*%
%ADD40O,0.011X0.067*%
%ADD41O,0.067X0.011*%
%ADD42R,0.141X0.116*%
%ADD43O,0.012X0.047*%
%ADD44R,0.177X0.059*%
%ADD45C,0.008*%
%ADD46C,0.012*%
%ADD47C,0.010*%
%ADD48C,0.025*%
%ADD49C,0.020*%
%ADD50C,0.015*%
%ADD51C,0.012*%
%ADD52C,0.004*%
%ADD53C,0.004*%
%ADD54C,0.118*%
%ADD55C,0.125*%
%ADD56C,0.035*%
%ADD57C,0.118*%
%ADD58C,0.065*%
%ADD59R,0.065X0.065*%
%ADD60R,0.065X0.065*%
%ADD61C,0.039*%
G36*
X3872Y871D02*
X3957D01*
Y276D01*
X3912Y231D01*
X3352D01*
Y596D01*
X3552D01*
Y486D01*
X3562Y476D01*
X3745D01*
Y360D01*
X3855D01*
Y600D01*
X3797D01*
Y650D01*
X3803Y653D01*
X3808Y657D01*
X3812Y662D01*
X3815Y668D01*
X3816Y675D01*
X3815Y682D01*
X3812Y688D01*
X3808Y693D01*
X3803Y697D01*
X3797Y700D01*
Y786D01*
X3602D01*
Y916D01*
X3827D01*
X3872Y871D01*
D02*
G37*
G36*
X3277Y226D02*
X2907D01*
Y616D01*
X2934D01*
X2935Y608D01*
X2938Y602D01*
X2942Y596D01*
X2948Y591D01*
X2955Y588D01*
X2962Y587D01*
X2969Y588D01*
X2976Y591D01*
X2982Y596D01*
X2986Y602D01*
X2989Y608D01*
X2990Y616D01*
X3277D01*
Y226D01*
D02*
G37*
G36*
X3577Y716D02*
X3592Y701D01*
X3664D01*
X3667Y697D01*
X3667Y696D01*
X3666Y689D01*
X3667Y682D01*
X3667Y681D01*
Y651D01*
X3572D01*
X3507Y716D01*
X3392D01*
X3342Y766D01*
X2907D01*
Y846D01*
X2927Y866D01*
X3577D01*
Y716D01*
D02*
G37*
%LPC*%
G36*
X3102Y380D02*
X3094Y379D01*
X3088Y374D01*
X3084Y368D01*
X3082Y360D01*
Y325D01*
X3084Y317D01*
X3088Y310D01*
X3094Y306D01*
X3102Y304D01*
X3110Y306D01*
X3116Y310D01*
X3121Y317D01*
X3122Y325D01*
Y360D01*
X3121Y368D01*
X3116Y374D01*
X3110Y379D01*
X3102Y380D01*
D02*
G37*
G36*
X3067Y504D02*
X3060Y503D01*
X3053Y500D01*
X3047Y496D01*
X3043Y490D01*
X3040Y483D01*
X3039Y476D01*
X3040Y468D01*
X3043Y462D01*
X3047Y456D01*
X3053Y451D01*
D01*
X3051Y449D01*
X3050Y449D01*
X3050Y449D01*
X3050D01*
X3050Y449D01*
X3050Y449D01*
D01*
X3046Y443D01*
X3045Y435D01*
Y399D01*
X3046Y392D01*
X3050Y385D01*
X3057Y381D01*
X3065Y379D01*
X3073Y381D01*
X3079Y385D01*
X3083Y392D01*
X3085Y399D01*
Y435D01*
X3083Y443D01*
X3080Y447D01*
Y451D01*
X3081Y451D01*
X3087Y456D01*
X3091Y462D01*
X3094Y468D01*
X3095Y476D01*
X3094Y483D01*
X3091Y490D01*
X3087Y496D01*
X3081Y500D01*
X3074Y503D01*
X3067Y504D01*
D02*
G37*
%LPD*%
D10*
X523Y363D02*
D03*
X560Y288D02*
D03*
X598Y363D02*
D03*
X7585Y483D02*
D03*
X7548Y558D02*
D03*
X7623D02*
D03*
X4855Y357D02*
D03*
X4818Y282D02*
D03*
X4893D02*
D03*
X5070Y357D02*
D03*
X5033Y282D02*
D03*
X5108D02*
D03*
X1638Y1208D02*
D03*
X1563D02*
D03*
X1600Y1133D02*
D03*
X4717Y1062D02*
D03*
X4792D02*
D03*
X4755Y1137D02*
D03*
X3622Y1877D02*
D03*
X3697D02*
D03*
X3659Y1952D02*
D03*
X6452Y1872D02*
D03*
X6527D02*
D03*
X6490Y1947D02*
D03*
X3270Y983D02*
D03*
X3233Y1058D02*
D03*
X3308D02*
D03*
X1455Y418D02*
D03*
X1418Y493D02*
D03*
X1493D02*
D03*
X3065Y417D02*
D03*
X3102Y342D02*
D03*
X3027D02*
D03*
X5297Y1287D02*
D03*
X5372D02*
D03*
X5335Y1362D02*
D03*
D11*
X5004Y523D02*
D03*
X4978D02*
D03*
X4952D02*
D03*
X4927D02*
D03*
Y747D02*
D03*
X4952D02*
D03*
X4978D02*
D03*
X5004D02*
D03*
X5294Y523D02*
D03*
X5268D02*
D03*
X5242D02*
D03*
X5217D02*
D03*
Y747D02*
D03*
X5242D02*
D03*
X5268D02*
D03*
X5294D02*
D03*
X5081Y1482D02*
D03*
X5107D02*
D03*
X5133D02*
D03*
X5158D02*
D03*
Y1706D02*
D03*
X5133D02*
D03*
X5107D02*
D03*
X5081D02*
D03*
D12*
X7748Y1115D02*
D03*
X7823Y1152D02*
D03*
Y1077D02*
D03*
X4747Y613D02*
D03*
X4822Y650D02*
D03*
X4277Y403D02*
D03*
X4352Y365D02*
D03*
X4168Y902D02*
D03*
Y977D02*
D03*
X4093Y940D02*
D03*
X4097Y403D02*
D03*
Y328D02*
D03*
X4172Y365D02*
D03*
X2997Y1055D02*
D03*
X2922Y1018D02*
D03*
Y1093D02*
D03*
X1798Y1000D02*
D03*
X1873Y1037D02*
D03*
Y962D02*
D03*
X1798Y1250D02*
D03*
X1873Y1287D02*
D03*
Y1212D02*
D03*
X6137Y1625D02*
D03*
X6062Y1588D02*
D03*
Y1663D02*
D03*
X6142Y635D02*
D03*
X6067Y598D02*
D03*
Y673D02*
D03*
X5458Y1625D02*
D03*
X5533Y1662D02*
D03*
Y1587D02*
D03*
X5468Y635D02*
D03*
X5543Y672D02*
D03*
Y597D02*
D03*
X2543Y405D02*
D03*
X2618Y367D02*
D03*
Y442D02*
D03*
X4277Y328D02*
D03*
X4747Y688D02*
D03*
X2298Y367D02*
D03*
Y442D02*
D03*
X2223Y405D02*
D03*
D13*
X5385Y357D02*
D03*
Y243D02*
D03*
X1465Y1242D02*
D03*
Y1128D02*
D03*
X4485Y318D02*
D03*
Y432D02*
D03*
X5800Y1432D02*
D03*
Y1318D02*
D03*
X5805Y432D02*
D03*
Y318D02*
D03*
X3112Y1168D02*
D03*
Y1054D02*
D03*
X3922Y929D02*
D03*
Y1043D02*
D03*
X2962Y679D02*
D03*
Y793D02*
D03*
X4417Y1069D02*
D03*
Y1183D02*
D03*
X5255Y1593D02*
D03*
Y1707D02*
D03*
X4790Y1878D02*
D03*
Y1992D02*
D03*
X3800Y448D02*
D03*
Y562D02*
D03*
D14*
X2185Y1966D02*
D03*
Y1904D02*
D03*
X2255Y1966D02*
D03*
Y1904D02*
D03*
X5084Y665D02*
D03*
Y603D02*
D03*
X2325Y1904D02*
D03*
Y1966D02*
D03*
X2395Y1904D02*
D03*
Y1966D02*
D03*
X2467Y1904D02*
D03*
Y1967D02*
D03*
X2557Y1904D02*
D03*
Y1967D02*
D03*
X3770Y1961D02*
D03*
Y1899D02*
D03*
X4717Y894D02*
D03*
Y957D02*
D03*
X3900Y1961D02*
D03*
Y1899D02*
D03*
X1447Y267D02*
D03*
Y330D02*
D03*
X397Y1284D02*
D03*
Y1347D02*
D03*
X4327Y957D02*
D03*
Y894D02*
D03*
X4627Y957D02*
D03*
Y894D02*
D03*
X4427Y894D02*
D03*
Y957D02*
D03*
X3802Y1124D02*
D03*
Y1187D02*
D03*
X1495Y636D02*
D03*
Y574D02*
D03*
X3222Y1214D02*
D03*
Y1151D02*
D03*
X3312Y1151D02*
D03*
Y1214D02*
D03*
X3730Y1124D02*
D03*
Y1186D02*
D03*
X3922Y1154D02*
D03*
Y1217D02*
D03*
X3405Y1961D02*
D03*
Y1899D02*
D03*
X3475Y1961D02*
D03*
Y1899D02*
D03*
X3412Y1207D02*
D03*
Y1144D02*
D03*
X4627Y1137D02*
D03*
Y1074D02*
D03*
X4527Y1074D02*
D03*
Y1137D02*
D03*
X2825Y1894D02*
D03*
Y1956D02*
D03*
X3195Y1899D02*
D03*
Y1961D02*
D03*
X2991Y1897D02*
D03*
Y1960D02*
D03*
X1552Y1399D02*
D03*
Y1462D02*
D03*
X1642Y1399D02*
D03*
Y1462D02*
D03*
X1462Y1399D02*
D03*
Y1462D02*
D03*
X3412Y1037D02*
D03*
Y974D02*
D03*
X4500Y1781D02*
D03*
Y1719D02*
D03*
X4395Y1781D02*
D03*
Y1719D02*
D03*
X4290Y1786D02*
D03*
Y1724D02*
D03*
X4500Y1899D02*
D03*
Y1961D02*
D03*
X4395Y1899D02*
D03*
Y1961D02*
D03*
X4290Y1904D02*
D03*
Y1966D02*
D03*
X4185Y1786D02*
D03*
Y1724D02*
D03*
X4080Y1781D02*
D03*
Y1719D02*
D03*
X3975Y1781D02*
D03*
Y1719D02*
D03*
X4185Y1904D02*
D03*
Y1966D02*
D03*
X4080Y1899D02*
D03*
Y1961D02*
D03*
X3975Y1899D02*
D03*
Y1961D02*
D03*
X3900Y1782D02*
D03*
Y1719D02*
D03*
X2685Y1966D02*
D03*
Y1904D02*
D03*
X5384Y600D02*
D03*
Y662D02*
D03*
X5220Y1284D02*
D03*
Y1346D02*
D03*
X4255Y894D02*
D03*
Y956D02*
D03*
X3545Y1899D02*
D03*
Y1961D02*
D03*
D15*
X4595Y1551D02*
D03*
Y1618D02*
D03*
X4527Y893D02*
D03*
Y959D02*
D03*
X5080Y1348D02*
D03*
Y1281D02*
D03*
X4750Y457D02*
D03*
Y524D02*
D03*
X1405Y572D02*
D03*
Y639D02*
D03*
X2755Y1958D02*
D03*
Y1891D02*
D03*
X5150Y1281D02*
D03*
Y1348D02*
D03*
X5345Y1672D02*
D03*
X4665Y1552D02*
D03*
Y1619D02*
D03*
X4680Y1901D02*
D03*
Y1968D02*
D03*
X2460Y468D02*
D03*
Y401D02*
D03*
X5345Y1739D02*
D03*
X2390Y402D02*
D03*
Y469D02*
D03*
D16*
X4231Y480D02*
D03*
X4169D02*
D03*
X2176Y1380D02*
D03*
X2114D02*
D03*
X704Y1430D02*
D03*
X766D02*
D03*
X1506Y1970D02*
D03*
X1444D02*
D03*
X354Y1979D02*
D03*
X416D02*
D03*
X4169Y825D02*
D03*
X4231D02*
D03*
X4231Y755D02*
D03*
X4169D02*
D03*
X729Y285D02*
D03*
X791D02*
D03*
X729Y365D02*
D03*
X791D02*
D03*
X704Y1345D02*
D03*
X766D02*
D03*
X739Y990D02*
D03*
X801D02*
D03*
X6229Y635D02*
D03*
X6291D02*
D03*
X4169Y620D02*
D03*
X4231D02*
D03*
X4169Y550D02*
D03*
X4231D02*
D03*
X1802Y1488D02*
D03*
X1865D02*
D03*
X2961Y936D02*
D03*
X3023D02*
D03*
X1446Y791D02*
D03*
X1508D02*
D03*
X1446Y891D02*
D03*
X1508D02*
D03*
X1446Y991D02*
D03*
X1508D02*
D03*
X2114Y1310D02*
D03*
X2176D02*
D03*
X2114Y1450D02*
D03*
X2176D02*
D03*
X2114Y1520D02*
D03*
X2176D02*
D03*
X2114Y1595D02*
D03*
X2176D02*
D03*
X2114Y1690D02*
D03*
X2176D02*
D03*
X2114Y1780D02*
D03*
X2176D02*
D03*
D17*
X1308Y1091D02*
D03*
Y791D02*
D03*
X908D02*
D03*
Y1091D02*
D03*
Y991D02*
D03*
Y891D02*
D03*
X1308Y991D02*
D03*
Y891D02*
D03*
X1309Y265D02*
D03*
Y365D02*
D03*
X909D02*
D03*
Y265D02*
D03*
X908Y1971D02*
D03*
Y1871D02*
D03*
X1308D02*
D03*
Y1971D02*
D03*
X912Y1279D02*
D03*
Y1579D02*
D03*
X1312D02*
D03*
Y1279D02*
D03*
Y1379D02*
D03*
Y1479D02*
D03*
X912Y1379D02*
D03*
Y1479D02*
D03*
D18*
X6495Y1646D02*
D03*
X6825D02*
D03*
X7787Y594D02*
D03*
X7787Y1646D02*
D03*
X6697Y594D02*
D03*
X7017D02*
D03*
X7397D02*
D03*
X7150Y1646D02*
D03*
X7464Y1644D02*
D03*
D19*
X6586Y1402D02*
D03*
X6495D02*
D03*
X6916D02*
D03*
X6825D02*
D03*
X7696Y838D02*
D03*
X7787D02*
D03*
X7878Y1402D02*
D03*
X7787D02*
D03*
X6697Y838D02*
D03*
X6606D02*
D03*
X7017D02*
D03*
X6926D02*
D03*
X7397D02*
D03*
X7306D02*
D03*
X7241Y1402D02*
D03*
X7150D02*
D03*
X7464Y1400D02*
D03*
X7555D02*
D03*
D20*
X6404Y1402D02*
D03*
X6734D02*
D03*
X7878Y838D02*
D03*
X7696Y1402D02*
D03*
X6788Y838D02*
D03*
X7108D02*
D03*
X7488D02*
D03*
X7059Y1402D02*
D03*
X7373Y1400D02*
D03*
D21*
X7017Y1768D02*
D03*
Y1943D02*
D03*
Y268D02*
D03*
Y443D02*
D03*
X6697Y1768D02*
D03*
Y1943D02*
D03*
X7787Y1758D02*
D03*
Y1933D02*
D03*
X7285Y1766D02*
D03*
Y1941D02*
D03*
X7525D02*
D03*
Y1766D02*
D03*
X7787Y443D02*
D03*
Y268D02*
D03*
X6697Y443D02*
D03*
Y268D02*
D03*
X7397D02*
D03*
Y443D02*
D03*
D22*
X848Y620D02*
D03*
X781D02*
D03*
X6133Y1740D02*
D03*
X6066D02*
D03*
X6071Y520D02*
D03*
X6138D02*
D03*
X6071Y750D02*
D03*
X6138D02*
D03*
X5539Y520D02*
D03*
X5472D02*
D03*
X5539Y1740D02*
D03*
X5472D02*
D03*
X5539Y750D02*
D03*
X5472D02*
D03*
X5539Y1515D02*
D03*
X5472D02*
D03*
X6066Y1515D02*
D03*
X6133D02*
D03*
X2763Y300D02*
D03*
X2696D02*
D03*
Y510D02*
D03*
X2764Y440D02*
D03*
Y370D02*
D03*
X2697Y440D02*
D03*
Y370D02*
D03*
X4272Y244D02*
D03*
X4339D02*
D03*
X2763Y510D02*
D03*
D23*
X5650Y1720D02*
D03*
X5800D02*
D03*
X5950D02*
D03*
Y1531D02*
D03*
X5800D02*
D03*
X5750D02*
D03*
X5700D02*
D03*
X5650D02*
D03*
X5900Y1720D02*
D03*
X5850D02*
D03*
X5750D02*
D03*
X5700D02*
D03*
X5850Y1531D02*
D03*
X5900D02*
D03*
X521Y830D02*
D03*
X469D02*
D03*
X573Y621D02*
D03*
X521D02*
D03*
X625Y830D02*
D03*
Y621D02*
D03*
X469D02*
D03*
X4586Y550D02*
D03*
X4536D02*
D03*
X4336D02*
D03*
X4386D02*
D03*
X4436D02*
D03*
X4486D02*
D03*
X4636D02*
D03*
X4336Y758D02*
D03*
X4386D02*
D03*
X4436D02*
D03*
X4486D02*
D03*
X4536D02*
D03*
X4586D02*
D03*
X4636D02*
D03*
X1764Y1591D02*
D03*
X5655Y541D02*
D03*
X5705D02*
D03*
X5755D02*
D03*
X5805D02*
D03*
X5855D02*
D03*
X5905D02*
D03*
X5955D02*
D03*
Y730D02*
D03*
X5905D02*
D03*
X5855D02*
D03*
X5805D02*
D03*
X5755D02*
D03*
X5705D02*
D03*
X5655D02*
D03*
D24*
X1891Y1938D02*
D03*
X1777D02*
D03*
X1911Y1378D02*
D03*
X1797D02*
D03*
X1907Y1125D02*
D03*
X1793D02*
D03*
X4758Y1605D02*
D03*
X4872D02*
D03*
D25*
X3075Y1879D02*
D03*
Y1961D02*
D03*
X3270Y1879D02*
D03*
Y1961D02*
D03*
D26*
X3395Y381D02*
D03*
X3241D02*
D03*
D27*
X573Y830D02*
D03*
X1914Y1795D02*
D03*
X1864D02*
D03*
X1814D02*
D03*
X1764D02*
D03*
X1914Y1591D02*
D03*
X1864D02*
D03*
X1814D02*
D03*
D28*
X7847Y79D02*
D03*
X147D02*
D03*
Y2126D02*
D03*
X2745Y1826D02*
D03*
X2533Y905D02*
D03*
X2496Y976D02*
D03*
X2383Y919D02*
D03*
D29*
X7327Y1078D02*
D03*
X7308Y1156D02*
D03*
X7288Y1078D02*
D03*
X7268Y1156D02*
D03*
X7249Y1078D02*
D03*
X7229Y1156D02*
D03*
X6973Y1078D02*
D03*
X7170D02*
D03*
X7190Y1156D02*
D03*
X7209Y1078D02*
D03*
X7347Y1156D02*
D03*
X6993D02*
D03*
X7012Y1078D02*
D03*
X7032Y1156D02*
D03*
X7052Y1078D02*
D03*
X7071Y1156D02*
D03*
X7130Y1078D02*
D03*
X7150Y1156D02*
D03*
X7091Y1078D02*
D03*
X7111Y1156D02*
D03*
D30*
X6910Y1117D02*
D03*
X7410D02*
D03*
D31*
X1224Y620D02*
D03*
Y520D02*
D03*
X996D02*
D03*
Y620D02*
D03*
D32*
X4925Y1721D02*
D03*
Y1878D02*
D03*
D33*
X4758Y1701D02*
D03*
X4683D02*
D03*
Y1799D02*
D03*
X4720D02*
D03*
X4758D02*
D03*
D34*
X3652Y572D02*
D03*
Y418D02*
D03*
D35*
X3452Y566D02*
D03*
Y743D02*
D03*
D36*
X3569Y1727D02*
D03*
X3778Y1571D02*
D03*
Y1623D02*
D03*
Y1675D02*
D03*
Y1727D02*
D03*
X3569Y1571D02*
D03*
Y1623D02*
D03*
D37*
X3569Y1675D02*
D03*
X6447Y1272D02*
D03*
Y1222D02*
D03*
Y1172D02*
D03*
Y1122D02*
D03*
Y1072D02*
D03*
Y1022D02*
D03*
Y972D02*
D03*
Y922D02*
D03*
X6243Y972D02*
D03*
Y1022D02*
D03*
Y1072D02*
D03*
Y1122D02*
D03*
Y1172D02*
D03*
Y1222D02*
D03*
Y1272D02*
D03*
Y922D02*
D03*
D38*
X415Y283D02*
D03*
Y445D02*
D03*
D39*
X3202Y818D02*
D03*
Y573D02*
D03*
D40*
X2737Y1184D02*
D03*
X2718D02*
D03*
X2796Y1754D02*
D03*
X2757Y1184D02*
D03*
X2836Y1754D02*
D03*
X2816D02*
D03*
X2777D02*
D03*
X2757D02*
D03*
X2737D02*
D03*
X2718D02*
D03*
X2698D02*
D03*
X2678D02*
D03*
X2659D02*
D03*
X2639D02*
D03*
X2619D02*
D03*
X2599D02*
D03*
X2580D02*
D03*
X2560D02*
D03*
X2540D02*
D03*
X2521D02*
D03*
X2501D02*
D03*
X2481D02*
D03*
X2462D02*
D03*
X2836Y1184D02*
D03*
X2816D02*
D03*
X2796D02*
D03*
X2777D02*
D03*
X2698D02*
D03*
X2678D02*
D03*
X2659D02*
D03*
X2639D02*
D03*
X2619D02*
D03*
X2599D02*
D03*
X2580D02*
D03*
X2560D02*
D03*
X2540D02*
D03*
X2521D02*
D03*
X2501D02*
D03*
X2481D02*
D03*
X2462D02*
D03*
D41*
X2365Y1362D02*
D03*
X2936Y1618D02*
D03*
X2365Y1657D02*
D03*
Y1637D02*
D03*
Y1618D02*
D03*
Y1598D02*
D03*
Y1578D02*
D03*
Y1559D02*
D03*
Y1539D02*
D03*
Y1519D02*
D03*
Y1499D02*
D03*
Y1480D02*
D03*
Y1460D02*
D03*
Y1440D02*
D03*
Y1421D02*
D03*
Y1401D02*
D03*
Y1381D02*
D03*
Y1342D02*
D03*
Y1322D02*
D03*
Y1303D02*
D03*
Y1283D02*
D03*
X2936Y1657D02*
D03*
Y1637D02*
D03*
Y1598D02*
D03*
Y1578D02*
D03*
Y1559D02*
D03*
Y1539D02*
D03*
Y1519D02*
D03*
Y1499D02*
D03*
Y1480D02*
D03*
Y1460D02*
D03*
Y1440D02*
D03*
Y1421D02*
D03*
Y1401D02*
D03*
Y1381D02*
D03*
Y1362D02*
D03*
Y1342D02*
D03*
Y1322D02*
D03*
Y1303D02*
D03*
Y1283D02*
D03*
D42*
X3707Y851D02*
D03*
D43*
X3617Y742D02*
D03*
X3643D02*
D03*
X3669D02*
D03*
X3694D02*
D03*
X3720D02*
D03*
X3745D02*
D03*
X3771D02*
D03*
X3797D02*
D03*
X3617Y960D02*
D03*
X3643D02*
D03*
X3669D02*
D03*
X3694D02*
D03*
X3720D02*
D03*
X3745D02*
D03*
X3771D02*
D03*
X3797D02*
D03*
D44*
X2675Y976D02*
D03*
X2341D02*
D03*
D45*
X1914Y1839D02*
X1995Y1920D01*
X1914Y1795D02*
Y1839D01*
X520Y485D02*
X570D01*
X469Y536D02*
X520Y485D01*
X469Y536D02*
Y621D01*
X3361Y1151D02*
X3361Y1151D01*
X3312Y1151D02*
X3361D01*
X5182Y667D02*
X5235D01*
X5249Y619D02*
X5310D01*
X5330Y599D01*
X5230Y575D02*
X5242Y563D01*
X5230Y600D02*
X5249Y619D01*
X5230Y575D02*
Y600D01*
X5217Y523D02*
Y558D01*
X5210Y565D02*
X5217Y558D01*
X5210Y565D02*
Y607D01*
X5238Y635D01*
X5275D01*
X5302Y662D01*
X5330Y599D02*
X5383D01*
X5242Y523D02*
Y563D01*
X5268Y586D02*
X5268Y586D01*
Y523D02*
Y586D01*
X4818Y282D02*
X4819Y284D01*
Y402D01*
X4770Y270D02*
X4805Y235D01*
X4842D01*
X4855Y248D01*
Y357D01*
X5106Y284D02*
X5108Y282D01*
X5106Y284D02*
Y404D01*
X5117Y235D02*
X5152Y270D01*
X5084Y235D02*
X5117D01*
X5070Y249D02*
X5084Y235D01*
X5070Y249D02*
Y357D01*
X4893Y282D02*
X4893Y282D01*
X4921D01*
X4933Y294D01*
Y345D01*
X5032Y282D02*
X5033Y282D01*
X5003Y282D02*
X5032D01*
X4993Y292D02*
X5003Y282D01*
X4993Y292D02*
Y344D01*
X4933Y345D02*
X4934Y346D01*
X5379Y667D02*
X5384Y662D01*
X4872Y433D02*
X5048D01*
X5073Y458D01*
X4824Y481D02*
X4856Y449D01*
Y449D02*
X4872Y433D01*
X4857Y471D02*
X4878Y450D01*
X4990D01*
X5004Y464D01*
Y489D01*
X4918Y468D02*
X4945D01*
X4899Y487D02*
X4918Y468D01*
X4899Y487D02*
Y508D01*
X4824Y481D02*
Y599D01*
X4853Y554D02*
Y605D01*
X4883Y635D01*
X4983D01*
X5015Y603D01*
X5084D01*
X4824Y599D02*
X4866Y641D01*
X4853Y554D02*
X4899Y508D01*
X4945Y468D02*
X4952Y475D01*
Y523D01*
X4856Y498D02*
X4857Y471D01*
X5004Y489D02*
X5004Y489D01*
X5073Y458D02*
X5410D01*
X4950Y672D02*
X4952Y674D01*
Y747D01*
X4978Y747D02*
Y802D01*
X4949Y831D02*
X4978Y802D01*
Y747D02*
X4978Y747D01*
X4978Y799D02*
X5003D01*
X5004Y798D01*
Y747D02*
Y798D01*
X5060Y745D02*
X5061Y746D01*
Y829D01*
X5023Y867D02*
X5061Y829D01*
X4913Y867D02*
X5023D01*
X4885Y839D02*
X4913Y867D01*
X4885Y727D02*
Y839D01*
X5294Y475D02*
Y523D01*
Y475D02*
X5294Y475D01*
X5089D02*
X5294D01*
X5050Y514D02*
X5089Y475D01*
X4978Y523D02*
Y563D01*
X4986Y571D01*
Y603D01*
X4970Y619D02*
X4986Y603D01*
X4916Y619D02*
X4970D01*
X4885Y588D02*
X4916Y619D01*
X4927Y559D02*
X4953Y585D01*
X4927Y523D02*
Y559D01*
X5185Y1598D02*
Y1652D01*
X5158Y1679D02*
X5185Y1652D01*
X5158Y1679D02*
Y1706D01*
X5255Y1531D02*
X5255Y1531D01*
X5255Y1531D02*
Y1593D01*
X5080Y1483D02*
X5081Y1482D01*
X5016Y1483D02*
X5080D01*
X4999Y1500D02*
X5016Y1483D01*
X4999Y1500D02*
Y1661D01*
X5025Y1687D01*
Y1755D01*
X5071Y1551D02*
X5107Y1515D01*
X5071Y1551D02*
Y1617D01*
X5055Y1633D02*
X5071Y1617D01*
X5107Y1482D02*
Y1515D01*
X5090Y1555D02*
X5115Y1530D01*
X5118Y1631D02*
Y1633D01*
X5090Y1603D02*
X5118Y1631D01*
X5090Y1555D02*
Y1603D01*
X5115Y1530D02*
X5124D01*
X5133Y1521D01*
Y1482D02*
Y1521D01*
X5122Y1571D02*
X5152Y1601D01*
Y1649D01*
X5133Y1668D02*
X5152Y1649D01*
X5133Y1668D02*
Y1706D01*
X5107D02*
X5107Y1706D01*
Y1760D01*
X5114Y1767D01*
X5269D01*
X5268Y1707D02*
X5303Y1672D01*
X5345D01*
X5269Y1721D02*
Y1767D01*
X5255Y1707D02*
X5269Y1721D01*
X6404Y1484D02*
X6405Y1485D01*
X6404Y1402D02*
Y1484D01*
X7697Y1373D02*
Y1478D01*
X7059D02*
X7059Y1478D01*
Y1402D02*
Y1478D01*
X7170Y1078D02*
Y1193D01*
X7170Y1193D01*
X7488Y759D02*
Y838D01*
X6516Y972D02*
X6585Y1041D01*
X6447Y972D02*
X6516D01*
X6585Y1041D02*
Y1326D01*
X6555Y1109D02*
Y1300D01*
X6529Y1326D02*
X6555Y1300D01*
X6495Y1326D02*
X6529D01*
X6517Y1071D02*
X6555Y1109D01*
X7130Y1078D02*
Y1192D01*
X7111Y1039D02*
X7111Y1039D01*
X7111Y1039D02*
Y1156D01*
X7091Y1078D02*
X7091Y1078D01*
X7051Y1078D02*
X7052Y1078D01*
X7051Y1078D02*
Y1218D01*
X6992Y1040D02*
Y1156D01*
X6734Y1478D02*
X6734Y1478D01*
Y1402D02*
Y1478D01*
X7071Y1041D02*
X7071Y1041D01*
Y1156D01*
X7032Y1156D02*
X7032Y1156D01*
X7032Y1040D02*
Y1156D01*
X6992Y1156D02*
X6993Y1156D01*
X6787Y837D02*
X6788Y838D01*
X6787Y759D02*
Y837D01*
X625Y535D02*
X625Y535D01*
X625Y535D02*
Y621D01*
X791Y259D02*
Y365D01*
Y259D02*
X825Y225D01*
X791Y365D02*
X792Y365D01*
X909D01*
X4505Y1910D02*
X4555D01*
X4500Y1905D02*
X4505Y1910D01*
X4500Y1899D02*
Y1905D01*
X4395Y1896D02*
X4396Y1896D01*
X4395Y1910D02*
X4450D01*
X4395Y1910D02*
X4395Y1910D01*
X4395Y1899D02*
Y1910D01*
X4290Y1901D02*
X4290Y1901D01*
X4290Y1910D02*
X4345D01*
X4290Y1910D02*
X4290Y1910D01*
X4290Y1904D02*
Y1910D01*
X4185Y1901D02*
X4185Y1901D01*
X4185Y1910D02*
X4240D01*
X4185Y1910D02*
X4185Y1910D01*
X4185Y1904D02*
Y1910D01*
X4080Y1910D02*
X4135D01*
X4080Y1910D02*
X4080Y1910D01*
X4080Y1899D02*
Y1910D01*
X3975Y1910D02*
X4025D01*
X3975Y1910D02*
X3975Y1910D01*
X3975Y1899D02*
Y1910D01*
X5750Y1720D02*
Y1850D01*
X5765Y1865D02*
X6040D01*
X5750Y1850D02*
X5765Y1865D01*
X5505Y1855D02*
X5517Y1867D01*
X5628D01*
X5650Y1845D01*
Y1795D02*
Y1845D01*
X5134Y1857D02*
X5385D01*
X5430Y1902D01*
X5975Y1660D02*
X6060D01*
X5850Y1795D02*
X5882Y1827D01*
X6066Y1825D02*
X6100D01*
X6064Y1827D02*
X6066Y1825D01*
X5882Y1827D02*
X6064D01*
X5915Y1795D02*
X6040D01*
X6133Y1740D02*
Y1777D01*
X6133Y1777D02*
X6133Y1777D01*
X5855Y805D02*
X5915Y865D01*
X6050D01*
X5920Y805D02*
X6050D01*
X5755Y730D02*
Y860D01*
X5500Y910D02*
X5705D01*
X5755Y860D01*
X5500Y805D02*
X5690D01*
X800Y1045D02*
X801Y1044D01*
Y990D02*
Y1044D01*
X4105Y620D02*
X4105Y620D01*
X4169D01*
X5545Y670D02*
X5630D01*
X5655Y480D02*
Y570D01*
X5105Y800D02*
X5125Y780D01*
Y645D02*
Y780D01*
X5084Y604D02*
X5125Y645D01*
X5084Y603D02*
Y604D01*
X5350Y825D02*
X5423Y752D01*
Y612D02*
Y752D01*
X5411Y600D02*
X5423Y612D01*
X5384Y600D02*
X5411D01*
X2147Y1816D02*
X2179Y1783D01*
X6146Y1676D02*
X6370D01*
X1959Y755D02*
X2156D01*
X1882Y678D02*
X1959Y755D01*
X2313Y1342D02*
X2365D01*
X2322Y1322D02*
X2365D01*
X2718Y1365D02*
Y1658D01*
X2109Y1195D02*
X2341D01*
X1508Y791D02*
X1767D01*
X5345Y1672D02*
X5346Y1671D01*
X2177Y1519D02*
X2486D01*
X4926Y1941D02*
X4927Y1940D01*
X5025D01*
X5124Y1841D01*
X5445D01*
X5472Y1814D01*
Y1740D02*
Y1814D01*
X5015Y1976D02*
X5134Y1857D01*
X4969Y1976D02*
X5015D01*
X2491Y1472D02*
X2522D01*
X2462Y1501D02*
X2491Y1472D01*
X2500Y1505D02*
X2595D01*
X2486Y1519D02*
X2500Y1505D01*
X6323Y1313D02*
X6361Y1275D01*
X6079Y1313D02*
X6323D01*
X7108Y759D02*
Y837D01*
X7108Y838D02*
X7108Y837D01*
X2185Y1904D02*
X2185Y1904D01*
X2185Y1852D02*
Y1904D01*
Y1852D02*
X2218Y1819D01*
X2292D01*
X2255Y1852D02*
X2295D01*
X2255D02*
X2255Y1852D01*
Y1904D01*
X2325Y1904D02*
X2325Y1904D01*
X2325Y1851D02*
Y1904D01*
X2822Y1256D02*
X2861D01*
X2874Y1243D01*
X3159D01*
X1444Y1970D02*
X1701Y1713D01*
X1814D01*
X2756Y1770D02*
X2757Y1769D01*
Y1754D02*
Y1769D01*
X2756Y1770D02*
Y1787D01*
X6133Y1463D02*
Y1515D01*
X6129Y1459D02*
X6133Y1463D01*
X4436Y550D02*
Y582D01*
X4406Y612D02*
X4436Y582D01*
X4307Y612D02*
X4406D01*
X4280Y585D02*
X4307Y612D01*
X4204Y585D02*
X4280D01*
X4169Y620D02*
X4204Y585D01*
X4750Y413D02*
Y457D01*
X4639Y1799D02*
X4683D01*
X5325Y897D02*
X5472Y750D01*
X2326Y1158D02*
X2474Y1306D01*
X1937Y1243D02*
X1973Y1279D01*
X1937Y1195D02*
Y1243D01*
Y1195D02*
X1990Y1142D01*
X2117D01*
X1973Y1210D02*
X2025Y1158D01*
X2326D01*
X2060Y1260D02*
X2070Y1270D01*
X2169D01*
X2176Y1277D01*
Y1310D01*
X2481Y1289D02*
X2788D01*
X2117Y1142D02*
X2117Y1142D01*
X2333D01*
X2481Y1289D01*
X2788D02*
X2822Y1256D01*
X2341Y1195D02*
X2468Y1322D01*
X2474Y1306D02*
X2659D01*
X2718Y1365D01*
X4030Y940D02*
X4030Y940D01*
X4093D01*
X1640Y1515D02*
X1642Y1513D01*
Y1462D02*
Y1513D01*
X5848Y2007D02*
X6192D01*
X5795Y1955D02*
X5825Y1985D01*
X6192Y2007D02*
X6220Y1979D01*
X5458Y1625D02*
X5458Y1625D01*
X5611D01*
X5634Y1648D01*
X5956D01*
X5979Y1625D01*
X6137D01*
X5655Y480D02*
X5680Y455D01*
X5119Y1991D02*
X5564D01*
X5590Y2017D01*
X5700D01*
X5725Y1992D01*
X5655Y1955D02*
X5795D01*
X5625Y1985D02*
X5655Y1955D01*
X5088Y1960D02*
X5119Y1991D01*
X5206Y1910D02*
X5235Y1939D01*
X5889D01*
X5925Y1975D01*
X5150Y1958D02*
X5598D01*
X5625Y1985D01*
X5539Y1666D02*
Y1794D01*
X5555Y1817D01*
X5545Y1660D02*
X5620D01*
X5545Y1585D02*
X5620D01*
X1495Y636D02*
X1496Y635D01*
X2460Y401D02*
X2464Y405D01*
X2543D01*
X5060Y745D02*
X5084Y721D01*
Y665D02*
Y721D01*
X5383Y599D02*
X5384Y600D01*
X5152Y270D02*
X5160Y270D01*
X4817Y402D02*
X4819D01*
X5106Y404D02*
X5111D01*
X770Y890D02*
X907D01*
X700Y1160D02*
X940D01*
X477Y761D02*
X641D01*
X907Y890D02*
X908Y891D01*
X641Y761D02*
X770Y890D01*
X907Y990D02*
X908Y991D01*
X801Y990D02*
X907D01*
X1294Y890D02*
X1307D01*
X3159Y1243D02*
X3192Y1276D01*
X2936Y1322D02*
X4680D01*
X2936Y1342D02*
X3176D01*
X2937Y1361D02*
X4688D01*
X2936Y1362D02*
X2937Y1361D01*
X2936Y1401D02*
X3176D01*
X6087Y1221D02*
X6242D01*
X2936Y1421D02*
X3176D01*
X4829Y923D02*
Y1145D01*
X4698Y1276D02*
X4829Y1145D01*
X6081Y972D02*
X6243D01*
X4901Y1101D02*
X5953D01*
X6058Y1150D02*
X6087Y1121D01*
X2367Y1541D02*
X2522D01*
X4946Y1199D02*
X6007D01*
X4939Y1183D02*
X6049D01*
X4909Y1117D02*
X5312D01*
X5650Y1795D02*
X5685D01*
X5700Y1780D01*
Y1720D02*
Y1780D01*
X5900Y1590D02*
X5915Y1605D01*
X5950D01*
X5900Y1531D02*
Y1590D01*
X5850Y1531D02*
Y1605D01*
X5685Y1605D02*
X5700Y1590D01*
X5650Y1605D02*
X5685D01*
X5700Y1531D02*
Y1590D01*
X5750Y1600D02*
X5750Y1605D01*
X5750Y1531D02*
Y1600D01*
X5900Y1720D02*
Y1780D01*
X5850Y1720D02*
Y1795D01*
X5750D02*
X5750Y1795D01*
X5900Y1780D02*
X5915Y1795D01*
X3192Y1276D02*
X4698D01*
X1452Y336D02*
X1517D01*
X467Y861D02*
X469Y826D01*
X1462Y1346D02*
Y1396D01*
X2998Y1194D02*
X3004Y1199D01*
X3003Y1056D02*
Y1194D01*
X2921Y1093D02*
Y1134D01*
X3309Y1063D02*
Y1146D01*
X3277Y1151D02*
X3310D01*
X3267Y1161D02*
X3277Y1151D01*
X3267Y1161D02*
Y1206D01*
X3257Y1216D02*
X3267Y1206D01*
X3222Y1216D02*
X3257D01*
X3112Y1056D02*
X3162D01*
X3177Y1071D01*
Y1136D01*
X3190Y1149D01*
X3222D01*
X3003Y1056D02*
X3112D01*
X2875Y1618D02*
X2936D01*
X2619Y1103D02*
Y1184D01*
X2223Y1003D02*
X2248Y1028D01*
X2513D01*
X2580Y1095D01*
Y1184D01*
X180Y1179D02*
X365D01*
X395Y1209D02*
Y1269D01*
X365Y1179D02*
X395Y1209D01*
X155Y1204D02*
X180Y1179D01*
X151Y1257D02*
X155Y1239D01*
X4363Y364D02*
X4386Y387D01*
X4088Y401D02*
X4268D01*
X3717Y996D02*
X3720Y993D01*
Y960D02*
Y993D01*
X3900Y1666D02*
Y1717D01*
X4500Y1667D02*
Y1719D01*
X4185Y1670D02*
Y1722D01*
X2501Y1754D02*
X2502Y1801D01*
X2521Y1754D02*
X2522Y1806D01*
X2580Y1754D02*
Y1814D01*
X5652Y1723D02*
Y1725D01*
X4386Y387D02*
Y550D01*
Y552D01*
X397Y1349D02*
Y1492D01*
X7696Y1374D02*
X7697Y1373D01*
X7877Y836D02*
X7878Y838D01*
X7877Y760D02*
Y836D01*
X3802Y1190D02*
X3846D01*
X3874Y1218D02*
X3922D01*
X3846Y1190D02*
X3874Y1218D01*
X4080Y1785D02*
Y1895D01*
X4185Y1790D02*
Y1901D01*
X4290Y1790D02*
Y1901D01*
X4395Y1785D02*
Y1896D01*
X4500Y1785D02*
Y1896D01*
X4436Y758D02*
Y885D01*
X4427Y893D02*
X4436Y885D01*
X4536Y758D02*
Y882D01*
X4586Y758D02*
Y814D01*
X4627Y856D01*
Y876D01*
Y958D02*
Y1011D01*
X4427Y971D02*
Y1011D01*
X4636Y758D02*
Y789D01*
X4662Y816D01*
Y956D01*
X4637D02*
X4662D01*
X4245Y758D02*
X4336D01*
X4163Y705D02*
Y756D01*
Y705D02*
X4172Y696D01*
X4432D01*
X4437Y701D01*
Y736D01*
X5957Y531D02*
Y533D01*
X5657Y738D02*
Y740D01*
X5657Y756D02*
X5657Y740D01*
X2481Y1754D02*
Y1796D01*
X2365Y1460D02*
X2411D01*
X2442Y1461D01*
X2365Y1440D02*
X2402D01*
X2437Y1406D01*
X2183Y1779D02*
X2222Y1740D01*
X2639Y1058D02*
Y1184D01*
X2632Y1051D02*
X2639Y1058D01*
X2429Y1008D02*
X2524D01*
X1552Y1463D02*
X1629D01*
X469Y769D02*
X477Y761D01*
X469Y769D02*
Y830D01*
X2947Y1813D02*
Y1996D01*
X3381Y2030D02*
X3405Y2007D01*
Y1963D02*
Y2007D01*
X4717Y836D02*
Y893D01*
X4720Y963D02*
Y1048D01*
X4627Y1140D02*
X4754D01*
X2599Y1754D02*
Y1803D01*
X2637Y1841D02*
X2638Y1834D01*
X2718Y1666D02*
Y1754D01*
Y1666D02*
X2718Y1658D01*
X2561Y1847D02*
Y1896D01*
Y1847D02*
X2562Y1846D01*
X2560Y1754D02*
Y1814D01*
X2562Y1816D01*
Y1831D01*
X2540Y1754D02*
X2541Y1698D01*
X2553Y1688D01*
X2936Y1539D02*
X3068D01*
X3176Y1440D02*
X4704Y1441D01*
X3176Y1421D02*
X4701Y1421D01*
X3176Y1401D02*
X4698Y1401D01*
X2936Y1381D02*
X4693D01*
X3105Y1461D02*
X4707D01*
X2796Y1184D02*
Y1230D01*
X2822Y1256D01*
X3176Y1342D02*
X4685Y1341D01*
X4802Y896D02*
X4829Y923D01*
X4719Y896D02*
X4802D01*
X2421Y1499D02*
X2427Y1501D01*
X2462D01*
X625Y830D02*
Y904D01*
X637Y916D01*
X1443Y726D02*
Y791D01*
X1866Y1488D02*
X1938D01*
X3475Y1962D02*
Y2014D01*
X3660Y1960D02*
Y2015D01*
X467Y861D02*
Y911D01*
X442Y936D02*
X467Y911D01*
X3802Y1123D02*
X3860D01*
X3922Y1218D02*
X3974D01*
X3977Y1221D01*
X4346Y1072D02*
X4417D01*
X4342Y1076D02*
X4346Y1072D01*
X4717Y960D02*
X4753D01*
X4772Y941D01*
X6574Y594D02*
X6697D01*
X6572Y596D02*
X6574Y594D01*
X4122Y756D02*
X4163D01*
X4077Y801D02*
X4122Y756D01*
X395Y1269D02*
X397Y1282D01*
X155Y1204D02*
Y1239D01*
X6167Y1272D02*
X6243D01*
X6080Y1272D02*
X6167D01*
Y1172D02*
X6243D01*
X6089Y1172D02*
X6167D01*
X6088Y1122D02*
X6243D01*
X4926Y1150D02*
X6058D01*
X6078Y1071D02*
X6167D01*
X6168Y1072D02*
X6243D01*
X6088Y1022D02*
X6243D01*
X6447Y1272D02*
X6516D01*
X6447Y1172D02*
X6448Y1171D01*
X6377Y1121D02*
X6446D01*
X6447Y1122D01*
Y1072D02*
X6448Y1071D01*
X6377Y1221D02*
X6446D01*
X6447Y1222D01*
Y1172D02*
X6516D01*
X6517Y1171D01*
X6448Y1071D02*
X6517D01*
X6377Y1021D02*
X6446D01*
X6447Y1022D01*
X6825Y1646D02*
X6825Y1646D01*
X6825Y1646D02*
X6936D01*
X6951Y1660D01*
X6007Y1199D02*
X6080Y1272D01*
X6049Y1183D02*
X6087Y1221D01*
X6083Y1166D02*
X6089Y1172D01*
X6015Y1134D02*
X6078Y1071D01*
X5991Y1117D02*
X6087Y1021D01*
X5953Y1101D02*
X6081Y972D01*
X4680Y1322D02*
X4901Y1101D01*
X4685Y1341D02*
X4909Y1117D01*
X5310Y1117D02*
X5991D01*
X4688Y1361D02*
X4915Y1134D01*
X6015D01*
X4693Y1381D02*
X4926Y1150D01*
X4698Y1401D02*
X4933Y1166D01*
X6083D01*
X4701Y1421D02*
X4939Y1183D01*
X4704Y1441D02*
X4946Y1199D01*
X4707Y1461D02*
X4953Y1215D01*
X5981D01*
X6079Y1313D01*
X269Y1257D02*
X316D01*
X351Y1292D01*
X268Y1954D02*
X293Y1979D01*
X353D01*
X268Y1847D02*
Y1954D01*
X7373Y1400D02*
X7373Y1399D01*
X351Y1292D02*
Y1501D01*
X820Y1970D02*
X907D01*
X908Y1971D01*
X775Y1870D02*
X907D01*
X908Y1871D01*
X397Y1492D02*
X775Y1870D01*
X351Y1501D02*
X820Y1970D01*
X2176Y1520D02*
X2177Y1519D01*
X2176Y1310D02*
X2176Y1310D01*
X5757Y738D02*
Y740D01*
X5705Y730D02*
Y790D01*
X5690Y805D02*
X5705Y790D01*
X5755Y805D02*
X5755Y805D01*
X5855Y730D02*
Y805D01*
X5905Y730D02*
Y790D01*
X5920Y805D01*
X5705Y541D02*
Y610D01*
X5695Y620D02*
X5705Y610D01*
X5655Y620D02*
X5695D01*
X5755Y541D02*
Y620D01*
X5755Y620D01*
X5855Y541D02*
Y620D01*
X5855Y620D01*
X5905Y541D02*
Y610D01*
X5915Y620D01*
X5955D01*
X6065Y595D02*
X6067Y598D01*
X5630Y595D02*
X5655Y570D01*
X5545Y595D02*
X5630D01*
X5543Y597D02*
X5545Y595D01*
X5655Y695D02*
Y730D01*
X5630Y670D02*
X5655Y695D01*
X5955Y730D02*
X5955Y730D01*
Y698D02*
X5980Y673D01*
X5955Y698D02*
Y735D01*
X5650Y1531D02*
Y1555D01*
X5620Y1585D02*
X5650Y1555D01*
X5543Y1587D02*
X5545Y1585D01*
X5650Y1690D02*
Y1720D01*
X5620Y1660D02*
X5650Y1690D01*
X5950Y1685D02*
Y1720D01*
Y1685D02*
X5975Y1660D01*
X5950Y1531D02*
Y1555D01*
X5985Y1590D01*
X6066Y1667D02*
Y1740D01*
X6060Y1660D02*
X6066Y1667D01*
Y1515D02*
Y1584D01*
X6060Y1590D02*
X6066Y1584D01*
X5539Y1515D02*
Y1583D01*
X5543Y1587D01*
X5539Y1666D02*
X5545Y1660D01*
X5539Y676D02*
Y750D01*
Y676D02*
X5545Y670D01*
X5539Y520D02*
Y593D01*
X5543Y597D01*
X6071Y677D02*
Y750D01*
X6067Y673D02*
X6071Y677D01*
Y520D02*
Y594D01*
X6067Y598D02*
X6071Y594D01*
X7373Y1318D02*
Y1399D01*
X1434Y1970D02*
Y1971D01*
X1435Y1970D02*
X1444D01*
X1308Y1971D02*
X1434D01*
X1374Y1479D02*
X1447Y1552D01*
X1312Y1379D02*
X1374D01*
X1390Y1395D01*
X1461D01*
X1462Y1396D01*
X1642Y1348D02*
Y1399D01*
Y1348D02*
X1645Y1345D01*
X1638Y1208D02*
Y1338D01*
X1645Y1345D01*
X1387Y991D02*
X1446D01*
X1387Y991D02*
X1387Y991D01*
X1308Y991D02*
X1387D01*
X1387Y991D01*
X1509D02*
X1566Y990D01*
X1493Y493D02*
X1495Y495D01*
Y575D02*
X1575D01*
X1495Y495D02*
Y575D01*
X1455Y339D02*
Y418D01*
X1452Y336D02*
X1455Y339D01*
X1311Y1480D02*
X1312Y1479D01*
X1243Y1183D02*
X1275Y1215D01*
Y1155D02*
Y1160D01*
X1365Y1250D01*
Y1310D01*
X1345Y1330D02*
X1365Y1310D01*
X1275Y1330D02*
X1345D01*
X1250Y1355D02*
X1275Y1330D01*
X1250Y1355D02*
Y1462D01*
X1267Y1479D01*
X2176Y1690D02*
Y1724D01*
X2152Y1748D02*
X2176Y1724D01*
X2325Y1658D02*
X2363D01*
X2292Y1691D02*
X2325Y1658D01*
X2363Y1657D02*
X2365D01*
X2292Y1691D02*
Y1761D01*
X2257Y1693D02*
X2313Y1637D01*
X2257Y1693D02*
Y1721D01*
X2313Y1637D02*
X2365D01*
X2222Y1705D02*
Y1740D01*
Y1705D02*
X2309Y1618D01*
X2365D01*
X2176Y1690D02*
X2178Y1688D01*
X2214D02*
X2304Y1598D01*
X2178Y1688D02*
X2214D01*
X2304Y1598D02*
X2365D01*
X2258Y1591D02*
X2270Y1578D01*
X2365D01*
Y1559D02*
X2410D01*
X2436Y1571D01*
X2176Y1595D02*
X2208D01*
X2264Y1539D01*
X2365D01*
X2696Y300D02*
X2697Y300D01*
X4094Y401D02*
Y458D01*
X4169Y825D02*
Y902D01*
X4168Y902D02*
X4169Y902D01*
X4231Y755D02*
Y825D01*
X4231Y825D02*
X4231Y825D01*
X4255Y894D02*
X4326D01*
X4327Y894D01*
X4683Y1799D02*
Y1899D01*
X4680Y1901D02*
X4683Y1899D01*
X3975Y1781D02*
Y1896D01*
X3975Y1896D02*
X3975Y1896D01*
X3694Y960D02*
Y968D01*
X3694Y968D02*
X3694Y968D01*
X3660Y1244D02*
X3694Y1210D01*
Y996D02*
X3717D01*
X3694Y968D02*
Y1210D01*
Y689D02*
Y741D01*
X3694Y742D01*
X4231Y550D02*
X4335D01*
X4336Y550D01*
X4169Y480D02*
Y550D01*
X4169Y550D01*
Y620D01*
X4536Y550D02*
Y629D01*
X4535Y630D02*
X4536Y629D01*
X4586Y550D02*
Y621D01*
X4595Y630D01*
X4635D01*
X2991Y1960D02*
X3074D01*
X3075Y1961D01*
X3134D01*
X3195Y1961D02*
X3270D01*
X3271Y1960D02*
X3330D01*
X3270Y1961D02*
X3271Y1960D01*
X3195Y1820D02*
Y1899D01*
Y1820D02*
X3195Y1808D01*
X2542Y1761D02*
Y1816D01*
X2541Y1755D02*
Y1759D01*
X2540Y1754D02*
X2541Y1755D01*
Y1759D02*
X2542Y1761D01*
X2512Y1846D02*
X2542Y1816D01*
X4080Y1665D02*
Y1719D01*
X4080Y1665D02*
X4080Y1665D01*
X3975D02*
Y1719D01*
X3975Y1665D02*
X3975Y1665D01*
X4290Y1670D02*
Y1724D01*
X4290Y1670D02*
X4290Y1670D01*
X4395Y1665D02*
Y1719D01*
X2981Y2030D02*
X3381D01*
X2947Y1996D02*
X2981Y2030D01*
X1730Y1378D02*
X1799D01*
X2777Y1129D02*
Y1184D01*
Y1129D02*
X2785Y1121D01*
X2802Y1113D01*
X2223Y874D02*
Y1003D01*
Y874D02*
X2300Y797D01*
X1907Y1125D02*
X1908Y1126D01*
X2179Y1783D02*
X2183Y1779D01*
X6138Y520D02*
X6181D01*
X6138Y750D02*
X6181D01*
X6142Y635D02*
X6229D01*
X6142Y635D02*
X6142Y635D01*
X5980Y673D02*
X6067D01*
X6015Y595D02*
X6065D01*
X5955Y541D02*
Y582D01*
X5962Y589D01*
X6009D01*
X6015Y595D01*
X5985Y1590D02*
X6060D01*
X5129Y614D02*
X5182Y667D01*
X5129Y569D02*
Y614D01*
X5105Y545D02*
X5129Y569D01*
X2785Y933D02*
Y1009D01*
X2636Y784D02*
X2785Y933D01*
X2484Y784D02*
X2636D01*
X2400Y700D02*
X2484Y784D01*
X2698Y1122D02*
Y1184D01*
X2802Y926D02*
Y1018D01*
X2639Y763D02*
X2802Y926D01*
X2500Y700D02*
X2563Y763D01*
X2639D01*
X2698Y1122D02*
X2802Y1018D01*
X2678Y1116D02*
X2785Y1009D01*
X2678Y1116D02*
Y1184D01*
X1966Y1816D02*
X2147D01*
X1965Y1815D02*
X1966Y1816D01*
X1975Y1750D02*
X1977Y1748D01*
X2152D01*
X416Y1979D02*
X500D01*
X1267Y1479D02*
X1374D01*
X2825Y1955D02*
Y2005D01*
X3007Y1503D02*
X3063D01*
X3003Y1499D02*
X3007Y1503D01*
X3063D02*
X3105Y1461D01*
X2936Y1499D02*
X3003D01*
X3004Y1440D02*
X3007Y1437D01*
X3081Y1440D02*
X3176D01*
X3077Y1437D02*
X3081Y1440D01*
X3007Y1437D02*
X3077D01*
X2936Y1440D02*
X3004D01*
X3071Y1519D02*
X3113Y1477D01*
X2936Y1519D02*
X3071D01*
X4413Y1477D02*
X4436Y1495D01*
X3113Y1477D02*
X4413D01*
X3193Y1529D02*
X3211Y1511D01*
X5410Y458D02*
X5472Y520D01*
X4866Y641D02*
Y682D01*
X4809Y739D02*
X4866Y682D01*
X4779Y739D02*
X4809D01*
X3998Y1550D02*
X4474D01*
X4530Y1494D01*
X3211Y1511D02*
X3959D01*
X3998Y1550D01*
X3244D02*
X3267Y1527D01*
X3946D01*
X3985Y1566D01*
X4482D02*
X4538Y1510D01*
X3985Y1566D02*
X4482D01*
X4750Y1510D02*
X4763Y1497D01*
X4781D01*
X4793Y1485D01*
X4538Y1510D02*
X4750D01*
X4796Y855D02*
X4838Y897D01*
X5325D01*
X5329Y1515D02*
X5472D01*
X4783Y1413D02*
X5227D01*
X5329Y1515D01*
X5335Y1362D02*
Y1424D01*
X2696Y251D02*
Y300D01*
Y251D02*
X2697Y250D01*
X5203Y307D02*
X5264D01*
X5190Y294D02*
X5203Y307D01*
X5190Y241D02*
Y294D01*
X5162Y213D02*
X5190Y241D01*
X4671Y213D02*
X5162D01*
X4611Y273D02*
X4671Y213D01*
X4335Y458D02*
Y476D01*
X4319Y442D02*
X4335Y458D01*
X4144Y442D02*
X4319D01*
X4131Y455D02*
X4144Y442D01*
X4131Y455D02*
Y481D01*
X4120Y492D02*
X4131Y481D01*
X4019Y492D02*
X4120D01*
X2855Y440D02*
X2856Y441D01*
X2764Y440D02*
X2855D01*
X4337Y244D02*
Y280D01*
X4363Y306D01*
X4339Y244D02*
X4340Y245D01*
X4363Y306D02*
Y364D01*
X4340Y245D02*
X4389D01*
X2836Y1578D02*
X2875Y1618D01*
X2836Y1310D02*
Y1578D01*
X4777Y1448D02*
X4843D01*
X4731Y1494D02*
X4777Y1448D01*
X4530Y1494D02*
X4731D01*
X4719Y1477D02*
X4783Y1413D01*
X4519Y1477D02*
X4719D01*
X4468Y1528D02*
X4519Y1477D01*
X4003Y1528D02*
X4468D01*
X3970Y1495D02*
X4003Y1528D01*
X3115Y1530D02*
X3150Y1495D01*
X3970D01*
X1250Y934D02*
Y1050D01*
Y934D02*
X1252Y932D01*
X1252D02*
X1294Y890D01*
X1243Y1057D02*
X1250Y1050D01*
X1243Y1057D02*
Y1183D01*
X2176Y1380D02*
X2222D01*
X2176Y1310D02*
X2216D01*
X2331Y1780D02*
X2462D01*
Y1754D02*
Y1780D01*
X2292Y1819D02*
X2331Y1780D01*
X2345Y1802D02*
X2476D01*
Y1802D02*
X2481Y1796D01*
X2295Y1852D02*
X2345Y1802D01*
X2357Y1819D02*
X2484D01*
X2325Y1851D02*
X2357Y1819D01*
X2484D02*
X2502Y1801D01*
X2395Y1848D02*
X2408Y1835D01*
X2493D01*
X2395Y1848D02*
Y1904D01*
X2493Y1835D02*
X2522Y1806D01*
X2467Y1859D02*
Y1904D01*
Y1859D02*
X2474Y1852D01*
X2506D01*
X2512Y1846D01*
X6133Y1777D02*
Y1866D01*
X6097Y1902D02*
X6133Y1866D01*
X5430Y1902D02*
X6097D01*
X1447Y1552D02*
Y1908D01*
X2267Y1786D02*
X2292Y1761D01*
X2257Y1786D02*
X2267D01*
X2737Y1184D02*
Y1256D01*
Y1184D02*
X2737Y1184D01*
X2823Y370D02*
X2823Y370D01*
X2764Y370D02*
X2823D01*
X2763Y441D02*
Y510D01*
Y441D02*
X2764Y440D01*
X4335Y476D02*
Y550D01*
X2620Y440D02*
X2697D01*
X2618Y367D02*
X2694D01*
X2697Y370D01*
X2694Y302D02*
Y367D01*
Y302D02*
X2696Y300D01*
X2718Y1125D02*
Y1184D01*
X2390Y568D02*
X2464Y642D01*
X2718Y1125D02*
X2818Y1025D01*
X2390Y401D02*
X2460D01*
X2390Y402D02*
X2390Y401D01*
X2312Y1312D02*
X2322Y1322D01*
X2312Y1253D02*
Y1312D01*
Y1253D02*
X2334Y1231D01*
X2275D02*
Y1304D01*
X2313Y1342D01*
X2305Y1362D02*
X2365D01*
X2219Y1276D02*
X2305Y1362D01*
X2219Y1231D02*
Y1276D01*
X2604Y444D02*
Y568D01*
Y444D02*
X2605Y443D01*
X2617D01*
X2620Y440D01*
X2696Y510D02*
X2696Y510D01*
X2757Y1108D02*
Y1184D01*
Y1108D02*
X2836Y1029D01*
X2300Y700D02*
Y797D01*
X2796Y1718D02*
Y1754D01*
Y1718D02*
X2811Y1703D01*
Y1519D02*
Y1703D01*
X2748Y1456D02*
X2811Y1519D01*
X2748Y1327D02*
Y1456D01*
X2150Y406D02*
X2151Y405D01*
X2223D01*
X2390Y373D02*
Y402D01*
X2384Y367D02*
X2390Y373D01*
X2298Y367D02*
X2384D01*
X2298Y367D02*
X2298Y367D01*
X1919Y367D02*
X2298D01*
X1651Y635D02*
X1919Y367D01*
X1496Y635D02*
X1650D01*
X1404Y671D02*
X1411Y678D01*
X1404Y639D02*
Y671D01*
Y639D02*
X1405Y639D01*
X1330Y639D02*
X1404D01*
X1311Y620D02*
X1330Y639D01*
X1224Y620D02*
X1311D01*
X1847Y678D02*
X1849Y680D01*
X1411Y678D02*
X1882D01*
X5825Y1985D02*
X5848Y2007D01*
X7229Y1156D02*
Y1204D01*
X7308Y1156D02*
Y1212D01*
X7318Y1222D01*
X7423D01*
X7450Y1195D01*
X7268Y1156D02*
Y1215D01*
X7291Y1238D01*
X7482D02*
X7500Y1220D01*
X7291Y1238D02*
X7482D01*
X7251Y1226D02*
X7283Y1258D01*
X7229Y1204D02*
X7251Y1226D01*
X7283Y1258D02*
X7532D01*
X7550Y1240D01*
X7327Y1046D02*
Y1078D01*
Y1046D02*
X7336Y1037D01*
X7472D01*
X7490Y1055D01*
X7288Y1037D02*
Y1078D01*
Y1037D02*
X7305Y1020D01*
X7530D01*
X7540Y1030D01*
X7249Y1013D02*
Y1078D01*
Y1013D02*
X7260Y1002D01*
X7490D01*
X7506Y986D01*
X2921Y1134D02*
X2939Y1152D01*
X2965D01*
X2649Y671D02*
Y745D01*
X2620Y642D02*
X2649Y671D01*
X2464Y642D02*
X2620D01*
X2649Y745D02*
X2818Y914D01*
X2390Y469D02*
Y568D01*
X2818Y914D02*
Y1025D01*
X2750Y659D02*
Y820D01*
X2836Y906D01*
X2696Y510D02*
Y605D01*
X2750Y659D01*
X2836Y906D02*
Y1029D01*
X2836Y1184D02*
X2909D01*
X2925Y1200D01*
X2816Y1148D02*
Y1184D01*
Y1148D02*
X2855Y1109D01*
Y860D02*
Y1109D01*
X2835Y840D02*
X2855Y860D01*
X2220Y1488D02*
X2231Y1499D01*
X2220Y1461D02*
Y1488D01*
X2176Y1450D02*
X2209D01*
X2220Y1461D01*
X2231Y1499D02*
X2421D01*
X2222Y1438D02*
X2264Y1480D01*
X2222Y1381D02*
Y1438D01*
X2264Y1480D02*
X2365D01*
X2254Y1405D02*
X2270Y1421D01*
X2254Y1348D02*
Y1405D01*
X2216Y1310D02*
X2254Y1348D01*
X2270Y1421D02*
X2365D01*
X3412Y916D02*
Y974D01*
X3412Y916D02*
X3412Y916D01*
X3525Y960D02*
X3617D01*
X3525Y960D02*
X3525Y960D01*
X3669D02*
Y1031D01*
X3650Y1050D02*
X3669Y1031D01*
X3771Y694D02*
Y742D01*
Y694D02*
X3790Y675D01*
X3778Y1571D02*
X3854D01*
X3860Y1565D01*
X3068Y1539D02*
X3097Y1568D01*
X3163D01*
X3195Y1600D01*
Y1808D01*
X3087Y1585D02*
X3157D01*
X3179Y1607D01*
Y1737D01*
X2987Y1816D02*
X3029Y1773D01*
X2936Y1559D02*
X3061D01*
X3087Y1585D01*
X3071Y1602D02*
X3151D01*
X3163Y1614D01*
Y1728D01*
X3134Y1757D02*
X3163Y1728D01*
X3003Y1757D02*
X3134D01*
X2947Y1813D02*
X3003Y1757D01*
X2936Y1578D02*
X3047D01*
X3071Y1602D01*
X2936Y1637D02*
X2970D01*
X2985Y1652D01*
X2936Y1657D02*
X2966D01*
X2980Y1671D02*
X3099D01*
X3130Y1640D01*
X2966Y1657D02*
X2980Y1671D01*
X3029Y1773D02*
X3143D01*
X2987Y1816D02*
Y1891D01*
X3143Y1773D02*
X3179Y1737D01*
X2777Y1633D02*
X2777Y1633D01*
X2756Y1787D02*
X2802Y1833D01*
X2825D01*
Y1894D01*
X2737Y1704D02*
Y1754D01*
X2468Y1322D02*
X2647D01*
X2678Y1353D01*
X2659Y1699D02*
Y1754D01*
X2652Y1692D02*
X2659Y1699D01*
X2500Y1590D02*
X2521Y1611D01*
Y1754D01*
X2595Y1828D02*
X2595Y1829D01*
X2606Y1840D02*
Y1893D01*
X2580Y1814D02*
X2606Y1840D01*
X2607Y1894D02*
X2687D01*
X2606Y1893D02*
X2607Y1894D01*
X2599Y1803D02*
X2637Y1841D01*
X2678Y1814D02*
X2755Y1891D01*
X2698Y1754D02*
Y1804D01*
X2719Y1825D01*
X2744D01*
X2745Y1826D01*
X2678Y1353D02*
Y1567D01*
X2698Y1587D01*
X2678Y1715D02*
X2698Y1695D01*
Y1587D02*
Y1695D01*
X2474Y1631D02*
X2501Y1658D01*
Y1754D01*
X2737Y1704D02*
X2749Y1692D01*
X2777Y1714D02*
Y1754D01*
Y1714D02*
X2787Y1704D01*
Y1643D02*
Y1704D01*
X2777Y1633D02*
X2787Y1643D01*
X2836Y1754D02*
X2886D01*
X2910Y1730D01*
X2816Y1754D02*
Y1789D01*
X2830Y1803D01*
X2897D01*
X2936Y1283D02*
X3012D01*
X3020Y1275D01*
X2936Y1303D02*
X2994D01*
X2997Y1306D01*
X3069D01*
X3100Y1275D01*
X3043Y1652D02*
X3055Y1640D01*
X2985Y1652D02*
X3043D01*
X2978Y1598D02*
X3000Y1620D01*
X2936Y1598D02*
X2978D01*
X2975Y1725D02*
X3000D01*
X2897Y1803D02*
X2975Y1725D01*
X2675Y976D02*
X2700D01*
X2700Y976D01*
X2674Y976D02*
Y981D01*
X2700Y906D02*
Y976D01*
X2397Y976D02*
X2429Y1008D01*
X2524D02*
X2619Y1103D01*
X2341Y976D02*
X2397D01*
X2501Y1184D02*
Y1229D01*
X2491Y1239D02*
X2501Y1229D01*
X2453Y1239D02*
X2491D01*
X1908Y1126D02*
X2340D01*
X2453Y1239D01*
X2420Y1184D02*
X2462D01*
X2345Y1108D02*
X2420Y1184D01*
X2678Y1715D02*
Y1814D01*
X2383Y919D02*
Y969D01*
X2382Y970D02*
X2383Y969D01*
X2346Y970D02*
X2382D01*
X2341Y976D02*
X2346Y970D01*
X2115Y1095D02*
X2128Y1108D01*
X2345D01*
X2481Y1142D02*
Y1184D01*
X2475Y1136D02*
X2481Y1142D01*
X2395Y1136D02*
X2475D01*
X2187Y1092D02*
X2351D01*
X2115Y1020D02*
X2187Y1092D01*
X2351D02*
X2395Y1136D01*
X2521Y1135D02*
Y1184D01*
X2402Y1120D02*
X2506D01*
X2357Y1075D02*
X2402Y1120D01*
X2193Y1075D02*
X2357D01*
X2155Y1037D02*
X2193Y1075D01*
X2115Y945D02*
X2155Y985D01*
Y1037D01*
X2506Y1120D02*
X2521Y1135D01*
X2156Y755D02*
X2185Y784D01*
X2540Y1127D02*
Y1184D01*
X2516Y1103D02*
X2540Y1127D01*
X2408Y1103D02*
X2516D01*
X2199Y1057D02*
X2362D01*
X2171Y1029D02*
X2199Y1057D01*
X2115Y870D02*
X2171Y926D01*
Y1029D01*
X2362Y1057D02*
X2408Y1103D01*
X2529Y1081D02*
X2560Y1112D01*
X2505Y1081D02*
X2529D01*
X2560Y1112D02*
Y1184D01*
X2493Y1069D02*
X2505Y1081D01*
X2298Y1401D02*
X2365D01*
Y1381D02*
X2409D01*
X2418Y1372D01*
X2468D02*
X2490Y1394D01*
X2418Y1372D02*
X2468D01*
X2365Y1303D02*
X2401D01*
X2453Y1355D01*
X2514D01*
X2365Y1283D02*
X2405D01*
X2461Y1339D01*
X2567D01*
X2284Y1387D02*
X2298Y1401D01*
X2514Y1355D02*
X2535Y1376D01*
X2567Y1339D02*
X2584Y1356D01*
X4181Y328D02*
X4277D01*
X4168Y315D02*
X4181Y328D01*
X4168Y248D02*
Y315D01*
X4165Y245D02*
X4168Y248D01*
X4747Y688D02*
Y739D01*
X4727Y759D02*
X4747Y739D01*
X4696Y759D02*
X4727D01*
X4695Y760D02*
X4696Y759D01*
D46*
X5631Y989D02*
Y993D01*
X5235Y667D02*
X5268Y700D01*
X5321D01*
X5333Y712D01*
Y713D01*
X5382D01*
X5217Y685D02*
X5235Y667D01*
X5217Y685D02*
Y747D01*
X5265Y822D02*
X5271Y828D01*
X5268Y747D02*
Y825D01*
X5259Y822D02*
X5265D01*
X5242Y805D02*
X5259Y822D01*
X5242Y747D02*
Y805D01*
X5271Y828D02*
X5294Y805D01*
Y747D02*
Y805D01*
X4820Y452D02*
X4857Y415D01*
X4802Y470D02*
Y650D01*
X5055Y415D02*
X5080Y440D01*
X4857Y415D02*
X5055D01*
X5080Y440D02*
X5372D01*
X4802Y470D02*
X4820Y452D01*
X4885Y727D02*
X4905Y747D01*
X4927D01*
X6405Y2005D02*
X7106D01*
X7139Y1972D01*
Y1789D02*
Y1972D01*
X6924Y269D02*
X7017D01*
X6697D02*
X6794D01*
X7644Y1301D02*
Y1864D01*
X7682Y1902D01*
X7662Y948D02*
Y1162D01*
X7644Y1301D02*
X7728Y1217D01*
X7623Y1201D02*
X7662Y1162D01*
X7629Y915D02*
X7662Y948D01*
X7574Y915D02*
X7629D01*
X7549Y890D02*
X7574Y915D01*
X6915Y1323D02*
X6916Y1324D01*
Y1402D01*
X7378Y269D02*
X7490D01*
X7584Y482D02*
X7585Y483D01*
X7584Y425D02*
Y482D01*
X7566Y407D02*
X7584Y425D01*
X7491Y407D02*
X7566D01*
X7548Y558D02*
X7623D01*
X7549Y559D02*
Y890D01*
X7548Y558D02*
X7549Y559D01*
X6910Y1039D02*
X6972D01*
X6973Y1040D01*
Y1078D01*
X7347Y1190D02*
X7385D01*
X7347Y1156D02*
Y1190D01*
X7547Y890D02*
X7549D01*
X7306Y916D02*
X7521D01*
X7547Y890D01*
X7490Y269D02*
X7490Y269D01*
X7197Y450D02*
Y608D01*
X7787Y1932D02*
X7880D01*
X7787Y269D02*
X7885D01*
X7787Y268D02*
X7787Y268D01*
X6912Y281D02*
X6924Y269D01*
X5398Y371D02*
X5495D01*
X5537Y329D01*
X5385Y357D02*
X5398Y371D01*
X5227Y272D02*
X5356D01*
X5385Y243D01*
X5395Y244D02*
X5423Y272D01*
X6047Y220D02*
X6239Y412D01*
X6193Y1897D02*
X6270D01*
X5345D02*
X5369Y1921D01*
X6192Y1935D02*
X6335D01*
X6152Y1975D02*
X6192Y1935D01*
X5925Y1975D02*
X6152D01*
X5423Y875D02*
X5667D01*
X5584Y874D02*
X5585Y875D01*
X5343Y955D02*
X5423Y875D01*
X5815Y980D02*
X5829Y994D01*
X5631Y989D02*
X5640Y980D01*
X1735Y1000D02*
X1735Y1000D01*
X1798D01*
X3610Y1970D02*
X3622Y1958D01*
Y1877D02*
Y1958D01*
X5418Y545D02*
X5468Y595D01*
Y635D01*
X7310Y1583D02*
Y1632D01*
X7369Y1691D01*
X5345Y1794D02*
X5346Y1795D01*
X5345Y1739D02*
Y1794D01*
X6194Y1846D02*
X6366D01*
X5902Y921D02*
X6166D01*
X5829Y994D02*
X5902Y921D01*
X5288Y1027D02*
X5497D01*
X5503Y293D02*
X5713D01*
X5472Y324D02*
X5503Y293D01*
X5814Y1028D02*
X5897D01*
X5780Y1062D02*
X5814Y1028D01*
X5044Y1019D02*
X5087Y1062D01*
X5840D02*
Y1067D01*
X5825Y1082D02*
X5840Y1067D01*
X5025Y1062D02*
X5045Y1082D01*
X5713Y293D02*
X5731Y275D01*
X4518Y666D02*
X4659D01*
X4498Y646D02*
X4518Y666D01*
X4257Y646D02*
X4498D01*
X4675Y650D02*
X4802D01*
X4659Y666D02*
X4675Y650D01*
X4231Y620D02*
X4257Y646D01*
X4932Y993D02*
X5384D01*
X4918Y1007D02*
X4932Y993D01*
X5897Y1028D02*
X5930Y994D01*
X4982Y1029D02*
X5001D01*
X5011Y1019D01*
X5044D01*
X5087Y1062D02*
X5780D01*
X6071Y1361D02*
X6271D01*
X5961Y1251D02*
X6071Y1361D01*
X5860Y1251D02*
X5961D01*
X6271Y1759D02*
X6553D01*
X6587Y1793D01*
X6239Y412D02*
X6600D01*
X5423Y272D02*
X5655D01*
X5707Y220D01*
X6047D01*
X6142Y635D02*
X6142Y635D01*
X5992Y635D02*
X6142D01*
X5971Y656D02*
X5992Y635D01*
X5970Y656D02*
X5971D01*
X5969Y655D02*
X5970Y656D01*
X5640Y655D02*
X5969D01*
X5620Y635D02*
X5640Y655D01*
X5468Y635D02*
X5620D01*
X6335Y1935D02*
X6405Y2005D01*
X5045Y1082D02*
X5825D01*
X5667Y875D02*
X5708Y834D01*
X5400Y1625D02*
X5458D01*
X5630Y235D02*
X5665Y200D01*
X7300D01*
X6794Y269D02*
X6795Y270D01*
X5468Y635D02*
X5468Y635D01*
X5467Y1624D02*
X5468Y1625D01*
X5464Y1624D02*
X5467D01*
X5385Y993D02*
X5630D01*
X6582Y1946D02*
X6585Y1942D01*
X7302Y1936D02*
X7305Y1932D01*
X6697Y594D02*
Y838D01*
X7017Y594D02*
Y838D01*
X7397Y596D02*
Y838D01*
X7787Y594D02*
Y838D01*
X3852Y1041D02*
X3922D01*
X3842Y1031D02*
X3852Y1041D01*
X3797Y1031D02*
X3842D01*
X3771Y1005D02*
X3797Y1031D01*
X3771Y960D02*
Y1005D01*
X3262Y241D02*
X3297Y206D01*
X3942D01*
X3982Y246D01*
Y1026D01*
X3967Y1041D02*
X3982Y1026D01*
X3922Y1041D02*
X3967Y1041D01*
X1864Y1492D02*
Y1591D01*
X1799Y1378D02*
X1800Y1390D01*
X6552Y841D02*
X6555Y838D01*
X1800Y1390D02*
X1800Y1488D01*
Y1488D01*
X7397Y442D02*
Y443D01*
Y594D01*
X7017Y442D02*
Y443D01*
Y594D01*
X6697Y442D02*
Y443D01*
Y594D01*
X7787Y1758D02*
Y1759D01*
X7787Y442D02*
Y443D01*
Y594D01*
X1867Y1489D02*
X1867Y1488D01*
X1864Y1492D02*
X1867Y1489D01*
X3900Y1896D02*
Y1897D01*
X3405Y1962D02*
X3475D01*
X6495Y1646D02*
X6648D01*
X6495Y1646D02*
X6495Y1646D01*
X6495Y1402D02*
Y1646D01*
X6648Y1646D02*
X6697Y1695D01*
X6825Y1402D02*
Y1646D01*
X7017Y1761D02*
Y1769D01*
X6697Y1695D02*
Y1769D01*
X7787Y1374D02*
Y1402D01*
X7787Y1646D02*
Y1758D01*
Y1402D02*
Y1646D01*
X7464Y1400D02*
Y1644D01*
X7464Y1644D01*
X7150Y1402D02*
Y1646D01*
X7340Y1858D02*
X7369Y1829D01*
X7300Y1858D02*
X7340D01*
X7285Y1873D02*
X7300Y1858D01*
X7285Y1873D02*
Y1941D01*
X7369Y1691D02*
Y1829D01*
X7490Y408D02*
X7491Y407D01*
X7010Y1951D02*
X7017Y1943D01*
X7238Y1399D02*
X7241Y1402D01*
X1308Y891D02*
X1445D01*
X1446Y891D01*
X1307Y890D02*
X1308Y891D01*
X4720Y1799D02*
Y1855D01*
X4720Y1855D02*
X4720Y1855D01*
X3800Y390D02*
Y448D01*
X3800Y390D02*
X3800Y390D01*
X3475Y1899D02*
X3545D01*
X3619Y1896D02*
X3622Y1893D01*
X3548Y1896D02*
X3619D01*
X3545Y1899D02*
X3548Y1896D01*
X1798Y1250D02*
Y1378D01*
X1799Y1378D01*
X1802Y1212D02*
X1873D01*
X1793Y1203D02*
X1802Y1212D01*
X1793Y1125D02*
Y1203D01*
X1793Y1125D02*
X1793Y1125D01*
X1793Y1005D02*
Y1125D01*
Y1005D02*
X1798Y1000D01*
X5382Y667D02*
Y713D01*
X5640Y980D02*
X5815D01*
X5386Y545D02*
X5418D01*
X5372Y440D02*
X5386Y426D01*
X6452Y1872D02*
X6527D01*
X6452Y1837D02*
Y1872D01*
Y1837D02*
X6485Y1804D01*
X5369Y1921D02*
X6169D01*
X6193Y1897D01*
X7197Y450D02*
X7378Y269D01*
X7241Y1325D02*
Y1402D01*
X7306Y838D02*
Y916D01*
D47*
X5038Y1281D02*
X5218D01*
X5206Y1482D02*
X5255Y1531D01*
X5158Y1482D02*
X5206D01*
X5020Y1586D02*
X5036Y1570D01*
X5020Y1586D02*
Y1651D01*
X5056Y1687D01*
X5081D01*
X5081Y1687D01*
Y1706D01*
X6912Y281D02*
Y461D01*
X6872Y736D02*
Y916D01*
X6838Y702D02*
X6872Y736D01*
X6838Y535D02*
X6912Y461D01*
X6838Y535D02*
Y702D01*
X7695Y1115D02*
X7748D01*
X7782Y268D02*
X7784Y271D01*
Y315D01*
X7682Y417D02*
X7784Y315D01*
X7682Y417D02*
Y569D01*
X7585Y666D02*
X7682Y569D01*
X7585Y666D02*
Y710D01*
X7157Y285D02*
X7206Y236D01*
X7319D01*
X7368Y187D01*
X7899D01*
X7929Y217D01*
Y1056D01*
X7908Y1077D02*
X7929Y1056D01*
X7823Y1077D02*
X7908D01*
X7876Y1324D02*
X7878Y1326D01*
X7876Y1168D02*
Y1324D01*
X7878Y1326D02*
Y1402D01*
X7860Y1152D02*
X7876Y1168D01*
X7823Y1152D02*
X7860D01*
X7823Y1077D02*
Y1152D01*
X7130Y977D02*
Y1078D01*
X7622Y268D02*
X7782D01*
X7536Y354D02*
X7622Y268D01*
X7351Y354D02*
X7536D01*
X7254Y451D02*
X7351Y354D01*
X7254Y451D02*
Y618D01*
X7199Y673D02*
X7254Y618D01*
X7199Y673D02*
Y908D01*
X7130Y977D02*
X7199Y908D01*
X6651Y985D02*
X6999D01*
X6447Y922D02*
X6528D01*
X6610Y1004D01*
X6985D01*
X7695Y846D02*
Y914D01*
X7694Y845D02*
X7695Y846D01*
X7787Y1933D02*
Y1938D01*
X7608Y1909D02*
X7637Y1938D01*
X7170Y1193D02*
Y1242D01*
X7201Y1273D01*
X7286Y1559D02*
X7310Y1583D01*
X7150Y1270D02*
X7171Y1291D01*
X7150Y1156D02*
Y1270D01*
X7131Y1193D02*
Y1312D01*
X7144Y1325D01*
X7241D01*
X7178Y627D02*
X7197Y608D01*
X7178Y627D02*
Y900D01*
X7111Y967D02*
X7178Y900D01*
X7111Y967D02*
Y1039D01*
X7110Y1157D02*
X7111Y1156D01*
X7110Y1157D02*
Y1295D01*
X7082Y1323D02*
X7110Y1295D01*
X6915Y1323D02*
X7082D01*
X7157Y285D02*
Y891D01*
X7091Y957D02*
Y1078D01*
Y957D02*
X7157Y891D01*
X6661Y1278D02*
Y1389D01*
X6707Y1232D02*
X7037D01*
X6661Y1278D02*
X6707Y1232D01*
X7037D02*
X7051Y1218D01*
X6781Y1309D02*
X6840Y1250D01*
X7051D01*
X7071Y1157D02*
Y1230D01*
X7051Y1250D02*
X7071Y1230D01*
X6985Y1004D02*
X6992Y1011D01*
Y1040D01*
X7012Y1077D02*
X7013Y1078D01*
X7012Y998D02*
Y1077D01*
X6999Y985D02*
X7012Y998D01*
X6880Y966D02*
X7013D01*
X6842Y928D02*
X6880Y966D01*
X6842Y744D02*
Y928D01*
X7032Y985D02*
Y1040D01*
X7013Y966D02*
X7032Y985D01*
X6872Y916D02*
X6903Y947D01*
X7028D01*
X7052Y971D01*
Y1078D01*
X6926Y911D02*
X7029D01*
X7071Y953D01*
Y1041D01*
X6797Y1754D02*
Y1846D01*
X6781Y1309D02*
Y1510D01*
X6797Y1846D02*
X6902Y1951D01*
X7071Y1157D02*
X7071Y1156D01*
X6728Y1562D02*
X6781Y1510D01*
X6728Y1562D02*
Y1685D01*
X6797Y1754D01*
X6924Y913D02*
X6926Y911D01*
X6795Y697D02*
X6842Y744D01*
X6795Y270D02*
Y697D01*
X7013Y1078D02*
Y1083D01*
X7012Y1082D02*
X7013Y1083D01*
X6606Y940D02*
X6651Y985D01*
X6606Y838D02*
Y940D01*
X4635Y1700D02*
X4636Y1701D01*
X4683D01*
X905Y700D02*
X908Y697D01*
Y621D02*
Y697D01*
X4758Y1804D02*
X4814D01*
X4815Y1805D01*
X4635Y549D02*
X4636Y550D01*
X4635Y438D02*
Y549D01*
X5028Y1291D02*
X5038Y1281D01*
X835Y1430D02*
Y1471D01*
X843Y1479D01*
X912D01*
X835Y1345D02*
Y1373D01*
X841Y1379D01*
X912D01*
X835Y1345D02*
X835Y1345D01*
X766Y1345D02*
X835D01*
X766Y1430D02*
X835D01*
X3745Y960D02*
Y1014D01*
X3802Y1071D02*
Y1122D01*
X3745Y1014D02*
X3802Y1071D01*
X3745Y642D02*
X3757Y631D01*
X3745Y642D02*
Y741D01*
X3472Y1036D02*
X3502Y1006D01*
X3627D01*
X3643Y990D01*
Y960D02*
Y990D01*
X3857Y936D02*
X3917D01*
X3833Y960D02*
X3857Y936D01*
X3067Y428D02*
Y476D01*
X3643Y692D02*
Y741D01*
X2599Y1184D02*
Y1248D01*
X2600Y1254D01*
X3797Y960D02*
X3833D01*
X3802Y1189D02*
Y1190D01*
X3412Y1036D02*
X3472D01*
X4627Y891D02*
Y892D01*
X4386Y756D02*
Y758D01*
X4327Y891D02*
Y892D01*
X4536Y756D02*
Y758D01*
X4586Y756D02*
Y758D01*
X4636Y756D02*
Y758D01*
X3730Y1122D02*
X3802D01*
X4386Y758D02*
Y875D01*
X4367Y894D02*
X4386Y875D01*
X4327Y894D02*
X4367D01*
X4327Y894D02*
X4327Y894D01*
X4636Y550D02*
Y576D01*
X4673Y613D01*
X4747D01*
X4747Y613D01*
X4746Y520D02*
Y612D01*
X4747Y613D01*
X5218Y1281D02*
X5220Y1284D01*
X5294D01*
X5297Y1287D01*
X2659Y1184D02*
Y1236D01*
X2686Y1257D01*
X5029Y1349D02*
X5079D01*
X5080Y1348D01*
X2879Y1480D02*
X2936D01*
X2870Y1471D02*
X2879Y1480D01*
X2936Y1460D02*
X3020D01*
X3029Y1469D01*
X7171Y1291D02*
X7256D01*
X7286Y1321D01*
Y1559D01*
X7268Y1273D02*
X7285Y1290D01*
X7608D02*
Y1909D01*
X7285Y1290D02*
X7608D01*
X7201Y1273D02*
X7268D01*
X7608Y1290D02*
X7694Y1204D01*
X7637Y1938D02*
X7787D01*
X7694Y1116D02*
X7695Y1115D01*
X7694Y915D02*
Y1204D01*
X2619Y1716D02*
Y1754D01*
X2593Y1690D02*
X2619Y1716D01*
X2593Y1660D02*
Y1690D01*
X2587Y1654D02*
X2593Y1660D01*
X2639Y1709D02*
Y1754D01*
X2627Y1697D02*
X2639Y1709D01*
X2627Y1656D02*
Y1697D01*
Y1656D02*
X2633Y1650D01*
X-140Y-274D02*
Y-344D01*
X-163Y-274D02*
X-116D01*
X-91Y-298D02*
X-98Y-301D01*
X-105Y-308D01*
X-108Y-318D01*
Y-324D01*
X-105Y-334D01*
X-98Y-341D01*
X-91Y-344D01*
X-81D01*
X-75Y-341D01*
X-68Y-334D01*
X-65Y-324D01*
Y-318D01*
X-68Y-308D01*
X-75Y-301D01*
X-81Y-298D01*
X-91D01*
X-49D02*
Y-368D01*
Y-308D02*
X-43Y-301D01*
X-36Y-298D01*
X-26D01*
X-19Y-301D01*
X-13Y-308D01*
X-9Y-318D01*
Y-324D01*
X-13Y-334D01*
X-19Y-341D01*
X-26Y-344D01*
X-36D01*
X-43Y-341D01*
X-49Y-334D01*
X61Y-274D02*
Y-344D01*
X101D01*
X148Y-298D02*
Y-344D01*
Y-308D02*
X142Y-301D01*
X135Y-298D01*
X125D01*
X118Y-301D01*
X112Y-308D01*
X108Y-318D01*
Y-324D01*
X112Y-334D01*
X118Y-341D01*
X125Y-344D01*
X135D01*
X142Y-341D01*
X148Y-334D01*
X170Y-298D02*
X190Y-344D01*
X210Y-298D02*
X190Y-344D01*
X184Y-358D01*
X177Y-364D01*
X170Y-368D01*
X167D01*
X222Y-318D02*
X262D01*
Y-311D01*
X259Y-304D01*
X255Y-301D01*
X249Y-298D01*
X239D01*
X232Y-301D01*
X225Y-308D01*
X222Y-318D01*
Y-324D01*
X225Y-334D01*
X232Y-341D01*
X239Y-344D01*
X249D01*
X255Y-341D01*
X262Y-334D01*
X277Y-298D02*
Y-344D01*
Y-318D02*
X280Y-308D01*
X287Y-301D01*
X294Y-298D01*
X304D01*
D48*
X208Y585D02*
X378D01*
X415Y548D01*
Y445D02*
Y548D01*
X353Y283D02*
X556D01*
X269Y528D02*
X339Y459D01*
Y297D02*
Y459D01*
Y297D02*
X353Y283D01*
X523Y363D02*
X523Y363D01*
Y433D01*
X511Y445D02*
X523Y433D01*
X415Y445D02*
X511D01*
X556Y283D02*
X560Y288D01*
X665Y285D02*
Y349D01*
X651Y363D02*
X665Y349D01*
X598Y363D02*
X651D01*
X700Y394D02*
Y415D01*
Y394D02*
X729Y365D01*
X665Y285D02*
X665Y285D01*
X729D01*
X269Y647D02*
X323Y701D01*
X521Y621D02*
Y682D01*
X269Y528D02*
X271Y530D01*
X781Y620D02*
X781Y620D01*
X715Y620D02*
X781D01*
X1224Y520D02*
X1310D01*
X920D02*
X996D01*
X4758Y1799D02*
Y1840D01*
X2185Y1966D02*
X2185Y1966D01*
X2185Y1966D02*
Y2020D01*
X2255Y1966D02*
X2255Y1966D01*
X2255Y1966D02*
Y2021D01*
X2325Y1966D02*
X2325Y1966D01*
X2325Y1966D02*
Y2020D01*
X2395Y1966D02*
X2395Y1966D01*
X2395Y1966D02*
Y2020D01*
X2060Y1690D02*
X2114D01*
X739Y946D02*
X740Y945D01*
X739Y946D02*
Y990D01*
X840Y1580D02*
X841Y1579D01*
X912D01*
X905Y1220D02*
X912Y1227D01*
Y1279D01*
X704Y1279D02*
Y1430D01*
X700Y1275D02*
X704Y1279D01*
X3047Y1166D02*
X3112D01*
X1722Y1938D02*
X1779D01*
X1720Y1940D02*
X1722Y1938D01*
X1914Y1591D02*
X1960Y1590D01*
Y1595D01*
X1909Y1378D02*
X1968D01*
X1970Y1380D01*
X1307Y366D02*
X1385Y365D01*
X2116Y1689D02*
X2117D01*
X2116Y1779D02*
X2117D01*
X3922Y1151D02*
X3976D01*
X3977Y1151D01*
X4357Y1181D02*
X4417D01*
X4352Y1181D02*
X4357Y1181D01*
X6243Y881D02*
Y922D01*
X6242Y881D02*
X6243Y881D01*
X1462Y1463D02*
Y1511D01*
X1552Y1346D02*
Y1396D01*
X502Y701D02*
X521Y682D01*
X323Y701D02*
X502D01*
X572D02*
X573Y621D01*
X537Y736D02*
X572Y701D01*
X273Y761D02*
X297Y736D01*
X537D01*
X573Y830D02*
Y915D01*
X572Y916D02*
X573Y915D01*
X2054Y1594D02*
X2113D01*
X3404Y1800D02*
X3404Y1895D01*
X848Y620D02*
X995D01*
X907D02*
X908Y621D01*
X1506Y1970D02*
X1550D01*
X1550Y1970D01*
X1308Y1817D02*
Y1871D01*
Y1817D02*
X1310Y1815D01*
X1465Y1242D02*
Y1295D01*
X1465Y1295D02*
X1465Y1295D01*
X1308Y791D02*
X1384D01*
X1385Y790D01*
X2060Y1780D02*
X2114D01*
X2060Y1780D02*
X2060Y1780D01*
X2060Y1690D02*
X2060Y1690D01*
X2060Y1690D02*
Y1715D01*
X2060Y1520D02*
X2114D01*
X2060Y1520D02*
X2060Y1520D01*
Y1450D02*
X2114D01*
X2060Y1450D02*
X2060Y1450D01*
Y1380D02*
X2114D01*
X2060Y1380D02*
X2060Y1380D01*
Y1310D02*
X2114D01*
X2060Y1310D02*
X2060Y1310D01*
X4872Y1605D02*
X4925D01*
X4925Y1605D01*
X4925Y1665D02*
Y1721D01*
Y1665D02*
X4925Y1665D01*
X4790Y1880D02*
X4923D01*
X4925Y1878D01*
X4758Y1840D02*
X4790Y1872D01*
X3730Y1186D02*
Y1235D01*
X3730Y1235D02*
X3730Y1235D01*
X4425Y440D02*
X4430Y435D01*
X4485D01*
Y265D02*
Y318D01*
Y265D02*
X4516Y234D01*
X3270Y1809D02*
Y1879D01*
X3075D02*
X3076Y1806D01*
X2687Y2020D02*
X2687Y1957D01*
X3770Y1840D02*
Y1899D01*
X3770Y1899D02*
X3770Y1899D01*
X1889Y2009D02*
X1890Y2010D01*
X4556Y1551D02*
X4595D01*
X4556Y1551D02*
X4556Y1551D01*
X4231Y480D02*
X4281D01*
X4281Y480D01*
X5150Y1348D02*
X5218D01*
X5220Y1346D02*
X5264D01*
X5265Y1347D01*
X5372Y1287D02*
Y1329D01*
X5384Y1341D01*
X4255Y956D02*
Y1010D01*
X4255Y1010D02*
X4255Y1010D01*
X4168Y977D02*
Y1022D01*
X1865Y1914D02*
X1889Y1938D01*
Y2009D01*
X1865Y1820D02*
Y1914D01*
X86Y309D02*
Y463D01*
Y309D02*
X211Y184D01*
X908D01*
X909Y185D01*
Y265D01*
X86Y463D02*
X208Y585D01*
D49*
X6580Y1948D02*
X6582Y1946D01*
X6585Y1942D02*
X6697D01*
X6490Y1947D02*
X6581D01*
X6926Y838D02*
Y911D01*
X7696Y838D02*
X7697Y838D01*
X4707Y1968D02*
X4727Y1948D01*
X4680Y1968D02*
X4707D01*
X5496Y1432D02*
X5800D01*
X3458Y1207D02*
X3460Y1205D01*
X3412Y1207D02*
X3458D01*
X5739Y432D02*
X5805D01*
X5716Y409D02*
X5739Y432D01*
X5542D02*
X5608D01*
X5631Y409D01*
X6902Y1951D02*
X6902Y1951D01*
X5800Y1260D02*
X5800Y1260D01*
X5800Y1260D02*
Y1318D01*
X6555Y838D02*
X6606D01*
X1865Y1728D02*
Y1770D01*
X6825Y1646D02*
Y1715D01*
X6878Y1768D01*
X7017D01*
X7434Y1941D02*
X7525D01*
X7410Y1965D02*
X7434Y1941D01*
X7285D02*
X7387D01*
X7410Y1965D01*
X7285Y1686D02*
Y1766D01*
X7245Y1646D02*
X7285Y1686D01*
X7150Y1646D02*
X7245D01*
X7150Y1402D02*
X7150Y1402D01*
X6902Y1951D02*
X7010D01*
X7464Y1723D02*
X7505Y1764D01*
X7523D01*
X7525Y1766D01*
X7464Y1644D02*
Y1723D01*
X1563Y1208D02*
Y1268D01*
X1565Y1270D01*
X1465Y1128D02*
X1595D01*
X1600Y1133D01*
X1463Y1130D02*
X1465Y1128D01*
X1505Y994D02*
Y1040D01*
Y994D02*
X1508Y991D01*
X1374Y1091D02*
X1385Y1080D01*
X1465D02*
Y1128D01*
X1385Y1080D02*
X1465D01*
X1308Y1091D02*
X1374D01*
X1465Y1080D02*
X1505Y1040D01*
X1949Y1644D02*
X2204D01*
X2257Y1591D01*
X2258D01*
X1865Y1728D02*
X1949Y1644D01*
X2460Y468D02*
Y510D01*
X2460Y510D02*
X2460Y510D01*
X2765Y300D02*
X2805D01*
X4683Y1637D02*
Y1701D01*
X5449Y1385D02*
X5496Y1432D01*
X5449Y1271D02*
Y1385D01*
X5419Y1241D02*
X5449Y1271D01*
X5412Y1241D02*
X5419D01*
X5408Y1237D02*
X5412Y1241D01*
X4985Y1237D02*
X5408D01*
X5800Y1432D02*
Y1531D01*
Y1432D02*
X5800Y1432D01*
X5631Y409D02*
X5716D01*
X5457Y432D02*
X5542Y432D01*
X5805Y432D02*
Y541D01*
Y432D02*
X5805Y432D01*
X3652Y572D02*
X3694D01*
X3694Y572D01*
Y689D01*
Y572D02*
X3790D01*
X3800Y562D01*
X6291Y635D02*
X6338D01*
X6339Y636D01*
X4861Y1992D02*
X4862Y1961D01*
X4790Y1992D02*
X4861D01*
X5805Y255D02*
Y318D01*
X5804Y254D02*
X5805Y255D01*
X5805Y730D02*
Y837D01*
X5805Y837D01*
X5800Y1720D02*
Y1825D01*
X5800Y1825D01*
X4180Y1961D02*
X4185Y1966D01*
X4390D02*
X4395Y1961D01*
X4500D01*
X4185Y1966D02*
X4390D01*
X3660Y1960D02*
X3662Y1961D01*
X4180D01*
X4758Y1541D02*
X4758Y1541D01*
X4955Y1267D02*
Y1268D01*
Y1267D02*
X4985Y1237D01*
X4595Y1618D02*
X4664D01*
X4683Y1637D01*
X4665Y1552D02*
X4676Y1541D01*
X4758D01*
X4758Y1541D02*
Y1701D01*
X4770Y2012D02*
X4790Y1992D01*
X4639Y2012D02*
X4770D01*
X4601Y1974D02*
X4639Y2012D01*
X4601Y1832D02*
Y1974D01*
X4567Y1798D02*
X4601Y1832D01*
X4567Y1667D02*
Y1798D01*
X4488Y1588D02*
X4567Y1667D01*
X3921Y1562D02*
X3947Y1588D01*
X4488D01*
X1369Y493D02*
X1418D01*
X1369Y493D02*
X1369Y493D01*
X1356Y572D02*
X1405D01*
X1355Y571D02*
X1356Y572D01*
X6586Y1402D02*
X6648D01*
X6661Y1389D01*
X7784Y1931D02*
X7787Y1933D01*
X7555Y1324D02*
Y1400D01*
D50*
X2467Y1967D02*
Y2017D01*
X2467Y1970D02*
X2467Y1970D01*
Y2017D02*
X2470Y2020D01*
X4487Y688D02*
Y761D01*
X2972Y476D02*
Y541D01*
X3200Y1028D02*
X3235Y1062D01*
Y1063D01*
X3312Y1216D02*
X3360Y1215D01*
X3276Y965D02*
X3336D01*
X3116D02*
X3268D01*
X1309Y265D02*
X1446D01*
X517Y916D02*
X521Y912D01*
Y830D02*
Y912D01*
X1800Y1530D02*
X1809Y1539D01*
X4327Y959D02*
Y1011D01*
X4527Y1139D02*
X4577Y1141D01*
X4222Y245D02*
X4225Y244D01*
X4272D01*
X4087Y281D02*
X4088Y282D01*
Y327D01*
X2882Y631D02*
X2972Y541D01*
X2882Y631D02*
Y911D01*
X2907Y936D01*
X3362Y1036D02*
X3409D01*
X3025Y936D02*
X3087D01*
X3116Y965D01*
X3347Y1021D02*
X3362Y1036D01*
X3347Y976D02*
Y1021D01*
X3336Y965D02*
X3347Y976D01*
X2962Y616D02*
Y681D01*
X3067Y476D02*
X3067Y476D01*
X1809Y1539D02*
X1814Y1591D01*
X1800Y1530D02*
X1800Y1530D01*
X3697Y1831D02*
Y1871D01*
X1800Y1488D02*
Y1530D01*
X1443Y891D02*
X1444D01*
Y791D02*
Y891D01*
X4417Y1071D02*
X4527D01*
X4625D01*
X4527Y959D02*
Y960D01*
Y1071D01*
Y1071D01*
Y1072D01*
X3412Y1039D02*
Y1040D01*
Y1142D01*
X1443Y991D02*
X1444D01*
X1307Y266D02*
X1309D01*
X3900Y1785D02*
Y1896D01*
X4427Y959D02*
Y960D01*
X4486Y756D02*
Y758D01*
X3495Y1570D02*
X3540Y1571D01*
X3570Y1571D02*
Y1576D01*
X3778Y1727D02*
Y1769D01*
X3790Y1781D01*
X3896D01*
X4791Y996D02*
X4794Y1048D01*
X3540Y1571D02*
X3570Y1571D01*
X3666Y1800D02*
X3697Y1831D01*
X1510Y891D02*
Y991D01*
X2907Y936D02*
X2959D01*
X4485Y435D02*
X4485Y435D01*
Y550D01*
X4486Y550D02*
Y552D01*
X2755Y1958D02*
Y2005D01*
X1873Y962D02*
X1928D01*
X1930Y960D01*
X2557Y1967D02*
Y2018D01*
X2555Y2020D02*
X2557Y2018D01*
X3545Y1961D02*
Y2008D01*
X3545Y2008D02*
X3545Y2008D01*
X3404Y1800D02*
X3666D01*
D51*
X6378Y922D02*
X6447D01*
D52*
X-200Y2224D02*
X-100Y2324D01*
X-200Y-21D02*
X-100Y-121D01*
X8180D02*
X8280Y-21D01*
X8180Y2324D02*
X8280Y2224D01*
X8280D01*
Y2074D02*
Y2224D01*
Y-21D02*
Y129D01*
X-100Y-121D02*
X8180D01*
X-100Y2324D02*
X8180D01*
X-200Y-21D02*
Y2224D01*
D53*
X8280Y2074D02*
X8792D01*
X8280Y129D02*
X8792D01*
Y2074D01*
D54*
X-19Y981D02*
D03*
X-19Y1341D02*
D03*
X-19Y495D02*
D03*
Y680D02*
D03*
D55*
X8100Y229D02*
D03*
X0Y2202D02*
D03*
Y0D02*
D03*
D56*
X570Y485D02*
D03*
X660D02*
D03*
X1995Y1920D02*
D03*
X3530Y960D02*
D03*
X3650Y1050D02*
D03*
X3790Y675D02*
D03*
X3100Y1275D02*
D03*
X3020D02*
D03*
X2925Y1200D02*
D03*
X2835Y840D02*
D03*
X2115Y1095D02*
D03*
Y1020D02*
D03*
X3055Y1640D02*
D03*
X3130D02*
D03*
X2910Y1730D02*
D03*
X2115Y945D02*
D03*
X3000Y1725D02*
D03*
X2115Y870D02*
D03*
X3860Y1565D02*
D03*
X4165Y245D02*
D03*
X4695Y760D02*
D03*
X5302Y662D02*
D03*
X7139Y1789D02*
D03*
X6838Y535D02*
D03*
X7728Y1217D02*
D03*
X7623Y1201D02*
D03*
X6910Y1039D02*
D03*
X7450Y1195D02*
D03*
X7490Y1055D02*
D03*
X7550Y1240D02*
D03*
X7540Y1030D02*
D03*
X7500Y1220D02*
D03*
X7385Y1190D02*
D03*
X7585Y710D02*
D03*
X7877Y1325D02*
D03*
X8085Y1894D02*
D03*
X7695Y914D02*
D03*
X7306Y916D02*
D03*
X7397Y678D02*
D03*
X7235Y913D02*
D03*
X7312Y734D02*
D03*
X6585Y1326D02*
D03*
X6495D02*
D03*
X7241Y1325D02*
D03*
X700Y415D02*
D03*
X625Y720D02*
D03*
X920Y520D02*
D03*
X4025Y1855D02*
D03*
X4240D02*
D03*
X4450D02*
D03*
X6040Y1865D02*
D03*
X5505Y1855D02*
D03*
X6100Y1825D02*
D03*
X6040Y1795D02*
D03*
X6050Y865D02*
D03*
Y805D02*
D03*
X5500Y910D02*
D03*
Y805D02*
D03*
X4635Y1700D02*
D03*
X800Y1045D02*
D03*
X905Y700D02*
D03*
X4385Y835D02*
D03*
X4105Y620D02*
D03*
X835Y1870D02*
D03*
X4170Y865D02*
D03*
X4745Y575D02*
D03*
X5535Y235D02*
D03*
X1735Y1000D02*
D03*
X3610Y1970D02*
D03*
X4815Y1805D02*
D03*
X5105Y800D02*
D03*
X5350Y825D02*
D03*
X2825Y1833D02*
D03*
X2470Y2020D02*
D03*
X5630Y993D02*
D03*
X4843Y1448D02*
D03*
X4793Y1485D02*
D03*
X2836Y1310D02*
D03*
X3000Y1620D02*
D03*
X3921Y1562D02*
D03*
X4389Y245D02*
D03*
X2856Y441D02*
D03*
X4019Y492D02*
D03*
X2697Y250D02*
D03*
X5303Y238D02*
D03*
X5334Y1425D02*
D03*
X4796Y855D02*
D03*
X3244Y1550D02*
D03*
X4779Y739D02*
D03*
X5386Y426D02*
D03*
X5385Y544D02*
D03*
X3193Y1529D02*
D03*
X4556Y1551D02*
D03*
X4436Y1495D02*
D03*
X4639Y1799D02*
D03*
X5029Y1349D02*
D03*
X5036Y1570D02*
D03*
X5269Y1767D02*
D03*
X4955Y1268D02*
D03*
X4758Y1541D02*
D03*
X2870Y1471D02*
D03*
X3029Y1469D02*
D03*
X2027Y2018D02*
D03*
X1447Y1908D02*
D03*
X1402Y1870D02*
D03*
X3545Y2008D02*
D03*
X2555Y2020D02*
D03*
X5264Y307D02*
D03*
X5800Y1825D02*
D03*
X6010Y1590D02*
D03*
X6015Y595D02*
D03*
Y673D02*
D03*
X4982Y1029D02*
D03*
X5931Y995D02*
D03*
X5829Y994D02*
D03*
X5805Y837D02*
D03*
X5383Y714D02*
D03*
X5384Y993D02*
D03*
X5875Y441D02*
D03*
X5804Y254D02*
D03*
X4862Y1961D02*
D03*
X6129Y1459D02*
D03*
X6339Y636D02*
D03*
X6181Y750D02*
D03*
X6182Y519D02*
D03*
X2802Y1113D02*
D03*
X1930Y960D02*
D03*
X1730Y1378D02*
D03*
X2325Y2020D02*
D03*
X2687D02*
D03*
X3135Y1960D02*
D03*
X4516Y234D02*
D03*
X4425Y440D02*
D03*
X4635Y630D02*
D03*
X4535D02*
D03*
X3694Y689D02*
D03*
X3660Y1244D02*
D03*
X3520Y1075D02*
D03*
X4727Y1948D02*
D03*
X5457Y432D02*
D03*
X4925Y1665D02*
D03*
Y1605D02*
D03*
X4720Y1855D02*
D03*
X5122Y1571D02*
D03*
X4094Y458D02*
D03*
X2805Y300D02*
D03*
X2460Y510D02*
D03*
X2258Y1591D02*
D03*
X1975Y1750D02*
D03*
X1390Y1155D02*
D03*
Y1215D02*
D03*
X1205Y1305D02*
D03*
X1275Y1215D02*
D03*
Y1155D02*
D03*
X1310Y520D02*
D03*
X1385Y365D02*
D03*
Y790D02*
D03*
X1387Y991D02*
D03*
X1565Y1270D02*
D03*
X1465Y1295D02*
D03*
X1462Y1346D02*
D03*
X1310Y1815D02*
D03*
X1550Y1970D02*
D03*
X5925Y1975D02*
D03*
X5255Y1531D02*
D03*
X5955Y620D02*
D03*
X5855D02*
D03*
X5755D02*
D03*
X5655D02*
D03*
X5955Y805D02*
D03*
X5855Y805D02*
D03*
X5755Y805D02*
D03*
X5655D02*
D03*
X715Y620D02*
D03*
X810Y755D02*
D03*
X700D02*
D03*
X905Y1220D02*
D03*
X3330Y1960D02*
D03*
X3270Y1809D02*
D03*
X3076Y1806D02*
D03*
X7373Y1326D02*
D03*
X500Y1979D02*
D03*
X7300Y200D02*
D03*
X7490Y408D02*
D03*
X7197Y606D02*
D03*
X6079Y1313D02*
D03*
X7150Y1529D02*
D03*
X7555Y1324D02*
D03*
X7787Y1533D02*
D03*
X6951Y1660D02*
D03*
X6661Y1389D02*
D03*
X6087Y1221D02*
D03*
X6167Y1272D02*
D03*
X4077Y801D02*
D03*
X7016Y710D02*
D03*
X6572Y596D02*
D03*
X6648Y1646D02*
D03*
X4692Y1140D02*
D03*
X4772Y941D02*
D03*
X7059Y1478D02*
D03*
X7787Y679D02*
D03*
X4342Y1076D02*
D03*
X3860Y1123D02*
D03*
X3977Y1221D02*
D03*
X3195Y1808D02*
D03*
X2987Y1826D02*
D03*
X3857Y936D02*
D03*
X3307Y816D02*
D03*
X5555Y1817D02*
D03*
X6010Y1660D02*
D03*
X6087Y1021D02*
D03*
X6167Y1071D02*
D03*
X6087Y1121D02*
D03*
X6167Y1172D02*
D03*
X665Y285D02*
D03*
X835Y1345D02*
D03*
X442Y936D02*
D03*
X3660Y2015D02*
D03*
X3475Y2020D02*
D03*
X1938Y1488D02*
D03*
X1443Y726D02*
D03*
X1566Y990D02*
D03*
X1575Y575D02*
D03*
X1387Y265D02*
D03*
X1645Y1345D02*
D03*
X6600Y412D02*
D03*
X7112Y356D02*
D03*
X6795Y270D02*
D03*
X6912Y281D02*
D03*
X7205Y236D02*
D03*
X7490Y269D02*
D03*
X7887Y271D02*
D03*
X7410Y1965D02*
D03*
X7882Y1931D02*
D03*
X6902Y1951D02*
D03*
X6582Y1946D02*
D03*
X6405Y1485D02*
D03*
X6734Y1478D02*
D03*
X7697D02*
D03*
X7877Y760D02*
D03*
X7487Y759D02*
D03*
X6552Y841D02*
D03*
X7108Y759D02*
D03*
X6787D02*
D03*
X4627Y1011D02*
D03*
X4427D02*
D03*
X4327D02*
D03*
X4577Y1141D02*
D03*
X4222Y245D02*
D03*
X4087Y281D02*
D03*
X3757Y631D02*
D03*
X3797Y811D02*
D03*
Y891D02*
D03*
X3632D02*
D03*
Y811D02*
D03*
X3905Y410D02*
D03*
X3852Y251D02*
D03*
X3752D02*
D03*
X3652D02*
D03*
X3552D02*
D03*
X3457D02*
D03*
X3905Y535D02*
D03*
X3162Y256D02*
D03*
X3072D02*
D03*
X2972Y476D02*
D03*
X3157D02*
D03*
X2972Y256D02*
D03*
X2962Y616D02*
D03*
X3067Y476D02*
D03*
X2686Y1257D02*
D03*
X2442Y1461D02*
D03*
X2437Y1406D02*
D03*
X2633Y1650D02*
D03*
X2587Y1654D02*
D03*
X8602Y731D02*
D03*
Y861D02*
D03*
Y991D02*
D03*
X8600Y1199D02*
D03*
X8605Y1329D02*
D03*
Y1459D02*
D03*
X2060Y1780D02*
D03*
X1720Y1940D02*
D03*
X1960Y1590D02*
D03*
X2060Y1715D02*
D03*
Y1520D02*
D03*
Y1380D02*
D03*
Y1310D02*
D03*
X1970Y1380D02*
D03*
X3900Y1666D02*
D03*
X4500Y1665D02*
D03*
X4395D02*
D03*
X4290Y1670D02*
D03*
X4185D02*
D03*
X4080Y1665D02*
D03*
X3975D02*
D03*
X3495Y1570D02*
D03*
X3770Y1840D02*
D03*
X2060Y1594D02*
D03*
X6517Y1171D02*
D03*
X6377Y1221D02*
D03*
Y1121D02*
D03*
Y1021D02*
D03*
X6378Y922D02*
D03*
X6517Y1271D02*
D03*
X6926Y911D02*
D03*
X7682Y1902D02*
D03*
X3977Y1151D02*
D03*
X4352Y1181D02*
D03*
X6242Y881D02*
D03*
X4025Y1910D02*
D03*
X4135D02*
D03*
X4240D02*
D03*
X4345D02*
D03*
X4450D02*
D03*
X4555D02*
D03*
X2255Y1852D02*
D03*
X2436Y1571D02*
D03*
X2257Y1721D02*
D03*
Y1786D02*
D03*
X2432Y1701D02*
D03*
X2632Y1051D02*
D03*
X1462Y1511D02*
D03*
X1552Y1346D02*
D03*
X665Y225D02*
D03*
X625Y535D02*
D03*
X572Y916D02*
D03*
X4717Y836D02*
D03*
X4791Y996D02*
D03*
X2638Y1834D02*
D03*
X2606Y1893D02*
D03*
X2562Y1846D02*
D03*
X2755Y2005D02*
D03*
X2395Y2020D02*
D03*
X2825Y2005D02*
D03*
X2553Y1688D02*
D03*
X1965Y1815D02*
D03*
X3115Y1530D02*
D03*
X2822Y1256D02*
D03*
X1640Y1515D02*
D03*
X4030Y940D02*
D03*
X2060Y1260D02*
D03*
X2522Y1541D02*
D03*
X1890Y2010D02*
D03*
X3404Y1800D02*
D03*
X1767Y791D02*
D03*
X2474Y1631D02*
D03*
X2500Y1590D02*
D03*
X2060Y1450D02*
D03*
X637Y916D02*
D03*
X835Y1430D02*
D03*
X700Y1275D02*
D03*
X3460Y1205D02*
D03*
X3730Y1235D02*
D03*
X795Y1215D02*
D03*
X517Y916D02*
D03*
X382Y901D02*
D03*
X787Y416D02*
D03*
X2965Y1152D02*
D03*
X3360Y1215D02*
D03*
X3047Y1166D02*
D03*
X3361Y1151D02*
D03*
X3116Y965D02*
D03*
X3004Y1199D02*
D03*
X4536Y836D02*
D03*
X4607Y836D02*
D03*
X3900Y1841D02*
D03*
X825Y225D02*
D03*
X3200Y1028D02*
D03*
X7464Y1546D02*
D03*
X1517Y336D02*
D03*
X2600Y1254D02*
D03*
X2535Y1255D02*
D03*
X3800Y390D02*
D03*
X5625Y1985D02*
D03*
X5750Y1795D02*
D03*
X5850D02*
D03*
X5950D02*
D03*
X5750Y1605D02*
D03*
X5650D02*
D03*
X5850D02*
D03*
X5950D02*
D03*
X5650Y1795D02*
D03*
X6361Y1275D02*
D03*
X6485Y1804D02*
D03*
X6587Y1793D02*
D03*
X1015Y1300D02*
D03*
X840Y1580D02*
D03*
X740Y945D02*
D03*
X940Y1160D02*
D03*
X700D02*
D03*
X830Y890D02*
D03*
X1015Y1065D02*
D03*
X5060Y745D02*
D03*
X4885Y727D02*
D03*
X4934Y346D02*
D03*
X4993Y344D02*
D03*
X5106Y404D02*
D03*
X4819Y402D02*
D03*
X4770Y270D02*
D03*
X5152D02*
D03*
X5235Y667D02*
D03*
X5028Y1291D02*
D03*
X4918Y1007D02*
D03*
X5630Y235D02*
D03*
X5800Y1260D02*
D03*
X5875Y1410D02*
D03*
X5590Y1585D02*
D03*
X5400Y1625D02*
D03*
X5150Y1958D02*
D03*
X5206Y1910D02*
D03*
X5825Y1985D02*
D03*
X5088Y1960D02*
D03*
X5725Y1992D02*
D03*
X5680Y455D02*
D03*
X4611Y273D02*
D03*
X5597Y671D02*
D03*
X5708Y834D02*
D03*
X5584Y875D02*
D03*
X5025Y1062D02*
D03*
X5840D02*
D03*
X5343Y955D02*
D03*
X6220Y1979D02*
D03*
X2109Y1195D02*
D03*
X2275Y1231D02*
D03*
X2334D02*
D03*
X1973Y1210D02*
D03*
Y1279D02*
D03*
X2222Y1380D02*
D03*
X6084Y257D02*
D03*
X5105Y545D02*
D03*
X5227Y272D02*
D03*
X4281Y480D02*
D03*
X5537Y329D02*
D03*
X6271Y1759D02*
D03*
Y1361D02*
D03*
X5860Y1251D02*
D03*
X5449Y1385D02*
D03*
X4749Y412D02*
D03*
X4635Y438D02*
D03*
X4487Y688D02*
D03*
X4560Y437D02*
D03*
X5731Y275D02*
D03*
X5288Y1027D02*
D03*
X5497D02*
D03*
X5472Y324D02*
D03*
X5345Y1897D02*
D03*
X6270D02*
D03*
X6366Y1846D02*
D03*
X6166Y921D02*
D03*
X6194Y1846D02*
D03*
X1814Y1713D02*
D03*
X2185Y1852D02*
D03*
Y2020D02*
D03*
X2255Y2021D02*
D03*
X2777Y1633D02*
D03*
X2522Y1472D02*
D03*
X4969Y1976D02*
D03*
X4926Y1941D02*
D03*
X2595Y1505D02*
D03*
X5346Y1795D02*
D03*
X2185Y784D02*
D03*
X2575Y1421D02*
D03*
X2800Y1419D02*
D03*
X7417Y1808D02*
D03*
X7310Y1583D02*
D03*
X6146Y1676D02*
D03*
X6370D02*
D03*
X1894Y198D02*
D03*
X6215Y250D02*
D03*
X1942Y220D02*
D03*
X6164Y268D02*
D03*
X4288Y758D02*
D03*
X5265Y1347D02*
D03*
X5384Y1341D02*
D03*
X4255Y1010D02*
D03*
X4168Y1022D02*
D03*
X5268Y586D02*
D03*
X5271Y828D02*
D03*
X4885Y588D02*
D03*
X4953Y585D02*
D03*
X4950Y672D02*
D03*
X4949Y831D02*
D03*
X5025Y1755D02*
D03*
X5185Y1598D02*
D03*
X5118Y1633D02*
D03*
X5055D02*
D03*
X5050Y514D02*
D03*
X4856Y498D02*
D03*
X6295Y1980D02*
D03*
X2737Y1256D02*
D03*
X2823Y370D02*
D03*
X2219Y1231D02*
D03*
X2604Y568D02*
D03*
X2748Y1327D02*
D03*
X2150Y406D02*
D03*
X1650Y635D02*
D03*
X1369Y493D02*
D03*
X1355Y571D02*
D03*
X2696Y568D02*
D03*
X2390Y531D02*
D03*
X7589Y225D02*
D03*
X6275Y250D02*
D03*
X6861Y405D02*
D03*
X6915Y1323D02*
D03*
X7506Y986D02*
D03*
X3412Y916D02*
D03*
X2749Y1695D02*
D03*
X2663Y1687D02*
D03*
X2700Y906D02*
D03*
X1959Y1126D02*
D03*
X2493Y1069D02*
D03*
X2284Y1387D02*
D03*
X2490Y1394D02*
D03*
X2535Y1376D02*
D03*
X2584Y1356D02*
D03*
D57*
X8560Y537D02*
D03*
Y1666D02*
D03*
X-19Y1763D02*
D03*
D58*
X8106Y452D02*
D03*
Y570D02*
D03*
Y688D02*
D03*
Y806D02*
D03*
Y924D02*
D03*
Y1042D02*
D03*
Y1160D02*
D03*
Y1278D02*
D03*
Y1396D02*
D03*
Y1515D02*
D03*
Y1633D02*
D03*
Y1751D02*
D03*
X8224Y452D02*
D03*
Y570D02*
D03*
Y688D02*
D03*
Y806D02*
D03*
Y924D02*
D03*
Y1042D02*
D03*
Y1160D02*
D03*
Y1278D02*
D03*
Y1396D02*
D03*
Y1515D02*
D03*
Y1633D02*
D03*
X151Y1375D02*
D03*
Y1493D02*
D03*
Y1611D02*
D03*
Y1729D02*
D03*
Y1847D02*
D03*
X269Y1257D02*
D03*
X269Y1373D02*
D03*
X269Y1847D02*
D03*
X269Y1729D02*
D03*
Y1611D02*
D03*
Y1493D02*
D03*
X151Y646D02*
D03*
Y765D02*
D03*
X151Y528D02*
D03*
X269Y528D02*
D03*
Y646D02*
D03*
Y765D02*
D03*
X269Y410D02*
D03*
X2100Y700D02*
D03*
X2200D02*
D03*
X2300D02*
D03*
X2400D02*
D03*
X2500D02*
D03*
X2600D02*
D03*
X2700D02*
D03*
D59*
X8224Y1751D02*
D03*
X151Y1257D02*
D03*
X151Y410D02*
D03*
D60*
X2000Y700D02*
D03*
D61*
X6165Y970D02*
D03*
M02*
