M48
;Layer_Color=9474304
;FILE_FORMAT=2:3
INCH,LZ
;TYPE=PLATED
T1F00S00C0.016
T2F00S00C0.018
T3F00S00C0.020
T4F00S00C0.039
;TYPE=NON_PLATED
T5F00S00C0.118
T6F00S00C0.128
%
T01
X04165Y00245
X0066Y00485
X0057
X02115Y0087
Y00945
Y0102
Y01095
X02925Y012
X0302Y01275
X031
X0313Y0164
X03055
X03Y01725
X0291Y0173
X02835Y0084
X0353Y0096
X0365Y0105
X0379Y00675
X0386Y01565
X04695Y0076
X01995Y0192
T02
X073Y002
X07589Y00225
X07205Y00236
X0563Y00235
X05535
X05303Y00238
X04516Y00234
X04389Y00245
X04222
X01942Y0022
X01894Y00198
X00825Y00225
X00665
Y00285
X007Y00415
X00787Y00416
X0092Y0052
X00905Y007
X0081Y00755
X007
X00625Y0072
Y00535
X00715Y0062
X0074Y00945
X00637Y00916
X00572
X00517
X00442Y00936
X00382Y00901
X0083Y0089
X008Y01045
X00795Y01215
X00905Y0122
X0094Y0116
X007
Y01275
X00835Y01345
Y0143
X0084Y0158
X01015Y013
X01205Y01305
X01275Y01215
Y01155
X0139
Y01215
X01465Y01295
X01462Y01346
X01552
X01565Y0127
X01645Y01345
X0173Y01378
X0164Y01515
X01462Y01511
X01938Y01488
X0196Y0159
X0206Y01594
Y0152
Y0145
Y0138
Y0131
Y0126
X01973Y01279
Y0121
X01959Y01126
X0193Y0096
X01735Y01
X01566Y0099
X01387Y00991
X01385Y0079
X01443Y00726
X01355Y00571
X01369Y00493
X0131Y0052
X01385Y00365
X01387Y00265
X01517Y00336
X01575Y00575
X0165Y00635
X01767Y00791
X02185Y00784
X0215Y00406
X0239Y00531
X0246Y0051
X02493Y01069
X02334Y01231
X02275
X02219
X02109Y01195
X02222Y0138
X02284Y01387
X02437Y01406
X02442Y01461
X0249Y01394
X025Y0159
X02474Y01631
X02436Y01571
X02432Y01701
X02257Y01721
Y01786
X02258Y01591
X0206Y01715
Y0178
X01975Y0175
X01814Y01713
X0197Y0138
X01015Y01065
X02632Y01051
X027Y00906
X02802Y01113
X02822Y01256
X02836Y0131
X02748Y01327
X02737Y01256
X02686Y01257
X026Y01254
X02535Y01255
Y01376
X02584Y01356
X02575Y01421
X02522Y01472
Y01541
X02595Y01505
X02587Y01654
X02633Y0165
X02663Y01687
X02749Y01695
X02777Y01633
X03Y0162
X03029Y01469
X03115Y0153
X03193Y01529
X03244Y0155
X03495Y0157
X03404Y018
X0327Y01809
X03195Y01808
X03076Y01806
X0287Y01471
X028Y01419
X03004Y01199
X03047Y01166
X02965Y01152
X03116Y00965
X032Y01028
X03361Y01151
X0336Y01215
X0346Y01205
X0352Y01075
X03412Y00916
X03307Y00816
X03632Y00811
Y00891
X03797
Y00811
X03857Y00936
X0403Y0094
X04077Y00801
X04019Y00492
X03905Y00535
Y0041
X038Y0039
X03752Y00251
X03852
X03652
X03552
X03457
X03162Y00256
X03072
X02972
X02805Y003
X02823Y0037
X02856Y00441
X02972Y00476
X03067Y00476
X03157Y00476
X02962Y00616
X02696Y00568
X02604
X02697Y0025
X03694Y00689
X03757Y00631
X0386Y01123
X03977Y01151
Y01221
X0373Y01235
X0366Y01244
X03921Y01562
X039Y01666
X03975Y01665
X0408
X02553Y01688
X04185Y0167
X0429
X04395Y01665
X045
X04635Y017
X04639Y01799
X04815Y01805
X04925Y01665
Y01605
X05036Y0157
X05055Y01633
X05118
X05122Y01571
X05185Y01598
X05255Y01531
X05334Y01425
X05384Y01341
X05449Y01385
X05265Y01347
X05029Y01349
X05028Y01291
X04955Y01268
X04982Y01029
X05025Y01062
X04918Y01007
X04791Y00996
X04772Y00941
X04796Y00855
X04717Y00836
X04607Y00836
X04536Y00836
X04385Y00835
X04288Y00758
X0417Y00865
X04168Y01022
X04255Y0101
X04327Y01011
X04342Y01076
X04352Y01181
X04427Y01011
X04627
X04577Y01141
X04692Y0114
X04793Y01485
X04843Y01448
X04758Y01541
X04556Y01551
X04436Y01495
X05025Y01755
X05269Y01767
X05346Y01795
X054Y01625
X0559Y01585
X0563Y00993
X05584Y00875
X055Y0091
Y00805
X0535Y00825
X05271Y00828
X05105Y008
X0506Y00745
X0495Y00672
X04953Y00585
X04885Y00588
X04856Y00498
X04819Y00402
X04749Y00412
X04635Y00438
X0456Y00437
X04425Y0044
X04281Y0048
X04094Y00458
X04105Y0062
X04087Y00281
X04611Y00273
X0477Y0027
X04934Y00346
X04993Y00344
X05106Y00404
X05105Y00545
X0505Y00514
X05268Y00586
X05302Y00662
X05235Y00667
X05383Y00714
X05385Y00544
X05386Y00426
X05457Y00432
X05472Y00324
X05537Y00329
X05264Y00307
X05227Y00272
X05152Y0027
X04745Y00575
X04635Y0063
X04535
X04487Y00688
X04779Y00739
X04885Y00727
X04949Y00831
X05343Y00955
X05384Y00993
X05288Y01027
X05497
X05597Y00671
X05655Y0062
X05755
X05855
X05955
X06015Y00595
Y00673
X0605Y00805
Y00865
X05955Y00805
X05855Y00805
X05805Y00837
X05755Y00805
X05708Y00834
X05655Y00805
X05829Y00994
X0584Y01062
X05931Y00995
X06087Y01021
Y01121
Y01221
X06079Y01313
X06167Y01272
Y01172
Y01071
X06166Y00921
X06242Y00881
X06378Y00922
X06377Y01021
Y01121
Y01221
X06361Y01275
X06517Y01271
X06495Y01326
X06585
X06661Y01389
X06734Y01478
X06648Y01646
X06587Y01793
X06485Y01804
X0637Y01676
X06271Y01759
X06146Y01676
X0601Y0166
Y0159
X0595Y01605
X0585
X0575
X0565
Y01795
X0575
X0585
X0595
X0604
X06129Y01459
X06271Y01361
X06405Y01485
X06517Y01171
X06552Y00841
X06572Y00596
X066Y00412
X06861Y00405
X06838Y00535
X06787Y00759
X07016Y0071
X07108Y00759
X07197Y00606
X07112Y00356
X06912Y00281
X06795Y0027
X06275Y0025
X06215
X06164Y00268
X06084Y00257
X05804Y00254
X05731Y00275
X0568Y00455
X05875Y00441
X06182Y00519
X06181Y0075
X06339Y00636
X06926Y00911
X0691Y01039
X06915Y01323
X07059Y01478
X0715Y01529
X07139Y01789
X06951Y0166
X05875Y0141
X0586Y01251
X058Y0126
X07241Y01325
X07373Y01326
X07385Y0119
X0745Y01195
X075Y0122
X0755Y0124
X07555Y01324
X07623Y01201
X07728Y01217
X07877Y01325
X07787Y01533
X07697Y01478
X07464Y01546
X0731Y01583
X07417Y01808
X0749Y01055
X0754Y0103
X07506Y00986
X07487Y00759
X07585Y0071
X07397Y00678
X07312Y00734
X07306Y00916
X07235Y00913
X07695Y00914
X07787Y00679
X07877Y0076
X07887Y00271
X0749Y00269
X0749Y00408
X08602Y00731
Y00861
Y00991
X086Y01199
X08605Y01329
Y01459
X08085Y01894
X07882Y01931
X07682Y01902
X0741Y01965
X06902Y01951
X06582Y01946
X06366Y01846
X0627Y01897
X06295Y0198
X0622Y01979
X06194Y01846
X061Y01825
X0604Y01865
X05925Y01975
X05825Y01985
X05725Y01992
X058Y01825
X05555Y01817
X05505Y01855
X05345Y01897
X05206Y0191
X0515Y01958
X05088Y0196
X04969Y01976
X04926Y01941
X04862Y01961
X04727Y01948
X0472Y01855
X04555Y0191
X0445
Y01855
X04345Y0191
X0424
Y01855
X04135Y0191
X05625Y01985
X04025Y0191
Y01855
X039Y01841
X0377Y0184
X0366Y02015
X0361Y0197
X03545Y02008
X03475Y0202
X0333Y0196
X03135
X02987Y01826
X02825Y01833
Y02005
X02755Y02005
X02687Y0202
X02555
X02606Y01893
X02638Y01834
X02562Y01846
X0247Y0202
X02395
X02325
X02255Y02021
X02185Y0202
X02027Y02018
X0189Y0201
X0172Y0194
X0155Y0197
X01447Y01908
X01402Y0187
X0131Y01815
X01965
X02185Y01852
X02255
X00835Y0187
X005Y01979
T03
X02383Y00919
X02496Y00976
X02533Y00905
X06165Y0097
X02745Y01826
T04
X00151Y0041
X00151Y00528
X00151Y00646
X00269
Y00528
X00269Y0041
X00269Y00765
X00151Y00765
Y01257
X00151Y01375
Y01493
Y01611
Y01729
X00269
Y01611
Y01493
Y01373
X00269Y01257
X02Y007
X021
X022
X023
X024
X025
X026
X027
X08106Y00688
Y00806
Y00924
X08224
Y00806
Y00688
Y0057
X08106
Y00452
X08224
Y01042
X08106
Y0116
X08224
Y01278
X08106
Y01396
Y01515
X08224
Y01396
Y01633
X08106
Y01751
X08224
X00269Y01847
X00151Y01847
T05
X-00019Y00495
Y0068
X-00019Y00981
X-00019Y01341
Y01763
X0856Y01666
Y00537
T06
X081Y00229
X0Y0
Y02202
M30
