G04 CAM350 V9.5.2 (Build 226) Date:  Wed Nov 19 13:46:35 2008 *
G04 Database: (Untitled) *
G04 Layer 6: 09-000040-00L5_ *
%FSLAX35Y35*%
%MOIN*%
%SFA1.000B1.000*%

%MIA0B0*%
%IPPOS*%
%ADD10C,0.01575*%
%ADD11C,0.00984*%
%ADD12C,0.01969*%
%ADD13C,0.00787*%
%ADD14C,0.00394*%
%ADD16C,0.01181*%
%ADD70C,0.01181*%
%ADD26C,0.06000*%
%ADD72C,0.01575*%
%ADD36C,0.03937*%
%ADD42C,0.00500*%
%ADD44C,0.02756*%
%ADD46C,0.02480*%
%ADD50C,0.02165*%
%ADD52C,0.02500*%
%ADD53C,0.02382*%
%ADD63C,0.00400*%
%ADD67C,0.06299*%
%ADD68C,0.19685*%
%LN09-000040-00L5_*%
%LPD*%
G54D26*
X1065748Y1169291D03*
X1055748D03*
X1065748Y1179291D03*
X1055748D03*
X1065748Y1189291D03*
X1055748D03*
X1065748Y1199291D03*
X1055748D03*
X1065748Y1209291D03*
X1055748D03*
X1065748Y1219291D03*
X1055748D03*
X1065748Y1229291D03*
X1055748D03*
X1065748Y1239291D03*
X1055748D03*
X1065748Y1249291D03*
X1055748D03*
X1065748Y1259291D03*
X1055748D03*
X1007874Y1220472D03*
X1017874D03*
X1007874Y1210472D03*
X1017874D03*
X1007874Y1200472D03*
X1017874D03*
X1007874Y1190472D03*
X1017874D03*
X1007874Y1180472D03*
X1017874D03*
X1007874Y1170472D03*
X1017874D03*
G54D36*
X1017323Y1248425D03*
X1316142Y1033071D03*
X1256500Y1064500D03*
X1292717Y1047244D03*
X1268898D03*
X1037000Y1074500D03*
X1265748Y1083268D03*
X1273425Y1079331D03*
X1276378Y1084252D03*
X1307283Y1084646D03*
Y1079331D03*
X1097638Y1128346D03*
X1274016Y1138189D03*
Y1132677D03*
X1306693Y1138189D03*
Y1132677D03*
X1267717Y1135433D03*
X1321850Y1125787D03*
X1037008Y1191732D03*
X1289370Y1185000D03*
Y1178500D03*
X1037008Y1233661D03*
G54D46*
X1047500Y1024000D03*
X1086100Y1030900D03*
X1103800Y1031000D03*
X1086600Y1025400D03*
X1141732Y1020276D03*
X1129134D03*
X1135433D03*
X1187200Y1009600D03*
X1154331Y1020276D03*
X1148031D03*
X1181300Y1023000D03*
X1183500Y1011600D03*
X1224300Y1028300D03*
X1202500Y1007700D03*
X1204300Y1010600D03*
X1216400Y1027300D03*
X1220600Y1023500D03*
X1206200Y1017800D03*
Y1029800D03*
X1203300Y1013600D03*
X1197200Y1012000D03*
X1200200Y1009800D03*
X1230400Y1007700D03*
X1227500Y1016600D03*
X1231000Y1022500D03*
X1230500Y1011700D03*
X1242200Y1021100D03*
X1011811Y1035101D03*
X1018110D03*
X1004800Y1057500D03*
X1024409Y1035101D03*
X1062000Y1037300D03*
X1030709Y1035101D03*
X1039600Y1057500D03*
X1063386Y1066142D03*
X1060500Y1061800D03*
X1040748Y1038189D03*
X1056400Y1033000D03*
X1049016Y1069094D03*
X1056500Y1060100D03*
X1059100Y1065900D03*
X1070900Y1034900D03*
X1106700Y1050700D03*
X1083858Y1059055D03*
X1101000Y1050300D03*
X1104700Y1045500D03*
X1092600Y1034200D03*
X1077000Y1036400D03*
X1104800Y1058500D03*
X1140700Y1046500D03*
X1109300Y1033100D03*
X1108900Y1058300D03*
X1123600Y1036600D03*
X1115400Y1032600D03*
X1146600Y1050200D03*
X1123600Y1049300D03*
X1170500Y1049800D03*
X1187100Y1058300D03*
X1179600Y1046200D03*
X1176700Y1054900D03*
X1180300Y1052000D03*
X1153900Y1040500D03*
X1172800Y1063600D03*
X1159000Y1067000D03*
X1161800Y1037400D03*
X1180709Y1035827D03*
X1158700Y1045700D03*
X1174200Y1044900D03*
X1150900Y1046100D03*
X1156400Y1070100D03*
X1186700Y1068400D03*
X1215400Y1042800D03*
X1217100Y1048000D03*
X1205000Y1052100D03*
X1206700Y1060800D03*
X1202900Y1063200D03*
X1207100Y1068900D03*
X1213000Y1053400D03*
X1197638Y1032677D03*
X1200000Y1037100D03*
X1198600Y1045900D03*
X1199800Y1054900D03*
X1226000Y1041000D03*
X1227400Y1035100D03*
X1227800Y1047200D03*
X1231700Y1055700D03*
X1244500Y1058400D03*
X1232000Y1041000D03*
X1266339Y1058465D03*
X1299000Y1070000D03*
Y1055000D03*
X1289173Y1058858D03*
X1274600Y1054700D03*
X1316000Y1058500D03*
X1324213Y1062008D03*
X1005000Y1077500D03*
X1039500Y1101100D03*
X1035700Y1089800D03*
X1041000D03*
X1048228Y1102953D03*
X1052756Y1091339D03*
X1058268D03*
X1066900Y1074900D03*
X1036900Y1082600D03*
X1044443Y1078961D03*
X1061600Y1072600D03*
X1060900Y1109500D03*
X1102100Y1074700D03*
X1083200Y1086000D03*
X1072441Y1093701D03*
X1106800Y1102000D03*
X1088780Y1098228D03*
X1092126Y1098425D03*
X1069800Y1082800D03*
X1071457Y1108858D03*
X1073819Y1072441D03*
X1081102Y1073819D03*
X1093100Y1075700D03*
X1101300Y1094900D03*
X1083900Y1098600D03*
X1106000Y1097900D03*
X1097300Y1083400D03*
X1137800Y1099300D03*
X1125000Y1077700D03*
X1134000Y1103700D03*
X1133700Y1098400D03*
X1118898Y1098425D03*
X1141900Y1100600D03*
X1125000Y1094300D03*
X1113000Y1083900D03*
X1118600Y1079800D03*
X1108100Y1079100D03*
X1144000Y1094400D03*
X1111200Y1097900D03*
X1152500Y1095000D03*
X1186600Y1075100D03*
X1171000Y1084800D03*
X1156800Y1090700D03*
X1154500Y1082400D03*
X1147700Y1077800D03*
X1173200Y1075100D03*
X1164567Y1079528D03*
X1148100Y1094900D03*
X1156299Y1111033D03*
X1185827Y1106299D03*
X1168700Y1108500D03*
X1173300Y1096700D03*
X1156800Y1106300D03*
X1156299Y1100591D03*
X1153200Y1074700D03*
X1180000Y1098400D03*
X1162402Y1088583D03*
X1165500Y1091200D03*
X1226200Y1081000D03*
X1219400Y1076500D03*
X1209200Y1077400D03*
X1212900Y1087200D03*
X1215700Y1079200D03*
X1206200Y1090100D03*
X1196600Y1076575D03*
X1224700Y1085100D03*
X1201969Y1106299D03*
X1213386D03*
X1219500Y1091800D03*
X1191732Y1106299D03*
X1195800Y1090900D03*
X1191100Y1087400D03*
X1191000Y1080900D03*
X1230300Y1079900D03*
X1246300Y1081400D03*
X1230300Y1084900D03*
X1259449Y1090551D03*
X1237205Y1086614D03*
X1265600Y1097400D03*
X1250394Y1110039D03*
X1253600Y1090600D03*
X1261024Y1094882D03*
X1250394Y1105512D03*
X1250400Y1080300D03*
X1241500Y1096500D03*
X1245800Y1105500D03*
X1266000Y1101500D03*
X1256500Y1093400D03*
X1292520Y1101969D03*
Y1098819D03*
X1301181Y1109843D03*
X1275787Y1095669D03*
X1288976Y1110630D03*
X1285433D03*
X1297100Y1111200D03*
X1305906Y1107283D03*
X1300000Y1094882D03*
X1291732Y1108661D03*
Y1105512D03*
X1316400Y1110000D03*
X1325787Y1097441D03*
X1314961Y1102362D03*
X1319882Y1089764D03*
X1324016D03*
X1312795Y1095472D03*
X1309449D03*
X1020472Y1130906D03*
Y1121654D03*
X1020300Y1139800D03*
X1020472Y1148819D03*
X1022500Y1113600D03*
X1025100Y1151500D03*
X1023000Y1134100D03*
X1024300Y1140400D03*
X1015000Y1113500D03*
X1047600Y1136600D03*
X1038300Y1141800D03*
X1044600Y1121100D03*
X1055500Y1142000D03*
X1039200Y1112600D03*
X1056200Y1120000D03*
X1054300Y1114200D03*
X1048300Y1118100D03*
X1035300Y1130600D03*
X1028100Y1128100D03*
X1029200Y1145700D03*
X1045000Y1141500D03*
X1063900Y1141900D03*
X1071300Y1145400D03*
X1072300Y1132000D03*
X1073000Y1122100D03*
X1083300Y1125400D03*
X1085400Y1132900D03*
X1089700Y1115200D03*
X1072900Y1127600D03*
X1071800Y1137600D03*
X1103400Y1151400D03*
X1087402Y1143898D03*
X1072638Y1141929D03*
X1123700Y1125900D03*
X1112992Y1138189D03*
X1132677Y1112402D03*
X1135039Y1119291D03*
X1141300Y1139800D03*
X1121100Y1150800D03*
X1144685Y1148819D03*
X1140000Y1128000D03*
X1131500Y1149600D03*
X1115100Y1131100D03*
X1154900Y1145900D03*
X1156299Y1122244D03*
X1151181Y1148819D03*
X1183800Y1125000D03*
X1181800Y1114400D03*
X1175700Y1113100D03*
X1172100Y1117600D03*
X1177700Y1138300D03*
X1156600Y1128200D03*
X1156800Y1116300D03*
X1168200Y1138100D03*
X1183200Y1139700D03*
X1181300Y1146800D03*
X1206299Y1142323D03*
X1197800Y1128700D03*
X1190100Y1122100D03*
X1208465Y1136024D03*
X1188900Y1136400D03*
X1250394Y1118110D03*
X1249100Y1129300D03*
X1230200Y1140100D03*
X1245700Y1113600D03*
X1250394Y1113583D03*
X1249400Y1135600D03*
X1266900Y1117800D03*
X1282900Y1120900D03*
X1300000Y1122835D03*
X1287205D03*
X1281299Y1115748D03*
X1271400Y1117900D03*
X1270600Y1123400D03*
X1291700Y1117400D03*
X1307700Y1150000D03*
X1325984Y1118701D03*
X1316535Y1116535D03*
X1317900Y1120700D03*
X1014700Y1165400D03*
X1024300Y1156700D03*
X1040900Y1159300D03*
X1047800Y1179400D03*
X1046300Y1162500D03*
X1028150Y1191339D03*
X1054700Y1163700D03*
X1039764Y1184646D03*
X1052600Y1160100D03*
X1092126Y1158268D03*
X1100394Y1163780D03*
X1076772Y1168110D03*
X1072000Y1167300D03*
X1081700Y1172400D03*
X1114300Y1167800D03*
X1111200Y1165200D03*
X1132874Y1166339D03*
X1138100Y1167800D03*
X1126300D03*
X1131700Y1178700D03*
X1129600Y1163300D03*
X1141600Y1188500D03*
X1140000Y1152500D03*
X1144685Y1163780D03*
X1120500Y1167300D03*
X1113000Y1160500D03*
X1181800Y1173700D03*
X1187200Y1168600D03*
X1148400Y1178200D03*
X1156800Y1169700D03*
X1179200Y1164300D03*
X1156800Y1155200D03*
X1167200Y1162700D03*
X1156800Y1162000D03*
X1160200Y1179700D03*
X1200787Y1168110D03*
X1217717Y1168504D03*
X1199500Y1184400D03*
X1207500Y1187100D03*
X1225200Y1167700D03*
X1221100Y1168500D03*
X1239400Y1164600D03*
X1236100Y1162200D03*
X1242500Y1189700D03*
X1241700Y1159800D03*
X1247400Y1167700D03*
X1272800Y1175200D03*
X1298400Y1162400D03*
X1268700Y1174000D03*
X1296100Y1156700D03*
X1317520Y1166732D03*
X1059000Y1205000D03*
X1070079Y1213976D03*
X1090551Y1224016D03*
X1087795Y1227165D03*
X1074803D03*
Y1224016D03*
X1141700Y1210200D03*
X1119094Y1227165D03*
X1121654Y1224016D03*
X1134100Y1201800D03*
X1138100Y1194000D03*
X1142200Y1199400D03*
X1136900Y1207600D03*
X1138583Y1227165D03*
Y1224016D03*
X1155512Y1227165D03*
X1187008D03*
X1158071Y1224016D03*
X1205900Y1209700D03*
X1189370Y1224016D03*
X1204100Y1193300D03*
X1225400Y1195100D03*
X1211900Y1211700D03*
X1203600Y1205900D03*
X1212400Y1225000D03*
X1206299Y1227165D03*
Y1224016D03*
X1207500Y1199300D03*
X1260630Y1202756D03*
X1250200Y1222400D03*
X1291732Y1202756D03*
X1304300Y1204000D03*
X1315000Y1197700D03*
X1315700Y1193600D03*
X1308900Y1194300D03*
X1028150Y1233858D03*
X1041339Y1259843D03*
X1044882Y1255118D03*
X1045100Y1240100D03*
X1070669Y1237795D03*
X1135900Y1241900D03*
X1135500Y1246100D03*
X1141600Y1250800D03*
X1141700Y1242900D03*
X1206500Y1242100D03*
X1200800Y1239300D03*
X1214800Y1236700D03*
X1215000Y1243700D03*
X1203500Y1246400D03*
X1206800Y1255900D03*
X1229134Y1255906D03*
G54D50*
X1066900Y1030300D03*
X1061700Y1031000D03*
X1059252Y1020276D03*
X1062992Y1025787D03*
X1069600Y1031000D03*
X1075700Y1030900D03*
X1079200Y1031100D03*
X1073100Y1028600D03*
X1095700Y1031800D03*
X1076600Y1023200D03*
X1097600Y1023100D03*
X1091500Y1029300D03*
X1108300Y1026800D03*
X1109400Y1029500D03*
X1122835Y1020276D03*
X1119685D03*
X1138583D03*
X1182874Y1031496D03*
X1160630Y1020276D03*
X1151181D03*
X1193504Y1020866D03*
X1024400Y1049100D03*
X1011800D03*
X1018100D03*
X1065900Y1037300D03*
X1067000Y1033000D03*
X1062000Y1033700D03*
X1064800Y1034600D03*
X1053543Y1036614D03*
X1056300Y1037000D03*
X1030700Y1049200D03*
X1058800Y1069900D03*
X1056500Y1056200D03*
X1063386Y1062402D03*
X1056496Y1051378D03*
X1100200Y1058500D03*
X1086811Y1059252D03*
X1080900Y1034800D03*
X1082400Y1037200D03*
X1083858Y1034646D03*
X1077953Y1055906D03*
X1086100Y1036600D03*
X1103900Y1037100D03*
X1100200Y1037300D03*
X1101575Y1034646D03*
X1088500Y1034000D03*
X1095669Y1036614D03*
X1096063Y1047638D03*
X1097638Y1034646D03*
X1089764Y1045866D03*
X1073622Y1049409D03*
X1090157Y1059252D03*
X1100400Y1061200D03*
X1103100Y1054700D03*
X1142700Y1050000D03*
X1138600Y1049600D03*
X1138780Y1064567D03*
X1107600Y1036900D03*
X1133071Y1062205D03*
X1129134D03*
X1131102Y1045472D03*
X1107500Y1061300D03*
X1111300Y1036600D03*
X1119700D03*
X1127200Y1034600D03*
X1137795Y1036614D03*
X1140945D03*
X1135039D03*
X1143701D03*
X1108858Y1045669D03*
X1123300Y1045100D03*
X1132283Y1036614D03*
X1129134D03*
X1144882Y1045669D03*
X1115000Y1036600D03*
X1131496Y1059449D03*
X1126000Y1071100D03*
X1135039Y1071850D03*
X1119300Y1033900D03*
X1127100Y1045000D03*
X1155500Y1058100D03*
X1156300Y1054400D03*
X1157500Y1037200D03*
X1152200Y1035600D03*
X1150500Y1051400D03*
X1159300Y1041800D03*
X1183100Y1044200D03*
X1183300Y1049500D03*
X1154300Y1048200D03*
X1166929Y1042913D03*
X1180512Y1039764D03*
X1149500Y1036600D03*
X1162800Y1034700D03*
X1160000Y1072000D03*
X1183071Y1037992D03*
X1197400Y1050300D03*
X1196900Y1042100D03*
X1202600Y1048900D03*
X1202400Y1044200D03*
X1236500Y1065800D03*
X1251575Y1067717D03*
X1066929Y1096260D03*
X1039173Y1094291D03*
X1055512D03*
X1064961Y1093701D03*
X1056200Y1076000D03*
X1057677Y1098031D03*
X1057000Y1109300D03*
X1041535Y1109252D03*
X1064800Y1109300D03*
X1043504Y1107283D03*
X1066535Y1091142D03*
X1057700Y1073600D03*
X1084100Y1082100D03*
X1100600Y1098800D03*
X1095900Y1078500D03*
X1102165Y1083661D03*
X1088583D03*
X1083900Y1094700D03*
X1096260Y1098228D03*
X1083900Y1102500D03*
X1097000Y1074500D03*
X1092300Y1079600D03*
X1097441Y1094882D03*
X1080300Y1083400D03*
X1083900Y1105200D03*
Y1107900D03*
X1091400Y1083700D03*
X1101100Y1080000D03*
X1086000Y1109900D03*
X1109100Y1083700D03*
X1144685Y1081693D03*
X1142717Y1083661D03*
X1140748Y1081693D03*
X1138780Y1083661D03*
X1136811Y1081693D03*
X1113800Y1075300D03*
X1132874Y1081693D03*
X1130906Y1083661D03*
X1128937Y1081693D03*
X1109000Y1105300D03*
X1123031Y1083661D03*
X1126300Y1073800D03*
X1126969Y1083661D03*
X1125000Y1081693D03*
X1146654Y1083661D03*
X1112700Y1080000D03*
X1119094Y1083661D03*
X1134843D03*
X1157900Y1080300D03*
X1152600Y1079200D03*
X1150591Y1083661D03*
X1148622Y1081693D03*
X1156693Y1085827D03*
X1172600Y1108500D03*
X1174200Y1106200D03*
X1167500Y1103600D03*
Y1099900D03*
X1186024Y1090945D03*
X1223900Y1090900D03*
X1211220Y1090945D03*
X1189567Y1110433D03*
X1213583Y1109449D03*
X1205709Y1108465D03*
X1217520Y1106496D03*
X1209646Y1104134D03*
X1217717Y1101969D03*
X1221654D03*
X1214173Y1090945D03*
X1201800Y1090600D03*
X1227362Y1101969D03*
X1231299D03*
X1237205Y1103937D03*
X1235236Y1101969D03*
X1233268Y1103937D03*
X1250394Y1097638D03*
Y1100591D03*
X1265157Y1111811D03*
X1250394Y1092913D03*
X1265157Y1105118D03*
X1278740Y1095669D03*
X1287008D03*
X1020472Y1127953D03*
Y1118504D03*
X1003800Y1129500D03*
X1003700Y1147600D03*
X1020472Y1145669D03*
X1003500Y1138600D03*
X1020472Y1136614D03*
X1003700Y1120400D03*
X1039173Y1125197D03*
X1034843Y1123031D03*
X1028937Y1114370D03*
X1031200Y1130600D03*
X1037600Y1127400D03*
X1036900Y1118504D03*
X1041535Y1140354D03*
X1043504Y1136614D03*
X1060039Y1136811D03*
X1063600Y1149400D03*
X1086600Y1136800D03*
X1072441Y1151772D03*
X1087900Y1129800D03*
X1083500Y1121500D03*
X1088200Y1125800D03*
X1083500Y1129300D03*
X1086500Y1123100D03*
X1085800Y1119900D03*
X1089300Y1134100D03*
X1090400Y1127700D03*
X1083465Y1151378D03*
X1090600Y1141300D03*
X1086614Y1151969D03*
X1107283Y1115945D03*
X1167500Y1150600D03*
X1171600Y1136000D03*
X1167500Y1133200D03*
Y1129500D03*
X1169685Y1126181D03*
X1167520Y1124213D03*
X1168700Y1121800D03*
X1167400Y1119100D03*
X1171800Y1140000D03*
X1153937Y1119488D03*
X1167520Y1143898D03*
Y1147835D03*
X1156496Y1142913D03*
Y1139764D03*
X1193898Y1133858D03*
X1197800Y1132600D03*
X1203740Y1130315D03*
X1207677Y1128346D03*
X1215551Y1126181D03*
X1219685Y1124213D03*
X1225394Y1120866D03*
X1209646Y1114370D03*
X1195866D03*
X1211614Y1112402D03*
X1199803D03*
X1210630Y1137992D03*
X1217520Y1151772D03*
X1202756Y1144488D03*
X1243898Y1137008D03*
X1242717Y1134449D03*
X1241535Y1131890D03*
X1240354Y1129331D03*
X1239173Y1126772D03*
X1237992Y1124213D03*
X1236811Y1121654D03*
X1235630Y1119094D03*
X1229331Y1118898D03*
X1233000Y1137300D03*
X1230300Y1143700D03*
X1230315Y1146457D03*
X1230300Y1151200D03*
X1255315Y1151181D03*
X1245079Y1148425D03*
X1257480Y1126772D03*
X1269685Y1114961D03*
X1322835Y1150000D03*
X1011417Y1152362D03*
X1007900Y1161300D03*
X1047835Y1170669D03*
X1046300Y1158600D03*
X1046260Y1168110D03*
X1047800Y1175500D03*
X1046500Y1183300D03*
X1032480Y1168110D03*
X1030906Y1175787D03*
X1032480Y1173228D03*
X1030906Y1170669D03*
X1046260Y1173228D03*
X1066929Y1152165D03*
X1070276Y1158858D03*
X1105315Y1155118D03*
X1085630Y1180709D03*
X1087598Y1178740D03*
X1069685Y1152362D03*
X1083661Y1165551D03*
X1086417Y1167520D03*
X1086811Y1162008D03*
X1092717Y1190551D03*
X1091535Y1180906D03*
X1076181Y1185039D03*
X1097441Y1178740D03*
X1074213Y1188976D03*
X1095472Y1180906D03*
X1072244Y1187008D03*
X1099409Y1180906D03*
X1070276Y1190945D03*
X1093504Y1178740D03*
X1105315D03*
X1146100Y1166500D03*
X1109252Y1178740D03*
X1113189D03*
X1115157Y1180709D03*
X1117126Y1178740D03*
X1120079D03*
X1123031D03*
X1125000Y1180709D03*
X1126969Y1183268D03*
X1128900Y1181400D03*
X1134500Y1191200D03*
X1130900Y1183600D03*
X1134843Y1186614D03*
X1136200Y1184000D03*
X1138700Y1185400D03*
X1145500Y1189200D03*
X1131500Y1157900D03*
X1184000Y1180600D03*
X1180800Y1168800D03*
X1184100Y1165400D03*
X1148622Y1164567D03*
X1149800Y1167200D03*
X1151400Y1163600D03*
X1153400Y1165500D03*
X1178100Y1168600D03*
X1175394Y1167913D03*
X1172638Y1167717D03*
X1167100Y1153300D03*
X1156300Y1159100D03*
X1174803Y1190551D03*
X1203937Y1156693D03*
X1187992Y1180512D03*
X1188100Y1164200D03*
X1189961Y1178543D03*
X1191929Y1180512D03*
X1190600Y1166400D03*
X1193898Y1178543D03*
X1192300Y1164300D03*
X1195866Y1180512D03*
X1195079Y1168110D03*
X1197835Y1178543D03*
Y1168110D03*
X1199803Y1180512D03*
X1201772Y1178543D03*
X1203740Y1180512D03*
X1205709Y1178543D03*
X1215551D03*
X1217520Y1180512D03*
X1219488Y1178543D03*
X1221457Y1180512D03*
X1223425Y1178543D03*
X1217520Y1165551D03*
X1225394Y1180512D03*
X1217520Y1162795D03*
Y1160039D03*
Y1157283D03*
Y1154528D03*
X1203937Y1153740D03*
X1206496Y1152362D03*
X1201000Y1156700D03*
X1196300D03*
X1208700Y1191000D03*
X1227362Y1178543D03*
X1234100Y1168400D03*
Y1165700D03*
X1232500Y1162200D03*
X1252559Y1152559D03*
X1237800Y1167700D03*
X1305512Y1153150D03*
X1304331Y1183465D03*
X1323622Y1153150D03*
X1317461Y1170079D03*
X1312402Y1172244D03*
X1090157Y1205118D03*
X1087795Y1201969D03*
X1090157Y1198819D03*
X1087795Y1195669D03*
X1090157Y1192520D03*
Y1230315D03*
X1087795Y1220866D03*
X1090157Y1217717D03*
X1087795Y1214567D03*
X1090157Y1211417D03*
X1087795Y1208268D03*
X1133200Y1205700D03*
X1138000Y1201800D03*
X1134100Y1196900D03*
X1131400Y1194300D03*
X1119291Y1192520D03*
X1145700Y1193900D03*
X1121654Y1195669D03*
X1142200Y1195500D03*
X1119291Y1198819D03*
X1145300Y1201800D03*
X1121654Y1201969D03*
X1142000Y1204300D03*
X1119291Y1205118D03*
X1145400Y1207500D03*
X1134300Y1230300D03*
X1131890Y1220866D03*
X1134252Y1217717D03*
X1131890Y1214567D03*
X1134252Y1211417D03*
X1121654D03*
X1145300Y1212200D03*
X1119291Y1214567D03*
X1142900Y1216100D03*
X1121654Y1217717D03*
X1145800Y1218600D03*
X1119291Y1220866D03*
X1142800Y1221800D03*
X1121654Y1230315D03*
X1145276D03*
X1131900Y1209400D03*
X1157874Y1205118D03*
X1187008Y1201969D03*
X1155512D03*
X1157874Y1198819D03*
X1187008Y1195669D03*
X1155512D03*
X1157900Y1192600D03*
X1157874Y1230315D03*
X1155512Y1220866D03*
X1157874Y1217717D03*
X1155512Y1214567D03*
X1157874Y1211417D03*
X1187008Y1214567D03*
X1186811Y1220866D03*
X1155512Y1208268D03*
X1187008D03*
X1189370Y1205118D03*
Y1198819D03*
Y1192520D03*
X1199600Y1196500D03*
X1208900Y1195400D03*
X1199400Y1199200D03*
X1203600Y1201700D03*
X1198900Y1203600D03*
X1208000Y1205300D03*
X1202000Y1209800D03*
X1209800Y1203300D03*
X1202000Y1229700D03*
X1199606Y1220866D03*
Y1217717D03*
X1201200Y1214600D03*
X1199400Y1212500D03*
X1189370Y1211417D03*
Y1217717D03*
Y1230315D03*
X1213700Y1230800D03*
X1238583Y1203543D03*
X1235827D03*
X1233071D03*
X1230300Y1204200D03*
X1309646Y1200984D03*
X1319488Y1198622D03*
X1087795Y1258661D03*
X1090157Y1255512D03*
X1087795Y1252362D03*
X1090157Y1249213D03*
X1087795Y1246063D03*
Y1239764D03*
X1090157Y1236614D03*
X1087795Y1233465D03*
X1070669Y1234646D03*
X1090157Y1242913D03*
X1131900Y1258700D03*
X1134500Y1255700D03*
X1131900Y1253000D03*
X1134800Y1250000D03*
X1119291Y1252362D03*
X1142900Y1254700D03*
X1121654Y1255512D03*
X1145700Y1257200D03*
X1119291Y1258661D03*
X1142400Y1260400D03*
X1133000Y1243100D03*
X1131900Y1239400D03*
X1134300Y1236000D03*
X1131700Y1233300D03*
X1119291Y1233465D03*
X1142900Y1233300D03*
X1121654Y1236614D03*
X1145600Y1236300D03*
X1119291Y1239764D03*
X1142900Y1239000D03*
X1145500Y1249500D03*
X1121654Y1249213D03*
X1119291Y1246063D03*
X1139400Y1246100D03*
X1121654Y1242913D03*
X1155512Y1258661D03*
X1187008D03*
X1157874Y1255512D03*
X1155512Y1252362D03*
X1187008D03*
X1157874Y1249213D03*
X1187008Y1246063D03*
X1155512D03*
Y1239764D03*
X1157874Y1236614D03*
X1155512Y1233465D03*
X1187008D03*
Y1239764D03*
X1157874Y1242913D03*
X1189370Y1255512D03*
Y1249213D03*
X1199600Y1252500D03*
X1199606Y1255512D03*
Y1258661D03*
X1202000Y1235400D03*
X1199100Y1233000D03*
X1216700Y1233100D03*
X1189370Y1236614D03*
X1218701Y1236811D03*
X1220669Y1240354D03*
X1226378Y1248622D03*
X1199600Y1249800D03*
X1220866Y1246654D03*
X1223228Y1243307D03*
X1189370Y1242913D03*
X1203600Y1242200D03*
X1239567Y1238976D03*
X1241535Y1237008D03*
X1239567Y1235039D03*
X1241535Y1233071D03*
Y1240945D03*
G54D52*
X1171457Y1157283D03*
X1175394D03*
X1172047Y1102559D03*
X1175984D03*
X1122047Y1185039D03*
X1118110D03*
X1172047Y1132087D03*
X1175984D03*
X1112205Y1185039D03*
X1108268D03*
X1181102Y1090354D03*
X1177165D03*
X1074803Y1196850D03*
Y1200787D03*
Y1204724D03*
Y1208661D03*
Y1253937D03*
Y1257874D03*
Y1244094D03*
Y1248031D03*
G54D53*
X1087598Y1078740D03*
X1105709Y1083071D03*
X1072047Y1155709D03*
X1249409Y1144291D03*
X1175197Y1148031D03*
Y1143898D03*
X1171063D03*
X1062992Y1114173D03*
X1066929D03*
X1070866D03*
X1059055D03*
X1304331Y1195276D03*
X1042100Y1103700D03*
X1171260Y1148031D03*
X1083465Y1078740D03*
X1239300Y1106700D03*
X1136000Y1111000D03*
X1141500D03*
X1147000D03*
X1140000Y1104000D03*
X1045500Y1113500D03*
X1149000Y1145000D03*
X1104500Y1164000D03*
G54D67*
X1281102Y1231496D03*
X1271260D03*
X1261417D03*
X1251575D03*
X1281102Y1211024D03*
X1271260D03*
X1261417D03*
X1251575D03*
G54D68*
X1316142Y1248425D03*
X1017323Y1094488D03*
X1301772Y1221260D03*
X1230906D03*
G54D10*
X1207158Y841043D02*
G01X1206084Y840551D01*
X1205369Y839075*
X1205011Y836614*
Y835138*
X1205369Y832677*
X1206084Y831201*
X1207158Y830709*
X1207874*
X1208948Y831201*
X1209664Y832677*
X1210021Y835138*
Y836614*
X1209664Y839075*
X1208948Y840551*
X1207874Y841043*
X1207158*
X1217895Y837598D02*
G01X1217538Y836122D01*
X1216822Y835138*
X1215748Y834646*
X1215390*
X1214316Y835138*
X1213601Y836122*
X1213243Y837598*
Y838091*
X1213601Y839567*
X1214316Y840551*
X1215390Y841043*
X1215748*
X1216822Y840551*
X1217538Y839567*
X1217895Y837598*
Y835138*
X1217538Y832677*
X1216822Y831201*
X1215748Y830709*
X1215032*
X1213958Y831201*
X1213601Y832185*
X1221117Y835138D02*
G01X1227559D01*
X1232928Y841043D02*
G01X1231854Y840551D01*
X1231138Y839075*
X1230780Y836614*
Y835138*
X1231138Y832677*
X1231854Y831201*
X1232928Y830709*
X1233644*
X1234717Y831201*
X1235433Y832677*
X1235791Y835138*
Y836614*
X1235433Y839075*
X1234717Y840551*
X1233644Y841043*
X1232928*
X1241160D02*
G01X1240086Y840551D01*
X1239370Y839075*
X1239012Y836614*
Y835138*
X1239370Y832677*
X1240086Y831201*
X1241160Y830709*
X1241875*
X1242949Y831201*
X1243665Y832677*
X1244023Y835138*
Y836614*
X1243665Y839075*
X1242949Y840551*
X1241875Y841043*
X1241160*
X1249392D02*
G01X1248318Y840551D01*
X1247602Y839075*
X1247244Y836614*
Y835138*
X1247602Y832677*
X1248318Y831201*
X1249392Y830709*
X1250107*
X1251181Y831201*
X1251897Y832677*
X1252255Y835138*
Y836614*
X1251897Y839075*
X1251181Y840551*
X1250107Y841043*
X1249392*
X1257623D02*
G01X1256550Y840551D01*
X1255834Y839075*
X1255476Y836614*
Y835138*
X1255834Y832677*
X1256550Y831201*
X1257623Y830709*
X1258339*
X1259413Y831201*
X1260129Y832677*
X1260487Y835138*
Y836614*
X1260129Y839075*
X1259413Y840551*
X1258339Y841043*
X1257623*
X1267287D02*
G01X1263708Y834154D01*
X1269077*
X1267287Y841043D02*
G01Y830709D01*
X1274445Y841043D02*
G01X1273372Y840551D01*
X1272656Y839075*
X1272298Y836614*
Y835138*
X1272656Y832677*
X1273372Y831201*
X1274445Y830709*
X1275161*
X1276235Y831201*
X1276951Y832677*
X1277309Y835138*
Y836614*
X1276951Y839075*
X1276235Y840551*
X1275161Y841043*
X1274445*
X992377Y895915D02*
G01X995240Y885581D01*
X998103Y895915D02*
G01X995240Y885581D01*
X1001324Y895915D02*
G01Y885581D01*
Y895915D02*
G01X1005977D01*
X1001324Y890994D02*
G01X1004188D01*
X1001324Y885581D02*
G01X1005977D01*
X1009198Y895915D02*
G01Y885581D01*
X1014209Y895915D02*
G01Y885581D01*
X1009198Y890994D02*
G01X1014209D01*
X1017430Y895915D02*
G01Y885581D01*
X1026020Y893455D02*
G01X1025662Y894439D01*
X1024946Y895423*
X1024230Y895915*
X1022799*
X1022083Y895423*
X1021367Y894439*
X1021009Y893455*
X1020651Y891978*
Y889518*
X1021009Y888041*
X1021367Y887057*
X1022083Y886073*
X1022799Y885581*
X1024230*
X1024946Y886073*
X1025662Y887057*
X1026020Y888041*
X1029241Y895915D02*
G01Y885581D01*
X1033536*
X1036757Y895915D02*
G01Y885581D01*
Y895915D02*
G01X1041410D01*
X1036757Y890994D02*
G01X1039621D01*
X1036757Y885581D02*
G01X1041410D01*
X1052863Y895915D02*
G01Y885581D01*
Y895915D02*
G01X1055369D01*
X1056442Y895423*
X1057158Y894439*
X1057516Y893455*
X1057874Y891978*
Y889518*
X1057516Y888041*
X1057158Y887057*
X1056442Y886073*
X1055369Y885581*
X1052863*
X1061095Y895915D02*
G01Y885581D01*
X1069327Y894439D02*
G01X1068611Y895423D01*
X1067538Y895915*
X1066106*
X1065032Y895423*
X1064316Y894439*
Y893455*
X1064674Y892470*
X1065032Y891978*
X1065748Y891486*
X1067895Y890502*
X1068611Y890010*
X1068969Y889518*
X1069327Y888533*
Y887057*
X1068611Y886073*
X1067538Y885581*
X1066106*
X1065032Y886073*
X1064316Y887057*
X1072548Y895915D02*
G01Y885581D01*
Y895915D02*
G01X1075770D01*
X1076843Y895423*
X1077201Y894931*
X1077559Y893947*
Y892470*
X1077201Y891486*
X1076843Y890994*
X1075770Y890502*
X1072548*
X1080780Y895915D02*
G01Y885581D01*
X1085075*
X1091160Y895915D02*
G01X1088296Y885581D01*
X1091160Y895915D02*
G01X1094023Y885581D01*
X1089370Y889026D02*
G01X1092949D01*
X1097244Y895915D02*
G01X1100107Y890994D01*
Y885581*
X1102971Y895915D02*
G01X1100107Y890994D01*
X1119435Y894439D02*
G01X1118719Y895423D01*
X1117645Y895915*
X1116213*
X1115140Y895423*
X1114424Y894439*
Y893455*
X1114782Y892470*
X1115140Y891978*
X1115855Y891486*
X1118003Y890502*
X1118719Y890010*
X1119077Y889518*
X1119435Y888533*
Y887057*
X1118719Y886073*
X1117645Y885581*
X1116213*
X1115140Y886073*
X1114424Y887057*
X1122656Y895915D02*
G01X1125519Y890994D01*
Y885581*
X1128382Y895915D02*
G01X1125519Y890994D01*
X1136614Y894439D02*
G01X1135898Y895423D01*
X1134825Y895915*
X1133393*
X1132319Y895423*
X1131603Y894439*
Y893455*
X1131961Y892470*
X1132319Y891978*
X1133035Y891486*
X1135183Y890502*
X1135898Y890010*
X1136256Y889518*
X1136614Y888533*
Y887057*
X1135898Y886073*
X1134825Y885581*
X1133393*
X1132319Y886073*
X1131603Y887057*
X1142341Y895915D02*
G01Y885581D01*
X1139835Y895915D02*
G01X1144846D01*
X1148067D02*
G01Y885581D01*
Y895915D02*
G01X1152720D01*
X1148067Y890994D02*
G01X1150931D01*
X1148067Y885581D02*
G01X1152720D01*
X1155941Y895915D02*
G01Y885581D01*
Y895915D02*
G01X1158805Y885581D01*
X1161668Y895915D02*
G01X1158805Y885581D01*
X1161668Y895915D02*
G01Y885581D01*
X1178490Y893455D02*
G01X1178132Y894439D01*
X1177416Y895423*
X1176700Y895915*
X1175268*
X1174553Y895423*
X1173837Y894439*
X1173479Y893455*
X1173121Y891978*
Y889518*
X1173479Y888041*
X1173837Y887057*
X1174553Y886073*
X1175268Y885581*
X1176700*
X1177416Y886073*
X1178132Y887057*
X1178490Y888041*
X1183858Y895915D02*
G01X1183142Y895423D01*
X1182427Y894439*
X1182069Y893455*
X1181711Y891978*
Y889518*
X1182069Y888041*
X1182427Y887057*
X1183142Y886073*
X1183858Y885581*
X1185290*
X1186006Y886073*
X1186722Y887057*
X1187079Y888041*
X1187437Y889518*
Y891978*
X1187079Y893455*
X1186722Y894439*
X1186006Y895423*
X1185290Y895915*
X1183858*
X1190659D02*
G01Y885581D01*
Y895915D02*
G01X1195669Y885581D01*
Y895915D02*
G01Y885581D01*
X1201396Y895915D02*
G01Y885581D01*
X1198890Y895915D02*
G01X1203901D01*
X1207122D02*
G01Y885581D01*
Y895915D02*
G01X1210344D01*
X1211417Y895423*
X1211775Y894931*
X1212133Y893947*
Y892963*
X1211775Y891978*
X1211417Y891486*
X1210344Y890994*
X1207122*
X1209628D02*
G01X1212133Y885581D01*
X1217502Y895915D02*
G01X1216786Y895423D01*
X1216070Y894439*
X1215712Y893455*
X1215354Y891978*
Y889518*
X1215712Y888041*
X1216070Y887057*
X1216786Y886073*
X1217502Y885581*
X1218933*
X1219649Y886073*
X1220365Y887057*
X1220723Y888041*
X1221081Y889518*
Y891978*
X1220723Y893455*
X1220365Y894439*
X1219649Y895423*
X1218933Y895915*
X1217502*
X1224302D02*
G01Y885581D01*
X1228597*
X1231818Y895915D02*
G01Y885581D01*
X1236113*
X1239334Y895915D02*
G01Y885581D01*
Y895915D02*
G01X1243987D01*
X1239334Y890994D02*
G01X1242198D01*
X1239334Y885581D02*
G01X1243987D01*
X1247208Y895915D02*
G01Y885581D01*
Y895915D02*
G01X1250429D01*
X1251503Y895423*
X1251861Y894931*
X1252219Y893947*
Y892963*
X1251861Y891978*
X1251503Y891486*
X1250429Y890994*
X1247208*
X1249714D02*
G01X1252219Y885581D01*
X1263672Y895915D02*
G01Y885581D01*
Y895915D02*
G01X1266893D01*
X1267967Y895423*
X1268325Y894931*
X1268683Y893947*
Y892963*
X1268325Y891978*
X1267967Y891486*
X1266893Y890994*
X1263672D02*
G01X1266893D01*
X1267967Y890502*
X1268325Y890010*
X1268683Y889026*
Y887549*
X1268325Y886565*
X1267967Y886073*
X1266893Y885581*
X1263672*
X1274052Y895915D02*
G01X1273336Y895423D01*
X1272620Y894439*
X1272262Y893455*
X1271904Y891978*
Y889518*
X1272262Y888041*
X1272620Y887057*
X1273336Y886073*
X1274052Y885581*
X1275483*
X1276199Y886073*
X1276915Y887057*
X1277273Y888041*
X1277631Y889518*
Y891978*
X1277273Y893455*
X1276915Y894439*
X1276199Y895423*
X1275483Y895915*
X1274052*
X1283715D02*
G01X1280852Y885581D01*
X1283715Y895915D02*
G01X1286578Y885581D01*
X1281926Y889026D02*
G01X1285505D01*
X1289800Y895915D02*
G01Y885581D01*
Y895915D02*
G01X1293021D01*
X1294094Y895423*
X1294452Y894931*
X1294810Y893947*
Y892963*
X1294452Y891978*
X1294094Y891486*
X1293021Y890994*
X1289800*
X1292305D02*
G01X1294810Y885581D01*
X1298031Y895915D02*
G01Y885581D01*
Y895915D02*
G01X1300537D01*
X1301611Y895423*
X1302326Y894439*
X1302684Y893455*
X1303042Y891978*
Y889518*
X1302684Y888041*
X1302326Y887057*
X1301611Y886073*
X1300537Y885581*
X1298031*
X1283071Y841043D02*
G01Y830709D01*
X1287366*
X1295240Y841043D02*
G01X1291661D01*
X1291303Y836614*
X1291661Y837106*
X1292734Y837598*
X1293808*
X1294882Y837106*
X1295598Y836122*
X1295956Y834646*
X1295598Y833661*
X1295240Y832185*
X1294524Y831201*
X1293450Y830709*
X1292377*
X1291303Y831201*
X1290945Y831693*
X1290587Y832677*
X1299535Y831693D02*
G01X1299177Y831201D01*
X1299535Y830709*
X1299893Y831201*
X1299535Y831693*
X1303114Y841043D02*
G01Y830709D01*
Y841043D02*
G01X1306335D01*
X1307409Y840551*
X1307767Y840059*
X1308125Y839075*
Y837598*
X1307767Y836614*
X1307409Y836122*
X1306335Y835630*
X1303114*
X1311346Y841043D02*
G01Y830709D01*
X1316356Y841043D02*
G01Y830709D01*
X1311346Y836122D02*
G01X1316356D01*
X1321725Y841043D02*
G01X1321009Y840551D01*
X1320293Y839567*
X1319936Y838583*
X1319578Y837106*
Y834646*
X1319936Y833169*
X1320293Y832185*
X1321009Y831201*
X1321725Y830709*
X1323157*
X1323873Y831201*
X1324588Y832185*
X1324946Y833169*
X1325304Y834646*
Y837106*
X1324946Y838583*
X1324588Y839567*
X1323873Y840551*
X1323157Y841043*
X1321725*
X972047D02*
G01Y830709D01*
X976342*
X982427Y841043D02*
G01X979563Y830709D01*
X982427Y841043D02*
G01X985290Y830709D01*
X980637Y834154D02*
G01X984216D01*
X988511Y841043D02*
G01X991374Y836122D01*
Y830709*
X994238Y841043D02*
G01X991374Y836122D01*
X997459Y841043D02*
G01Y830709D01*
Y841043D02*
G01X1002112D01*
X997459Y836122D02*
G01X1000322D01*
X997459Y830709D02*
G01X1002112D01*
X1005333Y841043D02*
G01Y830709D01*
Y841043D02*
G01X1008554D01*
X1009628Y840551*
X1009986Y840059*
X1010344Y839075*
Y838091*
X1009986Y837106*
X1009628Y836614*
X1008554Y836122*
X1005333*
X1007838D02*
G01X1010344Y830709D01*
X1026450Y841043D02*
G01X1022870D01*
X1022513Y836614*
X1022870Y837106*
X1023944Y837598*
X1025018*
X1026092Y837106*
X1026807Y836122*
X1027165Y834646*
X1026807Y833661*
X1026450Y832185*
X1025734Y831201*
X1024660Y830709*
X1023586*
X1022513Y831201*
X1022155Y831693*
X1021797Y832677*
X1041124Y843012D02*
G01X1040408Y842028D01*
X1039692Y840551*
X1038976Y838583*
X1038618Y836122*
Y834154*
X1038976Y831693*
X1039692Y829724*
X1040408Y828248*
X1041124Y827264*
X1049356Y839567D02*
G01X1048640Y840551D01*
X1047566Y841043*
X1046135*
X1045061Y840551*
X1044345Y839567*
Y838583*
X1044703Y837598*
X1045061Y837106*
X1045777Y836614*
X1047924Y835630*
X1048640Y835138*
X1048998Y834646*
X1049356Y833661*
Y832185*
X1048640Y831201*
X1047566Y830709*
X1046135*
X1045061Y831201*
X1044345Y832185*
X1052577Y841043D02*
G01Y830709D01*
X1061167Y838583D02*
G01X1060809Y839567D01*
X1060093Y840551*
X1059377Y841043*
X1057946*
X1057230Y840551*
X1056514Y839567*
X1056156Y838583*
X1055798Y837106*
Y834646*
X1056156Y833169*
X1056514Y832185*
X1057230Y831201*
X1057946Y830709*
X1059377*
X1060093Y831201*
X1060809Y832185*
X1061167Y833169*
Y834646*
X1059377D02*
G01X1061167D01*
X1064388Y841043D02*
G01Y830709D01*
Y841043D02*
G01X1069399Y830709D01*
Y841043D02*
G01Y830709D01*
X1075483Y841043D02*
G01X1072620Y830709D01*
X1075483Y841043D02*
G01X1078346Y830709D01*
X1073694Y834154D02*
G01X1077273D01*
X1081568Y841043D02*
G01Y830709D01*
X1085863*
X1097316Y841043D02*
G01Y830709D01*
X1101611*
X1107695Y841043D02*
G01X1104832Y830709D01*
X1107695Y841043D02*
G01X1110558Y830709D01*
X1105906Y834154D02*
G01X1109485D01*
X1113780Y841043D02*
G01X1116643Y836122D01*
Y830709*
X1119506Y841043D02*
G01X1116643Y836122D01*
X1122727Y841043D02*
G01Y830709D01*
Y841043D02*
G01X1127380D01*
X1122727Y836122D02*
G01X1125591D01*
X1122727Y830709D02*
G01X1127380D01*
X1130601Y841043D02*
G01Y830709D01*
Y841043D02*
G01X1133822D01*
X1134896Y840551*
X1135254Y840059*
X1135612Y839075*
Y838091*
X1135254Y837106*
X1134896Y836614*
X1133822Y836122*
X1130601*
X1133107D02*
G01X1135612Y830709D01*
X1138833Y843012D02*
G01X1139549Y842028D01*
X1140265Y840551*
X1140981Y838583*
X1141339Y836122*
Y834154*
X1140981Y831693*
X1140265Y829724*
X1139549Y828248*
X1138833Y827264*
G54D11*
X1251575Y1211024D02*
G01X1256698Y1205900D01*
X1293884*
X1300984Y1198800*
X1311678*
X1312878Y1200000*
X1316196*
X1317574Y1198622*
X1319488*
X1261417Y1231496D02*
G01X1268110Y1224803D01*
X1277165*
X1300984Y1200984*
X1309646*
X964173Y855512D02*
G75*
G03X968110Y851575I3937D01*
Y851575D02*
G01X1129528D01*
Y851575D02*
G03X1133465Y855512J3937D01*
Y855512D02*
G01Y871260D01*
Y871260D02*
G03X1129528Y875197I-3937D01*
Y875197D02*
G01X968110D01*
Y875197D02*
G03X964173Y871260J-3937D01*
Y871260D02*
G01Y855512D01*
X1137402D02*
G03X1141339Y851575I3937D01*
Y851575D02*
G01X1176772D01*
Y851575D02*
G03X1180709Y855512J3937D01*
Y855512D02*
G01Y871260D01*
Y871260D02*
G03X1176772Y875197I-3937D01*
Y875197D02*
G01X1141339D01*
Y875197D02*
G03X1137402Y871260J-3937D01*
Y871260D02*
G01Y855512D01*
X964173Y827953D02*
G03X968110Y824016I3937D01*
Y824016D02*
G01X1176772D01*
Y824016D02*
G03X1180709Y827953J3937D01*
Y827953D02*
G01Y843701D01*
Y843701D02*
G03X1176772Y847638I-3937D01*
Y847638D02*
G01X968110D01*
Y847638D02*
G03X964173Y843701J-3937D01*
Y843701D02*
G01Y827953D01*
X1184646D02*
G03X1188583Y824016I3937D01*
Y824016D02*
G01X1330315D01*
Y824016D02*
G03X1334252Y827953J3937D01*
Y827953D02*
G01Y843701D01*
Y843701D02*
G03X1330315Y847638I-3937D01*
Y847638D02*
G01X1188583D01*
Y847638D02*
G03X1184646Y843701J-3937D01*
Y843701D02*
G01Y827953D01*
Y855512D02*
G03X1188583Y851575I3937D01*
Y851575D02*
G01X1330315D01*
Y851575D02*
G03X1334252Y855512J3937D01*
Y855512D02*
G01Y871260D01*
Y871260D02*
G03X1330315Y875197I-3937D01*
Y875197D02*
G01X1188583D01*
Y875197D02*
G03X1184646Y871260J-3937D01*
Y871260D02*
G01Y855512D01*
X964173Y883071D02*
G03X968110Y879134I3937D01*
Y879134D02*
G01X1330315D01*
Y879134D02*
G03X1334252Y883071J3937D01*
Y883071D02*
G01Y898819D01*
Y898819D02*
G03X1330315Y902756I-3937D01*
Y902756D02*
G01X968110D01*
Y902756D02*
G03X964173Y898819J-3937D01*
Y898819D02*
G01Y883071D01*
G54D12*
X960236Y827953D02*
G03X968110Y820079I7874D01*
Y820079D02*
G01X1330315D01*
Y820079D02*
G03X1338189Y827953J7874D01*
Y827953D02*
G01Y898819D01*
Y898819D02*
G03X1330315Y906693I-7874D01*
Y906693D02*
G01X968110D01*
Y906693D02*
G03X960236Y898819J-7874D01*
Y898819D02*
G01Y827953D01*
G54D13*
X1191267Y843701D02*
G01X1191088Y844193D01*
X1190730Y844685*
X1190372Y844931*
X1189656*
X1189298Y844685*
X1188941Y844193*
X1188762Y843701*
X1188583Y842963*
Y841732*
X1188762Y840994*
X1188941Y840502*
X1189298Y840010*
X1189656Y839764*
X1190372*
X1190730Y840010*
X1191088Y840502*
X1191267Y840994*
Y841732*
X1190372D02*
G01X1191267D01*
X1192878Y844931D02*
G01Y839764D01*
Y844931D02*
G01X1195204D01*
X1192878Y842470D02*
G01X1194309D01*
X1192878Y839764D02*
G01X1195204D01*
X1196815Y844931D02*
G01Y839764D01*
Y844931D02*
G01X1198425D01*
X1198962Y844685*
X1199141Y844439*
X1199320Y843947*
Y843455*
X1199141Y842963*
X1198962Y842717*
X1198425Y842470*
X1196815*
X1198067D02*
G01X1199320Y839764D01*
X1200931Y844931D02*
G01Y839764D01*
Y844931D02*
G01X1202541D01*
X1203078Y844685*
X1203257Y844439*
X1203436Y843947*
Y843455*
X1203257Y842963*
X1203078Y842717*
X1202541Y842470*
X1200931D02*
G01X1202541D01*
X1203078Y842224*
X1203257Y841978*
X1203436Y841486*
Y840748*
X1203257Y840256*
X1203078Y840010*
X1202541Y839764*
X1200931*
X1205047Y844931D02*
G01Y839764D01*
Y844931D02*
G01X1207373D01*
X1205047Y842470D02*
G01X1206478D01*
X1205047Y839764D02*
G01X1207373D01*
X1208984Y844931D02*
G01Y839764D01*
Y844931D02*
G01X1210594D01*
X1211131Y844685*
X1211310Y844439*
X1211489Y843947*
Y843455*
X1211310Y842963*
X1211131Y842717*
X1210594Y842470*
X1208984*
X1210236D02*
G01X1211489Y839764D01*
X1213278Y843209D02*
G01X1213099Y842963D01*
Y842963D02*
G01X1213278Y842717D01*
X1213457Y842963*
X1213278Y843209*
Y840256D02*
G01X1213099Y840010D01*
Y840010D02*
G01X1213278Y839764D01*
X1213457Y840010*
X1213278Y840256*
X1188583Y872490D02*
G01Y867323D01*
Y872490D02*
G01X1189835D01*
X1190372Y872244*
X1190730Y871752*
X1190909Y871260*
X1191088Y870522*
Y869291*
X1190909Y868553*
X1190730Y868061*
X1190372Y867569*
X1189835Y867323*
X1188583*
X1194130Y872490D02*
G01X1192699Y867323D01*
X1194130Y872490D02*
G01X1195562Y867323D01*
X1193236Y869045D02*
G01X1195025D01*
X1198425Y872490D02*
G01Y867323D01*
X1197173Y872490D02*
G01X1199678D01*
X1201288D02*
G01Y867323D01*
Y872490D02*
G01X1203615D01*
X1201288Y870030D02*
G01X1202720D01*
X1201288Y867323D02*
G01X1203615D01*
X1205404Y870768D02*
G01X1205225Y870522D01*
X1205404Y870276*
X1205583Y870522*
X1205404Y870768*
Y867815D02*
G01X1205225Y867569D01*
X1205404Y867323*
X1205583Y867569*
X1205404Y867815*
X1141339Y872490D02*
G01Y867323D01*
Y872490D02*
G01X1142949D01*
X1143486Y872244*
X1143665Y871998*
X1143844Y871506*
Y871014*
X1143665Y870522*
X1143486Y870276*
X1142949Y870030*
X1141339*
X1142591D02*
G01X1143844Y867323D01*
X1145455Y872490D02*
G01Y867323D01*
Y872490D02*
G01X1147781D01*
X1145455Y870030D02*
G01X1146886D01*
X1145455Y867323D02*
G01X1147781D01*
X1149392Y872490D02*
G01X1150823Y867323D01*
X1152255Y872490D02*
G01X1150823Y867323D01*
X1154044Y870768D02*
G01X1153865Y870522D01*
X1154044Y870276*
X1154223Y870522*
X1154044Y870768*
Y867815D02*
G01X1153865Y867569D01*
X1154044Y867323*
X1154223Y867569*
X1154044Y867815*
X968110Y872490D02*
G01Y867323D01*
Y872490D02*
G01X969721D01*
X970258Y872244*
X970437Y871998*
X970616Y871506*
Y870768*
X970437Y870276*
X970258Y870030*
X969721Y869783*
X968110*
X973658Y872490D02*
G01X972226Y867323D01*
X973658Y872490D02*
G01X975089Y867323D01*
X972763Y869045D02*
G01X974553D01*
X976700Y872490D02*
G01Y867323D01*
Y872490D02*
G01X978311D01*
X978848Y872244*
X979026Y871998*
X979205Y871506*
Y871014*
X979026Y870522*
X978848Y870276*
X978311Y870030*
X976700*
X977953D02*
G01X979205Y867323D01*
X982069Y872490D02*
G01Y867323D01*
X980816Y872490D02*
G01X983321D01*
X989048D02*
G01Y867323D01*
Y872490D02*
G01X991553Y867323D01*
Y872490D02*
G01Y867323D01*
X994238Y872490D02*
G01X993880Y872244D01*
X993522Y871752*
X993343Y871260*
X993164Y870522*
Y869291*
X993343Y868553*
X993522Y868061*
X993880Y867569*
X994238Y867323*
X994953*
X995311Y867569*
X995669Y868061*
X995848Y868553*
X996027Y869291*
Y870522*
X995848Y871260*
X995669Y871752*
X995311Y872244*
X994953Y872490*
X994238*
X997817Y867815D02*
G01X997638Y867569D01*
X997817Y867323*
X997996Y867569*
X997817Y867815*
X999785Y870768D02*
G01X999606Y870522D01*
X999785Y870276*
X999964Y870522*
X999785Y870768*
Y867815D02*
G01X999606Y867569D01*
X999785Y867323*
X999964Y867569*
X999785Y867815*
X933071Y818898D02*
G03X933071Y818898I-3937D01*
X937008D02*
G03X937008Y818898I-7874D01*
X933071Y1267717D02*
G03X933071Y1267717I-3937D01*
X937008D02*
G03X937008Y1267717I-7874D01*
X1354331Y818898D02*
G03X1354331Y818898I-3937D01*
X1358268D02*
G03X1358268Y818898I-7874D01*
G54D14*
X917323D02*
G01X940945D01*
X929134Y807087D02*
G01Y830709D01*
X917323Y1267717D02*
G01X940945D01*
X929134Y1255906D02*
G01Y1279528D01*
X1338583Y818898D02*
G01X1362205D01*
X1350394Y807087D02*
G01Y830709D01*
X920866Y820079D02*
G01X920906D01*
X920866D02*
G01X921063D01*
G54D44*
X1072638Y1141929D02*
G01X1080108D01*
X1081737Y1140300*
X1087303*
X1093772Y1133831*
Y1132212*
X1097638Y1128346*
G54D16*
X1251575Y1067717D02*
G01Y1073775D01*
X1256400Y1078600*
Y1088189*
X1162402Y1088583D02*
G01X1173817D01*
X1175000Y1087400*
X1191100*
X1233000Y1089370D02*
G01X1248425D01*
X1249606Y1088189*
X1256400*
X1086691Y1151891D02*
G01X1090983Y1147600D01*
X1128000*
X1139200Y1136400*
X1147100*
X1150100Y1133400*
Y1118400*
X1152200Y1116300*
X1156800*
G54D42*
X1066900Y1030300D02*
G01X1070444Y1026756D01*
X1074221*
X1076246Y1028780*
X1086856*
X1090220Y1032144*
X1092722*
X1095864Y1029002*
X1103324*
X1107371Y1024956*
X1109226*
X1113005Y1028735*
X1145335*
X1152200Y1035600*
X1059252Y1020276D02*
G01X1065824D01*
X1066300Y1019800*
X1117824*
X1118300Y1020276*
X1119685*
X1062992Y1025787D02*
G01X1067066D01*
X1068570Y1024283*
X1074982*
X1075743Y1025044*
X1080753*
X1082387Y1023410*
X1092370*
X1093905Y1024944*
X1099439*
Y1024944D02*
G01X1103427Y1020956D01*
X1113119*
X1115604Y1023441*
X1148016*
X1151181Y1020276*
X1075700Y1030900D02*
G01X1077800Y1033000D01*
X1080000*
X1080100Y1032900*
X1082113*
X1083858Y1034646*
X1091500Y1029300D02*
G01X1093813Y1026987D01*
X1102126*
X1106157Y1022956*
X1110431*
X1113944Y1026468*
X1154568*
X1162800Y1034700*
X1086600Y1025400D02*
G01X1090015D01*
X1090559Y1025944*
X1100927*
X1104916Y1021956*
X1111654*
X1114139Y1024441*
X1176109*
X1190750Y1009800*
X1200200*
X1119685Y1020276D02*
G01X1121709Y1022300D01*
X1136558*
X1138583Y1020276*
X1151181D02*
G01X1153346Y1022441D01*
X1158465*
X1160630Y1020276*
X1203300Y1013600D02*
G01Y1026900D01*
X1206200Y1029800*
X1065739Y1037461D02*
G01X1072078Y1043800D01*
X1094833*
X1098500Y1047467*
Y1052708*
X1102392Y1056600*
X1103847*
X1105147Y1055300*
X1145813*
X1148613Y1058100*
X1155500*
X1065739Y1037461D02*
G01X1065900Y1037300D01*
X1067000Y1033000D02*
G01X1068426Y1034426D01*
Y1035241*
X1075685Y1042500*
X1096015*
X1103200Y1049685*
Y1051429*
X1105771Y1054000*
X1149593*
X1149993Y1054400*
X1156300*
X1062000Y1033700D02*
G01X1064300Y1031400D01*
Y1030292*
X1068836Y1025756*
X1074838*
X1076667Y1027585*
X1087126*
X1090685Y1031144*
X1092286*
X1095435Y1027994*
X1102725*
X1106764Y1023956*
X1109828*
X1113474Y1027602*
X1147902*
X1157500Y1037200*
X1064800Y1034600D02*
G01X1064900D01*
Y1032300*
X1066900Y1030300*
X1080500Y1037908D02*
G01Y1036462D01*
X1080800Y1036162*
Y1034800*
X1080900*
X1080500Y1037908D02*
G01X1083792Y1041200D01*
X1096129*
X1104500Y1049571*
Y1051315*
X1105885Y1052700*
X1147391*
X1148691Y1051400*
X1150500*
X1086811Y1059252D02*
G01X1088663Y1057400D01*
X1094340*
X1095440Y1058500*
X1100200*
X1082400Y1037200D02*
G01X1085400Y1040200D01*
X1096564*
X1104464Y1048100*
X1107091*
X1110491Y1051500*
X1139588*
X1141088Y1050000*
X1142700*
X1083858Y1034646D02*
G01Y1036014D01*
X1084250Y1036406*
Y1037358*
X1086064Y1039172*
X1101187*
X1106852Y1044838*
Y1046271*
X1110181Y1049600*
X1117600*
X1120100Y1047100*
X1124400*
X1125300Y1048000*
X1126500*
X1128100Y1049600*
X1138600*
X1077953Y1055906D02*
G01Y1060553D01*
X1081967Y1064567*
X1138780*
X1101575Y1034646D02*
G01X1104254D01*
X1109400Y1029500*
X1135039Y1036614D02*
G01X1138925Y1040500D01*
X1151085*
X1153076Y1042490*
X1156001*
X1156691Y1041800*
X1159300*
X1108858Y1045669D02*
G01X1112018Y1042510D01*
X1150196*
X1152226Y1044541*
X1154705*
X1157855Y1047690*
X1162315*
X1163196Y1046810*
X1172517*
X1173897Y1048190*
X1180465*
X1182305Y1046350*
X1192650*
X1196900Y1042100*
X1123300Y1045100D02*
G01X1123400Y1045200D01*
X1124300*
X1124400Y1045100*
X1126200Y1046900*
X1128890*
X1129700Y1047710*
X1134074*
X1137274Y1044510*
X1141524*
X1142864Y1045849*
Y1046259*
X1144466Y1047862*
X1147755*
X1148983Y1049090*
X1152158*
X1152948Y1048300*
X1154300*
Y1048200*
X1129134Y1036614D02*
G01X1134020Y1041500D01*
X1150671*
X1152661Y1043490*
X1156862*
X1157016Y1043644*
X1162465*
X1163196Y1042913*
X1166929*
X1115000Y1036600D02*
G01X1116699Y1034901D01*
Y1033893*
X1118892Y1031700*
X1142809*
X1147400Y1036291*
Y1037108*
X1148792Y1038500*
X1150940*
X1151940Y1037500*
X1155160*
X1155652Y1037992*
X1119300Y1033900D02*
G01X1122962D01*
X1124107Y1032756*
X1142451*
X1146100Y1036406*
Y1037223*
X1148378Y1039500*
X1152085*
X1153076Y1038510*
X1154724*
X1156315Y1040100*
X1158264*
X1158305Y1040059*
X1158632*
X1158735Y1039956*
X1160064*
X1161025Y1040916*
X1173298*
X1173990Y1041608*
X1181276*
X1183071Y1039813*
Y1039764*
X1127100Y1045000D02*
G01X1128590Y1043510D01*
X1145413*
X1149993Y1048090*
X1151734*
X1153468Y1046356*
X1155085*
X1157420Y1048690*
X1165762*
X1166643Y1047810*
X1171714*
X1173094Y1049190*
X1180941*
X1182475Y1047656*
X1190803*
X1191037Y1047890*
X1199424*
X1201024Y1046291*
Y1045576*
X1202400Y1044200*
X1155652Y1037992D02*
G01X1156760Y1039100D01*
X1157911*
X1158011Y1039000*
X1158278*
X1158378Y1038900*
X1160457*
X1161321Y1039764*
X1180512*
X1183071D02*
G01Y1037992D01*
X1174200Y1044900D02*
G01X1176888D01*
X1177588Y1044200*
X1183100*
X1166929Y1042913D02*
G01X1170817D01*
X1170930Y1042800*
X1181695*
X1184295Y1040200*
X1199846*
X1201955Y1042310*
X1202490*
X1202500Y1042300*
X1203108*
X1204200Y1043392*
X1204244Y1043436D02*
G01X1204200Y1043392D01*
X1206200Y1041392*
Y1029800*
X1202600Y1048900D02*
G01X1204244Y1047256D01*
Y1043436*
X1039173Y1094291D02*
G01X1055512D01*
X1064961Y1093701D02*
G01X1067323D01*
X1069685Y1091339*
X1087402*
X1088386Y1092323*
X1094882*
X1097441Y1094882*
X1036900Y1082600D02*
G01X1043500Y1076000D01*
X1056200*
Y1083200*
X1059400Y1086400*
X1076900*
X1078600Y1084700*
X1079000*
X1080300Y1083400*
X1041535Y1109252D02*
G01X1049244D01*
X1049292Y1109300*
X1057000*
X1043504Y1107283D02*
G01X1062783D01*
X1064800Y1109300*
X1066535Y1091142D02*
G01X1067900D01*
X1068742Y1090300*
X1131100*
X1135200Y1094400*
X1144000*
X1084100Y1082100D02*
G01X1090700Y1088700D01*
X1159300*
X1161500Y1086500*
X1166500*
X1166800Y1086800*
X1173700*
X1177400Y1083100*
X1207600*
X1213500Y1077200*
X1216900*
X1218400Y1078700*
X1227200*
X1228400Y1079900*
X1230300*
X1100600Y1098800D02*
G01X1107700Y1091700D01*
X1130900*
X1135100Y1095900*
X1136907*
X1137907Y1096900*
Y1099300*
X1088583Y1083661D02*
G01X1092621Y1087700D01*
X1158800*
X1161413Y1085087*
X1166613*
X1166900Y1084800*
X1171000*
X1083900Y1094700D02*
G01X1092731D01*
X1096260Y1098228*
X1092300Y1079600D02*
G01X1094012D01*
X1094812Y1080400*
X1096944*
X1100244Y1077100*
X1109800*
X1112700Y1080000*
X1083900Y1105200D02*
G01X1106500D01*
X1108300Y1103400*
X1120200*
X1123100Y1106300*
X1156800*
X1083900Y1107900D02*
G01X1121000D01*
X1121400Y1108300*
X1157700*
X1162200Y1103800*
Y1102600*
X1170100Y1094700*
X1174300*
X1175000Y1095400*
X1182500*
X1183300Y1096200*
X1236331*
X1239000Y1098869*
X1101100Y1080000D02*
G01X1104071D01*
X1104971Y1079100*
X1108100*
X1087598Y1078740D02*
G01X1090358Y1081500D01*
X1094697*
X1094797Y1081400*
X1097695*
X1099095Y1080000*
X1101100*
X1137907Y1099300D02*
G01X1139800D01*
X1142110Y1096990*
X1164274*
X1168564Y1092700*
X1175234*
X1175923Y1093389*
X1183475*
X1183977Y1093890*
X1232313*
X1232703Y1093500*
X1248029*
X1249275Y1094746*
X1252304*
X1255640Y1091410*
X1257409*
X1258715Y1092717*
X1289232*
X1297300Y1100785*
Y1105961*
X1301181Y1109843*
X1137800Y1099300D02*
G01X1137907D01*
X1113800Y1075300D02*
G01X1117412D01*
X1117812Y1075700*
X1130818*
X1136811Y1081693*
X1125000Y1077700D02*
G01X1126100Y1078800D01*
X1129981*
X1132874Y1081693*
X1123031Y1083661D02*
G01X1124000Y1084630D01*
Y1085060*
X1125640Y1086700*
X1149758*
X1150631Y1085827*
X1156693*
X1125000Y1081693D02*
G01Y1084646D01*
X1125984Y1085630*
X1144685*
X1146654Y1083661*
X1144000Y1094400D02*
G01X1145490Y1092910D01*
X1158810*
X1159090Y1093190*
X1166660*
X1168150Y1091700*
X1175648*
X1176326Y1092377*
X1183878*
X1184391Y1092890*
X1215208*
X1218288Y1089810*
X1220324*
X1221779Y1091264*
Y1091371*
X1223141Y1092733*
X1232056*
X1232869Y1091920*
X1249400*
X1250394Y1092913*
X1168700Y1108500D02*
G01X1170600Y1110400D01*
X1182008*
X1182041Y1110433*
X1189567*
X1172600Y1108500D02*
G01X1177721D01*
X1177757Y1108465*
X1205709*
X1174200Y1106200D02*
G01X1180323D01*
X1182390Y1104134*
X1209646*
X1167500Y1103600D02*
G01X1169580D01*
X1170539Y1104559*
X1173062*
X1173254Y1104367*
X1174962*
X1175153Y1104559*
X1180323*
X1182083Y1102800*
X1188025*
X1188857Y1101969*
X1217717*
X1167500Y1099900D02*
G01X1171000D01*
X1171400Y1099500*
X1178200*
X1179100Y1100400*
X1180900*
X1182200Y1099100*
X1222300*
X1225169Y1101969*
X1227362*
X1173300Y1096700D02*
G01X1174959D01*
X1175259Y1096400*
X1181018*
X1182118Y1097500*
X1226831*
X1231299Y1101969*
X1156800Y1106300D02*
G01X1169400Y1093700D01*
X1174800*
X1175500Y1094400*
X1183000*
X1183500Y1094900*
X1232800*
X1233200Y1094500*
X1245862*
X1249000Y1097638*
X1250394*
X1172047Y1102559D02*
G01X1174106Y1100500D01*
X1177312*
X1178212Y1101400*
X1188011*
X1189311Y1100100*
X1218456*
X1220000Y1101644*
Y1101648*
X1220321Y1101969*
X1221654*
X1205709Y1108465D02*
G01X1210630D01*
X1211614Y1109449*
X1213583*
X1209646Y1104134D02*
G01X1215157D01*
X1217520Y1106496*
X1239000Y1098869D02*
G01X1240722Y1100591D01*
X1250394*
X1239000Y1098869D02*
G01X1239834Y1098035D01*
X1239965*
X1241500Y1096500*
X1020472Y1127953D02*
G01X1023228Y1125197D01*
X1039173*
X1020472Y1118504D02*
G01X1036900D01*
X1020472Y1145669D02*
G01X1029200D01*
X1020472Y1136614D02*
G01X1043504D01*
X1029200Y1145700D02*
G01Y1145669D01*
X1040131*
X1041535Y1144265*
Y1140354*
X1034843Y1123031D02*
G01X1041631D01*
X1042700Y1124100*
X1077800*
X1078500Y1123400*
X1084500*
X1084800Y1123100*
X1086500*
X1048300Y1118100D02*
G01X1052500D01*
X1052600Y1118000*
X1069900*
X1071556Y1119656*
X1085800*
Y1119900*
X1028937Y1114370D02*
G01X1037402D01*
X1041142Y1118110*
X1048300*
Y1118100*
X1035300Y1130600D02*
G01X1064527D01*
X1068827Y1134900*
X1086691*
X1087491Y1134100*
X1089300*
X1031200Y1130600D02*
G01X1035300D01*
X1037600Y1127400D02*
G01X1039800Y1129600D01*
X1076300*
X1078500Y1127400*
X1085700*
X1086000Y1127700*
X1090400*
X1063900Y1141900D02*
G01X1068254D01*
X1068283Y1141929*
X1072638*
X1086614Y1151969D02*
G01X1086691Y1151891D01*
X1107283Y1115945D02*
G01X1138955D01*
X1141500Y1113400*
X1163800*
X1168700Y1108500*
X1167500Y1150600D02*
G01X1168852D01*
X1169252Y1151000*
X1185149*
X1186349Y1149800*
X1203934*
X1206496Y1152362*
X1171600Y1136000D02*
G01Y1135800D01*
X1172962*
X1173462Y1135300*
X1177713*
X1179154Y1133858*
X1193898*
X1167500Y1133200D02*
G01X1169582D01*
X1170482Y1134100*
X1177149*
X1179249Y1132000*
X1195840*
X1196440Y1132600*
X1197800*
X1167500Y1129500D02*
G01X1171026D01*
X1172426Y1128100*
X1189317*
X1190717Y1126700*
X1202292*
X1202884Y1127293*
X1206623*
X1207677Y1128346*
X1169685Y1126181D02*
G01X1176592D01*
X1177411Y1127000*
X1186809*
X1188109Y1125700*
X1208222*
X1208703Y1126181*
X1215551*
X1167520Y1124213D02*
G01X1179637D01*
X1180850Y1123000*
X1185485*
X1186697Y1124213*
X1219685*
X1168700Y1121800D02*
G01Y1121900D01*
X1170053*
X1170253Y1122100*
X1178199*
X1178299Y1122000*
X1186769*
X1186869Y1122100*
X1190100*
X1167400Y1119100D02*
G01Y1119200D01*
X1168787*
X1170661Y1121074*
X1173539*
X1175716Y1118898*
X1229331*
X1181800Y1114400D02*
G01X1185159D01*
X1185189Y1114370*
X1195866*
X1175700Y1113100D02*
G01X1178738D01*
X1179438Y1112400*
X1187742*
X1187744Y1112402*
X1199803*
X1177700Y1138300D02*
G01X1179300Y1136700D01*
X1186000*
X1187700Y1138400*
X1199400*
X1199700Y1138100*
X1210630*
Y1137992*
X1171800Y1140000D02*
G01X1174859D01*
X1175159Y1140300*
X1179150*
X1181750Y1137700*
X1184331*
X1186731Y1140100*
X1216500*
X1217630Y1141230*
X1227830*
X1228710Y1140350*
X1230200*
Y1140100*
X1153937Y1119488D02*
G01X1160415D01*
X1162703Y1117200*
X1168543*
X1170943Y1119600*
X1173257*
X1175757Y1117100*
X1220105*
X1233268Y1103937*
X1167520Y1143898D02*
G01X1169522Y1145900D01*
X1177662*
X1178762Y1144800*
X1191287*
X1192944Y1146457*
X1230315*
X1167520Y1147835D02*
G01X1169685Y1150000D01*
X1177562*
X1178762Y1148800*
X1227900*
X1230300Y1151200*
X1156496Y1142913D02*
G01X1161862D01*
X1162876Y1141900*
X1200168*
X1202756Y1144488*
X1172047Y1132087D02*
G01X1174134Y1130000D01*
X1186506*
X1187206Y1130700*
X1200318*
X1200704Y1130315*
X1203740*
X1193898Y1133858D02*
G01X1195840D01*
X1196482Y1134500*
X1202841*
X1203341Y1134000*
X1237598*
X1240606Y1137008*
X1243898*
X1197800Y1132600D02*
G01X1237844D01*
X1239693Y1134449*
X1242717*
X1203740Y1130315D02*
G01X1237205D01*
X1238780Y1131890*
X1241535*
X1207677Y1128346D02*
G01X1237008D01*
X1237992Y1129331*
X1240354*
X1215551Y1126181D02*
G01X1236614D01*
X1237205Y1126772*
X1239173*
X1219685Y1124213D02*
G01X1237992D01*
X1190100Y1122100D02*
G01X1198377D01*
X1199611Y1120866*
X1225394*
X1234055*
X1234843Y1121654*
X1236811*
X1195866Y1114370D02*
G01X1209646D01*
X1199803Y1112402D02*
G01X1211614D01*
X1210630Y1137992D02*
G01X1228008D01*
X1228700Y1137300*
X1233000*
X1240354Y1129331D02*
G01X1244633D01*
X1244664Y1129300*
X1249100*
X1229331Y1118898D02*
G01X1235630Y1119094D01*
X1255315Y1151181D02*
G01X1257283Y1153150D01*
X1305512*
X1017874Y1190472D02*
G01X1018128D01*
X1024300Y1184300*
Y1172628*
X1031400Y1165528*
X1035200*
X1042900Y1173228*
X1046260*
X1046300Y1158600D02*
G01X1049459D01*
X1049959Y1158100*
X1060800*
X1061558Y1158858*
X1070276*
X1047800Y1175500D02*
G01X1074930D01*
X1082608Y1167822*
Y1166605*
X1083661Y1165551*
X1032480Y1173228D02*
G01X1038539Y1179287D01*
Y1179362*
X1053478Y1194300*
X1060757*
X1065748Y1199291*
X1030906Y1170669D02*
G01X1032529D01*
X1042100Y1180240*
Y1181508*
X1045892Y1185300*
X1057783*
X1061775Y1189291*
X1065748*
X1046260Y1173228D02*
G01X1051181D01*
X1051378Y1173425*
X1075591*
X1081496Y1167520*
Y1164567*
X1082480Y1163583*
X1084843*
X1085630Y1164370*
X1091535*
X1098819Y1157087*
X1129331*
X1146654Y1139764*
X1156496*
X1065748Y1189291D02*
G01X1065945Y1189173D01*
X1072047Y1183071*
X1086220*
X1090551Y1178740*
X1093504*
X1085630Y1180709D02*
G01Y1178101D01*
X1094430Y1169300*
X1113000*
X1114300Y1168000*
Y1167800*
X1087598Y1178740D02*
G01X1095939Y1170400D01*
X1120215*
X1125000Y1165615*
Y1165085*
X1128785Y1161300*
X1152547*
X1155247Y1164000*
X1160479*
X1170279Y1154200*
X1192467*
X1193867Y1152800*
X1197837*
X1200200Y1155163*
Y1155615*
X1201142Y1156558*
X1083661Y1165551D02*
G01X1093788D01*
X1101139Y1158200*
X1129749*
X1130049Y1157900*
X1131500*
X1092717Y1190551D02*
G01X1102009D01*
X1103205Y1189356*
X1135706*
X1136327Y1189977*
X1139991*
X1140587Y1190573*
X1144221*
X1144692Y1191044*
X1151556*
X1151900Y1190700*
X1172640*
X1172789Y1190551*
X1174803*
X1076181Y1185039D02*
G01X1085827D01*
X1089961Y1180906*
X1091535*
X1074213Y1188976D02*
G01X1085039D01*
X1089961Y1184055*
X1095079*
X1097441Y1181693*
Y1178740*
X1072244Y1187008D02*
G01X1085433D01*
X1089567Y1182874*
X1093504*
X1095472Y1180906*
X1070276Y1190945D02*
G01X1084646D01*
X1090354Y1185236*
X1096260*
X1099409Y1182087*
Y1180906*
X1134843Y1185266D02*
G01X1134356Y1184779D01*
Y1183236*
X1135492Y1182100*
X1141298*
X1143398Y1184200*
X1154794*
X1156294Y1185700*
X1164894*
X1165894Y1184700*
X1181123*
X1181923Y1185500*
X1195699*
X1197599Y1187400*
X1200729*
X1205709Y1182420*
Y1178543*
X1114300Y1167800D02*
G01X1116513Y1165587D01*
X1117487*
X1123073Y1160000*
X1142400*
X1145200Y1157200*
X1165846*
X1169946Y1153100*
X1191256*
X1192556Y1151800*
X1199044*
X1203937Y1156693*
X1138100Y1167800D02*
G01X1141000Y1170700D01*
X1153570*
X1155570Y1172700*
X1176900*
X1180800Y1168800*
X1109252Y1178740D02*
G01X1116492Y1171500D01*
X1121832*
X1122632Y1170700*
X1135200*
X1138100Y1167800*
X1113189Y1178740D02*
G01X1114144Y1177785D01*
Y1177699*
X1119244Y1172600*
X1123342*
X1124242Y1171700*
X1153155*
X1155155Y1173700*
X1177443*
X1180443Y1170700*
X1181508*
X1182700Y1169508*
Y1167350*
X1115157Y1180709D02*
G01Y1178101D01*
X1119458Y1173800*
X1124387*
X1125487Y1172700*
X1151708*
X1153708Y1174700*
X1177921*
X1180921Y1171700*
X1181922*
X1183800Y1169822*
Y1167402*
X1184100Y1167102*
Y1165400*
X1117126Y1178740D02*
G01X1120666Y1175200D01*
X1125005*
X1126505Y1173700*
X1150670*
X1152670Y1175700*
X1182615*
X1185100Y1173215*
Y1167885*
X1186585Y1166400*
X1190600*
X1120079Y1178740D02*
G01X1122419Y1176400D01*
X1125822*
X1127522Y1174700*
X1149632*
X1151632Y1176700*
X1183029*
X1192500Y1167229*
Y1164300*
X1123031Y1178740D02*
G01X1125272D01*
X1128312Y1175700*
X1149004*
X1151004Y1177700*
X1183800*
X1193389Y1168110*
X1195079*
X1125000Y1180709D02*
G01X1129009Y1176700D01*
X1143744*
X1147244Y1180200*
X1157798*
X1159298Y1181700*
X1161259*
X1164259Y1178700*
X1184819*
X1188219Y1175300*
X1190645*
X1197835Y1168110*
X1126969Y1183268D02*
G01Y1180723D01*
X1128136Y1179556*
X1129732*
X1130866Y1180690*
X1132555*
X1134145Y1179100*
X1144388*
X1146488Y1181200*
X1157296*
X1158796Y1182700*
X1161918*
X1163218Y1181400*
X1182192*
X1183236Y1182444*
X1184764*
X1185996Y1181212*
Y1179900*
X1189197Y1176699*
X1198599*
X1199803Y1177904*
Y1180512*
X1128900Y1181400D02*
G01Y1181500D01*
X1130247*
X1130447Y1181700*
X1132993*
X1134593Y1180100*
X1143405*
X1145505Y1182200*
X1156530*
X1158030Y1183700*
X1162850*
X1163850Y1182700*
X1182046*
X1182846Y1183500*
X1186600*
X1186800Y1183300*
X1198400*
X1199500Y1184400*
X1134500Y1191200D02*
G01X1136252D01*
X1136442Y1191010*
X1139474*
X1140079Y1191614*
X1143813*
X1144248Y1192050*
X1152984*
X1153534Y1192600*
X1157900*
X1130900Y1183600D02*
G01X1132541D01*
X1135041Y1181100*
X1142423*
X1144523Y1183200*
X1155764*
X1157264Y1184700*
X1163783*
X1164783Y1183700*
X1181600*
X1182400Y1184500*
X1196450*
X1198350Y1186400*
X1200315*
X1203740Y1182974*
Y1180512*
X1134843Y1186614D02*
G01Y1185266D01*
X1136200Y1184000D02*
G01X1136700Y1183500D01*
X1141200*
X1142900Y1185200*
X1154300*
X1155800Y1186700*
X1165400*
X1166400Y1185700*
X1180700*
X1181500Y1186500*
X1195200*
X1197100Y1188400*
X1201200*
X1211057Y1178543*
X1215551*
X1138700Y1185400D02*
G01X1141600D01*
X1142400Y1186200*
X1153800*
X1155300Y1187700*
X1165900*
X1166900Y1186700*
X1180200*
X1181100Y1187600*
X1194800*
X1196600Y1189400*
X1201700*
X1206800Y1184300*
X1213731*
X1217520Y1180512*
X1141600Y1188500D02*
G01X1143300D01*
X1144500Y1187300*
X1153400*
X1154800Y1188700*
X1166400*
X1167400Y1187700*
X1179700*
X1180700Y1188700*
X1194400*
X1196100Y1190400*
X1202200*
X1203500Y1189100*
X1211600*
X1219488Y1181212*
Y1178543*
X1145500Y1189200D02*
G01X1153800D01*
X1154300Y1189700*
X1166900*
X1167900Y1188700*
X1179200*
X1180600Y1190100*
X1194300*
X1195600Y1191400*
X1202700*
X1202800Y1191300*
X1205700*
X1207300Y1192900*
X1210457*
X1221457Y1181900*
Y1180512*
X1147956Y1167964D02*
G01Y1166344D01*
X1148400Y1165900*
Y1164567*
X1148622*
X1182700Y1167350D02*
G01X1182256Y1166906D01*
Y1164636*
X1183392Y1163500*
X1185438*
X1186138Y1164200*
X1188100*
X1147956Y1167964D02*
G01X1149492Y1169500D01*
X1153785*
X1155985Y1171700*
X1165840*
X1174040Y1163500*
X1175654*
X1180354Y1158800*
X1194334*
X1198234Y1162700*
X1210326*
X1213178Y1165551*
X1217520*
X1149800Y1167200D02*
G01Y1167300D01*
X1151155*
X1152255Y1168400*
X1155024*
X1155824Y1167600*
X1168319*
X1173619Y1162300*
X1175323*
X1179823Y1157800*
X1194762*
X1198462Y1161500*
X1212560*
X1213855Y1162795*
X1217520*
X1151400Y1163600D02*
G01Y1166108D01*
X1152636Y1167344*
X1154404*
X1155348Y1166400*
X1167922*
X1173159Y1161163*
X1174811*
X1179474Y1156500*
X1193668*
X1195312Y1154856*
X1197064*
X1198147Y1155939*
Y1157869*
X1200317Y1160039*
X1217520*
X1153400Y1165500D02*
G01Y1165400D01*
X1154753*
X1155053Y1165100*
X1167615*
X1169323Y1163391*
Y1156588*
X1170712Y1155200*
X1193329*
X1194674Y1153856*
X1197478*
X1199150Y1155528*
Y1157458*
X1200236Y1158544*
X1209810*
X1211071Y1157283*
X1217520*
X1178100Y1168600D02*
G01X1181200Y1165500D01*
Y1164278*
X1183178Y1162300*
X1193244*
X1197044Y1166100*
X1203792*
X1210192Y1172500*
X1230000*
X1234100Y1168400*
X1179200Y1164300D02*
G01X1182700Y1160800D01*
X1193494*
X1197694Y1165000*
X1206306*
X1212806Y1171500*
X1228300*
X1234100Y1165700*
X1175394Y1167913D02*
G01X1176972Y1166336D01*
X1177164*
X1179200Y1164300*
X1172638Y1167717D02*
G01X1174717Y1165637D01*
X1174990*
X1180827Y1159800*
X1193912*
X1198012Y1163900*
X1208311*
X1214911Y1170500*
X1225215*
X1229374Y1166341*
Y1165326*
X1232500Y1162200*
X1167100Y1153300D02*
G01X1167258Y1153458D01*
X1168715Y1152000*
X1189149*
X1190349Y1150800*
X1200997*
X1203937Y1153740*
X1192300Y1164300D02*
G01X1192500D01*
X1201000Y1156700D02*
G01X1201142Y1156558D01*
X1232500Y1162200D02*
G01X1236100D01*
X1252559Y1152559D02*
G01X1253988D01*
X1255829Y1154400*
X1300384*
X1300984Y1155000*
X1313354*
X1315205Y1153150*
X1323622*
X1237800Y1167700D02*
G01X1247400D01*
X1007874Y1200472D02*
G01X1013097Y1205803D01*
Y1215250*
X1007874Y1220472D02*
G01X1040502Y1253100D01*
X1066030*
X1075230Y1262300*
X1225554*
X1251575Y1236279*
Y1231496*
X1007874Y1220472D02*
G01X1013097Y1215250D01*
X1090157Y1205118D02*
G01X1104087D01*
X1106005Y1203200*
X1120129*
X1120929Y1204000*
X1127680*
X1129380Y1205700*
X1133200*
X1087795Y1201969D02*
G01X1118898D01*
X1120895Y1199972*
X1130057*
X1130219Y1199810*
X1134983*
X1135714Y1200541*
X1136741*
X1138000Y1201800*
X1090157Y1198819D02*
G01X1104081D01*
X1106000Y1196900*
X1120128*
X1121028Y1197800*
X1133115*
X1134058Y1196858*
X1134100Y1196900*
X1087795Y1195669D02*
G01X1118898D01*
X1120767Y1193800*
X1123169*
X1123669Y1194300*
X1131400*
X1090157Y1192520D02*
G01X1109069D01*
X1110989Y1190600*
X1123069*
X1123669Y1191200*
X1134500*
X1090157Y1230315D02*
G01X1118902D01*
X1120817Y1228400*
X1123622*
X1125522Y1230300*
X1134300*
X1087795Y1220866D02*
G01X1116339D01*
X1118307Y1218898*
X1120079*
X1120866Y1219685*
X1123622*
X1124803Y1220866*
X1131890*
X1090157Y1217717D02*
G01X1118898D01*
X1120866Y1215748*
X1122835*
X1124803Y1217717*
X1134252*
X1087795Y1214567D02*
G01X1116535D01*
X1118504Y1212598*
X1120079*
X1120866Y1213386*
X1123622*
X1124803Y1214567*
X1131890*
X1090157Y1211417D02*
G01X1118701D01*
X1120669Y1209449*
X1122835*
X1124803Y1211417*
X1134252*
X1087795Y1208268D02*
G01X1126251D01*
X1127384Y1209400*
X1131900*
X1133200Y1205700D02*
G01X1134684D01*
X1135275Y1205110*
X1139491*
X1140525Y1206144*
X1143456*
X1143950Y1205650*
X1149369*
X1149901Y1205118*
X1157874*
X1138000Y1201800D02*
G01X1139558D01*
X1140182Y1202424*
X1143139*
X1144360Y1203644*
X1146789*
X1148465Y1201969*
X1155512*
X1134100Y1196900D02*
G01X1134142Y1196858D01*
X1135085Y1197800*
X1135976*
X1136176Y1198000*
X1140429*
X1141029Y1197400*
X1143015*
X1144433Y1198819*
X1157874*
X1131400Y1194300D02*
G01Y1194056D01*
X1135310*
X1137244Y1195990*
X1139013*
X1141347Y1193656*
X1142964*
X1143950Y1194642*
Y1194758*
X1144936Y1195744*
X1148116*
X1148191Y1195669*
X1155512*
X1119291Y1192520D02*
G01X1125598D01*
X1125662Y1192456*
X1132656*
X1133244Y1193044*
X1136032*
X1137066Y1192010*
X1138992*
X1139617Y1192635*
X1143388*
X1143825Y1193072*
X1144587*
X1145558Y1194042*
X1145700Y1193900*
X1150853*
X1150953Y1193800*
X1156371*
X1157071Y1194500*
X1172089*
X1172789Y1193800*
X1187894*
X1188494Y1194400*
X1190800*
X1191900Y1193300*
X1204100*
X1121654Y1195669D02*
G01X1126574D01*
X1127049Y1196144*
X1132206*
X1133294Y1195056*
X1134880*
X1136814Y1196990*
X1139669*
X1140266Y1196392*
X1141192*
X1142142Y1195442*
X1142200Y1195500*
X1142364Y1195336*
X1144629Y1197600*
X1156337*
X1157037Y1196900*
X1172097*
X1172797Y1197600*
X1187833*
X1188933Y1196500*
X1199600*
X1119291Y1198819D02*
G01X1126738D01*
X1126747Y1198810*
X1135455*
X1136145Y1199500*
X1138897*
X1140789Y1201393*
X1143624*
X1143931Y1201700*
X1145300*
Y1201800*
X1146789*
X1148489Y1200100*
X1156399*
X1156999Y1200700*
X1172135*
X1172735Y1200100*
X1187895*
X1188495Y1200700*
X1193332*
X1194832Y1199200*
X1199400*
X1121654Y1201969D02*
G01X1127649D01*
X1129480Y1203800*
X1139881*
X1140381Y1204300*
X1142000*
X1143500*
X1143844Y1204644*
X1147832*
X1148511Y1203965*
X1156271*
X1156962Y1203274*
X1172172*
X1172710Y1203813*
X1187920*
X1188458Y1203274*
X1193688*
X1194014Y1203600*
X1198900*
X1136900Y1207600D02*
G01X1138400D01*
X1138800Y1207200*
X1143494*
X1143794Y1207500*
X1145400*
X1119291Y1205118D02*
G01X1124958D01*
X1127384Y1207544*
X1133500*
Y1207600*
X1136900*
X1145400Y1207500D02*
G01X1145542Y1207642D01*
X1146485Y1206700*
X1150861*
X1151161Y1206400*
X1156400*
X1157000Y1207000*
X1172134*
X1172734Y1206400*
X1187896*
X1191296Y1209800*
X1202000*
X1134300Y1230300D02*
G01X1135758D01*
X1136258Y1229800*
X1139601*
X1141001Y1228400*
X1152219*
X1154134Y1230315*
X1157874*
X1131890Y1220866D02*
G01X1136113D01*
X1137024Y1219956*
X1144056*
X1144722Y1220622*
X1153105*
X1153349Y1220866*
X1155512*
X1134252Y1217717D02*
G01X1138747D01*
X1138974Y1217944*
X1143675*
X1144864Y1216756*
X1151494*
X1152455Y1217717*
X1157874*
X1131890Y1214567D02*
G01X1140745D01*
X1141112Y1214200*
X1148710*
X1149077Y1214567*
X1155512*
X1134252Y1211417D02*
G01X1137844D01*
X1138617Y1212190*
X1142534*
X1144368Y1210356*
X1152754*
X1153815Y1211417*
X1157874*
X1121654D02*
G01X1123228D01*
X1124411Y1212600*
X1132679*
X1133379Y1213300*
X1137788*
X1137888Y1213200*
X1142948*
X1143948Y1212200*
X1145300*
X1150458*
X1150758Y1212500*
X1156201*
X1157001Y1213300*
X1172133*
X1174016Y1211417*
X1189370*
X1119291Y1214567D02*
G01X1123228D01*
X1125161Y1216500*
X1132713*
X1133413Y1215800*
X1138105*
X1138405Y1216100*
X1142900*
Y1215900*
X1144300*
X1144500Y1215700*
X1153208*
X1154008Y1216500*
X1156335*
X1158268Y1214567*
X1187008*
X1121654Y1217717D02*
G01X1123228D01*
X1124381Y1218869*
X1132649*
X1133340Y1219561*
X1135871*
X1136482Y1218950*
X1144095*
X1144445Y1218600*
X1145800*
X1150220*
X1150520Y1218900*
X1156302*
X1157002Y1219600*
X1172034*
X1173917Y1217717*
X1189370*
X1119291Y1220866D02*
G01X1122354D01*
X1124288Y1222800*
X1136024*
X1137024Y1221800*
X1142800*
X1152740*
X1153740Y1222800*
X1156329*
X1158263Y1220866*
X1186811*
X1121654Y1230315D02*
G01X1123622D01*
X1124707Y1231400*
X1132600*
X1133344Y1232144*
X1135629*
X1136673Y1231100*
X1140265*
X1141050Y1230315*
X1145276*
X1151969*
X1153150Y1231496*
X1156299*
X1157087Y1232283*
X1158661*
X1160630Y1230315*
X1189370*
X1131900Y1209400D02*
G01X1135364D01*
X1135554Y1209590*
X1138610*
X1139990Y1208210*
X1142817*
X1143951Y1209344*
X1149633*
X1150710Y1208268*
X1155512*
X1199600Y1196500D02*
G01X1203700D01*
X1204800Y1195400*
X1208900*
X1199400Y1199200D02*
G01X1201900Y1201700D01*
X1203600*
X1198900Y1203600D02*
G01X1204541D01*
X1206241Y1205300*
X1208000*
X1202000Y1209800D02*
G01X1203426Y1208374D01*
X1204176*
X1205150Y1207400*
X1208508*
X1209900Y1206008*
Y1203300*
X1209800D02*
G01X1209900D01*
X1202000Y1229700D02*
G01X1203616D01*
X1205116Y1231200*
X1211205*
X1212705Y1232700*
X1214430*
X1215930Y1231200*
X1221637*
X1223508Y1233071*
X1241535*
X1199606Y1220866D02*
G01X1215363D01*
X1226829Y1209400*
X1232726*
X1238583Y1203543*
X1199606Y1217717D02*
G01X1216055D01*
X1226072Y1207700*
X1231670*
X1235827Y1203543*
X1201200Y1214600D02*
G01X1214786D01*
X1222986Y1206400*
X1230708*
X1232200Y1204908*
Y1204557*
X1233142Y1203615*
X1211900Y1211700D02*
G01X1219400Y1204200D01*
X1230300*
X1199400Y1212500D02*
G01X1207454D01*
X1208254Y1211700*
X1211900*
X1189370Y1230315D02*
G01X1191885Y1227800D01*
X1203414*
X1205814Y1230200*
X1211700*
X1212300Y1230800*
X1213700*
X1233071Y1203543D02*
G01X1233142Y1203615D01*
X1087795Y1258661D02*
G01X1103150D01*
X1105011Y1256800*
X1120186*
X1121286Y1257900*
X1129383*
X1130183Y1258700*
X1131900*
X1090157Y1255512D02*
G01X1118898D01*
X1120742Y1253668*
X1123353*
X1125185Y1255500*
X1130359*
X1130704Y1255844*
X1133107*
X1133163Y1255900*
X1134500*
Y1255700*
X1087795Y1252362D02*
G01X1103150D01*
X1105012Y1250500*
X1120185*
X1120885Y1251200*
X1123985*
X1125785Y1253000*
X1131900*
X1090157Y1249213D02*
G01X1118898D01*
X1120742Y1247368*
X1122000*
Y1247334*
X1122034Y1247300*
X1129500*
X1132200Y1250000*
X1134800*
X1087795Y1246063D02*
G01X1103150D01*
X1105013Y1244200*
X1120184*
X1120884Y1244900*
X1130100*
X1131300Y1246100*
X1135500*
X1087795Y1239764D02*
G01X1103150D01*
X1105013Y1237900*
X1120183*
X1120883Y1238600*
X1126442*
X1127242Y1239400*
X1131900*
X1090157Y1236614D02*
G01X1118898D01*
X1120812Y1234700*
X1123303*
X1124803Y1236200*
X1134300*
Y1236000*
X1087795Y1233465D02*
G01X1103150D01*
X1105014Y1231600*
X1120183*
X1120983Y1232400*
X1126523*
X1127423Y1233300*
X1131700*
X1131900Y1258700D02*
G01X1137362D01*
X1137507Y1258556*
X1143806*
X1144294Y1259044*
X1150130*
X1150513Y1258661*
X1155512*
X1134500Y1255700D02*
G01X1140735D01*
X1141579Y1256544*
X1143674*
X1144863Y1255356*
X1151425*
X1151581Y1255512*
X1157874*
X1131900Y1253000D02*
G01Y1252800D01*
X1133405*
X1133449Y1252844*
X1148034*
X1148516Y1252362*
X1155512*
X1134800Y1250000D02*
G01X1138100D01*
X1140500Y1247600*
X1151000*
X1152613Y1249213*
X1157874*
X1135500Y1246100D02*
G01Y1246200D01*
X1136014*
X1138014Y1244200*
X1140147*
X1140847Y1244900*
X1152268*
X1153431Y1246063*
X1155512*
X1119291Y1252362D02*
G01X1123597D01*
X1125735Y1254500*
X1130800*
X1131145Y1254844*
X1132706*
X1133694Y1253856*
X1137993*
X1138838Y1254700*
X1142900*
Y1254500*
X1144300*
X1144500Y1254300*
X1156330*
X1157030Y1253600*
X1172104*
X1172804Y1254300*
X1187826*
X1189626Y1252500*
X1199600*
X1121654Y1255512D02*
G01X1123384D01*
X1124723Y1256850*
X1132754*
X1133448Y1257544*
X1144099*
X1144343Y1257300*
X1145700*
Y1257200*
X1150699*
X1151099Y1256800*
X1156406*
X1157006Y1257400*
X1172128*
X1172728Y1256800*
X1187902*
X1188502Y1257400*
X1193238*
X1195126Y1255512*
X1199606*
X1119291Y1258661D02*
G01X1120629D01*
X1122567Y1260600*
X1135444*
X1135644Y1260400*
X1142400*
X1149187*
X1149387Y1260600*
X1192006*
X1193945Y1258661*
X1199606*
X1131900Y1239400D02*
G01X1133629D01*
X1134157Y1238872*
X1137915*
X1139631Y1237156*
X1143679*
X1145623Y1239100*
X1152491*
X1153154Y1239764*
X1155512*
X1134300Y1236000D02*
G01X1136242D01*
X1137090Y1235151*
X1143899*
X1144594Y1234456*
X1151385*
X1153543Y1236614*
X1157874*
X1131700Y1233300D02*
G01Y1233100D01*
X1133041*
X1133086Y1233144*
X1136274*
X1137218Y1232200*
X1140986*
X1141730Y1231456*
X1143736*
X1144510Y1232230*
X1152309*
X1153544Y1233465*
X1155512*
X1119291D02*
G01X1124620D01*
X1126300Y1235144*
X1132506*
X1133503Y1234147*
X1137811*
X1138658Y1233300*
X1142900*
X1151804*
X1153904Y1235400*
X1156332*
X1158268Y1233465*
X1187008*
X1121654Y1236614D02*
G01X1123622D01*
X1124408Y1237400*
X1132800*
X1133244Y1237844*
X1136508*
X1138196Y1236156*
X1144108*
X1144252Y1236300*
X1145600*
X1151654*
X1153154Y1237800*
X1156304*
X1157004Y1238500*
X1172130*
X1174016Y1236614*
X1189370*
X1119291Y1239764D02*
G01X1123652D01*
X1125132Y1241244*
X1133470*
X1134823Y1239891*
X1139493*
X1140384Y1239000*
X1142900*
X1144400Y1240500*
X1152362*
X1153562Y1241700*
X1156331*
X1158268Y1239764*
X1187008*
X1145500Y1249500D02*
G01X1146400Y1250400D01*
X1156300*
X1157000Y1251100*
X1172100*
X1172700Y1250500*
X1187900*
X1188500Y1251100*
X1198300*
X1199600Y1249800*
X1121654Y1249213D02*
G01X1129800D01*
X1131687Y1251100*
X1133206*
X1133950Y1251844*
X1137710*
X1140744Y1248810*
X1142951*
X1143641Y1249500*
X1145500*
X1119291Y1246063D02*
G01X1129763D01*
X1131800Y1248100*
X1137343*
X1137371Y1248129*
X1139400Y1246100*
X1150952*
X1152852Y1248000*
X1156331*
X1157031Y1247300*
X1172103*
X1172803Y1248000*
X1187827*
X1188727Y1247100*
X1190600*
X1191300Y1246400*
X1203500*
X1141700Y1242900D02*
G01X1155105D01*
X1157005Y1244800*
X1158746*
X1158800Y1244746*
X1172183*
X1174016Y1242913*
X1189370*
X1121654D02*
G01X1129613D01*
X1131700Y1245000*
X1133700*
X1134700Y1244000*
X1136700*
X1137800Y1242900*
X1141700*
X1187008Y1233465D02*
G01X1192428D01*
X1194737Y1231156*
X1200356*
X1200750Y1231550*
X1203819*
X1204569Y1232300*
X1210786*
X1212186Y1233700*
X1214856*
X1215356Y1233200*
X1216700*
Y1233100*
X1187008Y1239764D02*
G01X1196976D01*
X1199440Y1237300*
X1209058*
X1212458Y1240700*
X1217788*
X1218134Y1240354*
X1220669*
X1200800Y1239300D02*
G01X1201500Y1240000D01*
X1202400Y1239100*
X1208847*
X1211447Y1241700*
X1217611*
X1218111Y1242200*
X1221580*
X1224803Y1238976*
X1239567*
X1202000Y1235400D02*
G01Y1235600D01*
X1209126*
X1213216Y1239690*
X1217310*
X1217995Y1239005*
X1219263*
X1221260Y1237008*
X1241535*
X1214800Y1236700D02*
G01X1215956D01*
X1217756Y1234900*
X1228746*
X1228886Y1235039*
X1239567*
X1199100Y1233000D02*
G01Y1232900D01*
X1200455*
X1200799Y1232556*
X1203294*
X1204239Y1233500*
X1210317*
X1211990Y1235173*
X1213273*
X1214800Y1236700*
X1189370Y1236614D02*
G01X1198166D01*
X1201225Y1233556*
X1202822*
X1203766Y1234500*
X1209647*
X1213837Y1238690*
X1215956*
X1216767Y1237879*
X1217633*
X1218701Y1236811*
X1199600Y1249800D02*
G01X1225200D01*
X1226378Y1248622*
X1203500Y1246400D02*
G01X1209430D01*
X1210730Y1247700*
X1216649*
X1217696Y1246654*
X1220866*
X1189370Y1242913D02*
G01X1200148D01*
X1202952Y1240110*
X1208443*
X1214023Y1245690*
X1215824*
X1218207Y1243307*
X1223228*
X1203600Y1242200D02*
G01X1206100Y1244700D01*
X1209144*
X1211144Y1246700*
X1216235*
X1218135Y1244800*
X1221867*
X1222267Y1245200*
X1237280*
X1241535Y1240945*
G54D63*
X1000000Y1015748D02*
G01X1175984D01*
Y1000000*
X1333465*
Y1265748*
X1000000*
Y1015748*
G54D70*
X1242200Y1021100D02*
G01X1251575Y1030375D01*
Y1058500*
Y1067717D02*
G01Y1058500D01*
X1260000*
X1263500Y1062000*
X1297500*
X1299000Y1060500*
Y1055000*
X1191100Y1087400D02*
G01X1193000D01*
X1195600Y1084800*
X1221000*
X1225570Y1089370*
X1233000*
G54D72*
X1017967Y868356D02*
G01X1016893Y867864D01*
X1016178Y866388*
X1015820Y863927*
Y862451*
X1016178Y859990*
X1016893Y858514*
X1017967Y858022*
X1018683*
X1019757Y858514*
X1020472Y859990*
X1020830Y862451*
Y863927*
X1020472Y866388*
X1019757Y867864*
X1018683Y868356*
X1017967*
X1028704Y864911D02*
G01X1028346Y863435D01*
X1027631Y862451*
X1026557Y861959*
X1026199*
X1025125Y862451*
X1024409Y863435*
X1024052Y864911*
Y865404*
X1024409Y866880*
X1025125Y867864*
X1026199Y868356*
X1026557*
X1027631Y867864*
X1028346Y866880*
X1028704Y864911*
Y862451*
X1028346Y859990*
X1027631Y858514*
X1026557Y858022*
X1025841*
X1024767Y858514*
X1024409Y859498*
X1031926Y862451D02*
G01X1038368D01*
X1043737Y868356D02*
G01X1042663Y867864D01*
X1041947Y866388*
X1041589Y863927*
Y862451*
X1041947Y859990*
X1042663Y858514*
X1043737Y858022*
X1044452*
X1045526Y858514*
X1046242Y859990*
X1046600Y862451*
Y863927*
X1046242Y866388*
X1045526Y867864*
X1044452Y868356*
X1043737*
X1051968D02*
G01X1050895Y867864D01*
X1050179Y866388*
X1049821Y863927*
Y862451*
X1050179Y859990*
X1050895Y858514*
X1051968Y858022*
X1052684*
X1053758Y858514*
X1054474Y859990*
X1054832Y862451*
Y863927*
X1054474Y866388*
X1053758Y867864*
X1052684Y868356*
X1051968*
X1060200D02*
G01X1059127Y867864D01*
X1058411Y866388*
X1058053Y863927*
Y862451*
X1058411Y859990*
X1059127Y858514*
X1060200Y858022*
X1060916*
X1061990Y858514*
X1062706Y859990*
X1063064Y862451*
Y863927*
X1062706Y866388*
X1061990Y867864*
X1060916Y868356*
X1060200*
X1068432D02*
G01X1067359Y867864D01*
X1066643Y866388*
X1066285Y863927*
Y862451*
X1066643Y859990*
X1067359Y858514*
X1068432Y858022*
X1069148*
X1070222Y858514*
X1070938Y859990*
X1071296Y862451*
Y863927*
X1070938Y866388*
X1070222Y867864*
X1069148Y868356*
X1068432*
X1078096D02*
G01X1074517Y861467D01*
X1079885*
X1078096Y868356D02*
G01Y858022D01*
X1085254Y868356D02*
G01X1084180Y867864D01*
X1083464Y866388*
X1083107Y863927*
Y862451*
X1083464Y859990*
X1084180Y858514*
X1085254Y858022*
X1085970*
X1087044Y858514*
X1087759Y859990*
X1088117Y862451*
Y863927*
X1087759Y866388*
X1087044Y867864*
X1085970Y868356*
X1085254*
X1091338Y862451D02*
G01X1097781D01*
X1103149Y868356D02*
G01X1102076Y867864D01*
X1101360Y866388*
X1101002Y863927*
Y862451*
X1101360Y859990*
X1102076Y858514*
X1103149Y858022*
X1103865*
X1104939Y858514*
X1105655Y859990*
X1106013Y862451*
Y863927*
X1105655Y866388*
X1104939Y867864*
X1103865Y868356*
X1103149*
X1111381D02*
G01X1110308Y867864D01*
X1109592Y866388*
X1109234Y863927*
Y862451*
X1109592Y859990*
X1110308Y858514*
X1111381Y858022*
X1112097*
X1113171Y858514*
X1113887Y859990*
X1114245Y862451*
Y863927*
X1113887Y866388*
X1113171Y867864*
X1112097Y868356*
X1111381*
X1233178Y866388D02*
G01X1233894Y866880D01*
X1234968Y868356*
Y858022*
X1242842Y864911D02*
G01X1242484Y863435D01*
X1241768Y862451*
X1240694Y861959*
X1240336*
X1239263Y862451*
X1238547Y863435*
X1238189Y864911*
Y865404*
X1238547Y866880*
X1239263Y867864*
X1240336Y868356*
X1240694*
X1241768Y867864*
X1242484Y866880*
X1242842Y864911*
Y862451*
X1242484Y859990*
X1241768Y858514*
X1240694Y858022*
X1239978*
X1238905Y858514*
X1238547Y859498*
X1246063Y862451D02*
G01X1252505D01*
X1255726Y868356D02*
G01Y858022D01*
Y868356D02*
G01X1260737Y858022D01*
Y868356D02*
G01Y858022D01*
X1266106Y868356D02*
G01X1265390Y867864D01*
X1264674Y866880*
X1264316Y865896*
X1263958Y864419*
Y861959*
X1264316Y860482*
X1264674Y859498*
X1265390Y858514*
X1266106Y858022*
X1267537*
X1268253Y858514*
X1268969Y859498*
X1269327Y860482*
X1269685Y861959*
Y864419*
X1269327Y865896*
X1268969Y866880*
X1268253Y867864*
X1267537Y868356*
X1266106*
X1272906D02*
G01X1275769Y858022D01*
X1278633Y868356D02*
G01X1275769Y858022D01*
X1281854Y862451D02*
G01X1288296D01*
X1293665Y868356D02*
G01X1292591Y867864D01*
X1291875Y866388*
X1291517Y863927*
Y862451*
X1291875Y859990*
X1292591Y858514*
X1293665Y858022*
X1294381*
X1295454Y858514*
X1296170Y859990*
X1296528Y862451*
Y863927*
X1296170Y866388*
X1295454Y867864*
X1294381Y868356*
X1293665*
X1301539D02*
G01X1300465Y867864D01*
X1300107Y866880*
Y865896*
X1300465Y864911*
X1301181Y864419*
X1302613Y863927*
X1303686Y863435*
X1304402Y862451*
X1304760Y861467*
Y859990*
X1304402Y859006*
X1304044Y858514*
X1302970Y858022*
X1301539*
X1300465Y858514*
X1300107Y859006*
X1299749Y859990*
Y861467*
X1300107Y862451*
X1300823Y863435*
X1301897Y863927*
X1303328Y864419*
X1304044Y864911*
X1304402Y865896*
Y866880*
X1304044Y867864*
X1302970Y868356*
X1301539*
X1162670D02*
G01X1159807Y858022D01*
X1162670Y868356D02*
G01X1165533Y858022D01*
X1160880Y861467D02*
G01X1164459D01*
X1168754Y868356D02*
G01Y858022D01*
Y868356D02*
G01X1173407D01*
X1168754Y863435D02*
G01X1171618D01*
X1168754Y858022D02*
G01X1173407D01*
M02*
