G04 CAM350 V9.5.2 (Build 226) Date:  Wed Nov 19 13:46:34 2008 *
G04 Database: (Untitled) *
G04 Layer 5: 09-000040-00L4_ *
%FSLAX35Y35*%
%MOIN*%
%SFA1.000B1.000*%

%MIA0B0*%
%IPPOS*%
%ADD10C,0.01575*%
%ADD11C,0.00984*%
%ADD12C,0.01969*%
%ADD13C,0.00787*%
%ADD14C,0.00394*%
%ADD16C,0.01181*%
%ADD70C,0.01181*%
%ADD26C,0.06000*%
%ADD72C,0.01575*%
%ADD36C,0.03937*%
%ADD42C,0.00500*%
%ADD46C,0.02480*%
%ADD48C,0.05000*%
%ADD50C,0.02165*%
%ADD52C,0.02500*%
%ADD53C,0.02382*%
%ADD63C,0.00400*%
%ADD67C,0.06299*%
%ADD68C,0.19685*%
%LN09-000040-00L4_*%
%LPD*%
G54D26*
X1065748Y1169291D03*
X1055748D03*
X1065748Y1179291D03*
X1055748D03*
X1065748Y1189291D03*
X1055748D03*
X1065748Y1199291D03*
X1055748D03*
X1065748Y1209291D03*
X1055748D03*
X1065748Y1219291D03*
X1055748D03*
X1065748Y1229291D03*
X1055748D03*
X1065748Y1239291D03*
X1055748D03*
X1065748Y1249291D03*
X1055748D03*
X1065748Y1259291D03*
X1055748D03*
X1007874Y1220472D03*
X1017874D03*
X1007874Y1210472D03*
X1017874D03*
X1007874Y1200472D03*
X1017874D03*
X1007874Y1190472D03*
X1017874D03*
X1007874Y1180472D03*
X1017874D03*
X1007874Y1170472D03*
X1017874D03*
G54D36*
X1017323Y1248425D03*
X1316142Y1033071D03*
X1256500Y1064500D03*
X1292717Y1047244D03*
X1268898D03*
X1037000Y1074500D03*
X1265748Y1083268D03*
X1273425Y1079331D03*
X1276378Y1084252D03*
X1307283Y1084646D03*
Y1079331D03*
X1097638Y1128346D03*
X1274016Y1138189D03*
Y1132677D03*
X1306693Y1138189D03*
Y1132677D03*
X1267717Y1135433D03*
X1321850Y1125787D03*
X1037008Y1191732D03*
X1289370Y1185000D03*
Y1178500D03*
X1037008Y1233661D03*
G54D46*
X1047500Y1024000D03*
X1086100Y1030900D03*
X1103800Y1031000D03*
X1086600Y1025400D03*
X1141732Y1020276D03*
X1129134D03*
X1135433D03*
X1187200Y1009600D03*
X1154331Y1020276D03*
X1148031D03*
X1181300Y1023000D03*
X1183500Y1011600D03*
X1224300Y1028300D03*
X1202500Y1007700D03*
X1204300Y1010600D03*
X1216400Y1027300D03*
X1220600Y1023500D03*
X1206200Y1017800D03*
Y1029800D03*
X1203300Y1013600D03*
X1197200Y1012000D03*
X1200200Y1009800D03*
X1230400Y1007700D03*
X1227500Y1016600D03*
X1231000Y1022500D03*
X1230500Y1011700D03*
X1242200Y1021100D03*
X1011811Y1035101D03*
X1018110D03*
X1004800Y1057500D03*
X1024409Y1035101D03*
X1062000Y1037300D03*
X1030709Y1035101D03*
X1039600Y1057500D03*
X1063386Y1066142D03*
X1060500Y1061800D03*
X1040748Y1038189D03*
X1056400Y1033000D03*
X1049016Y1069094D03*
X1056500Y1060100D03*
X1059100Y1065900D03*
X1070900Y1034900D03*
X1106700Y1050700D03*
X1083858Y1059055D03*
X1101000Y1050300D03*
X1104700Y1045500D03*
X1092600Y1034200D03*
X1077000Y1036400D03*
X1104800Y1058500D03*
X1140700Y1046500D03*
X1109300Y1033100D03*
X1108900Y1058300D03*
X1123600Y1036600D03*
X1115400Y1032600D03*
X1146600Y1050200D03*
X1123600Y1049300D03*
X1170500Y1049800D03*
X1187100Y1058300D03*
X1179600Y1046200D03*
X1176700Y1054900D03*
X1180300Y1052000D03*
X1153900Y1040500D03*
X1172800Y1063600D03*
X1159000Y1067000D03*
X1161800Y1037400D03*
X1180709Y1035827D03*
X1158700Y1045700D03*
X1174200Y1044900D03*
X1150900Y1046100D03*
X1156400Y1070100D03*
X1186700Y1068400D03*
X1215400Y1042800D03*
X1217100Y1048000D03*
X1205000Y1052100D03*
X1206700Y1060800D03*
X1202900Y1063200D03*
X1207100Y1068900D03*
X1213000Y1053400D03*
X1197638Y1032677D03*
X1200000Y1037100D03*
X1198600Y1045900D03*
X1199800Y1054900D03*
X1226000Y1041000D03*
X1227400Y1035100D03*
X1227800Y1047200D03*
X1231700Y1055700D03*
X1244500Y1058400D03*
X1232000Y1041000D03*
X1266339Y1058465D03*
X1299000Y1070000D03*
Y1055000D03*
X1289173Y1058858D03*
X1274600Y1054700D03*
X1316000Y1058500D03*
X1324213Y1062008D03*
X1005000Y1077500D03*
X1039500Y1101100D03*
X1035700Y1089800D03*
X1041000D03*
X1048228Y1102953D03*
X1052756Y1091339D03*
X1058268D03*
X1066900Y1074900D03*
X1036900Y1082600D03*
X1044443Y1078961D03*
X1061600Y1072600D03*
X1060900Y1109500D03*
X1102100Y1074700D03*
X1083200Y1086000D03*
X1072441Y1093701D03*
X1106800Y1102000D03*
X1088780Y1098228D03*
X1092126Y1098425D03*
X1069800Y1082800D03*
X1071457Y1108858D03*
X1073819Y1072441D03*
X1081102Y1073819D03*
X1093100Y1075700D03*
X1101300Y1094900D03*
X1083900Y1098600D03*
X1106000Y1097900D03*
X1097300Y1083400D03*
X1137800Y1099300D03*
X1125000Y1077700D03*
X1134000Y1103700D03*
X1133700Y1098400D03*
X1118898Y1098425D03*
X1141900Y1100600D03*
X1125000Y1094300D03*
X1113000Y1083900D03*
X1118600Y1079800D03*
X1108100Y1079100D03*
X1144000Y1094400D03*
X1111200Y1097900D03*
X1152500Y1095000D03*
X1186600Y1075100D03*
X1171000Y1084800D03*
X1156800Y1090700D03*
X1154500Y1082400D03*
X1147700Y1077800D03*
X1173200Y1075100D03*
X1164567Y1079528D03*
X1148100Y1094900D03*
X1156299Y1111033D03*
X1185827Y1106299D03*
X1168700Y1108500D03*
X1173300Y1096700D03*
X1156800Y1106300D03*
X1156299Y1100591D03*
X1153200Y1074700D03*
X1180000Y1098400D03*
X1162402Y1088583D03*
X1165500Y1091200D03*
X1226200Y1081000D03*
X1219400Y1076500D03*
X1209200Y1077400D03*
X1212900Y1087200D03*
X1215700Y1079200D03*
X1206200Y1090100D03*
X1196600Y1076575D03*
X1224700Y1085100D03*
X1201969Y1106299D03*
X1213386D03*
X1219500Y1091800D03*
X1191732Y1106299D03*
X1195800Y1090900D03*
X1191100Y1087400D03*
X1191000Y1080900D03*
X1230300Y1079900D03*
X1246300Y1081400D03*
X1230300Y1084900D03*
X1259449Y1090551D03*
X1237205Y1086614D03*
X1265600Y1097400D03*
X1250394Y1110039D03*
X1253600Y1090600D03*
X1261024Y1094882D03*
X1250394Y1105512D03*
X1250400Y1080300D03*
X1241500Y1096500D03*
X1245800Y1105500D03*
X1266000Y1101500D03*
X1256500Y1093400D03*
X1292520Y1101969D03*
Y1098819D03*
X1301181Y1109843D03*
X1275787Y1095669D03*
X1288976Y1110630D03*
X1285433D03*
X1297100Y1111200D03*
X1305906Y1107283D03*
X1300000Y1094882D03*
X1291732Y1108661D03*
Y1105512D03*
X1316400Y1110000D03*
X1325787Y1097441D03*
X1314961Y1102362D03*
X1319882Y1089764D03*
X1324016D03*
X1312795Y1095472D03*
X1309449D03*
X1020472Y1130906D03*
Y1121654D03*
X1020300Y1139800D03*
X1020472Y1148819D03*
X1022500Y1113600D03*
X1025100Y1151500D03*
X1023000Y1134100D03*
X1024300Y1140400D03*
X1015000Y1113500D03*
X1047600Y1136600D03*
X1038300Y1141800D03*
X1044600Y1121100D03*
X1055500Y1142000D03*
X1039200Y1112600D03*
X1056200Y1120000D03*
X1054300Y1114200D03*
X1048300Y1118100D03*
X1035300Y1130600D03*
X1028100Y1128100D03*
X1029200Y1145700D03*
X1045000Y1141500D03*
X1063900Y1141900D03*
X1071300Y1145400D03*
X1072300Y1132000D03*
X1073000Y1122100D03*
X1083300Y1125400D03*
X1085400Y1132900D03*
X1089700Y1115200D03*
X1072900Y1127600D03*
X1071800Y1137600D03*
X1103400Y1151400D03*
X1087402Y1143898D03*
X1072638Y1141929D03*
X1123700Y1125900D03*
X1112992Y1138189D03*
X1132677Y1112402D03*
X1135039Y1119291D03*
X1141300Y1139800D03*
X1121100Y1150800D03*
X1144685Y1148819D03*
X1140000Y1128000D03*
X1131500Y1149600D03*
X1115100Y1131100D03*
X1154900Y1145900D03*
X1156299Y1122244D03*
X1151181Y1148819D03*
X1183800Y1125000D03*
X1181800Y1114400D03*
X1175700Y1113100D03*
X1172100Y1117600D03*
X1177700Y1138300D03*
X1156600Y1128200D03*
X1156800Y1116300D03*
X1168200Y1138100D03*
X1183200Y1139700D03*
X1181300Y1146800D03*
X1206299Y1142323D03*
X1197800Y1128700D03*
X1190100Y1122100D03*
X1208465Y1136024D03*
X1188900Y1136400D03*
X1250394Y1118110D03*
X1249100Y1129300D03*
X1230200Y1140100D03*
X1245700Y1113600D03*
X1250394Y1113583D03*
X1249400Y1135600D03*
X1266900Y1117800D03*
X1282900Y1120900D03*
X1300000Y1122835D03*
X1287205D03*
X1281299Y1115748D03*
X1271400Y1117900D03*
X1270600Y1123400D03*
X1291700Y1117400D03*
X1307700Y1150000D03*
X1325984Y1118701D03*
X1316535Y1116535D03*
X1317900Y1120700D03*
X1014700Y1165400D03*
X1024300Y1156700D03*
X1040900Y1159300D03*
X1047800Y1179400D03*
X1046300Y1162500D03*
X1028150Y1191339D03*
X1054700Y1163700D03*
X1039764Y1184646D03*
X1052600Y1160100D03*
X1092126Y1158268D03*
X1100394Y1163780D03*
X1076772Y1168110D03*
X1072000Y1167300D03*
X1081700Y1172400D03*
X1114300Y1167800D03*
X1111200Y1165200D03*
X1132874Y1166339D03*
X1138100Y1167800D03*
X1126300D03*
X1131700Y1178700D03*
X1129600Y1163300D03*
X1141600Y1188500D03*
X1140000Y1152500D03*
X1144685Y1163780D03*
X1120500Y1167300D03*
X1113000Y1160500D03*
X1181800Y1173700D03*
X1187200Y1168600D03*
X1148400Y1178200D03*
X1156800Y1169700D03*
X1179200Y1164300D03*
X1156800Y1155200D03*
X1167200Y1162700D03*
X1156800Y1162000D03*
X1160200Y1179700D03*
X1200787Y1168110D03*
X1217717Y1168504D03*
X1199500Y1184400D03*
X1207500Y1187100D03*
X1225200Y1167700D03*
X1221100Y1168500D03*
X1239400Y1164600D03*
X1236100Y1162200D03*
X1242500Y1189700D03*
X1241700Y1159800D03*
X1247400Y1167700D03*
X1272800Y1175200D03*
X1298400Y1162400D03*
X1268700Y1174000D03*
X1296100Y1156700D03*
X1317520Y1166732D03*
X1059000Y1205000D03*
X1070079Y1213976D03*
X1090551Y1224016D03*
X1087795Y1227165D03*
X1074803D03*
Y1224016D03*
X1141700Y1210200D03*
X1119094Y1227165D03*
X1121654Y1224016D03*
X1134100Y1201800D03*
X1138100Y1194000D03*
X1142200Y1199400D03*
X1136900Y1207600D03*
X1138583Y1227165D03*
Y1224016D03*
X1155512Y1227165D03*
X1187008D03*
X1158071Y1224016D03*
X1205900Y1209700D03*
X1189370Y1224016D03*
X1204100Y1193300D03*
X1225400Y1195100D03*
X1211900Y1211700D03*
X1203600Y1205900D03*
X1212400Y1225000D03*
X1206299Y1227165D03*
Y1224016D03*
X1207500Y1199300D03*
X1260630Y1202756D03*
X1250200Y1222400D03*
X1291732Y1202756D03*
X1304300Y1204000D03*
X1315000Y1197700D03*
X1315700Y1193600D03*
X1308900Y1194300D03*
X1028150Y1233858D03*
X1041339Y1259843D03*
X1044882Y1255118D03*
X1045100Y1240100D03*
X1070669Y1237795D03*
X1135900Y1241900D03*
X1135500Y1246100D03*
X1141600Y1250800D03*
X1141700Y1242900D03*
X1206500Y1242100D03*
X1200800Y1239300D03*
X1214800Y1236700D03*
X1215000Y1243700D03*
X1203500Y1246400D03*
X1206800Y1255900D03*
X1229134Y1255906D03*
G54D50*
X1066900Y1030300D03*
X1061700Y1031000D03*
X1059252Y1020276D03*
X1062992Y1025787D03*
X1069600Y1031000D03*
X1075700Y1030900D03*
X1079200Y1031100D03*
X1073100Y1028600D03*
X1095700Y1031800D03*
X1076600Y1023200D03*
X1097600Y1023100D03*
X1091500Y1029300D03*
X1108300Y1026800D03*
X1109400Y1029500D03*
X1122835Y1020276D03*
X1119685D03*
X1138583D03*
X1182874Y1031496D03*
X1160630Y1020276D03*
X1151181D03*
X1193504Y1020866D03*
X1024400Y1049100D03*
X1011800D03*
X1018100D03*
X1065900Y1037300D03*
X1067000Y1033000D03*
X1062000Y1033700D03*
X1064800Y1034600D03*
X1053543Y1036614D03*
X1056300Y1037000D03*
X1030700Y1049200D03*
X1058800Y1069900D03*
X1056500Y1056200D03*
X1063386Y1062402D03*
X1056496Y1051378D03*
X1100200Y1058500D03*
X1086811Y1059252D03*
X1080900Y1034800D03*
X1082400Y1037200D03*
X1083858Y1034646D03*
X1077953Y1055906D03*
X1086100Y1036600D03*
X1103900Y1037100D03*
X1100200Y1037300D03*
X1101575Y1034646D03*
X1088500Y1034000D03*
X1095669Y1036614D03*
X1096063Y1047638D03*
X1097638Y1034646D03*
X1089764Y1045866D03*
X1073622Y1049409D03*
X1090157Y1059252D03*
X1100400Y1061200D03*
X1103100Y1054700D03*
X1142700Y1050000D03*
X1138600Y1049600D03*
X1138780Y1064567D03*
X1107600Y1036900D03*
X1133071Y1062205D03*
X1129134D03*
X1131102Y1045472D03*
X1107500Y1061300D03*
X1111300Y1036600D03*
X1119700D03*
X1127200Y1034600D03*
X1137795Y1036614D03*
X1140945D03*
X1135039D03*
X1143701D03*
X1108858Y1045669D03*
X1123300Y1045100D03*
X1132283Y1036614D03*
X1129134D03*
X1144882Y1045669D03*
X1115000Y1036600D03*
X1131496Y1059449D03*
X1126000Y1071100D03*
X1135039Y1071850D03*
X1119300Y1033900D03*
X1127100Y1045000D03*
X1155500Y1058100D03*
X1156300Y1054400D03*
X1157500Y1037200D03*
X1152200Y1035600D03*
X1150500Y1051400D03*
X1159300Y1041800D03*
X1183100Y1044200D03*
X1183300Y1049500D03*
X1154300Y1048200D03*
X1166929Y1042913D03*
X1180512Y1039764D03*
X1149500Y1036600D03*
X1162800Y1034700D03*
X1160000Y1072000D03*
X1183071Y1037992D03*
X1197400Y1050300D03*
X1196900Y1042100D03*
X1202600Y1048900D03*
X1202400Y1044200D03*
X1236500Y1065800D03*
X1251575Y1067717D03*
X1066929Y1096260D03*
X1039173Y1094291D03*
X1055512D03*
X1064961Y1093701D03*
X1056200Y1076000D03*
X1057677Y1098031D03*
X1057000Y1109300D03*
X1041535Y1109252D03*
X1064800Y1109300D03*
X1043504Y1107283D03*
X1066535Y1091142D03*
X1057700Y1073600D03*
X1084100Y1082100D03*
X1100600Y1098800D03*
X1095900Y1078500D03*
X1102165Y1083661D03*
X1088583D03*
X1083900Y1094700D03*
X1096260Y1098228D03*
X1083900Y1102500D03*
X1097000Y1074500D03*
X1092300Y1079600D03*
X1097441Y1094882D03*
X1080300Y1083400D03*
X1083900Y1105200D03*
Y1107900D03*
X1091400Y1083700D03*
X1101100Y1080000D03*
X1086000Y1109900D03*
X1109100Y1083700D03*
X1144685Y1081693D03*
X1142717Y1083661D03*
X1140748Y1081693D03*
X1138780Y1083661D03*
X1136811Y1081693D03*
X1113800Y1075300D03*
X1132874Y1081693D03*
X1130906Y1083661D03*
X1128937Y1081693D03*
X1109000Y1105300D03*
X1123031Y1083661D03*
X1126300Y1073800D03*
X1126969Y1083661D03*
X1125000Y1081693D03*
X1146654Y1083661D03*
X1112700Y1080000D03*
X1119094Y1083661D03*
X1134843D03*
X1157900Y1080300D03*
X1152600Y1079200D03*
X1150591Y1083661D03*
X1148622Y1081693D03*
X1156693Y1085827D03*
X1172600Y1108500D03*
X1174200Y1106200D03*
X1167500Y1103600D03*
Y1099900D03*
X1186024Y1090945D03*
X1223900Y1090900D03*
X1211220Y1090945D03*
X1189567Y1110433D03*
X1213583Y1109449D03*
X1205709Y1108465D03*
X1217520Y1106496D03*
X1209646Y1104134D03*
X1217717Y1101969D03*
X1221654D03*
X1214173Y1090945D03*
X1201800Y1090600D03*
X1227362Y1101969D03*
X1231299D03*
X1237205Y1103937D03*
X1235236Y1101969D03*
X1233268Y1103937D03*
X1250394Y1097638D03*
Y1100591D03*
X1265157Y1111811D03*
X1250394Y1092913D03*
X1265157Y1105118D03*
X1278740Y1095669D03*
X1287008D03*
X1020472Y1127953D03*
Y1118504D03*
X1003800Y1129500D03*
X1003700Y1147600D03*
X1020472Y1145669D03*
X1003500Y1138600D03*
X1020472Y1136614D03*
X1003700Y1120400D03*
X1039173Y1125197D03*
X1034843Y1123031D03*
X1028937Y1114370D03*
X1031200Y1130600D03*
X1037600Y1127400D03*
X1036900Y1118504D03*
X1041535Y1140354D03*
X1043504Y1136614D03*
X1060039Y1136811D03*
X1063600Y1149400D03*
X1086600Y1136800D03*
X1072441Y1151772D03*
X1087900Y1129800D03*
X1083500Y1121500D03*
X1088200Y1125800D03*
X1083500Y1129300D03*
X1086500Y1123100D03*
X1085800Y1119900D03*
X1089300Y1134100D03*
X1090400Y1127700D03*
X1083465Y1151378D03*
X1090600Y1141300D03*
X1086614Y1151969D03*
X1107283Y1115945D03*
X1167500Y1150600D03*
X1171600Y1136000D03*
X1167500Y1133200D03*
Y1129500D03*
X1169685Y1126181D03*
X1167520Y1124213D03*
X1168700Y1121800D03*
X1167400Y1119100D03*
X1171800Y1140000D03*
X1153937Y1119488D03*
X1167520Y1143898D03*
Y1147835D03*
X1156496Y1142913D03*
Y1139764D03*
X1193898Y1133858D03*
X1197800Y1132600D03*
X1203740Y1130315D03*
X1207677Y1128346D03*
X1215551Y1126181D03*
X1219685Y1124213D03*
X1225394Y1120866D03*
X1209646Y1114370D03*
X1195866D03*
X1211614Y1112402D03*
X1199803D03*
X1210630Y1137992D03*
X1217520Y1151772D03*
X1202756Y1144488D03*
X1243898Y1137008D03*
X1242717Y1134449D03*
X1241535Y1131890D03*
X1240354Y1129331D03*
X1239173Y1126772D03*
X1237992Y1124213D03*
X1236811Y1121654D03*
X1235630Y1119094D03*
X1229331Y1118898D03*
X1233000Y1137300D03*
X1230300Y1143700D03*
X1230315Y1146457D03*
X1230300Y1151200D03*
X1255315Y1151181D03*
X1245079Y1148425D03*
X1257480Y1126772D03*
X1269685Y1114961D03*
X1322835Y1150000D03*
X1011417Y1152362D03*
X1007900Y1161300D03*
X1047835Y1170669D03*
X1046300Y1158600D03*
X1046260Y1168110D03*
X1047800Y1175500D03*
X1046500Y1183300D03*
X1032480Y1168110D03*
X1030906Y1175787D03*
X1032480Y1173228D03*
X1030906Y1170669D03*
X1046260Y1173228D03*
X1066929Y1152165D03*
X1070276Y1158858D03*
X1105315Y1155118D03*
X1085630Y1180709D03*
X1087598Y1178740D03*
X1069685Y1152362D03*
X1083661Y1165551D03*
X1086417Y1167520D03*
X1086811Y1162008D03*
X1092717Y1190551D03*
X1091535Y1180906D03*
X1076181Y1185039D03*
X1097441Y1178740D03*
X1074213Y1188976D03*
X1095472Y1180906D03*
X1072244Y1187008D03*
X1099409Y1180906D03*
X1070276Y1190945D03*
X1093504Y1178740D03*
X1105315D03*
X1146100Y1166500D03*
X1109252Y1178740D03*
X1113189D03*
X1115157Y1180709D03*
X1117126Y1178740D03*
X1120079D03*
X1123031D03*
X1125000Y1180709D03*
X1126969Y1183268D03*
X1128900Y1181400D03*
X1134500Y1191200D03*
X1130900Y1183600D03*
X1134843Y1186614D03*
X1136200Y1184000D03*
X1138700Y1185400D03*
X1145500Y1189200D03*
X1131500Y1157900D03*
X1184000Y1180600D03*
X1180800Y1168800D03*
X1184100Y1165400D03*
X1148622Y1164567D03*
X1149800Y1167200D03*
X1151400Y1163600D03*
X1153400Y1165500D03*
X1178100Y1168600D03*
X1175394Y1167913D03*
X1172638Y1167717D03*
X1167100Y1153300D03*
X1156300Y1159100D03*
X1174803Y1190551D03*
X1203937Y1156693D03*
X1187992Y1180512D03*
X1188100Y1164200D03*
X1189961Y1178543D03*
X1191929Y1180512D03*
X1190600Y1166400D03*
X1193898Y1178543D03*
X1192300Y1164300D03*
X1195866Y1180512D03*
X1195079Y1168110D03*
X1197835Y1178543D03*
Y1168110D03*
X1199803Y1180512D03*
X1201772Y1178543D03*
X1203740Y1180512D03*
X1205709Y1178543D03*
X1215551D03*
X1217520Y1180512D03*
X1219488Y1178543D03*
X1221457Y1180512D03*
X1223425Y1178543D03*
X1217520Y1165551D03*
X1225394Y1180512D03*
X1217520Y1162795D03*
Y1160039D03*
Y1157283D03*
Y1154528D03*
X1203937Y1153740D03*
X1206496Y1152362D03*
X1201000Y1156700D03*
X1196300D03*
X1208700Y1191000D03*
X1227362Y1178543D03*
X1234100Y1168400D03*
Y1165700D03*
X1232500Y1162200D03*
X1252559Y1152559D03*
X1237800Y1167700D03*
X1305512Y1153150D03*
X1304331Y1183465D03*
X1323622Y1153150D03*
X1317461Y1170079D03*
X1312402Y1172244D03*
X1090157Y1205118D03*
X1087795Y1201969D03*
X1090157Y1198819D03*
X1087795Y1195669D03*
X1090157Y1192520D03*
Y1230315D03*
X1087795Y1220866D03*
X1090157Y1217717D03*
X1087795Y1214567D03*
X1090157Y1211417D03*
X1087795Y1208268D03*
X1133200Y1205700D03*
X1138000Y1201800D03*
X1134100Y1196900D03*
X1131400Y1194300D03*
X1119291Y1192520D03*
X1145700Y1193900D03*
X1121654Y1195669D03*
X1142200Y1195500D03*
X1119291Y1198819D03*
X1145300Y1201800D03*
X1121654Y1201969D03*
X1142000Y1204300D03*
X1119291Y1205118D03*
X1145400Y1207500D03*
X1134300Y1230300D03*
X1131890Y1220866D03*
X1134252Y1217717D03*
X1131890Y1214567D03*
X1134252Y1211417D03*
X1121654D03*
X1145300Y1212200D03*
X1119291Y1214567D03*
X1142900Y1216100D03*
X1121654Y1217717D03*
X1145800Y1218600D03*
X1119291Y1220866D03*
X1142800Y1221800D03*
X1121654Y1230315D03*
X1145276D03*
X1131900Y1209400D03*
X1157874Y1205118D03*
X1187008Y1201969D03*
X1155512D03*
X1157874Y1198819D03*
X1187008Y1195669D03*
X1155512D03*
X1157900Y1192600D03*
X1157874Y1230315D03*
X1155512Y1220866D03*
X1157874Y1217717D03*
X1155512Y1214567D03*
X1157874Y1211417D03*
X1187008Y1214567D03*
X1186811Y1220866D03*
X1155512Y1208268D03*
X1187008D03*
X1189370Y1205118D03*
Y1198819D03*
Y1192520D03*
X1199600Y1196500D03*
X1208900Y1195400D03*
X1199400Y1199200D03*
X1203600Y1201700D03*
X1198900Y1203600D03*
X1208000Y1205300D03*
X1202000Y1209800D03*
X1209800Y1203300D03*
X1202000Y1229700D03*
X1199606Y1220866D03*
Y1217717D03*
X1201200Y1214600D03*
X1199400Y1212500D03*
X1189370Y1211417D03*
Y1217717D03*
Y1230315D03*
X1213700Y1230800D03*
X1238583Y1203543D03*
X1235827D03*
X1233071D03*
X1230300Y1204200D03*
X1309646Y1200984D03*
X1319488Y1198622D03*
X1087795Y1258661D03*
X1090157Y1255512D03*
X1087795Y1252362D03*
X1090157Y1249213D03*
X1087795Y1246063D03*
Y1239764D03*
X1090157Y1236614D03*
X1087795Y1233465D03*
X1070669Y1234646D03*
X1090157Y1242913D03*
X1131900Y1258700D03*
X1134500Y1255700D03*
X1131900Y1253000D03*
X1134800Y1250000D03*
X1119291Y1252362D03*
X1142900Y1254700D03*
X1121654Y1255512D03*
X1145700Y1257200D03*
X1119291Y1258661D03*
X1142400Y1260400D03*
X1133000Y1243100D03*
X1131900Y1239400D03*
X1134300Y1236000D03*
X1131700Y1233300D03*
X1119291Y1233465D03*
X1142900Y1233300D03*
X1121654Y1236614D03*
X1145600Y1236300D03*
X1119291Y1239764D03*
X1142900Y1239000D03*
X1145500Y1249500D03*
X1121654Y1249213D03*
X1119291Y1246063D03*
X1139400Y1246100D03*
X1121654Y1242913D03*
X1155512Y1258661D03*
X1187008D03*
X1157874Y1255512D03*
X1155512Y1252362D03*
X1187008D03*
X1157874Y1249213D03*
X1187008Y1246063D03*
X1155512D03*
Y1239764D03*
X1157874Y1236614D03*
X1155512Y1233465D03*
X1187008D03*
Y1239764D03*
X1157874Y1242913D03*
X1189370Y1255512D03*
Y1249213D03*
X1199600Y1252500D03*
X1199606Y1255512D03*
Y1258661D03*
X1202000Y1235400D03*
X1199100Y1233000D03*
X1216700Y1233100D03*
X1189370Y1236614D03*
X1218701Y1236811D03*
X1220669Y1240354D03*
X1226378Y1248622D03*
X1199600Y1249800D03*
X1220866Y1246654D03*
X1223228Y1243307D03*
X1189370Y1242913D03*
X1203600Y1242200D03*
X1239567Y1238976D03*
X1241535Y1237008D03*
X1239567Y1235039D03*
X1241535Y1233071D03*
Y1240945D03*
G54D52*
X1171457Y1157283D03*
X1175394D03*
X1172047Y1102559D03*
X1175984D03*
X1122047Y1185039D03*
X1118110D03*
X1172047Y1132087D03*
X1175984D03*
X1112205Y1185039D03*
X1108268D03*
X1181102Y1090354D03*
X1177165D03*
X1074803Y1196850D03*
Y1200787D03*
Y1204724D03*
Y1208661D03*
Y1253937D03*
Y1257874D03*
Y1244094D03*
Y1248031D03*
G54D53*
X1087598Y1078740D03*
X1105709Y1083071D03*
X1072047Y1155709D03*
X1249409Y1144291D03*
X1175197Y1148031D03*
Y1143898D03*
X1171063D03*
X1062992Y1114173D03*
X1066929D03*
X1070866D03*
X1059055D03*
X1304331Y1195276D03*
X1042100Y1103700D03*
X1171260Y1148031D03*
X1083465Y1078740D03*
X1239300Y1106700D03*
X1136000Y1111000D03*
X1141500D03*
X1147000D03*
X1140000Y1104000D03*
X1045500Y1113500D03*
X1149000Y1145000D03*
X1104500Y1164000D03*
G54D67*
X1281102Y1231496D03*
X1271260D03*
X1261417D03*
X1251575D03*
X1281102Y1211024D03*
X1271260D03*
X1261417D03*
X1251575D03*
G54D68*
X1316142Y1248425D03*
X1017323Y1094488D03*
X1301772Y1221260D03*
X1230906D03*
G54D10*
X1207158Y841043D02*
G01X1206084Y840551D01*
X1205369Y839075*
X1205011Y836614*
Y835138*
X1205369Y832677*
X1206084Y831201*
X1207158Y830709*
X1207874*
X1208948Y831201*
X1209664Y832677*
X1210021Y835138*
Y836614*
X1209664Y839075*
X1208948Y840551*
X1207874Y841043*
X1207158*
X1217895Y837598D02*
G01X1217538Y836122D01*
X1216822Y835138*
X1215748Y834646*
X1215390*
X1214316Y835138*
X1213601Y836122*
X1213243Y837598*
Y838091*
X1213601Y839567*
X1214316Y840551*
X1215390Y841043*
X1215748*
X1216822Y840551*
X1217538Y839567*
X1217895Y837598*
Y835138*
X1217538Y832677*
X1216822Y831201*
X1215748Y830709*
X1215032*
X1213958Y831201*
X1213601Y832185*
X1221117Y835138D02*
G01X1227559D01*
X1232928Y841043D02*
G01X1231854Y840551D01*
X1231138Y839075*
X1230780Y836614*
Y835138*
X1231138Y832677*
X1231854Y831201*
X1232928Y830709*
X1233644*
X1234717Y831201*
X1235433Y832677*
X1235791Y835138*
Y836614*
X1235433Y839075*
X1234717Y840551*
X1233644Y841043*
X1232928*
X1241160D02*
G01X1240086Y840551D01*
X1239370Y839075*
X1239012Y836614*
Y835138*
X1239370Y832677*
X1240086Y831201*
X1241160Y830709*
X1241875*
X1242949Y831201*
X1243665Y832677*
X1244023Y835138*
Y836614*
X1243665Y839075*
X1242949Y840551*
X1241875Y841043*
X1241160*
X1249392D02*
G01X1248318Y840551D01*
X1247602Y839075*
X1247244Y836614*
Y835138*
X1247602Y832677*
X1248318Y831201*
X1249392Y830709*
X1250107*
X1251181Y831201*
X1251897Y832677*
X1252255Y835138*
Y836614*
X1251897Y839075*
X1251181Y840551*
X1250107Y841043*
X1249392*
X1257623D02*
G01X1256550Y840551D01*
X1255834Y839075*
X1255476Y836614*
Y835138*
X1255834Y832677*
X1256550Y831201*
X1257623Y830709*
X1258339*
X1259413Y831201*
X1260129Y832677*
X1260487Y835138*
Y836614*
X1260129Y839075*
X1259413Y840551*
X1258339Y841043*
X1257623*
X1267287D02*
G01X1263708Y834154D01*
X1269077*
X1267287Y841043D02*
G01Y830709D01*
X1274445Y841043D02*
G01X1273372Y840551D01*
X1272656Y839075*
X1272298Y836614*
Y835138*
X1272656Y832677*
X1273372Y831201*
X1274445Y830709*
X1275161*
X1276235Y831201*
X1276951Y832677*
X1277309Y835138*
Y836614*
X1276951Y839075*
X1276235Y840551*
X1275161Y841043*
X1274445*
X992377Y895915D02*
G01X995240Y885581D01*
X998103Y895915D02*
G01X995240Y885581D01*
X1001324Y895915D02*
G01Y885581D01*
Y895915D02*
G01X1005977D01*
X1001324Y890994D02*
G01X1004188D01*
X1001324Y885581D02*
G01X1005977D01*
X1009198Y895915D02*
G01Y885581D01*
X1014209Y895915D02*
G01Y885581D01*
X1009198Y890994D02*
G01X1014209D01*
X1017430Y895915D02*
G01Y885581D01*
X1026020Y893455D02*
G01X1025662Y894439D01*
X1024946Y895423*
X1024230Y895915*
X1022799*
X1022083Y895423*
X1021367Y894439*
X1021009Y893455*
X1020651Y891978*
Y889518*
X1021009Y888041*
X1021367Y887057*
X1022083Y886073*
X1022799Y885581*
X1024230*
X1024946Y886073*
X1025662Y887057*
X1026020Y888041*
X1029241Y895915D02*
G01Y885581D01*
X1033536*
X1036757Y895915D02*
G01Y885581D01*
Y895915D02*
G01X1041410D01*
X1036757Y890994D02*
G01X1039621D01*
X1036757Y885581D02*
G01X1041410D01*
X1052863Y895915D02*
G01Y885581D01*
Y895915D02*
G01X1055369D01*
X1056442Y895423*
X1057158Y894439*
X1057516Y893455*
X1057874Y891978*
Y889518*
X1057516Y888041*
X1057158Y887057*
X1056442Y886073*
X1055369Y885581*
X1052863*
X1061095Y895915D02*
G01Y885581D01*
X1069327Y894439D02*
G01X1068611Y895423D01*
X1067538Y895915*
X1066106*
X1065032Y895423*
X1064316Y894439*
Y893455*
X1064674Y892470*
X1065032Y891978*
X1065748Y891486*
X1067895Y890502*
X1068611Y890010*
X1068969Y889518*
X1069327Y888533*
Y887057*
X1068611Y886073*
X1067538Y885581*
X1066106*
X1065032Y886073*
X1064316Y887057*
X1072548Y895915D02*
G01Y885581D01*
Y895915D02*
G01X1075770D01*
X1076843Y895423*
X1077201Y894931*
X1077559Y893947*
Y892470*
X1077201Y891486*
X1076843Y890994*
X1075770Y890502*
X1072548*
X1080780Y895915D02*
G01Y885581D01*
X1085075*
X1091160Y895915D02*
G01X1088296Y885581D01*
X1091160Y895915D02*
G01X1094023Y885581D01*
X1089370Y889026D02*
G01X1092949D01*
X1097244Y895915D02*
G01X1100107Y890994D01*
Y885581*
X1102971Y895915D02*
G01X1100107Y890994D01*
X1119435Y894439D02*
G01X1118719Y895423D01*
X1117645Y895915*
X1116213*
X1115140Y895423*
X1114424Y894439*
Y893455*
X1114782Y892470*
X1115140Y891978*
X1115855Y891486*
X1118003Y890502*
X1118719Y890010*
X1119077Y889518*
X1119435Y888533*
Y887057*
X1118719Y886073*
X1117645Y885581*
X1116213*
X1115140Y886073*
X1114424Y887057*
X1122656Y895915D02*
G01X1125519Y890994D01*
Y885581*
X1128382Y895915D02*
G01X1125519Y890994D01*
X1136614Y894439D02*
G01X1135898Y895423D01*
X1134825Y895915*
X1133393*
X1132319Y895423*
X1131603Y894439*
Y893455*
X1131961Y892470*
X1132319Y891978*
X1133035Y891486*
X1135183Y890502*
X1135898Y890010*
X1136256Y889518*
X1136614Y888533*
Y887057*
X1135898Y886073*
X1134825Y885581*
X1133393*
X1132319Y886073*
X1131603Y887057*
X1142341Y895915D02*
G01Y885581D01*
X1139835Y895915D02*
G01X1144846D01*
X1148067D02*
G01Y885581D01*
Y895915D02*
G01X1152720D01*
X1148067Y890994D02*
G01X1150931D01*
X1148067Y885581D02*
G01X1152720D01*
X1155941Y895915D02*
G01Y885581D01*
Y895915D02*
G01X1158805Y885581D01*
X1161668Y895915D02*
G01X1158805Y885581D01*
X1161668Y895915D02*
G01Y885581D01*
X1178490Y893455D02*
G01X1178132Y894439D01*
X1177416Y895423*
X1176700Y895915*
X1175268*
X1174553Y895423*
X1173837Y894439*
X1173479Y893455*
X1173121Y891978*
Y889518*
X1173479Y888041*
X1173837Y887057*
X1174553Y886073*
X1175268Y885581*
X1176700*
X1177416Y886073*
X1178132Y887057*
X1178490Y888041*
X1183858Y895915D02*
G01X1183142Y895423D01*
X1182427Y894439*
X1182069Y893455*
X1181711Y891978*
Y889518*
X1182069Y888041*
X1182427Y887057*
X1183142Y886073*
X1183858Y885581*
X1185290*
X1186006Y886073*
X1186722Y887057*
X1187079Y888041*
X1187437Y889518*
Y891978*
X1187079Y893455*
X1186722Y894439*
X1186006Y895423*
X1185290Y895915*
X1183858*
X1190659D02*
G01Y885581D01*
Y895915D02*
G01X1195669Y885581D01*
Y895915D02*
G01Y885581D01*
X1201396Y895915D02*
G01Y885581D01*
X1198890Y895915D02*
G01X1203901D01*
X1207122D02*
G01Y885581D01*
Y895915D02*
G01X1210344D01*
X1211417Y895423*
X1211775Y894931*
X1212133Y893947*
Y892963*
X1211775Y891978*
X1211417Y891486*
X1210344Y890994*
X1207122*
X1209628D02*
G01X1212133Y885581D01*
X1217502Y895915D02*
G01X1216786Y895423D01*
X1216070Y894439*
X1215712Y893455*
X1215354Y891978*
Y889518*
X1215712Y888041*
X1216070Y887057*
X1216786Y886073*
X1217502Y885581*
X1218933*
X1219649Y886073*
X1220365Y887057*
X1220723Y888041*
X1221081Y889518*
Y891978*
X1220723Y893455*
X1220365Y894439*
X1219649Y895423*
X1218933Y895915*
X1217502*
X1224302D02*
G01Y885581D01*
X1228597*
X1231818Y895915D02*
G01Y885581D01*
X1236113*
X1239334Y895915D02*
G01Y885581D01*
Y895915D02*
G01X1243987D01*
X1239334Y890994D02*
G01X1242198D01*
X1239334Y885581D02*
G01X1243987D01*
X1247208Y895915D02*
G01Y885581D01*
Y895915D02*
G01X1250429D01*
X1251503Y895423*
X1251861Y894931*
X1252219Y893947*
Y892963*
X1251861Y891978*
X1251503Y891486*
X1250429Y890994*
X1247208*
X1249714D02*
G01X1252219Y885581D01*
X1263672Y895915D02*
G01Y885581D01*
Y895915D02*
G01X1266893D01*
X1267967Y895423*
X1268325Y894931*
X1268683Y893947*
Y892963*
X1268325Y891978*
X1267967Y891486*
X1266893Y890994*
X1263672D02*
G01X1266893D01*
X1267967Y890502*
X1268325Y890010*
X1268683Y889026*
Y887549*
X1268325Y886565*
X1267967Y886073*
X1266893Y885581*
X1263672*
X1274052Y895915D02*
G01X1273336Y895423D01*
X1272620Y894439*
X1272262Y893455*
X1271904Y891978*
Y889518*
X1272262Y888041*
X1272620Y887057*
X1273336Y886073*
X1274052Y885581*
X1275483*
X1276199Y886073*
X1276915Y887057*
X1277273Y888041*
X1277631Y889518*
Y891978*
X1277273Y893455*
X1276915Y894439*
X1276199Y895423*
X1275483Y895915*
X1274052*
X1283715D02*
G01X1280852Y885581D01*
X1283715Y895915D02*
G01X1286578Y885581D01*
X1281926Y889026D02*
G01X1285505D01*
X1289800Y895915D02*
G01Y885581D01*
Y895915D02*
G01X1293021D01*
X1294094Y895423*
X1294452Y894931*
X1294810Y893947*
Y892963*
X1294452Y891978*
X1294094Y891486*
X1293021Y890994*
X1289800*
X1292305D02*
G01X1294810Y885581D01*
X1298031Y895915D02*
G01Y885581D01*
Y895915D02*
G01X1300537D01*
X1301611Y895423*
X1302326Y894439*
X1302684Y893455*
X1303042Y891978*
Y889518*
X1302684Y888041*
X1302326Y887057*
X1301611Y886073*
X1300537Y885581*
X1298031*
X1283071Y841043D02*
G01Y830709D01*
X1287366*
X1294166Y841043D02*
G01X1290587Y834154D01*
X1295956*
X1294166Y841043D02*
G01Y830709D01*
X1299535Y831693D02*
G01X1299177Y831201D01*
X1299535Y830709*
X1299893Y831201*
X1299535Y831693*
X1303114Y841043D02*
G01Y830709D01*
Y841043D02*
G01X1306335D01*
X1307409Y840551*
X1307767Y840059*
X1308125Y839075*
Y837598*
X1307767Y836614*
X1307409Y836122*
X1306335Y835630*
X1303114*
X1311346Y841043D02*
G01Y830709D01*
X1316356Y841043D02*
G01Y830709D01*
X1311346Y836122D02*
G01X1316356D01*
X1321725Y841043D02*
G01X1321009Y840551D01*
X1320293Y839567*
X1319936Y838583*
X1319578Y837106*
Y834646*
X1319936Y833169*
X1320293Y832185*
X1321009Y831201*
X1321725Y830709*
X1323157*
X1323873Y831201*
X1324588Y832185*
X1324946Y833169*
X1325304Y834646*
Y837106*
X1324946Y838583*
X1324588Y839567*
X1323873Y840551*
X1323157Y841043*
X1321725*
X972047D02*
G01Y830709D01*
X976342*
X982427Y841043D02*
G01X979563Y830709D01*
X982427Y841043D02*
G01X985290Y830709D01*
X980637Y834154D02*
G01X984216D01*
X988511Y841043D02*
G01X991374Y836122D01*
Y830709*
X994238Y841043D02*
G01X991374Y836122D01*
X997459Y841043D02*
G01Y830709D01*
Y841043D02*
G01X1002112D01*
X997459Y836122D02*
G01X1000322D01*
X997459Y830709D02*
G01X1002112D01*
X1005333Y841043D02*
G01Y830709D01*
Y841043D02*
G01X1008554D01*
X1009628Y840551*
X1009986Y840059*
X1010344Y839075*
Y838091*
X1009986Y837106*
X1009628Y836614*
X1008554Y836122*
X1005333*
X1007838D02*
G01X1010344Y830709D01*
X1025376Y841043D02*
G01X1021797Y834154D01*
X1027165*
X1025376Y841043D02*
G01Y830709D01*
X1041124Y843012D02*
G01X1040408Y842028D01*
X1039692Y840551*
X1038976Y838583*
X1038618Y836122*
Y834154*
X1038976Y831693*
X1039692Y829724*
X1040408Y828248*
X1041124Y827264*
X1049356Y839567D02*
G01X1048640Y840551D01*
X1047566Y841043*
X1046135*
X1045061Y840551*
X1044345Y839567*
Y838583*
X1044703Y837598*
X1045061Y837106*
X1045777Y836614*
X1047924Y835630*
X1048640Y835138*
X1048998Y834646*
X1049356Y833661*
Y832185*
X1048640Y831201*
X1047566Y830709*
X1046135*
X1045061Y831201*
X1044345Y832185*
X1052577Y841043D02*
G01Y830709D01*
X1061167Y838583D02*
G01X1060809Y839567D01*
X1060093Y840551*
X1059377Y841043*
X1057946*
X1057230Y840551*
X1056514Y839567*
X1056156Y838583*
X1055798Y837106*
Y834646*
X1056156Y833169*
X1056514Y832185*
X1057230Y831201*
X1057946Y830709*
X1059377*
X1060093Y831201*
X1060809Y832185*
X1061167Y833169*
Y834646*
X1059377D02*
G01X1061167D01*
X1064388Y841043D02*
G01Y830709D01*
Y841043D02*
G01X1069399Y830709D01*
Y841043D02*
G01Y830709D01*
X1075483Y841043D02*
G01X1072620Y830709D01*
X1075483Y841043D02*
G01X1078346Y830709D01*
X1073694Y834154D02*
G01X1077273D01*
X1081568Y841043D02*
G01Y830709D01*
X1085863*
X1097316Y841043D02*
G01Y830709D01*
X1101611*
X1107695Y841043D02*
G01X1104832Y830709D01*
X1107695Y841043D02*
G01X1110558Y830709D01*
X1105906Y834154D02*
G01X1109485D01*
X1113780Y841043D02*
G01X1116643Y836122D01*
Y830709*
X1119506Y841043D02*
G01X1116643Y836122D01*
X1122727Y841043D02*
G01Y830709D01*
Y841043D02*
G01X1127380D01*
X1122727Y836122D02*
G01X1125591D01*
X1122727Y830709D02*
G01X1127380D01*
X1130601Y841043D02*
G01Y830709D01*
Y841043D02*
G01X1133822D01*
X1134896Y840551*
X1135254Y840059*
X1135612Y839075*
Y838091*
X1135254Y837106*
X1134896Y836614*
X1133822Y836122*
X1130601*
X1133107D02*
G01X1135612Y830709D01*
X1138833Y843012D02*
G01X1139549Y842028D01*
X1140265Y840551*
X1140981Y838583*
X1141339Y836122*
Y834154*
X1140981Y831693*
X1140265Y829724*
X1139549Y828248*
X1138833Y827264*
G54D11*
X964173Y855512D02*
G75*
G03X968110Y851575I3937D01*
Y851575D02*
G01X1129528D01*
Y851575D02*
G03X1133465Y855512J3937D01*
Y855512D02*
G01Y871260D01*
Y871260D02*
G03X1129528Y875197I-3937D01*
Y875197D02*
G01X968110D01*
Y875197D02*
G03X964173Y871260J-3937D01*
Y871260D02*
G01Y855512D01*
X1137402D02*
G03X1141339Y851575I3937D01*
Y851575D02*
G01X1176772D01*
Y851575D02*
G03X1180709Y855512J3937D01*
Y855512D02*
G01Y871260D01*
Y871260D02*
G03X1176772Y875197I-3937D01*
Y875197D02*
G01X1141339D01*
Y875197D02*
G03X1137402Y871260J-3937D01*
Y871260D02*
G01Y855512D01*
X964173Y827953D02*
G03X968110Y824016I3937D01*
Y824016D02*
G01X1176772D01*
Y824016D02*
G03X1180709Y827953J3937D01*
Y827953D02*
G01Y843701D01*
Y843701D02*
G03X1176772Y847638I-3937D01*
Y847638D02*
G01X968110D01*
Y847638D02*
G03X964173Y843701J-3937D01*
Y843701D02*
G01Y827953D01*
X1184646D02*
G03X1188583Y824016I3937D01*
Y824016D02*
G01X1330315D01*
Y824016D02*
G03X1334252Y827953J3937D01*
Y827953D02*
G01Y843701D01*
Y843701D02*
G03X1330315Y847638I-3937D01*
Y847638D02*
G01X1188583D01*
Y847638D02*
G03X1184646Y843701J-3937D01*
Y843701D02*
G01Y827953D01*
Y855512D02*
G03X1188583Y851575I3937D01*
Y851575D02*
G01X1330315D01*
Y851575D02*
G03X1334252Y855512J3937D01*
Y855512D02*
G01Y871260D01*
Y871260D02*
G03X1330315Y875197I-3937D01*
Y875197D02*
G01X1188583D01*
Y875197D02*
G03X1184646Y871260J-3937D01*
Y871260D02*
G01Y855512D01*
X964173Y883071D02*
G03X968110Y879134I3937D01*
Y879134D02*
G01X1330315D01*
Y879134D02*
G03X1334252Y883071J3937D01*
Y883071D02*
G01Y898819D01*
Y898819D02*
G03X1330315Y902756I-3937D01*
Y902756D02*
G01X968110D01*
Y902756D02*
G03X964173Y898819J-3937D01*
Y898819D02*
G01Y883071D01*
G54D12*
X960236Y827953D02*
G03X968110Y820079I7874D01*
Y820079D02*
G01X1330315D01*
Y820079D02*
G03X1338189Y827953J7874D01*
Y827953D02*
G01Y898819D01*
Y898819D02*
G03X1330315Y906693I-7874D01*
Y906693D02*
G01X968110D01*
Y906693D02*
G03X960236Y898819J-7874D01*
Y898819D02*
G01Y827953D01*
G54D13*
X1191267Y843701D02*
G01X1191088Y844193D01*
X1190730Y844685*
X1190372Y844931*
X1189656*
X1189298Y844685*
X1188941Y844193*
X1188762Y843701*
X1188583Y842963*
Y841732*
X1188762Y840994*
X1188941Y840502*
X1189298Y840010*
X1189656Y839764*
X1190372*
X1190730Y840010*
X1191088Y840502*
X1191267Y840994*
Y841732*
X1190372D02*
G01X1191267D01*
X1192878Y844931D02*
G01Y839764D01*
Y844931D02*
G01X1195204D01*
X1192878Y842470D02*
G01X1194309D01*
X1192878Y839764D02*
G01X1195204D01*
X1196815Y844931D02*
G01Y839764D01*
Y844931D02*
G01X1198425D01*
X1198962Y844685*
X1199141Y844439*
X1199320Y843947*
Y843455*
X1199141Y842963*
X1198962Y842717*
X1198425Y842470*
X1196815*
X1198067D02*
G01X1199320Y839764D01*
X1200931Y844931D02*
G01Y839764D01*
Y844931D02*
G01X1202541D01*
X1203078Y844685*
X1203257Y844439*
X1203436Y843947*
Y843455*
X1203257Y842963*
X1203078Y842717*
X1202541Y842470*
X1200931D02*
G01X1202541D01*
X1203078Y842224*
X1203257Y841978*
X1203436Y841486*
Y840748*
X1203257Y840256*
X1203078Y840010*
X1202541Y839764*
X1200931*
X1205047Y844931D02*
G01Y839764D01*
Y844931D02*
G01X1207373D01*
X1205047Y842470D02*
G01X1206478D01*
X1205047Y839764D02*
G01X1207373D01*
X1208984Y844931D02*
G01Y839764D01*
Y844931D02*
G01X1210594D01*
X1211131Y844685*
X1211310Y844439*
X1211489Y843947*
Y843455*
X1211310Y842963*
X1211131Y842717*
X1210594Y842470*
X1208984*
X1210236D02*
G01X1211489Y839764D01*
X1213278Y843209D02*
G01X1213099Y842963D01*
Y842963D02*
G01X1213278Y842717D01*
X1213457Y842963*
X1213278Y843209*
Y840256D02*
G01X1213099Y840010D01*
Y840010D02*
G01X1213278Y839764D01*
X1213457Y840010*
X1213278Y840256*
X1188583Y872490D02*
G01Y867323D01*
Y872490D02*
G01X1189835D01*
X1190372Y872244*
X1190730Y871752*
X1190909Y871260*
X1191088Y870522*
Y869291*
X1190909Y868553*
X1190730Y868061*
X1190372Y867569*
X1189835Y867323*
X1188583*
X1194130Y872490D02*
G01X1192699Y867323D01*
X1194130Y872490D02*
G01X1195562Y867323D01*
X1193236Y869045D02*
G01X1195025D01*
X1198425Y872490D02*
G01Y867323D01*
X1197173Y872490D02*
G01X1199678D01*
X1201288D02*
G01Y867323D01*
Y872490D02*
G01X1203615D01*
X1201288Y870030D02*
G01X1202720D01*
X1201288Y867323D02*
G01X1203615D01*
X1205404Y870768D02*
G01X1205225Y870522D01*
X1205404Y870276*
X1205583Y870522*
X1205404Y870768*
Y867815D02*
G01X1205225Y867569D01*
X1205404Y867323*
X1205583Y867569*
X1205404Y867815*
X1141339Y872490D02*
G01Y867323D01*
Y872490D02*
G01X1142949D01*
X1143486Y872244*
X1143665Y871998*
X1143844Y871506*
Y871014*
X1143665Y870522*
X1143486Y870276*
X1142949Y870030*
X1141339*
X1142591D02*
G01X1143844Y867323D01*
X1145455Y872490D02*
G01Y867323D01*
Y872490D02*
G01X1147781D01*
X1145455Y870030D02*
G01X1146886D01*
X1145455Y867323D02*
G01X1147781D01*
X1149392Y872490D02*
G01X1150823Y867323D01*
X1152255Y872490D02*
G01X1150823Y867323D01*
X1154044Y870768D02*
G01X1153865Y870522D01*
X1154044Y870276*
X1154223Y870522*
X1154044Y870768*
Y867815D02*
G01X1153865Y867569D01*
X1154044Y867323*
X1154223Y867569*
X1154044Y867815*
X968110Y872490D02*
G01Y867323D01*
Y872490D02*
G01X969721D01*
X970258Y872244*
X970437Y871998*
X970616Y871506*
Y870768*
X970437Y870276*
X970258Y870030*
X969721Y869783*
X968110*
X973658Y872490D02*
G01X972226Y867323D01*
X973658Y872490D02*
G01X975089Y867323D01*
X972763Y869045D02*
G01X974553D01*
X976700Y872490D02*
G01Y867323D01*
Y872490D02*
G01X978311D01*
X978848Y872244*
X979026Y871998*
X979205Y871506*
Y871014*
X979026Y870522*
X978848Y870276*
X978311Y870030*
X976700*
X977953D02*
G01X979205Y867323D01*
X982069Y872490D02*
G01Y867323D01*
X980816Y872490D02*
G01X983321D01*
X989048D02*
G01Y867323D01*
Y872490D02*
G01X991553Y867323D01*
Y872490D02*
G01Y867323D01*
X994238Y872490D02*
G01X993880Y872244D01*
X993522Y871752*
X993343Y871260*
X993164Y870522*
Y869291*
X993343Y868553*
X993522Y868061*
X993880Y867569*
X994238Y867323*
X994953*
X995311Y867569*
X995669Y868061*
X995848Y868553*
X996027Y869291*
Y870522*
X995848Y871260*
X995669Y871752*
X995311Y872244*
X994953Y872490*
X994238*
X997817Y867815D02*
G01X997638Y867569D01*
X997817Y867323*
X997996Y867569*
X997817Y867815*
X999785Y870768D02*
G01X999606Y870522D01*
X999785Y870276*
X999964Y870522*
X999785Y870768*
Y867815D02*
G01X999606Y867569D01*
X999785Y867323*
X999964Y867569*
X999785Y867815*
X933071Y818898D02*
G03X933071Y818898I-3937D01*
X937008D02*
G03X937008Y818898I-7874D01*
X933071Y1267717D02*
G03X933071Y1267717I-3937D01*
X937008D02*
G03X937008Y1267717I-7874D01*
X1354331Y818898D02*
G03X1354331Y818898I-3937D01*
X1358268D02*
G03X1358268Y818898I-7874D01*
G54D14*
X917323D02*
G01X940945D01*
X929134Y807087D02*
G01Y830709D01*
X917323Y1267717D02*
G01X940945D01*
X929134Y1255906D02*
G01Y1279528D01*
X1338583Y818898D02*
G01X1362205D01*
X1350394Y807087D02*
G01Y830709D01*
X920866Y820079D02*
G01X920906D01*
X920866D02*
G01X921063D01*
G54D16*
X1090600Y1141300D02*
G01Y1147983D01*
X1086614Y1151969*
G54D42*
X1059252Y1020276D02*
G01X1050394Y1029134D01*
Y1065157*
X1053740Y1068504*
Y1088386*
X1055512Y1090157*
Y1094291*
X1062992Y1025787D02*
G01X1058400Y1030380D01*
Y1052525*
X1056500Y1054425*
Y1056200*
X1079200Y1031100D02*
G01Y1033162D01*
X1079000Y1033362*
Y1045370*
X1077953Y1046417*
Y1055906*
X1086600Y1025400D02*
G01X1088655Y1027455D01*
Y1029852*
X1090500Y1031697*
Y1039454*
X1093700Y1042654*
Y1068100*
X1095100Y1069500*
Y1075200*
X1096400Y1076500*
X1096500*
X1097800Y1077800*
Y1080300*
X1108300Y1026800D02*
G01X1106574Y1028526D01*
Y1033179*
X1105756Y1033997*
Y1038800*
X1138583Y1020276D02*
G01Y1025394D01*
X1143701Y1030512*
Y1036614*
X1202500Y1007700D02*
G01X1198685D01*
X1189200Y1017185*
Y1020238*
X1170500Y1038938*
Y1049800*
X1193504Y1020866D02*
G01Y1027559D01*
X1183071Y1037992*
X1197200Y1012000D02*
G01X1202400Y1017200D01*
Y1044200*
X1024400Y1049100D02*
G01X1032500Y1057200D01*
Y1119083*
X1034843Y1121426*
Y1123031*
X1011800Y1049100D02*
G01X1011811Y1052511D01*
X1028937Y1069637*
Y1114370*
X1018100Y1049100D02*
G01X1031200Y1062200D01*
Y1130600*
X1054500Y1065600D02*
G01X1058800Y1069900D01*
X1030700Y1049200D02*
G01X1033600Y1052100D01*
Y1118291*
X1036700Y1121391*
Y1125100*
X1036658Y1125142*
Y1126458*
X1037600Y1127400*
X1056500Y1056200D02*
G01X1054500Y1058200D01*
Y1065600*
X1085600Y1069895D02*
G01Y1080300D01*
X1086000Y1080700*
X1102710Y1046324D02*
G01X1104185Y1047800D01*
X1104300*
X1106700Y1050200*
Y1050700*
X1105756Y1038800D02*
G01X1122000Y1055044D01*
Y1074700*
X1125000Y1077700*
X1101710Y1046739D02*
G01X1104300Y1049329D01*
Y1051115*
X1106085Y1052900*
X1109143*
X1112890Y1056647*
Y1067220*
X1102044Y1040263D02*
G01X1101710Y1040597D01*
Y1046739*
X1092100Y1066902D02*
G01X1091100Y1067902D01*
Y1076791*
X1086811Y1059252D02*
G01Y1068684D01*
X1085600Y1069895*
X1106700Y1050700D02*
G01X1108400D01*
X1113900Y1056200*
Y1056223*
X1103900Y1037100D02*
G01Y1042020D01*
X1102710Y1043210*
Y1046324*
X1101575Y1034646D02*
G01Y1036031D01*
X1102044Y1036500*
Y1040263*
X1101000Y1050300D02*
G01X1102800Y1052100D01*
X1103200*
X1105261Y1054161*
Y1054174*
X1108139*
X1097638Y1034646D02*
G01Y1044081D01*
X1098800Y1045243*
Y1048100*
X1101000Y1050300*
X1089764Y1045866D02*
G01X1092100Y1048202D01*
Y1066902*
X1077000Y1036400D02*
G01X1073622Y1039778D01*
Y1049409*
X1100400Y1061200D02*
G01X1098900Y1062700D01*
Y1075053*
X1103100Y1054700D02*
G01Y1054800D01*
X1104453*
X1105353Y1055700*
X1109115*
X1110890Y1057476*
Y1061268*
X1109900Y1062258*
Y1077461*
X1110500Y1078061*
Y1081450*
X1111000Y1081950*
Y1088100*
X1111450Y1088550*
Y1097900*
X1111200*
X1147591Y1052500D02*
G01X1146456D01*
X1144685Y1054271*
Y1081693*
X1108157Y1054156D02*
G01X1108985D01*
X1111890Y1057061*
Y1063826*
X1108157Y1054156D02*
G01X1108139Y1054174D01*
X1113900Y1056223D02*
G01X1113890Y1056233D01*
Y1070613*
X1113800Y1070703*
Y1075300*
X1111890Y1063826D02*
G01X1110900Y1064817D01*
Y1076422*
X1145710Y1059005D02*
G01Y1079367D01*
X1146654Y1080311*
Y1083661*
X1112890Y1067220D02*
G01X1111900Y1068210D01*
Y1076008*
X1142700Y1050000D02*
G01Y1066822D01*
X1142717Y1066839*
Y1083661*
X1140700Y1046500D02*
G01X1139646Y1047554D01*
Y1048554*
X1138600Y1049600*
Y1056356*
X1140748Y1058504*
Y1081693*
X1138780Y1064567D02*
G01Y1083661D01*
X1107600Y1036900D02*
G01X1123600Y1052900D01*
Y1073708*
X1125592Y1075700*
X1125815*
X1130906Y1080791*
Y1083661*
X1123600Y1036600D02*
G01X1125500Y1038500D01*
X1130398*
X1132283Y1036614D02*
G01X1130398Y1038500D01*
X1158592Y1043700D02*
G01X1159515D01*
X1160690Y1044876*
X1150500Y1051400D02*
G01X1148691D01*
X1147591Y1052500*
X1158100Y1071253D02*
G01Y1075300D01*
X1159800Y1077000*
X1158390Y1069240D02*
G01Y1070963D01*
X1158100Y1071253*
X1153410Y1057290D02*
G01Y1071906D01*
X1155190Y1073686*
X1181590Y1047813D02*
G01X1181400Y1048003D01*
Y1050247*
X1183700Y1052547*
Y1060150*
X1192573Y1069023*
Y1076022*
X1194671Y1078120*
Y1086186*
X1161690Y1044190D02*
G01Y1058007D01*
X1157000Y1062697*
Y1067850*
X1158390Y1069240*
X1157400Y1039862D02*
G01Y1042508D01*
X1158592Y1043700*
X1156200Y1039600D02*
G01Y1050127D01*
X1149700Y1056627*
Y1078948*
X1148622Y1080026*
Y1081693*
X1160690Y1044876D02*
G01Y1047226D01*
X1150700Y1057217*
Y1080791*
X1150591Y1080900*
Y1083661*
X1154410Y1064899D02*
G01Y1071208D01*
X1156400Y1073198*
Y1078800*
X1157900Y1080300*
X1170500Y1049800D02*
G01X1166068Y1054232D01*
Y1065127*
X1162200Y1068996*
Y1083852*
X1159600Y1086452*
Y1091200*
X1155800Y1095000*
X1152500*
X1155500Y1058100D02*
G01Y1063809D01*
X1154410Y1064899*
X1156300Y1054400D02*
G01X1153410Y1057290D01*
X1157500Y1037200D02*
G01Y1039762D01*
X1157400Y1039862*
X1152200Y1035600D02*
G01X1156200Y1039600D01*
X1153900Y1040500D02*
G01Y1045953D01*
X1150500Y1049353*
Y1051400*
X1159300Y1041800D02*
G01X1161690Y1044190D01*
X1154300Y1048200D02*
G01Y1050415D01*
X1145710Y1059005*
X1180512Y1039764D02*
G01Y1044259D01*
X1181590Y1045337*
Y1047813*
X1205000Y1052100D02*
G01Y1055600D01*
X1206700Y1057300*
Y1060800*
X1036510Y1109560D02*
G01X1036900Y1109950D01*
Y1118504*
X1037690Y1091895D02*
G01X1036510Y1093076D01*
Y1109560*
X1066929Y1096260D02*
G01X1050300Y1112889D01*
Y1168204*
X1047835Y1170669*
X1039173Y1094291D02*
G01Y1097118D01*
X1037510Y1098782*
Y1105535*
X1039200Y1107225*
Y1112600*
X1036900Y1082600D02*
G01Y1086138D01*
X1037690Y1086928*
Y1091895*
X1041535Y1109252D02*
G01Y1140354D01*
X1043504Y1107283D02*
G01Y1111296D01*
X1042600Y1112200*
Y1128100*
X1043504Y1129004*
Y1136614*
X1086000Y1080700D02*
G01Y1083200D01*
X1083200Y1086000*
X1098900Y1075053D02*
G01X1103817Y1079970D01*
Y1081179*
X1105709Y1083071*
X1103300Y1092600D02*
G01Y1100697D01*
X1094097Y1109900*
X1097800Y1080300D02*
G01X1097300Y1080800D01*
Y1083400*
X1091100Y1076791D02*
G01X1092300Y1077991D01*
Y1079600*
X1095900Y1078500D02*
G01Y1080909D01*
X1095300Y1081509*
Y1087174*
X1099300Y1091174*
Y1095941*
X1100600Y1097241*
Y1098800*
X1102165Y1083661D02*
G01X1109000Y1090496D01*
Y1099300*
X1116700Y1107000*
Y1118900*
X1123700Y1125900*
X1102100Y1074700D02*
G01X1104600Y1077200D01*
Y1079200*
X1109100Y1083700*
X1083200Y1086000D02*
G01Y1090000D01*
X1083900Y1090700*
Y1094700*
X1080300Y1083400D02*
G01Y1109403D01*
X1092300Y1121403*
Y1134946*
X1097300Y1083400D02*
G01Y1086600D01*
X1103300Y1092600*
X1086000Y1109900D02*
G01X1094097D01*
X1115720Y1076810D02*
G01X1120220D01*
X1123180Y1079769*
X1127014*
X1128937Y1081693*
X1115720Y1076810D02*
G01X1115386Y1077144D01*
X1116956Y1077810D02*
G01X1119424D01*
X1121063Y1079448*
Y1084301*
X1122268Y1085506*
X1125124*
X1116956Y1077810D02*
G01X1116622Y1078144D01*
X1110900Y1076422D02*
G01X1112622Y1078144D01*
X1116622*
X1111900Y1076008D02*
G01X1113036Y1077144D01*
X1115386*
X1126969Y1083661D02*
G01X1125124Y1085506D01*
X1155190Y1073686D02*
G01Y1076610D01*
X1152600Y1079200*
X1159800Y1077000D02*
G01Y1082720D01*
X1156693Y1085827*
X1181102Y1090354D02*
G01X1183800Y1093052D01*
Y1125000*
X1194671Y1086186D02*
G01X1193810Y1087047D01*
Y1118409*
X1213583Y1109449D02*
G01Y1129475D01*
X1214500Y1130392*
X1217520Y1106496D02*
G01Y1145628D01*
X1213800Y1149348*
Y1161328*
X1212300Y1162828*
Y1185115*
X1208315Y1189100*
X1217717Y1101969D02*
G01X1221900Y1106152D01*
Y1164551*
X1223100Y1165751*
Y1171439*
X1229300Y1177639*
X1221654Y1101969D02*
G01Y1103896D01*
X1223200Y1105443*
Y1162848*
X1227200Y1166848*
Y1173891*
X1230300Y1176991*
X1219500Y1091800D02*
G01Y1094106D01*
X1227362Y1101969*
Y1123959*
X1226656Y1124665*
X1231299Y1101969D02*
G01Y1123889D01*
X1227656Y1127532*
Y1164391*
X1229200Y1165935*
Y1172490*
X1232300Y1175590*
Y1195263*
X1217300Y1210263*
Y1228359*
X1220669Y1231729*
Y1240354*
X1237205Y1103937D02*
G01Y1110230D01*
X1233600Y1113835*
Y1129445*
X1233000Y1130045*
Y1137300*
X1235236Y1101969D02*
G01Y1107680D01*
X1232400Y1110517*
Y1126140*
X1230300Y1128240*
Y1140100*
X1250394Y1097638D02*
G01X1253740Y1100984D01*
Y1149606*
X1255315Y1151181*
X1250394Y1100591D02*
G01X1252559Y1102756D01*
Y1152559*
X1265157Y1111811D02*
G01X1267200Y1113854D01*
Y1115185*
X1269100Y1117085*
Y1119412*
X1270600Y1120912*
Y1123400*
X1250394Y1092913D02*
G01X1254921Y1097441D01*
Y1124213*
X1257480Y1126772*
X1291732Y1108661D02*
G01Y1113015D01*
X1291700Y1113047*
Y1117400*
X1039200Y1112600D02*
G01X1039173D01*
Y1125197*
X1056200Y1120000D02*
G01X1063529D01*
X1068329Y1124800*
X1074600*
X1081400Y1131600*
X1083800*
X1059055Y1114173D02*
G01X1056200Y1117028D01*
Y1120000*
X1066929Y1114173D02*
G01X1070856Y1118100D01*
X1074500*
X1083300Y1126900*
X1062992Y1114173D02*
G01X1068419Y1119600D01*
X1073400*
X1075100Y1121300*
Y1122300*
X1082100Y1129300*
X1083500*
X1092300Y1134946D02*
G01X1083465Y1143782D01*
Y1151378*
X1087900Y1129800D02*
G01X1085647D01*
X1083947Y1131500*
X1083900*
X1083800Y1131600*
X1088200Y1125800D02*
G01X1085647D01*
X1084547Y1126900*
X1083300*
X1070866Y1114173D02*
G01X1076173D01*
X1083500Y1121500*
X1140164Y1149600D02*
G01X1131500D01*
Y1157900*
X1183800Y1125000D02*
G01Y1129510D01*
X1185190Y1130900*
Y1145724*
X1178915Y1152000*
X1176740*
X1171457Y1157283*
X1153937Y1119488D02*
G01Y1135827D01*
X1140164Y1149600*
X1156496Y1142913D02*
G01X1160200Y1146617D01*
Y1179700*
X1168200Y1138100D02*
G01Y1141035D01*
X1171063Y1143898*
X1214500Y1130392D02*
G01Y1146778D01*
X1212478Y1148800*
Y1153215*
X1210915Y1154777*
Y1180598*
X1205510Y1186004*
X1226656Y1124665D02*
G01Y1164851D01*
X1228200Y1166396*
Y1173216*
X1231300Y1176316*
X1193810Y1118409D02*
G01X1200400Y1124999D01*
Y1149754*
X1201000Y1150354*
Y1156700*
X1209646Y1114370D02*
G01Y1132713D01*
X1212500Y1135568*
Y1145949*
X1210478Y1147972*
Y1152387*
X1208915Y1153949*
Y1179498*
X1203510Y1184903*
Y1186033*
X1200511Y1189032*
X1200346*
X1196067Y1193310*
Y1204720*
X1189370Y1211417*
X1211614Y1112402D02*
G01Y1131591D01*
X1213500Y1133477*
Y1146363*
X1211478Y1148386*
Y1152801*
X1209915Y1154363*
Y1179912*
X1204510Y1185317*
Y1186447*
X1200284Y1190673*
X1200119*
X1197067Y1193725*
Y1206328*
X1188829Y1214567*
X1187008*
X1210630Y1137992D02*
G01Y1146405D01*
X1209478Y1147557*
Y1151972*
X1207915Y1153535*
Y1179084*
X1202510Y1184489*
Y1185619*
X1200338Y1187791*
X1200172*
X1195067Y1192896*
Y1202013*
X1188812Y1208268*
X1187008*
X1217520Y1151772D02*
G01X1214800Y1154491D01*
Y1161743*
X1213300Y1163243*
Y1186400*
X1208700Y1191000*
X1230300Y1140100D02*
G01Y1143700D01*
X1243200Y1143367D02*
G01Y1149630D01*
X1251390Y1157820*
X1234688Y1120037D02*
G01Y1128208D01*
X1234856Y1128377*
Y1157228*
X1241390Y1163761*
X1233200Y1146600D02*
G01Y1157072D01*
X1230656Y1159616*
X1232200Y1148342D02*
G01Y1155050D01*
X1229656Y1157594*
X1235869Y1122596D02*
G01Y1156812D01*
X1242390Y1163333*
X1238231Y1127714D02*
G01Y1151937D01*
X1244390Y1158096*
X1239412Y1130273D02*
G01Y1151283D01*
X1245390Y1157262*
Y1199483*
X1240593Y1132832D02*
G01Y1150656D01*
X1249390Y1159453*
X1241774Y1135391D02*
G01Y1150024D01*
X1250390Y1158640*
X1237050Y1125155D02*
G01Y1152590D01*
X1241700Y1157240*
Y1159800*
X1243898Y1137008D02*
G01Y1142669D01*
X1243200Y1143367*
X1242717Y1134449D02*
G01X1241774Y1135391D01*
X1241535Y1131890D02*
G01X1240593Y1132832D01*
X1240354Y1129331D02*
G01X1239412Y1130273D01*
X1239173Y1126772D02*
G01X1238231Y1127714D01*
X1237992Y1124213D02*
G01X1237050Y1125155D01*
X1236811Y1121654D02*
G01X1235869Y1122596D01*
X1235630Y1119094D02*
G01X1234688Y1120037D01*
X1230200Y1140100D02*
G01X1230300D01*
Y1143700D02*
G01X1233200Y1146600D01*
X1230315Y1146457D02*
G01X1232200Y1148342D01*
X1230300Y1151200D02*
G01Y1154034D01*
X1228656Y1155678*
X1245079Y1148425D02*
G01X1252390Y1155737D01*
Y1203733*
X1049644Y1172479D02*
G01Y1177556D01*
X1047800Y1179400*
X1061024Y1164961D02*
G01Y1234646D01*
X1065748Y1239291*
X1047835Y1170669D02*
G01X1049644Y1172479D01*
X1046300Y1162500D02*
G01Y1165364D01*
X1046260Y1165404*
Y1168110*
X1046300Y1158600D02*
G01Y1162500D01*
X1072120Y1157658D02*
G01Y1162656D01*
X1072000Y1162776*
Y1167300*
X1069685Y1152362D02*
G01Y1156299D01*
X1061024Y1164961*
X1092717Y1190551D02*
G01Y1240354D01*
X1090157Y1242913*
X1076181Y1185039D02*
G01Y1191339D01*
X1072244Y1195276*
Y1218701*
X1065748Y1225197*
Y1229291*
X1074213Y1188976D02*
G01Y1191535D01*
X1071063Y1194685*
Y1202953*
X1069882Y1204134*
Y1211024*
X1065748Y1215157*
Y1219291*
X1072244Y1187008D02*
G01Y1191732D01*
X1069882Y1194094*
Y1200984*
X1065748Y1205118*
Y1209291*
X1070276Y1190945D02*
G01X1065748Y1195472D01*
Y1199291*
X1072047Y1155709D02*
G01Y1157586D01*
X1072120Y1157658*
X1131700Y1178700D02*
G01X1127307D01*
X1127267Y1178740*
X1123031D02*
G01X1127267D01*
X1125000Y1180709D02*
G01Y1191922D01*
X1132378Y1199300*
X1135500*
X1138000Y1201800*
X1126969Y1183268D02*
G01Y1192477D01*
X1131392Y1196900*
X1134100*
X1128900Y1181400D02*
G01Y1191800D01*
X1131400Y1194300*
X1130900Y1183600D02*
G01Y1187600D01*
X1134500Y1191200*
X1190748Y1187008D02*
G01X1187008D01*
X1182677Y1191339*
X1189961Y1185827D02*
G01X1186614D01*
X1181496Y1190945*
X1189173Y1184646D02*
G01X1186220D01*
X1180315Y1190551*
X1188386Y1183465D02*
G01X1185827D01*
X1179134Y1190157*
X1183392Y1163500D02*
G01X1185438D01*
X1186138Y1164200*
X1188100*
X1183392Y1163500D02*
G01X1182200Y1164692D01*
X1156300Y1159100D02*
G01X1156342Y1159058D01*
X1157285Y1160000*
X1157615*
X1158790Y1161176*
X1179810Y1176410D02*
G01X1184000Y1180600D01*
X1182200Y1164692D02*
G01Y1166200D01*
X1182350Y1166350*
Y1167500*
X1182700Y1167850*
Y1170400*
X1181800Y1171300*
Y1173700*
X1180315Y1190551D02*
G01Y1242520D01*
X1187008Y1249213*
X1181496Y1190945D02*
G01Y1238031D01*
X1187008Y1243543*
Y1246063*
X1158790Y1161176D02*
G01Y1174460D01*
X1150656Y1182594*
Y1222289*
X1137400Y1235545*
Y1236930*
X1133000Y1241330*
Y1243100*
X1183858Y1191732D02*
G01Y1198819D01*
X1187008Y1201969*
X1179134Y1190157D02*
G01Y1244488D01*
X1187008Y1252362*
X1182677Y1191339D02*
G01Y1200787D01*
X1187008Y1205118*
X1184000Y1180600D02*
G01X1176900Y1187700D01*
Y1248554*
X1180800Y1168800D02*
G01Y1171009D01*
X1179810Y1171999*
Y1176410*
X1181800Y1173700D02*
G01X1183980Y1175880D01*
Y1176500*
X1187992Y1180512*
X1184100Y1165400D02*
G01X1185700Y1167000D01*
Y1171920*
X1189961Y1176181*
Y1178543*
X1160200Y1179700D02*
G01Y1238067D01*
X1157874Y1240393*
Y1242913*
X1208315Y1189100D02*
G01X1207892D01*
X1206700Y1190292*
X1200164Y1186551D02*
G01X1199065D01*
X1193096Y1192520*
X1192717Y1190551D02*
G01X1188386D01*
X1187008Y1191929*
Y1195669*
X1191542Y1189400D02*
G01X1188123D01*
X1185100Y1192423*
X1191339Y1188189D02*
G01X1187402D01*
X1183858Y1191732*
X1199500Y1184400D02*
G01X1199184Y1184084D01*
X1192717Y1190551*
X1205510Y1186004D02*
G01Y1191890D01*
X1206090Y1192470*
X1206700Y1190292D02*
G01Y1191660D01*
X1207100Y1192060*
Y1194529*
X1203990Y1197639*
Y1198667*
X1201756Y1200901*
X1187992Y1180512D02*
G01X1186604Y1181900D01*
X1185900*
X1178100Y1189700*
Y1246100*
X1189961Y1178543D02*
G01Y1181890D01*
X1188386Y1183465*
X1191929Y1180512D02*
G01Y1181890D01*
X1189173Y1184646*
X1190600Y1166400D02*
G01Y1174783D01*
X1191929Y1176113*
Y1180512*
X1193898Y1178543D02*
G01Y1181890D01*
X1189961Y1185827*
X1192300Y1164300D02*
G01X1192500D01*
Y1174783*
X1193898Y1176181*
Y1178543*
X1195866Y1180512D02*
G01Y1181890D01*
X1190748Y1187008*
X1195079Y1168110D02*
G01Y1175394D01*
X1195866Y1176181*
Y1180512*
X1197835Y1178543D02*
G01Y1181693D01*
X1191339Y1188189*
X1197835Y1168110D02*
G01Y1178543D01*
X1199803Y1180512D02*
G01X1198848Y1181467D01*
Y1182094*
X1191542Y1189400*
X1201772Y1178543D02*
G01Y1181496D01*
X1199184Y1184084*
X1203740Y1180512D02*
G01Y1181844D01*
X1201510Y1184075*
Y1185205*
X1200164Y1186551*
X1215551Y1178543D02*
G01Y1188749D01*
X1208900Y1195400*
X1217520Y1180512D02*
G01Y1189388D01*
X1209608Y1197300*
X1219488Y1178543D02*
G01Y1190565D01*
X1207900Y1202153*
X1221457Y1180512D02*
G01Y1191643D01*
X1209800Y1203300*
X1223425Y1178543D02*
G01Y1191260D01*
X1216500Y1198186*
Y1199636*
X1207910Y1208226*
X1225394Y1180512D02*
G01Y1190792D01*
X1220000Y1196186*
Y1197827*
X1208910Y1208918*
X1251390Y1157820D02*
G01Y1202301D01*
X1246000Y1207691*
Y1235151*
X1242175Y1238976*
X1241390Y1163761D02*
G01Y1167299D01*
X1237200Y1171490*
Y1196410*
X1231200Y1202410*
Y1203215*
X1230258Y1204158*
X1230656Y1159616D02*
G01Y1162986D01*
X1232200Y1164530*
Y1169788*
X1235300Y1172888*
Y1196546*
X1220300Y1211546*
X1229656Y1157594D02*
G01Y1163435D01*
X1231200Y1164980*
Y1170791*
X1234300Y1173891*
Y1196109*
X1219300Y1211109*
X1228656Y1155678D02*
G01Y1163915D01*
X1230200Y1165459*
Y1171688*
X1233300Y1174788*
Y1195683*
X1218300Y1210683*
X1229300Y1177639D02*
G01Y1194015D01*
X1214100Y1209215*
Y1217062*
X1212400Y1218762*
Y1225000*
X1230300Y1176991D02*
G01Y1194430D01*
X1215300Y1209430*
X1231300Y1176316D02*
G01Y1194846D01*
X1216300Y1209846*
X1242390Y1163333D02*
G01Y1168295D01*
X1240500Y1170185*
Y1181643*
X1239200Y1182943*
Y1197414*
X1233071Y1203543*
X1243390Y1161490D02*
G01Y1171166D01*
X1241500Y1173056*
Y1185554*
X1240400Y1186654*
Y1198970*
X1235827Y1203543*
X1249390Y1159453D02*
G01Y1198231D01*
X1243500Y1204121*
Y1233714*
X1242175Y1235039*
X1250390Y1158640D02*
G01Y1200122D01*
X1244700Y1205812*
Y1233929*
X1242576Y1236052*
X1244390Y1158096D02*
G01Y1176493D01*
X1242500Y1178383*
Y1189700*
X1227362Y1178543D02*
G01Y1190280D01*
X1222200Y1195443*
Y1197290*
X1209910Y1209580*
X1242500Y1189700D02*
G01Y1199626D01*
X1238583Y1203543*
X1241700Y1159800D02*
G01X1243390Y1161490D01*
X1304331Y1183465D02*
G01Y1195276D01*
X1077362Y1207283D02*
G01Y1216929D01*
X1070669Y1223622*
Y1234646*
X1074803Y1204724D02*
G01X1077362Y1207283D01*
X1142200Y1195500D02*
G01Y1199400D01*
X1185100Y1192423D02*
G01Y1196370D01*
X1187549Y1198819*
X1186811Y1220866D02*
G01X1188829D01*
X1202992Y1203700D02*
G01X1204300D01*
X1205600Y1205000*
X1204650Y1207900D02*
G01X1201300D01*
X1196346Y1212854*
Y1212946*
X1194400Y1214892*
Y1215295*
X1188829Y1220866*
X1209608Y1197300D02*
G01X1206685D01*
X1205026Y1198959*
Y1200274*
X1203600Y1201700*
X1200733Y1203033D02*
G01X1200833D01*
Y1203133*
X1203600Y1205900*
X1201187*
X1189370Y1217717*
X1207900Y1202153D02*
G01Y1205300D01*
X1206090Y1192470D02*
G01Y1194124D01*
X1202990Y1197225*
Y1198227*
X1200733Y1200485*
Y1203033*
X1201756Y1200901D02*
G01Y1202464D01*
X1202992Y1203700*
X1205600Y1205000D02*
G01Y1206950D01*
X1204650Y1207900*
X1220300Y1211546D02*
G01Y1226128D01*
X1226378Y1232206*
Y1248622*
X1219300Y1211109D02*
G01Y1226947D01*
X1225100Y1232747*
X1218300Y1210683D02*
G01Y1227685D01*
X1223228Y1232613*
Y1243307*
X1210490Y1227409D02*
G01Y1247778D01*
X1199606Y1258661*
X1207910Y1208226D02*
G01Y1219560D01*
X1208300Y1219950*
Y1237826*
X1208490Y1238016*
X1208910Y1208918D02*
G01Y1216634D01*
X1209300Y1217024*
Y1232522*
X1209490Y1232713*
X1209910Y1209580D02*
G01Y1214372D01*
X1210355Y1214817*
Y1227274*
X1210490Y1227409*
X1216300Y1209846D02*
G01Y1228990D01*
X1218701Y1231390*
Y1236811*
X1215300Y1209430D02*
G01Y1229598D01*
X1216700Y1230998*
Y1233100*
X1189370Y1205118D02*
G01X1187008D01*
X1189370Y1198819D02*
G01X1187549D01*
X1189370Y1192520D02*
G01X1193096D01*
X1208000Y1205300D02*
G01X1207900D01*
X1212400Y1225000D02*
G01Y1227329D01*
X1213700Y1228629*
Y1230800*
X1247300Y1215100D02*
G01X1250200Y1218000D01*
Y1222400*
X1252390Y1203733D02*
G01X1247300Y1208823D01*
Y1215100*
X1230258Y1204158D02*
G01X1230300Y1204200D01*
X1245390Y1199483D02*
G01X1241535Y1203338D01*
Y1233071*
X1250200Y1222400D02*
G01X1247300Y1225300D01*
Y1236201*
X1243501Y1240000*
X1304331Y1195276D02*
G01Y1199598D01*
X1304300Y1199629*
Y1204000*
X1141056Y1256593D02*
G01X1142400Y1257938D01*
Y1260400*
X1141600Y1250800D02*
G01Y1252841D01*
X1141056Y1253385*
Y1256593*
X1176900Y1248554D02*
G01X1187008Y1258661D01*
X1178100Y1246100D02*
G01X1187512Y1255512D01*
X1189370*
X1202741Y1249974D02*
G01X1202126D01*
X1199600Y1252500*
X1225100Y1232747D02*
G01Y1244044D01*
X1222490Y1246654*
X1209490Y1232713D02*
G01Y1245628D01*
X1199606Y1255512*
X1208490Y1238016D02*
G01Y1244224D01*
X1202741Y1249974*
X1216790Y1238972D02*
G01X1215000Y1240762D01*
Y1243700*
X1189370Y1249213D02*
G01X1187008D01*
X1216700Y1233100D02*
G01Y1235109D01*
X1216790Y1235199*
Y1238972*
X1220866Y1246654D02*
G01X1222490D01*
X1243501Y1240000D02*
G01X1242480D01*
X1241535Y1240945*
X1242576Y1236052D02*
G01X1242491D01*
X1241535Y1237008*
X1239567Y1238976D02*
G01X1242175D01*
X1239567Y1235039D02*
G01X1242175D01*
G54D48*
X1289370Y1185000D02*
G01X1271260Y1203000D01*
Y1211024*
X1289370Y1178500D02*
G01Y1185000D01*
G54D63*
X1000000Y1015748D02*
G01X1175984D01*
Y1000000*
X1333465*
Y1265748*
X1000000*
Y1015748*
G54D70*
X1186894Y1068206D02*
G01X1190300Y1071611D01*
Y1076304*
X1193331Y1079335*
Y1082602*
X1191100Y1084833*
Y1087400*
X1186894Y1068206D02*
G01X1186700Y1068400D01*
X1299000Y1055000D02*
G01X1324400D01*
X1328400Y1059000*
Y1141900*
X1324700Y1145600*
X1319000*
X1314600Y1150000*
X1307700*
G54D72*
X1017967Y868356D02*
G01X1016893Y867864D01*
X1016178Y866388*
X1015820Y863927*
Y862451*
X1016178Y859990*
X1016893Y858514*
X1017967Y858022*
X1018683*
X1019757Y858514*
X1020472Y859990*
X1020830Y862451*
Y863927*
X1020472Y866388*
X1019757Y867864*
X1018683Y868356*
X1017967*
X1028704Y864911D02*
G01X1028346Y863435D01*
X1027631Y862451*
X1026557Y861959*
X1026199*
X1025125Y862451*
X1024409Y863435*
X1024052Y864911*
Y865404*
X1024409Y866880*
X1025125Y867864*
X1026199Y868356*
X1026557*
X1027631Y867864*
X1028346Y866880*
X1028704Y864911*
Y862451*
X1028346Y859990*
X1027631Y858514*
X1026557Y858022*
X1025841*
X1024767Y858514*
X1024409Y859498*
X1031926Y862451D02*
G01X1038368D01*
X1043737Y868356D02*
G01X1042663Y867864D01*
X1041947Y866388*
X1041589Y863927*
Y862451*
X1041947Y859990*
X1042663Y858514*
X1043737Y858022*
X1044452*
X1045526Y858514*
X1046242Y859990*
X1046600Y862451*
Y863927*
X1046242Y866388*
X1045526Y867864*
X1044452Y868356*
X1043737*
X1051968D02*
G01X1050895Y867864D01*
X1050179Y866388*
X1049821Y863927*
Y862451*
X1050179Y859990*
X1050895Y858514*
X1051968Y858022*
X1052684*
X1053758Y858514*
X1054474Y859990*
X1054832Y862451*
Y863927*
X1054474Y866388*
X1053758Y867864*
X1052684Y868356*
X1051968*
X1060200D02*
G01X1059127Y867864D01*
X1058411Y866388*
X1058053Y863927*
Y862451*
X1058411Y859990*
X1059127Y858514*
X1060200Y858022*
X1060916*
X1061990Y858514*
X1062706Y859990*
X1063064Y862451*
Y863927*
X1062706Y866388*
X1061990Y867864*
X1060916Y868356*
X1060200*
X1068432D02*
G01X1067359Y867864D01*
X1066643Y866388*
X1066285Y863927*
Y862451*
X1066643Y859990*
X1067359Y858514*
X1068432Y858022*
X1069148*
X1070222Y858514*
X1070938Y859990*
X1071296Y862451*
Y863927*
X1070938Y866388*
X1070222Y867864*
X1069148Y868356*
X1068432*
X1078096D02*
G01X1074517Y861467D01*
X1079885*
X1078096Y868356D02*
G01Y858022D01*
X1085254Y868356D02*
G01X1084180Y867864D01*
X1083464Y866388*
X1083107Y863927*
Y862451*
X1083464Y859990*
X1084180Y858514*
X1085254Y858022*
X1085970*
X1087044Y858514*
X1087759Y859990*
X1088117Y862451*
Y863927*
X1087759Y866388*
X1087044Y867864*
X1085970Y868356*
X1085254*
X1091338Y862451D02*
G01X1097781D01*
X1103149Y868356D02*
G01X1102076Y867864D01*
X1101360Y866388*
X1101002Y863927*
Y862451*
X1101360Y859990*
X1102076Y858514*
X1103149Y858022*
X1103865*
X1104939Y858514*
X1105655Y859990*
X1106013Y862451*
Y863927*
X1105655Y866388*
X1104939Y867864*
X1103865Y868356*
X1103149*
X1111381D02*
G01X1110308Y867864D01*
X1109592Y866388*
X1109234Y863927*
Y862451*
X1109592Y859990*
X1110308Y858514*
X1111381Y858022*
X1112097*
X1113171Y858514*
X1113887Y859990*
X1114245Y862451*
Y863927*
X1113887Y866388*
X1113171Y867864*
X1112097Y868356*
X1111381*
X1233178Y866388D02*
G01X1233894Y866880D01*
X1234968Y868356*
Y858022*
X1242842Y864911D02*
G01X1242484Y863435D01*
X1241768Y862451*
X1240694Y861959*
X1240336*
X1239263Y862451*
X1238547Y863435*
X1238189Y864911*
Y865404*
X1238547Y866880*
X1239263Y867864*
X1240336Y868356*
X1240694*
X1241768Y867864*
X1242484Y866880*
X1242842Y864911*
Y862451*
X1242484Y859990*
X1241768Y858514*
X1240694Y858022*
X1239978*
X1238905Y858514*
X1238547Y859498*
X1246063Y862451D02*
G01X1252505D01*
X1255726Y868356D02*
G01Y858022D01*
Y868356D02*
G01X1260737Y858022D01*
Y868356D02*
G01Y858022D01*
X1266106Y868356D02*
G01X1265390Y867864D01*
X1264674Y866880*
X1264316Y865896*
X1263958Y864419*
Y861959*
X1264316Y860482*
X1264674Y859498*
X1265390Y858514*
X1266106Y858022*
X1267537*
X1268253Y858514*
X1268969Y859498*
X1269327Y860482*
X1269685Y861959*
Y864419*
X1269327Y865896*
X1268969Y866880*
X1268253Y867864*
X1267537Y868356*
X1266106*
X1272906D02*
G01X1275769Y858022D01*
X1278633Y868356D02*
G01X1275769Y858022D01*
X1281854Y862451D02*
G01X1288296D01*
X1293665Y868356D02*
G01X1292591Y867864D01*
X1291875Y866388*
X1291517Y863927*
Y862451*
X1291875Y859990*
X1292591Y858514*
X1293665Y858022*
X1294381*
X1295454Y858514*
X1296170Y859990*
X1296528Y862451*
Y863927*
X1296170Y866388*
X1295454Y867864*
X1294381Y868356*
X1293665*
X1301539D02*
G01X1300465Y867864D01*
X1300107Y866880*
Y865896*
X1300465Y864911*
X1301181Y864419*
X1302613Y863927*
X1303686Y863435*
X1304402Y862451*
X1304760Y861467*
Y859990*
X1304402Y859006*
X1304044Y858514*
X1302970Y858022*
X1301539*
X1300465Y858514*
X1300107Y859006*
X1299749Y859990*
Y861467*
X1300107Y862451*
X1300823Y863435*
X1301897Y863927*
X1303328Y864419*
X1304044Y864911*
X1304402Y865896*
Y866880*
X1304044Y867864*
X1302970Y868356*
X1301539*
X1162670D02*
G01X1159807Y858022D01*
X1162670Y868356D02*
G01X1165533Y858022D01*
X1160880Y861467D02*
G01X1164459D01*
X1168754Y868356D02*
G01Y858022D01*
Y868356D02*
G01X1173407D01*
X1168754Y863435D02*
G01X1171618D01*
X1168754Y858022D02*
G01X1173407D01*
M02*
